<svg id="Layer_1" data-name="Layer 1" xmlns="http://www.w3.org/2000/svg" viewBox="0 0 85.23 26.4"><defs><style>.cls-1{fill:#fff}</style></defs><title>Vector Smart Object</title><path class="cls-1" d="M1.83 1.66h81.94v23.05H1.83z"/><path d="M30.4 6.9l1.21 2.17h.75l1.2-2.17v4.6h1.35V4.29h-1.35l-1.58 2.86-1.58-2.86h-1.34v7.21h1.34V6.9zM38 8.36c-1.24.08-1.91.64-1.91 1.64a1.55 1.55 0 0 0 1.77 1.58 1.89 1.89 0 0 0 1.2-.41v.35h1.23V8.14a1.82 1.82 0 0 0-2-1.83 2.09 2.09 0 0 0-2 1.36l1.04.33a1.15 1.15 0 0 1 .94-.48.67.67 0 0 1 .75.74v.03zM39 10a1.25 1.25 0 0 1-1 .38c-.56 0-.64-.21-.64-.41A.54.54 0 0 1 38 9.4l1-.06V10zM43.58 11.56a1.75 1.75 0 0 0 1.09-.36v.27a.88.88 0 0 1-.94 1 1.19 1.19 0 0 1-1.06-.63l-1.13.29a2.28 2.28 0 0 0 4.46-.66v-5.1h-1.27v.35a1.54 1.54 0 0 0-1.1-.41c-1 0-2.26.7-2.26 2.62s1.21 2.63 2.21 2.63zm.06-4.07a1.11 1.11 0 0 1 1 1.22v.64a1 1 0 0 1-1 1c-.44 0-1-.24-1-1.44s.57-1.42 1-1.42zM47.7 13.58h1.31l2.63-7.21h-1.4l-1.03 3.1-1.02-3.1h-1.4l1.76 4.81-.85 2.4zM53.9 8.36C52.69 8.44 52 9 52 10a1.55 1.55 0 0 0 1.77 1.58 1.89 1.89 0 0 0 1.2-.41v.35h1.23V8.14a1.82 1.82 0 0 0-2-1.83 2.09 2.09 0 0 0-2 1.36l1.05.33a1.15 1.15 0 0 1 .94-.48.67.67 0 0 1 .75.74v.03zm1 1.63a1.25 1.25 0 0 1-1 .38c-.56 0-.64-.21-.64-.41a.54.54 0 0 1 .61-.57l1-.06V10zM58.87 8.67a1 1 0 0 1 .94-1.06 1.75 1.75 0 0 1 .54.09l.12-1.35a2.75 2.75 0 0 0-.48 0 1.53 1.53 0 0 0-1.16.51v-.45h-1.26v5.09h1.3V8.67zM30.4 18.6l.41-.45 2.34 3.08h1.61l-3.09-4.04 2.82-3.16H32.8l-2.4 2.71v-2.71h-1.34v7.2h1.34V18.6zM38.77 20.09h-1v-6.06H35.5v1.14h.98v4.92h-.98v1.14h3.27v-1.14zM41.8 16.1h-2.28v1.15h.98v2.84h-.98v1.14h3.27v-1.14h-.99V16.1z"/><circle cx="41.15" cy="14.79" r=".82"/><path d="M44.93 16.1H43.7v7.21H45v-2.38a1.75 1.75 0 0 0 1.09.36c1 0 2.23-.7 2.23-2.63S47.1 16 46.06 16a1.54 1.54 0 0 0-1.1.41zm.07 2.15a1 1 0 0 1 1-1c.45 0 1 .24 1 1.44s-.56 1.45-1 1.45a1.12 1.12 0 0 1-1-1.23v-.66zM51.75 18.14l-.33-.14c-.55-.19-.77-.27-.77-.46a.45.45 0 0 1 .52-.33.77.77 0 0 1 .71.59l1.12-.28A1.8 1.8 0 0 0 51.16 16a1.64 1.64 0 0 0-1.82 1.55 1.65 1.65 0 0 0 1.39 1.47l.37.18c.51.19.71.29.71.52a.54.54 0 0 1-.65.39 1 1 0 0 1-1-.63l-1.13.29a1.94 1.94 0 0 0 2.05 1.52 1.74 1.74 0 0 0 2-1.61 1.66 1.66 0 0 0-1.33-1.54zM54.05 17.25h2.18l-2.29 3.06v.92h3.96v-1.14h-2.27l2.27-3.03v-.96h-3.85v1.15zM58.65 18.68A2.28 2.28 0 0 0 61 21.29a2.11 2.11 0 0 0 2.15-1.52L62 19.48a1.2 1.2 0 0 1-1 .63 1 1 0 0 1-1-1h3.3v-.44C63.29 16.74 62.11 16 61 16s-2.35.74-2.35 2.68zM61 17.23a.91.91 0 0 1 .93.85H60a.94.94 0 0 1 1-.85zM65.68 18.16c.11-.76.47-.93.75-.93s.74.18.74 1.06v2.95h1.3v-3.08a.86.86 0 0 1 .76-.93c.29 0 .74.18.74 1.06v2.95h1.3v-3A1.89 1.89 0 0 0 69.38 16a2.22 2.22 0 0 0-1.45.57 1.6 1.6 0 0 0-1.24-.57 1.56 1.56 0 0 0-1.05.41v-.35h-1.26v5.13h1.3v-3.03zM75.52 20.09h-.99v-6.06h-2.28v1.14h.98v4.92h-.98v1.14h3.27v-1.14zM78.53 21.29a2.11 2.11 0 0 0 2.15-1.52l-1.13-.29a1.2 1.2 0 0 1-1 .63 1 1 0 0 1-1-1h3.3v-.44c0-1.93-1.17-2.63-2.32-2.63s-2.32.7-2.32 2.64a2.28 2.28 0 0 0 2.32 2.61zm-.05-4.07a.91.91 0 0 1 .93.85h-1.88a.94.94 0 0 1 .95-.84zM19.89 17a.76.76 0 0 0 .77-.77.77.77 0 1 0-1.54 0 .76.76 0 0 0 .77.77z"/><path d="M26.47 0H0v26.4h85.23V0H26.47zm-2.41 24H2.41V2.41h21.65V24zm58.77 0H26.47V2.41h56.35V24z"/><path d="M10 9.78a2.79 2.79 0 0 1 .81.12 2.4 2.4 0 0 1 .75.39 2.7 2.7 0 0 1 .63.68 3.49 3.49 0 0 1 .43 1 6.18 6.18 0 0 1 0 2.81 3.49 3.49 0 0 1-.43 1 2.7 2.7 0 0 1-.63.68 2.39 2.39 0 0 1-.75.39 2.88 2.88 0 0 1-1.63 0 2.39 2.39 0 0 1-.75-.39 2.66 2.66 0 0 1-.63-.68 3.49 3.49 0 0 1-.42-1 6.27 6.27 0 0 1 0-2.81 3.49 3.49 0 0 1 .42-1 2.66 2.66 0 0 1 .63-.68 2.39 2.39 0 0 1 .72-.39 2.81 2.81 0 0 1 .85-.12zm-1.34 4.7l2.07-3.27A1.11 1.11 0 0 0 10 11a1.4 1.4 0 0 0-.4.06 1.09 1.09 0 0 0-.38.22 1.37 1.37 0 0 0-.33.42 2.63 2.63 0 0 0-.22.7 5.4 5.4 0 0 0-.09 1 6.14 6.14 0 0 0 .04 1.08zm.7 1.19a1.19 1.19 0 0 0 .64.16 1.36 1.36 0 0 0 .4-.06 1.1 1.1 0 0 0 .38-.22 1.42 1.42 0 0 0 .33-.42 2.53 2.53 0 0 0 .23-.7 6 6 0 0 0 0-1.93zM13.45 17v-1.12L16 13.17a3.19 3.19 0 0 0 .48-.63 1.23 1.23 0 0 0 .14-.59 1.07 1.07 0 0 0-.21-.69.74.74 0 0 0-.6-.26.8.8 0 0 0-.7.37 1.8 1.8 0 0 0-.25 1h-1.34a2.74 2.74 0 0 1 .63-1.92 2.15 2.15 0 0 1 1.66-.68 2.15 2.15 0 0 1 1.58.58 2.09 2.09 0 0 1 .61 1.57 2.64 2.64 0 0 1-.08.65 1.94 1.94 0 0 1-.24.55 4 4 0 0 1-.3.42L17 14l-1.6 1.7h2.72V17h-4.67z"/></svg>