<?xml version="1.0" encoding="utf-8"?>
<!-- Generator: Adobe Illustrator 22.1.0, SVG Export Plug-In . SVG Version: 6.00 Build 0)  -->
<svg version="1.1" id="Layer_1" xmlns="http://www.w3.org/2000/svg" xmlns:xlink="http://www.w3.org/1999/xlink" x="0px" y="0px"
	 viewBox="0 0 183.3 285.4" style="enable-background:new 0 0 183.3 285.4;" xml:space="preserve">
<style type="text/css">
	.st0{fill:#FFFFFF;}
</style>
<g>
	<g>
		<g>
			<polygon class="st0" points="156.5,186 22,186 22,179.9 150.4,179.9 150.4,54 156.5,54 			"/>
		</g>
		<g>
			<g>
				<polygon class="st0" points="26.4,167.7 0,182.9 26.4,198.2 				"/>
			</g>
		</g>
	</g>
	<g>
		<g>
			<rect x="80.8" y="54" class="st0" width="6.1" height="209.4"/>
		</g>
		<g>
			<g>
				<polygon class="st0" points="68.6,258.9 83.9,285.4 99.2,258.9 				"/>
			</g>
		</g>
	</g>
	<g>
		<g>
			<path class="st0" d="M82,37.1c-12.1,0-23.5-6.5-29.6-17l-0.9-1.5l0.9-1.5C58.5,6.5,69.9,0,82,0s23.5,6.5,29.6,17l0.9,1.5
				l-0.9,1.5C105.5,30.6,94.1,37.1,82,37.1z M58.6,18.6C63.8,26.3,72.6,31,82,31s18.2-4.7,23.4-12.4c-5.2-7.7-14-12.4-23.4-12.4
				S63.8,10.8,58.6,18.6z"/>
		</g>
		<g>
			<g>
				<path class="st0" d="M82,30.5c-6.6,0-11.9-5.3-11.9-11.9S75.4,6.7,82,6.7S93.9,12,93.9,18.6S88.5,30.5,82,30.5z M82,12.8
					c-3.2,0-5.8,2.6-5.8,5.8s2.6,5.8,5.8,5.8s5.8-2.6,5.8-5.8S85.2,12.8,82,12.8z"/>
			</g>
			<g>
				<circle class="st0" cx="85.4" cy="14.5" r="3.8"/>
			</g>
		</g>
	</g>
	<g>
		<g>
			<path class="st0" d="M152.7,37.1c-12.1,0-23.5-6.5-29.6-17l-0.9-1.5l0.9-1.5c6.1-10.5,17.5-17,29.6-17s23.5,6.5,29.6,17l0.9,1.5
				l-0.9,1.5C176.2,30.6,164.9,37.1,152.7,37.1z M129.4,18.6c5.2,7.7,14,12.4,23.4,12.4s18.2-4.7,23.4-12.4
				c-5.2-7.7-14-12.4-23.4-12.4S134.6,10.8,129.4,18.6z"/>
		</g>
		<g>
			<g>
				<path class="st0" d="M152.7,30.5c-6.6,0-11.9-5.3-11.9-11.9s5.3-11.9,11.9-11.9s11.9,5.3,11.9,11.9S159.3,30.5,152.7,30.5z
					 M152.7,12.8c-3.2,0-5.8,2.6-5.8,5.8s2.6,5.8,5.8,5.8s5.8-2.6,5.8-5.8S155.9,12.8,152.7,12.8z"/>
			</g>
			<g>
				<circle class="st0" cx="156.1" cy="14.5" r="3.8"/>
			</g>
		</g>
	</g>
</g>
</svg>
