<?xml version="1.0" encoding="utf-8"?>
<!-- Generator: Adobe Illustrator 22.1.0, SVG Export Plug-In . SVG Version: 6.00 Build 0)  -->
<svg version="1.1" id="Layer_1" xmlns="http://www.w3.org/2000/svg" xmlns:xlink="http://www.w3.org/1999/xlink" x="0px" y="0px"
	 viewBox="0 0 282.5 131.8" style="enable-background:new 0 0 282.5 131.8;" xml:space="preserve">
<style type="text/css">
	.st0{fill:#FFFFFF;}
</style>
<g>
	<g>
		<g>
			
				<rect x="120.7" y="-51.5" transform="matrix(0.3574 -0.934 0.934 0.3574 22.2835 154.4495)" class="st0" width="5.4" height="225.1"/>
		</g>
		<g>
			<g>
				<polygon class="st0" points="26.8,9.5 0,13.8 17.1,34.9 				"/>
			</g>
		</g>
	</g>
	<g>
		<g>
			
				<rect x="10.8" y="68.1" transform="matrix(0.9339 -0.3574 0.3574 0.9339 -17.1519 48.7742)" class="st0" width="225.1" height="5.4"/>
		</g>
		<g>
			<g>
				<polygon class="st0" points="17.1,96.9 0,118 26.8,122.3 				"/>
			</g>
		</g>
	</g>
	<g>
		<g>
			<path class="st0" d="M263.9,131.8l-1.5-0.9c-10.5-6.1-17-17.5-17-29.6c0-12.1,6.5-23.5,17-29.6l1.5-0.9l1.5,0.9
				c10.5,6.1,17,17.5,17,29.6c0,12.1-6.5,23.5-17,29.6L263.9,131.8z M263.9,77.9c-7.7,5.2-12.4,14-12.4,23.4
				c0,9.4,4.7,18.2,12.4,23.4c7.7-5.2,12.4-14,12.4-23.4C276.4,91.9,271.6,83.1,263.9,77.9z"/>
		</g>
		<g>
			<g>
				<path class="st0" d="M263.9,113.1c-6.6,0-11.9-5.3-11.9-11.9s5.3-11.9,11.9-11.9s11.9,5.3,11.9,11.9S270.5,113.1,263.9,113.1z
					 M263.9,95.5c-3.2,0-5.8,2.6-5.8,5.8s2.6,5.8,5.8,5.8s5.8-2.6,5.8-5.8S267.1,95.5,263.9,95.5z"/>
			</g>
			<g>
				<circle class="st0" cx="259.8" cy="97.8" r="3.8"/>
			</g>
		</g>
	</g>
	<g>
		<g>
			<path class="st0" d="M263.9,61.1l-1.5-0.9c-10.5-6.1-17-17.5-17-29.6s6.5-23.5,17-29.6l1.5-0.9l1.5,0.9c10.5,6.1,17,17.5,17,29.6
				s-6.5,23.5-17,29.6L263.9,61.1z M263.9,7.2c-7.7,5.2-12.4,14-12.4,23.4s4.7,18.2,12.4,23.4c7.7-5.2,12.4-14,12.4-23.4
				S271.6,12.4,263.9,7.2z"/>
		</g>
		<g>
			<g>
				<path class="st0" d="M263.9,42.4c-6.6,0-11.9-5.3-11.9-11.9s5.3-11.9,11.9-11.9s11.9,5.3,11.9,11.9S270.5,42.4,263.9,42.4z
					 M263.9,24.8c-3.2,0-5.8,2.6-5.8,5.8s2.6,5.8,5.8,5.8s5.8-2.6,5.8-5.8S267.1,24.8,263.9,24.8z"/>
			</g>
			<g>
				<circle class="st0" cx="259.8" cy="27.1" r="3.8"/>
			</g>
		</g>
	</g>
</g>
</svg>
