<svg id="Layer_1" data-name="Layer 1" xmlns="http://www.w3.org/2000/svg" viewBox="0 0 866.07 67.39"><defs><style>.cls-1{fill:#f9ea31;}</style></defs><title>Magyar_klipszemle_SZPONZOR_CSIK</title><rect class="cls-1" x="796.35" y="0.09" width="6.42" height="65.2"/><rect class="cls-1" x="859.65" y="0.09" width="6.42" height="65.2"/><path class="cls-1" d="M816.46,60.51,825.6,4.88h11.21L846,60.51h-8.78l-1.74-12.06H827l-1.74,12.06ZM828,40.65h6.33l-3-23.32H831Z"/><path class="cls-1" d="M5.35,59.09a7.35,7.35,0,0,1-2.3.28c-2.25,0-3-1-3-3.87s.8-3.88,3.05-3.88a7.38,7.38,0,0,1,2.14.24l-.13,1c-.67,0-1.11-.07-2-.07-1.24,0-1.62.63-1.62,2.68s.38,2.67,1.62,2.67a16.7,16.7,0,0,0,2.18-.1Z"/><path class="cls-1" d="M7.86,57.12l-.61,2.12H5.86L8.1,52.11a.49.49,0,0,1,.49-.36H9.91a.48.48,0,0,1,.49.36l2.25,7.13H11.26l-.62-2.12Zm1.71-3.7c-.06-.2-.13-.43-.17-.64H9.11l-.17.64L8.19,56h2.12Z"/><path class="cls-1" d="M15.3,52.86c-.47,0-.64.16-.64.63v1.44h2.95v1H14.66v3.26H13.3v-6a1.42,1.42,0,0,1,1.6-1.48c1.07,0,2.24,0,3.19.1l-.07,1Z"/><path class="cls-1" d="M19.91,57.13c.11,1,.51,1.16,1.42,1.16a17.17,17.17,0,0,0,1.91-.13l.12.85a5.83,5.83,0,0,1-2.19.36c-1.93,0-2.66-.78-2.66-2.8s.77-2.8,2.58-2.8,2.41.64,2.41,1.85c0,1-.43,1.51-1.42,1.51Zm1.8-.92c.43,0,.48-.33.48-.62,0-.56-.24-.78-1.05-.78s-1.22.28-1.25,1.4Z"/><path class="cls-1" d="M30.37,55.38c1.12.09,1.49.8,1.49,2,0,1.54-.63,2-2.33,2-1.17,0-1.72,0-2.51-.08V51.75a19.39,19.39,0,0,1,2.19-.08c1.78,0,2.43.41,2.43,1.95,0,1.07-.38,1.63-1.27,1.71Zm-1-.2c1.33,0,1.79-.3,1.79-1.53s-.52-1.59-2-1.59l-1.74,0v3.1Zm-1.93,3.73,2,0c1.41,0,1.91-.3,1.91-1.6s-.53-1.77-2-1.79H27.46Z"/><path class="cls-1" d="M38.6,56.45c0,2.1-.69,2.92-2.58,2.92s-2.61-.82-2.61-2.92v-4.7h.44v4.7c0,1.85.58,2.52,2.16,2.52s2.15-.67,2.15-2.52v-4.7h.44Z"/><path class="cls-1" d="M40.48,51.75c.73,0,1.56-.09,2.53-.09,2.05,0,2.77,1,2.77,3.84s-.72,3.84-2.77,3.84c-1,0-1.79-.05-2.53-.1Zm.44,7.15c.61,0,1.27,0,2.09,0,1.71,0,2.31-.87,2.31-3.43s-.6-3.44-2.31-3.44c-.81,0-1.47,0-2.09,0Z"/><path class="cls-1" d="M47.91,56.6,47,59.24h-.47l2.61-7.34a.22.22,0,0,1,.2-.15h.61a.21.21,0,0,1,.19.15l2.62,7.34h-.47l-.92-2.64ZM50,52.73l-.21-.61h-.31l-.22.61-1.21,3.48h3.17Z"/><path class="cls-1" d="M53.79,51.75a23.91,23.91,0,0,1,2.44-.08c1.64,0,2.22.49,2.22,2.23s-.58,2.24-2.19,2.24c-.86,0-1.59,0-2-.07v3.17h-.44Zm2.44,4c1.3,0,1.77-.38,1.77-1.85s-.47-1.84-1.77-1.84l-2,0v3.67Z"/><path class="cls-1" d="M64.21,59.19c-1,.05-2.13.05-3.19.05a1.12,1.12,0,0,1-1.19-1.15V52.9A1.12,1.12,0,0,1,61,51.75c1.06,0,2.15,0,3.19,0l0,.33H61.1a.79.79,0,0,0-.83.85v2.08h3.47v.37H60.27V58a.79.79,0,0,0,.83.85h3.09Z"/><path class="cls-1" d="M66.75,55.53c-1.06-.16-1.47-.77-1.47-2,0-1.79.75-2,2.3-1.93a16.06,16.06,0,0,1,2.09.15l0,.32c-.64,0-1.34-.07-2-.07-1.3,0-1.85,0-1.85,1.54,0,1,.32,1.41,1.12,1.54l1.62.27c1.11.16,1.51.72,1.51,2,0,1.77-.8,2-2.34,2a15.67,15.67,0,0,1-2.24-.14l0-.34c.93.06,1.45.09,2.22.08,1.37,0,1.87-.21,1.87-1.58,0-1.1-.33-1.45-1.16-1.58Z"/><path class="cls-1" d="M73.71,52.15v7.09h-.44V52.15H70.7v-.4h5.59v.4Z"/><path class="cls-1" d="M.7,65.4c0,.15,0,.29,0,.44v1.41H.5V63.53H.71v1.24a3.17,3.17,0,0,1,0,.44h.59l1.26-1.68h.25l-1.2,1.61a.78.78,0,0,1-.15.16h0a1.17,1.17,0,0,1,.15.16l1.29,1.78H2.62L1.28,65.4Z"/><path class="cls-1" d="M6,65.39c0,1.43-.36,1.92-1.39,1.92s-1.4-.49-1.4-1.92.36-1.93,1.4-1.93S6,64,6,65.39Zm-2.56,0c0,1.28.3,1.72,1.17,1.72s1.16-.44,1.16-1.72-.29-1.73-1.16-1.73S3.43,64.1,3.43,65.39Z"/><path class="cls-1" d="M9,67.25l-.37-1.17a.57.57,0,0,0-.59-.47l-1,0v1.66H6.81V63.53A10.38,10.38,0,0,1,8,63.48c.81,0,1.1.23,1.1,1.05,0,.66-.2.92-.68,1v0a.74.74,0,0,1,.42.52l.4,1.19ZM8,65.41c.64,0,.88-.19.88-.87s-.24-.86-.88-.86H7v1.72Z"/><path class="cls-1" d="M11,63.72v3.53h-.22V63.72H9.5v-.19h2.78v.19Z"/><path class="cls-1" d="M12.76,65.94l-.46,1.31h-.23l1.3-3.65a.09.09,0,0,1,.09-.07h.3a.09.09,0,0,1,.1.07l1.3,3.65h-.23l-.46-1.31Zm1-1.93-.11-.3h-.15l-.11.3-.6,1.73H14.4Zm-.47-.83.84-.78.14.16-.88.73Z"/><path class="cls-1" d="M17.89,67.25l-.38-1.17c-.12-.35-.3-.47-.58-.47l-1,0v1.66h-.22V63.53a10.2,10.2,0,0,1,1.21-.05c.81,0,1.11.23,1.11,1.05,0,.66-.21.92-.69,1v0a.77.77,0,0,1,.43.52l.39,1.19Zm-1-1.84c.65,0,.88-.19.88-.87s-.23-.86-.88-.86h-1v1.72Z"/><path class="cls-1" d="M19.4,65.4c-.53-.08-.73-.38-.73-1,0-.89.37-1,1.14-1a7.17,7.17,0,0,1,1,.07l0,.16c-.31,0-.66,0-1,0-.65,0-.93,0-.93.76,0,.51.16.7.56.77l.81.13c.55.08.75.36.75,1,0,.88-.4,1-1.17,1a8.47,8.47,0,0,1-1.11-.07l0-.17c.46,0,.72,0,1.1,0,.68,0,.93-.11.93-.79s-.16-.72-.58-.78Z"/><path class="cls-1" d="M26.65,63.61a.1.1,0,0,1,.11.11l.16,3.61H26.7l-.15-3.54h-.13L25.3,66.9a.11.11,0,0,1-.1.08h-.28a.11.11,0,0,1-.11-.08l-1.12-3.11h-.12l-.16,3.54h-.22l.16-3.61a.1.1,0,0,1,.11-.11h.31a.09.09,0,0,1,.1.07l.94,2.61c.07.17.12.34.18.5h.13l.18-.51.94-2.6s.05-.07.11-.07Z"/><path class="cls-1" d="M30.36,65.94c0,1-.35,1.45-1.28,1.45s-1.3-.4-1.3-1.45V63.61H28v2.33c0,.92.28,1.25,1.07,1.25s1.07-.33,1.07-1.25V63.61h.22Zm-1.74-2.55-.12-.09.6-.86.17.11Zm.79,0-.12-.09.6-.86.17.11Z"/><path class="cls-1" d="M32.61,67.26a.11.11,0,0,1-.1.07h-.29a.11.11,0,0,1-.1-.07l-1.23-3.65h.23l1.05,3.13.12.4h.15c0-.13.08-.27.13-.4l1-3.13h.24Z"/><path class="cls-1" d="M36.54,67.31c-.51,0-1,0-1.58,0a.56.56,0,0,1-.59-.57V64.18a.55.55,0,0,1,.59-.57c.53,0,1.07,0,1.58,0v.16H35a.39.39,0,0,0-.41.43v1h1.72v.18H34.59v1.29a.39.39,0,0,0,.41.42h1.53Zm-1.29-4.18.84-.78.14.16-.88.73Z"/><path class="cls-1" d="M37.81,65.48c-.53-.08-.73-.38-.73-1,0-.89.37-1,1.14-1a7.17,7.17,0,0,1,1,.07l0,.16c-.32,0-.67,0-1,0-.65,0-.93,0-.93.76,0,.51.16.7.56.77l.81.13c.55.08.75.36.75,1,0,.87-.4,1-1.17,1a8.47,8.47,0,0,1-1.11-.07l0-.17c.46,0,.72,0,1.1,0,.68,0,.93-.11.93-.78s-.16-.73-.57-.79Z"/><path class="cls-1" d="M42.38,67.33H39.9v-.2l2.2-3.33H39.93v-.19h2.42v.19l-2.2,3.33h2.23Z"/><path class="cls-1" d="M45.22,67.31c-.52,0-1.06,0-1.58,0a.57.57,0,0,1-.6-.57V64.18a.56.56,0,0,1,.6-.57c.52,0,1.06,0,1.58,0v.16H43.67a.4.4,0,0,0-.41.43v1H45v.18H43.26v1.29a.4.4,0,0,0,.41.42h1.54Z"/><path class="cls-1" d="M47.06,63.8v3.53h-.23V63.8H45.56v-.19h2.78v.19Z"/><path class="cls-1" d="M48.9,67.33V63.61h.23v3.72Z"/><path class="cls-1" d="M52.66,63.78a.4.4,0,0,0-.43.42v1.06h1.69v.18H52.23v1.87H52V64.16a.56.56,0,0,1,.6-.57c.51,0,1,0,1.54,0v.17Z"/><path class="cls-1" d="M56.94,67.29c-.52,0-1.06,0-1.59,0a.56.56,0,0,1-.59-.57V64.16a.55.55,0,0,1,.59-.57c.53,0,1.07,0,1.59,0v.17H55.39a.39.39,0,0,0-.41.42v1H56.7v.19H55V66.7a.39.39,0,0,0,.41.42h1.54Z"/><path class="cls-1" d="M58.2,65.46c-.53-.08-.73-.38-.73-1,0-.89.37-1,1.14-1a8.79,8.79,0,0,1,1,.07l0,.17c-.32,0-.67,0-1,0-.65,0-.92,0-.92.76,0,.51.15.7.55.77l.81.13c.55.08.75.36.75,1,0,.87-.4,1-1.16,1a8.37,8.37,0,0,1-1.11-.07v-.17c.47,0,.72,0,1.11,0,.68,0,.92-.1.92-.78s-.16-.73-.57-.79Z"/><path class="cls-1" d="M62.77,67.31H60.3v-.2l2.19-3.33H60.32v-.19h2.42v.19l-2.2,3.33h2.23Z"/><path class="cls-1" d="M64.57,63.78v3.53h-.22V63.78H63.07v-.19h2.79v.19Z"/><path class="cls-1" d="M66.42,67.31V63.59h.22v3.72Z"/><path class="cls-1" d="M68.93,67.24a.12.12,0,0,1-.11.07h-.29a.11.11,0,0,1-.1-.07L67.2,63.59h.23l1,3.14.12.39h.15c0-.13.08-.26.13-.4l1-3.13h.24Z"/><path class="cls-1" d="M70.77,66l-.45,1.31h-.24l1.3-3.65a.1.1,0,0,1,.1-.07h.3a.1.1,0,0,1,.1.07l1.3,3.65H73L72.49,66Zm1-1.93-.11-.3h-.15l-.11.3-.6,1.73h1.57Zm-.47-.83.84-.78.14.16-.88.73Z"/><path class="cls-1" d="M73.9,66.7a.4.4,0,0,0,.42.42h1.44v.16c-.48,0-1,0-1.47,0a.57.57,0,0,1-.61-.59V63.59h.22Z"/><path class="cls-1" d="M11.08,26.93,8.45,30.31h0V15.43l2.68,3.37a4,4,0,0,0,3.13,1.51A4,4,0,0,0,17.4,13.8l-9.58-12c-.1-.12-.21-.24-.32-.35A4,4,0,0,0,.43,4V42h0v.12s0,.06,0,.09a.31.31,0,0,0,0,.1.45.45,0,0,0,0,.11.17.17,0,0,0,0,.07s0,.09,0,.13a.09.09,0,0,1,0,.05l0,.15v0a.94.94,0,0,0,0,.16v0c0,.06,0,.11,0,.16v0l.06.15s0,0,0,.05l.06.13,0,.07,0,.1,0,.09,0,.07h0L1,44l0,0,.08.13,0,0,.09.13,0,0a1.47,1.47,0,0,0,.1.13l0,0h0l.08.09,0,0,.09.09.06.06.08.07.07.07.07.06.09.07,0,0H2l0,0,.08.06.07,0,.08,0,.07.05.08,0,.09.05.06,0h0l.13.07.05,0,.12.06.06,0,.11,0,.07,0,.11,0,.06,0,.13,0,.05,0,.37.07H4.7l.17,0h0l.18,0h0l.14,0h.08l.18,0h0l.18-.06h0l.18-.06,0,0,.18-.07h0l.19-.1.08,0,.09,0,.11-.07.06,0,.11-.08.06,0a.39.39,0,0,0,.1-.08L7,45l.1-.09a1.85,1.85,0,0,0,.14-.14h0l0,0,.1-.11.05-.05a1.13,1.13,0,0,1,.1-.13h0l0,0,9.8-12.56a4,4,0,0,0-6.32-4.94"/><path class="cls-1" d="M43.55,10.31,37,1.83c-.09-.12-.19-.24-.29-.35l-.1-.1,0,0a4.26,4.26,0,0,0-.82-.61h0L35.61.65l-.09,0-.08,0-.14,0,0,0L35.1.44h0L34.9.38h0l-.18,0h0l-.18,0h0l-.16,0h0l-.15,0h-.87l-.17,0h0a3.7,3.7,0,0,0-.55.14h0L32.4.49l0,0-.14.05a.2.2,0,0,1-.08,0l-.09,0L31.9.72h0a3.92,3.92,0,0,0-.82.6L31,1.45l0,0a3.17,3.17,0,0,0-.3.34L12.47,25.12a4.73,4.73,0,0,1,1.72-.32,4.63,4.63,0,0,1,4.62,4.09,4.83,4.83,0,0,1,0,1.14l15-19.24,4.71,6.11Z"/><path class="cls-1" d="M67.18,14.42,57.43,1.82A4,4,0,0,0,52.62.61a4.08,4.08,0,0,0-1.78,1.31L38.9,17.4h0L21.8,39.58a4,4,0,1,0,6.35,4.89l10.5-13.32,6.58,8.5a4,4,0,0,0,6.61-4.5h0v0a3.19,3.19,0,0,0-.26-.38h0L43.71,24.59l4.61-6.27.7-.91h0l5.16-6.69,6.66,8.61A4,4,0,0,0,64,20.88a4,4,0,0,0,3.16-6.46Z"/><path class="cls-1" d="M53.65,23.43l-4.2-5.37-4.89,6.5,5.06,6.69c-.65-.88.09-2.73.58-3.46.79-1.14,3.45-4.36,3.45-4.36"/><path class="cls-1" d="M62.31,26.45l2-2.57,2,2.57ZM50.75,28.2a4.15,4.15,0,0,0-.29,4c.1.17.32.53.42.67,2.08,3,8.83,11.5,8.83,11.5a4,4,0,1,0,6.36-4.88l-3.88-5.05H74.4a4,4,0,0,0,2.43-.83A4,4,0,0,0,77.58,28l-9-11.82a4.62,4.62,0,0,1-8.23,3.48l-1.43-1.85S51.53,27.05,50.75,28.2Z"/><path class="cls-1" d="M484.05,43.09a9.24,9.24,0,0,1-9.2-9.2,9.2,9.2,0,0,1,14.81-7.3.75.75,0,0,1,.3.51.77.77,0,0,1-.16.57.77.77,0,0,1-1.07.14,7.54,7.54,0,0,0-4.68-1.58,7.66,7.66,0,0,0-7.65,7.66,7.66,7.66,0,0,0,7.65,7.65,7.45,7.45,0,0,0,5.17-2,.72.72,0,0,1,.55-.2.76.76,0,0,1,.48,1.34A8.87,8.87,0,0,1,484.05,43.09Z"/><path class="cls-1" d="M494.29,43.09a.7.7,0,0,1-.53-.23.69.69,0,0,1-.23-.54V25.46a.7.7,0,0,1,.23-.54.67.67,0,0,1,.53-.23l10.18,0a.79.79,0,0,1,.77.77A.78.78,0,0,1,505,26a.77.77,0,0,1-.54.22l-9.41,0v6.89h7a.79.79,0,0,1,.77.77.73.73,0,0,1-.23.54.74.74,0,0,1-.54.23h-7v6.89h9.41a.79.79,0,0,1,.77.77.73.73,0,0,1-.23.54.74.74,0,0,1-.54.23Z"/><path class="cls-1" d="M521.51,42.82h0L509.76,27.69V42.32a.69.69,0,0,1-.23.54.74.74,0,0,1-1.07,0,.69.69,0,0,1-.23-.54V25.45A.77.77,0,0,1,509.6,25l11.73,15.11V25.45a.77.77,0,0,1,.22-.54.74.74,0,0,1,.54-.23.76.76,0,0,1,.55.23.73.73,0,0,1,.22.54V42.37a.24.24,0,0,1,0,.08.13.13,0,0,1,0,.06.45.45,0,0,0,0,.08l0,.06a.16.16,0,0,1,0,.07l0,.06a.18.18,0,0,1-.05.07l0,0s-.05,0,0,0,0,0,0,0l0,0s0,0-.08,0l0,0-.09,0,0,0h-.29l-.06,0-.1,0,0,0-.09-.05,0,0,0,0Z"/><path class="cls-1" d="M531.33,26.24h-5.06a.79.79,0,0,1-.55-.21.77.77,0,0,1-.22-.54.74.74,0,0,1,.22-.54.76.76,0,0,1,.55-.23h11.65a.74.74,0,0,1,.54.23.71.71,0,0,1,.23.54.74.74,0,0,1-.23.54.76.76,0,0,1-.54.21h-5.06V42.32a.78.78,0,0,1-.22.55.75.75,0,0,1-.55.22.75.75,0,0,1-.76-.77Z"/><path class="cls-1" d="M547.71,24.74a5.42,5.42,0,0,1,3.79,1.45,4.66,4.66,0,0,1,.29,6.7,5.27,5.27,0,0,1-3.17,1.67L552.27,42a.69.69,0,0,1,0,.58.77.77,0,0,1-.38.43.81.81,0,0,1-.34.08.71.71,0,0,1-.68-.42l-3.95-8h-4.28v7.58a.77.77,0,0,1-1.31.53.73.73,0,0,1-.22-.53V25.5a.73.73,0,0,1,.22-.54.77.77,0,0,1,.54-.22Zm3.85,5a3.11,3.11,0,0,0-1.13-2.42,3.9,3.9,0,0,0-2.72-1h-5v6.85h5.12a3.91,3.91,0,0,0,2.65-1A3.13,3.13,0,0,0,551.56,29.69Z"/><path class="cls-1" d="M568,24.76a.8.8,0,0,1,.54.21.77.77,0,0,1,.22.54V36.8a6.29,6.29,0,1,1-12.58,0V25.51a.72.72,0,0,1,.75-.75.74.74,0,0,1,.53.21.76.76,0,0,1,.21.54V36.8a4.8,4.8,0,0,0,9.59,0V25.51a.76.76,0,0,1,.21-.54A.74.74,0,0,1,568,24.76Z"/><path class="cls-1" d="M574.35,42.32a.78.78,0,0,1-.22.55.79.79,0,0,1-1.09,0,.74.74,0,0,1-.22-.55V25.53a.77.77,0,0,1,1.42-.39l7.64,12.62,7.64-12.62a.77.77,0,0,1,1.42.39V42.32a.75.75,0,0,1-.23.55.77.77,0,0,1-1.08,0,.78.78,0,0,1-.22-.55v-14l-6.88,11.36h0v0s0,0,0,.06l-.05.05,0,0-.07,0s0,0,0,0,0,0,0,0l-.08,0-.06,0L582,40h-.28l-.08,0-.06,0-.08,0h0s0,0,0,0l-.07,0,0,0-.05-.05s0,0,0-.06v0h0l-6.88-11.36Z"/><path class="cls-1" d="M608.91,25a5.28,5.28,0,0,1,3.73,1.43,4.59,4.59,0,0,1,.08,6.77,5.26,5.26,0,0,1-3.51,1.5H609l-.05,0s0,0,0,0H604v7.43a.71.71,0,0,1-.22.53.74.74,0,0,1-1,0,.71.71,0,0,1-.22-.53V25.72a.75.75,0,0,1,.75-.74Zm.1,8.22a3.83,3.83,0,0,0,2.59-1,3.09,3.09,0,0,0,0-4.73,3.87,3.87,0,0,0-2.67-1H604V33.2Z"/><path class="cls-1" d="M623.9,25a5.24,5.24,0,0,1,3.68,1.41,4.55,4.55,0,0,1,.28,6.52,5.11,5.11,0,0,1-3.08,1.62l3.55,7.24a.69.69,0,0,1,0,.56.78.78,0,0,1-.37.43.72.72,0,0,1-.33.07.68.68,0,0,1-.66-.41l-3.85-7.81H619V42a.71.71,0,0,1-.23.52.67.67,0,0,1-.52.22.7.7,0,0,1-.52-.22.74.74,0,0,1-.22-.52V25.75a.75.75,0,0,1,.74-.74Zm3.73,4.81a3,3,0,0,0-1.09-2.35,3.8,3.8,0,0,0-2.64-1H619v6.67h5a3.71,3.71,0,0,0,2.58-1A3,3,0,0,0,627.63,29.82Z"/><path class="cls-1" d="M640,42.86a8.95,8.95,0,0,1-8.94-8.94,8.94,8.94,0,1,1,15.26,6.32A8.6,8.6,0,0,1,640,42.86Zm0-16.39a7.48,7.48,0,0,0-7.44,7.45,7.45,7.45,0,1,0,12.7-5.25A7.12,7.12,0,0,0,640,26.47Z"/><path class="cls-1" d="M653.47,42.86a.74.74,0,0,1-.53-.21.77.77,0,0,1-.22-.54V25.72a.77.77,0,0,1,.22-.53.72.72,0,0,1,.53-.23h4.15a8.95,8.95,0,0,1,8.92,8.93,8.95,8.95,0,0,1-8.92,8.92l-4.14,0Zm.75-1.51,3.39-.05a7.44,7.44,0,0,0,7.44-7.41,7.44,7.44,0,0,0-7.43-7.42h-3.4Z"/><path class="cls-1" d="M681.56,25a.76.76,0,0,1,.53.21.7.7,0,0,1,.21.52v11a6.12,6.12,0,0,1-12.24,0v-11a.7.7,0,0,1,.21-.52.72.72,0,0,1,.53-.21.72.72,0,0,1,.72.73v11a4.66,4.66,0,0,0,9.32,0v-11a.72.72,0,0,1,.72-.73Z"/><path class="cls-1" d="M694,42.86a9,9,0,0,1-9-9,8.94,8.94,0,0,1,14.4-7.1.67.67,0,0,1,.29.5.74.74,0,0,1-.65.83.61.61,0,0,1-.55-.15A7.28,7.28,0,0,0,694,26.46a7.44,7.44,0,0,0-7.44,7.45A7.44,7.44,0,0,0,694,41.35a7.23,7.23,0,0,0,5-1.93.71.71,0,0,1,.53-.2.72.72,0,0,1,.53.25.74.74,0,0,1,0,1.06A8.69,8.69,0,0,1,694,42.86Z"/><path class="cls-1" d="M707.24,26.47h-4.93a.76.76,0,0,1-.53-.21.76.76,0,0,1,0-1.05.73.73,0,0,1,.53-.22h11.33a.71.71,0,0,1,.53.22.74.74,0,0,1,0,1.05.74.74,0,0,1-.53.21h-4.92V42.11a.72.72,0,0,1-.75.75.73.73,0,0,1-.52-.21.76.76,0,0,1-.21-.54Z"/><path class="cls-1" d="M718.31,42.11a.72.72,0,0,1-.23.53.72.72,0,0,1-1,0,.72.72,0,0,1-.23-.53V25.79a.7.7,0,0,1,.23-.53.72.72,0,0,1,1,0,.7.7,0,0,1,.23.53Z"/><path class="cls-1" d="M730.17,42.86a8.95,8.95,0,0,1-8.94-8.94,8.94,8.94,0,1,1,15.25,6.32A8.58,8.58,0,0,1,730.17,42.86Zm0-16.39a7.48,7.48,0,0,0-7.44,7.45,7.45,7.45,0,1,0,12.7-5.25A7.14,7.14,0,0,0,730.17,26.47Z"/><path class="cls-1" d="M755.83,42.6h0v0L744.4,27.88V42.11a.71.71,0,0,1-.22.53.74.74,0,0,1-1,0,.71.71,0,0,1-.22-.53V25.7a.69.69,0,0,1,.5-.71.67.67,0,0,1,.83.25l11.42,14.69V25.7a.7.7,0,0,1,.21-.52.71.71,0,0,1,.52-.23.74.74,0,0,1,.54.23.7.7,0,0,1,.21.52V42.16a.22.22,0,0,1,0,.08.35.35,0,0,0,0,.06.24.24,0,0,1,0,.07.14.14,0,0,0,0,.07l0,.06,0,.06s0,0,0,.06l-.05.05,0,0,0,0,0,0-.07,0-.05,0-.09,0h-.39l-.1,0-.05,0-.08,0-.05,0,0,0Z"/><path class="cls-1" d="M456.86,31.59,436.24,19.68a3,3,0,0,0-4.49,2.6V34.21c0,.23-.08,1.13-.13,1.6-.26,2.18-1.54,3.9-3.89,5.26a7.88,7.88,0,1,1-2.89-14.64,3,3,0,1,0,.78-5.93,13.86,13.86,0,1,0,5.1,25.76c4-2.3,6.35-5.67,6.84-9.74.05-.37.17-1.64.17-2.31V27.46l11.64,6.72-7.28,4.19a3,3,0,1,0,3,5.19l11.78-6.78a3,3,0,0,0,1.5-2.6A3,3,0,0,0,456.86,31.59Z"/><path class="cls-1" d="M115.14,17.55h-2.83l-.65,1.28h-2.8l4.6-8.49h3.07l1.61,8.49h-2.81Zm-.3-2-.35-2.37-1.19,2.37Z"/><path class="cls-1" d="M121.3,14.48a6,6,0,0,1,1.45-3.13,3.77,3.77,0,0,1,2.91-1.17,2.82,2.82,0,0,1,2.24.82,3.26,3.26,0,0,1,.73,2.24,7.67,7.67,0,0,1-.12,1.24,6.08,6.08,0,0,1-1.45,3.14,3.77,3.77,0,0,1-2.91,1.17,2.85,2.85,0,0,1-2.24-.81,3.27,3.27,0,0,1-.73-2.25A8,8,0,0,1,121.3,14.48Zm4.58,0a4.76,4.76,0,0,0,.09-.87c0-.6-.25-.91-.75-.91a.94.94,0,0,0-.87.46,4.07,4.07,0,0,0-.43,1.32,4.93,4.93,0,0,0-.09.86A1.14,1.14,0,0,0,124,16a.68.68,0,0,0,.59.24.93.93,0,0,0,.86-.47A4.33,4.33,0,0,0,125.88,14.48Z"/><path class="cls-1" d="M135.11,10.45a1.93,1.93,0,0,1,.68,1.52,4,4,0,0,1,0,.47,2.13,2.13,0,0,1-.62,1.22,2.56,2.56,0,0,1-1,.61l0,.05a1.69,1.69,0,0,1,.83.65,2,2,0,0,1,.3,1.12,2.63,2.63,0,0,1-.05.57,2.46,2.46,0,0,1-1,1.65,3.85,3.85,0,0,1-2.24.61,3.4,3.4,0,0,1-2.21-.63,2.33,2.33,0,0,1-.77-1.9,3.44,3.44,0,0,1,0-.54h2.59a1.62,1.62,0,0,0-.06.37c0,.33.18.5.55.5a.58.58,0,0,0,.38-.13.53.53,0,0,0,.21-.35c0-.09,0-.16,0-.2,0-.39-.29-.59-.86-.59h-.45l.39-2.15h.43c.54,0,.86-.18.94-.65,0,0,0-.09,0-.16a.47.47,0,0,0-.1-.32.35.35,0,0,0-.26-.1c-.3,0-.49.24-.58.74h-2.59a3.6,3.6,0,0,1,1.22-2.18,3.64,3.64,0,0,1,2.39-.76A2.84,2.84,0,0,1,135.11,10.45Z"/><path class="cls-1" d="M139.08,16.29l-.46,2.54H136l.46-2.54Z"/><path class="cls-1" d="M152.79,10.34l-1.48,8.49h-2.66l.75-4.24-2.05,4.24h-2.28l-.57-4.23-.74,4.23H141.1l1.48-8.49h3.27l1,5.09,2.71-5.09Z"/><path class="cls-1" d="M157.41,12.25a1.39,1.39,0,0,1,.64.74l.17-.92h2.65l-1.2,6.76H157l.16-.92a2.37,2.37,0,0,1-.86.74,2.57,2.57,0,0,1-1.19.27,2.11,2.11,0,0,1-1.67-.7,2.9,2.9,0,0,1-.61-2,6.12,6.12,0,0,1,.1-1,4.66,4.66,0,0,1,.66-1.73,3.36,3.36,0,0,1,1.18-1.11,2.9,2.9,0,0,1,1.45-.39A2.3,2.3,0,0,1,157.41,12.25Zm-1.34,2.36a1.41,1.41,0,0,0-.42.84,1.12,1.12,0,0,0,0,.29.89.89,0,0,0,.22.63.77.77,0,0,0,.59.22,1.09,1.09,0,0,0,.76-.3,1.47,1.47,0,0,0,.43-.84,2.07,2.07,0,0,0,0-.29.85.85,0,0,0-.22-.63.76.76,0,0,0-.58-.22A1.11,1.11,0,0,0,156.07,14.61Z"/><path class="cls-1" d="M161.72,18.19a3,3,0,0,1-.62-2,5.36,5.36,0,0,1,.08-1,4.5,4.5,0,0,1,.67-1.73A3.25,3.25,0,0,1,163,12.37a2.9,2.9,0,0,1,1.45-.39,2.3,2.3,0,0,1,1.17.27,1.35,1.35,0,0,1,.64.74l.17-.92h2.65l-1.18,6.64a4.45,4.45,0,0,1-1.24,2.47,3.65,3.65,0,0,1-2.7,1,3.54,3.54,0,0,1-2.45-.76,2.63,2.63,0,0,1-.84-2.07h2.61c0,.35.28.52.77.52a1.25,1.25,0,0,0,.78-.24,1.46,1.46,0,0,0,.42-.9l.15-.8a2.49,2.49,0,0,1-.87.74,2.57,2.57,0,0,1-1.19.27A2,2,0,0,1,161.72,18.19Zm2.59-3.58a1.41,1.41,0,0,0-.43.84,1.19,1.19,0,0,0,0,.29.89.89,0,0,0,.21.63.78.78,0,0,0,.59.22,1.09,1.09,0,0,0,.76-.3,1.47,1.47,0,0,0,.43-.84,2.07,2.07,0,0,0,0-.29.89.89,0,0,0-.21-.63.78.78,0,0,0-.59-.22A1.09,1.09,0,0,0,164.31,14.61Z"/><path class="cls-1" d="M172.36,12.07,173,15.5l1.8-3.43h2.94l-6.11,10h-2.91l2.34-3.57-1.68-6.43Z"/><path class="cls-1" d="M181.54,12.25a1.37,1.37,0,0,1,.63.74l.17-.92H185l-1.2,6.76h-2.65l.17-.92a2.41,2.41,0,0,1-.87.74,2.56,2.56,0,0,1-1.18.27,2.11,2.11,0,0,1-1.68-.7,3,3,0,0,1-.61-2,7.35,7.35,0,0,1,.1-1,4.5,4.5,0,0,1,.67-1.73,3.25,3.25,0,0,1,1.17-1.11,2.9,2.9,0,0,1,1.45-.39A2.37,2.37,0,0,1,181.54,12.25Zm-1.34,2.36a1.47,1.47,0,0,0-.43.84,2.07,2.07,0,0,0,0,.29.89.89,0,0,0,.21.63.78.78,0,0,0,.59.22,1.09,1.09,0,0,0,.76-.3,1.41,1.41,0,0,0,.43-.84,1.19,1.19,0,0,0,0-.29.89.89,0,0,0-.21-.63.78.78,0,0,0-.59-.22A1.09,1.09,0,0,0,180.2,14.61Z"/><path class="cls-1" d="M189.83,12.37a2.71,2.71,0,0,1,1.28-.35l-.5,2.84h-.76a2,2,0,0,0-1.15.27,1.26,1.26,0,0,0-.51.93l-.5,2.77H185l1.19-6.76h2.66l-.21,1.24A4.32,4.32,0,0,1,189.83,12.37Z"/><path class="cls-1" d="M198.49,14.47l2.38,4.36h-3.2l-1.83-3.68-.65,3.68h-2.66L194,10.34h2.66l-.62,3.59,3.12-3.59h3.18Z"/><path class="cls-1" d="M205.78,10l-1.56,8.88h-2.66L203.12,10Z"/><path class="cls-1" d="M209.31,12.07l-1.19,6.76h-2.66l1.19-6.76ZM207,9.66a1.56,1.56,0,0,1,.65-.56,2,2,0,0,1,.91-.21,1.42,1.42,0,0,1,1,.3,1,1,0,0,1,.35.79,1.32,1.32,0,0,1-.23.77,1.58,1.58,0,0,1-.63.57,2,2,0,0,1-.91.21,1.46,1.46,0,0,1-1-.31,1,1,0,0,1-.36-.79A1.35,1.35,0,0,1,207,9.66Z"/><path class="cls-1" d="M216.74,12.67a2.66,2.66,0,0,1,.63,1.89,4.33,4.33,0,0,1-.09.89,5.16,5.16,0,0,1-.69,1.85,3.49,3.49,0,0,1-1.22,1.2,2.88,2.88,0,0,1-1.5.42,2,2,0,0,1-1.08-.27,1.41,1.41,0,0,1-.6-.74l-.73,4.16H208.8l1.76-10h2.66l-.16.92a2.37,2.37,0,0,1,.86-.74A2.5,2.5,0,0,1,215.1,12,2.09,2.09,0,0,1,216.74,12.67Zm-2.58,3.62a1.41,1.41,0,0,0,.42-.84,1.12,1.12,0,0,0,0-.29.89.89,0,0,0-.22-.63.77.77,0,0,0-.59-.22,1.09,1.09,0,0,0-.76.3,1.47,1.47,0,0,0-.43.84,2.07,2.07,0,0,0,0,.29.89.89,0,0,0,.21.63.78.78,0,0,0,.59.22A1.13,1.13,0,0,0,214.16,16.29Z"/><path class="cls-1" d="M223.46,12.65a2.57,2.57,0,0,1,.92,1.76h-2.61c0-.39-.32-.58-.85-.58a1,1,0,0,0-.38.06.22.22,0,0,0-.14.22c0,.11.09.2.26.27s.44.14.81.23a12.48,12.48,0,0,1,1.3.39,2.36,2.36,0,0,1,.9.61,1.46,1.46,0,0,1,.39,1.06,2.15,2.15,0,0,1,0,.45,2,2,0,0,1-1,1.3,4.06,4.06,0,0,1-2.16.5,3.88,3.88,0,0,1-2.31-.63,2.32,2.32,0,0,1-1-1.8h2.61a.44.44,0,0,0,.22.46,1.39,1.39,0,0,0,.65.13c.31,0,.48-.09.52-.26s0-.23-.21-.3a5.8,5.8,0,0,0-.85-.24,9,9,0,0,1-1.26-.36,2.45,2.45,0,0,1-.9-.6,1.48,1.48,0,0,1-.38-1.06,2.39,2.39,0,0,1,.05-.45A1.87,1.87,0,0,1,219,12.5a3.84,3.84,0,0,1,2.15-.52A3.48,3.48,0,0,1,223.46,12.65Z"/><path class="cls-1" d="M227.59,16.63h2.82l-.39,2.2h-5.74l.37-2.08,3-2.48h-2.55l.4-2.2h5.58l-.38,2.08Z"/><path class="cls-1" d="M237.33,12.7a2.5,2.5,0,0,1,.79,2,5,5,0,0,1-.07.74,3.1,3.1,0,0,1-.16.53h-4.25a1.49,1.49,0,0,0,0,.24.68.68,0,0,0,.15.5.61.61,0,0,0,.43.13.79.79,0,0,0,.69-.39h2.82a3.84,3.84,0,0,1-1.42,1.82,4,4,0,0,1-2.33.7,3,3,0,0,1-2.12-.74,2.68,2.68,0,0,1-.78-2.05,4.82,4.82,0,0,1,.08-.81,4.12,4.12,0,0,1,.75-1.78,3.92,3.92,0,0,1,1.43-1.16,4.43,4.43,0,0,1,1.86-.4A3.06,3.06,0,0,1,237.33,12.7Zm-1.88,2a.53.53,0,0,0-.18-.44.73.73,0,0,0-.45-.14,1,1,0,0,0-1,.76h1.59A.87.87,0,0,0,235.45,14.65Z"/><path class="cls-1" d="M250.22,12.6a2.16,2.16,0,0,1,.59,1.6,3.76,3.76,0,0,1-.06.71l-.7,3.92H247.4l.64-3.58c0-.05,0-.12,0-.2a.7.7,0,0,0-.21-.54.9.9,0,0,0-.6-.19,1.12,1.12,0,0,0-.72.24,1.09,1.09,0,0,0-.37.64l-.65,3.63h-2.65l.64-3.58a1.15,1.15,0,0,0,0-.2.7.7,0,0,0-.21-.54.89.89,0,0,0-.59-.19,1.07,1.07,0,0,0-1.11.93v-.06L241,18.83h-2.67l1.19-6.76h2.66L242,13a2.73,2.73,0,0,1,.9-.7,2.7,2.7,0,0,1,1.22-.27,2.22,2.22,0,0,1,1.24.32,1.78,1.78,0,0,1,.74.9,3.92,3.92,0,0,1,1.1-.88,2.72,2.72,0,0,1,1.34-.34A2.3,2.3,0,0,1,250.22,12.6Z"/><path class="cls-1" d="M255.42,10l-1.56,8.88H251.2L252.76,10Z"/><path class="cls-1" d="M261.44,12.7a2.47,2.47,0,0,1,.79,2,3.93,3.93,0,0,1-.07.74,3.1,3.1,0,0,1-.16.53h-4.25c0,.05,0,.13,0,.24a.68.68,0,0,0,.15.5.61.61,0,0,0,.43.13.78.78,0,0,0,.69-.39h2.82a3.84,3.84,0,0,1-1.42,1.82,4,4,0,0,1-2.33.7,2.93,2.93,0,0,1-2.11-.74,2.65,2.65,0,0,1-.79-2.05,4.82,4.82,0,0,1,.08-.81,4.12,4.12,0,0,1,.75-1.78,3.92,3.92,0,0,1,1.43-1.16,4.43,4.43,0,0,1,1.86-.4A3.06,3.06,0,0,1,261.44,12.7Zm-1.88,2a.53.53,0,0,0-.17-.44.78.78,0,0,0-.46-.14,1,1,0,0,0-1,.76h1.59A.87.87,0,0,0,259.56,14.65Z"/><path class="cls-1" d="M269.19,12.25a1.44,1.44,0,0,1,.64.74l.16-.92h2.66l-1.2,6.76h-2.66l.17-.92a2.37,2.37,0,0,1-.86.74,2.57,2.57,0,0,1-1.19.27,2.11,2.11,0,0,1-1.67-.7,2.9,2.9,0,0,1-.61-2,6.12,6.12,0,0,1,.1-1,4.66,4.66,0,0,1,.66-1.73,3.36,3.36,0,0,1,1.18-1.11A2.89,2.89,0,0,1,268,12,2.32,2.32,0,0,1,269.19,12.25Zm-1.34,2.36a1.41,1.41,0,0,0-.42.84,1.12,1.12,0,0,0,0,.29.85.85,0,0,0,.22.63.77.77,0,0,0,.59.22,1.11,1.11,0,0,0,.76-.3,1.41,1.41,0,0,0,.42-.84,1.12,1.12,0,0,0,0-.29.85.85,0,0,0-.22-.63.77.77,0,0,0-.59-.22A1.11,1.11,0,0,0,267.85,14.61Z"/><path class="cls-1" d="M281.9,10.67a2.82,2.82,0,0,1,1.22,1.17,3.45,3.45,0,0,1,.41,1.76h-2.81a1.1,1.1,0,0,0-.42-.65,1.29,1.29,0,0,0-.78-.24,1.48,1.48,0,0,0-1.14.51,2.63,2.63,0,0,0-.64,1.35,2.89,2.89,0,0,0,0,.52,1.47,1.47,0,0,0,.3,1,1.1,1.1,0,0,0,.87.36,1.57,1.57,0,0,0,.85-.23,2,2,0,0,0,.67-.65h2.8A5,5,0,0,1,281.4,18a4.82,4.82,0,0,1-2.91.91,4,4,0,0,1-1.91-.42,2.79,2.79,0,0,1-1.2-1.18,3.62,3.62,0,0,1-.42-1.77,5.09,5.09,0,0,1,.09-.95,5.53,5.53,0,0,1,.89-2.24,4.79,4.79,0,0,1,1.73-1.53,5,5,0,0,1,2.33-.55A4,4,0,0,1,281.9,10.67Z"/><path class="cls-1" d="M288.87,17.55H286l-.65,1.28h-2.8l4.6-8.49h3.07l1.61,8.49h-2.81Zm-.3-2-.35-2.37L287,15.55Z"/><path class="cls-1" d="M299.94,10.34l-.37,2.11h-3.33L296,13.63h2.4l-.35,2h-2.4l-.56,3.2h-2.66l1.48-8.49Z"/><path class="cls-1" d="M305.48,12.7a2.47,2.47,0,0,1,.8,2,5,5,0,0,1-.07.74,4.38,4.38,0,0,1-.16.53H301.8a1.49,1.49,0,0,0,0,.24.68.68,0,0,0,.15.5.6.6,0,0,0,.42.13.79.79,0,0,0,.7-.39h2.82a3.84,3.84,0,0,1-1.42,1.82,4,4,0,0,1-2.33.7,3,3,0,0,1-2.12-.74,2.68,2.68,0,0,1-.78-2.05,6,6,0,0,1,.07-.81,4.26,4.26,0,0,1,.76-1.78,3.84,3.84,0,0,1,1.43-1.16,4.43,4.43,0,0,1,1.86-.4A3,3,0,0,1,305.48,12.7Zm-1.87,2a.53.53,0,0,0-.18-.44.73.73,0,0,0-.45-.14,1,1,0,0,0-1,.76h1.59A.87.87,0,0,0,303.61,14.65Z"/><path class="cls-1" d="M316,13.8a2.3,2.3,0,0,1-1.15.68,1.63,1.63,0,0,1,1,.6,1.68,1.68,0,0,1,.34,1,2.85,2.85,0,0,1,0,.4,2.64,2.64,0,0,1-1,1.72,3.77,3.77,0,0,1-2.23.6h-4.45l1.49-8.49h4.33a3.21,3.21,0,0,1,1.81.44,1.49,1.49,0,0,1,.64,1.31,3.85,3.85,0,0,1-.05.46A2.34,2.34,0,0,1,316,13.8ZM313.43,16c0-.3-.21-.45-.61-.45h-1.21l-.22,1.2h1.21a1,1,0,0,0,.57-.14.63.63,0,0,0,.25-.45A.71.71,0,0,0,313.43,16Zm.36-3.06c0-.29-.21-.44-.62-.44h-1l-.2,1.2h1a1,1,0,0,0,.56-.14.66.66,0,0,0,.24-.45A.75.75,0,0,0,313.79,12.89Z"/><path class="cls-1" d="M325,12.07l-1.18,6.76h-2.67l.18-1a3.25,3.25,0,0,1-1,.78,2.73,2.73,0,0,1-1.29.3,2,2,0,0,1-1.51-.57,2.23,2.23,0,0,1-.53-1.58,4,4,0,0,1,.08-.74l.69-3.92h2.65l-.63,3.58a1.7,1.7,0,0,0,0,.26.79.79,0,0,0,.21.58.8.8,0,0,0,.59.21,1.08,1.08,0,0,0,.74-.28,1.31,1.31,0,0,0,.38-.77v.06l.64-3.64Z"/><path class="cls-1" d="M333.55,10,332,18.83h-2.67l.17-.92a2.37,2.37,0,0,1-.86.74,2.53,2.53,0,0,1-1.18.27,2,2,0,0,1-1.64-.73,3,3,0,0,1-.63-2,5.39,5.39,0,0,1,.09-1,4.66,4.66,0,0,1,.66-1.73,3.36,3.36,0,0,1,1.18-1.11,2.89,2.89,0,0,1,1.44-.39,2.25,2.25,0,0,1,1.17.27,1.37,1.37,0,0,1,.63.74l.54-3Zm-5.17,4.66a1.41,1.41,0,0,0-.42.84,1.12,1.12,0,0,0,0,.29.85.85,0,0,0,.22.63.77.77,0,0,0,.59.22,1.11,1.11,0,0,0,.76-.3,1.41,1.41,0,0,0,.42-.84,1.12,1.12,0,0,0,0-.29.85.85,0,0,0-.22-.63.77.77,0,0,0-.59-.22A1.11,1.11,0,0,0,328.38,14.61Z"/><path class="cls-1" d="M337.9,12.25a1.35,1.35,0,0,1,.64.74l.17-.92h2.65l-1.2,6.76h-2.65l.17-.92a2.49,2.49,0,0,1-.87.74,2.57,2.57,0,0,1-1.19.27,2.11,2.11,0,0,1-1.67-.7,3,3,0,0,1-.61-2,7.35,7.35,0,0,1,.1-1,4.5,4.5,0,0,1,.67-1.73,3.25,3.25,0,0,1,1.17-1.11,2.9,2.9,0,0,1,1.45-.39A2.3,2.3,0,0,1,337.9,12.25Zm-1.33,2.36a1.41,1.41,0,0,0-.43.84,1.19,1.19,0,0,0,0,.29.89.89,0,0,0,.21.63.77.77,0,0,0,.59.22,1.09,1.09,0,0,0,.76-.3,1.47,1.47,0,0,0,.43-.84,2.07,2.07,0,0,0,0-.29.89.89,0,0,0-.21-.63.78.78,0,0,0-.59-.22A1.09,1.09,0,0,0,336.57,14.61Z"/><path class="cls-1" d="M348.76,12.67a2.66,2.66,0,0,1,.63,1.89,4.33,4.33,0,0,1-.09.89,5,5,0,0,1-.69,1.85,3.55,3.55,0,0,1-1.21,1.2,2.94,2.94,0,0,1-1.5.42,2,2,0,0,1-1.09-.27,1.44,1.44,0,0,1-.59-.74l-.74,4.16h-2.66l1.76-10h2.67l-.17.92a2.37,2.37,0,0,1,.86-.74,2.53,2.53,0,0,1,1.18-.27A2.09,2.09,0,0,1,348.76,12.67Zm-2.58,3.62a1.41,1.41,0,0,0,.42-.84,1.12,1.12,0,0,0,0-.29.85.85,0,0,0-.22-.63.77.77,0,0,0-.59-.22,1.11,1.11,0,0,0-.76.3,1.41,1.41,0,0,0-.42.84,1.12,1.12,0,0,0,0,.29.85.85,0,0,0,.22.63.77.77,0,0,0,.59.22A1.11,1.11,0,0,0,346.18,16.29Z"/><path class="cls-1" d="M356,12.7a2.47,2.47,0,0,1,.79,2,3.93,3.93,0,0,1-.07.74,3.1,3.1,0,0,1-.16.53h-4.25c0,.05,0,.13,0,.24a.68.68,0,0,0,.15.5.61.61,0,0,0,.43.13.78.78,0,0,0,.69-.39h2.82A3.84,3.84,0,0,1,355,18.22a4,4,0,0,1-2.33.7,3,3,0,0,1-2.11-.74,2.68,2.68,0,0,1-.78-2.05,4.75,4.75,0,0,1,.07-.81,4.12,4.12,0,0,1,.75-1.78A3.92,3.92,0,0,1,352,12.38a4.43,4.43,0,0,1,1.86-.4A3.06,3.06,0,0,1,356,12.7Zm-1.87,2a.53.53,0,0,0-.18-.44.76.76,0,0,0-.46-.14,1,1,0,0,0-1,.76h1.59A.74.74,0,0,0,354.17,14.65Z"/><path class="cls-1" d="M362.89,12.65a2.53,2.53,0,0,1,.92,1.76h-2.6c0-.39-.32-.58-.85-.58a1,1,0,0,0-.38.06.22.22,0,0,0-.14.22c0,.11.09.2.26.27s.44.14.81.23a12.48,12.48,0,0,1,1.3.39,2.36,2.36,0,0,1,.9.61,1.46,1.46,0,0,1,.39,1.06,2.14,2.14,0,0,1-.05.45,1.94,1.94,0,0,1-.95,1.3,4.08,4.08,0,0,1-2.17.5,3.84,3.84,0,0,1-2.3-.63,2.3,2.3,0,0,1-1-1.8h2.6a.44.44,0,0,0,.23.46,1.39,1.39,0,0,0,.65.13c.3,0,.47-.09.51-.26s0-.23-.21-.3a5.23,5.23,0,0,0-.84-.24,9.18,9.18,0,0,1-1.27-.36,2.34,2.34,0,0,1-.89-.6,1.44,1.44,0,0,1-.38-1.06,3.26,3.26,0,0,1,0-.45,1.92,1.92,0,0,1,.93-1.31,3.84,3.84,0,0,1,2.15-.52A3.47,3.47,0,0,1,362.89,12.65Z"/><path class="cls-1" d="M367.37,16.11a.41.41,0,0,0,0,.12c0,.22.14.34.43.34h.64L368,18.83h-1c-1.58,0-2.36-.66-2.36-2a4.24,4.24,0,0,1,.07-.77l.31-1.77h-.84l.4-2.22h.84l.29-1.64h2.66l-.29,1.64h1.11l-.4,2.22h-1.1Z"/><path class="cls-1" d="M115.43,30.7l2.37,4.37h-3.2l-1.83-3.68-.64,3.68h-2.67L111,26.58h2.66L113,30.16l3.12-3.58h3.18Z"/><path class="cls-1" d="M124.07,28.57a2.54,2.54,0,0,1,1.09,1,3,3,0,0,1,.39,1.56,4.53,4.53,0,0,1-.07.79,3.71,3.71,0,0,1-.76,1.71,3.83,3.83,0,0,1-1.45,1.13,4.43,4.43,0,0,1-1.86.39,3.64,3.64,0,0,1-1.65-.36,2.64,2.64,0,0,1-1.11-1,3,3,0,0,1-.39-1.56,4.26,4.26,0,0,1,.07-.78,3.81,3.81,0,0,1,.77-1.72,3.94,3.94,0,0,1,1.46-1.12,4.6,4.6,0,0,1,1.89-.39A3.7,3.7,0,0,1,124.07,28.57Zm-2.63,2.25a1.54,1.54,0,0,0-.41.87,2.35,2.35,0,0,0,0,.35.86.86,0,0,0,.2.61.68.68,0,0,0,.51.2,1,1,0,0,0,.67-.29,1.61,1.61,0,0,0,.41-.87,1.45,1.45,0,0,0,0-.35.84.84,0,0,0-.2-.61.66.66,0,0,0-.51-.2A.91.91,0,0,0,121.44,30.82Z"/><path class="cls-1" d="M130.56,28.61a2.71,2.71,0,0,1,1.28-.35l-.5,2.84h-.76a2.19,2.19,0,0,0-1.16.26,1.3,1.3,0,0,0-.51.94l-.49,2.77h-2.66l1.18-6.77h2.67l-.22,1.25A4.36,4.36,0,0,1,130.56,28.61Z"/><path class="cls-1" d="M134.9,32.35s0,.07,0,.12c0,.22.15.33.43.33H136l-.41,2.27h-1c-1.57,0-2.36-.66-2.36-2a4.24,4.24,0,0,1,.07-.77l.31-1.77h-.84l.4-2.23H133l.29-1.63h2.66l-.29,1.63h1.11l-.4,2.23h-1.1Z"/><path class="cls-1" d="M141.44,28.49a1.35,1.35,0,0,1,.64.74l.17-.93h2.65l-1.2,6.77h-2.65l.17-.92a2.49,2.49,0,0,1-.87.74,2.57,2.57,0,0,1-1.19.27,2.11,2.11,0,0,1-1.67-.7,3,3,0,0,1-.61-2,6.12,6.12,0,0,1,.1-1,4.59,4.59,0,0,1,.66-1.73,3.36,3.36,0,0,1,1.18-1.11,2.9,2.9,0,0,1,1.45-.39A2.3,2.3,0,0,1,141.44,28.49Zm1.37-1.77-3.31,1.13.31-1.78,3.35-1.32Zm-2.71,4.13a1.46,1.46,0,0,0-.42.84,1.12,1.12,0,0,0,0,.29.89.89,0,0,0,.22.63.81.81,0,0,0,.59.22,1.09,1.09,0,0,0,.76-.3,1.47,1.47,0,0,0,.43-.84,2.07,2.07,0,0,0,0-.29.85.85,0,0,0-.22-.63.76.76,0,0,0-.58-.22A1.11,1.11,0,0,0,140.1,30.85Z"/><path class="cls-1" d="M149.69,28.61a2.75,2.75,0,0,1,1.29-.35l-.51,2.84h-.75a2.19,2.19,0,0,0-1.16.26,1.3,1.3,0,0,0-.51.94l-.49,2.77h-2.67l1.19-6.77h2.67l-.22,1.25A4.32,4.32,0,0,1,149.69,28.61Z"/><path class="cls-1" d="M156.42,28.89a2.56,2.56,0,0,1,.92,1.75h-2.61c0-.38-.32-.57-.85-.57a1,1,0,0,0-.38.06.21.21,0,0,0-.13.21c0,.12.08.21.25.27a7.26,7.26,0,0,0,.81.24,11.77,11.77,0,0,1,1.3.39,2.49,2.49,0,0,1,.91.6,1.5,1.5,0,0,1,.39,1.07,2.14,2.14,0,0,1-.05.45,2,2,0,0,1-1,1.3,4.06,4.06,0,0,1-2.16.5,3.9,3.9,0,0,1-2.31-.63,2.32,2.32,0,0,1-1-1.8h2.61a.43.43,0,0,0,.23.46,1.32,1.32,0,0,0,.64.13c.31,0,.48-.09.52-.26s-.05-.23-.21-.3a4.5,4.5,0,0,0-.85-.24,12.93,12.93,0,0,1-1.26-.36,2.45,2.45,0,0,1-.9-.6A1.48,1.48,0,0,1,151,30.5a3.54,3.54,0,0,1,0-.45,1.9,1.9,0,0,1,.92-1.31,3.87,3.87,0,0,1,2.15-.52A3.48,3.48,0,0,1,156.42,28.89Z"/><path class="cls-1" d="M171.08,26.58l-1.49,8.49h-2.65l.74-4.25-2.05,4.25h-2.28l-.56-4.23L162,35.07h-2.66l1.49-8.49h3.26l1,5.08,2.72-5.08Z"/><path class="cls-1" d="M179.3,28.3l-1.19,6.77h-2.66l.18-1a3.25,3.25,0,0,1-1,.78,2.73,2.73,0,0,1-1.29.3,2,2,0,0,1-1.51-.57,2.25,2.25,0,0,1-.53-1.58,5,5,0,0,1,.07-.74l.7-3.93h2.65l-.63,3.59a1.61,1.61,0,0,0,0,.25.8.8,0,0,0,.21.59.79.79,0,0,0,.58.21,1.05,1.05,0,0,0,.75-.29,1.26,1.26,0,0,0,.38-.76V32l.64-3.65Zm-5-.44h-1.6l1.49-2.93h2Zm2.64,0h-1.6l1.79-2.93h2Z"/><path class="cls-1" d="M182.9,32.54l1.84-4.24h2.83l-3.46,6.77h-3.32l-1.06-6.77h2.84Z"/><path class="cls-1" d="M193.15,28.93a2.5,2.5,0,0,1,.79,1.95,4,4,0,0,1-.07.75,3.41,3.41,0,0,1-.16.53h-4.25c0,.05,0,.13,0,.24a.64.64,0,0,0,.15.49A.57.57,0,0,0,190,33a.78.78,0,0,0,.69-.39h2.82a3.84,3.84,0,0,1-1.42,1.82,4,4,0,0,1-2.33.7,3,3,0,0,1-2.11-.74,2.69,2.69,0,0,1-.78-2.05,4.67,4.67,0,0,1,.07-.81,4.07,4.07,0,0,1,.75-1.78,3.92,3.92,0,0,1,1.43-1.16,4.43,4.43,0,0,1,1.86-.4A3.1,3.1,0,0,1,193.15,28.93Zm-.53-2.21-3.31,1.13.31-1.78L193,24.75Zm-1.34,4.16a.52.52,0,0,0-.18-.43.76.76,0,0,0-.46-.14,1,1,0,0,0-1,.76h1.59A.84.84,0,0,0,191.28,30.88Z"/><path class="cls-1" d="M200,28.89a2.56,2.56,0,0,1,.92,1.75h-2.61c0-.38-.32-.57-.85-.57a1,1,0,0,0-.38.06.21.21,0,0,0-.13.21c0,.12.08.21.25.27a7.26,7.26,0,0,0,.81.24,12.48,12.48,0,0,1,1.3.39,2.37,2.37,0,0,1,.9.6,1.46,1.46,0,0,1,.4,1.07,2.14,2.14,0,0,1-.05.45,2,2,0,0,1-1,1.3,4.06,4.06,0,0,1-2.16.5,3.9,3.9,0,0,1-2.31-.63,2.32,2.32,0,0,1-1-1.8h2.61a.44.44,0,0,0,.22.46,1.39,1.39,0,0,0,.65.13c.31,0,.48-.09.52-.26s-.05-.23-.21-.3a4.75,4.75,0,0,0-.85-.24,12.93,12.93,0,0,1-1.26-.36,2.45,2.45,0,0,1-.9-.6,1.48,1.48,0,0,1-.38-1.06,3.54,3.54,0,0,1,0-.45,1.9,1.9,0,0,1,.92-1.31,3.87,3.87,0,0,1,2.15-.52A3.48,3.48,0,0,1,200,28.89Z"/><path class="cls-1" d="M204.14,32.86H207l-.4,2.21h-5.74L201.2,33l3-2.47h-2.55l.4-2.21h5.58l-.37,2.09Z"/><path class="cls-1" d="M213.88,28.93a2.5,2.5,0,0,1,.79,1.95,4,4,0,0,1-.07.75,3.41,3.41,0,0,1-.16.53h-4.25c0,.05,0,.13,0,.24a.64.64,0,0,0,.15.49.57.57,0,0,0,.43.14.78.78,0,0,0,.69-.39h2.82a3.84,3.84,0,0,1-1.42,1.82,4,4,0,0,1-2.33.7,3,3,0,0,1-2.11-.74,2.69,2.69,0,0,1-.78-2.05,4.67,4.67,0,0,1,.07-.81,4.07,4.07,0,0,1,.75-1.78,3.92,3.92,0,0,1,1.43-1.16,4.43,4.43,0,0,1,1.86-.4A3.1,3.1,0,0,1,213.88,28.93ZM212,30.88a.52.52,0,0,0-.18-.43.76.76,0,0,0-.46-.14,1,1,0,0,0-1,.76H212A.84.84,0,0,0,212,30.88Z"/><path class="cls-1" d="M218.25,32.35a.37.37,0,0,0,0,.12c0,.22.15.33.44.33h.63l-.41,2.27h-1c-1.58,0-2.37-.66-2.37-2a5.37,5.37,0,0,1,.07-.77l.32-1.77h-.84l.39-2.23h.84l.29-1.63h2.66L219,28.3h1.1l-.4,2.23h-1.1Z"/><path class="cls-1" d="M223.92,28.3l-1.19,6.77h-2.67l1.19-6.77Zm-2.32-2.4a1.52,1.52,0,0,1,.64-.56,1.9,1.9,0,0,1,.92-.22,1.42,1.42,0,0,1,1,.31,1,1,0,0,1,.35.79,1.42,1.42,0,0,1-.23.77,1.46,1.46,0,0,1-.64.56,1.94,1.94,0,0,1-.91.21,1.44,1.44,0,0,1-1-.3,1,1,0,0,1-.36-.79A1.32,1.32,0,0,1,221.6,25.9Z"/><path class="cls-1" d="M233.29,26.58l-.37,2.11h-3.34l-.2,1.17h2.4l-.35,2H229l-.57,3.2H225.8l1.49-8.49Z"/><path class="cls-1" d="M238.83,28.93a2.5,2.5,0,0,1,.79,1.95,4,4,0,0,1-.07.75,3.41,3.41,0,0,1-.16.53h-4.24a1.25,1.25,0,0,0,0,.24.64.64,0,0,0,.15.49.59.59,0,0,0,.43.14.79.79,0,0,0,.7-.39h2.82a3.86,3.86,0,0,1-1.43,1.82,4,4,0,0,1-2.33.7,3,3,0,0,1-2.11-.74,2.69,2.69,0,0,1-.78-2.05,4.67,4.67,0,0,1,.07-.81,4,4,0,0,1,.76-1.78,3.89,3.89,0,0,1,1.42-1.16,4.43,4.43,0,0,1,1.86-.4A3.1,3.1,0,0,1,238.83,28.93ZM237,30.88a.52.52,0,0,0-.18-.43.74.74,0,0,0-.46-.14,1,1,0,0,0-1,.76H237S237,31,237,30.88Z"/><path class="cls-1" d="M245.69,28.89a2.56,2.56,0,0,1,.92,1.75H244c0-.38-.32-.57-.85-.57a1,1,0,0,0-.38.06.22.22,0,0,0-.14.21c0,.12.09.21.26.27a6.13,6.13,0,0,0,.81.24,12.48,12.48,0,0,1,1.3.39,2.45,2.45,0,0,1,.9.6,1.5,1.5,0,0,1,.39,1.07,2.15,2.15,0,0,1,0,.45,2,2,0,0,1-1,1.3,4.06,4.06,0,0,1-2.16.5,3.88,3.88,0,0,1-2.31-.63,2.32,2.32,0,0,1-1-1.8h2.61a.44.44,0,0,0,.22.46,1.39,1.39,0,0,0,.65.13c.31,0,.48-.09.52-.26s-.05-.23-.21-.3a4.75,4.75,0,0,0-.85-.24,12.93,12.93,0,0,1-1.26-.36,2.45,2.45,0,0,1-.9-.6,1.48,1.48,0,0,1-.38-1.06,2.32,2.32,0,0,1,.05-.45,1.87,1.87,0,0,1,.92-1.31,3.84,3.84,0,0,1,2.15-.52A3.48,3.48,0,0,1,245.69,28.89Z"/><path class="cls-1" d="M249.82,32.86h2.82l-.39,2.21h-5.74l.37-2.09,3-2.47h-2.54l.4-2.21h5.58L253,30.39Z"/><path class="cls-1" d="M256.63,32.35a.41.41,0,0,0,0,.12c0,.22.14.33.43.33h.63l-.4,2.27h-1c-1.58,0-2.37-.66-2.37-2a4.29,4.29,0,0,1,.08-.77l.31-1.77h-.84l.39-2.23h.84l.29-1.63h2.67l-.29,1.63h1.1l-.39,2.23H257Z"/><path class="cls-1" d="M262.3,28.3l-1.19,6.77h-2.66l1.19-6.77ZM260,25.9a1.52,1.52,0,0,1,.64-.56,1.92,1.92,0,0,1,.92-.22,1.42,1.42,0,0,1,1,.31,1,1,0,0,1,.35.79,1.42,1.42,0,0,1-.23.77,1.49,1.49,0,0,1-.63.56,2,2,0,0,1-.92.21,1.44,1.44,0,0,1-1-.3,1,1,0,0,1-.36-.79A1.32,1.32,0,0,1,260,25.9Z"/><path class="cls-1" d="M265.81,32.54l1.84-4.24h2.83L267,35.07H263.7l-1.06-6.77h2.83Z"/><path class="cls-1" d="M274.47,28.49a1.35,1.35,0,0,1,.64.74l.17-.93h2.65l-1.2,6.77h-2.65l.17-.92a2.49,2.49,0,0,1-.87.74,2.54,2.54,0,0,1-1.19.27,2.12,2.12,0,0,1-1.67-.7,3,3,0,0,1-.6-2,7.18,7.18,0,0,1,.09-1,4.44,4.44,0,0,1,.67-1.73,3.25,3.25,0,0,1,1.17-1.11,2.92,2.92,0,0,1,1.45-.39A2.3,2.3,0,0,1,274.47,28.49Zm1.37-1.77-3.31,1.13.31-1.78,3.35-1.32Zm-2.7,4.13a1.41,1.41,0,0,0-.43.84,1.19,1.19,0,0,0,0,.29.89.89,0,0,0,.21.63.82.82,0,0,0,.59.22,1.09,1.09,0,0,0,.76-.3,1.47,1.47,0,0,0,.43-.84,2.07,2.07,0,0,0,0-.29.89.89,0,0,0-.21-.63.78.78,0,0,0-.59-.22A1.09,1.09,0,0,0,273.14,30.85Z"/><path class="cls-1" d="M282.15,26.19l-1.56,8.88h-2.66l1.56-8.88Z"/><path class="cls-1" d="M289.66,28.89a2.56,2.56,0,0,1,.92,1.75H288c0-.38-.32-.57-.85-.57a1,1,0,0,0-.38.06.22.22,0,0,0-.14.21c0,.12.09.21.26.27a6.13,6.13,0,0,0,.81.24,12.48,12.48,0,0,1,1.3.39,2.45,2.45,0,0,1,.9.6,1.5,1.5,0,0,1,.39,1.07,2.15,2.15,0,0,1,0,.45,2,2,0,0,1-1,1.3,4.06,4.06,0,0,1-2.16.5,3.88,3.88,0,0,1-2.31-.63,2.32,2.32,0,0,1-1-1.8h2.61a.44.44,0,0,0,.22.46,1.39,1.39,0,0,0,.65.13c.31,0,.48-.09.52-.26s-.05-.23-.21-.3a4.75,4.75,0,0,0-.85-.24,12.93,12.93,0,0,1-1.26-.36,2.45,2.45,0,0,1-.9-.6,1.48,1.48,0,0,1-.38-1.06,2.32,2.32,0,0,1,0-.45,1.87,1.87,0,0,1,.92-1.31,3.84,3.84,0,0,1,2.15-.52A3.48,3.48,0,0,1,289.66,28.89Z"/><path class="cls-1" d="M297.14,28.93a2.5,2.5,0,0,1,.79,1.95,4,4,0,0,1-.07.75,5.26,5.26,0,0,1-.15.53h-4.25a1.49,1.49,0,0,0,0,.24.64.64,0,0,0,.15.49A.56.56,0,0,0,294,33a.79.79,0,0,0,.7-.39h2.82a3.9,3.9,0,0,1-1.42,1.82,4,4,0,0,1-2.34.7,3,3,0,0,1-2.11-.74,2.69,2.69,0,0,1-.78-2.05,4.67,4.67,0,0,1,.07-.81,4,4,0,0,1,.76-1.78,3.89,3.89,0,0,1,1.42-1.16,4.45,4.45,0,0,1,1.87-.4A3.1,3.1,0,0,1,297.14,28.93Zm-1.87,1.95a.52.52,0,0,0-.18-.43.74.74,0,0,0-.46-.14,1,1,0,0,0-1,.76h1.6S295.27,31,295.27,30.88Z"/><path class="cls-1" d="M298.92,34.43a3,3,0,0,1-.62-2,5.36,5.36,0,0,1,.08-1,4.44,4.44,0,0,1,.67-1.73,3.25,3.25,0,0,1,1.17-1.11,2.9,2.9,0,0,1,1.45-.39,2.3,2.3,0,0,1,1.17.27,1.35,1.35,0,0,1,.64.74l.17-.93h2.65L305.12,35a4.45,4.45,0,0,1-1.24,2.47,3.65,3.65,0,0,1-2.7,1,3.59,3.59,0,0,1-2.45-.76,2.63,2.63,0,0,1-.84-2.07h2.61c0,.35.28.52.77.52a1.25,1.25,0,0,0,.78-.24,1.46,1.46,0,0,0,.42-.9l.15-.8a2.49,2.49,0,0,1-.87.74,2.57,2.57,0,0,1-1.19.27A2,2,0,0,1,298.92,34.43Zm2.59-3.58a1.41,1.41,0,0,0-.43.84,1.19,1.19,0,0,0,0,.29.89.89,0,0,0,.21.63.82.82,0,0,0,.59.22,1.09,1.09,0,0,0,.76-.3,1.47,1.47,0,0,0,.43-.84,2.07,2.07,0,0,0,0-.29.89.89,0,0,0-.21-.63.78.78,0,0,0-.59-.22A1.09,1.09,0,0,0,301.51,30.85Z"/><path class="cls-1" d="M310.17,28.3,309,35.07h-2.66l1.2-6.77Zm.64-1.58-3.31,1.13.31-1.78,3.35-1.32Z"/><path class="cls-1" d="M313.63,32.35a.41.41,0,0,0,0,.12c0,.22.14.33.43.33h.64l-.41,2.27h-1c-1.58,0-2.36-.66-2.36-2a4.24,4.24,0,0,1,.07-.77l.31-1.77h-.84l.4-2.23h.84l.28-1.63h2.67l-.29,1.63h1.11l-.4,2.23H314Z"/><path class="cls-1" d="M321.31,28.89a2.56,2.56,0,0,1,.92,1.75h-2.61c0-.38-.32-.57-.85-.57a1,1,0,0,0-.38.06.22.22,0,0,0-.14.21c0,.12.09.21.26.27a6.13,6.13,0,0,0,.81.24,12.48,12.48,0,0,1,1.3.39,2.45,2.45,0,0,1,.9.6,1.5,1.5,0,0,1,.39,1.07,2.15,2.15,0,0,1,0,.45,2,2,0,0,1-1,1.3,4.06,4.06,0,0,1-2.16.5,3.88,3.88,0,0,1-2.31-.63,2.32,2.32,0,0,1-1-1.8h2.61a.44.44,0,0,0,.22.46,1.39,1.39,0,0,0,.65.13c.31,0,.48-.09.52-.26s-.05-.23-.21-.3a4.75,4.75,0,0,0-.85-.24,12.93,12.93,0,0,1-1.26-.36,2.45,2.45,0,0,1-.9-.6,1.48,1.48,0,0,1-.38-1.06,2.32,2.32,0,0,1,.05-.45,1.87,1.87,0,0,1,.92-1.31,3.84,3.84,0,0,1,2.15-.52A3.48,3.48,0,0,1,321.31,28.89Z"/><path class="cls-1" d="M328.76,28.93a2.5,2.5,0,0,1,.79,1.95,4,4,0,0,1-.07.75,5.26,5.26,0,0,1-.15.53h-4.25a1.49,1.49,0,0,0,0,.24.64.64,0,0,0,.15.49.56.56,0,0,0,.42.14.79.79,0,0,0,.7-.39h2.82a3.9,3.9,0,0,1-1.42,1.82,4,4,0,0,1-2.34.7,3,3,0,0,1-2.11-.74,2.69,2.69,0,0,1-.78-2.05,4.67,4.67,0,0,1,.07-.81,4,4,0,0,1,.76-1.78,3.84,3.84,0,0,1,1.43-1.16,4.37,4.37,0,0,1,1.86-.4A3.1,3.1,0,0,1,328.76,28.93Zm-.53-2.21-3.31,1.13.31-1.78,3.35-1.32Zm-1.34,4.16a.52.52,0,0,0-.18-.43.74.74,0,0,0-.46-.14,1,1,0,0,0-1,.76h1.6A1,1,0,0,0,326.89,30.88Z"/><path class="cls-1" d="M330.55,34.43a3,3,0,0,1-.63-2,5.39,5.39,0,0,1,.09-1,4.59,4.59,0,0,1,.66-1.73,3.36,3.36,0,0,1,1.18-1.11,2.9,2.9,0,0,1,1.45-.39,2.3,2.3,0,0,1,1.17.27,1.39,1.39,0,0,1,.64.74l.17-.93h2.65L336.75,35a4.45,4.45,0,0,1-1.24,2.47,3.66,3.66,0,0,1-2.71,1,3.58,3.58,0,0,1-2.44-.76,2.63,2.63,0,0,1-.84-2.07h2.61c0,.35.27.52.77.52a1.2,1.2,0,0,0,.77-.24,1.41,1.41,0,0,0,.43-.9l.14-.8a2.37,2.37,0,0,1-.86.74,2.57,2.57,0,0,1-1.19.27A2,2,0,0,1,330.55,34.43Zm2.58-3.58a1.41,1.41,0,0,0-.42.84,1.12,1.12,0,0,0,0,.29.89.89,0,0,0,.22.63.81.81,0,0,0,.59.22,1.09,1.09,0,0,0,.76-.3,1.47,1.47,0,0,0,.43-.84,2.07,2.07,0,0,0,0-.29.85.85,0,0,0-.22-.63.76.76,0,0,0-.58-.22A1.11,1.11,0,0,0,333.13,30.85Z"/><path class="cls-1" d="M344.29,28.93a2.5,2.5,0,0,1,.79,1.95,4,4,0,0,1-.07.75,5.26,5.26,0,0,1-.15.53h-4.25a1.49,1.49,0,0,0,0,.24.64.64,0,0,0,.15.49.56.56,0,0,0,.42.14.79.79,0,0,0,.7-.39h2.82a3.9,3.9,0,0,1-1.42,1.82,4,4,0,0,1-2.34.7,3,3,0,0,1-2.11-.74,2.69,2.69,0,0,1-.78-2.05,4.67,4.67,0,0,1,.07-.81,4,4,0,0,1,.76-1.78,3.84,3.84,0,0,1,1.43-1.16,4.37,4.37,0,0,1,1.86-.4A3.1,3.1,0,0,1,344.29,28.93Zm-.53-2.21-3.31,1.13.31-1.78,3.35-1.32Zm-1.34,4.16a.52.52,0,0,0-.18-.43.74.74,0,0,0-.46-.14,1,1,0,0,0-1,.76h1.6A1,1,0,0,0,342.42,30.88Z"/><path class="cls-1" d="M348.67,32.54l1.84-4.24h2.83l-3.45,6.77h-3.33l-1.05-6.77h2.83Z"/><path class="cls-1" d="M359,28.93a2.5,2.5,0,0,1,.79,1.95,4,4,0,0,1-.07.75,3.41,3.41,0,0,1-.16.53h-4.24a1.49,1.49,0,0,0,0,.24.64.64,0,0,0,.14.49.6.6,0,0,0,.43.14.79.79,0,0,0,.7-.39h2.82a3.9,3.9,0,0,1-1.42,1.82,4,4,0,0,1-2.34.7,3,3,0,0,1-2.11-.74,2.69,2.69,0,0,1-.78-2.05,4.67,4.67,0,0,1,.07-.81,4,4,0,0,1,.76-1.78A3.89,3.89,0,0,1,355,28.62a4.43,4.43,0,0,1,1.86-.4A3.1,3.1,0,0,1,359,28.93Zm-1.87,1.95a.52.52,0,0,0-.18-.43.74.74,0,0,0-.46-.14,1,1,0,0,0-1,.76h1.6S357.08,31,357.08,30.88Z"/><path class="cls-1" d="M364.14,26.19l-1.56,8.88h-2.66l1.55-8.88Z"/><path class="cls-1" d="M116,45.17a2.5,2.5,0,0,1,.79,1.95,4,4,0,0,1-.07.75,3.41,3.41,0,0,1-.16.53h-4.25c0,.05,0,.13,0,.24a.64.64,0,0,0,.15.49.57.57,0,0,0,.43.14.78.78,0,0,0,.69-.39h2.82A3.77,3.77,0,0,1,115,50.69a3.94,3.94,0,0,1-2.33.71,3,3,0,0,1-2.11-.74,2.69,2.69,0,0,1-.78-2,4.67,4.67,0,0,1,.07-.81,4.07,4.07,0,0,1,.75-1.78A3.92,3.92,0,0,1,112,44.86a4.29,4.29,0,0,1,1.86-.4A3.1,3.1,0,0,1,116,45.17ZM115.45,43l-3.31,1.13.31-1.78L115.8,41Zm-1.34,4.16a.52.52,0,0,0-.18-.43.76.76,0,0,0-.46-.14,1,1,0,0,0-1,.75h1.59A.74.74,0,0,0,114.11,47.12Z"/><path class="cls-1" d="M122.84,45.13a2.56,2.56,0,0,1,.92,1.75h-2.61c0-.38-.32-.57-.85-.57a1,1,0,0,0-.38.06.21.21,0,0,0-.13.21c0,.12.08.21.25.27a7.26,7.26,0,0,0,.81.24,12.48,12.48,0,0,1,1.3.39,2.37,2.37,0,0,1,.9.6,1.46,1.46,0,0,1,.4,1.07,2.14,2.14,0,0,1,0,.45,2,2,0,0,1-1,1.3,4.06,4.06,0,0,1-2.16.5,3.9,3.9,0,0,1-2.31-.63,2.32,2.32,0,0,1-1-1.8h2.61a.43.43,0,0,0,.23.46,1.32,1.32,0,0,0,.64.13c.31,0,.48-.09.52-.26s-.05-.23-.21-.3a3.85,3.85,0,0,0-.85-.24,12.93,12.93,0,0,1-1.26-.36,2.45,2.45,0,0,1-.9-.6,1.5,1.5,0,0,1-.38-1.06,3.85,3.85,0,0,1,0-.46,1.91,1.91,0,0,1,.92-1.3,3.87,3.87,0,0,1,2.15-.52A3.48,3.48,0,0,1,122.84,45.13Z"/><path class="cls-1" d="M129.36,48.59a.41.41,0,0,0,0,.12c0,.22.14.33.43.33h.64L130,51.31h-1c-1.57,0-2.36-.67-2.36-2a4.24,4.24,0,0,1,.07-.77l.31-1.78h-.84l.4-2.22h.84l.29-1.63h2.66l-.29,1.63h1.11l-.4,2.22h-1.1Z"/><path class="cls-1" d="M135.9,44.73a1.37,1.37,0,0,1,.63.74l.17-.93h2.65l-1.2,6.77H135.5l.17-.92a2.37,2.37,0,0,1-.86.74,2.6,2.6,0,0,1-1.19.27,2.12,2.12,0,0,1-1.68-.71,2.91,2.91,0,0,1-.6-2,7.18,7.18,0,0,1,.09-1A4.6,4.6,0,0,1,132.1,46a3.49,3.49,0,0,1,1.18-1.12,3,3,0,0,1,1.44-.38A2.34,2.34,0,0,1,135.9,44.73ZM137.27,43,134,44.09l.31-1.78L137.61,41Zm-2.71,4.13a1.41,1.41,0,0,0-.42.84,1.12,1.12,0,0,0,0,.29.85.85,0,0,0,.22.63.81.81,0,0,0,.59.22,1.11,1.11,0,0,0,.76-.3,1.41,1.41,0,0,0,.42-.84,1.12,1.12,0,0,0,0-.29.89.89,0,0,0-.22-.63.77.77,0,0,0-.59-.22A1.09,1.09,0,0,0,134.56,47.09Z"/><path class="cls-1" d="M151.28,45.08a2.16,2.16,0,0,1,.59,1.6,3.84,3.84,0,0,1-.06.71l-.7,3.92h-2.65l.64-3.59s0-.11,0-.19a.7.7,0,0,0-.21-.54.85.85,0,0,0-.6-.19,1.13,1.13,0,0,0-.72.23,1.11,1.11,0,0,0-.37.65l-.65,3.63h-2.65l.64-3.59s0-.11,0-.19a.7.7,0,0,0-.21-.54.84.84,0,0,0-.59-.19,1.07,1.07,0,0,0-1.11.92v-.06L142,51.31h-2.66l1.19-6.77h2.66l-.15.93a2.73,2.73,0,0,1,.9-.7,2.7,2.7,0,0,1,1.22-.27,2.31,2.31,0,0,1,1.24.31,1.85,1.85,0,0,1,.74.91,3.92,3.92,0,0,1,1.1-.88,2.72,2.72,0,0,1,1.34-.34A2.3,2.3,0,0,1,151.28,45.08Z"/><path class="cls-1" d="M158.21,44.81a2.56,2.56,0,0,1,1.1,1,3,3,0,0,1,.39,1.56,4.53,4.53,0,0,1-.07.79,3.77,3.77,0,0,1-.77,1.71A3.73,3.73,0,0,1,157.42,51a4.49,4.49,0,0,1-1.86.39,3.61,3.61,0,0,1-1.65-.36,2.53,2.53,0,0,1-1.11-1,2.92,2.92,0,0,1-.4-1.56,5.38,5.38,0,0,1,.07-.78,3.91,3.91,0,0,1,.77-1.72,3.87,3.87,0,0,1,1.47-1.12,4.55,4.55,0,0,1,1.88-.39A3.64,3.64,0,0,1,158.21,44.81Zm-2.63,2.25a1.54,1.54,0,0,0-.4.87,1.5,1.5,0,0,0,0,.35.86.86,0,0,0,.19.61.7.7,0,0,0,.52.2,1,1,0,0,0,.67-.29,1.69,1.69,0,0,0,.41-.87,2.16,2.16,0,0,0,0-.35.8.8,0,0,0-.2-.61.66.66,0,0,0-.5-.21A.94.94,0,0,0,155.58,47.06Z"/><path class="cls-1" d="M160.68,50.67a3,3,0,0,1-.62-2,5.36,5.36,0,0,1,.08-1,4.44,4.44,0,0,1,.67-1.73A3.37,3.37,0,0,1,162,44.84a3,3,0,0,1,1.45-.38,2.3,2.3,0,0,1,1.17.27,1.35,1.35,0,0,1,.64.74l.17-.93h2.65l-1.18,6.65a4.49,4.49,0,0,1-1.24,2.47,3.65,3.65,0,0,1-2.7,1,3.59,3.59,0,0,1-2.45-.76,2.65,2.65,0,0,1-.84-2.08h2.61c0,.36.28.53.77.53a1.23,1.23,0,0,0,.78-.24,1.46,1.46,0,0,0,.42-.9l.15-.8a2.49,2.49,0,0,1-.87.74,2.57,2.57,0,0,1-1.19.27A2.08,2.08,0,0,1,160.68,50.67Zm2.59-3.58a1.41,1.41,0,0,0-.43.84,1.19,1.19,0,0,0,0,.29.89.89,0,0,0,.21.63.82.82,0,0,0,.59.22,1.09,1.09,0,0,0,.76-.3,1.47,1.47,0,0,0,.43-.84,2.07,2.07,0,0,0,0-.29.89.89,0,0,0-.21-.63.78.78,0,0,0-.59-.22A1.09,1.09,0,0,0,163.27,47.09Z"/><path class="cls-1" d="M172.8,44.73a1.37,1.37,0,0,1,.63.74l.17-.93h2.65l-1.2,6.77H172.4l.17-.92a2.37,2.37,0,0,1-.86.74,2.6,2.6,0,0,1-1.19.27,2.12,2.12,0,0,1-1.68-.71,2.91,2.91,0,0,1-.6-2,7.18,7.18,0,0,1,.09-1A4.6,4.6,0,0,1,169,46a3.4,3.4,0,0,1,1.18-1.12,3,3,0,0,1,1.44-.38A2.34,2.34,0,0,1,172.8,44.73Zm-1.34,2.36a1.47,1.47,0,0,0-.43.84,2.07,2.07,0,0,0,0,.29.85.85,0,0,0,.22.63.8.8,0,0,0,.58.22,1.11,1.11,0,0,0,.77-.3,1.41,1.41,0,0,0,.42-.84,1.12,1.12,0,0,0,0-.29.89.89,0,0,0-.22-.63.77.77,0,0,0-.59-.22A1.09,1.09,0,0,0,171.46,47.09Z"/><path class="cls-1" d="M179.7,48.59a.41.41,0,0,0,0,.12c0,.22.14.33.43.33h.64l-.41,2.27h-1c-1.58,0-2.36-.67-2.36-2a4.24,4.24,0,0,1,.07-.77l.31-1.78h-.84l.4-2.22h.84l.28-1.63h2.67l-.29,1.63h1.1l-.39,2.22H180Z"/><path class="cls-1" d="M186.24,44.73a1.37,1.37,0,0,1,.63.74l.17-.93h2.65l-1.2,6.77h-2.65l.17-.92a2.37,2.37,0,0,1-.86.74,2.6,2.6,0,0,1-1.19.27,2.12,2.12,0,0,1-1.68-.71,2.91,2.91,0,0,1-.6-2,7.18,7.18,0,0,1,.09-1,4.6,4.6,0,0,1,.67-1.73,3.4,3.4,0,0,1,1.18-1.12,3,3,0,0,1,1.44-.38A2.34,2.34,0,0,1,186.24,44.73ZM187.61,43l-3.32,1.13.32-1.78L188,41Zm-2.71,4.13a1.47,1.47,0,0,0-.43.84,2.07,2.07,0,0,0,0,.29.85.85,0,0,0,.22.63.8.8,0,0,0,.58.22,1.11,1.11,0,0,0,.77-.3,1.41,1.41,0,0,0,.42-.84,1.12,1.12,0,0,0,0-.29.89.89,0,0,0-.22-.63.77.77,0,0,0-.59-.22A1.09,1.09,0,0,0,184.9,47.09Z"/><path class="cls-1" d="M195.58,45.13a2.52,2.52,0,0,1,.92,1.75h-2.6c0-.38-.33-.57-.85-.57a1,1,0,0,0-.38.06.22.22,0,0,0-.14.21c0,.12.09.21.26.27a6.13,6.13,0,0,0,.81.24,11.53,11.53,0,0,1,1.29.39,2.41,2.41,0,0,1,.91.6,1.5,1.5,0,0,1,.39,1.07,2.14,2.14,0,0,1-.05.45,1.94,1.94,0,0,1-.95,1.3,4.1,4.1,0,0,1-2.17.5,3.84,3.84,0,0,1-2.3-.63,2.27,2.27,0,0,1-1-1.8h2.6a.44.44,0,0,0,.23.46,1.37,1.37,0,0,0,.65.13c.3,0,.47-.09.51-.26s0-.23-.21-.3a3.72,3.72,0,0,0-.84-.24,12.43,12.43,0,0,1-1.27-.36,2.34,2.34,0,0,1-.89-.6,1.46,1.46,0,0,1-.39-1.06,3.85,3.85,0,0,1,0-.46,1.92,1.92,0,0,1,.93-1.3,3.81,3.81,0,0,1,2.14-.52A3.48,3.48,0,0,1,195.58,45.13Z"/><path class="cls-1" d="M201.44,44.73a1.44,1.44,0,0,1,.64.74l.16-.93h2.66l-1.2,6.77H201l.17-.92a2.37,2.37,0,0,1-.86.74,2.57,2.57,0,0,1-1.19.27,2.08,2.08,0,0,1-1.67-.71,2.86,2.86,0,0,1-.61-2,6.12,6.12,0,0,1,.1-1,4.59,4.59,0,0,1,.66-1.73,3.49,3.49,0,0,1,1.18-1.12,3,3,0,0,1,1.44-.38A2.32,2.32,0,0,1,201.44,44.73ZM202.81,43l-3.31,1.13.31-1.78L203.16,41Zm-2.71,4.13a1.41,1.41,0,0,0-.42.84,1.12,1.12,0,0,0,0,.29.85.85,0,0,0,.22.63.81.81,0,0,0,.59.22,1.11,1.11,0,0,0,.76-.3,1.41,1.41,0,0,0,.42-.84,1.12,1.12,0,0,0,0-.29.85.85,0,0,0-.22-.63.77.77,0,0,0-.59-.22A1.11,1.11,0,0,0,200.1,47.09Z"/><path class="cls-1" d="M208.38,48.78l1.83-4.24H213l-3.45,6.77h-3.33l-1-6.77H208Z"/><path class="cls-1" d="M217,44.73a1.44,1.44,0,0,1,.64.74l.16-.93h2.66l-1.2,6.77h-2.66l.17-.92a2.37,2.37,0,0,1-.86.74,2.57,2.57,0,0,1-1.19.27,2.08,2.08,0,0,1-1.67-.71,2.86,2.86,0,0,1-.61-2,6.12,6.12,0,0,1,.1-1,4.59,4.59,0,0,1,.66-1.73,3.49,3.49,0,0,1,1.18-1.12,3,3,0,0,1,1.45-.38A2.3,2.3,0,0,1,217,44.73Zm-1.34,2.36a1.41,1.41,0,0,0-.42.84,1.12,1.12,0,0,0,0,.29.89.89,0,0,0,.22.63.81.81,0,0,0,.59.22,1.11,1.11,0,0,0,.76-.3,1.47,1.47,0,0,0,.43-.84,2.07,2.07,0,0,0,0-.29A.85.85,0,0,0,217,47a.77.77,0,0,0-.59-.22A1.11,1.11,0,0,0,215.67,47.09Z"/><path class="cls-1" d="M224.73,42.43l-1.56,8.88h-2.66l1.55-8.88Z"/><path class="cls-1" d="M229.86,48.78l1.84-4.24h2.83l-3.45,6.77h-3.33l-1.05-6.77h2.83Z"/><path class="cls-1" d="M238.5,44.73a1.44,1.44,0,0,1,.64.74l.16-.93H242l-1.2,6.77H238.1l.17-.92a2.37,2.37,0,0,1-.86.74,2.57,2.57,0,0,1-1.19.27,2.08,2.08,0,0,1-1.67-.71,2.86,2.86,0,0,1-.61-2,6.12,6.12,0,0,1,.1-1A4.59,4.59,0,0,1,234.7,46a3.49,3.49,0,0,1,1.18-1.12,3,3,0,0,1,1.44-.38A2.32,2.32,0,0,1,238.5,44.73Zm-1.34,2.36a1.41,1.41,0,0,0-.42.84,1.12,1.12,0,0,0,0,.29.85.85,0,0,0,.22.63.81.81,0,0,0,.59.22,1.11,1.11,0,0,0,.76-.3,1.41,1.41,0,0,0,.42-.84,1.12,1.12,0,0,0,0-.29.85.85,0,0,0-.22-.63.77.77,0,0,0-.59-.22A1.11,1.11,0,0,0,237.16,47.09Z"/><path class="cls-1" d="M246.22,42.43l-1.56,8.88H242l1.56-8.88Z"/><path class="cls-1" d="M251.82,44.81a2.56,2.56,0,0,1,1.1,1,3,3,0,0,1,.39,1.56,4.53,4.53,0,0,1-.07.79A3.82,3.82,0,0,1,251,51a4.49,4.49,0,0,1-1.86.39,3.64,3.64,0,0,1-1.65-.36,2.59,2.59,0,0,1-1.11-1,3,3,0,0,1-.4-1.56,4.3,4.3,0,0,1,.08-.78,3.79,3.79,0,0,1,.76-1.72,3.87,3.87,0,0,1,1.47-1.12,4.55,4.55,0,0,1,1.88-.39A3.64,3.64,0,0,1,251.82,44.81Zm0-1.85-3.31,1.13.31-1.78L252.21,41Zm-2.67,4.1a1.54,1.54,0,0,0-.4.87,1.5,1.5,0,0,0,0,.35.86.86,0,0,0,.19.61.7.7,0,0,0,.52.2,1,1,0,0,0,.67-.29,1.61,1.61,0,0,0,.41-.87,2.16,2.16,0,0,0,0-.35.84.84,0,0,0-.19-.61.69.69,0,0,0-.51-.21A.94.94,0,0,0,249.19,47.06Z"/><path class="cls-1" d="M259.33,45.13a2.56,2.56,0,0,1,.92,1.75h-2.6c0-.38-.33-.57-.86-.57a.92.92,0,0,0-.37.06.2.2,0,0,0-.14.21c0,.12.08.21.26.27a6.13,6.13,0,0,0,.81.24,11.53,11.53,0,0,1,1.29.39,2.41,2.41,0,0,1,.91.6,1.5,1.5,0,0,1,.39,1.07,2.14,2.14,0,0,1-.05.45,1.94,1.94,0,0,1-.95,1.3,4.12,4.12,0,0,1-2.17.5,3.84,3.84,0,0,1-2.3-.63,2.27,2.27,0,0,1-1-1.8h2.6a.43.43,0,0,0,.23.46,1.37,1.37,0,0,0,.65.13c.3,0,.47-.09.51-.26s0-.23-.21-.3a3.72,3.72,0,0,0-.84-.24,12.43,12.43,0,0,1-1.27-.36,2.34,2.34,0,0,1-.89-.6,1.46,1.46,0,0,1-.39-1.06,3.85,3.85,0,0,1,0-.46,1.94,1.94,0,0,1,.92-1.3,3.87,3.87,0,0,1,2.15-.52A3.48,3.48,0,0,1,259.33,45.13Z"/><path class="cls-1" d="M268.68,44.54l-1.19,6.77h-2.66l.18-1a3.25,3.25,0,0,1-1,.78,2.73,2.73,0,0,1-1.29.3,2,2,0,0,1-1.51-.57,2.25,2.25,0,0,1-.53-1.58,5,5,0,0,1,.07-.74l.7-3.93h2.65l-.63,3.59a1.61,1.61,0,0,0,0,.25.8.8,0,0,0,.21.59.79.79,0,0,0,.58.21,1.05,1.05,0,0,0,.75-.29,1.26,1.26,0,0,0,.38-.76v.06l.64-3.65Z"/><path class="cls-1" d="M273,42.43l-1.56,8.88h-2.66l1.56-8.88Z"/><path class="cls-1" d="M286.5,45.08a2.16,2.16,0,0,1,.59,1.6,3.84,3.84,0,0,1-.06.71l-.7,3.92h-2.65l.63-3.59a.84.84,0,0,0,0-.19.7.7,0,0,0-.21-.54.85.85,0,0,0-.6-.19,1.13,1.13,0,0,0-.72.23,1.11,1.11,0,0,0-.37.65l-.65,3.63h-2.65l.64-3.59s0-.11,0-.19a.7.7,0,0,0-.21-.54.85.85,0,0,0-.6-.19,1.07,1.07,0,0,0-1.1.92v-.06l-.64,3.65h-2.66l1.19-6.77h2.66l-.15.93a2.73,2.73,0,0,1,.9-.7,2.67,2.67,0,0,1,1.22-.27,2.31,2.31,0,0,1,1.24.31,1.85,1.85,0,0,1,.74.91,3.92,3.92,0,0,1,1.1-.88,2.72,2.72,0,0,1,1.34-.34A2.3,2.3,0,0,1,286.5,45.08Z"/><path class="cls-1" d="M293.87,45.17a2.5,2.5,0,0,1,.8,1.95,5.11,5.11,0,0,1-.07.75,5,5,0,0,1-.16.53h-4.25a1.49,1.49,0,0,0,0,.24.64.64,0,0,0,.15.49.56.56,0,0,0,.42.14.79.79,0,0,0,.7-.39h2.82a3.77,3.77,0,0,1-1.42,1.81,4,4,0,0,1-2.34.71,3,3,0,0,1-2.11-.74,2.69,2.69,0,0,1-.78-2,5.91,5.91,0,0,1,.07-.81,4.09,4.09,0,0,1,.76-1.78,3.84,3.84,0,0,1,1.43-1.16,4.29,4.29,0,0,1,1.86-.4A3.08,3.08,0,0,1,293.87,45.17ZM292,47.12a.52.52,0,0,0-.18-.43.73.73,0,0,0-.45-.14,1,1,0,0,0-1,.75H292A.87.87,0,0,0,292,47.12Z"/><path class="cls-1" d="M295.65,50.67a3,3,0,0,1-.62-2,6.45,6.45,0,0,1,.08-1,4.6,4.6,0,0,1,.67-1.73A3.4,3.4,0,0,1,297,44.84a3,3,0,0,1,1.44-.38,2.34,2.34,0,0,1,1.18.27,1.37,1.37,0,0,1,.63.74l.17-.93H303l-1.17,6.65a4.55,4.55,0,0,1-1.24,2.47,3.69,3.69,0,0,1-2.71,1,3.56,3.56,0,0,1-2.44-.76,2.63,2.63,0,0,1-.85-2.08h2.62c0,.36.27.53.77.53a1.2,1.2,0,0,0,.77-.24,1.46,1.46,0,0,0,.43-.9l.14-.8a2.37,2.37,0,0,1-.86.74,2.6,2.6,0,0,1-1.19.27A2.1,2.1,0,0,1,295.65,50.67Zm2.59-3.58a1.47,1.47,0,0,0-.43.84,2.07,2.07,0,0,0,0,.29.85.85,0,0,0,.22.63.8.8,0,0,0,.58.22,1.11,1.11,0,0,0,.77-.3,1.41,1.41,0,0,0,.42-.84,1.12,1.12,0,0,0,0-.29.89.89,0,0,0-.22-.63.77.77,0,0,0-.59-.22A1.09,1.09,0,0,0,298.24,47.09Z"/><path class="cls-1" d="M306.25,48.77l-.45,2.54h-2.64l.45-2.54Z"/></svg>