<?xml version="1.0" standalone="no"?>
<!DOCTYPE svg PUBLIC "-//W3C//DTD SVG 1.1//EN" "http://www.w3.org/Graphics/SVG/1.1/DTD/svg11.dtd" >
<svg xmlns="http://www.w3.org/2000/svg">
<metadata>
Created by FontPrep 20130207 at Sun Nov  8 20:06:33 2015
 By Pixeloid
Copyright (c) 2004 - 2007 Linotype GmbH, www.linotype.com. All rights reserved.
</metadata>
<defs>
<font id="2ed99a83bb26357490cd9dffcc988cd9" horiz-adv-x='1024' >
  <font-face 
    font-family="AvenirNext-Heavy"
    font-weight="900"
    font-stretch="normal"
    units-per-em="2048"
    panose-1="2 11 9 3 2 2 2 2 2 4"
    ascent="1638"
    descent="-410"
    x-height="1077"
    cap-height="1450"
    bbox="-334 -512 2533 1989"
    underline-thickness="102"
    underline-position="-102"
    unicode-range="U+000D-FB02"
  />
<missing-glyph horiz-adv-x="1048" 
d="M1049 1470v-1470h-1049v1470h1049zM946 102v1264h-844v-1264h844zM524.5 1145q-63.5 0 -109.5 -45t-59 -150l-102 17q14 147 90 213.5t186.5 66.5t182 -72.5t71.5 -195.5q0 -66 -25.5 -120t-102.5 -124q-77 -69 -89 -109t-12 -147h-94l-4 35q0 115 27 167t77 102
q81 80 100 115t19 91t-46 106t-109.5 50zM455 240v137h114v-137h-114z" />
    <glyph glyph-name=".notdef" horiz-adv-x="1048" 
d="M1049 1470v-1470h-1049v1470h1049zM946 102v1264h-844v-1264h844zM524.5 1145q-63.5 0 -109.5 -45t-59 -150l-102 17q14 147 90 213.5t186.5 66.5t182 -72.5t71.5 -195.5q0 -66 -25.5 -120t-102.5 -124q-77 -69 -89 -109t-12 -147h-94l-4 35q0 115 27 167t77 102
q81 80 100 115t19 91t-46 106t-109.5 50zM455 240v137h114v-137h-114z" />
    <glyph glyph-name=".null" horiz-adv-x="1024" 
 />
    <glyph glyph-name=".null" horiz-adv-x="1024" 
 />
    <glyph glyph-name="nonmarkingreturn" unicode="&#xd;" horiz-adv-x="0" 
 />
    <glyph glyph-name="space" unicode=" " horiz-adv-x="512" 
 />
    <glyph glyph-name="exclam" unicode="!" horiz-adv-x="917" 
d="M213 1450h492v-918h-492v918zM205 213q0 104 74 177t179.5 73t180 -72.5t74.5 -177.5t-75 -175.5t-179.5 -70.5t-179 71t-74.5 175z" />
    <glyph glyph-name="quotedbl" unicode="&#x22;" horiz-adv-x="1138" 
d="M166 1450h354v-578h-354v578zM621 1450h352v-578h-352v578z" />
    <glyph glyph-name="numbersign" unicode="#" horiz-adv-x="1269" 
d="M584 657h84l20 136h-86zM1122 657v-274h-194l-56 -383h-297l54 383h-82l-55 -383h-297l53 383h-156v274h195l20 136h-157v274h194l53 383h299l-55 -383h84l55 383h297l-55 -383h156v-274h-195l-18 -136h157z" />
    <glyph glyph-name="dollar" unicode="$" horiz-adv-x="1433" 
d="M690 365q109 0 109 65q0 37 -47 61t-165 63q-118 38 -268.5 110.5t-150.5 316.5q0 204 127.5 325t316.5 152v152h209v-148q135 -8 269.5 -60t238.5 -145l-303 -301q-49 59 -120.5 90t-129.5 31q-119 0 -119 -63q0 -33 34 -48.5t111 -39.5t163 -56t205.5 -115t119.5 -287
t-140.5 -334.5t-350.5 -147.5v-156h-209v154q-143 10 -277.5 65t-230.5 137l297 316q85 -92 175.5 -114.5t135.5 -22.5z" />
    <glyph glyph-name="percent" unicode="%" horiz-adv-x="1914" 
d="M426 33l860 1480l199 -112l-858 -1477zM1455 494q-48 0 -85 -36t-37 -86t37 -85t85 -35t85 35t37 85t-37 86t-85 36zM1172 90.5q-119 115.5 -119 282.5q0 166 118.5 280.5t285.5 114.5t284 -115.5t117 -279.5t-117 -281t-284 -117q-166 0 -285 115.5zM458 1200
q-48 0 -85 -36t-37 -86t37 -85t85 -35t85 35t37 85t-37 86t-85 36zM173 798.5q-118 116.5 -118 281.5t119 280t285 115q165 0 283 -114.5t118 -280.5q0 -165 -116.5 -281.5t-284.5 -116.5t-286 116.5z" />
    <glyph glyph-name="ampersand" unicode="&#x26;" horiz-adv-x="1720" 
d="M584 363q41 -29 88 -29q93 0 131 43l-180 182q-29 -10 -54.5 -36.5t-25.5 -78.5t41 -81zM749 1178q-46 0 -70 -29t-24 -65q0 -67 76 -123q47 18 78 49.5t31 72.5t-22.5 68t-68.5 27zM1065 104q-154 -133 -399 -133t-414.5 111.5t-169.5 324.5t112.5 294t172.5 106
q-142 128 -142 310t157.5 278t361.5 96t353.5 -98t149.5 -284t-111.5 -266.5t-168.5 -111.5l100 -94l113 162h510l-349 -424l394 -375h-570z" />
    <glyph glyph-name="quotesingle" unicode="'" horiz-adv-x="684" 
d="M166 1450h352v-578h-352v578z" />
    <glyph glyph-name="parenleft" unicode="(" 
d="M37 590q0 250 75.5 500.5t229.5 461.5l313 -114q-272 -377 -272 -848t272 -848l-313 -115q-154 211 -229.5 462t-75.5 501z" />
    <glyph glyph-name="parenright" unicode=")" 
d="M700 590q0 -250 -75.5 -501t-229.5 -462l-313 115q272 377 272 848t-272 848l313 114q154 -211 229.5 -461.5t75.5 -500.5z" />
    <glyph glyph-name="asterisk" unicode="*" horiz-adv-x="1079" 
d="M389 1450h305v-229l238 71l90 -266l-234 -70l148 -190l-248 -170l-151 195l-146 -185l-246 170l152 182l-240 76l99 266l233 -77v227z" />
    <glyph glyph-name="plus" unicode="+" horiz-adv-x="1363" 
d="M518 774v406h324v-406h422v-307h-418v-406h-324v406h-422v307h418z" />
    <glyph glyph-name="comma" unicode="," 
d="M29 -246l168 641h446l-233 -641h-381z" />
    <glyph glyph-name="hyphen" unicode="-" horiz-adv-x="688" 
d="M61 760h566v-352h-566v352z" />
    <glyph glyph-name="period" unicode="." 
d="M180 420q82 78 190 78t188.5 -78.5t80.5 -189.5t-80 -187t-189 -76t-190.5 75.5t-81.5 187.5t82 190z" />
    <glyph glyph-name="slash" unicode="/" horiz-adv-x="931" 
d="M-6 -23l620 1594l324 -98l-623 -1594z" />
    <glyph glyph-name="zero" unicode="0" horiz-adv-x="1433" 
d="M716.5 383q147.5 0 147.5 344t-147.5 344t-147.5 -344t147.5 -344zM717 -41q-133 0 -233.5 35t-204 120.5t-158.5 257.5t-55 361q0 437 201 597.5t450 160.5q361 0 506 -225.5t145 -532.5q0 -190 -39 -310t-86 -198t-119.5 -137t-173 -94t-233.5 -35z" />
    <glyph glyph-name="one" unicode="1" horiz-adv-x="1433" 
d="M1081 1450v-1450h-491v934l-244 -168l-229 356l514 328h450z" />
    <glyph glyph-name="two" unicode="2" horiz-adv-x="1433" 
d="M788 968q0 38 -25.5 68.5t-82.5 30.5t-96 -47t-43 -127l-465 53q26 265 210.5 405t430.5 140t418 -118.5t172 -349.5t-114 -328t-169 -136l-213 -151h500v-408h-1176v379l574 459q79 61 79 130z" />
    <glyph glyph-name="three" unicode="3" horiz-adv-x="1433" 
d="M639 909q172 -1 172 97q0 92 -115 92q-51 0 -94 -32t-53 -93l-453 96q69 223 245.5 322.5t399 99.5t397.5 -109.5t175 -318.5q0 -123 -64.5 -195.5t-156.5 -99.5v-8q110 -36 178.5 -125t68.5 -197q0 -237 -178 -358t-491 -121t-443.5 165t-158.5 282l454 106
q12 -53 60.5 -98t126.5 -45t101.5 34.5t23.5 63.5q0 66 -57.5 86t-153.5 20h-140v336h156z" />
    <glyph glyph-name="four" unicode="4" horiz-adv-x="1433" 
d="M768 637v367h-8l-242 -367h250zM1204 0h-442v256h-699v397l549 797h590v-813h197v-381h-195v-256z" />
    <glyph glyph-name="five" unicode="5" horiz-adv-x="1433" 
d="M811 950q74 0 175 -26.5t223 -116t122 -320.5q0 -276 -178 -402t-419 -126t-426.5 121t-223.5 326l451 114q12 -59 60.5 -103t108.5 -44q142 0 142 110q0 66 -73.5 94.5t-191.5 28.5q-119 0 -372 -43l51 887h985v-406h-573l-8 -104q73 10 147 10z" />
    <glyph glyph-name="six" unicode="6" horiz-adv-x="1433" 
d="M719 655q-68 0 -110 -42t-42 -104t42 -105.5t110 -43.5t109.5 43t41.5 105t-41.5 104.5t-109.5 42.5zM856 995q200 0 348 -130t148 -353q0 -263 -184 -408t-451.5 -145t-451 140.5t-183.5 408.5q0 227 180 477l332 465h592l-352 -455h22z" />
    <glyph glyph-name="seven" unicode="7" horiz-adv-x="1433" 
d="M166 1044v406h1155v-346l-518 -1104h-565l550 1044h-622z" />
    <glyph glyph-name="eight" unicode="8" horiz-adv-x="1433" 
d="M1319 418q0 -123 -52.5 -210t-137.5 -142.5t-192.5 -81t-291.5 -25.5t-357 114.5t-173 342.5q0 119 66.5 205t174.5 131v6q-90 35 -153.5 113.5t-63.5 241.5t168.5 270.5t407.5 107.5q240 0 409.5 -108t169.5 -270.5t-59 -241t-158 -111.5v-6q104 -39 173 -126t69 -210z
M716.5 567q-63.5 0 -95 -36.5t-31.5 -84t31.5 -83t95 -35.5t95.5 35.5t32 83t-32 84t-95.5 36.5zM717 1128q-55 0 -87 -33.5t-32 -73.5t32 -75t87 -35t87 35t32 75t-32 73.5t-87 33.5z" />
    <glyph glyph-name="nine" unicode="9" horiz-adv-x="1433" 
d="M715 799q68 0 109.5 42t41.5 104t-42 105.5t-110 43.5t-109.5 -43t-41.5 -105t42 -104.5t110 -42.5zM578 455q-202 0 -349 130t-147 353q0 263 183.5 408t451 145t451.5 -141t184 -408q0 -226 -181 -477l-331 -465h-592l352 455h-22z" />
    <glyph glyph-name="colon" unicode=":" horiz-adv-x="778" 
d="M210 1014q75 73 181 73t179 -74t73 -176q0 -103 -74 -175t-178 -72q-103 0 -179.5 71t-76.5 176q0 104 75 177zM135 235q0 105 76 177.5t180 72.5q105 0 178.5 -73.5t73.5 -176.5t-74 -175t-178 -72q-103 0 -179.5 71t-76.5 176z" />
    <glyph glyph-name="semicolon" unicode=";" horiz-adv-x="778" 
d="M210 1014q75 73 181 73t179 -74t73 -176q0 -103 -74 -175t-178 -72q-103 0 -179.5 71t-76.5 176q0 104 75 177zM27 -246l168 641h446l-233 -641h-381z" />
    <glyph glyph-name="less" unicode="&#x3c;" horiz-adv-x="1363" 
d="M643 612q543 -204 561 -211v-335l-1044 415v275q262 104 522 207.5t522 207.5v-331q-141 -59 -280.5 -113.5t-280.5 -114.5z" />
    <glyph glyph-name="equal" unicode="=" horiz-adv-x="1363" 
d="M1249 578v-295h-1134v295h1134zM1249 967v-295h-1134v295h1134z" />
    <glyph glyph-name="greater" unicode="&#x3e;" horiz-adv-x="1363" 
d="M721 612l-561 228v331l1044 -415v-275q-262 -104 -522 -207.5t-522 -207.5v335q141 53 280.5 105.5t280.5 105.5z" />
    <glyph glyph-name="question" unicode="?" horiz-adv-x="1202" 
d="M707 1028q0 78 -86 78q-68 0 -96.5 -48t-28.5 -112l-441 58q23 247 185 367t389 120q361 0 457 -154.5t96 -250.5t-18.5 -151.5t-64.5 -116.5t-186 -146q-73 -46 -73 -103v-53h-437v76q0 154 79 222.5t122 98.5l35 25q68 47 68 90zM369 213q0 104 74 177t179.5 73
t180 -72.5t74.5 -177.5t-75 -175.5t-179.5 -70.5t-179 71t-74.5 175z" />
    <glyph glyph-name="at" unicode="@" horiz-adv-x="1638" 
d="M707 702q0 -122 84 -122q56 0 89 62t33 125q0 64 -16.5 102t-66.5 38t-86.5 -63.5t-36.5 -141.5zM719 328q-148 0 -232 103t-84 274t106 308.5t275 137.5q80 0 127 -35t60 -72h4l10 50h279l-39 -222q-37 -194 -37 -231q0 -61 47 -61t84 53.5t37 173.5q0 228 -137.5 345.5
t-372.5 117.5t-384 -154.5t-149 -394.5q0 -241 159.5 -387t410.5 -146q117 0 228.5 37t191.5 103l153 -174q-229 -190 -602 -191q-172 0 -319.5 56.5t-255 156.5t-168 239.5t-60.5 305.5t63.5 305t172 241.5t253 161t301.5 58.5q325 0 543 -181t218 -499q0 -218 -117 -348.5
t-324 -130.5q-171 0 -217 121h-4q-23 -43 -82 -82t-139 -39z" />
    <glyph glyph-name="A" unicode="A" horiz-adv-x="1589" 
d="M791 944l-119 -358h235zM539 1450h518l565 -1450h-530l-76 213h-461l-72 -213h-516z" />
    <glyph glyph-name="B" unicode="B" horiz-adv-x="1419" 
d="M731 1450q565 0 565 -385q0 -117 -58 -192.5t-155 -112.5v-6q111 -26 169.5 -89t81 -118t22.5 -149t-90.5 -246t-472.5 -152h-658v1450h596zM590 580v-197h145q57 0 93 25.5t36 64.5q0 62 -47.5 84.5t-101.5 22.5h-125zM838 989q0 82 -127 82h-121v-178h131q51 0 84 23.5
t33 72.5z" />
    <glyph glyph-name="C" unicode="C" horiz-adv-x="1425" 
d="M1126 930q-84 108 -224 108q-141 0 -224.5 -85.5t-83.5 -224.5t84.5 -225.5t208.5 -86.5q84 0 144.5 34.5t94.5 81.5l299 -358q-98 -98 -241.5 -156.5t-316.5 -58.5q-344 0 -570.5 215t-226.5 551q0 174 61.5 315.5t168 241.5t250.5 154.5t310 54.5t315.5 -54.5
t249.5 -146.5z" />
    <glyph glyph-name="D" unicode="D" horiz-adv-x="1613" 
d="M694 418q357 0 357 304q0 156 -92.5 235t-245.5 79h-109v-618h90zM135 0v1450h541q604 0 736 -254t132 -454q0 -372 -238.5 -557t-588.5 -185h-582z" />
    <glyph glyph-name="E" unicode="E" horiz-adv-x="1234" 
d="M135 1450h998v-406h-539v-124h506v-379h-506v-135h573v-406h-1032v1450z" />
    <glyph glyph-name="F" unicode="F" horiz-adv-x="1189" 
d="M612 889h443v-397h-441v-492h-479v1450h979v-408h-502v-153z" />
    <glyph glyph-name="G" unicode="G" horiz-adv-x="1560" 
d="M905 383q77 0 115 20v111h-234v383h666v-793q-152 -93 -325 -117t-255 -24q-348 0 -513.5 152.5t-227 294t-61.5 315.5t61.5 315.5t226 296t498.5 154.5q170 0 322.5 -55.5t248.5 -151.5l-284 -342q-99 117 -258 117q-126 0 -219 -95t-93 -243t79 -243t253 -95z" />
    <glyph glyph-name="H" unicode="H" horiz-adv-x="1642" 
d="M1020 551h-397v-551h-488v1450h486v-492h397v492h489v-1450h-487v551z" />
    <glyph glyph-name="I" unicode="I" horiz-adv-x="761" 
d="M135 1450h492v-1450h-492v1450z" />
    <glyph glyph-name="J" unicode="J" horiz-adv-x="1173" 
d="M387 487q20 -84 94 -84t74 113v934h489v-913q0 -243 -80.5 -357t-185 -167.5t-236.5 -53.5q-228 0 -379.5 106.5t-193.5 262.5z" />
    <glyph glyph-name="K" unicode="K" horiz-adv-x="1562" 
d="M610 578v-578h-475v1450h473v-535h4l387 535h574l-545 -664l571 -786h-598l-387 578h-4z" />
    <glyph glyph-name="L" unicode="L" horiz-adv-x="1124" 
d="M135 1450h492v-1032h481v-418h-973v1450z" />
    <glyph glyph-name="M" unicode="M" horiz-adv-x="2064" 
d="M135 0v1450h637l262 -780h10l228 780h657v-1450h-473l14 815l-12 2l-270 -817h-344l-266 819h-11l23 -819h-455z" />
    <glyph glyph-name="N" unicode="N" horiz-adv-x="1619" 
d="M135 1450h486l413 -735h8l-20 735h463v-1450h-498l-401 692h-8l20 -692h-463v1450z" />
    <glyph glyph-name="O" unicode="O" horiz-adv-x="1751" 
d="M588 732q0 -71 21.5 -130t59.5 -102t91 -66.5t145 -23.5t174 90t82 233q0 214 -112.5 262.5t-174 48.5t-114.5 -22.5t-91 -62t-59.5 -98t-21.5 -129.5zM70 733q0 174 61.5 314.5t169 238.5t254.5 151.5t319.5 53.5t319.5 -53.5t256 -151.5t170 -238.5t61 -314.5
t-61 -317.5t-170 -244.5t-256 -156.5t-319.5 -55.5t-319.5 55.5t-254.5 156.5t-169 244.5t-61.5 317.5z" />
    <glyph glyph-name="P" unicode="P" horiz-adv-x="1400" 
d="M870 958q0 113 -147 113h-102v-233h102q55 0 101 27.5t46 92.5zM621 467v-467h-486v1450h623q402 0 498 -173t96 -311q0 -255 -170.5 -377t-423.5 -122h-137z" />
    <glyph glyph-name="Q" unicode="Q" horiz-adv-x="1769" 
d="M588 732q0 -71 21.5 -130t59.5 -102t91 -66.5t145 -23.5t174 90t82 233q0 214 -112.5 262.5t-174 48.5t-114.5 -22.5t-91 -62t-59.5 -98t-21.5 -129.5zM1745 0h-897q-355 0 -566.5 195t-211.5 546q0 166 61.5 304.5t169 237.5t254.5 153.5t319.5 54.5t317.5 -54.5
t250.5 -150.5t165 -231t59.5 -305t-62.5 -260.5t-88.5 -112.5v-8l229 14v-383z" />
    <glyph glyph-name="R" unicode="R" horiz-adv-x="1462" 
d="M602 838h96q112 0 141 41t29 95t-42.5 75.5t-106.5 21.5h-117v-233zM135 1450h625q397 0 491.5 -167t94.5 -302t-66 -236.5t-188 -156.5l368 -588h-561l-278 518h-15v-518h-471v1450z" />
    <glyph glyph-name="S" unicode="S" horiz-adv-x="1263" 
d="M694 1092q-119 0 -119 -66q0 -33 34 -49t111 -41t163 -57.5t205.5 -119t119.5 -282.5q0 -246 -179 -382t-428 -136t-397.5 85t-203.5 134l297 324q51 -55 136 -98.5t185 -43.5t99 68q0 36 -52 64.5t-165 64.5q-113 37 -263.5 113t-150.5 323t180.5 372.5t427.5 125.5
q143 0 292 -55.5t261 -159.5l-303 -309q-49 61 -120.5 93t-129.5 32z" />
    <glyph glyph-name="T" unicode="T" horiz-adv-x="1228" 
d="M858 0h-487v1038h-357v412h1200v-412h-356v-1038z" />
    <glyph glyph-name="U" unicode="U" horiz-adv-x="1587" 
d="M115 569v881h487v-827q0 -104 50 -163t142.5 -59t142.5 58.5t50 163.5v827h486v-881q0 -267 -180 -438.5t-506 -171.5t-499 169t-173 441z" />
    <glyph glyph-name="V" unicode="V" horiz-adv-x="1513" 
d="M-33 1450h551l240 -897h8l229 897h551l-524 -1450h-541z" />
    <glyph glyph-name="W" unicode="W" horiz-adv-x="2205" 
d="M887 0h-492l-395 1450h516l156 -815h8l168 815h510l182 -815h8l158 815h500l-404 -1450h-491l-205 819h-8z" />
    <glyph glyph-name="X" unicode="X" horiz-adv-x="1638" 
d="M805 424l-252 -424h-578l519 756l-492 694h588l229 -381l219 381h574l-484 -688l535 -762h-596z" />
    <glyph glyph-name="Y" unicode="Y" horiz-adv-x="1511" 
d="M985 0h-487v594l-547 856h588l229 -426l219 426h574l-576 -856v-594z" />
    <glyph glyph-name="Z" unicode="Z" horiz-adv-x="1376" 
d="M113 1047v403h1157v-352l-578 -682h594v-416h-1196v408l543 639h-520z" />
    <glyph glyph-name="bracketleft" unicode="[" 
d="M86 1499h516v-280h-178v-1258h178v-280h-516v1818z" />
    <glyph glyph-name="backslash" unicode="\" horiz-adv-x="931" 
d="M-6 1473l323 98l621 -1594l-322 -98z" />
    <glyph glyph-name="bracketright" unicode="]" 
d="M651 -319h-516v280h178v1258h-178v280h516v-1818z" />
    <glyph glyph-name="asciicircum" unicode="^" horiz-adv-x="1462" 
d="M729 1085l-207 -383h-364l415 748h316q104 -188 205.5 -373.5t205.5 -374.5h-364q-51 96 -103.5 191.5t-103.5 191.5z" />
    <glyph glyph-name="underscore" unicode="_" horiz-adv-x="1024" 
d="M0 -154h1024v-225h-1024v225z" />
    <glyph glyph-name="grave" unicode="`" 
d="M-74 1491h434l228 -295h-346z" />
    <glyph glyph-name="a" unicode="a" horiz-adv-x="1210" 
d="M680 684q0 96 -119 96t-231 -92l-236 234q98 94 234 145t284 51q283 0 397.5 -149t114.5 -402v-567h-428v86h-4q-41 -61 -116.5 -88t-143.5 -27q-153 0 -266 86t-113 260q0 202 181 282.5t446 80.5v4zM684 446q-104 0 -167.5 -22.5t-63.5 -83.5t46 -72.5t62 -11.5
q68 0 109 43t41 111v36h-27z" />
    <glyph glyph-name="b" unicode="b" horiz-adv-x="1421" 
d="M918 540q0 75 -45.5 128t-130.5 53t-135 -53.5t-50 -127.5t50 -127t135 -53t130.5 52.5t45.5 127.5zM584 991q98 115 302 115q100 0 191.5 -49t153 -129t93.5 -180.5t32 -205.5q0 -227 -131.5 -399t-360.5 -172q-100 0 -190 38t-137 104h-5v-113h-423v1548h471v-557h4z
" />
    <glyph glyph-name="c" unicode="c" horiz-adv-x="1077" 
d="M685 -41q-266 0 -442.5 159.5t-176.5 420.5t180.5 420t453.5 159q164 0 262.5 -46t129.5 -71l-236 -339q-51 59 -141 59q-118 0 -151.5 -68.5t-33.5 -133.5t55.5 -112t138.5 -47t134 58l238 -332q-68 -53 -175.5 -90t-235.5 -37z" />
    <glyph glyph-name="d" unicode="d" horiz-adv-x="1421" 
d="M504 540q0 -75 45 -127.5t130 -52.5t135 53.5t50 127.5t-50 127t-135 53t-130 -53t-45 -128zM196.5 936q130.5 170 360.5 170q78 0 156 -29.5t125 -85.5h4v557h471v-1548h-424v113h-4q-47 -66 -138 -104t-201 -38t-202 49.5t-185 171t-93 348.5q0 226 130.5 396z" />
    <glyph glyph-name="e" unicode="e" horiz-adv-x="1290" 
d="M708 -41q-283 0 -462.5 153t-179.5 421t172.5 426.5t425.5 158.5t411 -166t158 -424q0 -64 -4 -100h-725q4 -53 59.5 -88t124.5 -35q118 0 176 76l336 -170q-72 -117 -208 -184.5t-284 -67.5zM825 682q0 57 -42.5 94t-116.5 37t-117 -43t-49 -88h325z" />
    <glyph glyph-name="f" unicode="f" horiz-adv-x="868" 
d="M780 1243q-125 0 -125 -151v-15h228v-338h-228v-739h-471v739h-184v338h184v25q0 358 178.5 433t317.5 75t223 -31l-31 -354q-40 18 -92 18z" />
    <glyph glyph-name="g" unicode="g" horiz-adv-x="1427" 
d="M504 540q0 -75 45 -127.5t130 -52.5t135 53.5t50 127.5t-50 127t-135 53t-130 -53t-45 -128zM272 -20q152 -115 325 -115t215 76.5t42 126.5v47h-6q-39 -45 -115.5 -80t-188.5 -35t-204 44t-183 155t-91 339t130.5 398t360.5 170q86 0 169 -33t136 -104h6v108h445v-966
q0 -327 -191.5 -465t-480.5 -138q-154 0 -307.5 40t-267.5 118z" />
    <glyph glyph-name="h" unicode="h" horiz-adv-x="1363" 
d="M791 573q0 148 -98 148q-46 0 -78.5 -36t-32.5 -114v-571h-473v1548h473v-590h4q41 59 116.5 103.5t183.5 44.5q201 0 290.5 -131t89.5 -320v-655h-475v573z" />
    <glyph glyph-name="i" unicode="i" horiz-adv-x="694" 
d="M176 1559.5q74 70.5 171 70.5t171 -70.5t74 -172.5t-73.5 -170t-171.5 -68t-171.5 68t-73.5 170t74 172.5zM111 1077h473v-1077h-473v1077z" />
    <glyph glyph-name="j" unicode="j" horiz-adv-x="708" 
d="M533 1559q73 -71 73 -172t-72.5 -169.5t-172 -68.5t-172 68.5t-72.5 169.5t73 172t171.5 71t171.5 -71zM598 25q0 -517 -485 -517q-112 0 -197 25l25 385q38 -10 83 -10q101 0 101 131v1038h473v-1052z" />
    <glyph glyph-name="k" unicode="k" horiz-adv-x="1372" 
d="M582 469v-469h-473v1548h473v-882h6l256 411h549l-349 -485l347 -592h-551l-252 469h-6z" />
    <glyph glyph-name="l" unicode="l" horiz-adv-x="700" 
d="M109 1548h483v-1548h-483v1548z" />
    <glyph glyph-name="m" unicode="m" horiz-adv-x="1998" 
d="M768 565q0 156 -82 156q-41 0 -72.5 -33t-31.5 -117v-571h-473v1077h460v-119h4q72 97 161 122.5t145 25.5q219 0 307 -156q125 156 329 156t295 -139.5t91 -311.5v-655h-474v573q0 88 -21.5 118t-64.5 30t-71.5 -38t-28.5 -112v-571h-473v565z" />
    <glyph glyph-name="n" unicode="n" horiz-adv-x="1363" 
d="M109 1077h460v-119h4q41 59 122 103.5t190 44.5q202 0 291.5 -131t89.5 -320v-655h-475v573q0 82 -26 115t-75 33t-78.5 -38t-29.5 -110v-573h-473v1077z" />
    <glyph glyph-name="o" unicode="o" horiz-adv-x="1359" 
d="M678 721q-78 0 -126 -53.5t-48 -127.5t49 -127t127 -53t127 53.5t49 127.5t-50 127t-128 53zM1114.5 116.5q-179.5 -157.5 -436.5 -157.5t-434.5 158t-177.5 424t177.5 421.5t434.5 155.5q258 0 437 -154.5t179 -422.5q0 -267 -179.5 -424.5z" />
    <glyph glyph-name="p" unicode="p" horiz-adv-x="1421" 
d="M918 540q0 75 -45.5 128t-130.5 53t-135 -53.5t-50 -127.5t50 -127t135 -53t130.5 52.5t45.5 127.5zM557 969q119 137 327 137q100 0 192.5 -49t186 -170.5t93.5 -346.5t-93.5 -347.5t-185 -172t-191.5 -49.5q-200 0 -304 113h-4v-576h-469v1569h444v-108h4z" />
    <glyph glyph-name="q" unicode="q" horiz-adv-x="1421" 
d="M504 540q0 -75 45 -127.5t130 -52.5t135 53.5t50 127.5t-50 127t-135 53t-130 -53t-45 -128zM159 191.5q-93 121.5 -93 348.5q0 226 130.5 396t360.5 170q80 0 164 -35t143 -102h4v108h445v-1569h-469v576h-4q-104 -113 -306 -113q-100 0 -191 49.5t-184 171z" />
    <glyph glyph-name="r" unicode="r" horiz-adv-x="911" 
d="M784 707q-92 0 -147 -53.5t-55 -131.5v-522h-473v1077h454v-123h4q35 66 103 109t142 43t110 -10l-37 -402q-50 13 -101 13z" />
    <glyph glyph-name="s" unicode="s" horiz-adv-x="1050" 
d="M601 784q-91 0 -91 -45q0 -20 25 -31.5t103 -26.5q154 -30 253.5 -111.5t99.5 -227.5q0 -199 -147.5 -291t-308.5 -92q-323 0 -527 154l232 268q49 -45 115.5 -72.5t130.5 -27.5t65 43q0 27 -38.5 42t-110.5 32q-324 76 -324 333q0 192 149.5 289.5t323.5 97.5
q259 0 469 -139l-221 -264q-107 69 -198 69z" />
    <glyph glyph-name="t" unicode="t" horiz-adv-x="862" 
d="M608 453q0 -134 118 -134q50 0 95 13v-324q-86 -37 -243 -37q-217 0 -321.5 93.5t-104.5 289.5v385h-152v338h150v242h458v-242h234v-338h-234v-286z" />
    <glyph glyph-name="u" unicode="u" horiz-adv-x="1357" 
d="M1249 0h-461v119h-4q-41 -59 -121.5 -103.5t-190.5 -44.5q-202 0 -291 130t-89 321v655h475v-569q0 -82 25.5 -115t75.5 -33t79 38t29 110v569h473v-1077z" />
    <glyph glyph-name="v" unicode="v" horiz-adv-x="1306" 
d="M-16 1077h524l154 -581h8l147 581h506l-416 -1077h-514z" />
    <glyph glyph-name="w" unicode="w" horiz-adv-x="1992" 
d="M827 0h-469l-368 1077h506l135 -557h8l139 557h455l149 -557h7l131 557h483l-373 -1077h-471l-166 553h-4z" />
    <glyph glyph-name="x" unicode="x" horiz-adv-x="1382" 
d="M692 244l-176 -244h-532l415 553l-387 524h537l156 -225l153 225h520l-387 -524l408 -553h-541z" />
    <glyph glyph-name="y" unicode="y" horiz-adv-x="1306" 
d="M244 -94q74 0 111.5 31.5t56.5 80.5l8 23l-436 1036h524l160 -567h8l141 567h506l-442 -1143q-82 -211 -210 -318.5t-356 -107.5q-82 0 -164.5 13.5t-103.5 19.5l59 389q64 -24 138 -24z" />
    <glyph glyph-name="z" unicode="z" horiz-adv-x="1140" 
d="M78 727v350h981v-307l-436 -420h448v-350h-1003v330l403 397h-393z" />
    <glyph glyph-name="braceleft" unicode="{" 
d="M0 735q61 0 97 28t36 116v270q0 238 111.5 294t193.5 56h197v-280h-70q-59 0 -80.5 -39t-21.5 -84v-277q0 -105 -56.5 -163.5t-117.5 -63.5v-4q108 -17 141 -92.5t33 -135.5v-276q0 -45 21.5 -84t80.5 -39h70v-280h-197q-152 0 -228.5 99t-76.5 251v270q0 88 -36 115.5
t-97 27.5v291z" />
    <glyph glyph-name="bar" unicode="|" horiz-adv-x="550" 
d="M100 1536h353v-2048h-353v2048z" />
    <glyph glyph-name="braceright" unicode="}" 
d="M737 444q-61 0 -97 -27.5t-36 -115.5v-270q0 -239 -111.5 -294.5t-193.5 -55.5h-197v280h70q59 0 80.5 39t21.5 84v276q0 106 53.5 161.5t121.5 66.5v4q-62 5 -118.5 63.5t-56.5 163.5v277q0 45 -21.5 84t-80.5 39h-70v280h197q154 0 229.5 -99.5t75.5 -250.5v-270
q0 -88 36 -116t97 -28v-291z" />
    <glyph glyph-name="asciitilde" unicode="~" horiz-adv-x="1363" 
d="M933 715q36 0 81 38t78 99l151 -277q-72 -119 -157.5 -168t-159.5 -49q-134 0 -249 72t-148 74t-53 2q-51 0 -110.5 -34.5t-93.5 -100.5l-151 276q69 114 166 165.5t183 51.5q87 0 140.5 -18.5t106.5 -53.5t80.5 -49t47 -20t36 -7t52.5 -1z" />
    <glyph glyph-name="uni00A0" unicode="&#xa0;" horiz-adv-x="512" 
 />
    <glyph glyph-name="exclamdown" unicode="&#xa1;" horiz-adv-x="917" 
d="M705 553v-918h-492v918h492zM459 1118q53 0 99 -19.5t81 -52t54.5 -78.5t19.5 -97.5t-19.5 -96.5t-54.5 -78.5t-81 -53t-99 -19.5t-99.5 19.5t-81 53t-54 78.5t-19.5 96.5t19.5 97.5t54 78.5t81 52t99.5 19.5z" />
    <glyph glyph-name="cent" unicode="&#xa2;" horiz-adv-x="1433" 
d="M922 -147h-224v120q-219 31 -358 182t-139 380t136.5 378.5t360.5 188.5v131h224v-125q92 -8 174 -38t131 -69l-236 -339q-51 59 -141 59q-119 0 -151.5 -68.5t-32.5 -134.5t56 -112t138 -46t133 58l238 -332q-116 -94 -309 -117v-116z" />
    <glyph glyph-name="sterling" unicode="&#xa3;" horiz-adv-x="1433" 
d="M985 1077q-164 0 -164 -153v-19h297v-332h-297v-178h514v-395h-1171v395h188v178h-188v332h188v58q0 94 36 189t152.5 217t391.5 122q166 0 284.5 -48t190.5 -118l-274 -311q-54 63 -148 63z" />
    <glyph glyph-name="currency" unicode="&#xa4;" horiz-adv-x="1433" 
d="M547 605q0 -75 49 -129t125 -54t124 54t48 130t-50 129t-124 53t-123 -54t-49 -129zM1243 605q0 -151 -69 -267l165 -166l-192 -195l-174 175q-115 -58 -248 -58t-260 62l-178 -179l-193 195l170 170q-63 115 -63 262t61 258l-168 168l195 193l172 -170q119 59 261 59
t255 -57l168 168l194 -193l-161 -162q65 -112 65 -263z" />
    <glyph glyph-name="yen" unicode="&#xa5;" horiz-adv-x="1433" 
d="M1319 938v-287h-377v-96h377v-287h-377v-268h-442v268h-371v287h371v96h-371v287h205l-324 512h518l201 -444l201 444h506l-322 -512h205z" />
    <glyph glyph-name="brokenbar" unicode="&#xa6;" horiz-adv-x="550" 
d="M453 410v-832h-353v832h353zM453 1470v-831h-353v831h353z" />
    <glyph glyph-name="section" unicode="&#xa7;" horiz-adv-x="1331" 
d="M479 646q0 -42 45 -62.5t115 -44.5l166 -58q27 17 27 55t-43.5 63.5t-108.5 47.5l-168 60q-33 -19 -33 -61zM1196 115q0 -227 -176 -328.5t-404 -101.5q-272 0 -411 103t-185 169l322 266q84 -121 175 -140.5t121 -19.5t54.5 11.5t24.5 29.5q0 35 -42 55.5t-157 53.5
q-238 69 -338 149.5t-100 243.5t145 254q-84 80 -84 208q0 221 170 321t367 100t339 -68.5t214 -197.5l-340 -226q-31 53 -85 84t-95 31t-68 -12.5t-27 -29.5q0 -30 36 -47.5t151 -52.5q229 -69 331.5 -157t102.5 -248t-133 -241q47 -33 69.5 -91.5t22.5 -117.5z" />
    <glyph glyph-name="dieresis" unicode="&#xa8;" 
d="M259 1531q60 -60 60 -143t-60 -141.5t-144 -58.5t-144.5 57.5t-60.5 141.5t61.5 144t144.5 60t143 -60zM769 1531q60 -60 60 -143t-60 -141.5t-144 -58.5t-144.5 57.5t-60.5 141.5t61.5 144t144.5 60t143 -60z" />
    <glyph glyph-name="copyright" unicode="&#xa9;" horiz-adv-x="1638" 
d="M164 723q0 -135 50 -254t138 -208t207 -140t254 -51t255 51t211 140t143.5 208t52.5 254t-51.5 255t-140.5 209t-208 141t-254 52t-255 -52t-209 -141t-141 -209t-52 -255zM41 724q0 161 61.5 301t167 244.5t247.5 165t303 60.5t302.5 -60.5t247 -165t166.5 -244.5
t61 -301t-61 -301t-166.5 -244.5t-247 -164t-302.5 -59.5t-303 59.5t-247.5 164t-167 244.5t-61.5 301zM1020 891q-55 74 -157 74t-156 -72.5t-54 -168t57 -168.5t160 -73q104 0 160 68l189 -180q-138 -138 -355 -138t-363.5 131.5t-146.5 353.5t145.5 357t362.5 135
q106 0 203 -40.5t156 -114.5z" />
    <glyph glyph-name="ordfeminine" unicode="&#xaa;" horiz-adv-x="798" 
d="M459 930q-41 -62 -168 -62q-128 0 -169.5 67t-41.5 123q0 104 107.5 147.5t265.5 43.5v2q0 52 -73 52t-134 -50l-142 125q124 107 304 107q249 0 278 -118t29 -179v-305h-254v47h-2zM453 1120q-131 0 -131 -48t61 -48q39 0 62.5 21.5t23.5 56.5v18h-16z" />
    <glyph glyph-name="guillemotleft" unicode="&#xab;" horiz-adv-x="1187" 
d="M35 561l360 508l264 -170l-235 -338l235 -338l-264 -170zM506 561l358 508l266 -170l-235 -338l235 -338l-266 -170z" />
    <glyph glyph-name="logicalnot" unicode="&#xac;" horiz-adv-x="1363" 
d="M915 643h-839v295h1163v-645h-324v350z" />
    <glyph glyph-name="uni00AD" unicode="&#xad;" horiz-adv-x="688" 
d="M61 760h566v-352h-566v352z" />
    <glyph glyph-name="registered" unicode="&#xae;" horiz-adv-x="1228" 
d="M221 1009q0 -163 116 -279t279 -116t277.5 116.5t114.5 278.5t-115 277t-277 115t-278.5 -114.5t-116.5 -277.5zM147 1007.5q0 96.5 37 181.5t100.5 147.5t149.5 99.5t182.5 37t181.5 -37t147.5 -99.5t99 -147.5t36.5 -181.5t-36.5 -180.5t-99 -146.5t-147.5 -98
t-181.5 -35.5t-182.5 35.5t-149.5 98t-100.5 146.5t-37 180.5zM571 940v-192h-180v544h234q106 0 176.5 -42t70.5 -144q0 -103 -98 -141l125 -217h-205l-90 192h-33zM625 1067q25 0 41 13.5t16 31.5t-17.5 28.5t-39.5 10.5h-54v-84h54z" />
    <glyph glyph-name="macron" unicode="&#xaf;" 
d="M0 1448h737v-197h-737v197z" />
    <glyph glyph-name="degree" unicode="&#xb0;" horiz-adv-x="901" 
d="M649 1135q0 84 -57 141t-141 57t-141.5 -57t-57.5 -141t57.5 -141.5t141.5 -57.5t141 57.5t57 141.5zM817 1134.5q0 -79.5 -27.5 -146t-76.5 -116t-116 -77t-146.5 -27.5t-146 27.5t-116 77t-77 116t-27.5 146t27.5 146.5t77 116t116 76.5t146 27.5t146.5 -27.5
t116 -76.5t76.5 -116t27.5 -146.5z" />
    <glyph glyph-name="plusminus" unicode="&#xb1;" horiz-adv-x="1363" 
d="M63 373h1237v-312h-1237v312zM514 1241h336v-248h450v-311h-450v-248h-336v248h-451v311h451v248z" />
    <glyph glyph-name="twosuperior" unicode="&#xb2;" horiz-adv-x="921" 
d="M520 1141q0 65 -65 65q-37 0 -61.5 -28.5t-28.5 -79.5l-293 32q15 167 131.5 256t270.5 89q155 0 264.5 -73.5t109.5 -232.5q0 -158 -178 -280l-135 -94h315v-258h-741v239l372 301q39 35 39 64z" />
    <glyph glyph-name="threesuperior" unicode="&#xb3;" horiz-adv-x="921" 
d="M426 1110q104 0 104 60t-71 59q-29 0 -56.5 -21.5t-33.5 -60.5l-275 63q36 135 147.5 200t247.5 65t241.5 -65.5t105.5 -202.5t-121 -191q68 -23 102.5 -79t34.5 -130t-33 -130t-85 -93t-117.5 -53.5t-171 -16.5t-220 69t-149.5 212l278 67q8 -35 36 -63.5t69 -28.5
q86 0 86 61q0 41 -35 54.5t-94 13.5h-86v211h96z" />
    <glyph glyph-name="acute" unicode="&#xb4;" 
d="M150 1196l227 295h434l-315 -295h-346z" />
    <glyph glyph-name="mu" unicode="&#xb5;" horiz-adv-x="1552" 
d="M643 -459h-479v1536h479v-538q0 -130 48 -175t87 -45q148 0 148 205v553h479v-1077h-463v76q-66 -80 -174 -80q-76 0 -125 33v-488z" />
    <glyph glyph-name="paragraph" unicode="&#xb6;" horiz-adv-x="1323" 
d="M885 1159h-107v-1431h-315v948q-205 10 -320.5 107.5t-115.5 271.5q0 222 144.5 308.5t387.5 86.5h643v-1722h-317v1431z" />
    <glyph glyph-name="periodcentered" unicode="&#xb7;" 
d="M180 780q82 78 190 78t188.5 -78.5t80.5 -190t-80.5 -186.5t-188.5 -75t-190 74.5t-82 187t82 190.5z" />
    <glyph glyph-name="cedilla" unicode="&#xb8;" 
d="M379 -274q1 36 -61 36t-99 -12l-90 70l154 180h239l-102 -109q42 8 142 -12.5t100 -159.5q0 -113 -104 -162t-246 -49q-141 0 -259 48l70 159q70 -32 163 -32t93 43z" />
    <glyph glyph-name="onesuperior" unicode="&#xb9;" horiz-adv-x="921" 
d="M715 1450v-913h-309v589l-154 -106l-146 225l324 205h285z" />
    <glyph glyph-name="ordmasculine" unicode="&#xba;" horiz-adv-x="798" 
d="M399 1274q-41 0 -66.5 -28.5t-25.5 -67.5t26.5 -68t67.5 -29t68 29t27 68t-28 67.5t-69 28.5zM169 948.5q-97 84.5 -97 229.5t96.5 227t233 82t233 -82t96.5 -227t-97 -229.5t-232.5 -84.5t-232.5 84.5z" />
    <glyph glyph-name="guillemotright" unicode="&#xbb;" horiz-adv-x="1187" 
d="M57 223l236 338l-236 338l267 170l358 -508l-358 -508zM528 223l236 338l-236 338l267 170l358 -508l-358 -508z" />
    <glyph glyph-name="onequarter" unicode="&#xbc;" horiz-adv-x="2048" 
d="M588 27l708 1486l203 -92l-708 -1476zM715 1450v-913h-309v589l-154 -106l-146 225l324 205h285zM1583 401v232h-4l-154 -232h158zM1858 0h-279v162h-440v250l346 501h373v-512h122v-239h-122v-162z" />
    <glyph glyph-name="onehalf" unicode="&#xbd;" horiz-adv-x="2048" 
d="M588 27l708 1486l203 -92l-708 -1476zM1669 604q0 66 -65 66q-37 0 -61.5 -29t-29.5 -80l-292 33q15 166 131.5 255t270.5 89t264 -73t110 -219t-72 -207.5t-106 -86.5l-136 -94h316v-258h-742v240l373 301q39 34 39 63zM715 1450v-913h-309v589l-154 -106l-146 225
l324 205h285z" />
    <glyph glyph-name="threequarters" unicode="&#xbe;" horiz-adv-x="2048" 
d="M588 27l708 1486l203 -92l-708 -1476zM426 1110q104 0 104 60t-71 59q-29 0 -56.5 -21.5t-33.5 -60.5l-275 63q36 135 147.5 200t247.5 65t241.5 -65.5t105.5 -202.5t-121 -191q68 -23 102.5 -79t34.5 -130t-33 -130t-85 -93t-117.5 -53.5t-171 -16.5t-220 69t-149.5 212
l278 67q8 -35 36 -63.5t69 -28.5q86 0 86 61q0 41 -35 54.5t-94 13.5h-86v211h96zM1583 401v232h-4l-154 -232h158zM1858 0h-279v162h-440v250l346 501h373v-512h122v-239h-122v-162z" />
    <glyph glyph-name="questiondown" unicode="&#xbf;" horiz-adv-x="1202" 
d="M485 57q0 -77 86 -77q68 0 96.5 48t28.5 111l441 -57q-22 -249 -185.5 -368.5t-387.5 -119.5t-389 104t-165 327q0 191 104 271.5t156 112.5t67 56t15 51v53h436v-75q0 -157 -78.5 -224t-121.5 -98l-35 -25q-68 -47 -68 -90zM569.5 1118q53.5 0 99.5 -19.5t80.5 -52
t54 -78.5t19.5 -97.5t-19.5 -96.5t-54 -78.5t-80.5 -53t-99.5 -19.5t-99.5 19.5t-81 53t-54.5 78.5t-19.5 96.5t19.5 97.5t54.5 78.5t81 52t99.5 19.5z" />
    <glyph glyph-name="Agrave" unicode="&#xc0;" horiz-adv-x="1589" 
d="M362 1860h435l227 -295h-346zM791 944l-119 -358h235zM539 1450h518l565 -1450h-530l-76 213h-461l-72 -213h-516z" />
    <glyph glyph-name="Aacute" unicode="&#xc1;" horiz-adv-x="1589" 
d="M569 1565l228 295h434l-316 -295h-346zM791 944l-119 -358h235zM539 1450h518l565 -1450h-530l-76 213h-461l-72 -213h-516z" />
    <glyph glyph-name="Acircumflex" unicode="&#xc2;" horiz-adv-x="1589" 
d="M797 1704l-138 -139h-311l281 295h346l274 -295h-315zM791 944l-119 -358h235zM539 1450h518l565 -1450h-530l-76 213h-461l-72 -213h-516z" />
    <glyph glyph-name="Atilde" unicode="&#xc3;" horiz-adv-x="1589" 
d="M655 1651q-61 0 -75 -74h-164q6 117 65.5 197.5t165.5 80.5q74 0 146 -37q71 -37 98 -47t59.5 -10t48 20.5t23.5 61.5h162q-13 -197 -96.5 -240.5t-149.5 -43.5t-135 37q-68 37 -92.5 46t-55.5 9zM791 944l-119 -358h235zM539 1450h518l565 -1450h-530l-76 213h-461
l-72 -213h-516z" />
    <glyph glyph-name="Adieresis" unicode="&#xc4;" horiz-adv-x="1589" 
d="M750 1757q0 -82 -59.5 -141.5t-144.5 -59.5t-145.5 57.5t-60.5 142.5t62 144.5t145 59.5q82 0 142.5 -60.5t60.5 -142.5zM1260 1757q0 -83 -60.5 -142t-144.5 -59t-144.5 57.5t-60.5 142.5t62 144.5t144 59.5t143 -60t61 -143zM791 944l-119 -358h235zM539 1450h518
l565 -1450h-530l-76 213h-461l-72 -213h-516z" />
    <glyph glyph-name="Aring" unicode="&#xc5;" horiz-adv-x="1589" 
d="M920 1755q0 51 -36 86t-87.5 35t-87 -35t-35.5 -86t35.5 -86t87 -35t87.5 35t36 86zM1032 1755q0 -49 -19.5 -92t-51 -75t-74.5 -49t-90 -17t-90 17t-76 49t-51.5 75t-18.5 92t18.5 92t51.5 75t76 49.5t90 17.5t90 -17.5t74.5 -49.5t51 -75t19.5 -92zM791 944l-119 -358
h235zM539 1450h518l565 -1450h-530l-76 213h-461l-72 -213h-516z" />
    <glyph glyph-name="AE" unicode="&#xc6;" horiz-adv-x="2076" 
d="M1008 586v458h-9l-208 -458h217zM1008 213h-363l-100 -213h-545l725 1450h1249v-406h-518v-124h486v-379h-486v-135h553v-406h-1001v213z" />
    <glyph glyph-name="Ccedilla" unicode="&#xc7;" horiz-adv-x="1425" 
d="M1126 930q-84 108 -224 108q-141 0 -224.5 -85.5t-83.5 -224.5t84.5 -225.5t208.5 -86.5q84 0 144.5 34.5t94.5 81.5l299 -358q-176 -176 -467 -209l-67 -74q42 8 142 -12.5t100 -159.5q0 -113 -104 -162t-246 -49q-141 0 -259 48l70 159q70 -32 163 -32t93 43
q0 36 -62 36t-98 -12l-90 70l127 149q-286 41 -471.5 247t-185.5 509q0 174 61.5 315.5t168 241.5t250.5 154.5t310 54.5t315.5 -54.5t249.5 -146.5z" />
    <glyph glyph-name="Egrave" unicode="&#xc8;" horiz-adv-x="1234" 
d="M221 1860h434l228 -295h-346zM135 1450h998v-406h-539v-124h506v-379h-506v-135h573v-406h-1032v1450z" />
    <glyph glyph-name="Eacute" unicode="&#xc9;" horiz-adv-x="1234" 
d="M393 1565l228 295h434l-316 -295h-346zM135 1450h998v-406h-539v-124h506v-379h-506v-135h573v-406h-1032v1450z" />
    <glyph glyph-name="Ecircumflex" unicode="&#xca;" horiz-adv-x="1234" 
d="M637 1704l-137 -139h-312l281 295h346l275 -295h-316zM135 1450h998v-406h-539v-124h506v-379h-506v-135h573v-406h-1032v1450z" />
    <glyph glyph-name="Edieresis" unicode="&#xcb;" horiz-adv-x="1234" 
d="M588 1757q0 -82 -59.5 -141.5t-144.5 -59.5t-145.5 57.5t-60.5 142.5t62 144.5t145 59.5q82 0 142.5 -60.5t60.5 -142.5zM1098 1757q0 -82 -59.5 -141.5t-144.5 -59.5t-145.5 57.5t-60.5 142.5t62 144.5t145 59.5q82 0 142.5 -60.5t60.5 -142.5zM135 1450h998v-406h-539
v-124h506v-379h-506v-135h573v-406h-1032v1450z" />
    <glyph glyph-name="Igrave" unicode="&#xcc;" horiz-adv-x="761" 
d="M-37 1860h434l228 -295h-346zM135 1450h492v-1450h-492v1450z" />
    <glyph glyph-name="Iacute" unicode="&#xcd;" horiz-adv-x="761" 
d="M135 1565l227 295h435l-316 -295h-346zM135 1450h492v-1450h-492v1450z" />
    <glyph glyph-name="Icircumflex" unicode="&#xce;" horiz-adv-x="761" 
d="M383 1704l-137 -139h-312l281 295h346l275 -295h-316zM135 1450h492v-1450h-492v1450z" />
    <glyph glyph-name="Idieresis" unicode="&#xcf;" horiz-adv-x="761" 
d="M336 1757q0 -82 -59.5 -141.5t-144.5 -59.5t-145.5 57.5t-60.5 142.5t62 144.5t145 59.5q82 0 142.5 -60.5t60.5 -142.5zM846 1757q0 -82 -59.5 -141.5t-144.5 -59.5t-145.5 57.5t-60.5 142.5t62 144.5t145 59.5q82 0 142.5 -60.5t60.5 -142.5zM135 1450h492v-1450h-492
v1450z" />
    <glyph glyph-name="Eth" unicode="&#xd0;" horiz-adv-x="1613" 
d="M694 418q357 0 357 304q0 156 -92.5 235t-245.5 79h-109v-159h262v-291h-262v-168h90zM25 586v291h110v573h541q604 0 736 -254t132 -454q0 -372 -238.5 -557t-588.5 -185h-582v586h-110z" />
    <glyph glyph-name="Ntilde" unicode="&#xd1;" horiz-adv-x="1619" 
d="M674 1651q-62 0 -76 -74h-164q6 117 65.5 197.5t166.5 80.5q74 0 146 -37q71 -37 97.5 -47t59 -10t48 20.5t23.5 61.5h162q-13 -199 -96.5 -241.5t-149.5 -42.5t-134 37t-92.5 46t-55.5 9zM135 1450h486l413 -735h8l-20 735h463v-1450h-498l-401 692h-8l20 -692h-463
v1450z" />
    <glyph glyph-name="Ograve" unicode="&#xd2;" horiz-adv-x="1751" 
d="M440 1860h434l228 -295h-346zM588 732q0 -71 21.5 -130t59.5 -102t91 -66.5t145 -23.5t174 90t82 233q0 214 -112.5 262.5t-174 48.5t-114.5 -22.5t-91 -62t-59.5 -98t-21.5 -129.5zM70 733q0 174 61.5 314.5t169 238.5t254.5 151.5t319.5 53.5t319.5 -53.5t256 -151.5
t170 -238.5t61 -314.5t-61 -317.5t-170 -244.5t-256 -156.5t-319.5 -55.5t-319.5 55.5t-254.5 156.5t-169 244.5t-61.5 317.5z" />
    <glyph glyph-name="Oacute" unicode="&#xd3;" horiz-adv-x="1751" 
d="M653 1565l228 295h434l-316 -295h-346zM588 732q0 -71 21.5 -130t59.5 -102t91 -66.5t145 -23.5t174 90t82 233q0 214 -112.5 262.5t-174 48.5t-114.5 -22.5t-91 -62t-59.5 -98t-21.5 -129.5zM70 733q0 174 61.5 314.5t169 238.5t254.5 151.5t319.5 53.5t319.5 -53.5
t256 -151.5t170 -238.5t61 -314.5t-61 -317.5t-170 -244.5t-256 -156.5t-319.5 -55.5t-319.5 55.5t-254.5 156.5t-169 244.5t-61.5 317.5z" />
    <glyph glyph-name="Ocircumflex" unicode="&#xd4;" horiz-adv-x="1751" 
d="M872 1704l-137 -139h-311l281 295h346l274 -295h-315zM588 732q0 -71 21.5 -130t59.5 -102t91 -66.5t145 -23.5t174 90t82 233q0 214 -112.5 262.5t-174 48.5t-114.5 -22.5t-91 -62t-59.5 -98t-21.5 -129.5zM70 733q0 174 61.5 314.5t169 238.5t254.5 151.5t319.5 53.5
t319.5 -53.5t256 -151.5t170 -238.5t61 -314.5t-61 -317.5t-170 -244.5t-256 -156.5t-319.5 -55.5t-319.5 55.5t-254.5 156.5t-169 244.5t-61.5 317.5z" />
    <glyph glyph-name="Otilde" unicode="&#xd5;" horiz-adv-x="1751" 
d="M731 1651q-59 0 -76 -74h-163q6 117 65 197.5t166 80.5q74 0 146 -37q71 -37 97.5 -47t59.5 -10t48.5 20.5t23.5 61.5h162q-13 -198 -97 -241t-150 -43t-134 37t-92.5 46t-55.5 9zM588 732q0 -71 21.5 -130t59.5 -102t91 -66.5t145 -23.5t174 90t82 233
q0 214 -112.5 262.5t-174 48.5t-114.5 -22.5t-91 -62t-59.5 -98t-21.5 -129.5zM70 733q0 174 61.5 314.5t169 238.5t254.5 151.5t319.5 53.5t319.5 -53.5t256 -151.5t170 -238.5t61 -314.5t-61 -317.5t-170 -244.5t-256 -156.5t-319.5 -55.5t-319.5 55.5t-254.5 156.5
t-169 244.5t-61.5 317.5z" />
    <glyph glyph-name="Odieresis" unicode="&#xd6;" horiz-adv-x="1751" 
d="M825 1757q0 -84 -60 -142.5t-144 -58.5t-144.5 57.5t-60.5 142.5t62 144.5t144 59.5t142.5 -59.5t60.5 -143.5zM1335 1757q0 -84 -60 -142.5t-144 -58.5t-144.5 57.5t-60.5 142.5t62.5 144.5t143.5 59.5t142 -59.5t61 -143.5zM588 732q0 -71 21.5 -130t59.5 -102
t91 -66.5t145 -23.5t174 90t82 233q0 214 -112.5 262.5t-174 48.5t-114.5 -22.5t-91 -62t-59.5 -98t-21.5 -129.5zM70 733q0 174 61.5 314.5t169 238.5t254.5 151.5t319.5 53.5t319.5 -53.5t256 -151.5t170 -238.5t61 -314.5t-61 -317.5t-170 -244.5t-256 -156.5
t-319.5 -55.5t-319.5 55.5t-254.5 156.5t-169 244.5t-61.5 317.5z" />
    <glyph glyph-name="multiply" unicode="&#xd7;" horiz-adv-x="1363" 
d="M98 950l238 228l350 -334l340 332l229 -213l-342 -338l355 -336l-234 -230l-350 338l-350 -338l-230 215l347 344z" />
    <glyph glyph-name="Oslash" unicode="&#xd8;" horiz-adv-x="1751" 
d="M1184 731q0 78 -21 129l-411 -450q44 -19 120 -19q150 0 231 99t81 241zM870 1069q-145 0 -227 -99t-82 -243q0 -82 19 -127l411 451q-47 18 -121 18zM877 1491q242 0 430 -109l184 209l192 -166l-182 -196q180 -199 180 -496q0 -174 -61 -317.5t-230 -300t-516 -156.5
q-279 0 -438 123l-190 -207l-193 164l189 205q-172 197 -172 489q0 174 61.5 314.5t169 238.5t256 151.5t320.5 53.5z" />
    <glyph glyph-name="Ugrave" unicode="&#xd9;" horiz-adv-x="1587" 
d="M358 1860h435l227 -295h-346zM115 569v881h487v-827q0 -104 50 -163t142.5 -59t142.5 58.5t50 163.5v827h486v-881q0 -267 -180 -438.5t-506 -171.5t-499 169t-173 441z" />
    <glyph glyph-name="Uacute" unicode="&#xda;" horiz-adv-x="1587" 
d="M573 1565l228 295h434l-315 -295h-347zM115 569v881h487v-827q0 -104 50 -163t142.5 -59t142.5 58.5t50 163.5v827h486v-881q0 -267 -180 -438.5t-506 -171.5t-499 169t-173 441z" />
    <glyph glyph-name="Ucircumflex" unicode="&#xdb;" horiz-adv-x="1587" 
d="M795 1704l-138 -139h-311l281 295h346l274 -295h-315zM115 569v881h487v-827q0 -104 50 -163t142.5 -59t142.5 58.5t50 163.5v827h486v-881q0 -267 -180 -438.5t-506 -171.5t-499 169t-173 441z" />
    <glyph glyph-name="Udieresis" unicode="&#xdc;" horiz-adv-x="1587" 
d="M748 1757q0 -83 -60.5 -142t-144.5 -59t-144.5 57.5t-60.5 142.5t62 144.5t144 59.5t143 -60t61 -143zM1257 1757q0 -84 -60 -142.5t-144 -58.5t-144.5 57.5t-60.5 142.5t62 144.5t144 59.5t142.5 -59.5t60.5 -143.5zM115 569v881h487v-827q0 -104 50 -163t142.5 -59
t142.5 58.5t50 163.5v827h486v-881q0 -267 -180 -438.5t-506 -171.5t-499 169t-173 441z" />
    <glyph glyph-name="Yacute" unicode="&#xdd;" horiz-adv-x="1511" 
d="M586 1565l227 295h434l-315 -295h-346zM985 0h-487v594l-547 856h588l229 -426l219 426h574l-576 -856v-594z" />
    <glyph glyph-name="Thorn" unicode="&#xde;" horiz-adv-x="1400" 
d="M870 752q0 112 -147 112h-102v-233h102q55 0 101 27.5t46 93.5zM621 260v-260h-486v1450h486v-207h137q402 0 498 -173t96 -311q0 -255 -170.5 -377t-423.5 -122h-137z" />
    <glyph glyph-name="germandbls" unicode="&#xdf;" horiz-adv-x="1488" 
d="M946 479q0 166 -215 166h-69v346h67q55 0 96 30t41 85t-35.5 81.5t-89.5 26.5q-86 0 -122.5 -56t-36.5 -134v-1024h-473v1010q0 266 164.5 414.5t488.5 148.5q241 0 411 -107t170 -315q0 -127 -60 -202.5t-142 -108.5q121 -31 200.5 -126.5t79.5 -238.5
q0 -259 -152.5 -383.5t-402.5 -124.5q-93 0 -221 29v346q59 -20 127 -20t121 35.5t53 121.5z" />
    <glyph glyph-name="agrave" unicode="&#xe0;" horiz-adv-x="1210" 
d="M176 1491h434l228 -295h-346zM680 684q0 96 -119 96t-231 -92l-236 234q98 94 234 145t284 51q283 0 397.5 -149t114.5 -402v-567h-428v86h-4q-41 -61 -116.5 -88t-143.5 -27q-153 0 -266 86t-113 260q0 202 181 282.5t446 80.5v4zM684 446q-104 0 -167.5 -22.5
t-63.5 -83.5t46 -72.5t62 -11.5q68 0 109 43t41 111v36h-27z" />
    <glyph glyph-name="aacute" unicode="&#xe1;" horiz-adv-x="1210" 
d="M391 1196l227 295h435l-316 -295h-346zM680 684q0 96 -119 96t-231 -92l-236 234q98 94 234 145t284 51q283 0 397.5 -149t114.5 -402v-567h-428v86h-4q-41 -61 -116.5 -88t-143.5 -27q-153 0 -266 86t-113 260q0 202 181 282.5t446 80.5v4zM684 446q-104 0 -167.5 -22.5
t-63.5 -83.5t46 -72.5t62 -11.5q68 0 109 43t41 111v36h-27z" />
    <glyph glyph-name="acircumflex" unicode="&#xe2;" horiz-adv-x="1210" 
d="M614 1335l-137 -139h-311l280 295h347l274 -295h-315zM680 684q0 96 -119 96t-231 -92l-236 234q98 94 234 145t284 51q283 0 397.5 -149t114.5 -402v-567h-428v86h-4q-41 -61 -116.5 -88t-143.5 -27q-153 0 -266 86t-113 260q0 202 181 282.5t446 80.5v4zM684 446
q-104 0 -167.5 -22.5t-63.5 -83.5t46 -72.5t62 -11.5q68 0 109 43t41 111v36h-27z" />
    <glyph glyph-name="atilde" unicode="&#xe3;" horiz-adv-x="1210" 
d="M473 1282q-62 0 -76 -74h-164q6 117 65.5 198t166.5 81q70 0 143 -37q74 -37 100.5 -47t59.5 -10t48 20.5t24 61.5h161q-13 -200 -96.5 -242.5t-149.5 -42.5t-134 37t-92.5 46t-55.5 9zM680 684q0 96 -119 96t-231 -92l-236 234q98 94 234 145t284 51q283 0 397.5 -149
t114.5 -402v-567h-428v86h-4q-41 -61 -116.5 -88t-143.5 -27q-153 0 -266 86t-113 260q0 202 181 282.5t446 80.5v4zM684 446q-104 0 -167.5 -22.5t-63.5 -83.5t46 -72.5t62 -11.5q68 0 109 43t41 111v36h-27z" />
    <glyph glyph-name="adieresis" unicode="&#xe4;" horiz-adv-x="1210" 
d="M507 1531q60 -60 60 -143t-60 -141.5t-144 -58.5t-144.5 57.5t-60.5 142.5t61.5 144t144.5 59t143 -60zM873 1188q-85 0 -145 57.5t-60 142.5t61.5 144t144.5 59t143 -61t60 -142t-59.5 -140.5t-144.5 -59.5zM680 684q0 96 -119 96t-231 -92l-236 234q98 94 234 145
t284 51q283 0 397.5 -149t114.5 -402v-567h-428v86h-4q-41 -61 -116.5 -88t-143.5 -27q-153 0 -266 86t-113 260q0 202 181 282.5t446 80.5v4zM684 446q-104 0 -167.5 -22.5t-63.5 -83.5t46 -72.5t62 -11.5q68 0 109 43t41 111v36h-27z" />
    <glyph glyph-name="aring" unicode="&#xe5;" horiz-adv-x="1210" 
d="M739 1386.5q0 51.5 -35.5 86t-87 34.5t-87 -34.5t-35.5 -86t35.5 -86t87 -34.5t87 34.5t35.5 86zM852 1386.5q0 -49.5 -19.5 -92.5t-51 -74.5t-74.5 -49t-90.5 -17.5t-90.5 17.5t-75.5 49t-51 74.5t-18.5 92.5t18.5 92.5t51 74.5t75.5 49t90.5 17.5t90.5 -17.5t74.5 -49
t51 -74.5t19.5 -92.5zM680 684q0 96 -119 96t-231 -92l-236 234q98 94 234 145t284 51q283 0 397.5 -149t114.5 -402v-567h-428v86h-4q-41 -61 -116.5 -88t-143.5 -27q-153 0 -266 86t-113 260q0 202 181 282.5t446 80.5v4zM684 446q-104 0 -167.5 -22.5t-63.5 -83.5
t46 -72.5t62 -11.5q68 0 109 43t41 111v36h-27z" />
    <glyph glyph-name="ae" unicode="&#xe6;" horiz-adv-x="1875" 
d="M1411 682q0 57 -42 94t-117 37t-117.5 -43t-49.5 -88h326zM682 442q-223 0 -223 -91q1 -91 121 -91q50 0 88.5 41t38.5 107v34h-25zM930 993q134 125 336 125q112 0 216.5 -44t220.5 -166t116 -380q0 -64 -4 -100h-725q4 -54 60 -88.5t124 -34.5q116 0 176 76l336 -170
q-72 -117 -208 -184.5t-310 -67.5t-262 64.5t-119 103.5q-119 -156 -418 -156q-164 0 -290 85.5t-126 260.5q0 202 181 282.5t446 80.5v4q0 96 -122 96t-228 -92l-236 234q98 94 233.5 145t278.5 51q224 0 324 -125z" />
    <glyph glyph-name="ccedilla" unicode="&#xe7;" horiz-adv-x="1077" 
d="M815.5 -121.5q99.5 -20.5 99.5 -169.5q0 -104 -103.5 -152.5t-245.5 -48.5q-141 0 -259 48l70 159q70 -32 163 -32t93 43q1 36 -61 36t-99 -12l-90 70l135 160q-207 47 -329.5 195t-122.5 364q0 262 180.5 420.5t453.5 158.5q164 0 262.5 -46t129.5 -71l-236 -339
q-51 59 -141 59q-118 0 -151.5 -68.5t-33.5 -133.5t55.5 -112t138.5 -47t134 58l238 -332q-61 -49 -155.5 -84t-201.5 -41l-65 -70q42 8 141.5 -12.5z" />
    <glyph glyph-name="egrave" unicode="&#xe8;" horiz-adv-x="1290" 
d="M233 1491h435l227 -295h-346zM708 -41q-283 0 -462.5 153t-179.5 421t172.5 426.5t425.5 158.5t411 -166t158 -424q0 -64 -4 -100h-725q4 -53 59.5 -88t124.5 -35q118 0 176 76l336 -170q-72 -117 -208 -184.5t-284 -67.5zM825 682q0 57 -42.5 94t-116.5 37t-117 -43
t-49 -88h325z" />
    <glyph glyph-name="eacute" unicode="&#xe9;" horiz-adv-x="1290" 
d="M449 1196l227 295h434l-315 -295h-346zM708 -41q-283 0 -462.5 153t-179.5 421t172.5 426.5t425.5 158.5t411 -166t158 -424q0 -64 -4 -100h-725q4 -53 59.5 -88t124.5 -35q118 0 176 76l336 -170q-72 -117 -208 -184.5t-284 -67.5zM825 682q0 57 -42.5 94t-116.5 37
t-117 -43t-49 -88h325z" />
    <glyph glyph-name="ecircumflex" unicode="&#xea;" horiz-adv-x="1290" 
d="M680 1335l-137 -139h-312l281 295h346l275 -295h-316zM708 -41q-283 0 -462.5 153t-179.5 421t172.5 426.5t425.5 158.5t411 -166t158 -424q0 -64 -4 -100h-725q4 -53 59.5 -88t124.5 -35q118 0 176 76l336 -170q-72 -117 -208 -184.5t-284 -67.5zM825 682q0 57 -42.5 94
t-116.5 37t-117 -43t-49 -88h325z" />
    <glyph glyph-name="edieresis" unicode="&#xeb;" horiz-adv-x="1290" 
d="M423 1188q-85 0 -145.5 57.5t-60.5 141.5t61.5 144t145.5 60t143.5 -61t59.5 -142t-59.5 -140.5t-144.5 -59.5zM933 1188q-85 0 -145.5 57.5t-60.5 141.5t61.5 144t145.5 60t143.5 -61t59.5 -142t-59.5 -140.5t-144.5 -59.5zM708 -41q-283 0 -462.5 153t-179.5 421
t172.5 426.5t425.5 158.5t411 -166t158 -424q0 -64 -4 -100h-725q4 -53 59.5 -88t124.5 -35q118 0 176 76l336 -170q-72 -117 -208 -184.5t-284 -67.5zM825 682q0 57 -42.5 94t-116.5 37t-117 -43t-49 -88h325z" />
    <glyph glyph-name="igrave" unicode="&#xec;" horiz-adv-x="694" 
d="M-82 1491h434l228 -295h-347zM111 1077h473v-1077h-473v1077z" />
    <glyph glyph-name="iacute" unicode="&#xed;" horiz-adv-x="694" 
d="M127 1196l227 295h434l-315 -295h-346zM111 1077h473v-1077h-473v1077z" />
    <glyph glyph-name="icircumflex" unicode="&#xee;" horiz-adv-x="694" 
d="M352 1335l-137 -139h-311l280 295h346l275 -295h-316zM111 1077h473v-1077h-473v1077z" />
    <glyph glyph-name="idieresis" unicode="&#xef;" horiz-adv-x="694" 
d="M99 1188q-85 0 -145 57.5t-60 142.5t61.5 144t144.5 59t143 -61t60 -142t-59.5 -140.5t-144.5 -59.5zM465 1531q62 60 145 60t143 -61t60 -142t-59.5 -140.5t-144.5 -59.5t-145.5 57.5t-60.5 141.5t62 144zM111 1077h473v-1077h-473v1077z" />
    <glyph glyph-name="eth" unicode="&#xf0;" horiz-adv-x="1359" 
d="M989 1325q305 -325 305 -689q0 -194 -50 -315.5t-176 -241.5t-386 -120t-438 158t-178 421t162 410.5t413 147.5q29 0 74 -9l4 3q-32 32 -113 100l-219 -88l-225 182l219 88q-32 28 -143 101l360 192q63 -43 174 -139l229 92l248 -193zM678 721q-78 0 -126 -53.5
t-48 -127.5t49 -127t127 -53t127 53.5t49 127.5t-50 127t-128 53z" />
    <glyph glyph-name="ntilde" unicode="&#xf1;" horiz-adv-x="1363" 
d="M535 1282q-62 0 -76 -74h-164q6 117 65.5 198t165.5 81q70 0 143 -37q74 -37 101 -47t59.5 -10t48 20.5t23.5 61.5h162q-13 -200 -96.5 -242.5t-149.5 -42.5t-134 37t-93 46t-55 9zM109 1077h460v-119h4q41 59 122 103.5t190 44.5q202 0 291.5 -131t89.5 -320v-655h-475
v573q0 82 -26 115t-75 33t-78.5 -38t-29.5 -110v-573h-473v1077z" />
    <glyph glyph-name="ograve" unicode="&#xf2;" horiz-adv-x="1359" 
d="M242 1491h434l227 -295h-346zM678 721q-78 0 -126 -53.5t-48 -127.5t49 -127t127 -53t127 53.5t49 127.5t-50 127t-128 53zM1114.5 116.5q-179.5 -157.5 -436.5 -157.5t-434.5 158t-177.5 424t177.5 421.5t434.5 155.5q258 0 437 -154.5t179 -422.5q0 -267 -179.5 -424.5
z" />
    <glyph glyph-name="oacute" unicode="&#xf3;" horiz-adv-x="1359" 
d="M459 1196l227 295h434l-315 -295h-346zM678 721q-78 0 -126 -53.5t-48 -127.5t49 -127t127 -53t127 53.5t49 127.5t-50 127t-128 53zM1114.5 116.5q-179.5 -157.5 -436.5 -157.5t-434.5 158t-177.5 424t177.5 421.5t434.5 155.5q258 0 437 -154.5t179 -422.5
q0 -267 -179.5 -424.5z" />
    <glyph glyph-name="ocircumflex" unicode="&#xf4;" horiz-adv-x="1359" 
d="M680 1335l-137 -139h-312l281 295h346l275 -295h-316zM678 721q-78 0 -126 -53.5t-48 -127.5t49 -127t127 -53t127 53.5t49 127.5t-50 127t-128 53zM1114.5 116.5q-179.5 -157.5 -436.5 -157.5t-434.5 158t-177.5 424t177.5 421.5t434.5 155.5q258 0 437 -154.5
t179 -422.5q0 -267 -179.5 -424.5z" />
    <glyph glyph-name="otilde" unicode="&#xf5;" horiz-adv-x="1359" 
d="M539 1282q-62 0 -76 -74h-164q6 117 65.5 198t165.5 81q70 0 143 -37q74 -37 101 -47t59.5 -10t48 20.5t23.5 61.5h162q-13 -200 -96.5 -242.5t-149.5 -42.5t-134 37t-93 46t-55 9zM678 721q-78 0 -126 -53.5t-48 -127.5t49 -127t127 -53t127 53.5t49 127.5t-50 127
t-128 53zM1114.5 116.5q-179.5 -157.5 -436.5 -157.5t-434.5 158t-177.5 424t177.5 421.5t434.5 155.5q258 0 437 -154.5t179 -422.5q0 -267 -179.5 -424.5z" />
    <glyph glyph-name="odieresis" unicode="&#xf6;" horiz-adv-x="1359" 
d="M427 1188q-85 0 -145.5 57.5t-60.5 141.5t61.5 144t145.5 60t143.5 -61t59.5 -142t-59.5 -140.5t-144.5 -59.5zM937 1188q-85 0 -145.5 57.5t-60.5 141.5t61.5 144t145.5 60t143.5 -61t59.5 -142t-59.5 -140.5t-144.5 -59.5zM678 721q-78 0 -126 -53.5t-48 -127.5
t49 -127t127 -53t127 53.5t49 127.5t-50 127t-128 53zM1114.5 116.5q-179.5 -157.5 -436.5 -157.5t-434.5 158t-177.5 424t177.5 421.5t434.5 155.5q258 0 437 -154.5t179 -422.5q0 -267 -179.5 -424.5z" />
    <glyph glyph-name="divide" unicode="&#xf7;" horiz-adv-x="1363" 
d="M162 471v301h1040v-301h-1040zM481 227q0 39 16.5 74t44 60.5t64.5 41t78 15.5t77 -15.5t63.5 -41t43 -60.5t15.5 -74t-15.5 -74.5t-43 -62.5t-63.5 -42t-77 -15t-78 15t-64.5 42t-44 62.5t-16.5 74.5zM824 1148.5q59 -55.5 59 -136.5q0 -80 -58.5 -136.5t-140.5 -56.5
t-142.5 56.5t-60.5 135.5q0 80 60 136.5t142 56.5t141 -55.5z" />
    <glyph glyph-name="oslash" unicode="&#xf8;" horiz-adv-x="1359" 
d="M664 750q-84 0 -132.5 -52.5t-48.5 -132.5q0 -25 4 -41l220 221q-12 5 -43 5zM684 348q84 0 132 51.5t48 130.5q0 27 -6 43l-219 -219q12 -6 45 -6zM1294 543q0 -258 -177.5 -421t-438.5 -163q-189 0 -318 88l-163 -164l-177 172l156 154q-110 127 -110 332
q0 263 177 420t435 157q194 0 323 -88l150 146l178 -172l-141 -140q106 -118 106 -321z" />
    <glyph glyph-name="ugrave" unicode="&#xf9;" horiz-adv-x="1357" 
d="M223 1491h434l228 -295h-346zM1249 0h-461v119h-4q-41 -59 -121.5 -103.5t-190.5 -44.5q-202 0 -291 130t-89 321v655h475v-569q0 -82 25.5 -115t75.5 -33t79 38t29 110v569h473v-1077z" />
    <glyph glyph-name="uacute" unicode="&#xfa;" horiz-adv-x="1357" 
d="M475 1196l227 295h435l-316 -295h-346zM1249 0h-461v119h-4q-41 -59 -121.5 -103.5t-190.5 -44.5q-202 0 -291 130t-89 321v655h475v-569q0 -82 25.5 -115t75.5 -33t79 38t29 110v569h473v-1077z" />
    <glyph glyph-name="ucircumflex" unicode="&#xfb;" horiz-adv-x="1357" 
d="M670 1335l-138 -139h-311l281 295h346l274 -295h-315zM1249 0h-461v119h-4q-41 -59 -121.5 -103.5t-190.5 -44.5q-202 0 -291 130t-89 321v655h475v-569q0 -82 25.5 -115t75.5 -33t79 38t29 110v569h473v-1077z" />
    <glyph glyph-name="udieresis" unicode="&#xfc;" horiz-adv-x="1357" 
d="M419 1188q-85 0 -145.5 57.5t-60.5 141.5t61.5 144t145.5 60t143.5 -61t59.5 -142t-59.5 -140.5t-144.5 -59.5zM928 1188q-84 0 -144.5 57.5t-60.5 141.5t61.5 144t144.5 60t143.5 -60.5t60.5 -142.5t-60.5 -141t-144.5 -59zM1249 0h-461v119h-4q-41 -59 -121.5 -103.5
t-190.5 -44.5q-202 0 -291 130t-89 321v655h475v-569q0 -82 25.5 -115t75.5 -33t79 38t29 110v569h473v-1077z" />
    <glyph glyph-name="yacute" unicode="&#xfd;" horiz-adv-x="1306" 
d="M487 1196l228 295h434l-315 -295h-347zM244 -94q74 0 111.5 31.5t56.5 80.5l8 23l-436 1036h524l160 -567h8l141 567h506l-442 -1143q-82 -211 -210 -318.5t-356 -107.5q-82 0 -164.5 13.5t-103.5 19.5l59 389q64 -24 138 -24z" />
    <glyph glyph-name="thorn" unicode="&#xfe;" horiz-adv-x="1421" 
d="M918 540q0 75 -45.5 128t-130.5 53t-135 -53.5t-50 -127.5t50 -127t135 -53t130.5 52.5t45.5 127.5zM886 1106q100 0 191.5 -49t185 -170.5t93.5 -346.5t-131.5 -397t-358.5 -172q-80 0 -157.5 30t-126.5 83h-4v-576h-469v2040h469v-555h4q105 113 304 113z" />
    <glyph glyph-name="ydieresis" unicode="&#xff;" horiz-adv-x="1306" 
d="M416 1188q-84 0 -144.5 57.5t-60.5 141.5t61.5 144t144.5 60t143.5 -60.5t60.5 -142.5t-60.5 -141t-144.5 -59zM1070 1531q60 -60 60 -143t-60 -141.5t-144 -58.5t-144.5 57.5t-60.5 141.5t61.5 144t144.5 60t143 -60zM244 -94q74 0 111.5 31.5t56.5 80.5l8 23l-436 1036
h524l160 -567h8l141 567h506l-442 -1143q-82 -211 -210 -318.5t-356 -107.5q-82 0 -164.5 13.5t-103.5 19.5l59 389q64 -24 138 -24z" />
    <glyph glyph-name="Amacron" unicode="&#x100;" horiz-adv-x="1589" 
d="M422 1817h737v-197h-737v197zM791 944l-119 -358h235zM539 1450h518l565 -1450h-530l-76 213h-461l-72 -213h-516z" />
    <glyph glyph-name="amacron" unicode="&#x101;" horiz-adv-x="1210" 
d="M252 1448h737v-197h-737v197zM680 684q0 96 -119 96t-231 -92l-236 234q98 94 234 145t284 51q283 0 397.5 -149t114.5 -402v-567h-428v86h-4q-41 -61 -116.5 -88t-143.5 -27q-153 0 -266 86t-113 260q0 202 181 282.5t446 80.5v4zM684 446q-104 0 -167.5 -22.5
t-63.5 -83.5t46 -72.5t62 -11.5q68 0 109 43t41 111v36h-27z" />
    <glyph glyph-name="Abreve" unicode="&#x102;" horiz-adv-x="1589" 
d="M1157 1860q-21 -295 -314 -295t-355 104.5t-68 190.5h225q6 -80 143.5 -80t143.5 80h225zM791 944l-119 -358h235zM539 1450h518l565 -1450h-530l-76 213h-461l-72 -213h-516z" />
    <glyph glyph-name="abreve" unicode="&#x103;" horiz-adv-x="1210" 
d="M993 1491q-21 -295 -314 -295t-355 104.5t-68 190.5h225q6 -80 143.5 -80t143.5 80h225zM680 684q0 96 -119 96t-231 -92l-236 234q98 94 234 145t284 51q283 0 397.5 -149t114.5 -402v-567h-428v86h-4q-41 -61 -116.5 -88t-143.5 -27q-153 0 -266 86t-113 260
q0 202 181 282.5t446 80.5v4zM684 446q-104 0 -167.5 -22.5t-63.5 -83.5t46 -72.5t62 -11.5q68 0 109 43t41 111v36h-27z" />
    <glyph glyph-name="Aogonek" unicode="&#x104;" horiz-adv-x="1589" 
d="M791 944l-119 -358h235zM848 -303q0 91 64 158.5t180 144.5l-76 213h-461l-72 -213h-516l572 1450h518l565 -1450h-250q-131 -92 -181 -143t-50 -89t50 -38t112 37l90 -170q-137 -89 -297 -89t-204 68t-44 121z" />
    <glyph glyph-name="aogonek" unicode="&#x105;" horiz-adv-x="1210" 
d="M684 446q-104 0 -167.5 -22.5t-63.5 -83.5t46 -72.5t62 -11.5q68 0 109 43t41 111v36h-27zM995 -403q-137 -89 -297 -89t-203.5 68t-43.5 121q0 91 63 158.5t180 144.5h2v86h-4q-41 -61 -116.5 -88t-143.5 -27q-153 0 -266 86t-113 260q0 202 181 282.5t446 80.5v4
q0 96 -119 96t-231 -92l-236 234q98 94 234 145t284 51q283 0 397.5 -149t114.5 -402v-567h-149q-131 -92 -181.5 -143t-50.5 -89q1 -38 51 -38t111 37z" />
    <glyph glyph-name="Cacute" unicode="&#x106;" horiz-adv-x="1425" 
d="M645 1565l227 295h435l-316 -295h-346zM1126 930q-84 108 -224 108q-141 0 -224.5 -85.5t-83.5 -224.5t84.5 -225.5t208.5 -86.5q84 0 144.5 34.5t94.5 81.5l299 -358q-98 -98 -241.5 -156.5t-316.5 -58.5q-344 0 -570.5 215t-226.5 551q0 174 61.5 315.5t168 241.5
t250.5 154.5t310 54.5t315.5 -54.5t249.5 -146.5z" />
    <glyph glyph-name="cacute" unicode="&#x107;" horiz-adv-x="1077" 
d="M475 1196l227 295h435l-316 -295h-346zM685 -41q-266 0 -442.5 159.5t-176.5 420.5t180.5 420t453.5 159q164 0 262.5 -46t129.5 -71l-236 -339q-51 59 -141 59q-118 0 -151.5 -68.5t-33.5 -133.5t55.5 -112t138.5 -47t134 58l238 -332q-68 -53 -175.5 -90t-235.5 -37z
" />
    <glyph glyph-name="Ccircumflex" unicode="&#x108;" horiz-adv-x="1425" 
d="M885 1704l-137 -139h-312l281 295h346l274 -295h-315zM1126 930q-84 108 -224 108q-141 0 -224.5 -85.5t-83.5 -224.5t84.5 -225.5t208.5 -86.5q84 0 144.5 34.5t94.5 81.5l299 -358q-98 -98 -241.5 -156.5t-316.5 -58.5q-344 0 -570.5 215t-226.5 551q0 174 61.5 315.5
t168 241.5t250.5 154.5t310 54.5t315.5 -54.5t249.5 -146.5z" />
    <glyph glyph-name="ccircumflex" unicode="&#x109;" horiz-adv-x="1077" 
d="M694 1335l-137 -139h-311l280 295h346l275 -295h-316zM685 -41q-266 0 -442.5 159.5t-176.5 420.5t180.5 420t453.5 159q164 0 262.5 -46t129.5 -71l-236 -339q-51 59 -141 59q-118 0 -151.5 -68.5t-33.5 -133.5t55.5 -112t138.5 -47t134 58l238 -332q-68 -53 -175.5 -90
t-235.5 -37z" />
    <glyph glyph-name="Cdotaccent" unicode="&#x10a;" horiz-adv-x="1425" 
d="M651 1757q0 90 67 153.5t155 63.5t153.5 -64t65.5 -153t-64.5 -152t-154.5 -63t-156 62.5t-66 152.5zM1126 930q-84 108 -224 108q-141 0 -224.5 -85.5t-83.5 -224.5t84.5 -225.5t208.5 -86.5q84 0 144.5 34.5t94.5 81.5l299 -358q-98 -98 -241.5 -156.5t-316.5 -58.5
q-344 0 -570.5 215t-226.5 551q0 174 61.5 315.5t168 241.5t250.5 154.5t310 54.5t315.5 -54.5t249.5 -146.5z" />
    <glyph glyph-name="cdotaccent" unicode="&#x10b;" horiz-adv-x="1077" 
d="M475 1388.5q0 88.5 66 153t155 64.5q90 0 154.5 -64.5t64.5 -153t-63 -151.5t-156 -63t-157 63t-64 151.5zM685 -41q-266 0 -442.5 159.5t-176.5 420.5t180.5 420t453.5 159q164 0 262.5 -46t129.5 -71l-236 -339q-51 59 -141 59q-118 0 -151.5 -68.5t-33.5 -133.5
t55.5 -112t138.5 -47t134 58l238 -332q-68 -53 -175.5 -90t-235.5 -37z" />
    <glyph glyph-name="Ccaron" unicode="&#x10c;" horiz-adv-x="1425" 
d="M1339 1860l-274 -295h-346l-281 295h312l137 -140l137 140h315zM1126 930q-84 108 -224 108q-141 0 -224.5 -85.5t-83.5 -224.5t84.5 -225.5t208.5 -86.5q84 0 144.5 34.5t94.5 81.5l299 -358q-98 -98 -241.5 -156.5t-316.5 -58.5q-344 0 -570.5 215t-226.5 551
q0 174 61.5 315.5t168 241.5t250.5 154.5t310 54.5t315.5 -54.5t249.5 -146.5z" />
    <glyph glyph-name="ccaron" unicode="&#x10d;" horiz-adv-x="1077" 
d="M1147 1491l-275 -295h-346l-280 295h311l137 -139l137 139h316zM685 -41q-266 0 -442.5 159.5t-176.5 420.5t180.5 420t453.5 159q164 0 262.5 -46t129.5 -71l-236 -339q-51 59 -141 59q-118 0 -151.5 -68.5t-33.5 -133.5t55.5 -112t138.5 -47t134 58l238 -332
q-68 -53 -175.5 -90t-235.5 -37z" />
    <glyph glyph-name="Dcaron" unicode="&#x10e;" horiz-adv-x="1613" 
d="M1190 1860l-275 -295h-346l-280 295h311l137 -140l137 140h316zM694 418q357 0 357 304q0 156 -92.5 235t-245.5 79h-109v-618h90zM135 0v1450h541q604 0 736 -254t132 -454q0 -372 -238.5 -557t-588.5 -185h-582z" />
    <glyph glyph-name="dcaron" unicode="&#x10f;" horiz-adv-x="1421" 
d="M1862 1450l-179 -363h-335l127 363h387zM504 540q0 -75 45 -127.5t130 -52.5t135 53.5t50 127.5t-50 127t-135 53t-130 -53t-45 -128zM196.5 936q130.5 170 360.5 170q78 0 156 -29.5t125 -85.5h4v557h471v-1548h-424v113h-4q-47 -66 -138 -104t-201 -38t-202 49.5
t-185 171t-93 348.5q0 226 130.5 396z" />
    <glyph glyph-name="Dcroat" unicode="&#x110;" horiz-adv-x="1613" 
d="M694 418q357 0 357 304q0 156 -92.5 235t-245.5 79h-109v-159h262v-291h-262v-168h90zM25 586v291h110v573h541q604 0 736 -254t132 -454q0 -372 -238.5 -557t-588.5 -185h-582v586h-110z" />
    <glyph glyph-name="dcroat" unicode="&#x111;" horiz-adv-x="1421" 
d="M504 540q0 -75 45 -127.5t130 -52.5t135 53.5t50 127.5t-50 127t-135 53t-130 -53t-45 -128zM600 1393h242v155h471v-155h67v-226h-67v-1167h-424v113h-4q-47 -66 -138 -104t-201 -38t-202 49.5t-185 171t-93 348.5q0 226 130.5 396t360.5 170q78 0 156 -29.5t125 -85.5
h4v176h-242v226z" />
    <glyph glyph-name="Emacron" unicode="&#x112;" horiz-adv-x="1234" 
d="M258 1817h737v-197h-737v197zM135 1450h998v-406h-539v-124h506v-379h-506v-135h573v-406h-1032v1450z" />
    <glyph glyph-name="emacron" unicode="&#x113;" horiz-adv-x="1290" 
d="M311 1448h738v-197h-738v197zM708 -41q-283 0 -462.5 153t-179.5 421t172.5 426.5t425.5 158.5t411 -166t158 -424q0 -64 -4 -100h-725q4 -53 59.5 -88t124.5 -35q118 0 176 76l336 -170q-72 -117 -208 -184.5t-284 -67.5zM825 682q0 57 -42.5 94t-116.5 37t-117 -43
t-49 -88h325z" />
    <glyph glyph-name="Ebreve" unicode="&#x114;" horiz-adv-x="1234" 
d="M1010 1860q-21 -295 -315 -295t-355 104.5t-68 190.5h226q6 -80 143 -80t143 80h226zM135 1450h998v-406h-539v-124h506v-379h-506v-135h573v-406h-1032v1450z" />
    <glyph glyph-name="ebreve" unicode="&#x115;" horiz-adv-x="1290" 
d="M1044 1491q-21 -295 -314 -295t-355 104.5t-68 190.5h225q6 -80 143.5 -80t143.5 80h225zM708 -41q-283 0 -462.5 153t-179.5 421t172.5 426.5t425.5 158.5t411 -166t158 -424q0 -64 -4 -100h-725q4 -53 59.5 -88t124.5 -35q118 0 176 76l336 -170q-72 -117 -208 -184.5
t-284 -67.5zM825 682q0 57 -42.5 94t-116.5 37t-117 -43t-49 -88h325z" />
    <glyph glyph-name="Edotaccent" unicode="&#x116;" horiz-adv-x="1234" 
d="M424 1757q0 89 66 153t156 64q89 0 153.5 -64.5t64.5 -152.5t-63.5 -151.5t-154.5 -63.5t-156.5 63t-65.5 152zM135 1450h998v-406h-539v-124h506v-379h-506v-135h573v-406h-1032v1450z" />
    <glyph glyph-name="edotaccent" unicode="&#x117;" horiz-adv-x="1290" 
d="M455 1388.5q0 89.5 66 153.5t156 64t154 -65.5t64 -152t-62.5 -150.5t-155.5 -64t-157.5 62.5t-64.5 152zM708 -41q-283 0 -462.5 153t-179.5 421t172.5 426.5t425.5 158.5t411 -166t158 -424q0 -64 -4 -100h-725q4 -53 59.5 -88t124.5 -35q118 0 176 76l336 -170
q-72 -117 -208 -184.5t-284 -67.5zM825 682q0 57 -42.5 94t-116.5 37t-117 -43t-49 -88h325z" />
    <glyph glyph-name="Eogonek" unicode="&#x118;" horiz-adv-x="1234" 
d="M598 -303q0 91 64 158.5t180 144.5h-707v1450h998v-406h-539v-124h506v-379h-506v-135h573v-406h-45q-131 -92 -181 -143t-50 -89t50 -38t112 37l90 -170q-137 -89 -297 -89t-204 68t-44 121z" />
    <glyph glyph-name="eogonek" unicode="&#x119;" horiz-adv-x="1290" 
d="M825 682q0 57 -42.5 94t-116.5 37t-117 -43t-49 -88h325zM365 -306q0 149 194 275q-208 29 -350.5 179t-142.5 401t172.5 410t425.5 159t411 -166t158 -424q0 -64 -4 -100h-725q4 -53 59.5 -88t124.5 -35q118 0 176 76l336 -170q-109 -177 -340 -229
q-162 -116 -182.5 -154.5t-20.5 -56.5q1 -41 51 -41t111 37l90 -170q-137 -89 -297 -89t-203.5 68t-43.5 118z" />
    <glyph glyph-name="Ecaron" unicode="&#x11a;" horiz-adv-x="1234" 
d="M1092 1860l-275 -295h-346l-281 295h312l137 -140l137 140h316zM135 1450h998v-406h-539v-124h506v-379h-506v-135h573v-406h-1032v1450z" />
    <glyph glyph-name="ecaron" unicode="&#x11b;" horiz-adv-x="1290" 
d="M1128 1491l-274 -295h-346l-281 295h312l137 -139l137 139h315zM708 -41q-283 0 -462.5 153t-179.5 421t172.5 426.5t425.5 158.5t411 -166t158 -424q0 -64 -4 -100h-725q4 -53 59.5 -88t124.5 -35q118 0 176 76l336 -170q-72 -117 -208 -184.5t-284 -67.5zM825 682
q0 57 -42.5 94t-116.5 37t-117 -43t-49 -88h325z" />
    <glyph glyph-name="Gcircumflex" unicode="&#x11c;" horiz-adv-x="1560" 
d="M881 1704l-138 -139h-311l281 295h346l274 -295h-315zM905 383q77 0 115 20v111h-234v383h666v-793q-152 -93 -325 -117t-255 -24q-348 0 -513.5 152.5t-227 294t-61.5 315.5t61.5 315.5t226 296t498.5 154.5q170 0 322.5 -55.5t248.5 -151.5l-284 -342q-99 117 -258 117
q-126 0 -219 -95t-93 -243t79 -243t253 -95z" />
    <glyph glyph-name="gcircumflex" unicode="&#x11d;" horiz-adv-x="1427" 
d="M737 1335l-137 -139h-311l280 295h346l275 -295h-316zM504 540q0 -75 45 -127.5t130 -52.5t135 53.5t50 127.5t-50 127t-135 53t-130 -53t-45 -128zM272 -20q152 -115 325 -115t215 76.5t42 126.5v47h-6q-39 -45 -115.5 -80t-188.5 -35t-204 44t-183 155t-91 339
t130.5 398t360.5 170q86 0 169 -33t136 -104h6v108h445v-966q0 -327 -191.5 -465t-480.5 -138q-154 0 -307.5 40t-267.5 118z" />
    <glyph glyph-name="Gbreve" unicode="&#x11e;" horiz-adv-x="1560" 
d="M1231 1860q-21 -295 -315 -295t-355 104.5t-67 190.5h225q6 -80 143.5 -80t143.5 80h225zM905 383q77 0 115 20v111h-234v383h666v-793q-152 -93 -325 -117t-255 -24q-348 0 -513.5 152.5t-227 294t-61.5 315.5t61.5 315.5t226 296t498.5 154.5q170 0 322.5 -55.5
t248.5 -151.5l-284 -342q-99 117 -258 117q-126 0 -219 -95t-93 -243t79 -243t253 -95z" />
    <glyph glyph-name="gbreve" unicode="&#x11f;" horiz-adv-x="1427" 
d="M1092 1491q-21 -295 -314.5 -295t-355.5 104.5t-68 190.5h226q6 -80 143 -80t143 80h226zM504 540q0 -75 45 -127.5t130 -52.5t135 53.5t50 127.5t-50 127t-135 53t-130 -53t-45 -128zM272 -20q152 -115 325 -115t215 76.5t42 126.5v47h-6q-39 -45 -115.5 -80t-188.5 -35
t-204 44t-183 155t-91 339t130.5 398t360.5 170q86 0 169 -33t136 -104h6v108h445v-966q0 -327 -191.5 -465t-480.5 -138q-154 0 -307.5 40t-267.5 118z" />
    <glyph glyph-name="Gdotaccent" unicode="&#x120;" horiz-adv-x="1560" 
d="M633 1757q0 89 66 153t156 64q89 0 153.5 -64.5t64.5 -152.5t-63.5 -151.5t-154.5 -63.5t-156.5 63t-65.5 152zM905 383q77 0 115 20v111h-234v383h666v-793q-152 -93 -325 -117t-255 -24q-348 0 -513.5 152.5t-227 294t-61.5 315.5t61.5 315.5t226 296t498.5 154.5
q170 0 322.5 -55.5t248.5 -151.5l-284 -342q-99 117 -258 117q-126 0 -219 -95t-93 -243t79 -243t253 -95z" />
    <glyph glyph-name="gdotaccent" unicode="&#x121;" horiz-adv-x="1427" 
d="M514 1388.5q0 88.5 66 153t155 64.5q90 0 154.5 -64.5t64.5 -153t-63 -151.5t-156 -63t-157 63t-64 151.5zM504 540q0 -75 45 -127.5t130 -52.5t135 53.5t50 127.5t-50 127t-135 53t-130 -53t-45 -128zM272 -20q152 -115 325 -115t215 76.5t42 126.5v47h-6
q-39 -45 -115.5 -80t-188.5 -35t-204 44t-183 155t-91 339t130.5 398t360.5 170q86 0 169 -33t136 -104h6v108h445v-966q0 -327 -191.5 -465t-480.5 -138q-154 0 -307.5 40t-267.5 118z" />
    <glyph glyph-name="Gcommaaccent" unicode="&#x122;" horiz-adv-x="1560" 
d="M1077 -92l-190 -400h-336l139 400h387zM905 383q77 0 115 20v111h-234v383h666v-793q-152 -93 -325 -117t-255 -24q-348 0 -513.5 152.5t-227 294t-61.5 315.5t61.5 315.5t226 296t498.5 154.5q170 0 322.5 -55.5t248.5 -151.5l-284 -342q-99 117 -258 117
q-126 0 -219 -95t-93 -243t79 -243t253 -95z" />
    <glyph glyph-name="gcommaaccent" unicode="&#x123;" horiz-adv-x="1427" 
d="M483 1196l191 399h336l-140 -399h-387zM504 540q0 -75 45 -127.5t130 -52.5t135 53.5t50 127.5t-50 127t-135 53t-130 -53t-45 -128zM272 -20q152 -115 325 -115t215 76.5t42 126.5v47h-6q-39 -45 -115.5 -80t-188.5 -35t-204 44t-183 155t-91 339t130.5 398t360.5 170
q86 0 169 -33t136 -104h6v108h445v-966q0 -327 -191.5 -465t-480.5 -138q-154 0 -307.5 40t-267.5 118z" />
    <glyph glyph-name="Hcircumflex" unicode="&#x124;" horiz-adv-x="1642" 
d="M821 1704l-137 -139h-311l280 295h346l275 -295h-316zM1020 551h-397v-551h-488v1450h486v-492h397v492h489v-1450h-487v551z" />
    <glyph glyph-name="hcircumflex" unicode="&#x125;" horiz-adv-x="1363" 
d="M686 1769l-137 -139h-311l280 295h346l275 -295h-316zM791 573q0 148 -98 148q-46 0 -78.5 -36t-32.5 -114v-571h-473v1548h473v-590h4q41 59 116.5 103.5t183.5 44.5q201 0 290.5 -131t89.5 -320v-655h-475v573z" />
    <glyph glyph-name="Hbar" unicode="&#x126;" horiz-adv-x="1642" 
d="M1018 958v107h-397v-107h397zM1020 551h-397v-551h-488v1450h486v-160h397v160h489v-1450h-487v551z" />
    <glyph glyph-name="hbar" unicode="&#x127;" horiz-adv-x="1363" 
d="M791 573q0 148 -98 148q-46 0 -78.5 -36t-32.5 -114v-571h-473v1167h-68v226h68v155h473v-155h239v-226h-239v-209h4q41 59 116.5 103.5t183.5 44.5q201 0 290.5 -131t89.5 -320v-655h-475v573z" />
    <glyph glyph-name="Itilde" unicode="&#x128;" horiz-adv-x="761" 
d="M238 1651q-62 0 -76 -74h-164q6 117 65.5 197.5t165.5 80.5q74 0 146 -37q71 -37 98 -47t59.5 -10t48 20.5t23.5 61.5h162q-13 -199 -96.5 -241.5t-149.5 -42.5t-134 37t-93 46t-55 9zM135 1450h492v-1450h-492v1450z" />
    <glyph glyph-name="itilde" unicode="&#x129;" horiz-adv-x="694" 
d="M205 1282q-62 0 -76 -74h-164q6 117 65.5 198t166.5 81q70 0 143 -37q74 -37 100.5 -47t59 -10t48 20.5t23.5 61.5h162q-13 -200 -96.5 -242.5t-149.5 -42.5t-134 37t-92.5 46t-55.5 9zM111 1077h473v-1077h-473v1077z" />
    <glyph glyph-name="Imacron" unicode="&#x12a;" horiz-adv-x="761" 
d="M12 1817h738v-197h-738v197zM135 1450h492v-1450h-492v1450z" />
    <glyph glyph-name="imacron" unicode="&#x12b;" horiz-adv-x="694" 
d="M-18 1448h737v-197h-737v197zM111 1077h473v-1077h-473v1077z" />
    <glyph glyph-name="Iogonek" unicode="&#x12e;" horiz-adv-x="761" 
d="M66 -303q0 91 63 158.5t180 144.5h-174v1450h492v-1450h-37q-131 -92 -181.5 -143t-50.5 -89t50 -38t112 37l90 -170q-137 -89 -297 -89t-203.5 68t-43.5 121z" />
    <glyph glyph-name="iogonek" unicode="&#x12f;" horiz-adv-x="694" 
d="M176 1559.5q74 70.5 171 70.5t171 -70.5t74 -172.5t-73.5 -170t-171.5 -68t-171.5 68t-73.5 170t74 172.5zM41 -303q0 91 64 158.5t180 144.5h-174v1077h473v-1077h-19q-131 -92 -181 -143t-50 -89t50 -38t112 37l90 -170q-137 -89 -297 -89t-204 68t-44 121z" />
    <glyph glyph-name="Idotaccent" unicode="&#x130;" horiz-adv-x="761" 
d="M160 1757q0 89 66 153t156 64q89 0 153.5 -64.5t64.5 -152.5t-63.5 -151.5t-154.5 -63.5t-156.5 63t-65.5 152zM135 1450h492v-1450h-492v1450z" />
    <glyph glyph-name="dotlessi" unicode="&#x131;" horiz-adv-x="694" 
d="M111 1077h473v-1077h-473v1077z" />
    <glyph glyph-name="IJ" unicode="&#x132;" horiz-adv-x="1921" 
d="M1135 487q20 -84 94 -84t74 113v934h489v-913q0 -244 -81 -357.5t-185.5 -167t-236.5 -53.5q-227 0 -379.5 107.5t-192.5 261.5zM135 1450h492v-1450h-492v1450z" />
    <glyph glyph-name="ij" unicode="&#x133;" horiz-adv-x="1382" 
d="M1207 1559q73 -71 73 -172t-72.5 -169.5t-171.5 -68.5t-172 67.5t-73 170.5t73.5 173t171.5 70t171 -71zM1272 25q0 -517 -486 -517q-111 0 -196 25l24 385q38 -10 84 -10q101 0 101 131v1038h473v-1052zM176 1559.5q74 70.5 171 70.5t171 -70.5t74 -172.5t-73.5 -170
t-171.5 -68t-171.5 68t-73.5 170t74 172.5zM111 1077h473v-1077h-473v1077z" />
    <glyph glyph-name="Jcircumflex" unicode="&#x134;" horiz-adv-x="1173" 
d="M799 1704l-137 -139h-312l281 295h346l274 -295h-315zM387 487q20 -84 94 -84t74 113v934h489v-913q0 -243 -80.5 -357t-185 -167.5t-236.5 -53.5q-228 0 -379.5 106.5t-193.5 262.5z" />
    <glyph glyph-name="jcircumflex" unicode="&#x135;" horiz-adv-x="708" 
d="M367 1335l-138 -139h-311l281 295h346l274 -295h-315zM598 25q0 -517 -485 -517q-112 0 -197 25l25 385q38 -10 83 -10q101 0 101 131v1038h473v-1052z" />
    <glyph glyph-name="Kcommaaccent" unicode="&#x136;" horiz-adv-x="1562" 
d="M1036 -92l-190 -400h-336l139 400h387zM610 578v-578h-475v1450h473v-535h4l387 535h574l-545 -664l571 -786h-598l-387 578h-4z" />
    <glyph glyph-name="kcommaaccent" unicode="&#x137;" horiz-adv-x="1380" 
d="M928 -92l-191 -400h-336l140 400h387zM582 469v-469h-473v1548h473v-882h6l256 411h549l-349 -485l347 -592h-551l-252 469h-6z" />
    <glyph glyph-name="Lacute" unicode="&#x139;" horiz-adv-x="1124" 
d="M201 1565l227 295h434l-315 -295h-346zM135 1450h492v-1032h481v-418h-973v1450z" />
    <glyph glyph-name="lacute" unicode="&#x13a;" horiz-adv-x="700" 
d="M109 1622l227 295h434l-315 -295h-346zM109 1548h483v-1548h-483v1548z" />
    <glyph glyph-name="Lcommaaccent" unicode="&#x13b;" horiz-adv-x="1124" 
d="M838 -92l-191 -400h-336l140 400h387zM135 1450h492v-1032h481v-418h-973v1450z" />
    <glyph glyph-name="lcommaaccent" unicode="&#x13c;" horiz-adv-x="700" 
d="M567 -94l-190 -400h-336l139 400h387zM109 1548h483v-1548h-483v1548z" />
    <glyph glyph-name="Lcaron" unicode="&#x13d;" horiz-adv-x="1124" 
d="M1198 1450l-178 -363h-336l127 363h387zM135 1450h492v-1032h481v-418h-973v1450z" />
    <glyph glyph-name="lcaron" unicode="&#x13e;" horiz-adv-x="700" 
d="M1141 1450l-178 -363h-336l127 363h387zM109 1548h483v-1548h-483v1548z" />
    <glyph glyph-name="Ldot" unicode="&#x13f;" horiz-adv-x="1124" 
d="M787 948q66 64 156 64q89 0 153.5 -64.5t64.5 -152t-62.5 -151.5t-155.5 -64t-157.5 63t-64.5 152t66 153zM135 1450h492v-1032h481v-418h-973v1450z" />
    <glyph glyph-name="ldot" unicode="&#x140;" horiz-adv-x="1073" 
d="M732.5 949q66.5 63 155.5 63t153.5 -64.5t64.5 -152t-62.5 -151.5t-155.5 -64t-157.5 62.5t-64.5 153t66.5 153.5zM109 1548h483v-1548h-483v1548z" />
    <glyph glyph-name="Lslash" unicode="&#x141;" horiz-adv-x="1124" 
d="M135 1450h492v-418l348 299v-387l-348 -297v-229h481v-418h-973v291l-112 -98v389l112 98v770z" />
    <glyph glyph-name="lslash" unicode="&#x142;" horiz-adv-x="700" 
d="M592 0h-483v453l-84 -78v397l84 80v696h483v-325l84 77v-397l-84 -80v-823z" />
    <glyph glyph-name="Nacute" unicode="&#x143;" horiz-adv-x="1619" 
d="M590 1565l227 295h434l-315 -295h-346zM135 1450h486l413 -735h8l-20 735h463v-1450h-498l-401 692h-8l20 -692h-463v1450z" />
    <glyph glyph-name="nacute" unicode="&#x144;" horiz-adv-x="1363" 
d="M457 1196l227 295h434l-315 -295h-346zM109 1077h460v-119h4q41 59 122 103.5t190 44.5q202 0 291.5 -131t89.5 -320v-655h-475v573q0 82 -26 115t-75 33t-78.5 -38t-29.5 -110v-573h-473v1077z" />
    <glyph glyph-name="Ncommaaccent" unicode="&#x145;" horiz-adv-x="1619" 
d="M1032 -92l-190 -400h-336l139 400h387zM135 1450h486l413 -735h8l-20 735h463v-1450h-498l-401 692h-8l20 -692h-463v1450z" />
    <glyph glyph-name="ncommaaccent" unicode="&#x146;" horiz-adv-x="1363" 
d="M895 -92l-190 -400h-336l139 400h387zM109 1077h460v-119h4q41 59 122 103.5t190 44.5q202 0 291.5 -131t89.5 -320v-655h-475v573q0 82 -26 115t-75 33t-78.5 -38t-29.5 -110v-573h-473v1077z" />
    <glyph glyph-name="Ncaron" unicode="&#x147;" horiz-adv-x="1619" 
d="M1266 1860l-275 -295h-346l-280 295h311l137 -140l137 140h316zM135 1450h486l413 -735h8l-20 735h463v-1450h-498l-401 692h-8l20 -692h-463v1450z" />
    <glyph glyph-name="ncaron" unicode="&#x148;" horiz-adv-x="1363" 
d="M1135 1491l-275 -295h-346l-281 295h312l137 -139l137 139h316zM109 1077h460v-119h4q41 59 122 103.5t190 44.5q202 0 291.5 -131t89.5 -320v-655h-475v573q0 82 -26 115t-75 33t-78.5 -38t-29.5 -110v-573h-473v1077z" />
    <glyph glyph-name="napostrophe" unicode="&#x149;" horiz-adv-x="1701" 
d="M508 1450l-178 -363h-336l127 363h387zM446 1077h461v-119h4q41 59 122 103.5t190 44.5q202 0 291.5 -131t89.5 -320v-655h-476v573q0 82 -25.5 115t-74.5 33t-78.5 -38t-29.5 -110v-573h-474v1077z" />
    <glyph glyph-name="Omacron" unicode="&#x14c;" horiz-adv-x="1751" 
d="M508 1817h737v-197h-737v197zM588 732q0 -71 21.5 -130t59.5 -102t91 -66.5t145 -23.5t174 90t82 233q0 214 -112.5 262.5t-174 48.5t-114.5 -22.5t-91 -62t-59.5 -98t-21.5 -129.5zM70 733q0 174 61.5 314.5t169 238.5t254.5 151.5t319.5 53.5t319.5 -53.5t256 -151.5
t170 -238.5t61 -314.5t-61 -317.5t-170 -244.5t-256 -156.5t-319.5 -55.5t-319.5 55.5t-254.5 156.5t-169 244.5t-61.5 317.5z" />
    <glyph glyph-name="omacron" unicode="&#x14d;" horiz-adv-x="1359" 
d="M313 1448h738v-197h-738v197zM678 721q-78 0 -126 -53.5t-48 -127.5t49 -127t127 -53t127 53.5t49 127.5t-50 127t-128 53zM1114.5 116.5q-179.5 -157.5 -436.5 -157.5t-434.5 158t-177.5 424t177.5 421.5t434.5 155.5q258 0 437 -154.5t179 -422.5q0 -267 -179.5 -424.5
z" />
    <glyph glyph-name="Obreve" unicode="&#x14e;" horiz-adv-x="1751" 
d="M1243 1860q-21 -295 -314 -295t-355 104.5t-68 190.5h225q6 -80 143.5 -80t143.5 80h225zM588 732q0 -71 21.5 -130t59.5 -102t91 -66.5t145 -23.5t174 90t82 233q0 214 -112.5 262.5t-174 48.5t-114.5 -22.5t-91 -62t-59.5 -98t-21.5 -129.5zM70 733q0 174 61.5 314.5
t169 238.5t254.5 151.5t319.5 53.5t319.5 -53.5t256 -151.5t170 -238.5t61 -314.5t-61 -317.5t-170 -244.5t-256 -156.5t-319.5 -55.5t-319.5 55.5t-254.5 156.5t-169 244.5t-61.5 317.5z" />
    <glyph glyph-name="obreve" unicode="&#x14f;" horiz-adv-x="1359" 
d="M1051 1491q-21 -295 -314.5 -295t-355.5 104.5t-68 190.5h226q6 -80 143 -80t143 80h226zM678 721q-78 0 -126 -53.5t-48 -127.5t49 -127t127 -53t127 53.5t49 127.5t-50 127t-128 53zM1114.5 116.5q-179.5 -157.5 -436.5 -157.5t-434.5 158t-177.5 424t177.5 421.5
t434.5 155.5q258 0 437 -154.5t179 -422.5q0 -267 -179.5 -424.5z" />
    <glyph glyph-name="Ohungarumlaut" unicode="&#x150;" horiz-adv-x="1751" 
d="M961 1565l227 295h434l-315 -295h-346zM463 1565l227 295h434l-315 -295h-346zM588 732q0 -71 21.5 -130t59.5 -102t91 -66.5t145 -23.5t174 90t82 233q0 214 -112.5 262.5t-174 48.5t-114.5 -22.5t-91 -62t-59.5 -98t-21.5 -129.5zM70 733q0 174 61.5 314.5t169 238.5
t254.5 151.5t319.5 53.5t319.5 -53.5t256 -151.5t170 -238.5t61 -314.5t-61 -317.5t-170 -244.5t-256 -156.5t-319.5 -55.5t-319.5 55.5t-254.5 156.5t-169 244.5t-61.5 317.5z" />
    <glyph glyph-name="ohungarumlaut" unicode="&#x151;" horiz-adv-x="1359" 
d="M748 1196l227 295h434l-315 -295h-346zM250 1196l227 295h434l-315 -295h-346zM678 721q-78 0 -126 -53.5t-48 -127.5t49 -127t127 -53t127 53.5t49 127.5t-50 127t-128 53zM1114.5 116.5q-179.5 -157.5 -436.5 -157.5t-434.5 158t-177.5 424t177.5 421.5t434.5 155.5
q258 0 437 -154.5t179 -422.5q0 -267 -179.5 -424.5z" />
    <glyph glyph-name="OE" unicode="&#x152;" horiz-adv-x="2062" 
d="M997 406v638h-69q-160 0 -252 -80.5t-92 -235.5t91 -238.5t234 -83.5h88zM1960 1450v-406h-518v-124h487v-379h-487v-135h553v-406h-1069q-596 0 -726 260t-130 460q0 372 242.5 551t613.5 179h1034z" />
    <glyph glyph-name="oe" unicode="&#x153;" horiz-adv-x="2037" 
d="M1573 682q0 57 -42 94t-117 37t-118 -43t-49 -88h326zM678 721q-78 0 -126 -53.5t-48 -127.5t49 -127t127 -53t127 53.5t49 127.5t-50 127t-128 53zM1047 106q-123 -147 -374 -147t-429 158t-178 424t177.5 421.5t434.5 155.5q127 0 221 -47t148 -113q59 66 155 113
t219 47q248 0 403.5 -167t155.5 -423q0 -64 -4 -100h-725q4 -53 59.5 -88t125.5 -35q116 0 176 76l336 -170q-72 -117 -207 -184.5t-287 -67.5t-253 44t-154 103z" />
    <glyph glyph-name="Racute" unicode="&#x154;" horiz-adv-x="1462" 
d="M473 1565l227 295h435l-316 -295h-346zM602 838h96q112 0 141 41t29 95t-42.5 75.5t-106.5 21.5h-117v-233zM135 1450h625q397 0 491.5 -167t94.5 -302t-66 -236.5t-188 -156.5l368 -588h-561l-278 518h-15v-518h-471v1450z" />
    <glyph glyph-name="racute" unicode="&#x155;" horiz-adv-x="911" 
d="M221 1196l228 295h434l-316 -295h-346zM784 707q-92 0 -147 -53.5t-55 -131.5v-522h-473v1077h454v-123h4q35 66 103 109t142 43t110 -10l-37 -402q-50 13 -101 13z" />
    <glyph glyph-name="Rcommaaccent" unicode="&#x156;" horiz-adv-x="1462" 
d="M965 -92l-191 -400h-336l140 400h387zM602 838h96q112 0 141 41t29 95t-42.5 75.5t-106.5 21.5h-117v-233zM135 1450h625q397 0 491.5 -167t94.5 -302t-66 -236.5t-188 -156.5l368 -588h-561l-278 518h-15v-518h-471v1450z" />
    <glyph glyph-name="rcommaaccent" unicode="&#x157;" horiz-adv-x="911" 
d="M563 -94l-190 -400h-336l139 400h387zM784 707q-92 0 -147 -53.5t-55 -131.5v-522h-473v1077h454v-123h4q35 66 103 109t142 43t110 -10l-37 -402q-50 13 -101 13z" />
    <glyph glyph-name="Rcaron" unicode="&#x158;" horiz-adv-x="1462" 
d="M1147 1860l-275 -295h-346l-280 295h311l137 -140l137 140h316zM602 838h96q112 0 141 41t29 95t-42.5 75.5t-106.5 21.5h-117v-233zM135 1450h625q397 0 491.5 -167t94.5 -302t-66 -236.5t-188 -156.5l368 -588h-561l-278 518h-15v-518h-471v1450z" />
    <glyph glyph-name="rcaron" unicode="&#x159;" horiz-adv-x="911" 
d="M963 1491l-275 -295h-346l-281 295h312l137 -139l137 139h316zM784 707q-92 0 -147 -53.5t-55 -131.5v-522h-473v1077h454v-123h4q35 66 103 109t142 43t110 -10l-37 -402q-50 13 -101 13z" />
    <glyph glyph-name="Sacute" unicode="&#x15a;" horiz-adv-x="1263" 
d="M465 1565l227 295h434l-315 -295h-346zM694 1092q-119 0 -119 -66q0 -33 34 -49t111 -41t163 -57.5t205.5 -119t119.5 -282.5q0 -246 -179 -382t-428 -136t-397.5 85t-203.5 134l297 324q51 -55 136 -98.5t185 -43.5t99 68q0 36 -52 64.5t-165 64.5q-113 37 -263.5 113
t-150.5 323t180.5 372.5t427.5 125.5q143 0 292 -55.5t261 -159.5l-303 -309q-49 61 -120.5 93t-129.5 32z" />
    <glyph glyph-name="sacute" unicode="&#x15b;" horiz-adv-x="1050" 
d="M336 1196l227 295h434l-315 -295h-346zM601 784q-91 0 -91 -45q0 -20 25 -31.5t103 -26.5q154 -30 253.5 -111.5t99.5 -227.5q0 -199 -147.5 -291t-308.5 -92q-323 0 -527 154l232 268q49 -45 115.5 -72.5t130.5 -27.5t65 43q0 27 -38.5 42t-110.5 32q-324 76 -324 333
q0 192 149.5 289.5t323.5 97.5q259 0 469 -139l-221 -264q-107 69 -198 69z" />
    <glyph glyph-name="Scircumflex" unicode="&#x15c;" horiz-adv-x="1263" 
d="M690 1704l-137 -139h-311l280 295h346l275 -295h-316zM694 1092q-119 0 -119 -66q0 -33 34 -49t111 -41t163 -57.5t205.5 -119t119.5 -282.5q0 -246 -179 -382t-428 -136t-397.5 85t-203.5 134l297 324q51 -55 136 -98.5t185 -43.5t99 68q0 36 -52 64.5t-165 64.5
q-113 37 -263.5 113t-150.5 323t180.5 372.5t427.5 125.5q143 0 292 -55.5t261 -159.5l-303 -309q-49 61 -120.5 93t-129.5 32z" />
    <glyph glyph-name="scircumflex" unicode="&#x15d;" horiz-adv-x="1050" 
d="M580 1335l-138 -139h-311l281 295h346l274 -295h-315zM601 784q-91 0 -91 -45q0 -20 25 -31.5t103 -26.5q154 -30 253.5 -111.5t99.5 -227.5q0 -199 -147.5 -291t-308.5 -92q-323 0 -527 154l232 268q49 -45 115.5 -72.5t130.5 -27.5t65 43q0 27 -38.5 42t-110.5 32
q-324 76 -324 333q0 192 149.5 289.5t323.5 97.5q259 0 469 -139l-221 -264q-107 69 -198 69z" />
    <glyph glyph-name="Scedilla" unicode="&#x15e;" horiz-adv-x="1263" 
d="M694 1092q-119 0 -119 -66q0 -33 34 -49t111 -41t163 -57.5t205.5 -119t119.5 -292.5t-137.5 -335.5t-345.5 -162.5l-72 -78q42 8 142 -12t100 -160q0 -113 -104 -162t-247 -49t-257 48l69 159q70 -32 163 -32t93 43q0 36 -61 36t-98 -12l-91 70l125 147
q-292 37 -487 211l297 324q51 -55 136 -98.5t185 -43.5t99 68q0 36 -52 64.5t-165 64.5q-113 37 -263.5 113t-150.5 323t180.5 372.5t427.5 125.5q143 0 292 -55.5t261 -159.5l-303 -309q-49 61 -120.5 93t-129.5 32z" />
    <glyph glyph-name="scedilla" unicode="&#x15f;" horiz-adv-x="1050" 
d="M601 784q-91 0 -91 -45q0 -20 25 -31.5t103 -26.5q154 -30 253.5 -111.5t99.5 -234.5t-100 -242.5t-258 -121.5l-74 -80q42 8 142 -12.5t100 -159.5q0 -113 -104 -162t-247 -49t-257 48l69 159q70 -32 163 -32t93 43q0 36 -62 36t-98 -12l-90 70l125 147
q-238 30 -385 146l232 268q49 -45 115.5 -72.5t130.5 -27.5t65 43q0 27 -38.5 42t-110.5 32q-324 76 -324 333q0 192 149.5 289.5t323.5 97.5q259 0 469 -139l-221 -264q-107 69 -198 69z" />
    <glyph glyph-name="Scaron" unicode="&#x160;" horiz-adv-x="1263" 
d="M1143 1860l-275 -295h-346l-280 295h311l137 -140l137 140h316zM694 1092q-119 0 -119 -66q0 -33 34 -49t111 -41t163 -57.5t205.5 -119t119.5 -282.5q0 -246 -179 -382t-428 -136t-397.5 85t-203.5 134l297 324q51 -55 136 -98.5t185 -43.5t99 68q0 36 -52 64.5
t-165 64.5q-113 37 -263.5 113t-150.5 323t180.5 372.5t427.5 125.5q143 0 292 -55.5t261 -159.5l-303 -309q-49 61 -120.5 93t-129.5 32z" />
    <glyph glyph-name="scaron" unicode="&#x161;" horiz-adv-x="1050" 
d="M1016 1491l-275 -295h-346l-280 295h311l137 -139l137 139h316zM601 784q-91 0 -91 -45q0 -20 25 -31.5t103 -26.5q154 -30 253.5 -111.5t99.5 -227.5q0 -199 -147.5 -291t-308.5 -92q-323 0 -527 154l232 268q49 -45 115.5 -72.5t130.5 -27.5t65 43q0 27 -38.5 42
t-110.5 32q-324 76 -324 333q0 192 149.5 289.5t323.5 97.5q259 0 469 -139l-221 -264q-107 69 -198 69z" />
    <glyph glyph-name="Tcommaaccent" unicode="&#x162;" horiz-adv-x="1228" 
d="M834 -92l-191 -400h-336l139 400h388zM858 0h-487v1038h-357v412h1200v-412h-356v-1038z" />
    <glyph glyph-name="tcommaaccent" unicode="&#x163;" horiz-adv-x="862" 
d="M721 -92l-191 -400h-335l139 400h387zM608 453q0 -134 118 -134q50 0 95 13v-324q-86 -37 -243 -37q-217 0 -321.5 93.5t-104.5 289.5v385h-152v338h150v242h458v-242h234v-338h-234v-286z" />
    <glyph glyph-name="Tcaron" unicode="&#x164;" horiz-adv-x="1228" 
d="M1067 1860l-274 -295h-347l-280 295h311l137 -140l138 140h315zM858 0h-487v1038h-357v412h1200v-412h-356v-1038z" />
    <glyph glyph-name="tcaron" unicode="&#x165;" horiz-adv-x="862" 
d="M1161 1497l-178 -362h-336l127 362h387zM608 453q0 -134 118 -134q50 0 95 13v-324q-86 -37 -243 -37q-217 0 -321.5 93.5t-104.5 289.5v385h-152v338h150v242h458v-242h234v-338h-234v-286z" />
    <glyph glyph-name="Tbar" unicode="&#x166;" horiz-adv-x="1228" 
d="M156 883h215v155h-357v412h1200v-412h-356v-155h211v-226h-211v-657h-487v657h-215v226z" />
    <glyph glyph-name="tbar" unicode="&#x167;" horiz-adv-x="862" 
d="M578 -29q-217 0 -321.5 93.5t-104.5 289.5v74h-132v225h132v86h-152v338h150v242h458v-242h234v-338h-234v-86h168v-225h-168q6 -63 39 -86t81 -23t93 13v-324q-86 -37 -243 -37z" />
    <glyph glyph-name="Utilde" unicode="&#x168;" horiz-adv-x="1587" 
d="M653 1651q-61 0 -75 -74h-164q6 117 65.5 197.5t165.5 80.5q74 0 146 -37q71 -37 97.5 -47t59.5 -10t48.5 20.5t23.5 61.5h162q-13 -198 -97 -241t-150 -43t-134 37t-92.5 46t-55.5 9zM115 569v881h487v-827q0 -104 50 -163t142.5 -59t142.5 58.5t50 163.5v827h486v-881
q0 -267 -180 -438.5t-506 -171.5t-499 169t-173 441z" />
    <glyph glyph-name="utilde" unicode="&#x169;" horiz-adv-x="1357" 
d="M528 1282q-61 0 -75 -74h-164q6 117 65.5 198t165.5 81q70 0 143 -37q74 -37 101 -47t59.5 -10t48 20.5t23.5 61.5h162q-13 -200 -96.5 -242.5t-149.5 -42.5t-135 37q-68 37 -92.5 46t-55.5 9zM1249 0h-461v119h-4q-41 -59 -121.5 -103.5t-190.5 -44.5q-202 0 -291 130
t-89 321v655h475v-569q0 -82 25.5 -115t75.5 -33t79 38t29 110v569h473v-1077z" />
    <glyph glyph-name="Umacron" unicode="&#x16a;" horiz-adv-x="1587" 
d="M426 1817h737v-197h-737v197zM115 569v881h487v-827q0 -104 50 -163t142.5 -59t142.5 58.5t50 163.5v827h486v-881q0 -267 -180 -438.5t-506 -171.5t-499 169t-173 441z" />
    <glyph glyph-name="umacron" unicode="&#x16b;" horiz-adv-x="1357" 
d="M301 1448h737v-197h-737v197zM1249 0h-461v119h-4q-41 -59 -121.5 -103.5t-190.5 -44.5q-202 0 -291 130t-89 321v655h475v-569q0 -82 25.5 -115t75.5 -33t79 38t29 110v569h473v-1077z" />
    <glyph glyph-name="Ubreve" unicode="&#x16c;" horiz-adv-x="1587" 
d="M1163 1860q-21 -295 -314 -295t-355 104.5t-68 190.5h225q6 -80 143.5 -80t143.5 80h225zM115 569v881h487v-827q0 -104 50 -163t142.5 -59t142.5 58.5t50 163.5v827h486v-881q0 -267 -180 -438.5t-506 -171.5t-499 169t-173 441z" />
    <glyph glyph-name="ubreve" unicode="&#x16d;" horiz-adv-x="1357" 
d="M1038 1491q-21 -295 -314 -295t-355 104.5t-68 190.5h225q6 -80 143.5 -80t143.5 80h225zM1249 0h-461v119h-4q-41 -59 -121.5 -103.5t-190.5 -44.5q-202 0 -291 130t-89 321v655h475v-569q0 -82 25.5 -115t75.5 -33t79 38t29 110v569h473v-1077z" />
    <glyph glyph-name="Uring" unicode="&#x16e;" horiz-adv-x="1587" 
d="M920 1755q0 51 -36 86t-87.5 35t-87 -35t-35.5 -86t35.5 -86t87 -35t87.5 35t36 86zM1032 1755q0 -49 -19.5 -92t-51 -75t-74.5 -49t-90 -17t-90 17t-76 49t-51.5 75t-18.5 92t18.5 92t51.5 75t76 49.5t90 17.5t90 -17.5t74.5 -49.5t51 -75t19.5 -92zM115 569v881h487
v-827q0 -104 50 -163t142.5 -59t142.5 58.5t50 163.5v827h486v-881q0 -267 -180 -438.5t-506 -171.5t-499 169t-173 441z" />
    <glyph glyph-name="uring" unicode="&#x16f;" horiz-adv-x="1357" 
d="M788 1386.5q0 51.5 -35.5 86t-87 34.5t-87 -34.5t-35.5 -86t35.5 -86t87 -34.5t87 34.5t35.5 86zM901 1386.5q0 -49.5 -19.5 -92.5t-51 -74.5t-74.5 -49t-90.5 -17.5t-90.5 17.5t-75.5 49t-51 74.5t-18.5 92.5t18.5 92.5t51 74.5t75.5 49t90.5 17.5t90.5 -17.5t74.5 -49
t51 -74.5t19.5 -92.5zM1249 0h-461v119h-4q-41 -59 -121.5 -103.5t-190.5 -44.5q-202 0 -291 130t-89 321v655h475v-569q0 -82 25.5 -115t75.5 -33t79 38t29 110v569h473v-1077z" />
    <glyph glyph-name="Uhungarumlaut" unicode="&#x170;" horiz-adv-x="1587" 
d="M866 1565l228 295h434l-316 -295h-346zM369 1565l227 295h434l-315 -295h-346zM115 569v881h487v-827q0 -104 50 -163t142.5 -59t142.5 58.5t50 163.5v827h486v-881q0 -267 -180 -438.5t-506 -171.5t-499 169t-173 441z" />
    <glyph glyph-name="uhungarumlaut" unicode="&#x171;" horiz-adv-x="1357" 
d="M741 1196l228 295h434l-316 -295h-346zM244 1196l227 295h434l-315 -295h-346zM1249 0h-461v119h-4q-41 -59 -121.5 -103.5t-190.5 -44.5q-202 0 -291 130t-89 321v655h475v-569q0 -82 25.5 -115t75.5 -33t79 38t29 110v569h473v-1077z" />
    <glyph glyph-name="Uogonek" unicode="&#x172;" horiz-adv-x="1587" 
d="M508 -299q0 134 186 262q-282 23 -430.5 190t-148.5 416v881h487v-827q0 -104 50 -163t142.5 -59t142.5 58.5t50 163.5v827h486v-881q0 -332 -174.5 -444.5t-288.5 -138.5q-119 -84 -164 -132.5t-45 -82.5q0 -41 50 -41t112 37l90 -170q-137 -89 -297 -89t-204 68
t-44 125z" />
    <glyph glyph-name="uogonek" unicode="&#x173;" horiz-adv-x="1357" 
d="M553 -303q0 91 64 158.5t180 144.5h-9v119h-4q-41 -59 -121.5 -103.5t-190.5 -44.5q-202 0 -291 130t-89 321v655h475v-569q0 -82 25.5 -115t75.5 -33t79 38t29 110v569h473v-1077h-172q-131 -92 -181 -143t-50 -89t50 -38t112 37l90 -170q-137 -89 -297 -89t-204 68
t-44 121z" />
    <glyph glyph-name="Wcircumflex" unicode="&#x174;" horiz-adv-x="2205" 
d="M1100 1704l-137 -139h-312l281 295h346l274 -295h-315zM887 0h-492l-395 1450h516l156 -815h8l168 815h510l182 -815h8l158 815h500l-404 -1450h-491l-205 819h-8z" />
    <glyph glyph-name="wcircumflex" unicode="&#x175;" horiz-adv-x="1992" 
d="M1008 1335l-138 -139h-311l281 295h346l274 -295h-315zM827 0h-469l-368 1077h506l135 -557h8l139 557h455l149 -557h7l131 557h483l-373 -1077h-471l-166 553h-4z" />
    <glyph glyph-name="Ycircumflex" unicode="&#x176;" horiz-adv-x="1511" 
d="M766 1704l-137 -139h-312l281 295h346l275 -295h-316zM985 0h-487v594l-547 856h588l229 -426l219 426h574l-576 -856v-594z" />
    <glyph glyph-name="ycircumflex" unicode="&#x177;" horiz-adv-x="1306" 
d="M670 1335l-138 -139h-311l281 295h346l274 -295h-315zM244 -94q74 0 111.5 31.5t56.5 80.5l8 23l-436 1036h524l160 -567h8l141 567h506l-442 -1143q-82 -211 -210 -318.5t-356 -107.5q-82 0 -164.5 13.5t-103.5 19.5l59 389q64 -24 138 -24z" />
    <glyph glyph-name="Ydieresis" unicode="&#x178;" horiz-adv-x="1511" 
d="M719 1757q0 -82 -59.5 -141.5t-144.5 -59.5t-145.5 57.5t-60.5 142.5t62 144.5t145 59.5q82 0 142.5 -60.5t60.5 -142.5zM1229 1757q0 -82 -59.5 -141.5t-144.5 -59.5t-145.5 57.5t-60.5 142.5t62 144.5t145 59.5q82 0 142.5 -60.5t60.5 -142.5zM985 0h-487v594l-547 856
h588l229 -426l219 426h574l-576 -856v-594z" />
    <glyph glyph-name="Zacute" unicode="&#x179;" horiz-adv-x="1376" 
d="M496 1565l227 295h434l-315 -295h-346zM113 1047v403h1157v-352l-578 -682h594v-416h-1196v408l543 639h-520z" />
    <glyph glyph-name="zacute" unicode="&#x17a;" horiz-adv-x="1140" 
d="M358 1196l228 295h434l-315 -295h-347zM78 727v350h981v-307l-436 -420h448v-350h-1003v330l403 397h-393z" />
    <glyph glyph-name="Zdotaccent" unicode="&#x17b;" horiz-adv-x="1376" 
d="M475 1757q0 89 66 153t155 64t154 -63.5t65 -153.5t-64 -152.5t-155 -62.5t-156 63t-65 152zM113 1047v403h1157v-352l-578 -682h594v-416h-1196v408l543 639h-520z" />
    <glyph glyph-name="zdotaccent" unicode="&#x17c;" horiz-adv-x="1140" 
d="M358 1388.5q0 88.5 66.5 153t156.5 64.5t154 -65.5t64 -152t-62.5 -150.5t-155.5 -64t-158 63t-65 151.5zM78 727v350h981v-307l-436 -420h448v-350h-1003v330l403 397h-393z" />
    <glyph glyph-name="Zcaron" unicode="&#x17d;" horiz-adv-x="1376" 
d="M1155 1860l-274 -295h-346l-281 295h311l137 -140l138 140h315zM113 1047v403h1157v-352l-578 -682h594v-416h-1196v408l543 639h-520z" />
    <glyph glyph-name="zcaron" unicode="&#x17e;" horiz-adv-x="1140" 
d="M1032 1491l-274 -295h-346l-281 295h311l138 -139l137 139h315zM78 727v350h981v-307l-436 -420h448v-350h-1003v330l403 397h-393z" />
    <glyph glyph-name="florin" unicode="&#x192;" horiz-adv-x="1433" 
d="M1229 924v-301h-332l-106 -521q-81 -387 -480 -387q-179 0 -307 72l158 332q55 -41 107 -41t78 36t40 101l84 408h-233v301h284q23 111 89 339t436 228q213 0 344 -82l-168 -332q-69 43 -120 43q-50 0 -81 -22.5t-49 -100.5l-15 -73h271z" />
    <glyph glyph-name="Scommaaccent" unicode="&#x218;" horiz-adv-x="1263" 
d="M848 -92l-191 -400h-335l139 400h387zM694 1092q-119 0 -119 -66q0 -33 34 -49t111 -41t163 -57.5t205.5 -119t119.5 -282.5q0 -246 -179 -382t-428 -136t-397.5 85t-203.5 134l297 324q51 -55 136 -98.5t185 -43.5t99 68q0 36 -52 64.5t-165 64.5q-113 37 -263.5 113
t-150.5 323t180.5 372.5t427.5 125.5q143 0 292 -55.5t261 -159.5l-303 -309q-49 61 -120.5 93t-129.5 32z" />
    <glyph glyph-name="scommaaccent" unicode="&#x219;" horiz-adv-x="1050" 
d="M729 -92l-190 -400h-336l139 400h387zM601 784q-91 0 -91 -45q0 -20 25 -31.5t103 -26.5q154 -30 253.5 -111.5t99.5 -227.5q0 -199 -147.5 -291t-308.5 -92q-323 0 -527 154l232 268q49 -45 115.5 -72.5t130.5 -27.5t65 43q0 27 -38.5 42t-110.5 32q-324 76 -324 333
q0 192 149.5 289.5t323.5 97.5q259 0 469 -139l-221 -264q-107 69 -198 69z" />
    <glyph glyph-name="uni021A" unicode="&#x21a;" horiz-adv-x="1228" 
d="M834 -92l-191 -400h-336l139 400h388zM858 0h-487v1038h-357v412h1200v-412h-356v-1038z" />
    <glyph glyph-name="uni021B" unicode="&#x21b;" horiz-adv-x="862" 
d="M721 -92l-191 -400h-335l139 400h387zM608 453q0 -134 118 -134q50 0 95 13v-324q-86 -37 -243 -37q-217 0 -321.5 93.5t-104.5 289.5v385h-152v338h150v242h458v-242h234v-338h-234v-286z" />
    <glyph glyph-name="circumflex" unicode="&#x2c6;" 
d="M367 1335l-138 -139h-311l281 295h346l274 -295h-315z" />
    <glyph glyph-name="caron" unicode="&#x2c7;" 
d="M819 1491l-274 -295h-346l-281 295h311l138 -139l137 139h315z" />
    <glyph glyph-name="uni02C9" unicode="&#x2c9;" 
d="M0 1817h737v-197h-737v197z" />
    <glyph glyph-name="breve" unicode="&#x2d8;" 
d="M737 1491q-21 -295 -314 -295t-355 104.5t-68 190.5h225q6 -80 143.5 -80t143.5 80h225z" />
    <glyph glyph-name="dotaccent" unicode="&#x2d9;" 
d="M147 1388.5q0 88.5 66.5 153t156.5 64.5t154 -65.5t64 -152t-62.5 -150.5t-155.5 -64t-158 63t-65 151.5z" />
    <glyph glyph-name="ring" unicode="&#x2da;" 
d="M492 1386.5q0 51.5 -36 86t-87.5 34.5t-87 -34.5t-35.5 -86t35.5 -86t87 -34.5t87.5 34.5t36 86zM604 1386.5q0 -49.5 -19.5 -92.5t-51 -74.5t-74.5 -49t-90 -17.5t-90 17.5t-76 49t-51.5 74.5t-18.5 92.5t18.5 92.5t51.5 74.5t76 49t90 17.5t90 -17.5t74.5 -49t51 -74.5
t19.5 -92.5z" />
    <glyph glyph-name="ogonek" unicode="&#x2db;" 
d="M66 -303q0 91 63 158.5t180 144.5h281q-131 -92 -181.5 -143t-50.5 -89t50 -38t112 37l90 -170q-137 -89 -297 -89t-203.5 68t-43.5 121z" />
    <glyph glyph-name="tilde" unicode="&#x2dc;" 
d="M223 1282q-59 0 -76 -74h-163q6 117 65.5 198t165.5 81q70 0 143 -37q74 -37 100.5 -47t59.5 -10t48.5 20.5t23.5 61.5h162q-13 -199 -97 -242t-150 -43t-134 37t-92.5 46t-55.5 9z" />
    <glyph glyph-name="hungarumlaut" unicode="&#x2dd;" 
d="M385 1196l227 295h435l-316 -295h-346zM-113 1196l228 295h434l-316 -295h-346z" />
    <glyph glyph-name="uni0394" unicode="&#x394;" horiz-adv-x="1505" 
d="M885 387q-83 254 -158 471q-37 -119 -74 -235.5t-73 -235.5h305zM20 0l545 1450h338q403 -1006 582 -1450h-1465z" />
    <glyph glyph-name="uni03A9" unicode="&#x3a9;" horiz-adv-x="1603" 
d="M549 844q0 -228 194 -273v-571h-641v371h291v22q-132 40 -211.5 170.5t-79.5 293.5q0 300 201 460t499 160t498.5 -159.5t200.5 -443.5q0 -176 -79.5 -307t-209.5 -174v-22h289v-371h-643v571q191 46 191 275q0 106 -70 176t-177 70t-180 -71.5t-73 -176.5z" />
    <glyph glyph-name="uni03BC" unicode="&#x3bc;" horiz-adv-x="1552" 
d="M643 -459h-479v1536h479v-538q0 -130 48 -175t87 -45q148 0 148 205v553h479v-1077h-463v76q-66 -80 -174 -80q-76 0 -125 33v-488z" />
    <glyph glyph-name="pi" unicode="&#x3c0;" horiz-adv-x="1513" 
d="M821 283v413h-172v-696h-456v696h-109v381h1319v-381h-137v-307q0 -23 15 -40t44 -17t80 28v-313q-97 -72 -251 -72q-155 0 -244 71t-89 237z" />
    <glyph glyph-name="endash" unicode="&#x2013;" horiz-adv-x="819" 
d="M61 707h697v-246h-697v246z" />
    <glyph glyph-name="emdash" unicode="&#x2014;" horiz-adv-x="1228" 
d="M61 707h1106v-246h-1106v246z" />
    <glyph glyph-name="quoteleft" unicode="&#x2018;" horiz-adv-x="700" 
d="M86 872l203 578h336l-152 -578h-387z" />
    <glyph glyph-name="quoteright" unicode="&#x2019;" horiz-adv-x="700" 
d="M614 1450l-202 -578h-336l151 578h387z" />
    <glyph glyph-name="quotesinglbase" unicode="&#x201a;" horiz-adv-x="700" 
d="M614 319l-202 -577h-336l151 577h387z" />
    <glyph glyph-name="quotedblleft" unicode="&#x201c;" horiz-adv-x="1163" 
d="M86 872l203 578h336l-162 -578h-377zM559 872l193 578h335l-151 -578h-377z" />
    <glyph glyph-name="quotedblright" unicode="&#x201d;" horiz-adv-x="1163" 
d="M1077 1450l-203 -578h-335l161 578h377zM604 1450l-192 -578h-336l151 578h377z" />
    <glyph glyph-name="quotedblbase" unicode="&#x201e;" horiz-adv-x="1163" 
d="M1077 319l-203 -577h-335l161 577h377zM604 319l-192 -577h-336l151 577h377z" />
    <glyph glyph-name="dagger" unicode="&#x2020;" horiz-adv-x="1267" 
d="M817 -272h-377v970h-370v349h368v403h377v-403h383v-349h-381v-970z" />
    <glyph glyph-name="daggerdbl" unicode="&#x2021;" horiz-adv-x="1267" 
d="M821 -272h-375v346h-376v336h376v358h-376v336h374v346h375v-346h379v-336h-379v-358h379v-336h-377v-346z" />
    <glyph glyph-name="bullet" unicode="&#x2022;" horiz-adv-x="1024" 
d="M150 725q0 76 28.5 141.5t77.5 114.5t114.5 77.5t141.5 28.5t141.5 -28.5t114.5 -77.5t77.5 -114.5t28.5 -141.5t-28.5 -141.5t-77.5 -114.5t-114.5 -78t-141.5 -29t-141.5 29t-114.5 78t-77.5 114.5t-28.5 141.5z" />
    <glyph glyph-name="ellipsis" unicode="&#x2026;" horiz-adv-x="2048" 
d="M1513.5 420q81.5 78 189.5 78t188.5 -78.5t80.5 -189.5t-80 -187t-189 -76t-190 75.5t-81 187.5t81.5 190zM831.5 420q81.5 78 190.5 78t188.5 -78.5t79.5 -189.5t-79.5 -187t-188.5 -76q-110 0 -191 75.5t-81 187.5t81.5 190zM151.5 420q81.5 78 190.5 78t188.5 -78.5
t79.5 -189.5t-79.5 -187t-188.5 -76q-110 0 -191 75.5t-81 187.5t81.5 190z" />
    <glyph glyph-name="perthousand" unicode="&#x2030;" horiz-adv-x="2588" 
d="M426 27l709 1486l202 -92l-708 -1476zM2156 461q-46 0 -80 -34t-34 -81t34 -78.5t80 -31.5t79.5 31.5t33.5 78.5t-33.5 81t-79.5 34zM2156.5 -25q-77.5 0 -146 29t-121 80t-82 117.5t-29.5 144.5t29.5 146.5t82 119t121 79t146 28.5t146.5 -28.5t120 -79t80.5 -119
t29.5 -146.5t-29.5 -144.5t-80.5 -117.5t-120 -80t-146.5 -29zM1332 461q-46 0 -79.5 -34t-33.5 -81t33.5 -78.5t79.5 -31.5t80 31.5t34 78.5t-34 81t-80 34zM1333 -25q-78 0 -146.5 29t-120.5 80t-82 117.5t-30 144.5t30 146.5t82 119t120.5 79t146.5 28.5t146.5 -28.5
t120 -79t81 -119t29.5 -146.5t-29.5 -144.5t-81 -117.5t-120 -80t-146.5 -29zM433 1217q-46 0 -80 -34t-34 -81t34 -79t80 -32t80 32t34 79t-34 81t-80 34zM434 731q-78 0 -146.5 28.5t-120.5 80t-82 118t-30 144.5t30 146.5t82 118.5t120.5 79t146.5 29t146.5 -29t120 -79
t81 -118.5t29.5 -146.5t-29.5 -144.5t-81 -118t-120 -80t-146.5 -28.5z" />
    <glyph glyph-name="guilsinglleft" unicode="&#x2039;" horiz-adv-x="716" 
d="M35 561l360 508l264 -170l-235 -338l235 -338l-264 -170z" />
    <glyph glyph-name="guilsinglright" unicode="&#x203a;" horiz-adv-x="716" 
d="M57 223l236 338l-236 338l267 170l358 -508l-358 -508z" />
    <glyph glyph-name="fraction" unicode="&#x2044;" horiz-adv-x="204" 
d="M-334 27l709 1486l203 -92l-709 -1476z" />
    <glyph glyph-name="Euro" unicode="&#x20ac;" horiz-adv-x="1433" 
d="M242 702v28q0 26 2 40h-178l96 268h119q75 218 271 335.5t464 117.5q207 0 342 -49l-135 -342q-103 35 -221 35q-119 0 -173.5 -36t-68.5 -61h475l-94 -268h-465q-2 -14 -2 -16v-28q0 -26 2 -40h444l-88 -264h-297q27 -45 99.5 -70.5t150.5 -25.5q160 0 250 55l61 -354
q-124 -68 -365 -68q-240 0 -416 122t-239 341h-215l86 264h97q-2 14 -2 16z" />
    <glyph glyph-name="afii61289" unicode="&#x2113;" horiz-adv-x="1024" 
d="M688 1141q0 51 -18.5 89t-51.5 38t-53 -40t-20 -102v-321q143 147 143 336zM952 115q-176 -144 -356 -144t-274.5 86t-94.5 224v51l-110 -92h-4l-111 172l223 176v477q0 172 110.5 292t270.5 120t250 -86t90 -238t-98 -300t-303 -314v-207q0 -72 36.5 -100.5t80.5 -28.5
q74 0 180 76h4z" />
    <glyph glyph-name="trademark" unicode="&#x2122;" horiz-adv-x="2048" 
d="M913 1450h336l183 -508l170 508h333v-844h-229v502h-4l-189 -502h-186l-182 502h-4v-502h-228v844zM311 1239h-229v211h709v-211h-230v-633h-250v633z" />
    <glyph glyph-name="Omega" unicode="&#x2126;" horiz-adv-x="1603" 
d="M549 844q0 -228 194 -273v-571h-641v371h291v22q-132 40 -211.5 170.5t-79.5 293.5q0 300 201 460t499 160t498.5 -159.5t200.5 -443.5q0 -176 -79.5 -307t-209.5 -174v-22h289v-371h-643v571q191 46 191 275q0 106 -70 176t-177 70t-180 -71.5t-73 -176.5z" />
    <glyph glyph-name="estimated" unicode="&#x212e;" horiz-adv-x="1638" 
d="M430 727v-491q156 -160 393 -160q170 0 295 76.5t230 248.5l94 -57q-123 -197 -266.5 -283t-327.5 -86q-185 0 -313.5 58.5t-221 161t-141.5 238.5t-49 376t194 453t507 213t507.5 -210.5t194.5 -537.5h-1096zM1219 823v396q-168 162 -397.5 161.5t-391.5 -161.5v-396
h789z" />
    <glyph glyph-name="partialdiff" unicode="&#x2202;" horiz-adv-x="1589" 
d="M643 504q0 -77 42.5 -117.5t86.5 -40.5q92 0 125 69.5t37 205.5v4q-55 32 -132 32q-159 0 -159 -153zM190 1278q228 199 560 199q162 0 283.5 -70t224 -222t102.5 -446t-98.5 -477.5t-234.5 -236t-260 -52.5q-252 0 -409 138.5t-157 361.5t139 357.5t395 134.5
q93 0 178 -35q-8 66 -55 114t-156 48q-158 0 -317 -129z" />
    <glyph glyph-name="Delta" unicode="&#x2206;" horiz-adv-x="1505" 
d="M885 387q-83 254 -158 471q-37 -119 -74 -235.5t-73 -235.5h305zM20 0l545 1450h338q403 -1006 582 -1450h-1465z" />
    <glyph glyph-name="product" unicode="&#x220f;" horiz-adv-x="1566" 
d="M1067 -438v1714h-567v-1714h-385v2048h1341v-2048h-389z" />
    <glyph glyph-name="summation" unicode="&#x2211;" horiz-adv-x="1400" 
d="M1360 -104v-334h-1305v272l576 764l-553 739v273h1259v-334h-782l485 -676q-129 -178 -259 -352t-259 -352h838z" />
    <glyph glyph-name="minus" unicode="&#x2212;" horiz-adv-x="1363" 
d="M1212 770v-295h-1060v295h1060z" />
    <glyph glyph-name="uni2215" unicode="&#x2215;" horiz-adv-x="204" 
d="M-334 27l709 1486l203 -92l-709 -1476z" />
    <glyph glyph-name="uni2219" unicode="&#x2219;" 
d="M180 780q82 78 190 78t188.5 -78.5t80.5 -190t-80.5 -186.5t-188.5 -75t-190 74.5t-82 187t82 190.5z" />
    <glyph glyph-name="radical" unicode="&#x221a;" horiz-adv-x="1230" 
d="M588 141l303 1469h356l-444 -2048h-299l-283 579q-59 -26 -104 -47q-118 242 -137 283l413 184q47 -106 97.5 -209.5t97.5 -210.5z" />
    <glyph glyph-name="infinity" unicode="&#x221e;" horiz-adv-x="1759" 
d="M391 543q0 -49 30 -79t96 -30t175 109q-125 114 -196 114q-45 0 -75 -32.5t-30 -81.5zM1368 547q0 51 -30 81.5t-82 30.5q-79 0 -189 -116q101 -111 197 -111q47 0 75.5 32t28.5 83zM1558 257.5q-109 -116.5 -294 -116.5q-125 0 -218.5 57.5t-164.5 135.5
q-90 -95 -175 -143t-190 -48q-197 0 -310.5 115.5t-113.5 288.5t109.5 287t288.5 114t267.5 -82t123.5 -121q81 95 171 150t199 55t183.5 -31.5t153.5 -112t79 -256.5t-109 -292.5z" />
    <glyph glyph-name="integral" unicode="&#x222b;" horiz-adv-x="1341" 
d="M438 -150q17 49 17 66v74l-2 78v995q0 543 399 543q93 0 155 -34t92.5 -74t30.5 -104t-45 -113.5t-119 -49.5t-102 42t-41 54q-11 -24 -14 -80v-14q0 -20 1 -38l1 10q0 19 -2 40v-33l2 -139v-837q0 -248 -26.5 -357.5t-96 -212t-270.5 -102.5q-100 0 -190.5 56t-90.5 165
q0 39 22 75q48 79 144 79q63 0 93 -39t42 -50z" />
    <glyph glyph-name="approxequal" unicode="&#x2248;" horiz-adv-x="1363" 
d="M424 238q-63 0 -82 -115h-248q14 173 99.5 301.5t248.5 128.5q83 0 197.5 -40t177 -57.5t118.5 -17.5t81 76h252q-33 -269 -144.5 -335t-189.5 -66t-145.5 19.5t-132 43t-124 43t-108.5 19.5zM422 680q-53 0 -76 -84h-248q21 269 145.5 332t202.5 63t137.5 -16.5t168 -53
t186.5 -36.5q33 0 52.5 22.5t25.5 85.5h252q-19 -226 -118 -330t-213 -104t-227.5 42t-174 60.5t-113.5 18.5z" />
    <glyph glyph-name="notequal" unicode="&#x2260;" horiz-adv-x="1363" 
d="M141 119v311h314q23 47 49 92t49 92h-412v312h574l159 301l287 -135q-23 -41 -44 -83t-44 -83h150v-312h-312q-23 -47 -49 -92t-49 -92h410v-311h-578l-151 -303l-291 137q23 41 45 83t45 83h-152z" />
    <glyph glyph-name="lessequal" unicode="&#x2264;" horiz-adv-x="1363" 
d="M643 881l561 -211v-336q-628 249 -1044 416v274q628 249 1044 416v-332q-141 -59 -280.5 -113.5t-280.5 -113.5zM160 14v285h1044v-285h-1044z" />
    <glyph glyph-name="greaterequal" unicode="&#x2265;" horiz-adv-x="1363" 
d="M160 1440l1044 -416v-274q-262 -104 -522 -208t-522 -208v336q141 53 280.5 105t280.5 106l-561 227v332zM160 14v285h1044v-285h-1044z" />
    <glyph glyph-name="lozenge" unicode="&#x25ca;" horiz-adv-x="1267" 
d="M631 328l178 401q-43 100 -89 201.5t-89 202.5l-172 -404q45 -100 86 -200.5t86 -200.5zM774 1530l389 -801l-389 -801h-287l-378 801l383 801h282z" />
    <glyph glyph-name="dotlessj" unicode="&#xf6be;" horiz-adv-x="708" 
d="M598 25q0 -517 -485 -517q-112 0 -197 25l25 385q38 -10 83 -10q101 0 101 131v1038h473v-1052z" />
    <glyph glyph-name="commaaccent" unicode="&#xf6c3;" 
d="M594 -92l-191 -400h-335l139 400h387z" />
    <glyph glyph-name="uniF8FF" unicode="&#xf8ff;" horiz-adv-x="1048" 
d="M1049 1470v-1470h-1049v1470h1049zM946 102v1264h-844v-1264h844zM524.5 1145q-63.5 0 -109.5 -45t-59 -150l-102 17q14 147 90 213.5t186.5 66.5t182 -72.5t71.5 -195.5q0 -66 -25.5 -120t-102.5 -124q-77 -69 -89 -109t-12 -147h-94l-4 35q0 115 27 167t77 102
q81 80 100 115t19 91t-46 106t-109.5 50zM455 240v137h114v-137h-114z" />
    <glyph glyph-name="fi" unicode="&#xfb01;" horiz-adv-x="1548" 
d="M780 1243q-125 0 -125 -151v-15h228v-338h-228v-739h-471v739h-184v338h184v25q0 358 178.5 433t317.5 75t223 -31l-31 -354q-40 18 -92 18zM1030 1559.5q74 70.5 171 70.5t171 -70.5t74 -172.5t-73.5 -170t-171.5 -68t-171.5 68t-73.5 170t74 172.5zM965 1077h473v-1077
h-473v1077z" />
    <glyph glyph-name="fl" unicode="&#xfb02;" horiz-adv-x="1554" 
d="M780 1243q-125 0 -125 -151v-15h228v-338h-228v-739h-471v739h-184v338h184v25q0 358 178.5 433t317.5 75t223 -31l-31 -354q-40 18 -92 18zM963 1548h483v-1548h-483v1548z" />
    </font>
</defs>
</svg>
