<!-- Generator: Adobe Illustrator 22.1.0, SVG Export Plug-In  -->
<svg version="1.1"
	 xmlns="http://www.w3.org/2000/svg" xmlns:xlink="http://www.w3.org/1999/xlink" xmlns:a="http://ns.adobe.com/AdobeSVGViewerExtensions/3.0/"
	 x="0px" y="0px" width="398.8px" height="342.8px" viewBox="0 0 398.8 342.8" style="enable-background:new 0 0 398.8 342.8;"
	 xml:space="preserve">
<style type="text/css">
	.st0{fill:#FFFFFF;}
	.st1{fill:#FFFFFF;stroke:#000000;stroke-width:3;stroke-miterlimit:10;}
</style>
<defs>
</defs>
<g>
</g>
<g>
</g>
<g>
</g>
<g>
</g>
<g>
</g>
<g>
	<path class="st0" d="M27.2,300.5c-3.4,1-6.5,1.4-11.7,1.4C4.1,302,0,296.8,0,282.3c0-14.5,4.1-19.7,15.5-19.7
		c5.1,0,7.6,0.3,10.9,1.2l-0.7,5.2c-3.4-0.3-5.7-0.4-10.3-0.4c-6.3,0-8.2,3.2-8.2,13.6c0,10.4,1.9,13.6,8.2,13.6
		c4.9,0,7.8-0.1,11.1-0.6L27.2,300.5z"/>
</g>
<g>
	<path class="st0" d="M40,290.6l-3.1,10.8h-7.1l11.4-36.2c0.3-1.2,1.3-1.8,2.5-1.8h6.7c1.2,0,2.2,0.7,2.5,1.8l11.4,36.2h-7.1
		l-3.1-10.8H40z M48.7,271.8c-0.3-1-0.7-2.2-0.8-3.3h-1.5l-0.9,3.3l-3.8,13.1h10.8L48.7,271.8z"/>
</g>
<g>
	<path class="st0" d="M77.8,268.9c-2.4,0-3.3,0.8-3.3,3.2v7.3h15v5.4h-15v16.5h-7v-30.7c0-4.8,3.2-7.5,8.2-7.5
		c5.4,0,11.4,0,16.2,0.5l-0.4,5.2H77.8z"/>
</g>
<g>
	<path class="st0" d="M101.3,290.6c0.6,4.9,2.6,5.9,7.2,5.9c2.6,0,6.5-0.3,9.7-0.7l0.6,4.3c-2.9,1.4-7.7,1.8-11.1,1.8
		c-9.8,0-13.5-4-13.5-14.2c0-10.7,3.9-14.2,13.1-14.2c8.8,0,12.3,3.3,12.3,9.4c0,4.9-2.2,7.7-7.2,7.7H101.3z M110.5,285.9
		c2.2,0,2.4-1.7,2.4-3.1c0-2.9-1.2-4-5.4-4c-4.6,0-6.2,1.4-6.3,7.1H110.5z"/>
</g>
<g>
	<path class="st0" d="M154.5,281.7c5.7,0.5,7.6,4.1,7.6,10.1c0,7.8-3.2,9.9-11.8,9.9c-6,0-8.8-0.1-12.8-0.4v-38.1
		c3.5-0.4,6-0.4,11.1-0.4c9,0,12.4,2.1,12.4,9.9c0,5.5-1.9,8.3-6.5,8.7V281.7z M149.5,280.7c6.7-0.1,9.1-1.5,9.1-7.8
		c0-6.6-2.6-8.1-10.1-8.1c-3.8,0-6.9,0.1-8.8,0.1v15.8H149.5z M139.7,299.7c2.2,0.1,5.9,0.1,10.3,0.1c7.2,0,9.7-1.5,9.7-8.2
		c0-7.1-2.7-9-10.2-9.1h-9.8V299.7z"/>
</g>
<g>
	<path class="st0" d="M196.4,287.1c0,10.7-3.5,14.8-13.1,14.8c-9.8,0-13.3-4.1-13.3-14.8v-23.9h2.3v23.9c0,9.4,2.9,12.8,11,12.8
		c7.9,0,10.9-3.4,10.9-12.8v-23.9h2.3V287.1z"/>
</g>
<g>
	<path class="st0" d="M205.9,263.3c3.7-0.3,7.9-0.5,12.9-0.5c10.4,0,14.1,5.1,14.1,19.5c0,14.5-3.7,19.5-14.1,19.5
		c-5,0-9.1-0.2-12.9-0.5V263.3z M208.2,299.6c3.1,0.1,6.5,0.2,10.6,0.2c8.7,0,11.8-4.5,11.8-17.5c0-13-3-17.5-11.8-17.5
		c-4.1,0-7.4,0.1-10.6,0.2V299.6z"/>
</g>
<g>
	<path class="st0" d="M243.7,287.9l-4.7,13.4h-2.4l13.3-37.3c0.2-0.4,0.6-0.7,1-0.7h3.1c0.4,0,0.8,0.3,1,0.7l13.3,37.3h-2.4
		l-4.7-13.4H243.7z M254.3,268.2l-1.1-3.1h-1.5l-1.1,3.1l-6.2,17.7h16.1L254.3,268.2z"/>
</g>
<g>
	<path class="st0" d="M273.6,263.3c3.9-0.4,6.6-0.4,12.4-0.4c8.3,0,11.3,2.5,11.3,11.4c0,9-3,11.4-11.1,11.4
		c-4.4,0-8.1-0.2-10.3-0.3v16.1h-2.3V263.3z M286,283.6c6.6-0.1,9-1.9,9-9.4c0-7.4-2.4-9.4-9-9.4c-4.4,0-8,0.1-10.2,0.1v18.6H286z"
		/>
</g>
<g>
	<path class="st0" d="M326.6,301.1c-5.3,0.2-10.8,0.2-16.2,0.2c-3.6,0-6.1-2.4-6.1-5.8v-26.4c0-3.4,2.5-5.8,6.1-5.8
		c5.4,0,10.9,0,16.2,0.2l-0.1,1.7h-15.7c-2.5,0-4.2,1.7-4.2,4.3v10.6h17.7v1.9h-17.7v13.1c0,2.6,1.7,4.3,4.2,4.3h15.7L326.6,301.1z"
		/>
</g>
<g>
	<path class="st0" d="M339.5,282.5c-5.4-0.8-7.4-3.9-7.4-10c0-9.1,3.8-9.9,11.7-9.8c3.5,0.1,7.2,0.3,10.6,0.8l-0.2,1.7
		c-3.3-0.2-6.8-0.4-10.3-0.4c-6.6,0-9.4,0.2-9.4,7.8c0,5.2,1.6,7.2,5.7,7.8l8.3,1.4c5.6,0.8,7.7,3.7,7.7,10.2c0,9-4.1,10-11.9,10
		c-2.9,0-6.6-0.1-11.4-0.7l0.2-1.7c4.7,0.3,7.4,0.4,11.3,0.4c7-0.1,9.5-1,9.5-8c0-5.6-1.7-7.4-5.9-8.1L339.5,282.5z"/>
</g>
<g>
	<path class="st0" d="M375,265.2v36.1h-2.3v-36.1h-13.1v-2h28.5v2H375z"/>
</g>
<g>
	<path class="st0" d="M3.6,332.7c0.1,0.8,0.1,1.5,0.1,2.3v7.1H2.5v-18.9h1.1v6.3c0,0.8,0,1.5-0.1,2.2h3l6.4-8.6h1.3l-6.1,8.2
		c-0.2,0.4-0.5,0.6-0.7,0.8v0.1c0.2,0.2,0.5,0.5,0.8,0.8l6.5,9h-1.3l-6.8-9.4H3.6z"/>
</g>
<g>
	<path class="st0" d="M30.5,332.6c0,7.3-1.8,9.8-7.1,9.8c-5.3,0-7.1-2.5-7.1-9.8s1.9-9.8,7.1-9.8C28.6,322.8,30.5,325.3,30.5,332.6z
		 M17.4,332.6c0,6.5,1.5,8.8,6,8.8c4.4,0,5.9-2.2,5.9-8.8c0-6.5-1.5-8.8-5.9-8.8C19,323.8,17.4,326.1,17.4,332.6z"/>
</g>
<g>
	<path class="st0" d="M45.9,342.1l-1.9-6c-0.6-1.8-1.6-2.4-3-2.4c-2.4,0-4.2-0.1-5.2-0.1v8.4h-1.1v-18.9c1.9-0.2,3.3-0.2,6.2-0.2
		c4.1,0,5.6,1.2,5.6,5.3c0,3.3-1,4.7-3.5,5v0.1c1,0.3,1.7,1.3,2.2,2.6l2,6H45.9z M40.8,332.7c3.3-0.1,4.5-1,4.5-4.4
		c0-3.5-1.2-4.4-4.5-4.4c-2.2,0-4,0-5,0.1v8.7H40.8z"/>
</g>
<g>
	<path class="st0" d="M55.9,324.1v17.9h-1.1v-17.9h-6.5v-1h14.2v1H55.9z"/>
</g>
<g>
	<path class="st0" d="M64.9,335.4l-2.3,6.7h-1.2l6.6-18.6c0.1-0.2,0.3-0.4,0.5-0.4H70c0.2,0,0.4,0.1,0.5,0.4l6.6,18.6h-1.2l-2.3-6.7
		H64.9z M70.2,325.6l-0.5-1.5h-0.8l-0.5,1.5l-3.1,8.8h8L70.2,325.6z M67.8,321.4l4.3-4l0.7,0.8l-4.5,3.7L67.8,321.4z"/>
</g>
<g>
	<path class="st0" d="M91,342.1l-1.9-6c-0.6-1.8-1.6-2.4-3-2.4c-2.4,0-4.2-0.1-5.2-0.1v8.4h-1.1v-18.9c1.9-0.2,3.3-0.2,6.2-0.2
		c4.1,0,5.6,1.2,5.6,5.3c0,3.3-1,4.7-3.5,5v0.1c1,0.3,1.7,1.3,2.2,2.6l2,6H91z M85.9,332.7c3.3-0.1,4.5-1,4.5-4.4
		c0-3.5-1.2-4.4-4.5-4.4c-2.2,0-4,0-5,0.1v8.7H85.9z"/>
</g>
<g>
	<path class="st0" d="M98.7,332.7c-2.7-0.4-3.7-1.9-3.7-5c0-4.5,1.9-4.9,5.8-4.9c1.8,0,3.6,0.1,5.3,0.4l-0.1,0.8
		c-1.6-0.1-3.4-0.2-5.1-0.2c-3.3,0-4.7,0.1-4.7,3.9c0,2.6,0.8,3.6,2.8,3.9l4.1,0.7c2.8,0.4,3.8,1.8,3.8,5c0,4.5-2,5-5.9,5
		c-1.4,0-3.3,0-5.7-0.4l0.1-0.8c2.4,0.2,3.7,0.2,5.6,0.2c3.5-0.1,4.7-0.5,4.7-4c0-2.8-0.8-3.7-2.9-4L98.7,332.7z"/>
</g>
<g>
	<path class="st0" d="M135.6,323.5c0.3,0,0.5,0.2,0.5,0.6l0.8,18.3h-1.1l-0.8-18h-0.6l-5.7,15.8c-0.1,0.2-0.3,0.4-0.5,0.4h-1.4
		c-0.3,0-0.5-0.1-0.5-0.4l-5.7-15.8h-0.6l-0.8,18H118l0.8-18.3c0-0.4,0.2-0.6,0.6-0.6h1.6c0.3,0,0.4,0.1,0.5,0.4l4.8,13.3
		c0.3,0.8,0.6,1.7,0.9,2.6h0.7l0.9-2.6l4.8-13.2c0.1-0.2,0.3-0.4,0.5-0.4H135.6z"/>
</g>
<g>
	<path class="st0" d="M154.4,335.4c0,5.3-1.8,7.4-6.5,7.4c-4.9,0-6.6-2.1-6.6-7.4v-11.9h1.1v11.9c0,4.7,1.5,6.4,5.5,6.4
		c4,0,5.4-1.7,5.4-6.4v-11.9h1.1V335.4z M145.6,322.4L145,322l3-4.4l0.9,0.6L145.6,322.4z M149.6,322.4L149,322l3-4.4l0.9,0.6
		L149.6,322.4z"/>
</g>
<g>
	<path class="st0" d="M165.9,342.1c-0.1,0.2-0.3,0.4-0.5,0.4h-1.5c-0.2,0-0.4-0.2-0.5-0.4l-6.3-18.6h1.2l5.3,16
		c0.2,0.7,0.4,1.3,0.6,2h0.8c0.2-0.7,0.4-1.4,0.7-2.1l5.3-15.9h1.2L165.9,342.1z"/>
</g>
<g>
	<path class="st0" d="M185.9,342.4c-2.6,0.1-5.4,0.1-8.1,0.1c-1.8,0-3-1.2-3-2.9v-13.1c0-1.7,1.2-2.9,3-2.9c2.7,0,5.4,0,8.1,0.1
		l-0.1,0.8H178c-1.3,0-2.1,0.9-2.1,2.1v5.3h8.8v0.9h-8.8v6.5c0,1.3,0.8,2.1,2.1,2.1h7.8L185.9,342.4z M179.3,321.1l4.3-4l0.7,0.8
		l-4.5,3.7L179.3,321.1z"/>
</g>
<g>
	<path class="st0" d="M192.3,333.1c-2.7-0.4-3.7-1.9-3.7-5c0-4.5,1.9-4.9,5.8-4.9c1.8,0,3.6,0.1,5.3,0.4l-0.1,0.8
		c-1.6-0.1-3.4-0.2-5.1-0.2c-3.3,0-4.7,0.1-4.7,3.9c0,2.6,0.8,3.6,2.8,3.9l4.1,0.7c2.8,0.4,3.8,1.8,3.8,5c0,4.5-2,5-5.9,5
		c-1.4,0-3.3,0-5.7-0.4l0.1-0.8c2.4,0.2,3.7,0.2,5.6,0.2c3.5-0.1,4.7-0.5,4.7-4c0-2.8-0.8-3.7-2.9-4L192.3,333.1z"/>
</g>
<g>
	<path class="st0" d="M215.6,342.5H203v-1l11.2-16.9h-11.1v-1h12.3v1l-11.2,16.9h11.3V342.5z"/>
</g>
<g>
	<path class="st0" d="M230,342.4c-2.6,0.1-5.4,0.1-8.1,0.1c-1.8,0-3-1.2-3-2.9v-13.1c0-1.7,1.2-2.9,3-2.9c2.7,0,5.4,0,8.1,0.1
		l-0.1,0.8h-7.8c-1.3,0-2.1,0.9-2.1,2.1v5.3h8.8v0.9h-8.8v6.5c0,1.3,0.8,2.1,2.1,2.1h7.8L230,342.4z"/>
</g>
<g>
	<path class="st0" d="M239.4,324.5v17.9h-1.1v-17.9h-6.5v-1h14.2v1H239.4z"/>
</g>
<g>
	<path class="st0" d="M248.8,342.5v-18.9h1.1v18.9H248.8z"/>
</g>
<g>
	<path class="st0" d="M267.8,324.4c-1.3,0-2.1,0.9-2.1,2.1v5.4h8.6v0.9h-8.6v9.5h-1.1v-16c0-1.8,1.2-2.9,3-2.9c2.6,0,5.3,0,7.9,0.1
		l-0.1,0.8H267.8z"/>
</g>
<g>
	<path class="st0" d="M289.6,342.3c-2.6,0.1-5.4,0.1-8.1,0.1c-1.8,0-3-1.2-3-2.9v-13.1c0-1.7,1.2-2.9,3-2.9c2.7,0,5.4,0,8.1,0.1
		l-0.1,0.8h-7.8c-1.3,0-2.1,0.9-2.1,2.1v5.3h8.8v0.9h-8.8v6.5c0,1.3,0.8,2.1,2.1,2.1h7.8L289.6,342.3z"/>
</g>
<g>
	<path class="st0" d="M296,333c-2.7-0.4-3.7-1.9-3.7-5c0-4.5,1.9-4.9,5.8-4.9c1.8,0,3.6,0.1,5.3,0.4l-0.1,0.8
		c-1.6-0.1-3.4-0.2-5.1-0.2c-3.3,0-4.7,0.1-4.7,3.9c0,2.6,0.8,3.6,2.8,3.9l4.1,0.7c2.8,0.4,3.8,1.8,3.8,5c0,4.5-2,5-5.9,5
		c-1.4,0-3.3,0-5.7-0.4l0.1-0.9c2.4,0.2,3.7,0.2,5.6,0.2c3.5-0.1,4.7-0.5,4.7-4c0-2.8-0.8-3.7-2.9-4L296,333z"/>
</g>
<g>
	<path class="st0" d="M319.3,342.4h-12.6v-1l11.2-16.9h-11.1v-1h12.3v1L308,341.4h11.3V342.4z"/>
</g>
<g>
	<path class="st0" d="M328.5,324.4v17.9h-1.1v-17.9h-6.5v-1H335v1H328.5z"/>
</g>
<g>
	<path class="st0" d="M337.9,342.4v-18.9h1.1v18.9H337.9z"/>
</g>
<g>
	<path class="st0" d="M350.6,342c-0.1,0.2-0.3,0.4-0.5,0.4h-1.5c-0.2,0-0.4-0.2-0.5-0.4l-6.3-18.6h1.2l5.3,16c0.2,0.7,0.4,1.3,0.6,2
		h0.8c0.2-0.7,0.4-1.4,0.7-2.1l5.3-15.9h1.2L350.6,342z"/>
</g>
<g>
	<path class="st0" d="M360,335.7l-2.3,6.7h-1.2l6.6-18.6c0.1-0.2,0.3-0.4,0.5-0.4h1.5c0.2,0,0.4,0.1,0.5,0.4l6.6,18.6h-1.2l-2.3-6.7
		H360z M365.3,325.9l-0.5-1.5H364l-0.5,1.5l-3.1,8.8h8L365.3,325.9z M362.9,321.7l4.3-4l0.7,0.8l-4.5,3.7L362.9,321.7z"/>
</g>
<g>
	<path class="st0" d="M375.9,339.3c0,1.3,0.8,2.1,2.1,2.1h7.3v0.8c-2.5,0.1-5,0.1-7.5,0.1c-1.9,0-3.1-1.3-3.1-3v-15.9h1.1V339.3z"/>
</g>
<g>
	<path class="st1" d="M292.1,9.2"/>
</g>
<g>
	<path class="st1" d="M341.7,73.3"/>
</g>
<g>
	<g>
		<path class="st0" d="M56.4,137L43,154.2l0,0V78.5l13.6,17.1c4,5.1,10,7.7,16,7.7c4.5,0,8.9-1.5,12.7-4.4c8.8-7,10.3-19.8,3.2-28.7
			L39.8,9c-0.5-0.6-1.1-1.3-1.6-1.8C34.4,2.8,28.8,0,22.6,0C11.3,0,2.2,9.1,2.2,20.4v193c0,0.1,0,0.1,0,0.2c0,0,0,0,0,0.1
			c0,0.2,0,0.4,0,0.6c0,0.2,0,0.3,0,0.5c0,0.2,0,0.3,0,0.5c0,0.2,0,0.4,0.1,0.6c0,0.1,0,0.2,0,0.4c0,0.2,0.1,0.5,0.1,0.7
			c0,0.1,0,0.2,0,0.2c0,0.3,0.1,0.5,0.2,0.8c0,0,0,0.1,0,0.2c0.1,0.3,0.1,0.5,0.2,0.8c0,0,0,0.1,0,0.1c0.1,0.3,0.2,0.6,0.2,0.8
			c0,0.1,0,0.1,0,0.1c0.1,0.3,0.2,0.5,0.3,0.8c0,0.1,0.1,0.1,0.1,0.2c0.1,0.2,0.2,0.4,0.3,0.7c0,0.1,0.1,0.2,0.2,0.3
			c0.1,0.2,0.2,0.3,0.2,0.5c0.1,0.2,0.2,0.3,0.2,0.5c0.1,0.1,0.1,0.2,0.2,0.4c0,0,0,0,0,0c0,0,0,0,0,0c0,0,0,0,0,0
			c0.1,0.2,0.2,0.4,0.3,0.5c0,0.1,0.1,0.2,0.1,0.2c0.1,0.2,0.3,0.4,0.4,0.7c0,0.1,0.1,0.1,0.1,0.1c0.2,0.2,0.3,0.5,0.5,0.7
			c0,0,0.1,0.1,0.1,0.1c0.2,0.2,0.3,0.4,0.5,0.6c0,0,0.1,0.1,0.1,0.1c0,0,0,0,0,0c0,0,0,0,0,0c0,0,0,0,0,0c0.1,0.2,0.3,0.3,0.4,0.5
			c0.1,0.1,0.1,0.1,0.2,0.2c0.1,0.2,0.3,0.3,0.5,0.5c0.1,0.1,0.2,0.2,0.3,0.3c0.1,0.1,0.3,0.3,0.4,0.4c0.1,0.1,0.2,0.2,0.4,0.3
			c0.1,0.1,0.2,0.2,0.3,0.3c0.2,0.1,0.3,0.3,0.5,0.4c0,0,0.1,0.1,0.1,0.1c0,0,0,0,0.1,0.1c0,0,0,0,0,0c0,0,0.1,0.1,0.1,0.1
			c0.1,0.1,0.3,0.2,0.4,0.3c0.1,0.1,0.2,0.2,0.3,0.2c0.1,0.1,0.3,0.2,0.4,0.3c0.1,0.1,0.2,0.2,0.4,0.2c0.1,0.1,0.3,0.2,0.4,0.3
			c0.1,0.1,0.3,0.2,0.4,0.2c0.1,0.1,0.2,0.1,0.3,0.2c0,0,0,0,0,0c0,0,0.1,0,0.1,0.1c0,0,0,0,0,0c0.2,0.1,0.4,0.2,0.7,0.4
			c0.1,0,0.1,0.1,0.2,0.1c0.2,0.1,0.4,0.2,0.6,0.3c0.1,0,0.2,0.1,0.3,0.1c0.2,0.1,0.4,0.2,0.6,0.2c0.1,0,0.2,0.1,0.3,0.1
			c0.2,0.1,0.4,0.1,0.6,0.2c0.1,0,0.2,0.1,0.3,0.1c0.2,0.1,0.4,0.1,0.6,0.2c0.1,0,0.2,0.1,0.3,0.1c0.6,0.2,1.2,0.3,1.9,0.4
			c0.1,0,0.1,0,0.2,0c0.3,0,0.5,0.1,0.8,0.1c0.1,0,0.2,0,0.2,0c0.3,0,0.5,0,0.8,0.1c0.1,0,0.1,0,0.2,0c0.3,0,0.7,0,1,0h0
			c0,0,0,0,0,0c0,0,0,0,0,0c0.1,0,0.2,0,0.2,0c0.3,0,0.6,0,0.8,0c0.1,0,0.2,0,0.2,0c0.3,0,0.6,0,0.9-0.1c0.1,0,0.1,0,0.2,0
			c0.3,0,0.6-0.1,0.9-0.1c0.1,0,0.1,0,0.2,0c0.2,0,0.5-0.1,0.7-0.1c0.1,0,0.1,0,0.2,0c0,0,0,0,0.1,0c0,0,0.1,0,0.1,0
			c0.3-0.1,0.6-0.2,0.9-0.2c0.1,0,0.1,0,0.2-0.1c0.3-0.1,0.6-0.2,0.9-0.3c0.1,0,0.1,0,0.2-0.1c0.3-0.1,0.6-0.2,0.9-0.3
			c0.1,0,0.1,0,0.2-0.1c0.3-0.1,0.6-0.3,0.9-0.4c0,0,0.1,0,0.1-0.1c0.3-0.2,0.6-0.3,0.9-0.5c0.1-0.1,0.3-0.2,0.4-0.3
			c0.2-0.1,0.3-0.2,0.5-0.3c0.2-0.1,0.3-0.2,0.5-0.3c0.1-0.1,0.2-0.2,0.3-0.2c0.2-0.1,0.4-0.2,0.5-0.4c0.1-0.1,0.2-0.2,0.3-0.2
			c0.2-0.1,0.4-0.3,0.5-0.4c0.1-0.1,0.2-0.2,0.3-0.2c0.2-0.2,0.3-0.3,0.5-0.4c0.2-0.2,0.5-0.4,0.7-0.7c0,0,0,0,0,0c0,0,0,0,0,0
			c0,0,0,0,0,0c0.1-0.1,0.1-0.1,0.2-0.2c0.2-0.2,0.3-0.4,0.5-0.5c0.1-0.1,0.2-0.2,0.2-0.3c0.2-0.2,0.3-0.4,0.5-0.6c0,0,0,0,0,0
			c0,0,0.1-0.1,0.1-0.1l49.9-63.9c6.9-8.9,5.4-21.7-3.5-28.6C76.1,126.5,63.3,128.1,56.4,137"/>
	</g>
	<g>
		<path class="st0" d="M221.5,52.4L188.3,9.3c-0.5-0.6-0.9-1.2-1.5-1.7c-0.2-0.2-0.3-0.4-0.5-0.5c-0.1-0.1-0.1-0.1-0.2-0.2
			c-1.3-1.2-2.7-2.3-4.2-3.1c0,0,0,0,0,0c-0.3-0.1-0.5-0.3-0.8-0.4c-0.1-0.1-0.3-0.1-0.4-0.2c-0.1-0.1-0.3-0.1-0.4-0.2
			c-0.2-0.1-0.5-0.2-0.7-0.3c-0.1,0-0.1-0.1-0.2-0.1c-0.3-0.1-0.6-0.2-0.8-0.3c0,0,0,0-0.1,0c-0.3-0.1-0.6-0.2-0.9-0.3c0,0,0,0,0,0
			c-0.3-0.1-0.6-0.2-0.9-0.2h0c-0.3-0.1-0.6-0.1-0.9-0.2c0,0,0,0-0.1,0c-0.3-0.1-0.6-0.1-0.8-0.1c0,0-0.1,0-0.1,0
			c-0.3,0-0.5-0.1-0.8-0.1c-0.1,0-0.2,0-0.3,0c-0.2,0-0.4,0-0.6,0c-0.1,0-0.3,0-0.4,0c-0.2,0-0.3,0-0.5,0c-0.2,0-0.3,0-0.5,0
			c-0.1,0-0.2,0-0.4,0c-0.2,0-0.4,0-0.7,0c-0.1,0-0.1,0-0.2,0c-0.3,0-0.5,0-0.8,0.1c0,0-0.1,0-0.1,0c-0.3,0-0.6,0.1-0.9,0.1
			c0,0,0,0,0,0c-1,0.2-1.9,0.4-2.8,0.7c0,0,0,0,0,0c-0.3,0.1-0.6,0.2-0.9,0.3c-0.1,0-0.1,0-0.2,0.1c-0.2,0.1-0.5,0.2-0.7,0.3
			c-0.1,0.1-0.3,0.1-0.4,0.2c-0.2,0.1-0.3,0.1-0.5,0.2c-0.3,0.1-0.5,0.3-0.8,0.4c0,0,0,0-0.1,0c-1.5,0.8-2.9,1.8-4.2,3.1
			c-0.2,0.2-0.4,0.4-0.6,0.6c0,0-0.1,0.1-0.1,0.1c-0.5,0.6-1,1.1-1.5,1.7L63.5,127.8c2.7-1.1,5.7-1.7,8.7-1.7c5.3,0,10.4,1.7,14.6,5
			c5,3.9,8.2,9.5,8.9,15.8c0.2,2,0.2,3.9,0,5.8l76.2-97.9L195.9,86L221.5,52.4z"/>
	</g>
	<g>
		<path class="st0" d="M341.7,73.3L292.1,9.2c-5.9-7.6-16.1-9.9-24.5-6.1c-3.5,1.3-6.6,3.5-9,6.7l-60.7,78.7l0,0l-87,112.8
			c-6.9,8.9-5.2,21.7,3.7,28.6c3.7,2.9,8.1,4.2,12.4,4.2c6.1,0,12.1-2.7,16.2-7.9l53.4-67.8l33.5,43.3c4,5.2,10,7.9,16.1,7.9
			c4.4,0,8.8-1.4,12.5-4.3c8.2-6.4,10.2-17.8,5-26.5l0,0.1c0,0,0,0,0,0c0,0,0-0.1-0.1-0.1c-0.4-0.7-0.8-1.3-1.3-2c0,0,0,0,0-0.1
			l-40-51.7l23.5-31.9l3.6-4.6l0,0l26.2-34l33.9,43.8c4,5.2,10,7.9,16.1,7.9c4.4,0,8.8-1.4,12.5-4.3C347,95,348.6,82.2,341.7,73.3z"
			/>
	</g>
	<g>
		<path class="st0" d="M272.9,119.2l-21.4-27.3l-24.9,33.1l25.7,34c-3.3-4.4,0.5-13.9,3-17.6C259.3,135.5,272.9,119.2,272.9,119.2"
			/>
	</g>
	<g>
		<path class="st0" d="M316.9,134.5l10.3-13.1l10,13.1H316.9z M258.1,143.4c-2.5,3.7-5.7,13.4-1.4,20.5c0.5,0.9,1.6,2.7,2.1,3.4
			c10.6,15.1,44.9,58.5,44.9,58.5c4,5.2,10.1,8,16.2,8c4.3,0,8.7-1.4,12.4-4.2c8.9-6.9,10.6-19.7,3.8-28.6l-19.7-25.7h60
			c0.4,0,0.8,0,1.1,0c0.3,0,0.7,0,1,0c4.3,0,8.7-1.4,12.4-4.2c9-6.8,10.7-19.6,3.8-28.6l-45.9-60.1c1.1,8.1-2,16.6-8.9,21.9
			c-4.2,3.2-9.1,4.9-14.4,4.9c-7.3,0-14.1-3.3-18.6-9.1l-7.3-9.4C299.6,90.7,262.1,137.6,258.1,143.4z"/>
	</g>
</g>
<g>
</g>
</svg>
