<?xml version="1.0" encoding="utf-8"?>
<!-- Generator: Adobe Illustrator 22.1.0, SVG Export Plug-In . SVG Version: 6.00 Build 0)  -->
<svg version="1.1" id="Layer_1" xmlns="http://www.w3.org/2000/svg" xmlns:xlink="http://www.w3.org/1999/xlink" x="0px" y="0px"
	 viewBox="0 0 376.8 172" style="enable-background:new 0 0 376.8 172;" xml:space="preserve">
<style type="text/css">
	.st0{fill:#FFFFFF;}
</style>
<g>
	<g>
		<g>
			<path class="st0" d="M18.6,172l-1.5-0.9C6.5,165,0,153.7,0,141.5s6.5-23.5,17-29.6l1.5-0.9l1.5,0.9c10.5,6.1,17,17.5,17,29.6
				s-6.5,23.5-17,29.6L18.6,172z M18.6,118.1c-7.7,5.2-12.4,14-12.4,23.4s4.7,18.2,12.4,23.4c7.7-5.2,12.4-14,12.4-23.4
				S26.3,123.4,18.6,118.1z"/>
		</g>
		<g>
			<g>
				<path class="st0" d="M18.6,153.4c-6.6,0-11.9-5.3-11.9-11.9s5.3-11.9,11.9-11.9s11.9,5.3,11.9,11.9S25.1,153.4,18.6,153.4z
					 M18.6,135.8c-3.2,0-5.8,2.6-5.8,5.8s2.6,5.8,5.8,5.8s5.8-2.6,5.8-5.8S21.7,135.8,18.6,135.8z"/>
			</g>
			<g>
				<circle class="st0" cx="14.5" cy="138.1" r="3.8"/>
			</g>
		</g>
	</g>
	<g>
		<g>
			<path class="st0" d="M18.6,101.3l-1.5-0.9C6.5,94.3,0,82.9,0,70.8s6.5-23.5,17-29.6l1.5-0.9l1.5,0.9c10.5,6.1,17,17.5,17,29.6
				s-6.5,23.5-17,29.6L18.6,101.3z M18.6,47.4c-7.7,5.2-12.4,14-12.4,23.4s4.7,18.2,12.4,23.4c7.7-5.2,12.4-14,12.4-23.4
				S26.3,52.6,18.6,47.4z"/>
		</g>
		<g>
			<g>
				<path class="st0" d="M18.6,82.7c-6.6,0-11.9-5.3-11.9-11.9S12,58.9,18.6,58.9s11.9,5.3,11.9,11.9S25.1,82.7,18.6,82.7z M18.6,65
					c-3.2,0-5.8,2.6-5.8,5.8s2.6,5.8,5.8,5.8s5.8-2.6,5.8-5.8S21.7,65,18.6,65z"/>
			</g>
			<g>
				<circle class="st0" cx="14.5" cy="67.4" r="3.8"/>
			</g>
		</g>
	</g>
	<g>
		<g>
			<path class="st0" d="M354.8,70.8h-13.5c-1.2,0-16-0.1-30.8-4.8c-14.6,4.5-28.9,4.7-30.1,4.8h-7.7c-1.2,0-16-0.1-30.8-4.8
				c-14.6,4.5-28.9,4.7-30.1,4.8h-6.1c-1.2,0-16-0.1-30.8-4.8c-14.6,4.5-28.9,4.7-30.1,4.8h-7.7c-1.2,0-16-0.1-30.8-4.8
				c-14.6,4.5-28.9,4.7-30.1,4.8h-25v-6.1h24.9c0.2,0,9.4-0.2,20.2-2.5C85,56.5,75.4,47.1,75.4,31.5C75.4,14.1,89.5,0,106.9,0
				c17.4,0,31.5,14.1,31.5,31.5c0,15.6-10,25.1-22,30.7c11,2.3,20.4,2.4,20.9,2.4h7.7c0.2,0,9.4-0.2,20.2-2.5
				c-11.7-5.7-21.4-15.1-21.4-30.6c0-17.4,14.1-31.5,31.5-31.5C192.8,0,207,14.1,207,31.5c0,15.6-10,25.1-22,30.7
				c11,2.3,20.4,2.4,20.9,2.4h6c0.2,0,9.4-0.2,20.2-2.5c-11.7-5.7-21.4-15.1-21.4-30.6C210.8,14.1,225,0,242.4,0
				s31.5,14.1,31.5,31.5c0,15.6-10,25.1-22,30.7c11,2.3,20.4,2.4,20.9,2.4h7.7c0.2,0,9.4-0.2,20.2-2.5
				c-11.7-5.7-21.4-15.1-21.4-30.6c0-17.4,14.1-31.5,31.5-31.5s31.5,14.1,31.5,31.5c0,15.6-10,25.1-22,30.7
				c11,2.3,20.4,2.4,20.9,2.4h13.5V70.8z M242.4,6.1c-14,0-25.4,11.4-25.4,25.4c0,12.9,8.4,22.3,25,28c13.2-4.4,25.8-12.7,25.8-28
				C267.8,17.5,256.4,6.1,242.4,6.1z M175.5,6.1c-14,0-25.4,11.4-25.4,25.4c0,12.9,8.4,22.3,25,28c13.2-4.4,25.8-12.7,25.8-28
				C200.9,17.5,189.5,6.1,175.5,6.1z M106.9,6.1c-14,0-25.4,11.4-25.4,25.4c0,12.9,8.4,22.3,25,28c13.2-4.4,25.8-12.7,25.8-28
				C132.3,17.5,120.9,6.1,106.9,6.1z M310.9,6.1c-14,0-25.4,11.4-25.4,25.4c0,12.9,8.4,22.3,25,28c13.2-4.4,25.8-12.7,25.8-28
				C336.4,17.5,325,6.1,310.9,6.1z"/>
		</g>
		<g>
			<g>
				<polygon class="st0" points="350.4,83 376.8,67.7 350.4,52.5 				"/>
			</g>
		</g>
	</g>
	<g>
		<g>
			<path class="st0" d="M354.8,145h-13.5c-1.2,0-16-0.1-30.8-4.8c-15.1,4.6-29.9,4.8-30.1,4.8h-7.7c-1.2,0-16-0.1-30.8-4.8
				c-15.1,4.6-29.9,4.8-30.1,4.8h-6c-1.2,0-16-0.1-30.8-4.8c-15.1,4.6-29.9,4.8-30.1,4.8h-7.7c-1.2,0-16-0.1-30.8-4.8
				c-15.1,4.6-29.9,4.8-30.1,4.8H51.5v-6.1h24.9c0.2,0,9.4-0.2,20.3-2.5c-11.7-5.7-21.4-15.1-21.4-30.6c0-17.4,14.1-31.5,31.5-31.5
				c17.4,0,31.5,14.1,31.5,31.5c0,13.4-7.6,23.8-22.1,30.7c11.1,2.4,20.5,2.4,21,2.4h7.7c0.2,0,9.4-0.2,20.3-2.5
				c-11.7-5.7-21.4-15.1-21.4-30.6c0-17.4,14.1-31.5,31.5-31.5c17.4,0,31.5,14.1,31.5,31.5c0,13.4-7.6,23.8-22.1,30.7
				c11.1,2.4,20.5,2.4,21,2.4h6c0.2,0,9.4-0.2,20.3-2.5c-11.7-5.7-21.4-15.1-21.4-30.6c0-17.4,14.1-31.5,31.5-31.5
				s31.5,14.1,31.5,31.5c0,13.4-7.6,23.8-22.1,30.7c11.1,2.4,20.5,2.4,21,2.4h7.7c0.2,0,9.4-0.2,20.3-2.5
				c-11.7-5.7-21.4-15.1-21.4-30.6c0-17.4,14.1-31.5,31.5-31.5s31.5,14.1,31.5,31.5c0,13.4-7.6,23.8-22.1,30.7
				c11.1,2.4,20.5,2.4,21,2.4h13.5V145z M175.5,80.3c-14,0-25.4,11.4-25.4,25.4c0,12.9,8.4,22.4,25,28c13.2-4.4,25.8-12.7,25.8-28
				C200.9,91.7,189.5,80.3,175.5,80.3z M242.4,80.3c-14,0-25.4,11.4-25.4,25.4c0,12.9,8.4,22.4,25,28c13.2-4.4,25.8-12.7,25.8-28
				C267.8,91.7,256.4,80.3,242.4,80.3z M106.9,80.3c-14,0-25.4,11.4-25.4,25.4c0,12.9,8.4,22.4,25,28c13.2-4.4,25.8-12.7,25.8-28
				C132.3,91.7,120.9,80.3,106.9,80.3z M310.9,80.3c-14,0-25.4,11.4-25.4,25.4c0,12.9,8.4,22.4,25,28c13.2-4.4,25.8-12.7,25.8-28
				C336.4,91.7,325,80.3,310.9,80.3z"/>
		</g>
		<g>
			<g>
				<polygon class="st0" points="350.4,157.2 376.8,141.9 350.4,126.6 				"/>
			</g>
		</g>
	</g>
</g>
</svg>
