<?xml version="1.0" encoding="utf-8"?>
<!-- Generator: Adobe Illustrator 22.1.0, SVG Export Plug-In . SVG Version: 6.00 Build 0)  -->
<svg version="1.1" id="Layer_1" xmlns="http://www.w3.org/2000/svg" xmlns:xlink="http://www.w3.org/1999/xlink" x="0px" y="0px"
	 viewBox="0 0 172 376.8" style="enable-background:new 0 0 172 376.8;" xml:space="preserve">
<style type="text/css">
	.st0{fill:#FFFFFF;}
</style>
<g>
	<g>
		<g>
			<path class="st0" d="M0,18.6l0.9-1.5C7,6.5,18.3,0,30.5,0S54,6.5,60.1,17l0.9,1.5L60.1,20C54,30.5,42.6,37,30.5,37S7,30.5,0.9,20
				L0,18.6z M53.9,18.6c-5.2-7.7-14-12.4-23.4-12.4S12.3,10.9,7.1,18.6c5.2,7.7,14,12.4,23.4,12.4S48.6,26.3,53.9,18.6z"/>
		</g>
		<g>
			<g>
				<path class="st0" d="M18.6,18.6c0-6.6,5.3-11.9,11.9-11.9S42.4,12,42.4,18.6s-5.3,11.9-11.9,11.9S18.6,25.1,18.6,18.6z
					 M36.2,18.6c0-3.2-2.6-5.8-5.8-5.8s-5.8,2.6-5.8,5.8s2.6,5.8,5.8,5.8S36.2,21.7,36.2,18.6z"/>
			</g>
			<g>
				<circle class="st0" cx="33.9" cy="14.5" r="3.8"/>
			</g>
		</g>
	</g>
	<g>
		<g>
			<path class="st0" d="M70.7,18.6l0.9-1.5C77.7,6.5,89.1,0,101.2,0s23.5,6.5,29.6,17l0.9,1.5l-0.9,1.5c-6.1,10.5-17.5,17-29.6,17
				s-23.5-6.5-29.6-17L70.7,18.6z M124.6,18.6c-5.2-7.7-14-12.4-23.4-12.4S83,10.9,77.8,18.6C83,26.3,91.8,31,101.2,31
				S119.4,26.3,124.6,18.6z"/>
		</g>
		<g>
			<g>
				<path class="st0" d="M89.3,18.6c0-6.6,5.3-11.9,11.9-11.9s11.9,5.3,11.9,11.9s-5.3,11.9-11.9,11.9S89.3,25.1,89.3,18.6z
					 M107,18.6c0-3.2-2.6-5.8-5.8-5.8s-5.8,2.6-5.8,5.8s2.6,5.8,5.8,5.8S107,21.7,107,18.6z"/>
			</g>
			<g>
				<circle class="st0" cx="104.6" cy="14.5" r="3.8"/>
			</g>
		</g>
	</g>
	<g>
		<g>
			<path class="st0" d="M101.2,354.8v-13.5c0-1.2,0.1-16,4.8-30.8c-4.5-14.6-4.7-28.9-4.8-30.1v-7.7c0-1.2,0.1-16,4.8-30.8
				c-4.5-14.6-4.7-28.9-4.8-30.1v-6.1c0-1.2,0.1-16,4.8-30.8c-4.5-14.6-4.7-28.9-4.8-30.1v-7.7c0-1.2,0.1-16,4.8-30.8
				c-4.5-14.6-4.7-28.9-4.8-30.1v-25h6.1v24.9c0,0.2,0.2,9.4,2.5,20.2c5.7-11.3,15.1-20.9,30.7-20.9c17.4,0,31.5,14.1,31.5,31.5
				s-14.1,31.5-31.5,31.5c-15.6,0-25.1-10-30.7-22c-2.3,11-2.4,20.4-2.4,20.9v7.7c0,0.2,0.2,9.4,2.5,20.2
				c5.7-11.7,15.1-21.4,30.6-21.4c17.4,0,31.5,14.1,31.5,31.5c0,17.5-14.1,31.7-31.5,31.7c-15.6,0-25.1-10-30.7-22
				c-2.3,11-2.4,20.4-2.4,20.9v6c0,0.2,0.2,9.4,2.5,20.2c5.7-11.7,15.1-21.4,30.6-21.4c17.4,0.1,31.5,14.3,31.5,31.7
				s-14.1,31.5-31.5,31.5c-15.6,0-25.1-10-30.7-22c-2.3,11-2.4,20.4-2.4,20.9v7.7c0,0.2,0.2,9.4,2.5,20.2
				c5.7-11.7,15.1-21.4,30.6-21.4c17.4,0,31.5,14.1,31.5,31.5s-14.1,31.5-31.5,31.5c-15.6,0-25.1-10-30.7-22
				c-2.3,11-2.4,20.4-2.4,20.9v13.5L101.2,354.8L101.2,354.8z M165.9,242.4c0-14-11.4-25.4-25.4-25.4c-12.9,0-22.3,8.4-28,25
				c4.4,13.2,12.7,25.8,28,25.8C154.5,267.8,165.9,256.4,165.9,242.4z M165.9,175.5c0-14-11.4-25.4-25.4-25.4
				c-12.9,0-22.3,8.4-28,25c4.4,13.2,12.7,25.8,28,25.8C154.5,200.9,165.9,189.5,165.9,175.5z M165.9,106.9
				c0-14-11.4-25.4-25.4-25.4c-12.9,0-22.3,8.4-28,25c4.4,13.2,12.7,25.8,28,25.8C154.5,132.3,165.9,120.9,165.9,106.9z
				 M165.9,310.9c0-14-11.4-25.4-25.4-25.4c-12.9,0-22.3,8.4-28,25c4.4,13.2,12.7,25.8,28,25.8C154.5,336.4,165.9,325,165.9,310.9z"
				/>
		</g>
		<g>
			<g>
				<polygon class="st0" points="89,350.4 104.3,376.8 119.5,350.4 				"/>
			</g>
		</g>
	</g>
	<g>
		<g>
			<path class="st0" d="M27,354.8v-13.5c0-1.2,0.1-16,4.8-30.8c-4.6-15.1-4.8-29.9-4.8-30.1v-7.7c0-1.2,0.1-16,4.8-30.8
				C27.2,226.8,27,212,27,211.8v-6c0-1.2,0.1-16,4.8-30.8c-4.6-15.1-4.8-29.9-4.8-30.1v-7.7c0-1.2,0.1-16,4.8-30.8
				C27.2,91.3,27,76.5,27,76.3V51.5h6.1v24.9c0,0.2,0.2,9.4,2.5,20.3C41.3,85,50.7,75.3,66.2,75.3c17.4,0,31.5,14.1,31.5,31.5
				s-14.1,31.5-31.5,31.5c-13.4,0-23.8-7.6-30.7-22.1c-2.4,11.1-2.4,20.5-2.4,21v7.7c0,0.2,0.2,9.4,2.5,20.3
				c5.7-11.7,15.1-21.4,30.6-21.4c17.4,0,31.5,14.1,31.5,31.5s-14.1,31.5-31.5,31.5c-13.4,0-23.8-7.6-30.7-22.1
				c-2.4,11.1-2.4,20.5-2.4,21v6c0,0.2,0.2,9.4,2.5,20.3c5.7-11.7,15.1-21.4,30.6-21.4c17.4,0,31.5,14.1,31.5,31.5
				s-14.1,31.5-31.5,31.5c-13.4,0-23.8-7.6-30.7-22.1c-2.4,11.1-2.4,20.5-2.4,21v7.7c0,0.2,0.2,9.4,2.5,20.3
				c5.7-11.7,15.1-21.4,30.6-21.4c17.4,0,31.5,14.1,31.5,31.5s-14.1,31.5-31.5,31.5c-13.4,0-23.8-7.6-30.7-22.1
				c-2.4,11.1-2.4,20.5-2.4,21v13.5H27V354.8z M91.7,175.5c0-14-11.4-25.4-25.4-25.4c-12.9,0-22.4,8.4-28,25
				c4.4,13.2,12.7,25.8,28,25.8C80.3,200.9,91.7,189.5,91.7,175.5z M91.7,242.4c0-14-11.4-25.4-25.4-25.4c-12.9,0-22.4,8.4-28,25
				c4.4,13.2,12.7,25.8,28,25.8C80.3,267.8,91.7,256.4,91.7,242.4z M91.7,106.9c0-14-11.4-25.4-25.4-25.4c-12.9,0-22.4,8.4-28,25
				c4.4,13.2,12.7,25.8,28,25.8C80.3,132.3,91.7,120.9,91.7,106.9z M91.7,310.9c0-14-11.4-25.4-25.4-25.4c-12.9,0-22.4,8.4-28,25
				c4.4,13.2,12.7,25.8,28,25.8C80.3,336.4,91.7,325,91.7,310.9z"/>
		</g>
		<g>
			<g>
				<polygon class="st0" points="14.8,350.4 30.1,376.8 45.4,350.4 				"/>
			</g>
		</g>
	</g>
</g>
</svg>
