<?xml version="1.0" encoding="utf-8"?>
<!-- Generator: Adobe Illustrator 22.1.0, SVG Export Plug-In . SVG Version: 6.00 Build 0)  -->
<svg version="1.1" id="Layer_1" xmlns="http://www.w3.org/2000/svg" xmlns:xlink="http://www.w3.org/1999/xlink" x="0px" y="0px"
	 viewBox="0 0 222.5 253.1" style="enable-background:new 0 0 222.5 253.1;" xml:space="preserve">
<g>
	<g>
		<g>
			<path d="M104,198.3h-6.1c0-60.3,43-111.8,102.2-122.6l1.1,6C144.8,92,104,141,104,198.3z"/>
		</g>
		<g>
			<g>
				<polygon points="197.8,94.7 222.5,76.8 194.6,64.3 				"/>
			</g>
		</g>
	</g>
	<g>
		<g>
			<path d="M33.5,198.3h-6.1c0-95.3,71.2-175.5,165.7-186.7l0.7,6.1C102.4,28.5,33.5,106.2,33.5,198.3z"/>
		</g>
		<g>
			<g>
				<polygon points="190.1,30.4 215.4,13.4 188,0 				"/>
			</g>
		</g>
	</g>
	<g>
		<g>
			<path d="M30.5,253.1c-12.1,0-23.5-6.5-29.6-17L0,234.6l0.9-1.5c6.1-10.5,17.5-17,29.6-17c12.1,0,23.5,6.5,29.6,17l0.9,1.5
				l-0.9,1.5C54,246.6,42.7,253.1,30.5,253.1z M7.2,234.6c5.2,7.7,14,12.4,23.4,12.4c9.4,0,18.2-4.7,23.4-12.4
				c-5.2-7.7-14-12.4-23.4-12.4C21.2,222.1,12.4,226.8,7.2,234.6z"/>
		</g>
		<g>
			<g>
				<path d="M30.5,246.5c-6.6,0-11.9-5.3-11.9-11.9s5.3-11.9,11.9-11.9s11.9,5.3,11.9,11.9S37.1,246.5,30.5,246.5z M30.5,228.8
					c-3.2,0-5.8,2.6-5.8,5.8s2.6,5.8,5.8,5.8s5.8-2.6,5.8-5.8S33.7,228.8,30.5,228.8z"/>
			</g>
			<g>
				<circle cx="33.9" cy="230.5" r="3.8"/>
			</g>
		</g>
	</g>
	<g>
		<g>
			<path d="M101.6,253.1c-12.1,0-23.5-6.5-29.6-17l-0.9-1.5l0.9-1.5c6.1-10.5,17.5-17,29.6-17s23.5,6.5,29.6,17l0.9,1.5l-0.9,1.5
				C125,246.6,113.7,253.1,101.6,253.1z M78.2,234.6c5.2,7.7,14,12.4,23.4,12.4s18.2-4.7,23.4-12.4c-5.2-7.7-14-12.4-23.4-12.4
				S83.4,226.8,78.2,234.6z"/>
		</g>
		<g>
			<g>
				<path d="M101.6,246.5c-6.6,0-11.9-5.3-11.9-11.9s5.3-11.9,11.9-11.9s11.9,5.3,11.9,11.9S108.1,246.5,101.6,246.5z M101.6,228.8
					c-3.2,0-5.8,2.6-5.8,5.8s2.6,5.8,5.8,5.8s5.8-2.6,5.8-5.8S104.7,228.8,101.6,228.8z"/>
			</g>
			<g>
				<circle cx="105" cy="230.5" r="3.8"/>
			</g>
		</g>
	</g>
</g>
</svg>
