<!-- Generator: Adobe Illustrator 22.1.0, SVG Export Plug-In  -->
<svg version="1.1"
	 xmlns="http://www.w3.org/2000/svg" xmlns:xlink="http://www.w3.org/1999/xlink" xmlns:a="http://ns.adobe.com/AdobeSVGViewerExtensions/3.0/"
	 x="0px" y="0px" width="966.9px" height="67.5px" viewBox="0 0 966.9 67.5" style="enable-background:new 0 0 966.9 67.5;"
	 xml:space="preserve">
<style type="text/css">
	.st0{fill:#F9EA31;}
	.st1{fill:#FFFFFF;}
</style>
<defs>
</defs>
<g>
	<g>
		<g>
			<rect x="796.3" y="0.1" class="st0" width="6.4" height="65.2"/>
			<rect x="859.6" y="0.1" class="st0" width="6.4" height="65.2"/>
			<path class="st0" d="M816.5,60.5l9.1-55.6h5.5h0.2h5.5l9.1,55.6h-8.8l-1.7-12.1h-4.1h-0.2H827l-1.7,12.1H816.5z M828,40.7h3.1
				h0.2h3.1l-3-23.3h-0.2H831L828,40.7z"/>
		</g>
	</g>
	<g>
		<path class="st1" d="M5.3,59.1C4.6,59.3,4,59.4,3,59.4c-2.2,0-3-1-3-3.9s0.8-3.9,3-3.9c1,0,1.5,0.1,2.1,0.2l-0.1,1
			c-0.7-0.1-1.1-0.1-2-0.1c-1.2,0-1.6,0.6-1.6,2.7c0,2,0.4,2.7,1.6,2.7c1,0,1.5,0,2.2-0.1L5.3,59.1z"/>
		<path class="st1" d="M7.9,57.1l-0.6,2.1H5.9l2.2-7.1c0.1-0.2,0.3-0.4,0.5-0.4h1.3c0.2,0,0.4,0.1,0.5,0.4l2.2,7.1h-1.4l-0.6-2.1
			H7.9z M9.6,53.4c-0.1-0.2-0.1-0.4-0.2-0.6H9.1l-0.2,0.6L8.2,56h2.1L9.6,53.4z"/>
		<path class="st1" d="M15.3,52.9c-0.5,0-0.6,0.2-0.6,0.6v1.4h2.9V56h-2.9v3.3h-1.4v-6c0-0.9,0.6-1.5,1.6-1.5c1.1,0,2.2,0,3.2,0.1
			l-0.1,1C18,52.9,15.3,52.9,15.3,52.9z"/>
		<path class="st1" d="M19.9,57.1c0.1,1,0.5,1.2,1.4,1.2c0.5,0,1.3-0.1,1.9-0.1l0.1,0.8c-0.6,0.3-1.5,0.4-2.2,0.4
			c-1.9,0-2.7-0.8-2.7-2.8c0-2.1,0.8-2.8,2.6-2.8c1.7,0,2.4,0.6,2.4,1.8c0,1-0.4,1.5-1.4,1.5C22,57.1,19.9,57.1,19.9,57.1z
			 M21.7,56.2c0.4,0,0.5-0.3,0.5-0.6c0-0.6-0.2-0.8-1.1-0.8s-1.2,0.3-1.2,1.4C19.9,56.2,21.7,56.2,21.7,56.2z"/>
		<path class="st1" d="M30.4,55.4c1.1,0.1,1.5,0.8,1.5,2c0,1.5-0.6,2-2.3,2c-1.2,0-1.7,0-2.5-0.1v-7.5c0.7-0.1,1.2-0.1,2.2-0.1
			c1.8,0,2.4,0.4,2.4,2C31.6,54.7,31.3,55.2,30.4,55.4L30.4,55.4z M29.4,55.2c1.3,0,1.8-0.3,1.8-1.5c0-1.3-0.5-1.6-2-1.6
			c-0.7,0-1.4,0-1.7,0v3.1H29.4z M27.5,58.9c0.4,0,1.2,0,2,0c1.4,0,1.9-0.3,1.9-1.6c0-1.4-0.5-1.8-2-1.8h-1.9V58.9z"/>
		<path class="st1" d="M38.6,56.5c0,2.1-0.7,2.9-2.6,2.9c-1.9,0-2.6-0.8-2.6-2.9v-4.7h0.4v4.7c0,1.9,0.6,2.5,2.2,2.5
			c1.6,0,2.1-0.7,2.1-2.5v-4.7h0.4L38.6,56.5L38.6,56.5z"/>
		<path class="st1" d="M40.5,51.8c0.7-0.1,1.6-0.1,2.5-0.1c2,0,2.8,1,2.8,3.8s-0.7,3.8-2.8,3.8c-1,0-1.8,0-2.5-0.1V51.8z M40.9,58.9
			c0.6,0,1.3,0,2.1,0c1.7,0,2.3-0.9,2.3-3.4c0-2.6-0.6-3.4-2.3-3.4c-0.8,0-1.5,0-2.1,0V58.9z"/>
		<path class="st1" d="M47.9,56.6L47,59.2h-0.5l2.6-7.3c0-0.1,0.1-0.1,0.2-0.1h0.6c0.1,0,0.2,0.1,0.2,0.1l2.6,7.3h-0.5l-0.9-2.6
			C51.3,56.6,47.9,56.6,47.9,56.6z M50,52.7l-0.2-0.6h-0.3l-0.2,0.6l-1.2,3.5h3.2L50,52.7z"/>
		<path class="st1" d="M53.8,51.8c0.8-0.1,1.3-0.1,2.4-0.1c1.6,0,2.2,0.5,2.2,2.2c0,1.8-0.6,2.2-2.2,2.2c-0.9,0-1.6,0-2-0.1v3.2
			h-0.4V51.8z M56.2,55.7c1.3,0,1.8-0.4,1.8-1.8c0-1.5-0.5-1.8-1.8-1.8c-0.9,0-1.6,0-2,0v3.7h2V55.7z"/>
		<path class="st1" d="M64.2,59.2c-1,0-2.1,0-3.2,0c-0.7,0-1.2-0.5-1.2-1.1v-5.2c0-0.7,0.5-1.1,1.2-1.1c1.1,0,2.1,0,3.2,0v0.3h-3.1
			c-0.5,0-0.8,0.3-0.8,0.8V55h3.5v0.4h-3.5V58c0,0.5,0.3,0.8,0.8,0.8h3.1V59.2z"/>
		<path class="st1" d="M66.7,55.5c-1.1-0.2-1.5-0.8-1.5-2c0-1.8,0.7-2,2.3-1.9c0.7,0,1.4,0.1,2.1,0.2v0.3c-0.6,0-1.3-0.1-2-0.1
			c-1.3,0-1.9,0-1.9,1.5c0,1,0.3,1.4,1.1,1.5l1.6,0.3c1.1,0.2,1.5,0.7,1.5,2c0,1.8-0.8,2-2.3,2c-0.6,0-1.3,0-2.2-0.1v-0.3
			c0.9,0.1,1.5,0.1,2.2,0.1c1.4,0,1.9-0.2,1.9-1.6c0-1.1-0.3-1.5-1.2-1.6L66.7,55.5z"/>
		<path class="st1" d="M73.7,52.1v7.1h-0.4v-7.1h-2.6v-0.4h5.6v0.4H73.7z"/>
		<path class="st1" d="M0.7,65.4c0,0.2,0,0.3,0,0.4v1.4H0.5v-3.7h0.2v1.2c0,0.2,0,0.3,0,0.4h0.6l1.3-1.7h0.3L1.7,65
			c0,0.1-0.1,0.1-0.1,0.2l0,0c0,0,0.1,0.1,0.2,0.2l1.3,1.8H2.6l-1.3-1.8C1.3,65.4,0.7,65.4,0.7,65.4z"/>
		<path class="st1" d="M6,65.4c0,1.4-0.4,1.9-1.4,1.9s-1.4-0.5-1.4-1.9s0.4-1.9,1.4-1.9S6,64,6,65.4z M3.4,65.4
			c0,1.3,0.3,1.7,1.2,1.7s1.2-0.4,1.2-1.7s-0.3-1.7-1.2-1.7S3.4,64.1,3.4,65.4z"/>
		<path class="st1" d="M9,67.2L8.6,66c-0.1-0.3-0.3-0.5-0.6-0.5c-0.5,0-0.8,0-1,0v1.7H6.8v-3.7c0.4,0,0.6,0,1.2,0
			c0.8,0,1.1,0.2,1.1,1.1c0,0.7-0.2,0.9-0.7,1l0,0c0.2,0.1,0.3,0.3,0.4,0.5l0.4,1.2L9,67.2L9,67.2z M8,65.4c0.6,0,0.9-0.2,0.9-0.9
			c0-0.7-0.2-0.9-0.9-0.9c-0.4,0-0.8,0-1,0v1.7h1C8,65.3,8,65.4,8,65.4z"/>
		<path class="st1" d="M11,63.7v3.5h-0.2v-3.5H9.5v-0.2h2.8v0.2C12.3,63.7,11,63.7,11,63.7z"/>
		<path class="st1" d="M12.8,65.9l-0.5,1.3h-0.2l1.3-3.7l0.1-0.1h0.3c0,0,0.1,0,0.1,0.1l1.3,3.7H15l-0.5-1.3H12.8z M13.8,64
			l-0.1-0.3h-0.2L13.4,64l-0.6,1.7h1.6L13.8,64z M13.3,63.2l0.8-0.8l0.1,0.2l-0.9,0.7L13.3,63.2z"/>
		<path class="st1" d="M17.9,67.2L17.5,66c-0.1-0.3-0.3-0.5-0.6-0.5c-0.5,0-0.8,0-1,0v1.7h-0.2v-3.7c0.4,0,0.6,0,1.2,0
			c0.8,0,1.1,0.2,1.1,1.1c0,0.7-0.2,0.9-0.7,1l0,0c0.2,0.1,0.3,0.3,0.4,0.5l0.4,1.2L17.9,67.2L17.9,67.2z M16.9,65.4
			c0.6,0,0.9-0.2,0.9-0.9c0-0.7-0.2-0.9-0.9-0.9c-0.4,0-0.8,0-1,0v1.7h1V65.4z"/>
		<path class="st1" d="M19.4,65.4c-0.5-0.1-0.7-0.4-0.7-1c0-0.9,0.4-1,1.1-1c0.3,0,0.7,0,1,0.1v0.2c-0.3,0-0.7,0-1,0
			c-0.6,0-0.9,0-0.9,0.8c0,0.5,0.2,0.7,0.6,0.8l0.8,0.1c0.6,0.1,0.7,0.4,0.7,1c0,0.9-0.4,1-1.2,1c-0.3,0-0.6,0-1.1-0.1v-0.2
			c0.5,0,0.7,0,1.1,0c0.7,0,0.9-0.1,0.9-0.8c0-0.5-0.2-0.7-0.6-0.8L19.4,65.4z"/>
		<path class="st1" d="M26.7,63.6c0.1,0,0.1,0,0.1,0.1l0.2,3.6h-0.2l-0.2-3.5h-0.1l-1.1,3.1L25.3,67H25c-0.1,0-0.1,0-0.1-0.1
			l-1.1-3.1h-0.1l-0.2,3.5h-0.2l0.2-3.6c0-0.1,0-0.1,0.1-0.1h0.3c0.1,0,0.1,0,0.1,0.1l0.9,2.6c0.1,0.2,0.1,0.3,0.2,0.5h0.1l0.2-0.5
			l0.9-2.6l0.1-0.1C26.4,63.6,26.7,63.6,26.7,63.6z"/>
		<path class="st1" d="M30.4,65.9c0,1-0.3,1.5-1.3,1.5s-1.3-0.4-1.3-1.5v-2.3H28v2.3c0,0.9,0.3,1.3,1.1,1.3c0.8,0,1.1-0.3,1.1-1.3
			v-2.3h0.2C30.4,63.6,30.4,65.9,30.4,65.9z M28.6,63.4l-0.1-0.1l0.6-0.9l0.2,0.1L28.6,63.4z M29.4,63.4l-0.1-0.1l0.6-0.9l0.2,0.1
			L29.4,63.4z"/>
		<path class="st1" d="M32.6,67.3L32.6,67.3l-0.4,0.1c0,0-0.1,0-0.1-0.1l-1.2-3.7h0.2l1,3.1c0,0.1,0.1,0.3,0.1,0.4h0.2
			c0-0.1,0.1-0.3,0.1-0.4l1-3.1h0.2L32.6,67.3z"/>
		<path class="st1" d="M36.5,67.3c-0.5,0-1.1,0-1.6,0c-0.4,0-0.6-0.2-0.6-0.6v-2.6c0-0.3,0.2-0.6,0.6-0.6c0.5,0,1.1,0,1.6,0v0.2H35
			c-0.2,0-0.4,0.2-0.4,0.4v1h1.7v0.2h-1.7v1.3c0,0.3,0.2,0.4,0.4,0.4h1.5V67.3z M35.3,63.1l0.8-0.8l0.1,0.2l-0.9,0.7L35.3,63.1z"/>
		<path class="st1" d="M37.8,65.5c-0.5-0.1-0.7-0.4-0.7-1c0-0.9,0.4-1,1.1-1c0.3,0,0.7,0,1,0.1v0.2c-0.3,0-0.7,0-1,0
			c-0.6,0-0.9,0-0.9,0.8C37.3,65.1,37.5,65.3,37.8,65.5h0.9c0.6,0.1,0.7,0.4,0.7,1c0,0.9-0.4,1-1.2,1c-0.3,0-0.6,0-1.1-0.1v-0.2
			c0.5,0,0.7,0,1.1,0c0.7,0,0.9-0.1,0.9-0.8c0-0.6-0.2-0.7-0.6-0.8L37.8,65.5z"/>
		<path class="st1" d="M42.4,67.3h-2.5v-0.2l2.2-3.3h-2.2v-0.2h2.4v0.2l-2.2,3.3h2.2L42.4,67.3L42.4,67.3z"/>
		<path class="st1" d="M45.2,67.3c-0.5,0-1.1,0-1.6,0c-0.4,0-0.6-0.2-0.6-0.6v-2.6c0-0.3,0.2-0.6,0.6-0.6c0.5,0,1.1,0,1.6,0v0.2
			h-1.5c-0.2,0-0.4,0.2-0.4,0.4v1H45v0.2h-1.7v1.3c0,0.3,0.2,0.4,0.4,0.4h1.5V67.3z"/>
		<path class="st1" d="M47.1,63.8v3.5h-0.2v-3.5h-1.3v-0.2h2.8v0.2C48.4,63.8,47.1,63.8,47.1,63.8z"/>
		<path class="st1" d="M48.9,67.3v-3.7h0.2v3.7H48.9z"/>
		<path class="st1" d="M52.7,63.8c-0.3,0-0.4,0.2-0.4,0.4v1.1H54v0.2h-1.7v1.9H52v-3.1c0-0.3,0.2-0.6,0.6-0.6c0.5,0,1,0,1.5,0v0.2
			L52.7,63.8L52.7,63.8z"/>
		<path class="st1" d="M56.9,67.3c-0.5,0-1.1,0-1.6,0c-0.4,0-0.6-0.2-0.6-0.6v-2.6c0-0.3,0.2-0.6,0.6-0.6c0.5,0,1.1,0,1.6,0v0.2
			h-1.5c-0.2,0-0.4,0.2-0.4,0.4v1h1.7v0.2H55v1.3c0,0.3,0.2,0.4,0.4,0.4h1.5V67.3z"/>
		<path class="st1" d="M58.2,65.5c-0.5-0.1-0.7-0.4-0.7-1c0-0.9,0.4-1,1.1-1c0.3,0,0.7,0,1,0.1v0.2c-0.3,0-0.7,0-1,0
			c-0.6,0-0.9,0-0.9,0.8C57.7,65.1,57.9,65.3,58.2,65.5h0.9c0.5,0.1,0.7,0.4,0.7,1c0,0.9-0.4,1-1.2,1c-0.3,0-0.6,0-1.1-0.1v-0.2
			c0.5,0,0.7,0,1.1,0c0.7,0,0.9-0.1,0.9-0.8c0-0.6-0.2-0.7-0.6-0.8L58.2,65.5z"/>
		<path class="st1" d="M62.8,67.3h-2.5v-0.2l2.2-3.3h-2.2v-0.2h2.4v0.2l-2.2,3.3h2.2L62.8,67.3L62.8,67.3z"/>
		<path class="st1" d="M64.6,63.8v3.5h-0.2v-3.5h-1.3v-0.2h2.8v0.2C65.9,63.8,64.6,63.8,64.6,63.8z"/>
		<path class="st1" d="M66.4,67.3v-3.7h0.2v3.7H66.4z"/>
		<path class="st1" d="M68.9,67.2L68.9,67.2l-0.4,0.1c0,0-0.1,0-0.1-0.1l-1.2-3.7h0.2l1,3.1c0,0.1,0.1,0.3,0.1,0.4h0.2
			c0-0.1,0.1-0.3,0.1-0.4l1-3.1H70L68.9,67.2z"/>
		<path class="st1" d="M70.8,66l-0.5,1.3h-0.2l1.3-3.7l0.1-0.1h0.3c0,0,0.1,0,0.1,0.1l1.3,3.7H73L72.5,66H70.8z M71.8,64.1l-0.1-0.3
			h-0.2l-0.1,0.3l-0.6,1.7h1.6L71.8,64.1z M71.4,63.2l0.8-0.8l0.1,0.2l-0.9,0.7V63.2z"/>
		<path class="st1" d="M73.9,66.7c0,0.3,0.2,0.4,0.4,0.4h1.4v0.2c-0.5,0-1,0-1.5,0c-0.4,0-0.6-0.2-0.6-0.6v-3.1h0.2L73.9,66.7
			L73.9,66.7z"/>
		<path class="st1" d="M57.4,1.8"/>
		<path class="st1" d="M67.2,14.4"/>
		<g>
			<path class="st1" d="M11.1,26.9l-2.6,3.4l0,0V15.4l2.7,3.4c0.8,1,2,1.5,3.1,1.5c0.9,0,1.8-0.3,2.5-0.9c1.7-1.4,2-3.9,0.6-5.6
				l-9.6-12C7.7,1.6,7.6,1.5,7.5,1.4C6.8,0.6,5.7,0,4.4,0c-2.2,0-4,1.8-4,4v38l0,0l0,0v0.1v0.1v0.1v0.1c0,0,0,0,0,0.1v0.1l0,0
				c0,0.1,0,0.1,0,0.1l0,0c0,0.1,0,0.1,0,0.2l0,0c0,0.1,0,0.1,0,0.2l0,0c0,0.1,0,0.1,0.1,0.2l0,0c0,0,0,0.1,0.1,0.1c0,0,0,0,0,0.1
				v0.1v0.1c0,0,0,0,0,0.1l0,0l0,0l0,0c0,0,0,0.1,0.1,0.1l0,0L0.8,44l0,0l0.1,0.1l0,0L1,44.2l0,0l0,0l0,0l0,0l0.1,0.1l0,0l0.1,0.1
				c0,0,0,0,0.1,0.1l0.1,0.1c0,0,0,0,0.1,0.1c0,0,0,0,0.1,0.1l0.1,0.1l0,0l0,0l0,0l0,0c0,0,0.1,0,0.1,0.1c0,0,0,0,0.1,0
				c0,0,0.1,0,0.1,0.1c0,0,0,0,0.1,0h0.1h0.1c0,0,0,0,0.1,0l0,0l0,0l0,0c0,0,0.1,0,0.1,0.1l0,0c0,0,0.1,0,0.1,0.1c0,0,0,0,0.1,0h0.1
				c0,0,0,0,0.1,0H3c0,0,0,0,0.1,0h0.1c0,0,0,0,0.1,0s0.2,0.1,0.4,0.1l0,0h0.1l0,0c0.1,0,0.1,0,0.2,0l0,0c0.1,0,0.1,0,0.2,0l0,0l0,0
				l0,0l0,0c0.1,0,0.1,0,0.2,0l0,0c0.1,0,0.1,0,0.2,0l0,0c0.1,0,0.1,0,0.2,0l0,0h0.1l0,0l0,0l0,0c0.1,0,0.1,0,0.2,0l0,0
				c0.1,0,0.1,0,0.2-0.1l0,0c0.1,0,0.1,0,0.2-0.1l0,0c0.1,0,0.1-0.1,0.2-0.1l0,0c0.1,0,0.1-0.1,0.2-0.1c0,0,0.1,0,0.1-0.1
				c0,0,0.1,0,0.1-0.1c0,0,0.1,0,0.1-0.1c0,0,0,0,0.1,0c0,0,0.1,0,0.1-0.1c0,0,0,0,0.1,0l0.1-0.1c0,0,0,0,0.1,0l0.1-0.1l0.1-0.1l0,0
				l0,0l0,0l0,0L7,44.2c0,0,0,0,0-0.1L7.1,44l0,0l0,0l9.8-12.6c1.4-1.7,1.1-4.3-0.7-5.6C15,24.9,12.4,25.2,11.1,26.9"/>
			<path class="st1" d="M43.5,10.3L37,1.8c-0.1-0.1-0.2-0.2-0.3-0.3l-0.1-0.1l0,0c-0.3-0.2-0.5-0.4-0.8-0.6l0,0
				c-0.1,0-0.1-0.1-0.2-0.1h-0.1h-0.1c0,0-0.1,0-0.1-0.1l0,0c-0.1,0-0.1,0-0.2-0.1l0,0c-0.1,0-0.1,0-0.2-0.1l0,0c-0.1,0-0.1,0-0.2,0
				l0,0c-0.1,0-0.1,0-0.2,0l0,0c-0.1,0-0.1,0-0.2,0l0,0h-0.1l0,0h-0.1H34h-0.1h-0.1c0,0,0,0-0.1,0h-0.1l0,0c-0.1,0-0.1,0-0.2,0l0,0
				c-0.1,0-0.1,0-0.2,0l0,0c-0.2,0-0.4,0.1-0.6,0.1l0,0c-0.1,0-0.1,0-0.2,0.1l0,0c0,0-0.1,0-0.1,0.1h-0.1h-0.1
				c-0.1,0-0.1,0.1-0.2,0.1l0,0c-0.3,0.2-0.6,0.4-0.8,0.6L31,1.5l0,0c-0.1,0.1-0.2,0.2-0.3,0.3L12.5,25.1c0.5-0.2,1.1-0.3,1.7-0.3
				c1,0,2,0.3,2.9,1c1,0.8,1.6,1.9,1.8,3.1c0,0.4,0,0.8,0,1.1l15-19.2l4.7,6.1L43.5,10.3z"/>
			<path class="st1" d="M67.2,14.4L57.4,1.8c-1.2-1.5-3.2-1.9-4.8-1.2c-0.7,0.3-1.3,0.7-1.8,1.3L38.9,17.4l0,0L21.8,39.6
				c-1.4,1.8-1,4.3,0.7,5.6c0.7,0.6,1.6,0.8,2.4,0.8c1.2,0,2.4-0.5,3.2-1.6l10.5-13.3l6.6,8.5c0.8,1,2,1.6,3.2,1.6
				c0.9,0,1.7-0.3,2.5-0.8c1.6-1.3,2-3.5,1-5.2l0,0l0,0l0,0c-0.1-0.1-0.2-0.3-0.3-0.4l0,0l-7.9-10.2l4.6-6.3l0.7-0.9l0,0l5.2-6.7
				l6.7,8.6c0.8,1,2,1.6,3.2,1.6c0.9,0,1.7-0.3,2.5-0.8C68.2,18.7,68.5,16.2,67.2,14.4z"/>
			<path class="st1" d="M53.6,23.4L49.4,18l-4.9,6.5l5.1,6.7c-0.7-0.9,0.1-2.7,0.6-3.5C51,26.6,53.6,23.4,53.6,23.4"/>
			<path class="st1" d="M62.3,26.4l2-2.6l2,2.6H62.3z M50.7,28.2c-0.5,0.7-1.1,2.6-0.3,4c0.1,0.2,0.3,0.5,0.4,0.7
				c2.1,3,8.8,11.5,8.8,11.5c0.8,1,2,1.6,3.2,1.6c0.9,0,1.7-0.3,2.4-0.8c1.8-1.3,2.1-3.9,0.7-5.6L62,34.5h12c0.1,0,0.2,0,0.2,0
				c0.1,0,0.1,0,0.2,0c0.8,0,1.7-0.3,2.4-0.8c1.8-1.3,2.1-3.9,0.8-5.6l-9-11.8c0.2,1.6-0.4,3.3-1.7,4.3c-0.8,0.6-1.8,1-2.8,1
				c-1.4,0-2.8-0.7-3.7-1.8L59,17.9C58.9,17.8,51.5,27,50.7,28.2z"/>
		</g>
	</g>
	<g>
		<g>
			<g>
				<path class="st0" d="M484.1,43.1c-2.5,0-4.7-0.9-6.5-2.7s-2.7-4-2.7-6.5s0.9-4.7,2.7-6.5c1.8-1.8,4-2.7,6.5-2.7
					c2.1,0,4,0.6,5.6,1.9c0.2,0.1,0.3,0.3,0.3,0.5s0,0.4-0.2,0.6c-0.1,0.2-0.3,0.3-0.5,0.3s-0.4,0-0.6-0.2c-1.4-1.1-2.9-1.6-4.7-1.6
					c-2.1,0-3.9,0.7-5.4,2.2s-2.2,3.3-2.2,5.4s0.7,3.9,2.2,5.4s3.3,2.2,5.4,2.2c2,0,3.7-0.7,5.2-2c0.2-0.1,0.3-0.2,0.6-0.2
					c0.2,0,0.4,0.1,0.5,0.3s0.2,0.3,0.2,0.6c0,0.2-0.1,0.4-0.3,0.5C488.5,42.3,486.4,43.1,484.1,43.1z"/>
				<path class="st0" d="M494.3,43.1c-0.2,0-0.4-0.1-0.5-0.2c-0.2-0.1-0.2-0.3-0.2-0.5V25.5c0-0.2,0.1-0.4,0.2-0.5
					c0.2-0.2,0.3-0.2,0.5-0.2h10.2c0.2,0,0.4,0.1,0.5,0.2c0.2,0.2,0.2,0.3,0.2,0.5s-0.1,0.4-0.2,0.6c-0.1,0.1-0.3,0.2-0.5,0.2h-9.4
					v6.9h7c0.2,0,0.4,0.1,0.5,0.2c0.2,0.1,0.2,0.3,0.2,0.5s-0.1,0.4-0.2,0.5c-0.1,0.2-0.3,0.2-0.5,0.2h-7v6.9h9.4
					c0.2,0,0.4,0.1,0.5,0.2c0.2,0.1,0.2,0.3,0.2,0.5s-0.1,0.4-0.2,0.5c-0.1,0.2-0.3,0.2-0.5,0.2h-10.2V43.1z"/>
				<path class="st0" d="M521.5,42.8L521.5,42.8L521.5,42.8l-11.7-15.1v14.6c0,0.2-0.1,0.4-0.2,0.5c-0.1,0.2-0.3,0.2-0.5,0.2
					s-0.4-0.1-0.5-0.2c-0.2-0.1-0.2-0.3-0.2-0.5V25.4c0-0.4,0.2-0.6,0.5-0.7s0.6,0,0.9,0.3l11.7,15.1V25.4c0-0.2,0.1-0.4,0.2-0.5
					c0.2-0.2,0.3-0.2,0.5-0.2s0.4,0.1,0.6,0.2c0.1,0.1,0.2,0.3,0.2,0.5v16.9c0,0,0,0,0,0.1v0.1c0,0,0,0,0,0.1v0.1c0,0,0,0,0,0.1
					c0,0,0,0,0,0.1c0,0,0,0,0,0.1c0,0,0,0-0.1,0.1c0,0,0,0-0.1,0.1c0,0-0.1,0,0,0l0,0l0,0h-0.1c0,0,0,0-0.1,0h-0.1c0,0,0,0-0.1,0
					s-0.1,0-0.1,0c-0.1,0-0.1,0-0.2,0H522h-0.1c0,0,0,0-0.1,0c0,0-0.1,0-0.1-0.1C521.6,42.9,521.6,42.9,521.5,42.8
					C521.6,42.9,521.6,42.9,521.5,42.8C521.6,42.9,521.5,42.8,521.5,42.8z"/>
				<path class="st0" d="M531.3,26.2h-5.1c-0.2,0-0.4-0.1-0.6-0.2c-0.1-0.1-0.2-0.3-0.2-0.5s0.1-0.4,0.2-0.5
					c0.2-0.2,0.3-0.2,0.6-0.2h11.6c0.2,0,0.4,0.1,0.5,0.2c0.2,0.1,0.2,0.3,0.2,0.5s-0.1,0.4-0.2,0.5c-0.1,0.1-0.3,0.2-0.5,0.2h-5.1
					v16.1c0,0.2-0.1,0.4-0.2,0.6c-0.2,0.1-0.3,0.2-0.6,0.2c-0.2,0-0.4-0.1-0.5-0.2c-0.1-0.2-0.2-0.3-0.2-0.6L531.3,26.2L531.3,26.2z
					"/>
				<path class="st0" d="M547.7,24.7c1.5,0,2.7,0.5,3.8,1.4c1,1,1.6,2.1,1.6,3.5c0,1.2-0.4,2.3-1.3,3.2c-0.8,0.9-1.9,1.5-3.2,1.7
					l3.7,7.4c0.1,0.2,0.1,0.4,0,0.6c-0.1,0.2-0.2,0.3-0.4,0.4c-0.1,0.1-0.2,0.1-0.3,0.1c-0.3,0-0.5-0.1-0.7-0.4l-4-8h-4.3v7.6
					c0,0.2-0.1,0.4-0.2,0.5c-0.1,0.1-0.3,0.2-0.5,0.2s-0.4-0.1-0.5-0.2c-0.1-0.2-0.2-0.3-0.2-0.5V25.5c0-0.2,0.1-0.4,0.2-0.5
					c0.2-0.1,0.3-0.2,0.5-0.2L547.7,24.7L547.7,24.7z M551.6,29.7c0-0.9-0.4-1.8-1.1-2.4c-0.8-0.7-1.7-1-2.7-1h-5v6.9h5.1
					c1,0,1.9-0.4,2.7-1C551.2,31.4,551.6,30.6,551.6,29.7z"/>
				<path class="st0" d="M568,24.8c0.2,0,0.4,0.1,0.5,0.2s0.2,0.3,0.2,0.5v11.3c0,1.7-0.6,3.2-1.8,4.4s-2.7,1.8-4.4,1.8
					s-3.2-0.6-4.4-1.8s-1.8-2.7-1.8-4.4V25.5c0-0.2,0.1-0.4,0.2-0.5c0.1-0.1,0.3-0.2,0.5-0.2s0.4,0.1,0.5,0.2s0.2,0.3,0.2,0.5v11.3
					c0,1.3,0.5,2.5,1.4,3.4s2.1,1.4,3.4,1.4c1.3,0,2.4-0.5,3.4-1.4c0.9-0.9,1.4-2.1,1.4-3.4V25.5c0-0.2,0.1-0.4,0.2-0.5
					C567.6,24.8,567.8,24.8,568,24.8z"/>
				<path class="st0" d="M574.3,42.3c0,0.2-0.1,0.4-0.2,0.6c-0.2,0.1-0.3,0.2-0.5,0.2s-0.4-0.1-0.6-0.2c-0.1-0.2-0.2-0.3-0.2-0.6
					V25.5c0-0.4,0.2-0.6,0.6-0.7c0.4-0.1,0.7,0,0.9,0.3l7.6,12.6l7.6-12.6c0.2-0.3,0.5-0.4,0.9-0.3s0.6,0.3,0.6,0.7v16.8
					c0,0.2-0.1,0.4-0.2,0.6c-0.1,0.1-0.3,0.2-0.5,0.2s-0.4-0.1-0.5-0.2c-0.1-0.2-0.2-0.3-0.2-0.6v-14l-6.9,11.4l0,0l0,0
					c0,0,0,0-0.1,0.1c0,0,0,0-0.1,0.1c0,0,0,0-0.1,0.1c0,0,0,0-0.1,0.1c0,0-0.1,0,0,0l0,0h-0.1c0,0,0,0-0.1,0H582c0,0,0,0-0.1,0
					h-0.1h-0.1c0,0,0,0-0.1,0h-0.1c0,0,0,0-0.1,0h-0.1l0,0l0,0l0,0c0,0,0,0-0.1-0.1c0,0,0,0-0.1-0.1c0,0,0,0-0.1-0.1
					c0,0,0,0-0.1-0.1l0,0l0,0L574,28.3v14H574.3z"/>
			</g>
			<g>
				<g>
					<path class="st0" d="M608.9,25c1.5,0,2.7,0.5,3.7,1.4s1.5,2.1,1.5,3.4s-0.5,2.4-1.4,3.3c-1,0.9-2.1,1.4-3.5,1.5h-0.1H609l0,0
						l0,0h-5V42c0,0.2-0.1,0.4-0.2,0.5c-0.1,0.1-0.3,0.2-0.5,0.2s-0.4-0.1-0.5-0.2c-0.1-0.1-0.2-0.3-0.2-0.5V25.7
						c0-0.2,0.1-0.4,0.2-0.5c0.1-0.1,0.3-0.2,0.5-0.2H608.9z M609,33.2c1,0,1.9-0.4,2.6-1c0.7-0.7,1.1-1.4,1.1-2.4
						c0-0.9-0.4-1.7-1.1-2.4c-0.7-0.7-1.6-1-2.7-1H604v6.7L609,33.2L609,33.2z"/>
					<path class="st0" d="M623.9,25c1.4,0,2.7,0.5,3.7,1.4s1.5,2.1,1.5,3.4c0,1.2-0.4,2.2-1.2,3.1c-0.8,0.9-1.8,1.4-3.1,1.6l3.6,7.2
						c0.1,0.2,0.1,0.4,0,0.6c-0.1,0.2-0.2,0.3-0.4,0.4c-0.1,0-0.2,0.1-0.3,0.1c-0.3,0-0.5-0.1-0.7-0.4l-3.9-7.8H619V42
						c0,0.2-0.1,0.4-0.2,0.5c-0.1,0.1-0.3,0.2-0.5,0.2s-0.4-0.1-0.5-0.2c-0.1-0.1-0.2-0.3-0.2-0.5V25.7c0-0.2,0.1-0.4,0.2-0.5
						c0.1-0.1,0.3-0.2,0.5-0.2H623.9z M627.6,29.8c0-0.9-0.4-1.7-1.1-2.4c-0.7-0.7-1.6-1-2.6-1H619v6.7h5c1,0,1.9-0.3,2.6-1
						C627.3,31.5,627.6,30.7,627.6,29.8z"/>
					<path class="st0" d="M640,42.9c-2.5,0-4.6-0.9-6.3-2.6c-1.7-1.7-2.6-3.9-2.6-6.3s0.9-4.6,2.6-6.3c1.7-1.7,3.9-2.6,6.3-2.6
						c2.5,0,4.6,0.9,6.3,2.6s2.6,3.9,2.6,6.3s-0.9,4.6-2.6,6.3C644.6,42,642.5,42.9,640,42.9z M640,26.5c-2.1,0-3.8,0.7-5.3,2.2
						s-2.2,3.2-2.2,5.3s0.7,3.8,2.2,5.3s3.2,2.2,5.3,2.2s3.8-0.7,5.3-2.2s2.2-3.2,2.2-5.3s-0.7-3.8-2.2-5.3S642,26.5,640,26.5z"/>
					<path class="st0" d="M653.5,42.9c-0.2,0-0.4-0.1-0.5-0.2c-0.1-0.1-0.2-0.3-0.2-0.5V25.7c0-0.2,0.1-0.4,0.2-0.5
						c0.1-0.1,0.3-0.2,0.5-0.2h4.2c2.5,0,4.6,0.9,6.3,2.6s2.6,3.8,2.6,6.3s-0.9,4.6-2.6,6.3c-1.7,1.7-3.8,2.6-6.3,2.6L653.5,42.9
						L653.5,42.9z M654.2,41.4h3.4c2.1,0,3.8-0.7,5.3-2.2s2.2-3.2,2.2-5.2s-0.7-3.8-2.2-5.2c-1.5-1.4-3.2-2.2-5.2-2.2h-3.4
						L654.2,41.4L654.2,41.4z"/>
					<path class="st0" d="M681.6,25c0.2,0,0.4,0.1,0.5,0.2s0.2,0.3,0.2,0.5v11c0,1.7-0.6,3.1-1.8,4.3s-2.6,1.8-4.3,1.8
						s-3.1-0.6-4.3-1.8s-1.8-2.6-1.8-4.3v-11c0-0.2,0.1-0.4,0.2-0.5c0.1-0.1,0.3-0.2,0.5-0.2s0.4,0.1,0.5,0.2s0.2,0.3,0.2,0.5v11
						c0,1.3,0.5,2.4,1.4,3.3c0.9,0.9,2,1.4,3.3,1.4s2.4-0.5,3.3-1.4c0.9-0.9,1.4-2,1.4-3.3v-11c0-0.2,0.1-0.4,0.2-0.5
						C681.2,25.1,681.4,25,681.6,25z"/>
					<path class="st0" d="M693.9,42.9c-2.5,0-4.6-0.9-6.3-2.6c-1.8-1.7-2.6-3.9-2.6-6.3c0-2.5,0.9-4.6,2.6-6.3
						c1.7-1.8,3.9-2.6,6.3-2.6c2,0,3.9,0.6,5.5,1.9c0.2,0.1,0.3,0.3,0.3,0.5s0,0.4-0.1,0.5c-0.1,0.2-0.3,0.3-0.5,0.3s-0.4,0-0.5-0.1
						c-1.3-1-2.9-1.5-4.5-1.5c-2.1,0-3.8,0.7-5.3,2.2s-2.2,3.2-2.2,5.3c0,2.1,0.7,3.8,2.2,5.3s3.2,2.2,5.3,2.2c1.9,0,3.6-0.6,5-1.9
						c0.1-0.1,0.3-0.2,0.5-0.2s0.4,0.1,0.5,0.2c0.1,0.1,0.2,0.3,0.2,0.5s-0.1,0.4-0.2,0.5C698.3,42.1,696.3,42.9,693.9,42.9z"/>
					<path class="st0" d="M707.2,26.5h-4.9c-0.2,0-0.4-0.1-0.5-0.2s-0.2-0.3-0.2-0.5s0.1-0.4,0.2-0.5c0.1-0.1,0.3-0.2,0.5-0.2h11.3
						c0.2,0,0.4,0.1,0.5,0.2s0.2,0.3,0.2,0.5s-0.1,0.4-0.2,0.5c-0.1,0.1-0.3,0.2-0.5,0.2h-4.9v15.6c0,0.2-0.1,0.4-0.2,0.5
						c-0.1,0.1-0.3,0.2-0.5,0.2s-0.4-0.1-0.5-0.2c-0.1-0.1-0.2-0.3-0.2-0.5L707.2,26.5L707.2,26.5z"/>
					<path class="st0" d="M718.3,42.1c0,0.2-0.1,0.4-0.2,0.5c-0.1,0.1-0.3,0.2-0.5,0.2s-0.4-0.1-0.5-0.2c-0.1-0.1-0.2-0.3-0.2-0.5
						V25.8c0-0.2,0.1-0.4,0.2-0.5c0.1-0.1,0.3-0.2,0.5-0.2s0.4,0.1,0.5,0.2s0.2,0.3,0.2,0.5V42.1z"/>
					<path class="st0" d="M730.2,42.9c-2.5,0-4.6-0.9-6.3-2.6c-1.7-1.7-2.6-3.9-2.6-6.3s0.9-4.6,2.6-6.3c1.7-1.7,3.9-2.6,6.3-2.6
						c2.5,0,4.6,0.9,6.3,2.6s2.6,3.9,2.6,6.3s-0.9,4.6-2.6,6.3C734.7,42,732.6,42.9,730.2,42.9z M730.2,26.5c-2.1,0-3.8,0.7-5.3,2.2
						s-2.2,3.2-2.2,5.3s0.7,3.8,2.2,5.3s3.2,2.2,5.3,2.2s3.8-0.7,5.3-2.2s2.2-3.2,2.2-5.3s-0.7-3.8-2.2-5.3S732.2,26.5,730.2,26.5z"
						/>
					<path class="st0" d="M755.8,42.6L755.8,42.6L755.8,42.6l-11.4-14.7v14.2c0,0.2-0.1,0.4-0.2,0.5c-0.1,0.1-0.3,0.2-0.5,0.2
						s-0.4-0.1-0.5-0.2c-0.1-0.1-0.2-0.3-0.2-0.5V25.7c0-0.4,0.2-0.6,0.5-0.7s0.6,0,0.8,0.2l11.4,14.7V25.7c0-0.2,0.1-0.4,0.2-0.5
						c0.1-0.1,0.3-0.2,0.5-0.2s0.4,0.1,0.5,0.2s0.2,0.3,0.2,0.5v16.4l0,0c0,0,0,0,0,0.1c0,0,0,0,0,0.1v0.1c0,0,0,0,0,0.1
						c0,0,0,0,0,0.1c0,0,0,0,0,0.1c0,0,0,0,0,0.1l0,0c0,0-0.1,0,0,0l0,0l0,0c0,0,0,0-0.1,0l0,0h-0.1l0,0h-0.1h-0.1l0,0h-0.1l0,0
						h-0.1C755.9,42.7,755.9,42.7,755.8,42.6C755.9,42.6,755.9,42.6,755.8,42.6C755.9,42.6,755.9,42.6,755.8,42.6z"/>
				</g>
			</g>
		</g>
		<path class="st0" d="M456.9,31.6l-20.6-11.9c-0.9-0.5-2.1-0.5-3,0s-1.5,1.5-1.5,2.6v11.9c0,0.2-0.1,1.1-0.1,1.6
			c-0.3,2.2-1.5,3.9-3.9,5.3c-2.2,1.3-5,1.4-7.2,0.3c-2.2-1-3.9-3.1-4.4-5.5s0.2-5.1,1.9-7c1.7-1.9,4.4-2.9,6.9-2.5
			c1.6,0.2,3.1-0.9,3.4-2.6c0.2-1.6-0.9-3.1-2.6-3.4c-4.5-0.6-9.1,1.1-12.1,4.4s-4.2,7.9-3.3,12.2c0.9,4.2,3.8,7.8,7.7,9.6
			c1.8,0.9,3.8,1.3,5.8,1.3c2.4,0,4.8-0.6,6.9-1.9c4-2.3,6.3-5.7,6.8-9.7c0-0.4,0.2-1.6,0.2-2.3v-6.8l11.6,6.7l-7.3,4.2
			c-1.4,0.8-1.9,2.7-1.1,4.1c0.6,1,1.6,1.5,2.6,1.5c0.5,0,1-0.1,1.5-0.4l11.8-6.8c0.9-0.5,1.5-1.5,1.5-2.6
			C458.4,33.1,457.8,32.1,456.9,31.6z"/>
	</g>
</g>
<g>
	<path class="st0" d="M116.7,18.5h-3.3l-0.7,1.5h-3.2l5.3-9.8h3.6l1.9,9.8h-3.2L116.7,18.5z M116.4,16.1l-0.4-2.7l-1.4,2.7H116.4z"
		/>
	<path class="st0" d="M131.2,10.5c0.6,0.3,1.1,0.8,1.4,1.4c0.3,0.6,0.5,1.3,0.5,2h-3.2c-0.1-0.3-0.2-0.6-0.5-0.8
		c-0.2-0.2-0.5-0.3-0.9-0.3c-0.5,0-1,0.2-1.3,0.6s-0.6,0.9-0.7,1.6c0,0.2-0.1,0.4-0.1,0.6c0,0.5,0.1,0.9,0.4,1.1s0.6,0.4,1,0.4
		c0.4,0,0.7-0.1,1-0.3c0.3-0.2,0.6-0.4,0.8-0.8h3.2c-0.4,1.2-1.1,2.1-2.1,2.8c-1,0.7-2.1,1.1-3.4,1.1c-0.9,0-1.6-0.2-2.2-0.5
		s-1.1-0.8-1.4-1.4s-0.5-1.3-0.5-2c0-0.4,0-0.7,0.1-1.1c0.2-1,0.5-1.8,1-2.6s1.2-1.3,2-1.8c0.8-0.4,1.7-0.6,2.7-0.6
		C129.8,10,130.6,10.2,131.2,10.5z"/>
	<path class="st0" d="M139.4,18.5h-3.3l-0.7,1.5h-3.2l5.3-9.8h3.6L143,20h-3.2L139.4,18.5z M139.1,16.1l-0.4-2.7l-1.4,2.7H139.1z"/>
	<path class="st0" d="M152,10.1l-0.4,2.4h-3.9l-0.2,1.4h2.8l-0.4,2.3H147l-0.7,3.7h-3.1l1.7-9.8C144.9,10.1,152,10.1,152,10.1z"/>
	<path class="st0" d="M158.6,12.8c0.6,0.6,0.9,1.3,0.9,2.3c0,0.3,0,0.6-0.1,0.9c-0.1,0.2-0.1,0.5-0.2,0.6h-4.9c0,0.1,0,0.2,0,0.3
		c0,0.3,0.1,0.5,0.2,0.6c0.1,0.1,0.3,0.2,0.5,0.2c0.3,0,0.6-0.2,0.8-0.5h3.3c-0.3,0.9-0.9,1.6-1.6,2.1c-0.8,0.5-1.7,0.8-2.7,0.8
		s-1.8-0.3-2.4-0.9c-0.6-0.6-0.9-1.4-0.9-2.4c0-0.3,0-0.6,0.1-0.9c0.1-0.8,0.4-1.5,0.9-2.1s1-1,1.7-1.3s1.4-0.5,2.2-0.5
		C157.2,12,158,12.3,158.6,12.8z M156.4,15.1c0-0.2-0.1-0.4-0.2-0.5c-0.1-0.1-0.3-0.2-0.5-0.2c-0.6,0-0.9,0.3-1.1,0.9h1.8
		C156.4,15.3,156.4,15.2,156.4,15.1z"/>
	<path class="st0" d="M170.2,14.1c-0.4,0.4-0.8,0.7-1.3,0.8c0.5,0.1,0.9,0.4,1.1,0.7c0.3,0.3,0.4,0.7,0.4,1.2c0,0.1,0,0.3,0,0.5
		c-0.2,0.9-0.6,1.5-1.2,2c-0.6,0.5-1.5,0.7-2.6,0.7h-5.2l1.7-9.8h5c0.9,0,1.6,0.2,2.1,0.5s0.7,0.8,0.7,1.5c0,0.1,0,0.3-0.1,0.5
		C170.8,13.2,170.5,13.7,170.2,14.1z M167.2,16.6c0-0.4-0.2-0.5-0.7-0.5h-1.4l-0.2,1.4h1.4c0.3,0,0.5-0.1,0.7-0.2s0.2-0.3,0.3-0.5
		C167.2,16.7,167.2,16.7,167.2,16.6z M167.7,13.1c0-0.3-0.2-0.5-0.7-0.5h-1.2l-0.2,1.4h1.2c0.3,0,0.5-0.1,0.6-0.2
		c0.2-0.1,0.2-0.3,0.3-0.5C167.6,13.2,167.7,13.1,167.7,13.1z"/>
	<path class="st0" d="M180.3,12.1l-1.4,7.8h-3.1l0.2-1.2c-0.3,0.4-0.7,0.7-1.1,0.9c-0.4,0.2-0.9,0.3-1.5,0.3c-0.8,0-1.3-0.2-1.7-0.7
		c-0.4-0.4-0.6-1-0.6-1.8c0-0.3,0-0.6,0.1-0.9L172,12h3.1l-0.7,4.2c0,0.1,0,0.2,0,0.3c0,0.3,0.1,0.5,0.2,0.7
		c0.2,0.2,0.4,0.2,0.7,0.2s0.6-0.1,0.9-0.3c0.2-0.2,0.4-0.5,0.4-0.9v0.1l0.7-4.2C177.3,12.1,180.3,12.1,180.3,12.1z"/>
	<path class="st0" d="M189.9,9.7L188.1,20H185l0.2-1.1c-0.3,0.4-0.6,0.6-1,0.9c-0.4,0.2-0.9,0.3-1.4,0.3c-0.8,0-1.4-0.3-1.9-0.8
		c-0.5-0.6-0.7-1.3-0.7-2.3c0-0.4,0-0.7,0.1-1.1c0.1-0.8,0.4-1.4,0.8-2c0.4-0.6,0.8-1,1.4-1.3c0.5-0.3,1.1-0.4,1.7-0.4
		c0.5,0,1,0.1,1.4,0.3s0.6,0.5,0.7,0.9l0.6-3.5h3L189.9,9.7L189.9,9.7z M183.9,15.1c-0.3,0.2-0.4,0.6-0.5,1c0,0.1,0,0.2,0,0.3
		c0,0.3,0.1,0.6,0.2,0.7c0.2,0.2,0.4,0.3,0.7,0.3s0.6-0.1,0.9-0.3c0.3-0.2,0.4-0.6,0.5-1c0-0.1,0-0.2,0-0.3c0-0.3-0.1-0.6-0.2-0.7
		s-0.4-0.3-0.7-0.3C184.5,14.7,184.2,14.8,183.9,15.1z"/>
	<path class="st0" d="M194.6,12.3c0.4,0.2,0.6,0.5,0.7,0.9l0.2-1.1h3.1l-1.4,7.8h-3.1l0.2-1.1c-0.3,0.4-0.6,0.6-1,0.9
		c-0.4,0.2-0.9,0.3-1.4,0.3c-0.8,0-1.5-0.3-1.9-0.8s-0.7-1.3-0.7-2.3c0-0.3,0-0.7,0.1-1.2c0.1-0.8,0.4-1.4,0.8-2
		c0.4-0.6,0.8-1,1.4-1.3c0.5-0.3,1.1-0.4,1.7-0.4C193.8,12,194.2,12.1,194.6,12.3z M193.1,15.1c-0.3,0.2-0.4,0.6-0.5,1
		c0,0.1,0,0.2,0,0.3c0,0.3,0.1,0.6,0.2,0.7c0.2,0.2,0.4,0.3,0.7,0.3s0.6-0.1,0.9-0.3s0.4-0.6,0.5-1c0-0.1,0-0.2,0-0.3
		c0-0.3-0.1-0.6-0.2-0.7c-0.2-0.2-0.4-0.3-0.7-0.3C193.6,14.7,193.3,14.8,193.1,15.1z"/>
	<path class="st0" d="M206.8,12.8c0.5,0.5,0.7,1.3,0.7,2.2c0,0.4,0,0.7-0.1,1c-0.1,0.8-0.4,1.5-0.8,2.1c-0.4,0.6-0.9,1.1-1.4,1.4
		s-1.1,0.5-1.7,0.5c-0.5,0-0.9-0.1-1.3-0.3c-0.3-0.2-0.6-0.5-0.7-0.9l-0.8,4.8h-3.1l2-11.6h3.1l-0.2,1.1c0.3-0.4,0.6-0.6,1-0.9
		c0.4-0.2,0.9-0.3,1.4-0.3C205.7,12,206.4,12.3,206.8,12.8z M203.9,17c0.3-0.2,0.4-0.6,0.5-1c0-0.1,0-0.2,0-0.3
		c0-0.3-0.1-0.6-0.2-0.7s-0.4-0.3-0.7-0.3s-0.6,0.1-0.9,0.3c-0.3,0.2-0.4,0.6-0.5,1c0,0.1,0,0.2,0,0.3c0,0.3,0.1,0.6,0.2,0.7
		c0.2,0.2,0.4,0.3,0.7,0.3S203.6,17.2,203.9,17z"/>
	<path class="st0" d="M214.9,12.8c0.6,0.6,0.9,1.3,0.9,2.3c0,0.3,0,0.6-0.1,0.9c-0.1,0.2-0.1,0.5-0.2,0.6h-4.9c0,0.1,0,0.2,0,0.3
		c0,0.3,0.1,0.5,0.2,0.6c0.1,0.1,0.3,0.2,0.5,0.2c0.3,0,0.6-0.2,0.8-0.5h3.3c-0.3,0.9-0.9,1.6-1.6,2.1c-0.8,0.5-1.7,0.8-2.7,0.8
		s-1.8-0.3-2.4-0.9c-0.6-0.6-0.9-1.4-0.9-2.4c0-0.3,0-0.6,0.1-0.9c0.1-0.8,0.4-1.5,0.9-2.1s1-1,1.7-1.3s1.4-0.5,2.2-0.5
		C213.5,12,214.3,12.3,214.9,12.8z M212.8,15.1c0-0.2-0.1-0.4-0.2-0.5c-0.1-0.1-0.3-0.2-0.5-0.2c-0.6,0-0.9,0.3-1.1,0.9h1.8
		C212.8,15.3,212.8,15.2,212.8,15.1z"/>
	<path class="st0" d="M222.6,12.8c0.6,0.5,1,1.2,1.1,2h-3c0-0.4-0.4-0.7-1-0.7c-0.2,0-0.3,0-0.4,0.1c-0.1,0-0.2,0.1-0.2,0.2
		c0,0.1,0.1,0.2,0.3,0.3s0.5,0.2,0.9,0.3c0.6,0.1,1.1,0.3,1.5,0.5s0.7,0.4,1,0.7c0.3,0.3,0.5,0.7,0.5,1.2c0,0.2,0,0.4-0.1,0.5
		c-0.1,0.6-0.5,1.1-1.1,1.5s-1.5,0.6-2.5,0.6c-1.1,0-2-0.2-2.7-0.7s-1-1.2-1.1-2.1h3c0,0.2,0.1,0.4,0.3,0.5s0.4,0.2,0.7,0.2
		c0.4,0,0.6-0.1,0.6-0.3c0-0.1-0.1-0.3-0.2-0.3c-0.2-0.1-0.5-0.2-1-0.3c-0.6-0.1-1.1-0.3-1.5-0.4s-0.7-0.4-1-0.7s-0.4-0.7-0.4-1.2
		c0-0.1,0-0.3,0.1-0.5c0.1-0.6,0.5-1.1,1.1-1.5s1.4-0.6,2.5-0.6C221.1,12,222,12.3,222.6,12.8z"/>
	<path class="st0" d="M227.5,16.8v0.1c0,0.3,0.2,0.4,0.5,0.4h0.7l-0.5,2.6H227c-1.8,0-2.7-0.8-2.7-2.3c0-0.3,0-0.6,0.1-0.9l0.4-2.1
		h-1l0.5-2.6h1l0.3-1.9h3.1l-0.3,1.9h1.3l-0.5,2.6h-1.3L227.5,16.8z"/>
	<path class="st0" d="M117,31.5l2.7,5.1H116l-2.1-4.3l-0.8,4.3H110l1.7-9.8h3.1l-0.7,4.2l3.6-4.2h3.7L117,31.5z"/>
	<path class="st0" d="M127.4,29.1c0.5,0.3,1,0.7,1.3,1.2s0.5,1.1,0.5,1.8c0,0.3,0,0.6-0.1,0.9c-0.1,0.8-0.4,1.4-0.9,2
		c-0.4,0.6-1,1-1.7,1.3s-1.4,0.5-2.2,0.5c-0.7,0-1.4-0.1-1.9-0.4c-0.6-0.3-1-0.7-1.3-1.2s-0.5-1.1-0.5-1.8c0-0.3,0-0.6,0.1-0.9
		c0.1-0.8,0.4-1.4,0.9-2s1-1,1.7-1.3s1.4-0.5,2.2-0.5C126.3,28.7,126.9,28.8,127.4,29.1z M124.4,31.7c-0.2,0.2-0.4,0.6-0.5,1
		c0,0.1,0,0.3,0,0.4c0,0.3,0.1,0.6,0.2,0.7s0.3,0.2,0.6,0.2c0.3,0,0.5-0.1,0.8-0.3s0.4-0.6,0.5-1c0-0.1,0-0.3,0-0.4
		c0-0.3-0.1-0.6-0.2-0.7c-0.2-0.2-0.3-0.2-0.6-0.2C124.9,31.3,124.6,31.4,124.4,31.7z"/>
	<path class="st0" d="M134.6,29.1c0.5-0.3,1-0.4,1.5-0.4l-0.6,3.3h-0.9c-0.6,0-1,0.1-1.3,0.3s-0.5,0.6-0.6,1.1l-0.6,3.2H129l1.4-7.8
		h3.1l-0.2,1.4C133.7,29.8,134.1,29.4,134.6,29.1z"/>
	<path class="st0" d="M139.2,33.4L139.2,33.4c0,0.4,0.2,0.5,0.5,0.5h0.7l-0.5,2.6h-1.2c-1.8,0-2.7-0.8-2.7-2.3c0-0.3,0-0.6,0.1-0.9
		l0.4-2.1h-1l0.5-2.6h1l0.3-1.9h3.1l-0.3,1.9h1.3l-0.5,2.6h-1.3L139.2,33.4z"/>
	<path class="st0" d="M146.6,29c0.4,0.2,0.6,0.5,0.7,0.9l0.2-1.1h3.1l-1.4,7.8h-3.1l0.2-1.1c-0.3,0.4-0.6,0.6-1,0.9
		c-0.4,0.2-0.9,0.3-1.4,0.3c-0.8,0-1.5-0.3-1.9-0.8s-0.7-1.3-0.7-2.3c0-0.3,0-0.7,0.1-1.2c0.1-0.8,0.4-1.4,0.8-2s0.8-1,1.4-1.3
		c0.5-0.3,1.1-0.4,1.7-0.4C145.8,28.7,146.3,28.8,146.6,29z M148.2,26.9l-3.8,1.3l0.4-2.1l3.9-1.5L148.2,26.9z M145.1,31.7
		c-0.3,0.2-0.4,0.6-0.5,1c0,0.1,0,0.2,0,0.3c0,0.3,0.1,0.6,0.2,0.7s0.4,0.3,0.7,0.3s0.6-0.1,0.9-0.3c0.3-0.2,0.4-0.6,0.5-1
		c0-0.1,0-0.2,0-0.3c0-0.3-0.1-0.6-0.2-0.7c-0.2-0.2-0.4-0.3-0.7-0.3C145.6,31.4,145.3,31.5,145.1,31.7z"/>
	<path class="st0" d="M155.8,29.1c0.5-0.3,1-0.4,1.5-0.4l-0.6,3.3h-0.9c-0.6,0-1,0.1-1.3,0.3s-0.5,0.6-0.6,1.1l-0.6,3.2h-3.1
		l1.4-7.8h3.1l-0.2,1.4C154.8,29.8,155.3,29.4,155.8,29.1z"/>
	<path class="st0" d="M163.3,29.4c0.6,0.5,1,1.2,1.1,2h-3c0-0.4-0.4-0.7-1-0.7c-0.2,0-0.3,0-0.4,0.1c-0.1,0-0.2,0.1-0.2,0.2
		s0.1,0.2,0.3,0.3c0.2,0.1,0.5,0.2,0.9,0.3c0.6,0.1,1.1,0.3,1.5,0.5s0.7,0.4,1,0.7s0.5,0.7,0.5,1.2c0,0.2,0,0.4-0.1,0.5
		c-0.1,0.6-0.5,1.1-1.1,1.5s-1.5,0.6-2.5,0.6c-1.1,0-2-0.2-2.7-0.7s-1-1.2-1.1-2.1h3c0,0.2,0.1,0.4,0.3,0.5s0.4,0.2,0.7,0.2
		c0.4,0,0.6-0.1,0.6-0.3c0-0.1-0.1-0.3-0.2-0.3c-0.2-0.1-0.5-0.2-1-0.3c-0.6-0.1-1.1-0.3-1.5-0.4c-0.4-0.1-0.7-0.4-1-0.7
		s-0.4-0.7-0.4-1.2c0-0.1,0-0.3,0.1-0.5c0.1-0.6,0.5-1.1,1.1-1.5s1.4-0.6,2.5-0.6C161.7,28.7,162.6,28.9,163.3,29.4z"/>
	<path class="st0" d="M179.7,26.8l-1.7,9.8h-3.1l0.9-4.9l-2.4,4.9h-2.6l-0.7-4.9l-0.9,4.9h-3.1l1.7-9.8h3.8l1.1,5.9l3.1-5.9
		C175.8,26.8,179.7,26.8,179.7,26.8z"/>
	<path class="st0" d="M188.8,28.8l-1.4,7.8h-3.1l0.2-1.2c-0.3,0.4-0.7,0.7-1.1,0.9c-0.4,0.2-0.9,0.3-1.5,0.3c-0.8,0-1.3-0.2-1.7-0.7
		s-0.6-1-0.6-1.8c0-0.3,0-0.6,0.1-0.9l0.8-4.5h3.1l-0.7,4.2c0,0.1,0,0.2,0,0.3c0,0.3,0.1,0.5,0.2,0.7c0.2,0.2,0.4,0.2,0.7,0.2
		s0.6-0.1,0.9-0.3c0.2-0.2,0.4-0.5,0.4-0.9V33l0.7-4.2H188.8z M183.1,28.3h-1.8l1.7-3.4h2.3L183.1,28.3z M186.1,28.3h-1.8l2.1-3.4
		h2.3L186.1,28.3z"/>
	<path class="st0" d="M192.7,33.7l2.1-4.9h3.3l-4,7.8h-3.8l-1.2-7.8h3.3L192.7,33.7z"/>
	<path class="st0" d="M204.6,29.5c0.6,0.6,0.9,1.3,0.9,2.3c0,0.3,0,0.6-0.1,0.9c-0.1,0.2-0.1,0.5-0.2,0.6h-4.9c0,0.1,0,0.2,0,0.3
		c0,0.3,0.1,0.5,0.2,0.6s0.3,0.2,0.5,0.2c0.3,0,0.6-0.2,0.8-0.5h3.3c-0.3,0.9-0.9,1.6-1.6,2.1c-0.8,0.5-1.7,0.8-2.7,0.8
		s-1.8-0.3-2.4-0.9s-0.9-1.4-0.9-2.4c0-0.3,0-0.6,0.1-0.9c0.1-0.8,0.4-1.5,0.9-2.1s1-1,1.7-1.3s1.4-0.5,2.2-0.5
		C203.2,28.7,204,28.9,204.6,29.5z M204,26.9l-3.8,1.3l0.4-2.1l3.9-1.5L204,26.9z M202.4,31.8c0-0.2-0.1-0.4-0.2-0.5
		c-0.1-0.1-0.3-0.2-0.5-0.2c-0.6,0-0.9,0.3-1.1,0.9h1.8C202.4,31.9,202.4,31.8,202.4,31.8z"/>
	<path class="st0" d="M212.3,29.4c0.6,0.5,1,1.2,1.1,2h-3c0-0.4-0.4-0.7-1-0.7c-0.2,0-0.3,0-0.4,0.1c-0.1,0-0.2,0.1-0.2,0.2
		s0.1,0.2,0.3,0.3c0.2,0.1,0.5,0.2,0.9,0.3c0.6,0.1,1.1,0.3,1.5,0.5s0.7,0.4,1,0.7s0.5,0.7,0.5,1.2c0,0.2,0,0.4-0.1,0.5
		c-0.1,0.6-0.5,1.1-1.1,1.5s-1.5,0.6-2.5,0.6c-1.1,0-2-0.2-2.7-0.7s-1-1.2-1.1-2.1h3c0,0.2,0.1,0.4,0.3,0.5s0.4,0.2,0.7,0.2
		c0.4,0,0.6-0.1,0.6-0.3c0-0.1-0.1-0.3-0.2-0.3c-0.2-0.1-0.5-0.2-1-0.3c-0.6-0.1-1.1-0.3-1.5-0.4c-0.4-0.1-0.7-0.4-1-0.7
		s-0.4-0.7-0.4-1.2c0-0.1,0-0.3,0.1-0.5c0.1-0.6,0.5-1.1,1.1-1.5s1.4-0.6,2.5-0.6C210.8,28.7,211.7,28.9,212.3,29.4z"/>
	<path class="st0" d="M216.6,34h3.3l-0.5,2.6h-6.6l0.4-2.4l3.5-2.9h-2.9l0.5-2.6h6.5l-0.4,2.4L216.6,34z"/>
	<path class="st0" d="M227.6,29.5c0.6,0.6,0.9,1.3,0.9,2.3c0,0.3,0,0.6-0.1,0.9c-0.1,0.2-0.1,0.5-0.2,0.6h-4.9c0,0.1,0,0.2,0,0.3
		c0,0.3,0.1,0.5,0.2,0.6c0.1,0.1,0.3,0.2,0.5,0.2c0.3,0,0.6-0.2,0.8-0.5h3.3c-0.3,0.9-0.9,1.6-1.6,2.1c-0.8,0.5-1.7,0.8-2.7,0.8
		s-1.8-0.3-2.4-0.9s-0.9-1.4-0.9-2.4c0-0.3,0-0.6,0.1-0.9c0.1-0.8,0.4-1.5,0.9-2.1s1-1,1.7-1.3s1.4-0.5,2.2-0.5
		C226.2,28.7,227,28.9,227.6,29.5z M225.4,31.8c0-0.2-0.1-0.4-0.2-0.5c-0.1-0.1-0.3-0.2-0.5-0.2c-0.6,0-0.9,0.3-1.1,0.9h1.8
		C225.4,31.9,225.4,31.8,225.4,31.8z"/>
	<path class="st0" d="M232.4,33.4L232.4,33.4c0,0.4,0.2,0.5,0.5,0.5h0.7l-0.5,2.6H232c-1.8,0-2.7-0.8-2.7-2.3c0-0.3,0-0.6,0.1-0.9
		l0.4-2.1h-1l0.5-2.6h1l0.3-1.9h3.1l-0.3,1.9h1.3l-0.5,2.6h-1.3L232.4,33.4z"/>
	<path class="st0" d="M238.7,28.8l-1.4,7.8h-3.1l1.4-7.8H238.7z M236,26c0.2-0.3,0.4-0.5,0.7-0.7s0.7-0.2,1.1-0.2
		c0.5,0,0.8,0.1,1.1,0.4c0.3,0.2,0.4,0.5,0.4,0.9c0,0.3-0.1,0.6-0.3,0.9s-0.4,0.5-0.7,0.7s-0.7,0.2-1.1,0.2c-0.5,0-0.9-0.1-1.1-0.4
		s-0.4-0.5-0.4-0.9C235.7,26.6,235.8,26.3,236,26z"/>
	<path class="st0" d="M248.9,26.8l-0.4,2.4h-3.9l-0.2,1.4h2.8l-0.4,2.3H244l-0.7,3.7h-3.1l1.7-9.8H248.9z"/>
	<path class="st0" d="M255.6,29.5c0.6,0.6,0.9,1.3,0.9,2.3c0,0.3,0,0.6-0.1,0.9c-0.1,0.2-0.1,0.5-0.2,0.6h-4.9c0,0.1,0,0.2,0,0.3
		c0,0.3,0.1,0.5,0.2,0.6c0.1,0.1,0.3,0.2,0.5,0.2c0.3,0,0.6-0.2,0.8-0.5h3.3c-0.3,0.9-0.9,1.6-1.6,2.1c-0.8,0.5-1.7,0.8-2.7,0.8
		s-1.8-0.3-2.4-0.9s-0.9-1.4-0.9-2.4c0-0.3,0-0.6,0.1-0.9c0.1-0.8,0.4-1.5,0.9-2.1s1-1,1.7-1.3s1.4-0.5,2.2-0.5
		C254.2,28.7,255,28.9,255.6,29.5z M253.4,31.8c0-0.2-0.1-0.4-0.2-0.5c-0.1-0.1-0.3-0.2-0.5-0.2c-0.6,0-0.9,0.3-1.1,0.9h1.8
		C253.4,31.9,253.4,31.8,253.4,31.8z"/>
	<path class="st0" d="M263.3,29.4c0.6,0.5,1,1.2,1.1,2h-3c0-0.4-0.4-0.7-1-0.7c-0.2,0-0.3,0-0.4,0.1c-0.1,0-0.2,0.1-0.2,0.2
		s0.1,0.2,0.3,0.3c0.2,0.1,0.5,0.2,0.9,0.3c0.6,0.1,1.1,0.3,1.5,0.5s0.7,0.4,1,0.7s0.5,0.7,0.5,1.2c0,0.2,0,0.4-0.1,0.5
		c-0.1,0.6-0.5,1.1-1.1,1.5s-1.5,0.6-2.5,0.6c-1.1,0-2-0.2-2.7-0.7s-1-1.2-1.1-2.1h3c0,0.2,0.1,0.4,0.3,0.5c0.2,0.1,0.4,0.2,0.7,0.2
		c0.4,0,0.6-0.1,0.6-0.3c0-0.1-0.1-0.3-0.2-0.3c-0.2-0.1-0.5-0.2-1-0.3c-0.6-0.1-1.1-0.3-1.5-0.4c-0.4-0.1-0.7-0.4-1-0.7
		s-0.4-0.7-0.4-1.2c0-0.1,0-0.3,0.1-0.5c0.1-0.6,0.5-1.1,1.1-1.5s1.4-0.6,2.5-0.6C261.7,28.7,262.6,28.9,263.3,29.4z"/>
	<path class="st0" d="M267.6,34h3.3l-0.5,2.6h-6.6l0.4-2.4l3.5-2.9h-2.9l0.5-2.6h6.5l-0.4,2.4L267.6,34z"/>
	<path class="st0" d="M275.1,33.4L275.1,33.4c0,0.4,0.2,0.5,0.5,0.5h0.7l-0.5,2.6h-1.2c-1.8,0-2.7-0.8-2.7-2.3c0-0.3,0-0.6,0.1-0.9
		l0.4-2.1h-1l0.5-2.6h1l0.3-1.9h3.1l-0.3,1.9h1.3l-0.5,2.6h-1.3L275.1,33.4z"/>
	<path class="st0" d="M281.3,28.8l-1.4,7.8h-3.1l1.4-7.8H281.3z M278.7,26c0.2-0.3,0.4-0.5,0.7-0.7s0.7-0.2,1.1-0.2
		c0.5,0,0.8,0.1,1.1,0.4c0.3,0.2,0.4,0.5,0.4,0.9c0,0.3-0.1,0.6-0.3,0.9s-0.4,0.5-0.7,0.7c-0.3,0.2-0.7,0.2-1.1,0.2
		c-0.5,0-0.9-0.1-1.1-0.4s-0.4-0.5-0.4-0.9C278.4,26.6,278.5,26.3,278.7,26z"/>
	<path class="st0" d="M285.1,33.7l2.1-4.9h3.3l-4,7.8h-3.8l-1.2-7.8h3.3L285.1,33.7z"/>
	<path class="st0" d="M295.2,29c0.4,0.2,0.6,0.5,0.7,0.9l0.2-1.1h3.1l-1.4,7.8h-3.1l0.2-1.1c-0.3,0.4-0.6,0.6-1,0.9
		c-0.4,0.2-0.9,0.3-1.4,0.3c-0.8,0-1.5-0.3-1.9-0.8s-0.7-1.3-0.7-2.3c0-0.3,0-0.7,0.1-1.2c0.1-0.8,0.4-1.4,0.8-2s0.8-1,1.4-1.3
		c0.5-0.3,1.1-0.4,1.7-0.4C294.4,28.7,294.9,28.8,295.2,29z M296.8,26.9l-3.8,1.3l0.4-2.1l3.9-1.5L296.8,26.9z M293.7,31.7
		c-0.3,0.2-0.4,0.6-0.5,1c0,0.1,0,0.2,0,0.3c0,0.3,0.1,0.6,0.2,0.7s0.4,0.3,0.7,0.3c0.3,0,0.6-0.1,0.9-0.3s0.4-0.6,0.5-1
		c0-0.1,0-0.2,0-0.3c0-0.3-0.1-0.6-0.2-0.7c-0.2-0.2-0.4-0.3-0.7-0.3C294.2,31.4,293.9,31.5,293.7,31.7z"/>
	<path class="st0" d="M303.7,26.3l-1.8,10.3h-3.1l1.8-10.3H303.7z"/>
	<path class="st0" d="M307.9,26.3l-1.8,10.3H303l1.8-10.3H307.9z"/>
	<path class="st0" d="M312.6,29c0.4,0.2,0.6,0.5,0.7,0.9l0.2-1.1h3.1l-1.4,7.8h-3.1l0.2-1.1c-0.3,0.4-0.6,0.6-1,0.9
		c-0.4,0.2-0.9,0.3-1.4,0.3c-0.8,0-1.5-0.3-1.9-0.8s-0.7-1.3-0.7-2.3c0-0.3,0-0.7,0.1-1.2c0.1-0.8,0.4-1.4,0.8-2s0.8-1,1.4-1.3
		c0.5-0.3,1.1-0.4,1.7-0.4C311.8,28.7,312.2,28.8,312.6,29z M311,31.7c-0.3,0.2-0.4,0.6-0.5,1c0,0.1,0,0.2,0,0.3
		c0,0.3,0.1,0.6,0.2,0.7c0.2,0.2,0.4,0.3,0.7,0.3c0.3,0,0.6-0.1,0.9-0.3s0.4-0.6,0.5-1c0-0.1,0-0.2,0-0.3c0-0.3-0.1-0.6-0.2-0.7
		c-0.2-0.2-0.4-0.3-0.7-0.3C311.6,31.4,311.3,31.5,311,31.7z"/>
	<path class="st0" d="M321.2,26.3l-1.8,10.3h-3.1l1.8-10.3H321.2z"/>
	<path class="st0" d="M116.7,49.3l2.2,4h-3.5l-1.4-3.2l-0.6,3.2h-3.1l1.8-10.3h3.1l-0.9,5.3l2.5-2.8h3.6L116.7,49.3z"/>
	<path class="st0" d="M126.5,45.7c0.5,0.3,1,0.7,1.3,1.2s0.5,1.1,0.5,1.8c0,0.3,0,0.6-0.1,0.9c-0.1,0.8-0.4,1.4-0.9,2
		c-0.4,0.6-1,1-1.7,1.3s-1.4,0.5-2.2,0.5c-0.7,0-1.4-0.1-1.9-0.4c-0.6-0.3-1-0.7-1.3-1.2s-0.5-1.1-0.5-1.8c0-0.3,0-0.6,0.1-0.9
		c0.1-0.8,0.4-1.4,0.9-2s1-1,1.7-1.3s1.4-0.5,2.2-0.5C125.3,45.3,125.9,45.5,126.5,45.7z M122.5,42.7c0.3-0.3,0.6-0.4,1-0.4
		c0.3,0,0.6,0.1,0.7,0.3c0.2,0.2,0.3,0.4,0.3,0.7c0,0.4-0.1,0.7-0.4,1s-0.6,0.4-1,0.4c-0.3,0-0.5-0.1-0.7-0.3s-0.3-0.4-0.3-0.7
		C122,43.3,122.2,43,122.5,42.7z M123.4,48.3c-0.2,0.2-0.4,0.6-0.5,1c0,0.1,0,0.3,0,0.4c0,0.3,0.1,0.6,0.2,0.7s0.3,0.2,0.6,0.2
		c0.3,0,0.5-0.1,0.8-0.3c0.2-0.2,0.4-0.6,0.5-1c0-0.1,0-0.3,0-0.4c0-0.3-0.1-0.6-0.2-0.7c-0.2-0.2-0.3-0.2-0.6-0.2
		C123.9,48,123.7,48.1,123.4,48.3z M125.6,42.7c0.3-0.3,0.6-0.4,1-0.4c0.3,0,0.6,0.1,0.7,0.3c0.2,0.2,0.3,0.4,0.3,0.7
		c0,0.4-0.1,0.7-0.4,1s-0.6,0.4-1,0.4c-0.3,0-0.5-0.1-0.7-0.3s-0.3-0.4-0.3-0.7C125.2,43.3,125.3,43,125.6,42.7z"/>
	<path class="st0" d="M131.4,50.7h3.3l-0.5,2.6h-6.6l0.4-2.4l3.5-2.9h-2.9l0.5-2.6h6.5l-0.4,2.4L131.4,50.7z"/>
	<path class="st0" d="M142,45.7c0.5,0.3,1,0.7,1.3,1.2s0.5,1.1,0.5,1.8c0,0.3,0,0.6-0.1,0.9c-0.1,0.8-0.4,1.4-0.9,2
		c-0.4,0.6-1,1-1.7,1.3s-1.4,0.5-2.2,0.5c-0.7,0-1.4-0.1-1.9-0.4c-0.6-0.3-1-0.7-1.3-1.2s-0.5-1.1-0.5-1.8c0-0.3,0-0.6,0.1-0.9
		c0.1-0.8,0.4-1.4,0.9-2s1-1,1.7-1.3s1.4-0.5,2.2-0.5C140.8,45.3,141.4,45.5,142,45.7z M137.9,42.7c0.3-0.3,0.6-0.4,1-0.4
		c0.3,0,0.6,0.1,0.7,0.3c0.2,0.2,0.3,0.4,0.3,0.7c0,0.4-0.1,0.7-0.4,1c-0.3,0.3-0.6,0.4-1,0.4c-0.3,0-0.5-0.1-0.7-0.3
		s-0.3-0.4-0.3-0.7C137.5,43.3,137.6,43,137.9,42.7z M138.9,48.3c-0.2,0.2-0.4,0.6-0.5,1c0,0.1,0,0.3,0,0.4c0,0.3,0.1,0.6,0.2,0.7
		s0.3,0.2,0.6,0.2s0.5-0.1,0.8-0.3c0.2-0.2,0.4-0.6,0.5-1c0-0.1,0-0.3,0-0.4c0-0.3-0.1-0.6-0.2-0.7c-0.2-0.2-0.3-0.2-0.6-0.2
		S139.2,48.1,138.9,48.3z M141.1,42.7c0.3-0.3,0.6-0.4,1-0.4c0.3,0,0.6,0.1,0.7,0.3c0.2,0.2,0.3,0.4,0.3,0.7c0,0.4-0.1,0.7-0.4,1
		c-0.3,0.3-0.6,0.4-1,0.4c-0.3,0-0.5-0.1-0.7-0.3s-0.3-0.4-0.3-0.7C140.6,43.3,140.8,43,141.1,42.7z"/>
	<path class="st0" d="M150.3,46.1c0.6,0.5,1,1.2,1.1,2h-3c0-0.4-0.4-0.7-1-0.7c-0.2,0-0.3,0-0.4,0.1c-0.1,0-0.2,0.1-0.2,0.2
		c0,0.1,0.1,0.2,0.3,0.3s0.5,0.2,0.9,0.3c0.6,0.1,1.1,0.3,1.5,0.5s0.7,0.4,1,0.7s0.5,0.7,0.5,1.2c0,0.2,0,0.4-0.1,0.5
		c-0.1,0.6-0.5,1.1-1.1,1.5s-1.5,0.6-2.5,0.6c-1.1,0-2-0.2-2.7-0.7s-1-1.2-1.1-2.1h3c0,0.2,0.1,0.4,0.3,0.5s0.4,0.2,0.7,0.2
		c0.4,0,0.6-0.1,0.6-0.3c0-0.1-0.1-0.3-0.2-0.3c-0.2-0.1-0.5-0.2-1-0.3c-0.6-0.1-1.1-0.3-1.5-0.4c-0.4-0.1-0.7-0.4-1-0.7
		S144,48.5,144,48c0-0.1,0-0.3,0.1-0.5c0.1-0.6,0.5-1.1,1.1-1.5s1.4-0.6,2.5-0.6C148.8,45.3,149.6,45.6,150.3,46.1z"/>
	<path class="st0" d="M161.8,46.1c0.5,0.5,0.7,1.3,0.7,2.2c0,0.4,0,0.7-0.1,1c-0.1,0.8-0.4,1.5-0.8,2.1c-0.4,0.6-0.9,1.1-1.4,1.4
		s-1.1,0.5-1.7,0.5c-0.5,0-0.9-0.1-1.3-0.3c-0.3-0.2-0.6-0.5-0.7-0.9l-0.8,4.8h-3.1l2-11.6h3.1l-0.2,1.1c0.3-0.4,0.6-0.6,1-0.9
		c0.4-0.2,0.9-0.3,1.4-0.3C160.7,45.3,161.3,45.6,161.8,46.1z M158.8,50.3c0.3-0.2,0.4-0.6,0.5-1c0-0.1,0-0.2,0-0.3
		c0-0.3-0.1-0.6-0.2-0.7s-0.4-0.3-0.7-0.3s-0.6,0.1-0.9,0.3c-0.3,0.2-0.4,0.6-0.5,1c0,0.1,0,0.2,0,0.3c0,0.3,0.1,0.6,0.2,0.7
		s0.4,0.3,0.7,0.3C158.3,50.7,158.6,50.5,158.8,50.3z"/>
	<path class="st0" d="M168,45.8c0.5-0.3,1-0.4,1.5-0.4l-0.6,3.3H168c-0.6,0-1,0.1-1.3,0.3s-0.5,0.6-0.6,1.1l-0.6,3.2h-3.1l1.4-7.8
		h3.1l-0.2,1.4C167.1,46.4,167.5,46.1,168,45.8z"/>
	<path class="st0" d="M175.6,45.7c0.5,0.3,1,0.7,1.3,1.2s0.5,1.1,0.5,1.8c0,0.3,0,0.6-0.1,0.9c-0.1,0.8-0.4,1.4-0.9,2
		c-0.4,0.6-1,1-1.7,1.3s-1.4,0.5-2.2,0.5c-0.7,0-1.4-0.1-1.9-0.4c-0.6-0.3-1-0.7-1.3-1.2s-0.5-1.1-0.5-1.8c0-0.3,0-0.6,0.1-0.9
		c0.1-0.8,0.4-1.4,0.9-2s1-1,1.7-1.3s1.4-0.5,2.2-0.5C174.4,45.3,175.1,45.5,175.6,45.7z M172.6,48.3c-0.2,0.2-0.4,0.6-0.5,1
		c0,0.1,0,0.3,0,0.4c0,0.3,0.1,0.6,0.2,0.7s0.3,0.2,0.6,0.2s0.5-0.1,0.8-0.3s0.4-0.6,0.5-1c0-0.1,0-0.3,0-0.4c0-0.3-0.1-0.6-0.2-0.7
		s-0.3-0.2-0.6-0.2C173,48,172.8,48.1,172.6,48.3z"/>
	<path class="st0" d="M178.2,52.5c-0.5-0.6-0.7-1.3-0.7-2.3c0-0.4,0-0.7,0.1-1.1c0.1-0.8,0.4-1.4,0.8-2c0.4-0.6,0.8-1,1.4-1.3
		s1.1-0.4,1.7-0.4c0.5,0,1,0.1,1.4,0.3s0.6,0.5,0.7,0.9l0.2-1.1h3.1l-1.4,7.7c-0.2,1.1-0.7,2.1-1.4,2.9s-1.8,1.1-3.1,1.1
		c-1.2,0-2.2-0.3-2.8-0.9c-0.7-0.6-1-1.4-1-2.4h3c0,0.4,0.3,0.6,0.9,0.6c0.4,0,0.7-0.1,0.9-0.3s0.4-0.5,0.5-1l0.2-0.9
		c-0.3,0.4-0.6,0.6-1,0.9c-0.4,0.2-0.9,0.3-1.4,0.3C179.3,53.4,178.7,53.1,178.2,52.5z M181.2,48.4c-0.3,0.2-0.4,0.6-0.5,1
		c0,0.1,0,0.2,0,0.3c0,0.3,0.1,0.6,0.2,0.7c0.2,0.2,0.4,0.3,0.7,0.3s0.6-0.1,0.9-0.3c0.3-0.2,0.4-0.6,0.5-1c0-0.1,0-0.2,0-0.3
		c0-0.3-0.1-0.6-0.2-0.7c-0.2-0.2-0.4-0.3-0.7-0.3C181.7,48,181.4,48.1,181.2,48.4z"/>
	<path class="st0" d="M192,45.8c0.5-0.3,1-0.4,1.5-0.4l-0.6,3.3H192c-0.6,0-1,0.1-1.3,0.3s-0.5,0.6-0.6,1.1l-0.6,3.2h-3.1l1.4-7.8
		h3.1l-0.2,1.4C191,46.4,191.5,46.1,192,45.8z"/>
	<path class="st0" d="M198.1,45.6c0.4,0.2,0.6,0.5,0.7,0.9l0.2-1.1h3.1l-1.4,7.8h-3.1l0.2-1.1c-0.3,0.4-0.6,0.6-1,0.9
		c-0.4,0.2-0.9,0.3-1.4,0.3c-0.8,0-1.5-0.3-1.9-0.8s-0.7-1.3-0.7-2.3c0-0.3,0-0.7,0.1-1.2c0.1-0.8,0.4-1.4,0.8-2
		c0.4-0.6,0.8-1,1.4-1.3s1.1-0.4,1.7-0.4C197.3,45.3,197.7,45.4,198.1,45.6z M196.5,48.4c-0.3,0.2-0.4,0.6-0.5,1c0,0.1,0,0.2,0,0.3
		c0,0.3,0.1,0.6,0.2,0.7c0.2,0.2,0.4,0.3,0.7,0.3s0.6-0.1,0.9-0.3c0.3-0.2,0.4-0.6,0.5-1c0-0.1,0-0.2,0-0.3c0-0.3-0.1-0.6-0.2-0.7
		c-0.2-0.2-0.4-0.3-0.7-0.3C197.1,48,196.8,48.1,196.5,48.4z"/>
	<path class="st0" d="M215.6,46c0.5,0.4,0.7,1.1,0.7,1.9c0,0.3,0,0.6-0.1,0.8l-0.8,4.5h-3.1L213,49c0-0.1,0-0.1,0-0.2
		c0-0.3-0.1-0.5-0.2-0.6c-0.2-0.1-0.4-0.2-0.7-0.2s-0.6,0.1-0.8,0.3s-0.4,0.4-0.4,0.7l-0.7,4.2h-3.1l0.7-4.2c0-0.1,0-0.1,0-0.2
		c0-0.3-0.1-0.5-0.2-0.6c-0.2-0.1-0.4-0.2-0.7-0.2s-0.6,0.1-0.9,0.3c-0.2,0.2-0.4,0.5-0.4,0.8V49l-0.7,4.2h-3.1l1.4-7.8h3.1
		l-0.2,1.1c0.3-0.3,0.6-0.6,1-0.8s0.9-0.3,1.4-0.3c0.6,0,1,0.1,1.4,0.4c0.4,0.2,0.7,0.6,0.9,1c0.4-0.4,0.8-0.8,1.3-1s1-0.4,1.5-0.4
		C214.5,45.4,215.2,45.6,215.6,46z"/>
	<path class="st0" d="M220.2,50.3l-0.5,2.9h-3.1l0.5-2.9H220.2z"/>
</g>
<g>
	<g>
		<path class="st1" d="M952.8,30.2c-0.5-0.3-1.1-0.7-1.6-0.9h6.2v-5.4h-15.9l0,0.6c0,0.3,0,0.5,0,0.7c-1.3-0.8-3-1.3-5-1.3
			c-3.3,0-5.7,1.2-6.9,3.3c-0.9-2-2.9-3.3-5.1-3.3c-0.1,0-0.2,0-0.3,0c-0.4,0-0.9,0.1-1.3,0.2c-0.7,0.2-1.5,0.6-2,1.1l0,0
			c-1.2,1.1-1.9,2.3-1.9,4v2.5h-0.9c0,0,0,0,0,0c-1.3,0-2.4-1.1-2.4-2.4v0c0-2.2,1.7-3.7,3.9-4c0.4-0.5,0.9-0.9,1.4-1.2
			c-0.3,0-0.6-0.1-0.9-0.1c-3.1,0-5.6,2.2-5.6,5.3v0v0c0,2,1.6,3.7,3.7,3.7h2.1v-3.8c0-0.7,0.1-1,0.4-1.6l0,0c0.3-0.5,0.6-1,1.1-1.4
			c0,0,0.1,0,0.1-0.1l0,0c0.6-0.5,1.3-0.8,2-0.9c0,0,0.1,0,0.1,0h0c0.1,0,0.1,0,0.2,0c0.1,0,0.1,0,0.2,0c2.4,0,4.3,1.9,4.3,4.3v0.6
			l0,0c0,2.4-2,3.9-4.3,5.3c-0.5,0.3-1.1,0.7-1.6,0.9c-0.7,0.4-1.4,0.8-1.9,1.2l-1.6,1.1h8.9v2.9h-12.9c0.1-1.4,0.7-2.6,1.9-3.9
			c1-1.1,2.4-2,3.7-2.8c2.3-1.5,4.5-3,4.6-5.3v-0.1c0-1.2-0.4-2.4-1.1-3.3c-0.5,0-0.9,0.1-1.4,0.3c0.8,0.8,1.2,1.9,1.2,3v0
			c-0.1,1.7-2,2.9-4.1,4.3c-1.3,0.9-2.8,1.8-3.9,3c-1.7,1.7-2.4,3.4-2.2,5.4l0,0.6h15.4v-2c1.3,1.6,3.4,2.3,5.4,1.8
			c-0.5-0.3-0.9-0.7-1.2-1.1h0c-2.2,0-4.1-1.7-4.2-4v-0.2l0,0c0,0,0,0,0-0.1v-0.4h3.6v0.3c0,1.1,0.4,2.2,1,3.2l0,0
			c0.7,1,1.8,1.8,3,2.2c0.5,0.1,1,0.2,1.5,0.2c1.5,0,2.9-0.6,4-1.7c0.4-0.4,0.7-0.9,1-1.4c0.9,1.9,2.9,3.1,5,3.1
			c0.3,0,0.6,0,0.9-0.1c-0.5-0.3-1-0.7-1.4-1.2c-2.2-0.3-3.9-2.1-3.9-4.3v-0.2c0,0,0-0.1,0-0.1h3.3v0.4c0,2.7,1.9,4.2,1.9,4.2
			c0.8,0.6,1.6,1.1,2.6,1.2c0.3,0,0.5,0.1,0.7,0.1c0.1,0,0.2,0,0.3,0l0,0c3,0,5.2-2.5,5.2-5.5C958.3,37.2,958.3,33.2,952.8,30.2z
			 M943,37c0,2.3-1.8,4.3-4.1,4.5l0,0h-0.1c0,0,0,0-0.1,0c0,0-0.1,0-0.1,0c-0.4,0-0.9-0.1-1.3-0.2c-0.4-0.1-0.8-0.3-1.2-0.6l0,0
			c-1.1-0.8-1.8-2.1-1.8-3.5v-1.6h-6.1v1.7h-4.8c0.5-0.3,1.1-0.6,1.6-0.9c2.2-1.4,4.5-3,4.9-5.5h4.6l0.1-0.5
			c0.1-1.1,0.9-1.3,1.6-1.3c1.2,0,1.4,0.6,1.4,0.9c0,0.4-0.3,1.2-2,1.2h-1.1v4.2h0.6c0.9,0,1.6,0.2,2.1,0.7c0.3,0.3,0.5,0.8,0.5,1.3
			l0,0c0,1-0.3,1.9-0.9,2.7c0.4,0.3,0.8,0.4,1.2,0.5c0.7-0.9,1-2,1-3.2c0-0.1,0-1.3-0.9-2.1c-0.6-0.6-1.3-0.9-2.4-1v-1.8
			c1.9,0,3-0.9,3-2.4c0-1.3-1.1-2.2-2.6-2.2c-1.4,0-2.4,0.7-2.8,1.8H930c0.6-4.1,5-4.5,6.3-4.5c2.8,0,4.8,0.9,5.7,2.5
			c0,0,0,0.1,0,0.1c0.3,0.5,0.4,1.1,0.4,1.7c0,1.4-0.5,2.3-1.7,2.9l-1.3,0.6l1.3,0.5l0,0C942.3,33.9,943,35.6,943,37L943,37z
			 M953.6,41.4L953.6,41.4c-0.2,0-0.4,0-0.6,0c-0.8,0-1.5-0.2-2.2-0.7c-0.5-0.3-0.9-0.7-1.2-1.2c-0.5-0.7-0.8-1.6-0.8-2.5v-1.6h-4.8
			c-0.3-1.1-0.9-2.1-1.8-2.8c0.9-0.7,1.3-1.7,1.5-2.9c1.1,1.2,2.5,2.1,3.9,3c4.9,3.1,4.8,6.6,4.1,7.4c0.4,0.2,0.8,0.3,1.3,0.3
			c0.7-0.9,1.7-4.6-4.7-8.7c-1.3-0.8-2.6-1.7-3.7-2.8c-0.5-0.5-1-1.1-1.3-1.7c0-0.1-0.1-0.1-0.1-0.3c-0.3-0.6-0.4-1.2-0.5-1.9h13.4
			v3h-8.8c0,0,1.8,1.5,3.2,2.3c0.5,0.3,1.1,0.7,1.6,0.9l0,0c4.8,2.8,4.9,5.9,4.9,5.9C957,39.4,955.8,41.2,953.6,41.4z"/>
	</g>
</g>
<g>
	<path class="st1" d="M966.9,64.1h-61.7V2.4h61.7V64.1z M907.2,62.1h57.7V4.4h-57.7V62.1z"/>
</g>
</svg>
