<svg id="Layer_1" data-name="Layer 1" xmlns="http://www.w3.org/2000/svg" viewBox="0 0 376.79 172.05"><defs><style>.cls-1{fill:none;stroke:#fff;stroke-miterlimit:10;stroke-width:6.12px;}.cls-2{fill:#fff;}</style></defs><title>Untitled-1</title><ellipse class="cls-1" cx="18.57" cy="141.52" rx="15.51" ry="26.98"/><circle class="cls-1" cx="18.57" cy="141.52" r="8.83"/><circle class="cls-2" cx="14.5" cy="138.11" r="3.79"/><ellipse class="cls-1" cx="18.57" cy="70.78" rx="15.51" ry="26.98"/><circle class="cls-1" cx="18.57" cy="70.78" r="8.83"/><circle class="cls-2" cx="14.5" cy="67.37" r="3.79"/><path class="cls-1" d="M51.53,67.71H76.46c.07,0,58.91-.58,58.91-36.17a28.48,28.48,0,1,0-57,0c0,36.17,58.8,36.17,58.92,36.17H145c.07,0,58.91-.58,58.91-36.17a28.48,28.48,0,1,0-57,0c0,36.17,58.8,36.17,58.91,36.17h6.05c.07,0,58.91-.58,58.91-36.17a28.48,28.48,0,0,0-57,0c0,36.17,58.8,36.17,58.92,36.17h7.69c.07,0,58.92-.58,58.92-36.17a28.48,28.48,0,0,0-57,0c0,36.17,58.8,36.17,58.91,36.17h13.46"/><polygon class="cls-2" points="350.37 82.97 376.79 67.71 350.37 52.45 350.37 82.97"/><path class="cls-1" d="M51.53,141.9H76.46c.07,0,58.91-.58,58.91-36.17a28.48,28.48,0,0,0-57,0c0,36.17,58.8,36.17,58.92,36.17H145c.07,0,58.91-.58,58.91-36.17a28.48,28.48,0,1,0-57,0c0,36.17,58.8,36.17,58.91,36.17h6.05c.07,0,58.91-.58,58.91-36.17a28.48,28.48,0,0,0-57,0c0,36.17,58.8,36.17,58.92,36.17h7.69c.07,0,58.92-.58,58.92-36.17a28.48,28.48,0,0,0-57,0c0,36.17,58.8,36.17,58.91,36.17h13.46"/><polygon class="cls-2" points="350.37 157.16 376.79 141.9 350.37 126.64 350.37 157.16"/></svg>