<?xml version="1.0" encoding="UTF-8"?><svg xmlns="http://www.w3.org/2000/svg" viewBox="0 0 256.66 340.35"><g id="a"/><g id="b"><g id="c"><g><g><g><rect x="170.17" y="212.02" width="41.84" height="41.84" style="fill:#fffdf5; stroke:#293d8c; stroke-miterlimit:10; stroke-width:5.61px;"/><rect x="170.17" y="295.7" width="41.84" height="41.84" style="fill:#fffdf5; stroke:#293d8c; stroke-miterlimit:10; stroke-width:5.61px;"/><rect x="212.02" y="170.17" width="41.84" height="41.84" style="fill:#fffdf5; stroke:#293d8c; stroke-miterlimit:10; stroke-width:5.61px;"/><rect x="212.02" y="253.86" width="41.84" height="41.84" style="fill:#fffdf5; stroke:#293d8c; stroke-miterlimit:10; stroke-width:5.61px;"/></g><g><rect x="170.17" y="44.65" width="41.84" height="41.84" style="fill:#fffdf5; stroke:#293d8c; stroke-miterlimit:10; stroke-width:5.61px;"/><rect x="170.17" y="128.33" width="41.84" height="41.84" style="fill:#fffdf5; stroke:#293d8c; stroke-miterlimit:10; stroke-width:5.61px;"/><rect x="212.02" y="2.8" width="41.84" height="41.84" style="fill:#fffdf5; stroke:#293d8c; stroke-miterlimit:10; stroke-width:5.61px;"/><rect x="212.02" y="86.49" width="41.84" height="41.84" style="fill:#fffdf5; stroke:#293d8c; stroke-miterlimit:10; stroke-width:5.61px;"/></g></g><g><g><rect x="86.49" y="212.02" width="41.84" height="41.84" style="fill:#fffdf5; stroke:#293d8c; stroke-miterlimit:10; stroke-width:5.61px;"/><rect x="86.49" y="295.7" width="41.84" height="41.84" style="fill:#fffdf5; stroke:#293d8c; stroke-miterlimit:10; stroke-width:5.61px;"/><rect x="128.33" y="170.17" width="41.84" height="41.84" style="fill:#fffdf5; stroke:#293d8c; stroke-miterlimit:10; stroke-width:5.61px;"/><rect x="128.33" y="253.86" width="41.84" height="41.84" style="fill:#fffdf5; stroke:#293d8c; stroke-miterlimit:10; stroke-width:5.61px;"/></g><g><rect x="86.49" y="44.65" width="41.84" height="41.84" style="fill:#fffdf5; stroke:#293d8c; stroke-miterlimit:10; stroke-width:5.61px;"/><rect x="86.49" y="128.33" width="41.84" height="41.84" style="fill:#fffdf5; stroke:#293d8c; stroke-miterlimit:10; stroke-width:5.61px;"/><rect x="128.33" y="2.8" width="41.84" height="41.84" style="fill:#fffdf5; stroke:#293d8c; stroke-miterlimit:10; stroke-width:5.61px;"/><rect x="128.33" y="86.49" width="41.84" height="41.84" style="fill:#fffdf5; stroke:#293d8c; stroke-miterlimit:10; stroke-width:5.61px;"/></g></g><g><g><rect x="2.8" y="212.02" width="41.84" height="41.84" style="fill:#fffdf5; stroke:#293d8c; stroke-miterlimit:10; stroke-width:5.61px;"/><rect x="2.8" y="295.7" width="41.84" height="41.84" style="fill:#fffdf5; stroke:#293d8c; stroke-miterlimit:10; stroke-width:5.61px;"/><rect x="44.65" y="170.17" width="41.84" height="41.84" style="fill:#fffdf5; stroke:#293d8c; stroke-miterlimit:10; stroke-width:5.61px;"/><rect x="44.65" y="253.86" width="41.84" height="41.84" style="fill:#fffdf5; stroke:#293d8c; stroke-miterlimit:10; stroke-width:5.61px;"/></g><g><rect x="2.8" y="44.65" width="41.84" height="41.84" style="fill:#fffdf5; stroke:#293d8c; stroke-miterlimit:10; stroke-width:5.61px;"/><rect x="2.8" y="128.33" width="41.84" height="41.84" style="fill:#fffdf5; stroke:#293d8c; stroke-miterlimit:10; stroke-width:5.61px;"/><rect x="44.65" y="2.8" width="41.84" height="41.84" style="fill:#fffdf5; stroke:#293d8c; stroke-miterlimit:10; stroke-width:5.61px;"/><rect x="44.65" y="86.49" width="41.84" height="41.84" style="fill:#fffdf5; stroke:#293d8c; stroke-miterlimit:10; stroke-width:5.61px;"/></g></g></g></g></g></svg>