<?xml version="1.0" encoding="UTF-8"?><svg xmlns="http://www.w3.org/2000/svg" viewBox="0 0 235.73 60.86"><g id="a"/><g id="b"><g id="c"><g><g><g><polygon points="50.61 28.05 49.64 28.05 48.95 25.92 48.6 24.85 47.47 24.85 33.8 24.85 32.67 24.85 32.32 25.92 31.64 28.05 14.1 28.05 12.54 28.05 12.54 29.6 12.54 35.5 5.15 35.5 2.9 35.5 3.7 37.6 11.4 57.86 11.78 58.86 12.54 58.86 12.85 58.86 14.1 58.86 49.36 58.86 50.61 58.86 51.62 58.86 52.17 58.86 52.17 57.31 52.17 29.6 52.17 28.05 50.61 28.05" style="fill:none; stroke:#fff; stroke-miterlimit:10; stroke-width:4px;"/><polyline points="8.19 35.49 43.27 35.49 52.17 58.86" style="fill:none; stroke:#fff; stroke-miterlimit:10; stroke-width:4px;"/></g><g><polygon points="232.18 28.05 231.2 28.05 230.52 25.92 230.17 24.85 229.04 24.85 215.37 24.85 214.24 24.85 213.89 25.92 213.21 28.05 195.66 28.05 194.11 28.05 194.11 29.6 194.11 35.5 186.72 35.5 184.47 35.5 185.27 37.6 192.96 57.86 193.34 58.86 194.11 58.86 194.42 58.86 195.66 58.86 230.93 58.86 232.18 58.86 233.18 58.86 233.73 58.86 233.73 57.31 233.73 29.6 233.73 28.05 232.18 28.05" style="fill:none; stroke:#fff; stroke-miterlimit:10; stroke-width:4px;"/><polyline points="189.75 35.49 224.84 35.49 233.73 58.86" style="fill:none; stroke:#fff; stroke-miterlimit:10; stroke-width:4px;"/></g></g><path d="M176.31,24.9c-30.27-30.27-78.97-30.56-108.89-.65" style="fill:none; stroke:#fff; stroke-miterlimit:10; stroke-width:4px;"/></g></g></g></svg>