<?xml version="1.0" encoding="UTF-8"?><svg xmlns="http://www.w3.org/2000/svg" viewBox="0 0 1564.78 1174.04"><g id="a"/><g id="b"><g id="c"><rect x="638.78" y="278.84" width="642.22" height="669.03" style="fill:#293d8c;"/><g><g><g><rect x="764.62" y="822.79" width="41.84" height="41.84" style="fill:#fffdf5;"/><rect x="764.62" y="906.47" width="41.84" height="41.84" style="fill:#fffdf5;"/><rect x="806.46" y="780.94" width="41.84" height="41.84" style="fill:#fffdf5;"/><rect x="806.46" y="864.63" width="41.84" height="41.84" style="fill:#fffdf5;"/></g><g><rect x="764.62" y="655.42" width="41.84" height="41.84" style="fill:#fffdf5;"/><rect x="764.62" y="739.1" width="41.84" height="41.84" style="fill:#fffdf5;"/><rect x="806.46" y="613.58" width="41.84" height="41.84" style="fill:#fffdf5;"/><rect x="806.46" y="697.26" width="41.84" height="41.84" style="fill:#fffdf5;"/></g><g><rect x="764.62" y="488.05" width="41.84" height="41.84" style="fill:#fffdf5;"/><rect x="764.62" y="571.73" width="41.84" height="41.84" style="fill:#fffdf5;"/><rect x="806.46" y="446.21" width="41.84" height="41.84" style="fill:#fffdf5;"/><rect x="806.46" y="529.89" width="41.84" height="41.84" style="fill:#fffdf5;"/></g><g><rect x="764.62" y="320.68" width="41.84" height="41.84" style="fill:#fffdf5;"/><rect x="764.62" y="404.36" width="41.84" height="41.84" style="fill:#fffdf5;"/><rect x="806.46" y="278.84" width="41.84" height="41.84" style="fill:#fffdf5;"/><rect x="806.46" y="362.52" width="41.84" height="41.84" style="fill:#fffdf5;"/></g></g><g><g><rect x="680.94" y="822.79" width="41.84" height="41.84" style="fill:#fffdf5;"/><rect x="680.94" y="906.47" width="41.84" height="41.84" style="fill:#fffdf5;"/><rect x="722.78" y="780.94" width="41.84" height="41.84" style="fill:#fffdf5;"/><rect x="722.78" y="864.63" width="41.84" height="41.84" style="fill:#fffdf5;"/></g><g><rect x="680.94" y="655.42" width="41.84" height="41.84" style="fill:#fffdf5;"/><rect x="680.94" y="739.1" width="41.84" height="41.84" style="fill:#fffdf5;"/><rect x="722.78" y="613.58" width="41.84" height="41.84" style="fill:#fffdf5;"/><rect x="722.78" y="697.26" width="41.84" height="41.84" style="fill:#fffdf5;"/></g><g><rect x="680.94" y="488.05" width="41.84" height="41.84" style="fill:#fffdf5;"/><rect x="680.94" y="571.73" width="41.84" height="41.84" style="fill:#fffdf5;"/><rect x="722.78" y="446.21" width="41.84" height="41.84" style="fill:#fffdf5;"/><rect x="722.78" y="529.89" width="41.84" height="41.84" style="fill:#fffdf5;"/></g><g><rect x="680.94" y="320.68" width="41.84" height="41.84" style="fill:#fffdf5;"/><rect x="680.94" y="404.36" width="41.84" height="41.84" style="fill:#fffdf5;"/><rect x="722.78" y="278.84" width="41.84" height="41.84" style="fill:#fffdf5;"/><rect x="722.78" y="362.52" width="41.84" height="41.84" style="fill:#fffdf5;"/></g></g><g><g><rect x="597.25" y="822.79" width="41.84" height="41.84" style="fill:#fffdf5;"/><rect x="597.25" y="906.47" width="41.84" height="41.84" style="fill:#fffdf5;"/><rect x="639.09" y="780.94" width="41.84" height="41.84" style="fill:#fffdf5;"/><rect x="639.09" y="864.63" width="41.84" height="41.84" style="fill:#fffdf5;"/></g><g><rect x="597.25" y="655.42" width="41.84" height="41.84" style="fill:#fffdf5;"/><rect x="597.25" y="739.1" width="41.84" height="41.84" style="fill:#fffdf5;"/><rect x="639.09" y="613.58" width="41.84" height="41.84" style="fill:#fffdf5;"/><rect x="639.09" y="697.26" width="41.84" height="41.84" style="fill:#fffdf5;"/></g><g><rect x="597.25" y="488.05" width="41.84" height="41.84" style="fill:#fffdf5;"/><rect x="597.25" y="571.73" width="41.84" height="41.84" style="fill:#fffdf5;"/><rect x="639.09" y="446.21" width="41.84" height="41.84" style="fill:#fffdf5;"/><rect x="639.09" y="529.89" width="41.84" height="41.84" style="fill:#fffdf5;"/></g><g><rect x="597.25" y="320.68" width="41.84" height="41.84" style="fill:#fffdf5;"/><rect x="597.25" y="404.36" width="41.84" height="41.84" style="fill:#fffdf5;"/><rect x="639.09" y="278.84" width="41.84" height="41.84" style="fill:#fffdf5;"/><rect x="639.09" y="362.52" width="41.84" height="41.84" style="fill:#fffdf5;"/></g></g></g><g><path d="M944.84,327.25s-32.26,37.18-72.06,37.18-72.06-37.18-72.06-37.18c0,0,32.26-37.18,72.06-37.18s72.06,37.18,72.06,37.18Z" style="fill:#fffdf5; stroke:#293d8c; stroke-miterlimit:10; stroke-width:5.61px;"/><circle cx="872.78" cy="326.7" r="18.75" style="fill:#293d8c; stroke:#293d8c; stroke-miterlimit:10; stroke-width:5.61px;"/></g><g><g><path d="M1201.71,307.18v3.26h-9.77v9.77h9.77v3.25h-6.51v3.26h-3.26v13.02h-3.26v-32.55h13.02Zm-6.51,19.53h3.25v3.26h-3.25v-3.26Zm3.25,3.26h3.26v3.25h-3.26v-3.25Zm3.26-19.53h3.26v3.26h-3.26v-3.26Zm0,6.51h3.26v3.26h-3.26v-3.26Zm0,16.28h3.26v3.26h-3.26v-3.26Zm3.26-19.53h3.25v3.26h-3.25v-3.26Zm0,22.79h3.25v3.26h-3.25v-3.26Z" style="fill:#fffdf5;"/><path d="M1229.97,336.48v3.26h-16.27v-32.55h16.27v3.26h-13.02v9.77h13.02v3.25h-13.02v13.02h13.02Z" style="fill:#fffdf5;"/><path d="M1240.23,313.69v19.53h-3.25v-19.53h3.25Zm0-3.26h3.26v3.26h-3.26v-3.26Zm0,22.79h3.26v3.26h-3.26v-3.26Zm3.26-26.04h3.26v3.26h-3.26v-3.26Zm0,29.3h3.26v3.26h-3.26v-3.26Zm3.26-26.04h3.25v3.26h-3.25v-3.26Zm0,22.79h3.25v3.26h-3.25v-3.26Zm6.51-19.53v6.51h-3.26v-6.51h3.26Zm0,13.02v6.51h-3.26v-6.51h3.26Z" style="fill:#fffdf5;"/></g><circle cx="1163.88" cy="323.45" r="16.28" style="fill:#fffdf5;"/></g><path d="M813.23,481.58l-21.52-146.84-10.55,119.82s-140.71-83.37-201.15-8.63c-60.44,74.74,97.04,87.79,97.04,87.79,0,0-172.54-46.06-179.21,3.5-6.67,49.56,45.19,71.98,138.78,67.24l-87.15,31.92,154.37,12.69s-128.03,303.4,71.19,155.64c0,0-81.86,89.19-22.95,90.17,58.92,.98,122.28-127.81,122.28-127.81,0,0-45.1,158.86-2.45,156.05,42.65-2.8,15.16-97.01,15.16-97.01,0,0-12.19,158.59,256.4,37.92,268.59-120.67-32.98-153.91-32.98-153.91,0,0,195.53,46.32,194.88,8.96-.65-37.35-162.05-39.08-162.05-39.08,0,0,200.2,33.03,113.33-202.23-82.6-223.69-197.3-46.12-197.3-46.12,0,0,83.88-107.26-14.85-106.46-98.73,.8-218.92,60.4-231.25,156.4Z" style="fill:#fffdf5; stroke:#293d8c; stroke-miterlimit:10; stroke-width:5.55px;"/><g><path d="M1249.92,818.21s-32.26,37.18-72.06,37.18-72.06-37.18-72.06-37.18c0,0,32.26-37.18,72.06-37.18s72.06,37.18,72.06,37.18Z" style="fill:#fffdf5; stroke:#293d8c; stroke-miterlimit:10; stroke-width:5.61px;"/><circle cx="1177.85" cy="817.66" r="18.75" style="fill:#293d8c; stroke:#293d8c; stroke-miterlimit:10; stroke-width:5.61px;"/></g><g><rect x="1155.31" y="394.75" width="91.32" height="70.95" rx="4.24" ry="4.24" style="fill:#fffdf5; stroke:#293d8c; stroke-miterlimit:10; stroke-width:5.32px;"/><line x1="1246.63" y1="405.47" x2="1155.31" y2="405.47" style="fill:#fffdf5; stroke:#293d8c; stroke-miterlimit:10; stroke-width:5.32px;"/><polygon points="1193.56 432.15 1193.56 418.6 1205.29 425.38 1217.03 432.15 1205.29 438.93 1193.56 445.7 1193.56 432.15" style="fill:#fffdf5; stroke:#293d8c; stroke-miterlimit:10; stroke-width:5.32px;"/></g><rect x="1.11" y="278.84" width="637.96" height="668.21" style="fill:#edb2cc;"/><g><path d="M56.85,776.62h-3.4v-11.23c-.29,.43-1.37,.63-2.05,.63h-1.12v-2.9h1.06c1.33,0,2.09-.52,2.32-2.25h3.2v15.75Z"/><path d="M63.81,769.24v-1.01c0-4.82,1.89-7.54,5.85-7.54h.92c3.96,0,5.85,2.75,5.85,7.54v1.01c0,4.82-1.89,7.56-5.85,7.56h-.92c-3.96,0-5.85-2.75-5.85-7.56Zm6.62,4.64c1.51,0,2.63-1.19,2.63-3.62v-3.04c0-2.43-1.12-3.62-2.63-3.62h-.61c-1.51,0-2.61,1.19-2.61,3.62v3.04c0,2.43,1.1,3.62,2.61,3.62h.61Z"/><path d="M86.77,773.38v3.24h-3.4v-3.24h3.4Z"/><path d="M97.91,776.62h-3.4v-11.23c-.29,.43-1.37,.63-2.05,.63h-1.12v-2.9h1.06c1.33,0,2.09-.52,2.32-2.25h3.2v15.75Z"/><path d="M104.98,771.64h3.26c0,1.49,1.22,2.23,2.68,2.23,1.55,0,2.54-.77,2.54-2.03s-.99-1.96-2.54-1.96h-1.51v-2.77h1.44c1.24,0,2.05-.74,2.05-1.8s-.9-1.73-2.21-1.73-2.23,.63-2.25,2.09h-3.2c.02-3.15,2.66-5,5.51-5,3.08,0,5.4,1.94,5.4,4.28,0,1.46-.74,2.72-1.87,3.35,1.53,.56,2.52,1.91,2.52,3.62,0,3.06-2.75,4.86-5.9,4.86s-5.94-1.91-5.94-5.15Z"/><path d="M127.2,773.38v3.24h-3.4v-3.24h3.4Z"/><path d="M143.88,759.74h3.08v18.01h-3.08v-18.01Z"/><path d="M173.37,772.61h-6.68l-1.51,4.01h-2.41l6.19-15.75h2.16l6.19,15.75h-2.43l-1.51-4.01Zm-.77-2.05l-2.57-6.77-2.57,6.77h5.13Z"/><path d="M188.12,768.85l-2.27,2.41v5.36h-2.36v-15.75h2.36v7.25l6.91-7.25h2.95l-5.99,6.3,6.64,9.45h-2.86l-5.38-7.76Z"/><path d="M201.24,760.86h2.36l4.66,12.94,4.68-12.94h2.36l-5.87,15.75h-2.32l-5.87-15.75Z"/><path d="M228.64,772.61h-6.68l-1.51,4.01h-2.41l6.19-15.75h2.16l6.19,15.75h-2.43l-1.51-4.01Zm-.77-2.05l-2.57-6.77-2.57,6.77h5.13Zm-1.58-10.94h-1.96l1.85-3.33h2.43l-2.32,3.33Z"/><path d="M249.69,772.59l.32,4.03h-2.27l-.31-3.83c-.11-1.4-1.04-2.39-2.39-2.39h-3.94v6.21h-2.34v-15.75h6.17c3.17,0,5.11,1.91,5.11,4.73,0,1.69-.92,2.86-2.32,3.56,1.15,.68,1.89,1.91,1.98,3.44Zm-8.6-4.25h3.76c2.05,0,2.84-1.33,2.84-2.75s-.79-2.7-2.84-2.7h-3.76v5.45Z"/><path d="M257.95,760.86h2.34v15.75h-2.34v-15.75Z"/><path d="M267.72,771.1v-10.24h2.25v10.31c0,2.25,1.53,3.53,3.78,3.53s3.8-1.28,3.8-3.53v-10.31h2.25v10.24c0,3.6-2.43,5.69-6.05,5.69s-6.03-2.09-6.03-5.69Z"/><path d="M287.22,760.86h2.88l5.02,12.56,5.02-12.56h2.88v15.75h-2.25v-11.73l-4.7,11.73h-1.89l-4.73-11.73v11.73h-2.23v-15.75Z"/></g><g><rect y="881.96" width="1280.95" height="66.9" style="fill:#293d8c;"/><g><g><g><polygon points="59.91 906.01 50.1 906.01 50.1 924.42 57.5 924.42 61.59 912.15 59.91 906.01" style="fill:#fff;"/><polygon points="64.79 906.01 60.71 918.27 62.39 924.42 72.2 924.42 72.2 906.01 64.79 906.01" style="fill:#fff;"/></g><g><path d="M92.49,909.87v12.48h-1.85v-5.6h-6.19v5.6h-1.85v-12.48h1.85v5.24h6.19v-5.24h1.85Z" style="fill:#fff;"/><path d="M111.19,919.17h-5.29l-1.19,3.17h-1.91l4.9-12.48h1.71l4.9,12.48h-1.93l-1.19-3.17Zm-.61-1.62l-2.03-5.37-2.03,5.37h4.06Z" style="fill:#fff;"/><path d="M125.15,920.71c.84,0,1.19-.59,1.19-1.73v-9.11h1.85v9.16c0,2.19-1.02,3.32-2.82,3.32h-1.69v-1.64h1.46Z" style="fill:#fff;"/><path d="M138.8,916.11c0-3.67,2.64-6.38,6.2-6.38s6.19,2.71,6.19,6.38-2.64,6.38-6.19,6.38-6.2-2.71-6.2-6.38Zm10.5,0c0-2.73-1.82-4.74-4.3-4.74s-4.31,2.01-4.31,4.74,1.84,4.74,4.31,4.74,4.3-2.01,4.3-4.74Zm-3.6-9.86h1.93l-1.84,2.64h-1.55l1.46-2.64Z" style="fill:#fff;"/><path d="M161.51,916.11c0-4.26,2.96-6.38,6.11-6.38,2.94,0,5.19,1.75,5.44,4.21h-1.93c-.25-1.52-1.68-2.57-3.51-2.57-2.46,0-4.26,1.69-4.26,4.74s1.8,4.8,4.24,4.8c1.91,0,3.64-1.14,3.64-2.76,0-.48-.32-.82-.84-.82h-2.71v-1.5h3.17c.98,0,2.16,.77,2.16,2.1v4.42h-1.68v-2.1c-.53,1.34-2.03,2.25-3.8,2.25-3.12,0-6.04-2.12-6.04-6.38Z" style="fill:#fff;"/><path d="M186.63,917.14l-4.37-7.27h2.07l3.23,5.51,3.24-5.51h2.07l-4.39,7.27v5.21h-1.85v-5.21Z" style="fill:#fff;"/><path d="M208.8,919.17h-5.29l-1.19,3.17h-1.91l4.9-12.48h1.71l4.9,12.48h-1.93l-1.19-3.17Zm-.61-1.62l-2.03-5.37-2.03,5.37h4.06Zm-1.25-8.66h-1.55l1.46-2.64h1.93l-1.84,2.64Z" style="fill:#fff;"/><path d="M230.82,919.16l.25,3.19h-1.8l-.25-3.03c-.09-1.11-.82-1.89-1.89-1.89h-3.12v4.92h-1.85v-12.48h4.88c2.51,0,4.05,1.52,4.05,3.74,0,1.34-.73,2.26-1.84,2.82,.91,.53,1.5,1.52,1.57,2.73Zm-6.81-3.37h2.98c1.62,0,2.25-1.05,2.25-2.17s-.62-2.14-2.25-2.14h-2.98v4.31Z" style="fill:#fff;"/></g></g><g><g><polygon points="478.52 909.09 479.7 911.21 480.43 911.21 481.61 909.09 481.61 913.59 482.93 913.59 482.93 906.55 481.61 906.55 480.07 909.33 478.52 906.55 477.21 906.55 477.21 913.59 478.52 913.59 478.52 909.09" style="fill:#fff;"/><path d="M485.67,910.52c-1.23,.08-1.85,.61-1.85,1.58,0,.52,.16,.9,.48,1.16,.32,.26,.74,.38,1.25,.38,.43,0,.83-.14,1.18-.41l.02,.35h1.21v-3.28c0-.52-.18-.95-.53-1.28-.35-.34-.83-.51-1.43-.51-.47,0-.89,.12-1.26,.37-.37,.25-.61,.57-.73,.96l1.04,.29c.23-.31,.53-.46,.92-.46,.23,0,.42,.06,.54,.19,.13,.12,.19,.3,.19,.53v.06l-1.02,.07Zm1.02,1.59c-.24,.25-.56,.38-.97,.38-.24,0-.41-.04-.49-.11-.09-.07-.13-.17-.13-.29,0-.35,.2-.54,.59-.56l1-.06v.64Z" style="fill:#fff;"/><path d="M489.21,912.8c.14,.19,.31,.35,.5,.48,.19,.13,.39,.22,.58,.28,.2,.06,.4,.08,.6,.08,.39,0,.75-.12,1.07-.35v.27c0,.3-.08,.53-.24,.7-.16,.17-.39,.26-.68,.26-.45,0-.79-.2-1.04-.61l-1.11,.28c.14,.47,.39,.83,.77,1.09,.37,.26,.83,.39,1.36,.39,.67,0,1.2-.2,1.6-.59,.4-.39,.6-.9,.6-1.52v-4.98h-1.2l-.02,.34c-.3-.27-.66-.41-1.08-.41-.21,0-.42,.03-.62,.08-.2,.06-.4,.15-.59,.28-.19,.13-.36,.29-.51,.48-.14,.19-.26,.44-.35,.73-.09,.3-.13,.62-.13,.99s.04,.69,.13,.99c.09,.3,.2,.54,.35,.73Zm.88-2.43c.06-.2,.14-.34,.24-.44,.1-.1,.2-.16,.3-.2,.1-.04,.21-.06,.33-.06s.22,.02,.33,.06c.1,.04,.2,.1,.29,.19,.1,.09,.18,.21,.24,.37,.07,.16,.12,.36,.14,.58v.61c-.03,.19-.08,.35-.15,.49-.07,.14-.15,.24-.25,.31-.1,.07-.19,.12-.29,.16-.1,.03-.21,.05-.32,.05-.12,0-.23-.02-.33-.06-.1-.04-.2-.11-.3-.2-.1-.1-.18-.24-.24-.44s-.09-.43-.09-.71,.03-.52,.09-.71Z" style="fill:#fff;"/><polygon points="494.67 915.61 495.96 915.61 498.53 908.57 497.16 908.57 496.16 911.6 495.16 908.57 493.79 908.57 495.5 913.27 494.67 915.61" style="fill:#fff;"/><path d="M500.48,910.52c-1.23,.08-1.85,.61-1.85,1.58,0,.52,.16,.9,.48,1.16,.32,.26,.74,.38,1.25,.38,.43,0,.83-.14,1.18-.41l.02,.35h1.21v-3.28c0-.52-.18-.95-.53-1.28-.35-.34-.83-.51-1.43-.51-.47,0-.89,.12-1.26,.37-.37,.25-.61,.57-.73,.96l1.04,.29c.23-.31,.53-.46,.92-.46,.23,0,.42,.06,.54,.19,.13,.12,.19,.3,.19,.53v.06l-1.02,.07Zm1.02,1.59c-.24,.25-.56,.38-.97,.38-.24,0-.41-.04-.49-.11-.09-.07-.13-.17-.13-.29,0-.35,.2-.54,.59-.56l1-.06v.64Z" style="fill:#fff;"/><path d="M505.1,910.82c.1-.69,.41-1.04,.92-1.04,.18,0,.35,.03,.52,.09l.12-1.31c-.15-.03-.31-.04-.46-.04-.44,0-.82,.17-1.14,.5l-.02-.43h-1.21v5.01h1.27v-2.77Z" style="fill:#fff;"/><polygon points="478.52 923.24 478.52 920.67 478.92 920.23 481.2 923.24 482.78 923.24 479.76 919.29 482.52 916.2 480.87 916.2 478.52 918.85 478.52 916.2 477.21 916.2 477.21 923.24 478.52 923.24" style="fill:#fff;"/><polygon points="486.43 922.13 485.46 922.13 485.46 916.2 483.24 916.2 483.24 917.32 484.2 917.32 484.2 922.13 483.24 922.13 483.24 923.24 486.43 923.24 486.43 922.13" style="fill:#fff;"/><polygon points="489.14 918.23 486.92 918.23 486.92 919.35 487.88 919.35 487.88 922.13 486.92 922.13 486.92 923.24 490.11 923.24 490.11 922.13 489.14 922.13 489.14 918.23" style="fill:#fff;"/><path d="M487.71,916.94c0,.22,.08,.41,.23,.57,.16,.15,.35,.23,.57,.23s.41-.08,.57-.23c.16-.16,.23-.35,.23-.57s-.08-.41-.23-.56c-.16-.15-.35-.23-.57-.23s-.41,.08-.57,.23c-.16,.15-.23,.34-.23,.56Z" style="fill:#fff;"/><path d="M492,918.57l-.02-.34h-1.21v7.04h1.27v-2.32c.32,.24,.67,.35,1.07,.35,.21,0,.41-.03,.61-.08,.2-.06,.39-.15,.58-.28,.19-.13,.36-.29,.5-.48,.14-.19,.26-.44,.35-.73,.09-.3,.13-.63,.13-.99s-.04-.69-.13-.99c-.09-.3-.21-.54-.35-.73-.14-.19-.31-.35-.51-.48-.19-.13-.39-.22-.59-.28-.2-.06-.41-.08-.62-.08-.42,0-.78,.14-1.08,.41Zm1.68,1.01c.1,.1,.18,.24,.24,.44,.06,.19,.09,.43,.09,.71,0,.23-.02,.42-.06,.6-.04,.17-.09,.31-.15,.41-.06,.1-.14,.18-.23,.25-.09,.06-.17,.11-.25,.13-.08,.02-.17,.03-.26,.03-.24,0-.46-.09-.65-.28-.19-.18-.31-.49-.37-.93v-.61c.03-.19,.08-.35,.15-.48,.07-.14,.15-.24,.25-.31,.09-.07,.19-.12,.29-.16,.1-.03,.2-.05,.32-.05,.12,0,.23,.02,.34,.06,.1,.04,.21,.11,.31,.2Z" style="fill:#fff;"/><path d="M499.48,920.9c-.08-.1-.18-.2-.3-.28-.12-.09-.24-.16-.37-.22-.13-.06-.27-.12-.44-.18l-.32-.12c-.3-.11-.5-.19-.6-.24-.1-.05-.15-.12-.15-.21,0-.09,.05-.17,.15-.23,.1-.06,.22-.09,.36-.09,.29,0,.52,.19,.69,.57l1.11-.29c-.13-.48-.34-.84-.65-1.08-.31-.24-.69-.36-1.14-.36-.51,0-.94,.14-1.27,.42-.34,.28-.51,.65-.51,1.09,0,.17,.03,.33,.09,.47,.06,.14,.13,.26,.21,.35,.08,.09,.19,.18,.32,.27,.14,.09,.25,.15,.35,.19,.1,.04,.23,.1,.39,.16l.37,.14c.27,.1,.45,.19,.55,.25,.1,.07,.15,.15,.15,.25,0,.12-.06,.22-.18,.28-.12,.07-.27,.1-.45,.1-.42,0-.73-.2-.93-.61l-1.11,.28c.28,.99,.94,1.48,2,1.48,.36,0,.69-.06,.98-.17,.29-.11,.53-.29,.71-.53,.18-.24,.27-.53,.27-.87,0-.17-.02-.33-.07-.47-.05-.14-.11-.26-.19-.36Z" style="fill:#fff;"/><polygon points="500.37 919.35 502.5 919.35 500.26 922.35 500.26 923.24 504.13 923.24 504.13 922.13 501.92 922.13 504.13 919.17 504.13 918.23 500.37 918.23 500.37 919.35" style="fill:#fff;"/><path d="M505.61,918.53c-.2,.13-.37,.29-.51,.49-.14,.19-.26,.44-.35,.74-.09,.3-.13,.63-.13,.99,0,.45,.06,.84,.19,1.18,.13,.34,.3,.6,.52,.8,.22,.19,.46,.34,.73,.43,.27,.09,.56,.14,.87,.14,.51,0,.95-.13,1.33-.39,.38-.26,.63-.62,.76-1.09l-1.11-.28c-.24,.41-.58,.61-1.02,.61-.57,0-.89-.33-.98-.98h3.23v-.42c0-.36-.04-.69-.13-.99-.09-.3-.2-.54-.35-.73-.14-.19-.31-.35-.51-.49s-.4-.22-.61-.28c-.21-.06-.43-.08-.67-.08s-.45,.03-.66,.08c-.21,.06-.42,.15-.61,.28Zm1.28,.79c.48,0,.79,.28,.91,.83h-1.84c.13-.55,.44-.83,.93-.83Z" style="fill:#fff;"/><path d="M511.25,920.24c.05-.34,.14-.57,.28-.71,.14-.13,.29-.2,.45-.2,.08,0,.16,.01,.23,.04,.08,.03,.15,.08,.23,.15,.08,.07,.14,.18,.19,.32,.05,.14,.07,.32,.07,.52v2.88h1.27v-3.01c.1-.61,.35-.91,.74-.91,.08,0,.16,.01,.24,.04,.08,.03,.15,.08,.23,.15,.08,.07,.14,.18,.19,.32,.05,.14,.07,.32,.07,.52v2.88h1.27v-2.95c0-.3-.04-.58-.11-.82-.07-.25-.17-.45-.29-.61-.12-.16-.26-.29-.42-.4-.16-.11-.33-.18-.49-.23-.17-.05-.34-.07-.51-.07-.51,0-.98,.19-1.41,.56-.32-.37-.72-.56-1.22-.56-.36,0-.7,.14-1.03,.41l-.02-.34h-1.21v5.01h1.27v-3.01Z" style="fill:#fff;"/><polygon points="520.6 922.13 519.62 922.13 519.62 916.2 517.4 916.2 517.4 917.32 518.36 917.32 518.36 922.13 517.4 922.13 517.4 923.24 520.6 923.24 520.6 922.13" style="fill:#fff;"/><path d="M521.69,922.73c.22,.19,.46,.34,.73,.43,.27,.09,.56,.14,.87,.14,.51,0,.95-.13,1.33-.39,.38-.26,.63-.62,.76-1.09l-1.11-.28c-.24,.41-.58,.61-1.02,.61-.57,0-.89-.33-.98-.98h3.23v-.42c0-.36-.04-.69-.13-.99-.09-.3-.2-.54-.35-.73-.14-.19-.31-.35-.51-.49-.2-.13-.4-.22-.61-.28-.21-.06-.43-.08-.67-.08s-.45,.03-.66,.08c-.21,.06-.42,.15-.61,.28-.2,.13-.37,.29-.51,.49-.14,.19-.26,.44-.35,.74-.09,.3-.13,.63-.13,.99,0,.45,.06,.84,.19,1.18,.13,.34,.3,.6,.52,.8Zm1.55-3.4c.48,0,.79,.28,.91,.83h-1.84c.13-.55,.44-.83,.93-.83Z" style="fill:#fff;"/><path d="M528.46,902.29h-79.08v25.6h81.53v-25.6h-2.45Zm-76.63,2.45h20.38v20.7h-20.38v-20.7Zm76.63,20.7h-53.79v-20.7h53.79v20.7Z" style="fill:#fff;"/></g><g><path d="M458.57,911.55c.28,0,.55,.04,.81,.12,.26,.08,.51,.21,.75,.39s.45,.41,.63,.68c.18,.27,.32,.62,.43,1.03,.11,.42,.16,.88,.16,1.4s-.05,.99-.16,1.4c-.11,.42-.25,.76-.43,1.03s-.39,.5-.63,.68-.49,.31-.75,.39c-.26,.08-.53,.12-.81,.12s-.56-.04-.81-.12c-.26-.08-.51-.21-.75-.39s-.45-.41-.63-.68-.32-.62-.42-1.03c-.11-.42-.16-.88-.16-1.4s.05-.99,.16-1.4c.11-.42,.25-.76,.42-1.03,.18-.27,.38-.5,.63-.68s.49-.31,.75-.39c.26-.08,.53-.12,.81-.12Zm-1.34,4.68l2.06-3.26c-.17-.14-.41-.21-.72-.21-.14,0-.28,.02-.4,.06s-.25,.11-.38,.22c-.13,.11-.24,.25-.33,.42-.09,.17-.17,.41-.22,.7-.06,.29-.09,.63-.09,1.02s.03,.74,.08,1.05Zm.7,1.18c.17,.1,.38,.16,.64,.16,.14,0,.27-.02,.4-.06s.25-.11,.38-.22c.13-.11,.24-.25,.33-.42,.09-.17,.17-.4,.23-.69,.06-.29,.09-.63,.09-1.02,0-.36-.02-.66-.07-.91l-1.99,3.15Z" style="fill:#fff;"/><path d="M462.15,916.49c0-.73,.23-1.44,.68-2.15l1.73-2.74h1.59l-1.61,2.46c.71,0,1.27,.21,1.69,.62,.42,.41,.62,.99,.62,1.74s-.21,1.33-.62,1.74c-.41,.41-.98,.62-1.69,.62s-1.29-.21-1.73-.62-.66-.97-.66-1.67Zm1.35-.06c0,.37,.09,.65,.27,.84s.43,.3,.76,.3,.57-.1,.74-.3c.16-.2,.25-.48,.25-.84s-.08-.65-.25-.85c-.17-.2-.41-.3-.73-.3s-.58,.1-.76,.3c-.18,.2-.27,.49-.27,.85Z" style="fill:#fff;"/><path d="M467.74,917.99c0-.21,.07-.39,.22-.54,.15-.15,.33-.22,.54-.22s.39,.08,.54,.22c.15,.15,.22,.33,.22,.54s-.07,.4-.22,.54c-.15,.15-.33,.22-.54,.22s-.39-.07-.54-.22-.22-.33-.22-.54Z" style="fill:#fff;"/></g></g><g><path d="M864.34,902.22h-14.21v26.4h14.21v-22.33h3.05v14.09c7.29-.63,11.17-3.64,11.17-9.01,0-6.07-4.96-9.14-14.21-9.14Zm-2.03,22.33h-3.05v-9.14h0c-2.7,0-5.08-1.53-5.08-4.57s2.37-4.57,5.08-4.57h3.05v18.27Z" style="fill:#fff;"/><g><path d="M823.25,906.46c.24,.12,.42,.3,.55,.52s.19,.49,.19,.78-.07,.55-.21,.78-.34,.4-.62,.52-.6,.19-.98,.19h-1.23v1.4h-1.1v-4.38h2.53c.34,0,.62,.06,.87,.19Zm-.62,1.85c.16-.12,.24-.3,.24-.52s-.07-.39-.22-.51-.35-.18-.61-.18h-1.09v1.4h1c.3,0,.52-.06,.68-.18Z" style="fill:#fff;"/><path d="M828.3,909.02h-2.88c.06,.28,.21,.5,.45,.66s.56,.23,.96,.23c.26,0,.5-.04,.73-.12s.43-.18,.62-.32v.82c-.19,.14-.43,.26-.71,.34s-.58,.13-.88,.13c-.45,0-.84-.08-1.17-.25s-.59-.4-.78-.69-.27-.64-.27-1.02c0-.36,.08-.68,.25-.97s.4-.52,.72-.69,.68-.25,1.1-.25,.74,.07,1.02,.21,.49,.34,.63,.6,.22,.57,.22,.93v.38Zm-2.53-1.1c-.18,.13-.29,.31-.34,.54h1.97c-.02-.24-.12-.42-.28-.54s-.39-.19-.67-.19-.51,.07-.68,.2Z" style="fill:#fff;"/><path d="M831.72,907.84h-1.08v2.82h-1.07v-2.82h-1.01v-.79h1.01v-.67l1.07-.21v.89h1.08v.79Z" style="fill:#fff;"/><path d="M832.91,910.51c-.32-.17-.57-.41-.75-.7s-.26-.63-.26-.99,.09-.69,.26-.99,.42-.52,.75-.69,.7-.25,1.13-.25,.81,.08,1.14,.25,.57,.39,.74,.69,.26,.62,.26,.99-.09,.69-.26,.99-.42,.53-.74,.7-.7,.26-1.14,.26-.81-.09-1.13-.26Zm1.7-.73c.16-.09,.28-.22,.37-.38s.13-.35,.13-.56-.04-.4-.13-.56-.21-.29-.37-.38-.35-.14-.57-.14-.41,.05-.57,.14-.28,.22-.37,.38-.13,.35-.13,.56,.04,.4,.13,.56,.21,.29,.37,.38,.35,.14,.57,.14,.4-.05,.56-.14Zm-.9-4.14h.77l-.74,1h-.63l.6-1Zm1.15,0h.77l-.74,1h-.63l.6-1Z" style="fill:#fff;"/><path d="M838.52,907.45v.06h1.36v.78h-1.35v2.37h-1.06v-2.37h-.97v-.78h.96v-.08s0-.06,0-.11c0-.43,.13-.76,.4-.99s.65-.34,1.15-.34c.2,0,.38,.02,.54,.06s.3,.09,.41,.16v.75c-.19-.12-.42-.19-.71-.19-.51,0-.75,.22-.73,.66Zm2.17-.63c-.09-.04-.17-.1-.22-.18s-.08-.16-.08-.26,.03-.18,.08-.25,.13-.13,.22-.18,.2-.06,.31-.06,.22,.02,.31,.06,.16,.1,.22,.18,.08,.16,.08,.25-.03,.18-.08,.26-.12,.14-.22,.18-.19,.07-.31,.07-.22-.02-.32-.07Zm-.22,.35h1.06v3.49h-1.06v-3.49Z" style="fill:#fff;"/><path d="M810.74,917.61l-1.95-2.13v2.13h-1.1v-4.38h1.1v1.81l1.94-1.81h1.37l-2.2,1.99,2.24,2.38h-1.41Z" style="fill:#fff;"/><path d="M816.24,913.99v3.61h-1.06v-.74c-.12,.29-.3,.5-.54,.65s-.51,.22-.83,.22c-.47,0-.83-.14-1.09-.41s-.38-.67-.38-1.18v-2.16h1.06v1.94c0,.33,.07,.57,.21,.73s.35,.24,.64,.24,.52-.09,.68-.27,.24-.43,.24-.74v-1.89h1.06Z" style="fill:#fff;"/><path d="M817.15,913.1h1.06v4.5h-1.06v-4.5Z" style="fill:#fff;"/><path d="M821.91,914.79h-1.08v2.82h-1.07v-2.82h-1.01v-.79h1.01v-.67l1.07-.21v.89h1.08v.79Z" style="fill:#fff;"/><path d="M826.29,913.99v3.61h-1.06v-.74c-.12,.29-.3,.5-.54,.65s-.51,.22-.83,.22c-.47,0-.83-.14-1.09-.41s-.38-.67-.38-1.18v-2.16h1.06v1.94c0,.33,.07,.57,.21,.73s.35,.24,.64,.24,.52-.09,.68-.27,.24-.43,.24-.74v-1.89h1.06Z" style="fill:#fff;"/><path d="M829.83,914.07v.98c-.07-.05-.16-.09-.26-.12s-.21-.05-.34-.05c-.19,0-.36,.04-.51,.13s-.26,.22-.34,.41-.12,.41-.12,.68v1.51h-1.07v-3.61h1.05v.99c.09-.36,.22-.62,.4-.8s.4-.26,.66-.26c.21,0,.38,.05,.53,.15Z" style="fill:#fff;"/><path d="M832.82,914.05c.29,.14,.51,.34,.66,.61s.23,.6,.23,.98v1.96h-1.04v-.49c-.12,.2-.29,.35-.51,.46s-.46,.15-.74,.15c-.26,0-.5-.05-.7-.16s-.35-.25-.46-.43-.16-.38-.16-.61,.06-.43,.17-.61,.27-.32,.48-.42,.45-.15,.72-.15c.53,0,.93,.17,1.19,.52v-.15c0-.22-.06-.41-.16-.56s-.24-.27-.42-.34-.38-.11-.61-.11c-.47,0-.86,.16-1.2,.48v-.88c.43-.31,.93-.47,1.5-.47,.4,0,.74,.07,1.03,.21Zm-.55,2.92c.13-.05,.22-.12,.29-.2s.11-.19,.11-.29-.03-.2-.1-.28-.16-.15-.29-.19-.27-.07-.43-.07-.29,.02-.41,.07-.2,.11-.26,.2-.09,.18-.09,.29,.03,.21,.09,.29,.14,.15,.26,.2,.24,.07,.4,.07,.3-.02,.43-.07Zm-.09-4.4h1l-.9,1h-.77l.66-1Z" style="fill:#fff;"/><path d="M834.56,913.1h1.06v4.5h-1.06v-4.5Z" style="fill:#fff;"/><path d="M836.76,913.77c-.09-.04-.17-.1-.22-.18s-.08-.16-.08-.26,.03-.18,.08-.25,.13-.13,.22-.18,.2-.06,.31-.06,.22,.02,.31,.06,.16,.1,.22,.18,.08,.16,.08,.25-.03,.18-.08,.26-.12,.14-.22,.18-.19,.07-.31,.07-.22-.02-.32-.07Zm-.22,.35h1.06v3.49h-1.06v-3.49Z" style="fill:#fff;"/><path d="M839.16,917.59c-.3-.08-.57-.21-.82-.37v-.82c.22,.17,.48,.3,.78,.4s.59,.14,.89,.14c.22,0,.39-.03,.51-.1s.17-.16,.17-.28c0-.09-.03-.16-.09-.22s-.17-.12-.34-.16l-.8-.19c-.39-.1-.67-.23-.84-.4s-.26-.38-.26-.64c0-.22,.07-.41,.21-.58s.33-.3,.59-.39,.56-.14,.91-.14c.31,0,.6,.04,.85,.11s.48,.17,.66,.29v.79c-.19-.13-.4-.23-.64-.31s-.5-.11-.77-.11c-.24,0-.42,.03-.54,.09s-.18,.14-.18,.25c0,.09,.04,.16,.12,.21s.22,.1,.41,.14l.71,.16c.36,.07,.63,.19,.82,.36s.28,.41,.28,.71c0,.23-.07,.44-.2,.62s-.33,.32-.58,.41-.56,.15-.91,.15c-.32,0-.63-.04-.93-.13Z" style="fill:#fff;"/><path d="M801.86,924.45c-.33-.16-.58-.39-.75-.69s-.26-.65-.26-1.05v-2.54h1.09v2.52c0,.34,.1,.6,.29,.78s.46,.27,.8,.27,.6-.09,.79-.28,.29-.44,.29-.78v-2.52h1.09v2.54c0,.4-.09,.75-.27,1.05s-.43,.53-.75,.69-.71,.24-1.14,.24-.82-.08-1.15-.24Zm.1-4.6c-.08-.05-.15-.11-.19-.19s-.07-.16-.07-.25,.02-.17,.07-.25,.11-.13,.19-.18,.17-.06,.26-.06,.18,.02,.26,.06,.14,.1,.19,.18,.07,.16,.07,.25-.02,.17-.07,.25-.11,.14-.19,.18-.17,.07-.26,.07-.18-.02-.26-.07Zm1.59,0c-.08-.05-.14-.11-.19-.19s-.07-.16-.07-.25,.02-.17,.07-.25,.11-.13,.19-.18,.17-.06,.26-.06,.19,.02,.27,.06,.14,.1,.19,.18,.07,.16,.07,.25-.02,.17-.07,.25-.11,.14-.19,.18-.17,.07-.26,.07-.18-.02-.26-.07Z" style="fill:#fff;"/><path d="M810.07,920.94v2.89c0,.42-.09,.78-.28,1.08s-.45,.53-.8,.69-.75,.24-1.22,.24c-.31,0-.61-.04-.89-.12s-.52-.19-.71-.34v-.85c.17,.15,.39,.28,.64,.37s.51,.14,.79,.14c.48,0,.83-.11,1.07-.34s.36-.56,.36-.99v-.23c-.14,.31-.33,.54-.57,.69s-.53,.24-.87,.24-.65-.08-.91-.23-.47-.36-.61-.63-.22-.57-.22-.91c0-.36,.08-.68,.23-.96s.36-.5,.63-.65,.58-.23,.92-.23,.62,.07,.85,.22,.42,.37,.56,.67v-.74h1.06Zm-1.56,2.55c.16-.09,.29-.21,.38-.36s.13-.33,.13-.52-.04-.37-.13-.52-.21-.27-.37-.36-.34-.13-.55-.13-.39,.04-.55,.13-.28,.21-.36,.36-.13,.33-.13,.53,.04,.36,.13,.51,.2,.27,.36,.35,.33,.13,.54,.13,.4-.04,.56-.13Z" style="fill:#fff;"/><path d="M814.95,920.94l-2.43,4.8h-1.19l.81-1.5-1.57-3.3h1.14l1.01,2.31,1.09-2.31h1.13Z" style="fill:#fff;"/><path d="M818.68,920.99c.22,.13,.39,.33,.5,.59s.17,.57,.17,.94v2.04h-1.06v-1.8c0-.36-.07-.62-.21-.8s-.36-.26-.65-.26c-.21,0-.38,.04-.52,.13s-.25,.21-.32,.36-.11,.34-.11,.55v1.83h-1.06v-3.61h1.05v.82c.13-.33,.31-.57,.54-.73s.52-.24,.87-.24c.32,0,.58,.07,.8,.2Z" style="fill:#fff;"/><path d="M820.99,924.4c-.32-.17-.57-.41-.75-.7s-.26-.63-.26-.99,.09-.69,.26-.99,.42-.52,.75-.69,.7-.25,1.13-.25,.81,.08,1.14,.25,.57,.39,.74,.69,.26,.62,.26,.99-.09,.69-.26,.99-.42,.53-.74,.7-.7,.26-1.14,.26-.81-.09-1.13-.26Zm.12-3.97c-.08-.04-.14-.1-.19-.18s-.07-.15-.07-.24,.02-.16,.07-.23,.11-.12,.19-.16,.17-.06,.26-.06,.18,.02,.26,.06,.14,.09,.19,.16,.07,.15,.07,.23-.02,.16-.07,.24-.11,.13-.19,.18-.17,.07-.26,.07-.18-.02-.26-.07Zm1.57,3.23c.16-.09,.28-.22,.37-.38s.13-.35,.13-.56-.04-.4-.13-.56-.21-.29-.37-.38-.35-.14-.57-.14-.41,.05-.57,.14-.28,.22-.37,.38-.13,.35-.13,.56,.04,.4,.13,.56,.21,.29,.37,.38,.35,.14,.57,.14,.4-.05,.56-.14Zm-.1-3.23c-.08-.04-.15-.1-.19-.18s-.07-.15-.07-.24,.02-.16,.07-.23,.11-.12,.19-.16,.17-.06,.27-.06,.18,.02,.26,.06,.14,.09,.19,.16,.07,.15,.07,.23-.02,.16-.07,.24-.11,.13-.19,.18-.17,.07-.26,.07-.18-.02-.27-.07Z" style="fill:#fff;"/><path d="M827.6,924.55l-1.59-1.91v1.91h-1.07v-4.5h1.07v2.31l1.47-1.42h1.29l-1.68,1.55,1.8,2.06h-1.29Z" style="fill:#fff;"/><path d="M829.82,924.54c-.3-.08-.57-.21-.82-.37v-.82c.22,.17,.48,.3,.78,.4s.59,.14,.89,.14c.22,0,.39-.03,.51-.1s.17-.16,.17-.28c0-.09-.03-.16-.09-.22s-.17-.12-.34-.16l-.8-.19c-.39-.1-.67-.23-.84-.4s-.26-.38-.26-.64c0-.22,.07-.41,.21-.58s.33-.3,.59-.39,.56-.14,.91-.14c.31,0,.6,.04,.85,.11s.48,.17,.66,.29v.79c-.19-.13-.4-.23-.64-.31s-.5-.11-.77-.11c-.24,0-.42,.03-.54,.09s-.18,.14-.18,.25c0,.09,.04,.16,.12,.21s.22,.1,.41,.14l.71,.16c.36,.07,.63,.19,.82,.36s.28,.41,.28,.71c0,.23-.07,.44-.2,.62s-.33,.32-.58,.41-.56,.15-.91,.15c-.32,0-.63-.04-.93-.13Z" style="fill:#fff;"/><path d="M836.82,922.91h-2.88c.06,.28,.21,.5,.45,.66s.56,.23,.96,.23c.26,0,.5-.04,.73-.12s.43-.18,.62-.32v.82c-.19,.14-.43,.26-.71,.34s-.58,.13-.88,.13c-.45,0-.84-.08-1.17-.25s-.59-.4-.78-.69-.27-.64-.27-1.02c0-.36,.08-.68,.25-.97s.4-.52,.72-.69,.68-.25,1.1-.25,.74,.07,1.02,.21,.49,.34,.63,.6,.22,.57,.22,.93v.38Zm-2.53-1.1c-.18,.13-.29,.31-.34,.54h1.97c-.02-.24-.12-.42-.28-.54s-.39-.19-.67-.19-.51,.07-.68,.2Zm.9-2.29h1l-.9,1h-.77l.66-1Z" style="fill:#fff;"/><path d="M841.55,920.94v2.89c0,.42-.09,.78-.28,1.08s-.45,.53-.8,.69-.75,.24-1.22,.24c-.31,0-.61-.04-.89-.12s-.52-.19-.71-.34v-.85c.17,.15,.39,.28,.64,.37s.51,.14,.79,.14c.48,0,.83-.11,1.07-.34s.36-.56,.36-.99v-.23c-.14,.31-.33,.54-.57,.69s-.53,.24-.87,.24-.65-.08-.91-.23-.47-.36-.61-.63-.22-.57-.22-.91c0-.36,.08-.68,.23-.96s.36-.5,.63-.65,.58-.23,.92-.23,.62,.07,.85,.22,.42,.37,.56,.67v-.74h1.06Zm-1.56,2.55c.16-.09,.29-.21,.38-.36s.13-.33,.13-.52-.04-.37-.13-.52-.21-.27-.37-.36-.34-.13-.55-.13-.39,.04-.55,.13-.28,.21-.36,.36-.13,.33-.13,.53,.04,.36,.13,.51,.2,.27,.36,.35,.33,.13,.54,.13,.4-.04,.56-.13Z" style="fill:#fff;"/></g></g><g><path d="M1229.11,918.36c-1.46,0-2.64,1.18-2.64,2.64s1.18,2.64,2.64,2.64,2.64-1.18,2.64-2.64-1.18-2.64-2.64-2.64Z" style="fill:#fff;"/><path d="M1211.97,906.92c.04,.1,.05,.23,.05,.38v10.92c0,.64-.08,1.05-.3,1.35-.21,.28-.52,.42-.88,.42s-.67-.14-.88-.42c-.22-.3-.3-.71-.3-1.35v-10.92c0-.15,.02-.27,.05-.38,.08-.22,.24-.31,.24-.31h-5.37s.16,.08,.24,.31c.04,.1,.05,.23,.05,.38v11.12c0,2.96,1.81,5.34,5.85,5.34h.21c4.03,0,5.84-2.38,5.84-5.34v-11.12c0-.15,.02-.27,.06-.38,.08-.22,.24-.31,.24-.31h-5.37s.16,.08,.24,.31Z" style="fill:#fff;"/><path d="M1204.28,919.53c-.1,.04-.23,.05-.38,.05h-2.77v-12.29c0-.15,.02-.27,.05-.37,.08-.22,.24-.31,.24-.31h-5.37s.16,.08,.24,.31c.03,.08,.04,.17,.05,.28v15.49c0,.15-.01,.27-.05,.37-.08,.22-.24,.31-.24,.31h8.52v-4.08s-.08,.16-.31,.24Z" style="fill:#fff;"/><path d="M1225.08,923.06c-.04-.1-.05-.22-.05-.37v-12.29h2.09c.15,0,.27,.02,.38,.05,.22,.08,.31,.24,.31,.24v-4.08h-10.32v4.08s.08-.16,.31-.24c.1-.04,.23-.05,.38-.05h2.09v12.38c0,.11-.02,.2-.05,.28-.08,.22-.24,.31-.24,.31h5.37s-.16-.08-.24-.31Z" style="fill:#fff;"/><path d="M1189.18,906.28h-.01c-4.29,.02-6.31,3.28-6.36,8.53h0v.42h0c.05,5.25,2.06,8.51,6.36,8.53h.01c4.29-.02,6.31-3.28,6.35-8.53h0v-.42h0c-.05-5.25-2.06-8.51-6.35-8.53Zm1.44,8.95c0,2.28-.07,4.74-1.45,4.79-1.38-.04-1.45-2.51-1.45-4.79v-.42c0-2.28,.07-4.78,1.45-4.82,1.38,.04,1.45,2.54,1.45,4.82v.42Z" style="fill:#fff;"/><path d="M1230.24,909.57c.92,0,1.66-.74,1.66-1.66s-.74-1.65-1.66-1.65-1.66,.74-1.66,1.65,.74,1.66,1.66,1.66Zm0-3.14c.82,0,1.49,.66,1.49,1.48s-.67,1.48-1.49,1.48-1.49-.66-1.49-1.48,.67-1.48,1.49-1.48Z" style="fill:#fff;"/><path d="M1229.84,908.03h.42l.48,.79h.32l-.5-.81c.27-.04,.45-.24,.45-.53,0-.36-.23-.54-.7-.54h-.72v1.88h.26v-.79Zm0-.85h.46c.24,0,.45,.02,.45,.31,0,.27-.23,.31-.45,.31h-.46v-.62Z" style="fill:#fff;"/><path d="M1168.44,914.68h-.04c1.63-.04,3.07-1.7,2.99-3.78-.12-2.99-2.35-4.28-6.09-4.28h-5.07s.16,.08,.24,.3c.07,.19,.05,.46,.05,.87v14.4c0,.93-.14,1.17-.14,1.17h6.04c3.78,0,5.64-1.85,5.64-4.64,0-2.38-1.73-3.91-3.62-4.05Zm-3.25-4.67h.32c.93,0,1.8,.48,1.73,1.69-.06,1.1-.83,1.56-1.73,1.56h-.32v-3.25Zm.28,9.95h-.3v-3.67h.3c1.26,0,2.01,.69,2.02,1.77,.01,1.39-.87,1.9-2.02,1.9Z" style="fill:#fff;"/><path d="M1159.63,921.51s-3.18-13.74-3.25-14.07c-.14-.62,.19-.83,.19-.83h-6.03s.32,.21,.19,.83c-.07,.33-3.25,14.07-3.25,14.07-.38,1.75-.87,1.85-.87,1.85h5.54s-.4-.15-.31-.75c.09-.6,.31-1.95,.31-1.95h2.83s.22,1.36,.31,1.95c.09,.6-.31,.75-.31,.75h5.27s-.22-.1-.6-1.85Zm-7.05-3.93l.96-6.65,.96,6.65h-1.93Z" style="fill:#fff;"/><path d="M1181.09,914.94c-.87-.93-1.9-1.76-2.92-2.53-.88-.66-1.3-1.13-1.1-1.77,.4-1.3,2.81-.44,4.28,.58v-4.41s-.27,.34-.75,.16c-.83-.31-1.52-.68-2.96-.69-3.3-.01-5.15,2.41-5.17,4.76-.01,1.67,.47,2.88,1.83,4.07,1.03,.91,2.18,1.75,2.89,2.42,.51,.48,.86,1.17,.61,1.77-.41,.99-2.35,.97-5.22-1.49v4.98s.35-.31,.84-.07c.82,.4,2.18,1.03,3.59,1.05,3.85,.05,5.84-2.46,5.58-5.58-.1-1.22-.57-2.26-1.49-3.24Z" style="fill:#fff;"/></g></g></g><g><g><g><polygon points="429.1 469.29 428.13 469.29 427.44 467.16 427.09 466.08 425.96 466.08 412.29 466.08 411.16 466.08 410.82 467.16 410.13 469.29 392.59 469.29 391.03 469.29 391.03 470.84 391.03 476.74 383.64 476.74 381.39 476.74 382.19 478.84 389.89 499.1 390.27 500.1 391.03 500.1 391.34 500.1 392.59 500.1 427.85 500.1 429.1 500.1 430.11 500.1 430.66 500.1 430.66 498.54 430.66 470.84 430.66 469.29 429.1 469.29" style="fill:none; stroke:#293d8c; stroke-miterlimit:10; stroke-width:4.29px;"/><polyline points="386.68 476.73 421.77 476.73 430.66 500.1" style="fill:none; stroke:#293d8c; stroke-miterlimit:10; stroke-width:4.29px;"/></g><g><polygon points="610.67 469.29 609.69 469.29 609.01 467.16 608.66 466.08 607.53 466.08 593.86 466.08 592.73 466.08 592.38 467.16 591.7 469.29 574.15 469.29 572.6 469.29 572.6 470.84 572.6 476.74 565.21 476.74 562.96 476.74 563.76 478.84 571.45 499.1 571.83 500.1 572.6 500.1 572.91 500.1 574.15 500.1 609.42 500.1 610.67 500.1 611.68 500.1 612.22 500.1 612.22 498.54 612.22 470.84 612.22 469.29 610.67 469.29" style="fill:none; stroke:#293d8c; stroke-miterlimit:10; stroke-width:4.29px;"/><polyline points="568.25 476.73 603.33 476.73 612.22 500.1" style="fill:none; stroke:#293d8c; stroke-miterlimit:10; stroke-width:4.29px;"/></g></g><g><path d="M551.42,462.94c-30.42-27.06-76.68-26.28-105.5,2.54" style="fill:none; stroke:#293d8c; stroke-miterlimit:10; stroke-width:4.29px;"/><polygon points="551.33 440.62 547.08 441.19 549.93 462.14 528.83 463.46 529.1 467.74 554.8 466.13 551.33 440.62" style="fill:#293d8c;"/></g></g><g><g><g><path d="M354.87,325.22v-1.91c0-7.56,2.58-11.69,8.65-11.69h1.27c6.11,0,8.65,4.17,8.65,11.69v1.91c0,7.52-2.54,11.69-8.65,11.69h-1.27c-6.08,0-8.65-4.13-8.65-11.69Zm9.82,8.44c3.43,0,5.09-2.58,5.09-7.74v-3.32c0-5.16-1.66-7.74-5.09-7.74h-1.02c-3.43,0-5.09,2.58-5.09,7.74v3.32c0,5.16,1.66,7.74,5.09,7.74h1.02Z"/><path d="M402.38,328.51c0,4.84-3.81,8.41-8.97,8.41-5.86,0-9.32-4.73-9.32-11.51,0-9.04,4.13-13.81,9.78-13.81,4.77,0,8.12,2.86,8.72,6.78h-3.53c-.49-2.19-2.4-3.6-5.12-3.6-3.71,0-6.18,3.85-6.43,8.87,1.06-2.08,3.64-3.53,6.22-3.53,5.12,0,8.65,3.6,8.65,8.41Zm-3.74-.04c0-3-2.12-5.12-5.16-5.12s-5.23,2.12-5.23,5.12,2.15,5.19,5.23,5.19,5.16-2.15,5.16-5.19Z"/><path d="M417.71,332.82v3.81h-3.78v-3.81h3.78Z"/></g><path d="M447.15,311.91h4.52l7.88,19.71,7.88-19.71h4.52v24.72h-3.53v-18.4l-7.38,18.4h-2.97l-7.42-18.4v18.4h-3.5v-24.72Z"/><path d="M498.41,330.35h-10.49l-2.37,6.29h-3.78l9.71-24.72h3.39l9.71,24.72h-3.81l-2.37-6.29Zm-1.2-3.21l-4.03-10.63-4.03,10.63h8.05Z"/><path d="M512.37,324.27c0-8.44,5.86-12.64,12.12-12.64,5.83,0,10.28,3.46,10.77,8.34h-3.81c-.49-3-3.32-5.09-6.96-5.09-4.87,0-8.44,3.36-8.44,9.4s3.57,9.5,8.41,9.5c3.78,0,7.21-2.26,7.21-5.47,0-.95-.64-1.62-1.66-1.62h-5.37v-2.97h6.29c1.94,0,4.27,1.52,4.27,4.17v8.76h-3.32v-4.17c-1.06,2.65-4.03,4.45-7.52,4.45-6.18,0-11.97-4.2-11.97-12.64Z"/><path d="M551.55,326.32l-8.65-14.41h4.1l6.39,10.91,6.43-10.91h4.1l-8.69,14.41v10.31h-3.67v-10.31Z"/><path d="M584.9,330.35h-10.49l-2.37,6.29h-3.78l9.71-24.72h3.39l9.71,24.72h-3.81l-2.37-6.29Zm-1.2-3.21l-4.03-10.63-4.03,10.63h8.05Z"/><path d="M617.93,330.31l.49,6.32h-3.57l-.49-6c-.18-2.19-1.62-3.74-3.74-3.74h-6.18v9.75h-3.67v-24.72h9.68c4.98,0,8.02,3,8.02,7.42,0,2.65-1.45,4.49-3.64,5.58,1.8,1.06,2.97,3,3.11,5.4Zm-13.49-6.68h5.9c3.21,0,4.45-2.08,4.45-4.31s-1.24-4.24-4.45-4.24h-5.9v8.55Z"/><path d="M364.14,358l-3.57,3.78v8.41h-3.71v-24.72h3.71v11.37l10.84-11.37h4.63l-9.4,9.89,10.42,14.83h-4.49l-8.44-12.19Z"/><path d="M386.99,345.46h3.67v21.48h12.04v3.25h-15.72v-24.72Z"/><path d="M412.75,345.46h3.67v24.72h-3.67v-24.72Z"/><path d="M428.5,345.46h9.57c4.98,0,7.98,3.07,7.98,7.45s-3,7.45-7.98,7.45h-5.9v9.82h-3.67v-24.72Zm9.47,11.73c3.18,0,4.42-2.01,4.42-4.27s-1.24-4.27-4.42-4.27h-5.79v8.55h5.79Z"/><path d="M455.1,361.99h3.57c.28,3.18,2.37,5.23,5.86,5.23,3.11,0,5.37-1.2,5.37-3.89,0-5.93-14.02-2.37-14.02-11.48,0-3.96,3.46-6.68,8.44-6.68s8.51,2.93,8.83,7.45h-3.57c-.25-2.54-2.23-4.2-5.26-4.2s-4.77,1.34-4.77,3.43c0,6,14.09,2.01,14.09,11.44,0,4.52-3.81,7.17-9.11,7.17-5.58,0-9.15-3.36-9.43-8.48Z"/><path d="M482.84,366.97l14.55-18.3h-13.81v-3.21h17.98v3.21l-14.34,18.3h14.34v3.21h-18.72v-3.21Z"/><path d="M512.33,345.46h15.86v3.25h-12.19v7.1h9.85v3.25h-9.85v7.88h12.57v3.25h-16.25v-24.72Z"/><path d="M539.57,345.46h4.52l7.88,19.71,7.88-19.71h4.52v24.72h-3.53v-18.4l-7.38,18.4h-2.97l-7.42-18.4v18.4h-3.5v-24.72Z"/><path d="M576.45,345.46h3.67v21.48h12.04v3.25h-15.72v-24.72Z"/><path d="M602.21,345.46h15.86v3.25h-12.19v7.1h9.85v3.25h-9.85v7.88h12.57v3.25h-16.25v-24.72Z"/></g><g><path d="M70.9,311.58v25.67h-3.12v-11.84h-13.6v11.84h-3.12v-25.67h3.12v11h13.6v-11h3.12Z"/><path d="M98.59,330.31h-11.44l-2.68,6.93h-3.26l10.23-25.67h2.82l10.23,25.67h-3.26l-2.64-6.93Zm-1.1-2.79l-4.62-12.1-4.66,12.1h9.28Z"/><path d="M115.93,334.42c1.61,0,2.46-1.28,2.46-3.74v-19.1h3.12v19.18c0,4.25-1.91,6.49-5.35,6.49h-3.41v-2.82h3.19Z"/><path d="M132.54,324.41c0-7.55,5.35-13.13,12.58-13.13s12.61,5.57,12.61,13.13-5.39,13.13-12.61,13.13-12.58-5.57-12.58-13.13Zm21.96,0c0-5.9-4-10.3-9.39-10.3s-9.35,4.4-9.35,10.3,3.96,10.3,9.35,10.3,9.39-4.4,9.39-10.3Zm-7.55-20.28h3.41l-3.81,5.43h-2.79l3.19-5.43Z"/><path d="M168.12,324.41c0-8.76,6.01-13.13,12.39-13.13,5.87,0,10.45,3.48,11.04,8.4h-3.3c-.59-3.26-3.81-5.57-7.77-5.57-5.28,0-9.17,3.63-9.17,10.3s3.89,10.38,9.17,10.38c4.22,0,7.96-2.38,7.96-6.09,0-1.17-.77-1.94-2.02-1.94h-5.79v-2.71h6.34c1.87,0,4.55,1.47,4.55,4.4v8.8h-2.9v-4.47c-1.21,2.82-4.4,4.77-8.18,4.77-6.34,0-12.32-4.36-12.32-13.13Z"/><path d="M208.71,326.5l-9.09-14.92h3.56l7.11,11.92,7.08-11.92h3.56l-9.09,14.92v10.74h-3.12v-10.74Z"/><path d="M243.03,330.31h-11.44l-2.68,6.93h-3.26l10.23-25.67h2.82l10.23,25.67h-3.26l-2.64-6.93Zm-1.1-2.79l-4.62-12.1-4.66,12.1h9.28Zm-3.19-17.97h-2.79l3.19-5.43h3.41l-3.81,5.43Z"/><path d="M276.44,330.86l.44,6.38h-3.01l-.44-6.2c-.15-2.49-1.76-4.25-4.18-4.25h-6.97v10.45h-3.12v-25.67h9.72c5.06,0,8.18,3.04,8.18,7.52,0,2.82-1.61,4.84-4.03,5.98,2.02,1.1,3.23,3.19,3.41,5.79Zm-14.15-6.89h6.6c3.59,0,4.95-2.35,4.95-4.88s-1.36-4.73-4.95-4.73h-6.6v9.61Z"/></g><g><g><line x1="300.63" y1="310.13" x2="328.92" y2="338.41"/><rect x="313.98" y="304.27" width="1.6" height="40" transform="translate(-137.1 317.56) rotate(-45)"/></g><g><line x1="328.92" y1="310.13" x2="300.63" y2="338.41"/><rect x="294.78" y="323.47" width="40" height="1.6" transform="translate(-137.1 317.56) rotate(-45)"/></g></g></g><path d="M1225.73,1.38C950.64,483.67,772.95,579.66,218.79,545.28c554.16,34.37,613.96,145.09,338.88,627.38,275.09-482.29,452.78-578.27,1006.95-543.9C1010.45,594.39,950.64,483.67,1225.73,1.38Z" style="fill:#fffdf5; stroke:#293d8c; stroke-miterlimit:10; stroke-width:5.58px;"/><path d="M678.24,501.97l141.6,18.84v-154.44l-104.03-17.65s93.56,125.24-46.41,74.41c.74,5.16,181.23,48.62,8.84,78.83Z" style="fill:#fffdf5; stroke:#293d8c; stroke-miterlimit:10; stroke-width:5.58px;"/><rect x="844.34" y="571.73" width="227.54" height="78.08" style="fill:#293d8c;"/><g><path d="M864.37,592.39h7.62l13.39,22.06v-22.06h7.15v33.35h-7.62l-13.39-22.06v22.06h-7.15v-33.35Z" style="fill:#fffdf5;"/><path d="M922.49,617.59c-.95,5.19-5.53,8.53-11.43,8.53-8.15,0-12.34-6.38-12.34-12.43s3.71-12.34,11.86-12.34,11.86,6.24,11.86,11.72c0,.91-.05,1.62-.1,2.14h-17.25c.48,3.38,2.62,5.48,5.96,5.48,2.67,0,4.43-1.05,4.95-3.1h6.48Zm-17.29-6.57h10.62c-.19-2.67-2.05-4.81-5.24-4.81-3,0-4.81,1.48-5.38,4.81Z" style="fill:#fffdf5;"/><path d="M924.77,601.73h6.76l5.05,15.53,5-15.53h6.81l-8.77,24.01h-6.1l-8.76-24.01Z" style="fill:#fffdf5;"/><path d="M974.46,617.59c-.95,5.19-5.53,8.53-11.43,8.53-8.15,0-12.34-6.38-12.34-12.43s3.71-12.34,11.86-12.34,11.86,6.24,11.86,11.72c0,.91-.05,1.62-.1,2.14h-17.25c.48,3.38,2.62,5.48,5.96,5.48,2.67,0,4.43-1.05,4.95-3.1h6.48Zm-17.29-6.57h10.62c-.19-2.67-2.05-4.81-5.24-4.81-3,0-4.81,1.48-5.38,4.81Z" style="fill:#fffdf5;"/><path d="M978.65,620.16l12.58-12.91h-11.77v-5.53h19.34v5.53l-12.43,12.91h13.15v5.57h-20.87v-5.57Z" style="fill:#fffdf5;"/><path d="M1027.29,617.59c-.95,5.19-5.53,8.53-11.43,8.53-8.15,0-12.34-6.38-12.34-12.43s3.71-12.34,11.86-12.34,11.86,6.24,11.86,11.72c0,.91-.05,1.62-.1,2.14h-17.25c.48,3.38,2.62,5.48,5.96,5.48,2.67,0,4.43-1.05,4.95-3.1h6.48Zm-17.29-6.57h10.62c-.19-2.67-2.05-4.81-5.24-4.81-3,0-4.81,1.48-5.38,4.81Zm8.48-11.96h-5.62l3.33-7.05h7.05l-4.76,7.05Z" style="fill:#fffdf5;"/><path d="M1031.24,617.64h5.72c.24,2.14,1.91,3.48,4.38,3.48,2.05,0,3.48-1,3.48-2.33,0-4.91-12.91-.1-12.91-10.19,0-4.24,3.67-7.24,8.58-7.24,5.76,0,9.67,3.1,9.91,7.81h-5.76c-.29-2.05-2.14-3.14-3.95-3.14s-3.14,.81-3.14,2.33c0,4.91,13.15-.67,13.15,10.19,0,4.57-3.72,7.57-9.34,7.57s-9.86-3.29-10.1-8.48Z" style="fill:#fffdf5;"/></g><g><rect x="677.29" y="692.79" width="290.98" height="132.69" rx="22.66" ry="22.66" style="fill:#fffdf5; stroke:#293d8c; stroke-miterlimit:10; stroke-width:5.56px;"/><g><path d="M713.09,787.51h-4.29v-1.6c2.4-.06,4.46-.94,4.84-3.84h1.86v19.72h-2.4v-14.28Z" style="fill:#3f4a99;"/><path d="M718.98,791.97c0-6.35,3.01-10.25,7.64-10.25s7.59,3.84,7.59,10.25-2.72,10.25-7.61,10.25-7.61-4.01-7.61-10.25Zm12.74,0c0-4.98-1.69-8.19-5.1-8.19s-5.15,3.12-5.15,8.19,1.69,8.16,5.15,8.16,5.1-3.09,5.1-8.16Z" style="fill:#3f4a99;"/><path d="M736.12,796.18c0-2.83,1.83-4.38,4.04-5.1v-.09c-1.83-.69-3.06-2.15-3.06-4.18,0-3.12,2.83-5.12,6.44-5.12s6.44,1.98,6.44,5.12c0,2.03-1.17,3.46-3.01,4.18v.09c2.2,.66,3.98,2.43,3.98,5.1,0,4.47-3.72,6.04-7.33,6.04s-7.5-1.6-7.5-6.04Zm12.42,0c0-2.58-1.86-4.18-5.01-4.18s-4.95,1.6-4.95,4.18,1.89,4.04,5.04,4.04,4.92-1.52,4.92-4.04Zm-.92-9.27c0-2-1.57-3.21-4.09-3.21s-4.09,1.2-4.09,3.21,1.57,3.21,4.09,3.21,4.09-1.2,4.09-3.21Z" style="fill:#3f4a99;"/><path d="M752.87,791.97c0-6.35,3.01-10.25,7.64-10.25s7.59,3.84,7.59,10.25-2.72,10.25-7.61,10.25-7.61-4.01-7.61-10.25Zm12.74,0c0-4.98-1.69-8.19-5.1-8.19s-5.15,3.12-5.15,8.19,1.69,8.16,5.15,8.16,5.1-3.09,5.1-8.16Z" style="fill:#3f4a99;"/><path d="M770.93,786.99h2.32v2.09h.06c1.12-1.52,2.61-2.43,4.75-2.43,3.75,0,6.35,2.86,6.35,7.79s-2.43,7.79-6.44,7.79c-2,0-3.43-.6-4.67-2.18h-.06v6.5h-2.32v-19.55Zm11.11,7.47c0-3.32-1.4-5.84-4.21-5.84-3.23,0-4.72,2.63-4.72,5.84s1.29,5.81,4.69,5.81c2.83,0,4.24-2.46,4.24-5.81Z" style="fill:#3f4a99;"/></g><g><path d="M753.02,714.19h9.56c3.61,0,6.04,2.26,6.04,5.61,0,2.49-1.09,4.27-3.55,5.07v.09c2.09,.74,2.75,2.18,2.95,5.21,.23,3.29,.57,4.12,.94,4.38v.11h-2.78c-.43-.37-.52-1.15-.74-4.58-.2-3.01-1.4-4.06-4.15-4.06h-5.7v8.65h-2.58v-20.47Zm2.58,9.73h6.07c2.86,0,4.29-1.43,4.29-3.75,0-2.49-1.14-3.75-4.15-3.75h-6.21v7.5Z" style="fill:#3f4a99;"/><path d="M770.42,727.28c0-4.29,2.81-7.79,7.01-7.79,4.44,0,6.81,3.44,6.81,8.33h-11.45c.17,3.01,1.8,5.3,4.78,5.3,2.15,0,3.58-1.03,4.09-3.03h2.26c-.69,3.18-3.01,4.98-6.36,4.98-4.52,0-7.16-3.49-7.16-7.79Zm2.43-1.2h8.9c-.14-2.95-1.66-4.75-4.32-4.75s-4.24,2.06-4.58,4.75Z" style="fill:#3f4a99;"/><path d="M785.56,729.85h2.38c.31,2.58,2.03,3.29,4.24,3.29,2.43,0,3.44-1.06,3.44-2.43,0-1.66-1.15-2.09-3.87-2.66-2.92-.6-5.52-1.2-5.52-4.44,0-2.46,1.89-4.06,5.32-4.06,3.66,0,5.47,1.75,5.81,4.64h-2.38c-.23-1.95-1.29-2.81-3.49-2.81s-2.98,.94-2.98,2.12c0,1.6,1.43,1.92,3.98,2.43,2.98,.6,5.47,1.26,5.47,4.67,0,2.98-2.43,4.49-5.84,4.49-4.06,0-6.33-1.92-6.55-5.24Z" style="fill:#3f4a99;"/><path d="M799.64,727.28c0-4.29,2.75-7.79,7.16-7.79s7.13,3.49,7.13,7.79-2.69,7.79-7.13,7.79-7.16-3.49-7.16-7.79Zm11.91,0c0-3.26-1.6-5.87-4.75-5.87s-4.78,2.6-4.78,5.87,1.63,5.84,4.78,5.84,4.75-2.58,4.75-5.84Z" style="fill:#3f4a99;"/><path d="M816.33,714.19h2.32v20.47h-2.32v-20.47Z" style="fill:#3f4a99;"/><path d="M831.3,734.66v-2.03h-.06c-1.06,1.43-2.32,2.38-4.46,2.38-3.04,0-4.98-1.83-4.98-4.9v-10.25h2.32v10.19c0,1.92,1.23,3.03,3.32,3.03,2.35,0,3.86-1.77,3.86-4.12v-9.1h2.32v14.8h-2.32Z" style="fill:#3f4a99;"/><path d="M835.82,719.86h2.15v-4.67h2.32v4.67h2.86v1.89h-2.86v9.62c0,1.03,.54,1.37,1.49,1.37,.46,0,.97-.11,1.23-.2h.09v2c-.54,.11-1.17,.2-1.86,.2-1.89,0-3.26-.77-3.26-2.86v-10.13h-2.15v-1.89Z" style="fill:#3f4a99;"/><path d="M845.55,714.19h2.32v2.86h-2.32v-2.86Zm0,5.67h2.32v14.8h-2.32v-14.8Z" style="fill:#3f4a99;"/><path d="M850.18,727.28c0-4.29,2.75-7.79,7.16-7.79s7.13,3.49,7.13,7.79-2.69,7.79-7.13,7.79-7.16-3.49-7.16-7.79Zm11.91,0c0-3.26-1.6-5.87-4.75-5.87s-4.78,2.6-4.78,5.87,1.63,5.84,4.78,5.84,4.75-2.58,4.75-5.84Z" style="fill:#3f4a99;"/><path d="M869.1,721.81h.06c1.06-1.4,2.55-2.29,4.69-2.29,3.09,0,4.98,1.69,4.98,4.75v10.39h-2.32v-10.19c0-1.92-1.26-3.01-3.35-3.01-2.35,0-4.06,1.66-4.06,4.09v9.1h-2.32v-14.8h2.32v1.95Z" style="fill:#3f4a99;"/><path d="M888.77,723.18c1.26-1.12,2.38-2,2.38-3.86s-1.34-3.44-3.86-3.44c-2.95,0-4.32,1.98-4.41,4.9h-2.35c.09-3.89,2.06-6.96,6.84-6.96,4.04,0,6.24,2.46,6.24,5.47,0,2.35-1.29,3.69-2.63,4.81-2.38,1.98-3,2.69-3.03,5.61h-2.18c.03-3.15,.83-4.61,3.01-6.53Zm-3.32,8.65h2.78v2.83h-2.78v-2.83Z" style="fill:#3f4a99;"/></g><g><path d="M882.92,795h-9.25v-2.15l9.7-12.85h1.89v13.08h3.23v1.92h-3.23v4.81h-2.35v-4.81Zm-6.93-1.92h6.93v-9.19h-.06l-6.87,9.1v.09Z" style="fill:#3f4a99;"/><path d="M891.05,779.34h2.58v10.16l10.08-10.16h3.23l-8.27,8.19,8.96,12.28h-3.01l-7.7-10.53-3.29,3.29v7.24h-2.58v-20.47Z" style="fill:#3f4a99;"/></g><line x1="967.6" y1="757.64" x2="677.97" y2="757.64" style="fill:#fffdf5; stroke:#293d8c; stroke-miterlimit:10; stroke-width:5.56px;"/><line x1="822.78" y1="756.93" x2="822.78" y2="825.79" style="fill:#fffdf5; stroke:#293d8c; stroke-miterlimit:10; stroke-width:5.56px;"/></g></g></g></svg>