<?xml version="1.0" encoding="UTF-8"?><svg xmlns="http://www.w3.org/2000/svg" viewBox="0 0 676.45 767.7"><g id="a"/><g id="b"><g id="c"><g><g><path d="M465.46,316.4c1.03-.21,2.5-.33,3.9-.33,2.17,0,3.57,.4,4.55,1.28,.79,.7,1.24,1.77,1.24,2.99,0,2.08-1.31,3.46-2.96,4.02v.07c1.21,.42,1.94,1.54,2.31,3.18,.51,2.19,.89,3.71,1.21,4.32h-2.1c-.26-.44-.61-1.8-1.05-3.76-.47-2.17-1.31-2.99-3.15-3.06h-1.91v6.82h-2.03v-15.52Zm2.03,7.17h2.08c2.17,0,3.55-1.19,3.55-2.99,0-2.03-1.47-2.92-3.62-2.94-.98,0-1.68,.09-2.01,.19v5.74Z" style="fill:#fffdf5;"/><path d="M486.52,324.55h-6.12v5.67h6.82v1.7h-8.85v-15.74h8.5v1.7h-6.47v4.97h6.12v1.68Z" style="fill:#fffdf5;"/><path d="M500.88,331.41c-.75,.37-2.24,.75-4.16,.75-4.44,0-7.77-2.8-7.77-7.96s3.34-8.26,8.22-8.26c1.96,0,3.2,.42,3.74,.7l-.49,1.66c-.77-.37-1.87-.65-3.18-.65-3.69,0-6.14,2.36-6.14,6.49,0,3.85,2.22,6.33,6.05,6.33,1.24,0,2.5-.26,3.31-.65l.42,1.61Z" style="fill:#fffdf5;"/></g><circle cx="452.87" cy="323.75" r="8.17" style="fill:#fffdf5;"/></g><rect x="113.45" y="73.89" width="400.82" height="576.33" style="fill:#293d8c;"/><g><g><g><rect x="200.05" y="583.67" width="21.29" height="21.29" style="fill:#fffdf5;"/><rect x="200.05" y="626.25" width="21.29" height="21.29" style="fill:#fffdf5;"/><rect x="221.34" y="562.38" width="21.29" height="21.29" style="fill:#fffdf5;"/><rect x="221.34" y="604.96" width="21.29" height="21.29" style="fill:#fffdf5;"/></g><g><rect x="200.05" y="498.5" width="21.29" height="21.29" style="fill:#fffdf5;"/><rect x="200.05" y="541.08" width="21.29" height="21.29" style="fill:#fffdf5;"/><rect x="221.34" y="477.2" width="21.29" height="21.29" style="fill:#fffdf5;"/><rect x="221.34" y="519.79" width="21.29" height="21.29" style="fill:#fffdf5;"/></g><g><rect x="200.05" y="413.33" width="21.29" height="21.29" style="fill:#fffdf5;"/><rect x="200.05" y="455.91" width="21.29" height="21.29" style="fill:#fffdf5;"/><rect x="221.34" y="392.03" width="21.29" height="21.29" style="fill:#fffdf5;"/><rect x="221.34" y="434.62" width="21.29" height="21.29" style="fill:#fffdf5;"/></g><g><rect x="200.05" y="328.16" width="21.29" height="21.29" style="fill:#fffdf5;"/><rect x="200.05" y="370.74" width="21.29" height="21.29" style="fill:#fffdf5;"/><rect x="221.34" y="306.86" width="21.29" height="21.29" style="fill:#fffdf5;"/><rect x="221.34" y="349.45" width="21.29" height="21.29" style="fill:#fffdf5;"/></g></g><g><g><rect x="157.47" y="583.67" width="21.29" height="21.29" style="fill:#fffdf5;"/><rect x="157.47" y="626.25" width="21.29" height="21.29" style="fill:#fffdf5;"/><rect x="178.76" y="562.38" width="21.29" height="21.29" style="fill:#fffdf5;"/><rect x="178.76" y="604.96" width="21.29" height="21.29" style="fill:#fffdf5;"/></g><g><rect x="157.47" y="498.5" width="21.29" height="21.29" style="fill:#fffdf5;"/><rect x="157.47" y="541.08" width="21.29" height="21.29" style="fill:#fffdf5;"/><rect x="178.76" y="477.2" width="21.29" height="21.29" style="fill:#fffdf5;"/><rect x="178.76" y="519.79" width="21.29" height="21.29" style="fill:#fffdf5;"/></g><g><rect x="157.47" y="413.33" width="21.29" height="21.29" style="fill:#fffdf5;"/><rect x="157.47" y="455.91" width="21.29" height="21.29" style="fill:#fffdf5;"/><rect x="178.76" y="392.03" width="21.29" height="21.29" style="fill:#fffdf5;"/><rect x="178.76" y="434.62" width="21.29" height="21.29" style="fill:#fffdf5;"/></g><g><rect x="157.47" y="328.16" width="21.29" height="21.29" style="fill:#fffdf5;"/><rect x="157.47" y="370.74" width="21.29" height="21.29" style="fill:#fffdf5;"/><rect x="178.76" y="306.86" width="21.29" height="21.29" style="fill:#fffdf5;"/><rect x="178.76" y="349.45" width="21.29" height="21.29" style="fill:#fffdf5;"/></g></g><g><g><rect x="114.88" y="583.67" width="21.29" height="21.29" style="fill:#fffdf5;"/><rect x="114.88" y="626.25" width="21.29" height="21.29" style="fill:#fffdf5;"/><rect x="136.17" y="562.38" width="21.29" height="21.29" style="fill:#fffdf5;"/><rect x="136.17" y="604.96" width="21.29" height="21.29" style="fill:#fffdf5;"/></g><g><rect x="114.88" y="498.5" width="21.29" height="21.29" style="fill:#fffdf5;"/><rect x="114.88" y="541.08" width="21.29" height="21.29" style="fill:#fffdf5;"/><rect x="136.17" y="477.2" width="21.29" height="21.29" style="fill:#fffdf5;"/><rect x="136.17" y="519.79" width="21.29" height="21.29" style="fill:#fffdf5;"/></g><g><rect x="114.88" y="413.33" width="21.29" height="21.29" style="fill:#fffdf5;"/><rect x="114.88" y="455.91" width="21.29" height="21.29" style="fill:#fffdf5;"/><rect x="136.17" y="392.03" width="21.29" height="21.29" style="fill:#fffdf5;"/><rect x="136.17" y="434.62" width="21.29" height="21.29" style="fill:#fffdf5;"/></g><g><rect x="114.88" y="328.16" width="21.29" height="21.29" style="fill:#fffdf5;"/><rect x="114.88" y="370.74" width="21.29" height="21.29" style="fill:#fffdf5;"/><rect x="136.17" y="306.86" width="21.29" height="21.29" style="fill:#fffdf5;"/><rect x="136.17" y="349.45" width="21.29" height="21.29" style="fill:#fffdf5;"/></g></g></g><g><path d="M282.35,339.85s-16.2,18.67-36.18,18.67-36.18-18.67-36.18-18.67c0,0,16.2-18.67,36.18-18.67s36.18,18.67,36.18,18.67Z" style="fill:#fffdf5; stroke:#293d8c; stroke-miterlimit:10; stroke-width:2.82px;"/><circle cx="246.17" cy="339.57" r="9.41" style="fill:#293d8c; stroke:#293d8c; stroke-miterlimit:10; stroke-width:2.82px;"/></g><g><g><path d="M474.82,313.06v1.63h-4.9v4.9h4.9v1.63h-3.27v1.63h-1.63v6.54h-1.63v-16.34h6.54Zm-3.27,9.81h1.63v1.63h-1.63v-1.63Zm1.63,1.63h1.63v1.63h-1.63v-1.63Zm1.63-9.81h1.63v1.63h-1.63v-1.63Zm0,3.27h1.63v1.63h-1.63v-1.63Zm0,8.17h1.63v1.63h-1.63v-1.63Zm1.63-9.81h1.63v1.63h-1.63v-1.63Zm0,11.44h1.63v1.63h-1.63v-1.63Z" style="fill:#fffdf5;"/><path d="M489.01,327.77v1.63h-8.17v-16.34h8.17v1.63h-6.54v4.9h6.54v1.63h-6.54v6.54h6.54Z" style="fill:#fffdf5;"/><path d="M494.16,316.33v9.81h-1.63v-9.81h1.63Zm0-1.63h1.63v1.63h-1.63v-1.63Zm0,11.44h1.63v1.63h-1.63v-1.63Zm1.63-13.07h1.63v1.63h-1.63v-1.63Zm0,14.71h1.63v1.63h-1.63v-1.63Zm1.63-13.07h1.63v1.63h-1.63v-1.63Zm0,11.44h1.63v1.63h-1.63v-1.63Zm3.27-9.81v3.27h-1.63v-3.27h1.63Zm0,6.54v3.27h-1.63v-3.27h1.63Z" style="fill:#fffdf5;"/></g><circle cx="455.83" cy="321.23" r="8.17" style="fill:#fffdf5;"/></g><path d="M273.09,397.28l-10.8-73.72-5.3,60.16s-70.65-41.86-100.99-4.34c-30.34,37.52,48.72,44.08,48.72,44.08,0,0-86.63-23.13-89.98,1.76-3.35,24.88,22.69,36.14,69.68,33.76l-43.76,16.03,77.5,6.37s-64.28,152.33,35.74,78.14c0,0-41.1,44.78-11.52,45.27s61.39-64.17,61.39-64.17c0,0-22.64,79.76-1.23,78.35,21.41-1.41,7.61-48.71,7.61-48.71,0,0-6.12,79.62,128.73,19.04,134.85-60.58-16.56-77.28-16.56-77.28,0,0,98.17,23.25,97.84,4.5-.33-18.75-81.36-19.62-81.36-19.62,0,0,100.51,16.58,56.9-101.53-41.47-112.31-99.06-23.15-99.06-23.15,0,0,42.11-53.85-7.46-53.45-49.57,.4-109.91,30.33-116.11,78.52Z" style="fill:#fffdf5; stroke:#293d8c; stroke-miterlimit:10; stroke-width:2.79px;"/><g><path d="M492.34,593.03s-16.2,18.67-36.18,18.67-36.18-18.67-36.18-18.67c0,0,16.2-18.67,36.18-18.67s36.18,18.67,36.18,18.67Z" style="fill:#fffdf5; stroke:#293d8c; stroke-miterlimit:10; stroke-width:2.82px;"/><circle cx="456.16" cy="592.76" r="9.41" style="fill:#293d8c; stroke:#293d8c; stroke-miterlimit:10; stroke-width:2.82px;"/></g><g><rect x="454.87" y="363.71" width="45.85" height="35.62" rx="2.13" ry="2.13" style="fill:#fffdf5; stroke:#293d8c; stroke-miterlimit:10; stroke-width:2.67px;"/><line x1="500.71" y1="369.09" x2="454.87" y2="369.09" style="fill:#fffdf5; stroke:#293d8c; stroke-miterlimit:10; stroke-width:2.67px;"/><polygon points="474.07 382.49 474.07 375.68 479.96 379.09 485.85 382.49 479.96 385.89 474.07 389.29 474.07 382.49" style="fill:#fffdf5; stroke:#293d8c; stroke-miterlimit:10; stroke-width:2.67px;"/></g><rect x="113.36" width="400.7" height="306.86" style="fill:#edb2cc;"/><g><path d="M129.08,290.75h-2.12v-7c-.18,.27-.86,.39-1.28,.39h-.7v-1.81h.66c.83,0,1.3-.32,1.45-1.4h1.99v9.83Z"/><path d="M133.41,286.14v-.63c0-3,1.18-4.7,3.65-4.7h.58c2.47,0,3.65,1.71,3.65,4.7v.63c0,3-1.18,4.72-3.65,4.72h-.58c-2.47,0-3.65-1.71-3.65-4.72Zm4.13,2.89c.94,0,1.64-.74,1.64-2.26v-1.9c0-1.52-.7-2.26-1.64-2.26h-.38c-.94,0-1.63,.74-1.63,2.26v1.9c0,1.52,.69,2.26,1.63,2.26h.38Z"/><path d="M147.72,288.73v2.02h-2.12v-2.02h2.12Z"/><path d="M154.67,290.75h-2.12v-7c-.18,.27-.86,.39-1.28,.39h-.7v-1.81h.66c.83,0,1.31-.32,1.45-1.4h1.99v9.83Z"/><path d="M159.07,287.65h2.04c0,.93,.76,1.39,1.67,1.39,.97,0,1.59-.48,1.59-1.26s-.62-1.22-1.59-1.22h-.94v-1.73h.9c.77,0,1.28-.46,1.28-1.12s-.56-1.08-1.38-1.08-1.39,.39-1.4,1.31h-1.99c.01-1.96,1.66-3.12,3.44-3.12,1.92,0,3.37,1.21,3.37,2.67,0,.91-.46,1.7-1.17,2.09,.95,.35,1.57,1.19,1.57,2.26,0,1.91-1.71,3.03-3.68,3.03s-3.71-1.19-3.71-3.21Z"/><path d="M172.92,288.73v2.02h-2.12v-2.02h2.12Z"/><path d="M183.32,280.22h1.92v11.23h-1.92v-11.23Z"/><path d="M201.7,288.25h-4.17l-.94,2.5h-1.5l3.86-9.83h1.35l3.86,9.83h-1.52l-.94-2.5Zm-.48-1.28l-1.6-4.23-1.6,4.23h3.2Z"/><path d="M210.89,285.91l-1.42,1.5v3.34h-1.47v-9.83h1.47v4.52l4.31-4.52h1.84l-3.73,3.93,4.14,5.9h-1.78l-3.35-4.84Z"/><path d="M219.07,280.92h1.47l2.91,8.07,2.92-8.07h1.47l-3.66,9.83h-1.45l-3.66-9.83Z"/><path d="M236.15,288.25h-4.17l-.94,2.5h-1.5l3.86-9.83h1.35l3.86,9.83h-1.52l-.94-2.5Zm-.48-1.28l-1.6-4.23-1.6,4.23h3.2Zm-.98-6.82h-1.22l1.15-2.08h1.52l-1.45,2.08Z"/><path d="M249.27,288.24l.2,2.51h-1.42l-.2-2.39c-.07-.87-.65-1.49-1.49-1.49h-2.46v3.87h-1.46v-9.83h3.85c1.98,0,3.19,1.19,3.19,2.95,0,1.05-.58,1.78-1.45,2.22,.72,.42,1.18,1.19,1.24,2.15Zm-5.36-2.65h2.34c1.28,0,1.77-.83,1.77-1.71s-.49-1.68-1.77-1.68h-2.34v3.4Z"/><path d="M254.41,280.92h1.46v9.83h-1.46v-9.83Z"/><path d="M260.5,287.31v-6.39h1.4v6.43c0,1.4,.95,2.2,2.36,2.2s2.37-.8,2.37-2.2v-6.43h1.4v6.39c0,2.25-1.52,3.55-3.78,3.55s-3.76-1.31-3.76-3.55Z"/><path d="M272.65,280.92h1.8l3.13,7.83,3.13-7.83h1.8v9.83h-1.4v-7.31l-2.93,7.31h-1.18l-2.95-7.31v7.31h-1.39v-9.83Z"/></g><g><g><polygon points="133.47 660.07 128.21 660.07 128.21 670.69 132.18 670.69 134.37 663.62 133.47 660.07" style="fill:#fff;"/><polygon points="136.09 660.07 133.9 667.14 134.8 670.69 140.06 670.69 140.06 660.07 136.09 660.07" style="fill:#fff;"/></g><g><path d="M150.94,662.3v7.19h-.99v-3.23h-3.32v3.23h-.99v-7.19h.99v3.02h3.32v-3.02h.99Z" style="fill:#fff;"/><path d="M160.97,667.66h-2.84l-.64,1.83h-1.02l2.63-7.19h.92l2.63,7.19h-1.03l-.64-1.83Zm-.32-.94l-1.09-3.09-1.09,3.09h2.18Z" style="fill:#fff;"/><path d="M168.45,668.55c.45,0,.64-.34,.64-1v-5.25h.99v5.28c0,1.26-.54,1.91-1.51,1.91h-.91v-.95h.78Z" style="fill:#fff;"/><path d="M175.77,665.9c0-2.12,1.41-3.68,3.33-3.68s3.32,1.56,3.32,3.68-1.41,3.68-3.32,3.68-3.33-1.56-3.33-3.68Zm5.63,0c0-1.57-.97-2.73-2.3-2.73s-2.31,1.16-2.31,2.73,.98,2.73,2.31,2.73,2.3-1.16,2.3-2.73Zm-1.93-5.68h1.03l-.98,1.52h-.83l.78-1.52Z" style="fill:#fff;"/><path d="M187.95,665.9c0-2.46,1.59-3.68,3.28-3.68,1.58,0,2.78,1.01,2.92,2.43h-1.03c-.13-.87-.9-1.48-1.88-1.48-1.32,0-2.28,.98-2.28,2.73s.97,2.76,2.27,2.76c1.02,0,1.95-.66,1.95-1.59,0-.28-.17-.47-.45-.47h-1.45v-.86h1.7c.53,0,1.16,.44,1.16,1.21v2.55h-.9v-1.21c-.29,.77-1.09,1.29-2.04,1.29-1.67,0-3.24-1.22-3.24-3.68Z" style="fill:#fff;"/><path d="M201.42,666.49l-2.34-4.19h1.11l1.73,3.18,1.74-3.18h1.11l-2.35,4.19v3h-.99v-3Z" style="fill:#fff;"/><path d="M213.31,667.66h-2.84l-.64,1.83h-1.02l2.63-7.19h.92l2.63,7.19h-1.03l-.64-1.83Zm-.32-.94l-1.09-3.09-1.09,3.09h2.18Zm-.67-4.99h-.83l.78-1.52h1.03l-.98,1.52Z" style="fill:#fff;"/><path d="M225.11,667.65l.13,1.84h-.97l-.13-1.75c-.05-.64-.44-1.09-1.01-1.09h-1.67v2.84h-.99v-7.19h2.62c1.35,0,2.17,.87,2.17,2.16,0,.77-.39,1.31-.98,1.62,.49,.31,.8,.87,.84,1.57Zm-3.65-1.94h1.6c.87,0,1.2-.61,1.2-1.25s-.33-1.23-1.2-1.23h-1.6v2.49Z" style="fill:#fff;"/></g></g><g><g><polygon points="292.64 661.85 293.28 663.07 293.67 663.07 294.3 661.85 294.3 664.44 295 664.44 295 660.38 294.3 660.38 293.47 661.99 292.64 660.38 291.94 660.38 291.94 664.44 292.64 664.44 292.64 661.85" style="fill:#fff;"/><path d="M296.48,662.67c-.66,.05-.99,.35-.99,.91,0,.3,.09,.52,.26,.67,.17,.15,.4,.22,.67,.22,.23,0,.44-.08,.63-.23v.2h.66v-1.89c0-.3-.09-.55-.28-.74-.19-.19-.44-.29-.77-.29-.25,0-.48,.07-.68,.21-.2,.14-.33,.33-.39,.55l.56,.17c.12-.18,.29-.27,.49-.27,.13,0,.22,.04,.29,.11,.07,.07,.1,.17,.1,.31v.04l-.55,.04Zm.55,.92c-.13,.14-.3,.22-.52,.22-.13,0-.22-.02-.27-.06-.05-.04-.07-.1-.07-.17,0-.2,.11-.31,.32-.32l.54-.03v.37Z" style="fill:#fff;"/><path d="M298.38,663.99c.08,.11,.17,.2,.27,.28,.1,.08,.21,.13,.31,.16,.11,.03,.21,.05,.32,.05,.21,0,.4-.07,.57-.2v.15c0,.17-.04,.31-.13,.41-.09,.1-.21,.15-.36,.15-.24,0-.43-.12-.56-.35l-.6,.16c.07,.27,.21,.48,.41,.63,.2,.15,.44,.23,.73,.23,.36,0,.64-.11,.86-.34,.22-.23,.32-.52,.32-.88v-2.87h-.64v.2c-.17-.16-.36-.23-.59-.23-.11,0-.22,.02-.33,.05-.11,.03-.21,.09-.32,.16-.1,.08-.2,.17-.27,.28-.08,.11-.14,.25-.19,.42-.05,.17-.07,.36-.07,.57s.02,.4,.07,.57c.05,.17,.11,.31,.19,.42Zm.47-1.4c.03-.11,.07-.2,.13-.25,.05-.06,.11-.09,.16-.12,.05-.02,.11-.03,.17-.03s.12,.01,.17,.03c.05,.02,.11,.06,.16,.11,.05,.05,.09,.12,.13,.21,.04,.09,.06,.21,.08,.34v.35c-.02,.11-.04,.2-.08,.28-.04,.08-.08,.14-.13,.18-.05,.04-.1,.07-.16,.09-.05,.02-.11,.03-.17,.03-.06,0-.12-.01-.18-.03-.05-.02-.11-.06-.16-.12-.05-.06-.1-.14-.13-.25s-.05-.25-.05-.41,.02-.3,.05-.41Z" style="fill:#fff;"/><polygon points="301.3 665.61 301.99 665.61 303.37 661.55 302.64 661.55 302.1 663.29 301.56 661.55 300.83 661.55 301.75 664.26 301.3 665.61" style="fill:#fff;"/><path d="M304.42,662.67c-.66,.05-.99,.35-.99,.91,0,.3,.09,.52,.26,.67,.17,.15,.4,.22,.67,.22,.23,0,.44-.08,.63-.23v.2h.66v-1.89c0-.3-.09-.55-.28-.74-.19-.19-.44-.29-.77-.29-.25,0-.48,.07-.68,.21-.2,.14-.33,.33-.39,.55l.56,.17c.12-.18,.29-.27,.49-.27,.13,0,.22,.04,.29,.11,.07,.07,.1,.17,.1,.31v.04l-.55,.04Zm.55,.92c-.13,.14-.3,.22-.52,.22-.13,0-.22-.02-.27-.06-.05-.04-.07-.1-.07-.17,0-.2,.11-.31,.32-.32l.54-.03v.37Z" style="fill:#fff;"/><path d="M306.89,662.85c.06-.4,.22-.6,.49-.6,.1,0,.19,.02,.28,.05l.06-.76c-.08-.02-.16-.03-.25-.03-.23,0-.44,.1-.61,.29v-.25h-.66v2.89h.68v-1.59Z" style="fill:#fff;"/><polygon points="292.64 670.01 292.64 668.53 292.86 668.27 294.08 670.01 294.92 670.01 293.31 667.73 294.79 665.95 293.9 665.95 292.64 667.48 292.64 665.95 291.94 665.95 291.94 670.01 292.64 670.01" style="fill:#fff;"/><polygon points="296.89 669.37 296.37 669.37 296.37 665.95 295.18 665.95 295.18 666.59 295.69 666.59 295.69 669.37 295.18 669.37 295.18 670.01 296.89 670.01 296.89 669.37" style="fill:#fff;"/><polygon points="298.34 667.12 297.15 667.12 297.15 667.76 297.66 667.76 297.66 669.37 297.15 669.37 297.15 670.01 298.86 670.01 298.86 669.37 298.34 669.37 298.34 667.12" style="fill:#fff;"/><path d="M297.57,666.38c0,.13,.04,.24,.12,.33,.08,.09,.19,.13,.31,.13s.22-.05,.3-.14c.08-.09,.13-.2,.13-.33s-.04-.24-.13-.33c-.08-.09-.19-.13-.3-.13s-.22,.04-.3,.13c-.08,.09-.13,.2-.13,.33Z" style="fill:#fff;"/><path d="M299.87,667.32v-.2h-.66v4.06h.68v-1.34c.17,.14,.36,.2,.57,.2,.11,0,.22-.02,.32-.05,.11-.03,.21-.09,.31-.16,.1-.08,.19-.17,.27-.28,.08-.11,.14-.25,.19-.42,.05-.17,.07-.36,.07-.57s-.02-.4-.07-.57c-.05-.17-.11-.31-.19-.42-.08-.11-.17-.2-.27-.28-.1-.08-.21-.13-.32-.16-.11-.03-.22-.05-.33-.05-.22,0-.42,.08-.58,.23Zm.9,.58c.05,.06,.1,.14,.13,.25,.03,.11,.05,.25,.05,.41,0,.13-.01,.24-.03,.35-.02,.1-.05,.18-.08,.24-.03,.06-.07,.1-.12,.14-.05,.04-.09,.06-.14,.07-.04,.01-.09,.02-.14,.02-.13,0-.25-.05-.35-.16-.1-.11-.17-.28-.2-.54v-.35c.02-.11,.04-.2,.08-.28,.04-.08,.08-.14,.13-.18,.05-.04,.1-.07,.16-.09,.05-.02,.11-.03,.17-.03,.07,0,.13,.01,.18,.03,.06,.02,.11,.06,.16,.12Z" style="fill:#fff;"/><path d="M303.88,668.66c-.04-.06-.1-.11-.16-.16-.06-.05-.13-.09-.2-.13-.07-.03-.15-.07-.24-.1l-.17-.07c-.16-.06-.27-.11-.32-.14-.05-.03-.08-.07-.08-.12,0-.05,.03-.1,.08-.14,.05-.04,.12-.05,.19-.05,.16,0,.28,.11,.37,.33l.59-.17c-.07-.27-.18-.48-.35-.62-.17-.14-.37-.21-.61-.21-.27,0-.5,.08-.68,.24-.18,.16-.27,.37-.27,.63,0,.1,.02,.19,.05,.27,.03,.08,.07,.15,.11,.2,.04,.05,.1,.1,.17,.15,.07,.05,.14,.09,.19,.11,.05,.03,.12,.06,.21,.09l.2,.08c.14,.06,.24,.11,.29,.15,.05,.04,.08,.09,.08,.15,0,.07-.03,.13-.1,.16-.06,.04-.14,.06-.24,.06-.22,0-.39-.12-.5-.35l-.59,.16c.15,.57,.51,.85,1.07,.85,.19,0,.37-.03,.53-.1,.16-.06,.28-.17,.38-.31,.1-.14,.15-.31,.15-.5,0-.1-.01-.19-.04-.27-.03-.08-.06-.15-.1-.21Z" style="fill:#fff;"/><polygon points="304.36 667.76 305.5 667.76 304.3 669.49 304.3 670.01 306.37 670.01 306.37 669.37 305.19 669.37 306.37 667.66 306.37 667.12 304.36 667.12 304.36 667.76" style="fill:#fff;"/><path d="M307.17,667.29c-.11,.08-.2,.17-.27,.28-.08,.11-.14,.25-.19,.42-.05,.17-.07,.36-.07,.57,0,.26,.03,.49,.1,.68,.07,.19,.16,.35,.28,.46,.12,.11,.25,.19,.39,.25,.14,.05,.3,.08,.47,.08,.27,0,.51-.07,.71-.22,.2-.15,.34-.36,.41-.63l-.59-.16c-.13,.24-.31,.35-.55,.35-.3,0-.48-.19-.53-.57h1.73v-.24c0-.21-.02-.4-.07-.57-.05-.17-.11-.31-.19-.42-.08-.11-.17-.2-.27-.28s-.21-.13-.33-.16c-.11-.03-.23-.05-.36-.05s-.24,.02-.36,.05c-.11,.03-.22,.09-.33,.16Zm.68,.46c.26,0,.42,.16,.49,.48h-.99c.07-.32,.24-.48,.5-.48Z" style="fill:#fff;"/><path d="M310.19,668.27c.03-.19,.08-.33,.15-.41,.07-.08,.15-.12,.24-.12,.04,0,.08,0,.13,.03,.04,.02,.08,.05,.12,.09,.04,.04,.07,.1,.1,.19,.03,.08,.04,.18,.04,.3v1.66h.68v-1.73c.05-.35,.19-.52,.4-.52,.04,0,.09,0,.13,.03,.04,.02,.08,.05,.12,.09,.04,.04,.08,.1,.1,.19,.03,.08,.04,.18,.04,.3v1.66h.68v-1.7c0-.17-.02-.33-.06-.47-.04-.14-.09-.26-.16-.35-.06-.09-.14-.17-.23-.23-.09-.06-.18-.1-.26-.13-.09-.03-.18-.04-.28-.04-.27,0-.53,.11-.76,.32-.17-.21-.39-.32-.65-.32-.19,0-.38,.08-.55,.23v-.2h-.66v2.89h.68v-1.73Z" style="fill:#fff;"/><polygon points="315.2 669.37 314.68 669.37 314.68 665.95 313.49 665.95 313.49 666.59 314 666.59 314 669.37 313.49 669.37 313.49 670.01 315.2 670.01 315.2 669.37" style="fill:#fff;"/><path d="M315.79,669.71c.12,.11,.25,.19,.39,.25,.14,.05,.3,.08,.47,.08,.27,0,.51-.07,.71-.22,.2-.15,.34-.36,.41-.63l-.59-.16c-.13,.24-.31,.35-.55,.35-.3,0-.48-.19-.53-.57h1.73v-.24c0-.21-.02-.4-.07-.57-.05-.17-.11-.31-.19-.42-.08-.11-.17-.2-.27-.28-.11-.08-.21-.13-.33-.16-.11-.03-.23-.05-.36-.05s-.24,.02-.36,.05c-.11,.03-.22,.09-.33,.16-.11,.08-.2,.17-.27,.28-.08,.11-.14,.25-.19,.42-.05,.17-.07,.36-.07,.57,0,.26,.03,.49,.1,.68,.07,.19,.16,.35,.28,.46Zm.83-1.96c.26,0,.42,.16,.49,.48h-.99c.07-.32,.24-.48,.5-.48Z" style="fill:#fff;"/><path d="M319.42,657.93h-42.4v14.76h43.72v-14.76h-1.31Zm-41.09,1.41h10.93v11.93h-10.93v-11.93Zm41.09,11.93h-28.84v-11.93h28.84v11.93Z" style="fill:#fff;"/></g><g><path d="M281.95,663.27c.15,0,.3,.02,.43,.07,.14,.05,.27,.12,.4,.23s.24,.24,.34,.39c.1,.16,.17,.36,.23,.59,.06,.24,.09,.51,.09,.81s-.03,.57-.09,.81c-.06,.24-.13,.44-.23,.59s-.21,.29-.34,.39-.26,.18-.4,.23c-.14,.05-.28,.07-.43,.07s-.3-.02-.44-.07c-.14-.04-.27-.12-.4-.23s-.24-.24-.34-.39-.17-.36-.23-.59c-.06-.24-.09-.51-.09-.81s.03-.57,.09-.81c.06-.24,.13-.44,.23-.59,.09-.16,.21-.29,.34-.39s.26-.18,.4-.23c.14-.05,.28-.07,.44-.07Zm-.72,2.7l1.11-1.88c-.09-.08-.22-.12-.39-.12-.08,0-.15,.01-.22,.03s-.14,.06-.2,.13c-.07,.06-.13,.14-.18,.24-.05,.1-.09,.24-.12,.41-.03,.17-.05,.37-.05,.59s.01,.42,.04,.61Zm.37,.68c.09,.06,.2,.09,.34,.09,.08,0,.15-.01,.21-.03s.13-.06,.2-.13c.07-.06,.13-.14,.18-.24,.05-.1,.09-.23,.12-.4,.03-.17,.05-.36,.05-.59,0-.2-.01-.38-.04-.52l-1.07,1.82Z" style="fill:#fff;"/><path d="M283.86,666.12c0-.42,.12-.83,.36-1.24l.93-1.58h.85l-.87,1.42c.38,0,.68,.12,.91,.36,.22,.24,.33,.57,.33,1.01s-.11,.76-.33,1c-.22,.24-.52,.36-.91,.36s-.69-.12-.93-.36-.35-.56-.35-.97Zm.72-.04c0,.21,.05,.37,.14,.49s.23,.17,.41,.17,.31-.06,.39-.17c.09-.11,.13-.28,.13-.49s-.04-.37-.13-.49c-.09-.12-.22-.17-.39-.17s-.31,.06-.41,.17c-.1,.12-.14,.28-.14,.49Z" style="fill:#fff;"/><path d="M286.86,666.98c0-.12,.04-.23,.12-.31,.08-.09,.18-.13,.29-.13s.21,.04,.29,.13c.08,.09,.12,.19,.12,.31s-.04,.23-.12,.31c-.08,.08-.18,.13-.29,.13s-.21-.04-.29-.13-.12-.19-.12-.31Z" style="fill:#fff;"/></g></g><g><path d="M400.3,657.89h-7.62v15.22h7.62v-12.88h1.63v8.12c3.91-.36,5.99-2.1,5.99-5.19,0-3.5-2.66-5.27-7.62-5.27Zm-1.09,12.88h-1.63v-5.27h0c-1.45,0-2.72-.88-2.72-2.63s1.27-2.63,2.72-2.63h1.63v10.53Z" style="fill:#fff;"/><g><path d="M378.27,660.33c.13,.07,.23,.17,.3,.3s.1,.28,.1,.45-.04,.32-.11,.45-.18,.23-.33,.3-.32,.11-.52,.11h-.66v.81h-.59v-2.53h1.36c.18,0,.33,.04,.46,.11Zm-.33,1.06c.08-.07,.13-.17,.13-.3s-.04-.22-.12-.29-.19-.11-.33-.11h-.58v.8h.54c.16,0,.28-.04,.36-.11Z" style="fill:#fff;"/><path d="M380.98,661.81h-1.55c.03,.16,.11,.29,.24,.38s.3,.13,.51,.13c.14,0,.27-.02,.39-.07s.23-.11,.33-.18v.48c-.1,.08-.23,.15-.38,.2s-.31,.07-.47,.07c-.24,0-.45-.05-.63-.14s-.32-.23-.42-.4-.15-.37-.15-.59c0-.21,.04-.39,.13-.56s.22-.3,.38-.4,.36-.15,.59-.15,.4,.04,.55,.12,.26,.2,.34,.34,.12,.33,.12,.54v.22Zm-1.36-.63c-.09,.08-.15,.18-.18,.31h1.05c-.01-.14-.06-.24-.15-.31s-.21-.11-.36-.11-.27,.04-.36,.12Z" style="fill:#fff;"/><path d="M382.81,661.13h-.58v1.62h-.57v-1.62h-.54v-.46h.54v-.39l.57-.12v.51h.58v.46Z" style="fill:#fff;"/><path d="M383.45,662.67c-.17-.1-.31-.23-.4-.4s-.14-.36-.14-.57,.05-.4,.14-.57,.23-.3,.4-.4,.38-.14,.61-.14,.44,.05,.61,.14,.31,.23,.4,.4,.14,.36,.14,.57-.05,.4-.14,.57-.23,.31-.4,.4-.38,.15-.61,.15-.43-.05-.61-.15Zm.91-.42c.09-.05,.15-.13,.2-.22s.07-.2,.07-.32-.02-.23-.07-.32-.11-.17-.2-.22-.19-.08-.3-.08-.22,.03-.3,.08-.15,.13-.2,.22-.07,.2-.07,.32,.02,.23,.07,.32,.11,.17,.2,.22,.19,.08,.3,.08,.22-.03,.3-.08Zm-.48-2.39h.41l-.4,.58h-.34l.32-.58Zm.62,0h.41l-.4,.58h-.34l.32-.58Z" style="fill:#fff;"/><path d="M386.46,660.9v.04h.73v.45h-.73v1.36h-.57v-1.36h-.52v-.45h.52v-.04s0-.04,0-.06c0-.25,.07-.44,.22-.57s.35-.2,.62-.2c.11,0,.2,.01,.29,.03s.16,.05,.22,.09v.43c-.1-.07-.23-.11-.38-.11-.27,0-.4,.13-.39,.38Zm1.17-.36c-.05-.03-.09-.06-.12-.1s-.04-.09-.04-.15,.01-.1,.04-.15,.07-.08,.12-.1,.11-.04,.17-.04,.12,.01,.17,.04,.09,.06,.12,.1,.04,.09,.04,.15-.01,.11-.04,.15-.07,.08-.12,.1-.1,.04-.17,.04-.12-.01-.17-.04Zm-.12,.2h.57v2.01h-.57v-2.01Z" style="fill:#fff;"/><path d="M371.57,666.76l-1.05-1.23v1.23h-.59v-2.52h.59v1.05l1.04-1.05h.74l-1.18,1.15,1.2,1.37h-.75Z" style="fill:#fff;"/><path d="M374.51,664.68v2.08h-.57v-.42c-.07,.17-.16,.29-.29,.37s-.27,.13-.45,.13c-.25,0-.45-.08-.58-.24s-.2-.38-.2-.68v-1.24h.57v1.12c0,.19,.04,.33,.11,.42s.19,.14,.34,.14,.28-.05,.36-.16,.13-.25,.13-.43v-1.09h.57Z" style="fill:#fff;"/><path d="M375,664.16h.57v2.6h-.57v-2.6Z" style="fill:#fff;"/><path d="M377.55,665.13h-.58v1.62h-.57v-1.62h-.54v-.46h.54v-.39l.57-.12v.51h.58v.46Z" style="fill:#fff;"/><path d="M379.9,664.68v2.08h-.57v-.42c-.07,.17-.16,.29-.29,.37s-.27,.13-.45,.13c-.25,0-.45-.08-.58-.24s-.2-.38-.2-.68v-1.24h.57v1.12c0,.19,.04,.33,.11,.42s.19,.14,.34,.14,.28-.05,.36-.16,.13-.25,.13-.43v-1.09h.57Z" style="fill:#fff;"/><path d="M381.8,664.72v.56s-.09-.05-.14-.07-.12-.03-.18-.03c-.1,0-.19,.03-.27,.08s-.14,.13-.18,.23-.07,.23-.07,.39v.87h-.57v-2.08h.56v.57c.05-.21,.12-.36,.21-.46s.21-.15,.35-.15c.11,0,.21,.03,.28,.09Z" style="fill:#fff;"/><path d="M383.4,664.71c.15,.08,.27,.2,.35,.35s.12,.34,.12,.56v1.13h-.56v-.28c-.07,.12-.16,.2-.27,.26s-.25,.09-.4,.09c-.14,0-.27-.03-.37-.09s-.19-.14-.25-.25-.09-.22-.09-.35,.03-.25,.09-.35,.15-.18,.26-.24,.24-.09,.39-.09c.28,0,.5,.1,.64,.3v-.08c0-.13-.03-.24-.09-.33s-.13-.15-.22-.2-.2-.07-.33-.07c-.25,0-.46,.09-.64,.28v-.51c.23-.18,.5-.27,.81-.27,.21,0,.4,.04,.55,.12Zm-.3,1.69c.07-.03,.12-.07,.16-.12s.06-.11,.06-.17-.02-.11-.05-.16-.09-.08-.15-.11-.14-.04-.23-.04-.16,.01-.22,.04-.11,.06-.14,.11-.05,.1-.05,.17,.02,.12,.05,.17,.08,.09,.14,.11,.13,.04,.21,.04,.16-.01,.23-.04Zm-.05-2.53h.54l-.48,.58h-.41l.36-.58Z" style="fill:#fff;"/><path d="M384.34,664.16h.57v2.6h-.57v-2.6Z" style="fill:#fff;"/><path d="M385.52,664.55c-.05-.03-.09-.06-.12-.1s-.04-.09-.04-.15,.01-.1,.04-.15,.07-.08,.12-.1,.11-.04,.17-.04,.12,.01,.17,.04,.09,.06,.12,.1,.04,.09,.04,.15-.01,.11-.04,.15-.07,.08-.12,.1-.1,.04-.17,.04-.12-.01-.17-.04Zm-.12,.2h.57v2.01h-.57v-2.01Z" style="fill:#fff;"/><path d="M386.8,666.75c-.16-.05-.31-.12-.44-.21v-.47c.12,.1,.26,.17,.42,.23s.32,.08,.48,.08c.12,0,.21-.02,.27-.06s.09-.09,.09-.16c0-.05-.02-.09-.05-.13s-.09-.07-.18-.09l-.43-.11c-.21-.06-.36-.13-.45-.23s-.14-.22-.14-.37c0-.13,.04-.24,.11-.33s.18-.17,.32-.22,.3-.08,.49-.08c.17,0,.32,.02,.46,.06s.26,.1,.36,.17v.45c-.1-.07-.22-.13-.35-.18s-.27-.07-.41-.07c-.13,0-.23,.02-.29,.05s-.1,.08-.1,.15c0,.05,.02,.09,.07,.12s.12,.06,.22,.08l.38,.09c.19,.04,.34,.11,.44,.21s.15,.23,.15,.41c0,.13-.04,.25-.11,.36s-.18,.18-.31,.24-.3,.08-.49,.08c-.17,0-.34-.02-.5-.07Z" style="fill:#fff;"/><path d="M366.8,670.7c-.18-.09-.31-.22-.4-.4s-.14-.37-.14-.6v-1.46h.58v1.45c0,.19,.05,.34,.15,.45s.24,.16,.43,.16,.32-.05,.42-.16,.15-.26,.15-.45v-1.45h.58v1.46c0,.23-.05,.43-.14,.6s-.23,.3-.4,.4-.38,.14-.61,.14-.44-.05-.62-.14Zm.05-2.65s-.08-.06-.1-.11-.04-.09-.04-.14,.01-.1,.04-.14,.06-.08,.1-.1,.09-.04,.14-.04,.1,.01,.14,.04,.08,.06,.1,.1,.04,.09,.04,.14-.01,.1-.04,.14-.06,.08-.1,.11-.09,.04-.14,.04-.1-.01-.14-.04Zm.85,0s-.08-.06-.1-.11-.04-.09-.04-.14,.01-.1,.04-.14,.06-.08,.1-.1,.09-.04,.14-.04,.1,.01,.14,.04,.08,.06,.1,.1,.04,.09,.04,.14-.01,.1-.04,.14-.06,.08-.1,.11-.09,.04-.14,.04-.1-.01-.14-.04Z" style="fill:#fff;"/><path d="M371.21,668.68v1.66c0,.24-.05,.45-.15,.62s-.24,.31-.43,.4-.4,.14-.66,.14c-.17,0-.33-.02-.48-.07s-.28-.11-.38-.2v-.49c.09,.09,.21,.16,.34,.21s.28,.08,.42,.08c.26,0,.45-.07,.57-.2s.19-.32,.19-.57v-.13c-.08,.18-.18,.31-.31,.4s-.29,.14-.47,.14-.35-.04-.49-.13-.25-.21-.33-.36-.12-.33-.12-.53c0-.21,.04-.39,.12-.55s.19-.29,.34-.38,.31-.13,.49-.13,.33,.04,.46,.13,.22,.21,.3,.39v-.43h.57Zm-.83,1.47c.09-.05,.15-.12,.2-.21s.07-.19,.07-.3-.02-.21-.07-.3-.11-.16-.2-.21-.18-.07-.3-.07-.21,.03-.3,.08-.15,.12-.19,.21-.07,.19-.07,.3,.02,.21,.07,.29,.11,.15,.19,.2,.18,.07,.29,.07,.21-.02,.3-.07Z" style="fill:#fff;"/><path d="M373.82,668.68l-1.3,2.77h-.64l.43-.86-.84-1.9h.61l.54,1.33,.59-1.33h.61Z" style="fill:#fff;"/><path d="M375.82,668.71c.12,.08,.21,.19,.27,.34s.09,.33,.09,.54v1.17h-.57v-1.04c0-.21-.04-.36-.11-.46s-.19-.15-.35-.15c-.11,0-.2,.02-.28,.07s-.13,.12-.17,.21-.06,.2-.06,.32v1.05h-.57v-2.08h.56v.47c.07-.19,.17-.33,.29-.42s.28-.14,.46-.14c.17,0,.31,.04,.43,.12Z" style="fill:#fff;"/><path d="M377.06,670.68c-.17-.1-.31-.23-.4-.4s-.14-.36-.14-.57,.05-.4,.14-.57,.23-.3,.4-.4,.38-.14,.61-.14,.44,.05,.61,.14,.31,.23,.4,.4,.14,.36,.14,.57-.05,.4-.14,.57-.23,.31-.4,.4-.38,.15-.61,.15-.43-.05-.61-.15Zm.07-2.29s-.08-.06-.1-.1-.04-.09-.04-.14,.01-.09,.04-.13,.06-.07,.1-.1,.09-.04,.14-.04,.1,.01,.14,.03,.08,.05,.1,.1,.04,.09,.04,.13-.01,.1-.04,.14-.06,.08-.1,.1-.09,.04-.14,.04-.1-.01-.14-.04Zm.84,1.86c.09-.05,.15-.13,.2-.22s.07-.2,.07-.32-.02-.23-.07-.32-.11-.17-.2-.22-.19-.08-.3-.08-.22,.03-.3,.08-.15,.13-.2,.22-.07,.2-.07,.32,.02,.23,.07,.32,.11,.17,.2,.22,.19,.08,.3,.08,.22-.03,.3-.08Zm-.05-1.86s-.08-.06-.1-.1-.04-.09-.04-.14,.01-.09,.04-.13,.06-.07,.1-.1,.09-.04,.14-.04,.1,.01,.14,.03,.08,.05,.1,.1,.04,.09,.04,.13-.01,.1-.04,.14-.06,.08-.1,.1-.09,.04-.14,.04-.1-.01-.14-.04Z" style="fill:#fff;"/><path d="M380.6,670.76l-.85-1.1v1.1h-.57v-2.6h.57v1.33l.79-.82h.69l-.9,.89,.97,1.19h-.69Z" style="fill:#fff;"/><path d="M381.8,670.75c-.16-.05-.31-.12-.44-.21v-.47c.12,.1,.26,.17,.42,.23s.32,.08,.48,.08c.12,0,.21-.02,.27-.06s.09-.09,.09-.16c0-.05-.02-.09-.05-.13s-.09-.07-.18-.09l-.43-.11c-.21-.06-.36-.13-.45-.23s-.14-.22-.14-.37c0-.13,.04-.24,.11-.33s.18-.17,.32-.22,.3-.08,.49-.08c.17,0,.32,.02,.46,.06s.26,.1,.36,.17v.45c-.1-.07-.22-.13-.35-.18s-.27-.07-.41-.07c-.13,0-.23,.02-.29,.05s-.1,.08-.1,.15c0,.05,.02,.09,.07,.12s.12,.06,.22,.08l.38,.09c.19,.04,.34,.11,.44,.21s.15,.23,.15,.41c0,.13-.04,.25-.11,.36s-.18,.18-.31,.24-.3,.08-.49,.08c-.17,0-.34-.02-.5-.07Z" style="fill:#fff;"/><path d="M385.55,669.82h-1.55c.03,.16,.11,.29,.24,.38s.3,.13,.51,.13c.14,0,.27-.02,.39-.07s.23-.11,.33-.18v.48c-.1,.08-.23,.15-.38,.2s-.31,.07-.47,.07c-.24,0-.45-.05-.63-.14s-.32-.23-.42-.4-.15-.37-.15-.59c0-.21,.04-.39,.13-.56s.22-.3,.38-.4,.36-.15,.59-.15,.4,.04,.55,.12,.26,.2,.34,.34,.12,.33,.12,.54v.22Zm-1.36-.63c-.09,.08-.15,.18-.18,.31h1.05c-.01-.14-.06-.24-.15-.31s-.21-.11-.36-.11-.27,.04-.36,.12Zm.48-1.32h.54l-.48,.58h-.41l.36-.58Z" style="fill:#fff;"/><path d="M388.08,668.68v1.66c0,.24-.05,.45-.15,.62s-.24,.31-.43,.4-.4,.14-.66,.14c-.17,0-.33-.02-.48-.07s-.28-.11-.38-.2v-.49c.09,.09,.21,.16,.34,.21s.28,.08,.42,.08c.26,0,.45-.07,.57-.2s.19-.32,.19-.57v-.13c-.08,.18-.18,.31-.31,.4s-.29,.14-.47,.14-.35-.04-.49-.13-.25-.21-.33-.36-.12-.33-.12-.53c0-.21,.04-.39,.12-.55s.19-.29,.34-.38,.31-.13,.49-.13,.33,.04,.46,.13,.22,.21,.3,.39v-.43h.57Zm-.83,1.47c.09-.05,.15-.12,.2-.21s.07-.19,.07-.3-.02-.21-.07-.3-.11-.16-.2-.21-.18-.07-.3-.07-.21,.03-.3,.08-.15,.12-.19,.21-.07,.19-.07,.3,.02,.21,.07,.29,.11,.15,.19,.2,.18,.07,.29,.07,.21-.02,.3-.07Z" style="fill:#fff;"/></g></g><g><path d="M497.01,667.19c-.78,0-1.42,.68-1.42,1.52s.63,1.52,1.42,1.52,1.42-.68,1.42-1.52-.63-1.52-1.42-1.52Z" style="fill:#fff;"/><path d="M487.82,660.6c.02,.06,.03,.13,.03,.22v6.3c0,.37-.04,.61-.16,.78-.11,.16-.28,.24-.47,.24s-.36-.08-.47-.24c-.12-.17-.16-.41-.16-.78v-6.3c0-.09,0-.16,.03-.22,.04-.13,.13-.18,.13-.18h-2.88s.09,.05,.13,.18c.02,.06,.03,.13,.03,.22v6.41c0,1.71,.97,3.08,3.14,3.08h.11c2.16,0,3.13-1.37,3.13-3.08v-6.41c0-.09,.01-.16,.03-.22,.04-.13,.13-.18,.13-.18h-2.88s.09,.05,.13,.18Z" style="fill:#fff;"/><path d="M483.7,667.87c-.05,.02-.12,.03-.2,.03h-1.48v-7.09c0-.09,0-.16,.03-.21,.04-.13,.13-.18,.13-.18h-2.88s.09,.05,.13,.18c.02,.05,.02,.1,.03,.16v8.93c0,.09,0,.16-.03,.21-.04,.13-.13,.18-.13,.18h4.57v-2.35s-.05,.09-.16,.14Z" style="fill:#fff;"/><path d="M494.85,669.9c-.02-.06-.03-.13-.03-.21v-7.09h1.12c.08,0,.15,0,.2,.03,.12,.05,.16,.14,.16,.14v-2.35h-5.54v2.35s.05-.09,.16-.14c.05-.02,.12-.03,.2-.03h1.12v7.14c0,.06,0,.12-.02,.16-.04,.13-.13,.18-.13,.18h2.88s-.09-.05-.13-.18Z" style="fill:#fff;"/><path d="M475.6,660.23h0c-2.3,.01-3.38,1.89-3.41,4.92h0v.24h0c.02,3.03,1.1,4.9,3.41,4.92h0c2.3-.01,3.38-1.89,3.41-4.92h0v-.24h0c-.02-3.03-1.1-4.9-3.41-4.92Zm.77,5.16c0,1.32-.04,2.74-.78,2.76-.74-.03-.78-1.45-.78-2.76v-.24c0-1.31,.04-2.76,.78-2.78,.74,.03,.78,1.47,.78,2.78v.24Z" style="fill:#fff;"/><path d="M497.62,662.12c.49,0,.89-.43,.89-.95s-.4-.95-.89-.95-.89,.43-.89,.95,.4,.95,.89,.95Zm0-1.81c.44,0,.8,.38,.8,.85s-.36,.85-.8,.85-.8-.38-.8-.85,.36-.85,.8-.85Z" style="fill:#fff;"/><path d="M497.4,661.24h.22l.25,.46h.17l-.27-.47c.15-.02,.24-.14,.24-.31,0-.21-.12-.31-.38-.31h-.39v1.08h.14v-.46Zm0-.49h.25c.13,0,.24,.01,.24,.18,0,.16-.12,.18-.24,.18h-.25v-.36Z" style="fill:#fff;"/><path d="M464.48,665.07h-.02c.87-.02,1.65-.98,1.6-2.18-.07-1.72-1.26-2.47-3.27-2.47h-2.72s.09,.05,.13,.18c.04,.11,.03,.27,.03,.5v8.3c0,.53-.08,.68-.08,.68h3.24c2.03,0,3.02-1.07,3.02-2.67,0-1.37-.93-2.25-1.94-2.33Zm-1.74-2.69h.17c.5,0,.96,.28,.93,.97-.03,.64-.44,.9-.93,.9h-.17v-1.87Zm.15,5.74h-.16v-2.12h.16c.68,0,1.08,.4,1.09,1.02,0,.8-.46,1.09-1.09,1.09Z" style="fill:#fff;"/><path d="M459.75,669.01s-1.71-7.92-1.75-8.11c-.07-.36,.1-.48,.1-.48h-3.23s.17,.12,.1,.48c-.04,.19-1.75,8.11-1.75,8.11-.2,1.01-.47,1.07-.47,1.07h2.97s-.21-.08-.17-.43c.05-.35,.17-1.13,.17-1.13h1.52s.12,.78,.17,1.13c.05,.35-.17,.43-.17,.43h2.82s-.12-.06-.32-1.07Zm-3.78-2.26l.52-3.83,.52,3.83h-1.03Z" style="fill:#fff;"/><path d="M471.26,665.22c-.47-.54-1.02-1.01-1.56-1.46-.47-.38-.69-.65-.59-1.02,.21-.75,1.51-.25,2.29,.34v-2.54s-.14,.19-.4,.09c-.44-.18-.81-.39-1.59-.4-1.77,0-2.76,1.39-2.77,2.74,0,.96,.25,1.66,.98,2.35,.55,.52,1.17,1.01,1.55,1.4,.28,.28,.46,.68,.33,1.02-.22,.57-1.26,.56-2.8-.86v2.87s.19-.18,.45-.04c.44,.23,1.17,.59,1.92,.6,2.07,.03,3.13-1.42,2.99-3.22-.05-.71-.31-1.3-.8-1.87Z" style="fill:#fff;"/></g><path d="M473.64,146.67C362.12,402.15,278.55,459.58,.06,472.07c278.49-12.5,314.26,39.57,202.75,295.06,111.52-255.49,195.09-312.91,473.58-325.41-278.48,12.5-314.26-39.57-202.75-295.06Z" style="fill:#fffdf5; stroke:#293d8c; stroke-miterlimit:10; stroke-width:2.8px;"/><g><g><g><polygon points="381.65 267.28 381.04 267.28 380.62 265.96 380.4 265.29 379.69 265.29 371.18 265.29 370.47 265.29 370.25 265.96 369.83 267.28 358.89 267.28 357.92 267.28 357.92 268.25 357.92 271.93 353.32 271.93 351.91 271.93 352.41 273.24 357.21 285.86 357.45 286.49 357.92 286.49 358.12 286.49 358.89 286.49 380.87 286.49 381.65 286.49 382.28 286.49 382.62 286.49 382.62 285.52 382.62 268.25 382.62 267.28 381.65 267.28" style="fill:none; stroke:#293d8c; stroke-miterlimit:10; stroke-width:2.67px;"/><polyline points="355.21 271.92 377.08 271.92 382.62 286.49" style="fill:none; stroke:#293d8c; stroke-miterlimit:10; stroke-width:2.67px;"/></g><g><polygon points="494.82 267.28 494.21 267.28 493.78 265.96 493.56 265.29 492.86 265.29 484.34 265.29 483.63 265.29 483.42 265.96 482.99 267.28 472.06 267.28 471.09 267.28 471.09 268.25 471.09 271.93 466.48 271.93 465.08 271.93 465.58 273.24 470.37 285.86 470.61 286.49 471.09 286.49 471.28 286.49 472.06 286.49 494.04 286.49 494.82 286.49 495.44 286.49 495.78 286.49 495.78 285.52 495.78 268.25 495.78 267.28 494.82 267.28" style="fill:none; stroke:#293d8c; stroke-miterlimit:10; stroke-width:2.67px;"/><polyline points="468.37 271.92 490.24 271.92 495.78 286.49" style="fill:none; stroke:#293d8c; stroke-miterlimit:10; stroke-width:2.67px;"/></g></g><g><path d="M457.89,263.33c-18.96-16.87-47.79-16.38-65.76,1.58" style="fill:none; stroke:#293d8c; stroke-miterlimit:10; stroke-width:2.67px;"/><polygon points="457.83 249.41 455.18 249.77 456.96 262.83 443.81 263.65 443.98 266.32 460 265.32 457.83 249.41" style="fill:#293d8c;"/></g></g><path d="M362.97,509.84l80.31,10.69v-87.58l-59-10.01s53.06,71.03-26.32,42.2c.42,2.92,102.78,27.58,5.01,44.71Z" style="fill:#fffdf5; stroke:#293d8c; stroke-miterlimit:10; stroke-width:2.82px;"/><g><g><g><path d="M326.89,107.43v-1.25c0-4.95,1.69-7.66,5.67-7.66h.83c4.01,0,5.67,2.73,5.67,7.66v1.25c0,4.93-1.67,7.66-5.67,7.66h-.83c-3.98,0-5.67-2.71-5.67-7.66Zm6.44,5.53c2.25,0,3.33-1.69,3.33-5.07v-2.18c0-3.38-1.09-5.07-3.33-5.07h-.67c-2.25,0-3.33,1.69-3.33,5.07v2.18c0,3.38,1.09,5.07,3.33,5.07h.67Z"/><path d="M358.03,109.58c0,3.17-2.5,5.51-5.88,5.51-3.84,0-6.11-3.1-6.11-7.55,0-5.93,2.71-9.05,6.41-9.05,3.13,0,5.33,1.88,5.72,4.45h-2.32c-.32-1.44-1.57-2.36-3.36-2.36-2.43,0-4.05,2.52-4.21,5.81,.69-1.37,2.38-2.32,4.07-2.32,3.36,0,5.67,2.36,5.67,5.51Zm-2.45-.02c0-1.97-1.39-3.36-3.38-3.36s-3.43,1.39-3.43,3.36,1.41,3.4,3.43,3.4,3.38-1.41,3.38-3.4Z"/><path d="M368.09,112.41v2.5h-2.48v-2.5h2.48Z"/></g><path d="M387.38,98.7h2.96l5.16,12.92,5.16-12.92h2.96v16.21h-2.32v-12.06l-4.84,12.06h-1.94l-4.86-12.06v12.06h-2.29v-16.21Z"/><path d="M420.98,110.79h-6.88l-1.55,4.12h-2.48l6.37-16.21h2.22l6.37,16.21h-2.5l-1.55-4.12Zm-.79-2.11l-2.64-6.97-2.64,6.97h5.28Z"/><path d="M430.13,106.81c0-5.53,3.84-8.29,7.94-8.29,3.82,0,6.74,2.27,7.06,5.46h-2.5c-.32-1.97-2.18-3.33-4.56-3.33-3.2,0-5.53,2.2-5.53,6.16s2.34,6.23,5.51,6.23c2.48,0,4.72-1.48,4.72-3.59,0-.63-.42-1.07-1.09-1.07h-3.52v-1.94h4.12c1.27,0,2.8,1,2.8,2.73v5.74h-2.18v-2.73c-.69,1.74-2.64,2.92-4.93,2.92-4.05,0-7.85-2.76-7.85-8.29Z"/><path d="M455.81,108.15l-5.67-9.45h2.69l4.19,7.15,4.21-7.15h2.69l-5.7,9.45v6.76h-2.41v-6.76Z"/><path d="M477.67,110.79h-6.88l-1.55,4.12h-2.48l6.37-16.21h2.22l6.37,16.21h-2.5l-1.55-4.12Zm-.79-2.11l-2.64-6.97-2.64,6.97h5.28Z"/><path d="M499.32,110.77l.32,4.14h-2.34l-.32-3.94c-.12-1.44-1.07-2.45-2.45-2.45h-4.05v6.39h-2.41v-16.21h6.34c3.26,0,5.26,1.97,5.26,4.86,0,1.74-.95,2.94-2.38,3.66,1.18,.69,1.94,1.97,2.04,3.54Zm-8.84-4.38h3.87c2.11,0,2.92-1.37,2.92-2.82s-.81-2.78-2.92-2.78h-3.87v5.6Z"/><path d="M332.97,128.92l-2.34,2.48v5.51h-2.43v-16.21h2.43v7.46l7.11-7.46h3.03l-6.16,6.48,6.83,9.72h-2.94l-5.53-7.99Z"/><path d="M347.95,120.7h2.41v14.08h7.89v2.13h-10.3v-16.21Z"/><path d="M364.83,120.7h2.41v16.21h-2.41v-16.21Z"/><path d="M375.16,120.7h6.27c3.26,0,5.23,2.01,5.23,4.89s-1.97,4.89-5.23,4.89h-3.87v6.44h-2.41v-16.21Zm6.2,7.69c2.08,0,2.89-1.32,2.89-2.8s-.81-2.8-2.89-2.8h-3.8v5.6h3.8Z"/><path d="M392.6,131.53h2.34c.19,2.08,1.55,3.43,3.84,3.43,2.04,0,3.52-.79,3.52-2.55,0-3.89-9.19-1.55-9.19-7.52,0-2.59,2.27-4.38,5.53-4.38s5.58,1.92,5.79,4.89h-2.34c-.16-1.67-1.46-2.76-3.45-2.76s-3.13,.88-3.13,2.25c0,3.94,9.24,1.32,9.24,7.5,0,2.96-2.5,4.7-5.97,4.7-3.66,0-6-2.2-6.18-5.56Z"/><path d="M410.77,134.8l9.54-11.99h-9.05v-2.11h11.78v2.11l-9.4,11.99h9.4v2.11h-12.27v-2.11Z"/><path d="M430.11,120.7h10.4v2.13h-7.99v4.65h6.46v2.13h-6.46v5.16h8.24v2.13h-10.65v-16.21Z"/><path d="M447.96,120.7h2.96l5.16,12.92,5.16-12.92h2.96v16.21h-2.32v-12.06l-4.84,12.06h-1.94l-4.86-12.06v12.06h-2.29v-16.21Z"/><path d="M472.14,120.7h2.41v14.08h7.89v2.13h-10.3v-16.21Z"/><path d="M489.02,120.7h10.4v2.13h-7.99v4.65h6.46v2.13h-6.46v5.16h8.24v2.13h-10.65v-16.21Z"/></g><g><path d="M140.75,98.49v16.82h-2.04v-7.76h-8.92v7.76h-2.04v-16.82h2.04v7.21h8.92v-7.21h2.04Z"/><path d="M158.9,110.77h-7.5l-1.75,4.54h-2.14l6.71-16.82h1.85l6.71,16.82h-2.14l-1.73-4.54Zm-.72-1.83l-3.03-7.93-3.05,7.93h6.08Z"/><path d="M170.27,113.46c1.06,0,1.61-.84,1.61-2.45v-12.52h2.04v12.57c0,2.79-1.25,4.25-3.51,4.25h-2.24v-1.85h2.09Z"/><path d="M181.16,106.9c0-4.95,3.51-8.6,8.24-8.6s8.27,3.65,8.27,8.6-3.53,8.6-8.27,8.6-8.24-3.65-8.24-8.6Zm14.4,0c0-3.87-2.62-6.75-6.15-6.75s-6.13,2.88-6.13,6.75,2.6,6.75,6.13,6.75,6.15-2.88,6.15-6.75Zm-4.95-13.29h2.24l-2.5,3.56h-1.83l2.09-3.56Z"/><path d="M204.48,106.9c0-5.74,3.94-8.6,8.12-8.6,3.85,0,6.85,2.28,7.23,5.5h-2.16c-.38-2.14-2.5-3.65-5.1-3.65-3.46,0-6.01,2.38-6.01,6.75s2.55,6.8,6.01,6.8c2.76,0,5.22-1.56,5.22-3.99,0-.77-.5-1.27-1.32-1.27h-3.8v-1.78h4.16c1.23,0,2.98,.96,2.98,2.88v5.77h-1.9v-2.93c-.79,1.85-2.88,3.12-5.36,3.12-4.16,0-8.08-2.86-8.08-8.6Z"/><path d="M231.09,108.27l-5.96-9.78h2.33l4.66,7.81,4.64-7.81h2.33l-5.96,9.78v7.04h-2.04v-7.04Z"/><path d="M253.59,110.77h-7.5l-1.75,4.54h-2.14l6.71-16.82h1.85l6.71,16.82h-2.14l-1.73-4.54Zm-.72-1.83l-3.03-7.93-3.05,7.93h6.08Zm-2.09-11.78h-1.83l2.09-3.56h2.24l-2.5,3.56Z"/><path d="M275.49,111.13l.29,4.18h-1.97l-.29-4.06c-.1-1.63-1.15-2.79-2.74-2.79h-4.57v6.85h-2.04v-16.82h6.37c3.32,0,5.36,1.99,5.36,4.93,0,1.85-1.06,3.17-2.64,3.92,1.32,.72,2.12,2.09,2.24,3.8Zm-9.28-4.52h4.33c2.36,0,3.24-1.54,3.24-3.2s-.89-3.1-3.24-3.1h-4.33v6.3Z"/></g><g><g><line x1="291.34" y1="97.54" x2="309.88" y2="116.08"/><rect x="300.09" y="93.7" width="1.05" height="26.22" transform="translate(12.52 243.85) rotate(-45)"/></g><g><line x1="309.88" y1="97.54" x2="291.34" y2="116.08"/><rect x="287.5" y="106.28" width="26.22" height="1.05" transform="translate(12.52 243.85) rotate(-45)"/></g></g></g><g><rect x="230.17" y="393.33" width="146.9" height="66.99" rx="11.44" ry="11.44" style="fill:#fffdf5; stroke:#293d8c; stroke-miterlimit:10; stroke-width:2.81px;"/><g><path d="M248.24,441.15h-2.17v-.81c1.21-.03,2.25-.48,2.44-1.94h.94v9.96h-1.21v-7.21Z" style="fill:#3f4a99;"/><path d="M251.22,443.4c0-3.21,1.52-5.17,3.86-5.17s3.83,1.94,3.83,5.17-1.37,5.17-3.84,5.17-3.84-2.02-3.84-5.17Zm6.43,0c0-2.51-.85-4.13-2.57-4.13s-2.6,1.57-2.6,4.13,.85,4.12,2.6,4.12,2.57-1.56,2.57-4.12Z" style="fill:#3f4a99;"/><path d="M259.87,445.53c0-1.43,.92-2.21,2.04-2.57v-.04c-.92-.35-1.55-1.08-1.55-2.11,0-1.57,1.43-2.59,3.25-2.59s3.25,1,3.25,2.59c0,1.03-.59,1.75-1.52,2.11v.04c1.11,.33,2.01,1.23,2.01,2.57,0,2.25-1.88,3.05-3.7,3.05s-3.79-.81-3.79-3.05Zm6.27,0c0-1.3-.94-2.11-2.53-2.11s-2.5,.81-2.5,2.11,.95,2.04,2.54,2.04,2.49-.77,2.49-2.04Zm-.46-4.68c0-1.01-.79-1.62-2.07-1.62s-2.07,.61-2.07,1.62,.79,1.62,2.07,1.62,2.07-.61,2.07-1.62Z" style="fill:#3f4a99;"/><path d="M268.33,443.4c0-3.21,1.52-5.17,3.86-5.17s3.83,1.94,3.83,5.17-1.37,5.17-3.84,5.17-3.84-2.02-3.84-5.17Zm6.43,0c0-2.51-.85-4.13-2.57-4.13s-2.6,1.57-2.6,4.13,.85,4.12,2.6,4.12,2.57-1.56,2.57-4.12Z" style="fill:#3f4a99;"/><path d="M277.44,440.89h1.17v1.05h.03c.56-.77,1.31-1.23,2.4-1.23,1.89,0,3.21,1.44,3.21,3.93s-1.23,3.93-3.25,3.93c-1.01,0-1.73-.3-2.36-1.1h-.03v3.28h-1.17v-9.87Zm5.61,3.77c0-1.68-.71-2.95-2.12-2.95-1.63,0-2.38,1.33-2.38,2.95s.65,2.93,2.37,2.93c1.43,0,2.14-1.24,2.14-2.93Z" style="fill:#3f4a99;"/></g><g><path d="M268.41,404.14h4.83c1.82,0,3.05,1.14,3.05,2.83,0,1.26-.55,2.15-1.79,2.56v.04c1.05,.38,1.39,1.1,1.49,2.63,.12,1.66,.29,2.08,.48,2.21v.06h-1.4c-.22-.19-.26-.58-.38-2.31-.1-1.52-.71-2.05-2.1-2.05h-2.88v4.36h-1.3v-10.33Zm1.3,4.91h3.06c1.44,0,2.17-.72,2.17-1.89,0-1.26-.58-1.89-2.1-1.89h-3.14v3.79Z" style="fill:#3f4a99;"/><path d="M277.19,410.74c0-2.17,1.42-3.93,3.54-3.93,2.24,0,3.44,1.73,3.44,4.21h-5.78c.09,1.52,.91,2.67,2.41,2.67,1.08,0,1.81-.52,2.07-1.53h1.14c-.35,1.6-1.52,2.51-3.21,2.51-2.28,0-3.61-1.76-3.61-3.93Zm1.23-.61h4.49c-.07-1.49-.84-2.4-2.18-2.4s-2.14,1.04-2.31,2.4Z" style="fill:#3f4a99;"/><path d="M284.83,412.04h1.2c.16,1.3,1.03,1.66,2.14,1.66,1.23,0,1.73-.53,1.73-1.23,0-.84-.58-1.05-1.95-1.34-1.47-.3-2.79-.61-2.79-2.24,0-1.24,.95-2.05,2.69-2.05,1.85,0,2.76,.88,2.93,2.34h-1.2c-.12-.98-.65-1.42-1.76-1.42s-1.5,.48-1.5,1.07c0,.81,.72,.97,2.01,1.23,1.5,.3,2.76,.64,2.76,2.36,0,1.5-1.23,2.27-2.95,2.27-2.05,0-3.19-.97-3.31-2.64Z" style="fill:#3f4a99;"/><path d="M291.94,410.74c0-2.17,1.39-3.93,3.61-3.93s3.6,1.76,3.6,3.93-1.36,3.93-3.6,3.93-3.61-1.76-3.61-3.93Zm6.01,0c0-1.65-.81-2.96-2.4-2.96s-2.41,1.31-2.41,2.96,.82,2.95,2.41,2.95,2.4-1.3,2.4-2.95Z" style="fill:#3f4a99;"/><path d="M300.37,404.14h1.17v10.33h-1.17v-10.33Z" style="fill:#3f4a99;"/><path d="M307.92,414.47v-1.03h-.03c-.53,.72-1.17,1.2-2.25,1.2-1.53,0-2.51-.92-2.51-2.47v-5.17h1.17v5.14c0,.97,.62,1.53,1.68,1.53,1.19,0,1.95-.9,1.95-2.08v-4.6h1.17v7.47h-1.17Z" style="fill:#3f4a99;"/><path d="M310.21,407h1.08v-2.36h1.17v2.36h1.44v.95h-1.44v4.86c0,.52,.27,.69,.75,.69,.23,0,.49-.06,.62-.1h.04v1.01c-.27,.06-.59,.1-.94,.1-.95,0-1.65-.39-1.65-1.45v-5.12h-1.08v-.95Z" style="fill:#3f4a99;"/><path d="M315.12,404.14h1.17v1.45h-1.17v-1.45Zm0,2.86h1.17v7.47h-1.17v-7.47Z" style="fill:#3f4a99;"/><path d="M317.46,410.74c0-2.17,1.39-3.93,3.61-3.93s3.6,1.76,3.6,3.93-1.36,3.93-3.6,3.93-3.61-1.76-3.61-3.93Zm6.01,0c0-1.65-.81-2.96-2.4-2.96s-2.41,1.31-2.41,2.96,.82,2.95,2.41,2.95,2.4-1.3,2.4-2.95Z" style="fill:#3f4a99;"/><path d="M327.01,407.98h.03c.53-.71,1.29-1.16,2.37-1.16,1.56,0,2.51,.85,2.51,2.4v5.25h-1.17v-5.14c0-.97-.64-1.52-1.69-1.52-1.19,0-2.05,.84-2.05,2.07v4.6h-1.17v-7.47h1.17v.98Z" style="fill:#3f4a99;"/><path d="M336.94,408.67c.64-.56,1.2-1.01,1.2-1.95s-.68-1.73-1.95-1.73c-1.49,0-2.18,1-2.23,2.47h-1.18c.04-1.97,1.04-3.51,3.45-3.51,2.04,0,3.15,1.24,3.15,2.76,0,1.19-.65,1.86-1.33,2.43-1.2,1-1.52,1.36-1.53,2.83h-1.1c.01-1.59,.42-2.33,1.52-3.29Zm-1.68,4.36h1.4v1.43h-1.4v-1.43Z" style="fill:#3f4a99;"/></g><g><path d="M333.99,444.93h-4.67v-1.08l4.9-6.49h.95v6.6h1.63v.97h-1.63v2.43h-1.18v-2.43Zm-3.5-.97h3.5v-4.64h-.03l-3.47,4.6v.04Z" style="fill:#3f4a99;"/><path d="M338.09,437.03h1.3v5.13l5.09-5.13h1.63l-4.18,4.13,4.52,6.2h-1.52l-3.89-5.32-1.66,1.66v3.66h-1.3v-10.33Z" style="fill:#3f4a99;"/></g><line x1="376.74" y1="426.07" x2="230.51" y2="426.07" style="fill:#fffdf5; stroke:#293d8c; stroke-miterlimit:10; stroke-width:2.81px;"/><line x1="303.62" y1="425.71" x2="303.62" y2="460.48" style="fill:#fffdf5; stroke:#293d8c; stroke-miterlimit:10; stroke-width:2.81px;"/></g></g></g></svg>