<?xml version="1.0" encoding="UTF-8"?><svg xmlns="http://www.w3.org/2000/svg" viewBox="0 0 178.08 18.12"><defs><style>.d{fill:#fff;}</style></defs><g id="a"/><g id="b"><g id="c"><g><g><polygon class="d" points="9.65 0 0 0 0 18.12 7.28 18.12 11.3 6.05 9.65 0"/><polygon class="d" points="14.46 0 10.44 12.07 12.09 18.12 21.74 18.12 21.74 0 14.46 0"/></g><g><path class="d" d="M41.71,3.8v12.28h-1.82v-5.51h-6.09v5.51h-1.82V3.8h1.82v5.16h6.09V3.8h1.82Z"/><path class="d" d="M60.11,12.96h-5.21l-1.18,3.12h-1.88l4.82-12.28h1.68l4.82,12.28h-1.89l-1.18-3.12Zm-.6-1.6l-2-5.28-2,5.28h4Z"/><path class="d" d="M73.84,14.47c.82,0,1.18-.58,1.18-1.7V3.8h1.82V12.82c0,2.16-1,3.26-2.77,3.26h-1.67v-1.61h1.44Z"/><path class="d" d="M87.27,9.94c0-3.61,2.6-6.28,6.1-6.28s6.09,2.67,6.09,6.28-2.6,6.28-6.09,6.28-6.1-2.67-6.1-6.28Zm10.33,0c0-2.68-1.79-4.67-4.23-4.67s-4.24,1.98-4.24,4.67,1.81,4.67,4.24,4.67,4.23-1.98,4.23-4.67ZM94.06,.24h1.89l-1.81,2.6h-1.53l1.44-2.6Z"/><path class="d" d="M109.62,9.94c0-4.19,2.91-6.28,6.02-6.28,2.89,0,5.1,1.72,5.35,4.14h-1.89c-.25-1.49-1.65-2.53-3.46-2.53-2.42,0-4.19,1.67-4.19,4.67s1.77,4.72,4.17,4.72c1.88,0,3.58-1.12,3.58-2.72,0-.47-.32-.81-.82-.81h-2.67v-1.47h3.12c.96,0,2.12,.75,2.12,2.07v4.35h-1.65v-2.07c-.53,1.32-2,2.21-3.74,2.21-3.07,0-5.95-2.09-5.95-6.28Z"/><path class="d" d="M134.33,10.96l-4.3-7.16h2.03l3.17,5.42,3.19-5.42h2.03l-4.31,7.16v5.12h-1.82v-5.12Z"/><path class="d" d="M156.15,12.96h-5.21l-1.18,3.12h-1.88l4.82-12.28h1.68l4.82,12.28h-1.89l-1.18-3.12Zm-.6-1.6l-2-5.28-2,5.28h4Zm-1.23-8.52h-1.53l1.44-2.6h1.89l-1.81,2.6Z"/><path class="d" d="M177.81,12.94l.25,3.14h-1.77l-.25-2.98c-.09-1.09-.81-1.86-1.86-1.86h-3.07v4.84h-1.82V3.8h4.81c2.47,0,3.98,1.49,3.98,3.68,0,1.32-.72,2.23-1.81,2.77,.89,.53,1.47,1.49,1.54,2.68Zm-6.7-3.31h2.93c1.6,0,2.21-1.03,2.21-2.14s-.61-2.1-2.21-2.1h-2.93v4.24Z"/></g></g></g></g></svg>