<?xml version="1.0" standalone="no"?>
<!DOCTYPE svg PUBLIC "-//W3C//DTD SVG 1.1//EN" "http://www.w3.org/Graphics/SVG/1.1/DTD/svg11.dtd" >
<svg xmlns="http://www.w3.org/2000/svg">
<metadata>
Created by FontPrep 20130207 at Mon Jun 29 18:10:13 2015
 By Pixeloid Office
Copyright (c) 2011 Natanael Gama (exo@ndiscovered.com), with Reserved Font Name "Exo"
</metadata>
<defs>
<font id="9611154d53964f16de2ae802b2261f0a" horiz-adv-x='1024' >
  <font-face 
    font-family="Exo-Medium"
    font-weight="500"
    font-stretch="normal"
    units-per-em="2048"
    panose-1="2 0 6 3 0 0 0 0 0 0"
    ascent="1638"
    descent="-410"
    x-height="1087"
    cap-height="1499"
    bbox="-172 -558.957 2746 2052"
    underline-thickness="102"
    underline-position="-102"
    unicode-range="U+000D-FB06"
  />
<missing-glyph horiz-adv-x="1523" 
d="M1305 1036l-517 -491l517 -494v985zM246 27h1038l-518 497zM219 45l524 500l-524 493v-993zM1286 1061h-1046l526 -496zM190 0v1087h1143v-1087h-1143z" />
    <glyph glyph-name="fi" unicode="fi" horiz-adv-x="1255" 
d="M39 918v135l192 34v101q0 184 113 302t301 120q74 0 206 -22t206 -44v-121l-359 21q-72 4 -130 -14t-103 -80t-45 -164v-99l731 -20v-1067h-190v918h-541v-918h-189v918h-192z" />
    <glyph glyph-name="fl" unicode="fl" horiz-adv-x="1470" 
d="M39 918v135l194 34v105q-1 194 87 306t266 112h567v-1211q0 -123 23 -167t88 -62q156 -43 170 -43v-127h-197q-147 0 -210 87q-62 87 -62 300v1057h-338q-105 0 -155 -53t-50 -199v-105h283v-169h-287v-918h-189v918h-190z" />
    <glyph glyph-name=".notdef" horiz-adv-x="1523" 
d="M1305 1036l-517 -491l517 -494v985zM246 27h1038l-518 497zM219 45l524 500l-524 493v-993zM1286 1061h-1046l526 -496zM190 0v1087h1143v-1087h-1143z" />
    <glyph glyph-name=".notdef" horiz-adv-x="1523" 
d="M1305 1036l-517 -491l517 -494v985zM246 27h1038l-518 497zM219 45l524 500l-524 493v-993zM1286 1061h-1046l526 -496zM190 0v1087h1143v-1087h-1143z" />
    <glyph glyph-name=".null" horiz-adv-x="0" 
 />
    <glyph glyph-name="uni000D" unicode="&#xd;" horiz-adv-x="1912" 
 />
    <glyph glyph-name="space" unicode=" " horiz-adv-x="512" 
 />
    <glyph glyph-name="exclam" unicode="!" horiz-adv-x="552" 
d="M160 47v135q0 51 49 51h131q47 0 47 -51v-135q0 -47 -47 -47h-131q-49 0 -49 47zM168 1497h211l-19 -1096h-176z" />
    <glyph glyph-name="quotedbl" unicode="&#x22;" horiz-adv-x="813" 
d="M162 1499h188v-137l-20 -275h-144l-24 275v137zM465 1499h186v-137l-20 -275h-144l-22 275v137z" />
    <glyph glyph-name="numbersign" unicode="#" horiz-adv-x="1425" 
d="M39 463l18 131h324l49 313h-321l20 131h324l75 461h131l-75 -461h315l74 461h131l-74 -461h361l-23 -131h-360l-50 -315h361l-21 -131h-362l-76 -461h-131l76 461l-318 2l-75 -463h-131l75 463h-317zM512 594l315 -2l50 315h-316z" />
    <glyph glyph-name="dollar" unicode="$" horiz-adv-x="1173" 
d="M293 1135v-119q0 -184 201 -185h245q330 0 330 -364v-129q0 -240 -191 -319q-105 -43 -247 -35v-168h-135v176q-182 16 -344 45v143q23 0 180 -7t307 -7q242 0 242 170v123q0 90 -35 137t-125 47h-246q-292 0 -355 242q-16 57 -16 123v133q2 203 106 285t286 85v177h135
v-183q121 -8 383 -45v-147l-482 18q-121 4 -180 -35t-59 -161z" />
    <glyph glyph-name="percent" unicode="%" horiz-adv-x="1957" 
d="M80 975v266q0 135 59 197t209 61h207q145 0 203 -61t59 -197v-266q0 -137 -58 -199t-208 -61h-207q-145 0 -205 61q-59 62 -59 199zM231 983q0 -69 26 -93t95 -24h191q79 0 101 24t22 93v248q0 69 -25 93t-94 24h-191q-78 0 -102 -24t-23 -93v-248zM455 0l901 1499h162
l-900 -1499h-163zM1143 264v266q0 134 58 196t208 62h207q144 0 204 -61t60 -197v-266q0 -135 -59 -197t-209 -63h-207q-145 0 -203 62t-59 198zM1294 272q0 -70 25 -94t94 -22h191q80 0 102 24t23 92v248q0 70 -26 94t-95 23h-191q-79 0 -101 -24t-22 -93v-248z" />
    <glyph glyph-name="ampersand" unicode="&#x26;" horiz-adv-x="1327" 
d="M975 1323h-393q-135 0 -164 -52t63 -186l443 -602l239 242l62 -70l-111 -219l-82 -92l250 -344h-221l-162 219l-145 -133q-78 -72 -191 -90t-226 26t-183 146q-111 152 -85 310t162 274l166 141l-123 168q-78 113 -66 207q10 94 74 156t142 71q256 29 551 -41v-131z
M311 272q59 -78 153 -97t177 48l147 139l-288 386l-146 -123q-195 -160 -43 -353z" />
    <glyph glyph-name="quotesingle" unicode="'" horiz-adv-x="399" 
d="M104 1499h191v-137l-21 -275h-147l-23 275v137z" />
    <glyph glyph-name="parenleft" unicode="(" horiz-adv-x="708" 
d="M143 657q0 177 35 350t111 372t155 327l35 55h193q-216 -354 -303 -763q-37 -172 -37 -338t35 -342t110 -370q75 -193 160 -325l35 -53h-193q-43 49 -108 176q-66 127 -111 246q-45 120 -81 304t-36 361z" />
    <glyph glyph-name="parenright" unicode=")" horiz-adv-x="708" 
d="M379 660q0 166 -35 336t-110 369q-75 198 -160 339l-35 57h192q44 -63 109 -199q64 -134 110 -256t82 -297t35 -352q0 -463 -217 -893q-49 -98 -84 -145l-35 -49h-192q49 70 113 197t108 247q45 120 82 300t37 346z" />
    <glyph glyph-name="asterisk" unicode="*" horiz-adv-x="892" 
d="M96 1159v90l285 58l10 -158zM229 850l50 276l153 -36l-119 -269zM354 1470l88 35l150 -245l-146 -64zM416 969l88 133l225 -187l-49 -71zM508 1169l246 158l45 -80l-189 -198z" />
    <glyph glyph-name="plus" unicode="+" horiz-adv-x="1038" 
d="M94 641v176h336v338h176v-338h340v-176h-340v-338h-176v338h-336z" />
    <glyph glyph-name="comma" unicode="," horiz-adv-x="546" 
d="M162 51v129q0 55 51 56h123q49 0 49 -56v-203q1 -57 -21 -94t-69 -55t-102 -12l-21 4v74q63 0 64 61v45h-23q-51 0 -51 51z" />
    <glyph glyph-name="hyphen" unicode="-" horiz-adv-x="724" 
d="M41 506v176h643v-176h-643z" />
    <glyph glyph-name="period" unicode="." horiz-adv-x="550" 
d="M162 47v135q0 51 49 51h127q51 0 51 -51v-135q0 -47 -51 -47h-127q-49 0 -49 47z" />
    <glyph glyph-name="slash" unicode="/" horiz-adv-x="849" 
d="M39 -147l575 1724h199l-575 -1724h-199z" />
    <glyph glyph-name="zero" unicode="0" horiz-adv-x="1308" 
d="M133 340v815q0 166 100 255t261 89h335q179 0 263 -95t84 -245v-819q0 -340 -349 -340h-335q-160 0 -260 83q-99 83 -99 257zM322 354q0 -92 54 -132t134 -40h299q178 0 178 170v795q0 170 -176 170h-303q-96 0 -141 -49t-45 -121v-793z" />
    <glyph glyph-name="one" unicode="1" horiz-adv-x="745" 
d="M594 1499v-1499h-188v1296l-330 -100v131l330 172h188z" />
    <glyph glyph-name="two" unicode="2" horiz-adv-x="1216" 
d="M76 1335v140q319 45 622 45q212 0 318 -128t106 -311q0 -109 -59 -231t-139 -221q-189 -231 -488 -447h686v-182h-1032v170q251 172 497 389q153 135 249 275t96 254q0 112 -64 180t-196 67h-596z" />
    <glyph glyph-name="three" unicode="3" horiz-adv-x="1210" 
d="M544 -14q-314 0 -474 57l2 127h585q106 0 163 34q56 34 57 142v107q0 190 -207 198l-473 17v147l473 21q211 12 211 188v123q-1 90 -61 132t-150 42h-613v125q150 56 419 58q110 1 237 -1q166 -2 260 -97t94 -247v-131q0 -227 -139 -283q139 -80 139 -299v-110
q0 -350 -369 -350h-154z" />
    <glyph glyph-name="four" unicode="4" horiz-adv-x="1243" 
d="M844 557v404l71 153h117v-557h174v-147l-174 -41v-365h-188v365h-735l-70 90l623 1040h217l-560 -942h525z" />
    <glyph glyph-name="five" unicode="5" horiz-adv-x="1230" 
d="M145 184h611q94 0 134 52t40 126v201q0 66 -18 106q-34 74 -152 74h-283q-67 1 -111 -35t-44 -110h-172l45 901h876v-182h-700l-23 -453q43 47 150 58q58 8 258 3t281 -99t81 -253v-227q0 -100 -34 -173t-89 -111q-101 -70 -223 -70q-208 0 -320 8t-307 41v143z" />
    <glyph glyph-name="six" unicode="6" horiz-adv-x="1267" 
d="M125 790q0 541 224 679q60 38 128 40q305 8 627 -39v-141h-569q-66 0 -112 -50q-106 -115 -110 -435q291 41 495 41t274 -84t71 -232v-258q0 -313 -338 -313h-303q-72 0 -127 20q-260 95 -260 772zM313 707q0 -277 53 -400q22 -51 66 -89t105 -38h264q84 0 125 31t41 125
v223q0 147 -164 148h-490z" />
    <glyph glyph-name="seven" unicode="7" horiz-adv-x="1122" 
d="M57 1317v182h947l61 -106l-530 -1393h-218l510 1317h-770z" />
    <glyph glyph-name="eight" unicode="8" horiz-adv-x="1292" 
d="M143 324v186q0 170 170 223q-170 63 -170 289v133q1 195 97 275t270 79h303q170 0 254 -84t84 -270v-127q0 -134 -69 -197q-34 -31 -85 -40q78 -13 116 -101t38 -172v-192q0 -220 -161 -290q-79 -36 -179 -36h-301q-102 0 -175 27t-109 59t-56 85q-20 52 -24 83
q-3 31 -3 70zM332 328q0 -147 192 -148h269q73 0 121 38t49 110v194q1 76 -47 116t-117 40h-295q-172 0 -172 -156v-194zM332 1012q0 -86 52 -123t120 -37h293q166 0 166 160v127q0 104 -42 148t-126 44h-271q-102 0 -147 -37t-45 -155v-127z" />
    <glyph glyph-name="nine" unicode="9" horiz-adv-x="1267" 
d="M115 940v256q0 313 340 313h301q92 1 158 -33t120 -118q111 -170 111 -637q-1 -375 -103 -547t-249 -176q-399 -8 -629 39v141h571q209 0 221 488q-278 -43 -488 -43t-282 85q-71 85 -71 232zM301 948q0 -147 166 -147h489q0 373 -100 475q-49 51 -123 51h-266
q-84 0 -125 -31t-41 -125v-223z" />
    <glyph glyph-name="colon" unicode=":" horiz-adv-x="550" 
d="M162 47v135q0 51 49 51h127q51 0 51 -51v-135q0 -47 -51 -47h-127q-49 0 -49 47zM162 903v135q0 51 49 52h127q51 0 51 -52v-135q0 -47 -51 -47h-127q-49 0 -49 47z" />
    <glyph glyph-name="semicolon" unicode=";" horiz-adv-x="555" 
d="M162 51v129q0 23 14 39t37 17h123q49 0 49 -56v-203q1 -57 -21 -94t-69 -55t-102 -12l-21 4v74q63 0 64 61v45h-23q-20 0 -36 15q-15 16 -15 36zM166 905v135q0 51 49 52h127q51 0 51 -52v-135q0 -47 -51 -47h-127q-49 0 -49 47z" />
    <glyph glyph-name="less" unicode="&#x3c;" horiz-adv-x="958" 
d="M96 629v190l768 324v-193l-538 -225l538 -246v-196z" />
    <glyph glyph-name="equal" unicode="=" horiz-adv-x="956" 
d="M41 418v176h874v-176h-874zM41 850v176h874v-176h-874z" />
    <glyph glyph-name="greater" unicode="&#x3e;" horiz-adv-x="958" 
d="M96 283v196l537 246l-537 225v193l768 -324v-190z" />
    <glyph glyph-name="question" unicode="?" horiz-adv-x="1107" 
d="M530 1516q42 0 86 -3q217 0 317 -108q99 -109 99 -277v-190q0 -201 -132 -285t-355 -53v-201h-176v351h276q84 4 142 50t59 138v180q0 113 -62 162t-202 49h-543v141q242 40 345 43q104 3 146 3zM344 47v135q0 51 49 51h129q49 0 49 -51v-135q0 -47 -49 -47h-129
q-49 0 -49 47z" />
    <glyph glyph-name="at" unicode="@" horiz-adv-x="1740" 
d="M125 6v688q0 166 88 259q37 38 109 67t167 29h429q125 0 225 -63t100 -232v-754h-133l-33 127l-20 -16q-101 -78 -223 -114q-55 -15 -109 -15q-115 -2 -189 70t-73 177v103q0 129 72 203t202 73h336q2 137 0 137q0 78 -38 105t-122 27h-424q-90 0 -141 -37t-51 -148v-680
q0 -213 192 -213h707q121 0 166 51t45 162v1018q0 115 -57 175t-154 61h-827v116q279 57 598 56h229q174 -2 278 -104t105 -304v-1018q0 -389 -381 -389h-709q-168 -1 -266 97t-98 286zM639 250q0 -35 36 -66t83 -28q123 -2 315 102v229l-319 -30q-115 -12 -115 -125v-82z
" />
    <glyph glyph-name="A" unicode="A" horiz-adv-x="1384" 
d="M86 0l539 1499h198l516 -1499h-215l-123 395h-567l-129 -395h-219zM494 573h450l-221 656z" />
    <glyph glyph-name="B" unicode="B" horiz-adv-x="1224" 
d="M154 0v1499h587q109 0 190 -35t125 -94q83 -111 85 -264q0 -274 -195 -328q84 -16 146 -108t61 -246q0 -424 -410 -424h-589zM344 180h395q225 0 226 250q-1 115 -57 191t-169 75h-395v-516zM344 872h393q215 0 215 224t-215 223h-393v-447z" />
    <glyph glyph-name="C" unicode="C" horiz-adv-x="1179" 
d="M627 1333q-129 0 -197 -45t-102 -171q-34 -127 -35 -385q0 -258 75 -410t259 -152l487 14v-147q-225 -49 -506 -49q-504 0 -504 766q0 389 108 575q108 187 379 187t523 -56v-149h-16q-198 22 -471 22z" />
    <glyph glyph-name="D" unicode="D" horiz-adv-x="1347" 
d="M154 0v1499h577q131 0 229 -48t154 -123q55 -75 100 -210t47 -326q1 -192 -29 -320q-69 -296 -256 -409q-105 -63 -245 -63h-577zM342 184h383q176 0 262 156t86 434q0 545 -348 545h-383v-1135z" />
    <glyph glyph-name="E" unicode="E" horiz-adv-x="1161" 
d="M152 264v957q0 153 78 219t198 59q614 -29 651 -33v-151h-633q-48 1 -74 -19t-29 -40t-3 -56v-360l653 -21v-153l-653 -21v-360q0 -51 22 -76t44 -28q20 -3 61 -3h612v-149l-630 -35q-297 -19 -297 270z" />
    <glyph glyph-name="F" unicode="F" horiz-adv-x="1161" 
d="M152 0v1219q0 149 78 217t198 63q614 -29 651 -33v-151h-633q-48 1 -74 -19t-29 -40t-3 -56v-360l653 -21v-153l-653 -21v-645h-188z" />
    <glyph glyph-name="G" unicode="G" horiz-adv-x="1257" 
d="M104 754q0 442 137 616q115 146 355 146t526 -58v-149q-2 0 -37 3t-172 13t-315 10t-242 -132q-64 -133 -63 -455q-1 -322 67 -448t248 -128q126 0 301 70l56 24v371h-308v125q168 49 357 49q90 0 139 -4v-807h-139l-45 100q-174 -109 -377 -110q-123 -2 -213 37
t-142 103t-83 170q-50 169 -50 454z" />
    <glyph glyph-name="H" unicode="H" horiz-adv-x="1304" 
d="M154 0v1499h188v-684h662v684h188v-1499h-188v635h-662v-635h-188z" />
    <glyph glyph-name="I" unicode="I" horiz-adv-x="454" 
d="M154 0v1499h188v-1499h-188z" />
    <glyph glyph-name="J" unicode="J" horiz-adv-x="733" 
d="M430 373v1126h188v-1161q0 -233 -106 -301q-82 -51 -222 -48t-222 56l6 141q45 -8 56 -11t53 -9q43 -6 57 -5t48 2t48 11t37 26t40 62t17 111z" />
    <glyph glyph-name="K" unicode="K" horiz-adv-x="1230" 
d="M154 0v1499h184v-659h156l446 659h225l-501 -747l501 -752h-225l-446 659h-154v-659h-186z" />
    <glyph glyph-name="L" unicode="L" horiz-adv-x="1130" 
d="M154 266v1233h188v-1210q0 -81 43 -94q37 -13 84 -13h596v-182h-625q-129 0 -208 55q-78 55 -78 211z" />
    <glyph glyph-name="M" unicode="M" horiz-adv-x="1665" 
d="M104 0l109 1499h260l358 -1186l351 1186h258l121 -1499h-187l-94 1163l-346 -1163h-201l-356 1163l-84 -1163h-189z" />
    <glyph glyph-name="N" unicode="N" horiz-adv-x="1390" 
d="M154 0v1499h192l744 -1149v1149h188v-1499h-188l-746 1147v-1147h-190z" />
    <glyph glyph-name="O" unicode="O" horiz-adv-x="1380" 
d="M125 741q0 355 77 511q40 84 87 136q83 92 260 113q69 8 177 8t186 -12t157 -56q80 -44 125 -126q104 -189 103 -568t-99 -558q-45 -81 -123 -125t-159 -58t-193 -14t-182 8q-184 21 -262 111q-109 125 -137 337q-16 124 -17 293zM313 774q0 -316 49 -439
q49 -122 191 -149q61 -12 189 -12t208 41q158 81 158 485t-74 511q-29 42 -54 66q-45 42 -162 48q-38 2 -101 2t-135 -4t-111 -31q-78 -50 -97 -104q-19 -53 -40 -141t-21 -273z" />
    <glyph glyph-name="P" unicode="P" horiz-adv-x="1200" 
d="M119 0v1499h622q375 0 375 -442q0 -340 -176 -426q-55 -27 -98 -32q-42 -5 -100 -4t-242 18t-193 22v-635h-188zM307 774h428q92 0 142 56q49 56 47 228t-69 223q-51 38 -120 38h-428v-545z" />
    <glyph glyph-name="Q" unicode="Q" horiz-adv-x="1380" 
d="M125 741q0 355 74 510q39 85 85 137t140 86t250 35q156 0 234 -12t158 -56q81 -44 127 -126q105 -187 104 -568t-100 -558q-83 -146 -284 -183q-82 -14 -194 -14t-182 8q-182 21 -259 110q-108 122 -136 338q-16 124 -17 293zM361 335q48 -121 189 -149q60 -12 188 -12
t210 41q160 82 160 466q0 282 -26 402t-104 194q-45 42 -164 48q-38 2 -106 2t-104 -2q-37 -2 -86 -13t-75 -35q-25 -24 -55 -65t-43 -104q-32 -155 -32 -404q0 -248 48 -369zM639 -68h123q131 -117 340 -45v-182q-108 -46 -282 10q-69 23 -120 80t-61 137z" />
    <glyph glyph-name="R" unicode="R" horiz-adv-x="1220" 
d="M119 0v1499h643q362 0 362 -455q0 -110 -22 -192t-46 -123q-26 -41 -70 -71t-63 -34t-53 -14l308 -610h-207l-297 600l-367 29v-629h-188zM307 788h447q44 0 70 6t55 30q55 43 55 213q0 171 -49 227t-131 55h-447v-531z" />
    <glyph glyph-name="S" unicode="S" horiz-adv-x="1198" 
d="M125 1008v133q0 207 106 289t299 81q92 2 270 -17t261 -34v-151q-328 20 -510 20q-121 6 -179 -31t-59 -163v-119q0 -117 45 -151t150 -34h276q330 0 330 -364v-129q0 -219 -133 -293q-110 -61 -281 -61q-106 0 -276 17t-254 36v151q225 -22 392 -22t199 4q107 13 141 71
q24 38 24 95v123q0 90 -35 137t-125 47h-270q-96 0 -168 24q-72 23 -110 57q-93 82 -93 284z" />
    <glyph glyph-name="T" unicode="T" horiz-adv-x="1191" 
d="M84 1317v182h1059v-182h-441v-1317h-188v1317h-430z" />
    <glyph glyph-name="U" unicode="U" horiz-adv-x="1378" 
d="M154 655v844h188v-844q0 -187 20 -257t35 -105q14 -35 44 -57t53 -36q50 -28 189 -28q140 0 199 18q60 18 89 51q72 79 92 219q12 83 12 195v844h191v-844q0 -190 -37 -322t-83 -198q-46 -67 -133 -101t-143 -39t-108 -5h-66q-92 0 -138 3t-122 20t-116 59t-83 114
q-83 132 -83 469z" />
    <glyph glyph-name="V" unicode="V" horiz-adv-x="1380" 
d="M86 1499h203l411 -1220l430 1220h203l-534 -1499h-201z" />
    <glyph glyph-name="W" unicode="W" horiz-adv-x="1986" 
d="M86 1499h203l409 -1202l342 1202h209l-129 -455l262 -757l355 1212h202l-452 -1499h-201l-260 725l-227 -725h-201z" />
    <glyph glyph-name="X" unicode="X" horiz-adv-x="1245" 
d="M86 1499h207l346 -596l352 596h207l-444 -741l434 -758h-207l-342 596l-340 -596h-207l432 758z" />
    <glyph glyph-name="Y" unicode="Y" horiz-adv-x="1304" 
d="M745 0h-188v514l-471 985h205l362 -768l400 768h204l-512 -985v-514z" />
    <glyph glyph-name="Z" unicode="Z" horiz-adv-x="1148" 
d="M68 0v182l776 1135h-776v182h1015v-182l-768 -1135h768v-182h-1015z" />
    <glyph glyph-name="bracketleft" unicode="[" horiz-adv-x="663" 
d="M162 -61v1425q0 126 53 232q29 58 91 94t153 34h168v-176h-150q-59 0 -93 -51t-34 -143v-1413q0 -91 34 -143t93 -52h150v-176h-168q-92 0 -156 37q-141 83 -141 332z" />
    <glyph glyph-name="backslash" unicode="\" horiz-adv-x="849" 
d="M39 1577h199l575 -1724h-199z" />
    <glyph glyph-name="bracketright" unicode="]" horiz-adv-x="663" 
d="M205 1724q291 0 297 -360v-1425q0 -129 -49 -234q-29 -61 -93 -98t-155 -37h-166v176h147q59 0 94 51q34 51 33 144v1413q0 92 -33 143q-34 51 -94 51h-147v176h166z" />
    <glyph glyph-name="asciicircum" unicode="^" horiz-adv-x="796" 
d="M96 1087l234 269h164l208 -269h-157l-137 140l-152 -140h-160z" />
    <glyph glyph-name="underscore" unicode="_" horiz-adv-x="1380" 
d="M41 -2v176h1298v-176h-1298z" />
    <glyph glyph-name="grave" unicode="`" horiz-adv-x="495" 
d="M39 1364h209l211 -277h-154z" />
    <glyph glyph-name="a" unicode="a" horiz-adv-x="1062" 
d="M76 264v119q0 125 75 202t209 77q418 -2 418 0q2 117 0 118q0 88 -41 123t-121 35q-195 0 -505 -23v129q203 59 522 64q149 2 241 -78t93 -248v-782h-144l-45 127q-8 -8 -69 -39q-61 -32 -165 -66t-186 -34q-126 2 -204 78t-78 198zM264 283q0 -123 117 -123q68 0 167 24
t165 49l65 27v266l-401 -28q-113 -10 -113 -127v-88z" />
    <glyph glyph-name="b" unicode="b" horiz-adv-x="1134" 
d="M115 0v1608h184v-584q86 36 198 58t205 22q92 0 166 -45t110 -130q62 -146 62 -390q0 -551 -356 -551q-94 0 -213 45t-170 86l-43 -119h-143zM664 164q188 0 188 377q0 227 -46 309t-142 82q-186 0 -363 -49v-631q201 -88 363 -88z" />
    <glyph glyph-name="c" unicode="c" horiz-adv-x="1019" 
d="M96 545q0 171 26 283t77 169t110 79t146 22q236 0 475 -58v-127q-471 22 -529 3q-31 -9 -61 -46q-54 -66 -55 -310q0 -244 44 -320t143 -76q205 0 400 16l72 4v-133q-170 -57 -489 -61q-83 0 -143 22t-111 78q-51 57 -78 171t-27 284z" />
    <glyph glyph-name="d" unicode="d" horiz-adv-x="1134" 
d="M96 539q0 326 93 445q93 120 273 120q181 0 374 -80v584h186v-1608h-143l-43 119q-51 -41 -170 -86t-213 -45q-357 0 -357 551zM285 541q0 -377 188 -377q162 0 363 88v631q-176 49 -363 49q-96 0 -142 -82t-46 -309z" />
    <glyph glyph-name="e" unicode="e" horiz-adv-x="1075" 
d="M96 549q0 180 25 289t88 166t143 74q80 18 196 18t174 -5q56 -5 116 -27t91 -63q70 -90 70 -292q0 -258 -286 -258h-428q0 -177 45 -233t168 -56q340 0 481 22v-137q-190 -57 -524 -57q-205 0 -282 122t-77 437zM285 616h407q119 0 119 95q0 143 -41 179q-40 36 -164 36
t-166 -5t-86 -35q-43 -30 -56 -94t-13 -176z" />
    <glyph glyph-name="f" unicode="f" horiz-adv-x="821" 
d="M39 918v135l190 34v203q0 225 126 290q58 30 170 30t257 -49v-119l-235 2q-93 0 -111 -46t-18 -126v-185h287v-169h-287v-918h-189v918h-190z" />
    <glyph glyph-name="g" unicode="g" horiz-adv-x="1136" 
d="M92 229q0 59 31 111t90 66q-119 76 -119 284q0 400 361 402h645v-129l-154 -37q0 -2 13 -26t28 -60t16 -112q5 -305 -197 -394q-65 -29 -149 -29h-301q-84 0 -84 -57q0 -66 84 -66h408q131 0 206 -78t74 -215v-127q0 -118 -56 -205q-32 -50 -100 -80t-161 -30h-307
q-150 0 -240 80t-90 235v164l84 125q-82 55 -82 178zM369 8q-40 0 -90 15v-250q-1 -66 27 -102t60 -44t76 -8h269q81 0 113 39t32 113v108q0 69 -27 99t-104 30h-356zM467 918q-184 0 -184 -219t174 -220h176q102 0 144 69q42 68 38 168t-43 150t-141 52h-164z" />
    <glyph glyph-name="h" unicode="h" 
d="M834 750q0 184 -180 184q-90 0 -160 -24t-191 -87v-823h-188v1606h188v-643q82 51 119 73t114 46t154 24q160 0 246 -104t86 -252v-750h-188v750z" />
    <glyph glyph-name="i" unicode="i" horiz-adv-x="419" 
d="M96 1260v129q0 53 49 53h134q47 0 47 -53v-129q0 -47 -47 -48h-134q-49 1 -49 48zM113 0v1087h188v-1087h-188z" />
    <glyph glyph-name="j" unicode="j" horiz-adv-x="458" 
d="M115 1260v129q0 53 49 53h133q47 0 47 -53v-129q0 -47 -47 -48h-133q-49 1 -49 48zM135 -553v1640h189v-1095q4 -362 -60 -545h-129z" />
    <glyph glyph-name="k" unicode="k" horiz-adv-x="1054" 
d="M115 0v1602h188v-895h76l387 380h252l-463 -464l463 -623h-230l-409 537h-76v-537h-188z" />
    <glyph glyph-name="l" unicode="l" horiz-adv-x="620" 
d="M115 387v1217h188v-1205q0 -119 28 -166t83 -63q156 -43 170 -43v-127h-195q-274 0 -274 387z" />
    <glyph glyph-name="m" unicode="m" horiz-adv-x="1824" 
d="M115 0v1087h141l47 -126q14 10 46 28q31 19 55 33t35 19t34 15t37 15q14 4 37 11q23 6 51 12t104 6t156 -41t115 -113q190 154 426 154q151 0 241 -98t91 -261v-741h-189v743q0 85 -46 135t-120 50q-211 0 -364 -107v-821h-189v743q0 85 -47 135t-134 50t-153 -23
t-186 -86v-819h-188z" />
    <glyph glyph-name="n" unicode="n" 
d="M834 750q0 184 -182 184q-88 0 -158 -24t-191 -87v-823h-188v1087h141l47 -124q158 95 233 119t154 24q160 0 246 -104t86 -252v-750h-188v750z" />
    <glyph glyph-name="o" unicode="o" horiz-adv-x="1157" 
d="M96 544q0 314 104 434t380 120t379 -123t103 -437t-102 -432q-104 -116 -378 -116t-380 120t-106 434zM285 534q0 -132 16 -206t59 -110q44 -36 90 -45t132 -9t132 9t88 46t57 111t15 204t-13 210q-13 79 -53 120t-88 51q-48 11 -139 11t-139 -10t-88 -51
q-41 -40 -55 -120t-14 -211z" />
    <glyph glyph-name="p" unicode="p" horiz-adv-x="1134" 
d="M115 -553v1640h143l43 -116q51 39 170 84t213 45q356 0 356 -551q0 -321 -97 -451q-39 -51 -105 -83q-66 -31 -147 -31t-193 22t-199 55v-614h-184zM664 156q96 0 142 82t46 307q0 379 -188 379q-166 0 -363 -88v-631q174 -49 363 -49z" />
    <glyph glyph-name="q" unicode="q" horiz-adv-x="1136" 
d="M1022 -553h-188v612q-178 -80 -355 -79q-226 0 -309 161q-74 144 -74 410t96 407q96 142 288 142t542 -51v-1602zM285 556v-87q0 -107 11 -143q33 -108 59 -126q67 -48 139 -48q164 0 340 49v729h-340q-72 0 -118 -38q-91 -75 -91 -336z" />
    <glyph glyph-name="r" unicode="r" horiz-adv-x="866" 
d="M115 0v1087h143l45 -137q82 53 118 75q36 23 113 49t168 26t125 -17v-184q-45 10 -153 10q-108 -1 -187 -27q-78 -26 -184 -91v-791h-188z" />
    <glyph glyph-name="s" unicode="s" horiz-adv-x="1036" 
d="M76 727v94q0 133 65 205q66 72 197 72t313 -12t254 -27v-135h-522q-85 0 -102 -29t-17 -78v-82q0 -49 18 -73t37 -27q20 -4 64 -4h305q135 0 204 -74t69 -197v-102q0 -268 -267 -268q-106 0 -312 15t-261 30v131h549q102 0 102 98v86q0 53 -21 78q-22 25 -81 25h-305
q-150 0 -220 60q-69 60 -69 214z" />
    <glyph glyph-name="t" unicode="t" horiz-adv-x="776" 
d="M39 920v127l194 43l41 303h148v-303h297v-170h-297v-519q0 -121 28 -168t82 -61q156 -43 170 -43v-127h-198q-270 0 -271 387v531h-194z" />
    <glyph glyph-name="u" unicode="u" 
d="M285 338q0 -182 180 -182q90 0 160 24t190 86v821h189v-1087h-142l-47 123q-156 -94 -191 -104q-35 -11 -76 -24t-120 -13q-162 0 -247 103t-85 255v747h189v-749z" />
    <glyph glyph-name="v" unicode="v" horiz-adv-x="1112" 
d="M39 1087h203l313 -833l317 833h203l-424 -1087h-198z" />
    <glyph glyph-name="w" unicode="w" horiz-adv-x="1652" 
d="M39 1087h203l295 -833l258 833h196l-100 -333l221 -500l301 833h203l-397 -1087h-199l-219 496l-164 -496h-207z" />
    <glyph glyph-name="x" unicode="x" horiz-adv-x="1099" 
d="M45 0l389 545l-389 542h234l268 -393l276 393h232l-393 -548l376 -539h-215l-272 389l-272 -389h-234z" />
    <glyph glyph-name="y" unicode="y" horiz-adv-x="1146" 
d="M587 178l23 2l4 2l287 905h205l-453 -1431l-151 -209h-125l182 553q-195 0 -266 240l-252 847h203l241 -825q19 -58 67 -79q15 -5 35 -5z" />
    <glyph glyph-name="z" unicode="z" horiz-adv-x="942" 
d="M57 911v176h830v-176l-551 -733h551v-176h-799v176l563 733h-594z" />
    <glyph glyph-name="braceleft" unicode="{" horiz-adv-x="655" 
d="M213 870v473q0 166 102 274t303 107v-176q-102 0 -159 -50t-58 -179v-453q0 -78 -49 -124t-131 -58q80 -12 129 -60t49 -116v-565q1 -97 59 -151t160 -50v-172q-217 0 -312 101t-95 251v574q0 58 -52 86t-120 22v158q111 10 143 36t31 72z" />
    <glyph glyph-name="bar" unicode="|" horiz-adv-x="501" 
d="M164 -147v1724h176v-1724h-176z" />
    <glyph glyph-name="braceright" unicode="}" horiz-adv-x="655" 
d="M256 -57v565q0 68 50 116t128 60q-82 12 -131 59t-49 123v453q0 129 -56 179t-159 50v176q199 0 301 -108t102 -273v-473q0 -94 162 -106q10 -2 14 -2v-158q-70 6 -122 -22t-52 -86v-574q0 -142 -85 -240q-95 -112 -320 -112v172q100 -4 159 49q58 53 58 152z" />
    <glyph glyph-name="asciitilde" unicode="~" horiz-adv-x="884" 
d="M346 1321q40 0 105 -36q66 -36 105 -36t75 15q35 15 114 67l46 -96q-6 -6 -28 -29t-33 -34q-81 -81 -173 -85q-47 0 -117 36t-119 36q-49 -1 -103 -31t-77 -41l-45 93q12 10 42 39t45 41t42 29t54 25t67 7z" />
    <glyph glyph-name="exclamdown" unicode="&#xa1;" horiz-adv-x="552" 
d="M162 770v127q0 43 49 47h121q18 -2 34 -17t15 -36v-119q-4 -55 -47 -55h-123q-49 0 -49 53zM168 -553l16 1090h176l19 -1090h-211z" />
    <glyph glyph-name="cent" unicode="&#xa2;" horiz-adv-x="1001" 
d="M184 82q-108 112 -108 461t107 464q54 58 120 78t160 17v196h137v-206q176 -20 311 -52v-127q-465 25 -529 5q-32 -10 -63 -48q-55 -67 -55 -310q0 -244 45 -322t160 -78q194 0 383 16l74 4v-131q-143 -51 -326 -57v-189h-139v183q-93 0 -157 19t-120 77z" />
    <glyph glyph-name="sterling" unicode="&#xa3;" horiz-adv-x="1212" 
d="M96 0v147l144 35v486h-144v106l144 37v211q0 245 87 359q37 50 105 77q102 41 250 41q146 0 362 -24l74 -9v-147h-395q-195 0 -237 -42t-50 -110q-8 -67 -8 -139v-217l528 -33v-110h-528v-486h688v-182h-1020z" />
    <glyph glyph-name="currency" unicode="&#xa4;" horiz-adv-x="931" 
d="M782 636q0 -102 -57 -187l106 -105l-90 -84l-102 102q-82 -59 -181 -59t-179 57l-97 -96l-82 90l95 92q-59 84 -59 190t52 185l-90 92l86 80l86 -86q86 59 192 59t193 -65l99 96l77 -86l-96 -98q47 -75 47 -177zM260 638q0 -83 57 -144q57 -62 141 -62t141 62
q58 62 58 144q0 83 -58 141q-58 59 -140 59q-83 0 -141 -58t-58 -142z" />
    <glyph glyph-name="yen" unicode="&#xa5;" horiz-adv-x="1247" 
d="M1051 668v-136h-353v-94h353v-133h-353v-305h-188v305h-334v133h334v94h-334v136h313l-450 831h205l362 -688l393 688h211l-489 -831h330z" />
    <glyph glyph-name="brokenbar" unicode="&#xa6;" horiz-adv-x="503" 
d="M164 -147v671h176v-671h-176zM164 879v698h176v-698h-176z" />
    <glyph glyph-name="section" unicode="&#xa7;" horiz-adv-x="1124" 
d="M106 713v112q0 84 20 134t81 69q-102 37 -103 180v131q0 139 76 203t178 64t310 -14q207 -14 274 -25v-137h-543q-104 0 -106 -95v-123q0 -90 106 -90h336q164 0 226 -65q61 -66 59 -195v-110q0 -174 -96 -195q94 -14 94 -176v-139q0 -166 -94 -217q-74 -41 -173 -41
q-101 0 -301 14t-270 25v137h531q57 0 87 16t31 68v129q0 55 -23 72q-24 17 -85 18h-338q-139 1 -208 53t-69 197zM293 731q0 -61 24 -79q25 -17 84 -17h316q81 0 96 26q16 26 16 72v113q0 59 -18 82t-94 22h-316q-65 0 -87 -20t-21 -88v-111z" />
    <glyph glyph-name="dieresis" unicode="&#xa8;" horiz-adv-x="927" 
d="M96 1192q0 45 32 76q32 30 77 30t76 -30t31 -76q0 -45 -32 -77q-30 -32 -75 -32t-77 32t-32 77zM618 1192q0 45 32 76q32 30 77 30t76 -30t31 -76q0 -45 -31 -77t-76 -32t-77 32t-32 77z" />
    <glyph glyph-name="copyright" unicode="&#xa9;" horiz-adv-x="1654" 
d="M104 754q0 745 482 745h530q235 0 340 -206q94 -185 94 -530t-108 -554t-326 -209h-530q-135 0 -235 74q-99 74 -149 192q-98 232 -98 488zM1323 299q80 154 80 466t-70 452q-29 57 -84 98t-133 41h-530q-144 0 -239 -123t-95 -472q0 -348 145 -524q78 -93 189 -94h528
q129 2 209 156zM469 748q0 446 295 446q137 0 366 -49v-119q-172 25 -354 25q-162 0 -162 -310q0 -143 36 -220t128 -77q135 0 365 33v-119q-186 -57 -377 -57q-137 -1 -217 97t-80 350z" />
    <glyph glyph-name="ordfeminine" unicode="&#xaa;" horiz-adv-x="745" 
d="M57 545v127h633v-127h-633zM57 950v88q-1 84 55 136t156 51q264 -2 264 0q2 55 0 57q0 55 -29 77q-30 22 -89 21t-173 -7q-114 -7 -159 -9v100q25 4 79 16t122 22q68 11 166 12q97 1 167 -52t70 -166v-522h-104l-47 98q-4 -6 -43 -30t-106 -50q-66 -26 -138 -26t-132 51
t-59 133zM207 979q0 -76 93 -76t198 47l34 15v161l-243 -18q-82 -8 -82 -80v-49z" />
    <glyph glyph-name="guillemotleft" unicode="&#xab;" horiz-adv-x="1140" 
d="M96 725l422 416l119 -119l-303 -297l313 -305l-119 -121zM496 725l422 416l120 -119l-305 -297l314 -305l-119 -121z" />
    <glyph glyph-name="logicalnot" unicode="&#xac;" horiz-adv-x="1060" 
d="M94 516v172h873v-362h-172v190h-701z" />
    <glyph glyph-name="uni00AD" unicode="&#xad;" horiz-adv-x="724" 
d="M41 506v176h643v-176h-643z" />
    <glyph glyph-name="registered" unicode="&#xae;" horiz-adv-x="1654" 
d="M104 754q0 745 482 745h530q235 0 340 -206q94 -185 94 -530t-108 -554t-326 -209h-530q-135 0 -235 74q-99 74 -149 192q-98 232 -98 488zM1323 299q80 154 80 466t-70 452q-29 57 -84 98t-133 41h-530q-144 0 -239 -123t-95 -472q0 -348 145 -524q78 -93 189 -94h528
q129 2 209 156zM526 313v875h367q274 0 274 -266q0 -161 -68 -213q-34 -27 -57 -36t-61 -18l184 -342h-164l-182 342l-145 25v-367h-148zM674 782h219q79 0 103 27t24 91t-10 92q-20 52 -117 52h-219v-262z" />
    <glyph glyph-name="macron" unicode="&#xaf;" horiz-adv-x="788" 
d="M96 1087v138h598v-138h-598z" />
    <glyph glyph-name="degree" unicode="&#xb0;" horiz-adv-x="606" 
d="M96 1294q0 88 62 150t147 61q87 0 147 -61q60 -62 60 -150t-60 -148t-146 -60t-148 60t-62 148zM199 1294q1 -44 31 -74t74 -30t75 31t31 73t-31 75q-31 32 -75 32t-74 -32t-31 -75z" />
    <glyph glyph-name="plusminus" unicode="&#xb1;" horiz-adv-x="1062" 
d="M106 168v176h852v-176h-852zM106 791v176h336v336h176v-336h340v-176h-340v-340h-176v340h-336z" />
    <glyph glyph-name="twosuperior" unicode="&#xb2;" horiz-adv-x="798" 
d="M61 1659v115q233 33 383 32q274 0 275 -282q0 -242 -389 -559h389v-150h-651v141q25 20 149 115t177 151q120 127 144 187q23 59 23 121t-34 95q-34 34 -121 34h-345z" />
    <glyph glyph-name="threesuperior" unicode="&#xb3;" horiz-adv-x="831" 
d="M57 1759q111 37 223 37h187q125 0 188 -69t64 -173v-69q0 -70 -29 -117t-76 -65q104 -55 105 -195v-55q-1 -119 -61 -183t-201 -63h-124q-53 0 -65 2t-41 3t-43 4t-38 7q-24 5 -42 11t-38 12l2 108l352 2q82 0 114 25t31 88v41q0 123 -137 127l-281 10v119l281 14
q139 6 139 119v39q0 113 -139 113h-371v108z" />
    <glyph glyph-name="acute" unicode="&#xb4;" horiz-adv-x="495" 
d="M39 1087l209 277h211l-266 -277h-154z" />
    <glyph glyph-name="uni00B5" unicode="&#xb5;" horiz-adv-x="1212" 
d="M360 338q0 -182 182 -182q90 0 161 24t188 86v821h188v-1087h-139l-49 123q-81 -49 -96 -56l-46 -23q-31 -16 -93 -38q-161 -54 -296 21v-580h-188v1640h188v-749z" />
    <glyph glyph-name="paragraph" unicode="&#xb6;" horiz-adv-x="1185" 
d="M76 1022v190q0 137 94 212t225 75h754v-172h-131v-1327h-168v1331h-176v-1884h-168v1315q-2 0 -31 -18t-80 -17q-155 0 -237 84t-82 211zM244 1032q0 -139 155 -139h107v438h-107q-87 0 -121 -39t-34 -94v-166z" />
    <glyph glyph-name="periodcentered" unicode="&#xb7;" horiz-adv-x="550" 
d="M162 717v135q0 51 49 51h127q51 0 51 -51v-135q0 -47 -51 -47h-127q-49 0 -49 47z" />
    <glyph glyph-name="cedilla" unicode="&#xb8;" horiz-adv-x="509" 
d="M416 -76q0 -160 -44 -220t-169 -60h-107v88l103 30q66 29 65 162h152z" />
    <glyph glyph-name="onesuperior" unicode="&#xb9;" horiz-adv-x="552" 
d="M430 1794v-979h-151v821l-248 -65v110l248 113h151z" />
    <glyph glyph-name="ordmasculine" unicode="&#xba;" horiz-adv-x="800" 
d="M401 764q-195 0 -269 82t-75 290q0 209 74 291q75 82 271 82t269 -82t73 -292q0 -211 -74 -291t-269 -80zM82 551v125h637v-125h-637zM211 1131q0 -83 11 -129q18 -75 99 -92q29 -5 83 -5t81 4q27 5 56 25t39 66t11 129t-8 133t-38 74q-29 22 -58 27t-87 5t-86 -4
t-56 -27t-38 -73q-9 -50 -9 -133z" />
    <glyph glyph-name="guillemotright" unicode="&#xbb;" horiz-adv-x="1140" 
d="M96 420l312 305l-304 297l121 119l422 -416l-432 -426zM496 420l311 305l-303 297l121 119l422 -416l-433 -426z" />
    <glyph glyph-name="onequarter" unicode="&#xbc;" horiz-adv-x="1863" 
d="M430 1503v-979h-151v822l-248 -66v109l248 114h151zM426 0l750 1511h151l-747 -1511h-154zM1556 385v238l56 100h98v-338h115v-123l-115 -31v-233h-154v233h-489l-47 62l407 682h170l-348 -590h307z" />
    <glyph glyph-name="onehalf" unicode="&#xbd;" horiz-adv-x="2002" 
d="M430 1503v-979h-151v822l-248 -66v109l248 114h151zM414 0l749 1511h154l-750 -1511h-153zM1266 842q-2 0 -2 12v65q0 17 2 27v12q266 33 385 33q274 0 274 -284q0 -229 -373 -545q-12 -10 -16 -15h389v-147h-653v139q309 231 403 350t93 203t-34 117q-34 33 -122 33
h-346z" />
    <glyph glyph-name="threequarters" unicode="&#xbe;" horiz-adv-x="2101" 
d="M567 817q0 125 -137 129l-283 10v117l283 14q139 6 139 119v41q0 111 -139 111h-373v108l39 13q20 6 44 10t40 7t47 4t43 3t68 2h131q123 -3 187 -71t65 -170v-70q0 -70 -29 -118t-76 -64q104 -59 105 -197v-53q-1 -119 -61 -182t-201 -64h-177q-105 0 -216 37l2 109
l354 2q82 0 114 24t31 88v41zM631 0l747 1511h154l-748 -1511h-153zM1741 381v244l49 100h98v-344h115v-119l-115 -29v-233h-147v233h-498l-45 62l406 680h161l-346 -594h322z" />
    <glyph glyph-name="questiondown" unicode="&#xbf;" horiz-adv-x="1112" 
d="M561 565h178l2 -350q-184 4 -267 1t-132 -58t-55 -138q-2 -143 -2 -178q0 -88 60 -149t183 -60l545 2q-2 0 -2 -14v-125q-61 -12 -95 -15t-75 -9t-55 -8t-51 -5q-37 -4 -57 -5t-54 -3q-36 -2 -62 -2h-60q-34 0 -68 2q-245 0 -338 130q-80 112 -80 261v193q-2 182 133 270
t352 60v200zM541 788v125q0 21 14 35t35 17h119q49 -4 49 -47v-130q-4 -49 -43 -51h-133q-41 10 -41 51z" />
    <glyph glyph-name="Agrave" unicode="&#xc0;" horiz-adv-x="1384" 
d="M86 0l539 1499h198l516 -1499h-215l-123 395h-567l-129 -395h-219zM494 573h450l-221 656zM381 1909h211l209 -277h-154z" />
    <glyph glyph-name="Aacute" unicode="&#xc1;" horiz-adv-x="1384" 
d="M86 0l539 1499h198l516 -1499h-215l-123 395h-567l-129 -395h-219zM494 573h450l-221 656zM647 1632l211 277h209l-266 -277h-154z" />
    <glyph glyph-name="Acircumflex" unicode="&#xc2;" horiz-adv-x="1384" 
d="M86 0l539 1499h198l516 -1499h-215l-123 395h-567l-129 -395h-219zM494 573h450l-221 656zM420 1632l235 269h164l209 -269h-158l-139 140l-151 -140h-160z" />
    <glyph glyph-name="Atilde" unicode="&#xc3;" horiz-adv-x="1384" 
d="M86 0l539 1499h198l516 -1499h-215l-123 395h-567l-129 -395h-219zM494 573h450l-221 656zM714 1670q-65 34 -114 34t-103 -30q-53 -30 -75 -42l-45 92q51 45 80 68q83 66 151 65t136 -36t94 -35q55 -2 188 76l45 -97q-32 -32 -82 -68q-51 -35 -82 -49t-79 -13
q-49 1 -114 35z" />
    <glyph glyph-name="Adieresis" unicode="&#xc4;" horiz-adv-x="1384" 
d="M86 0l539 1499h198l516 -1499h-215l-123 395h-567l-129 -395h-219zM494 573h450l-221 656zM354 1741q0 45 32 76t78 31t77 -32q31 -30 31 -75t-32 -77q-30 -32 -75 -32t-78 32t-33 77zM877 1741q0 45 31 76q32 31 78 31t77 -32q31 -30 31 -75t-31 -77t-76 -32t-78 32
q-32 32 -32 77z" />
    <glyph glyph-name="Aring" unicode="&#xc5;" horiz-adv-x="1384" 
d="M494 573h450l-221 656zM516 1710q0 82 62 143t147 61q86 0 146 -60q61 -62 61 -144t-47 -139t-121 -72h59l516 -1499h-215l-123 395h-567l-129 -395h-219l539 1499h61q-74 13 -122 71t-48 140zM618 1705q0 -44 32 -75t75 -31t74 31t31 75t-31 75q-31 30 -74 30t-75 -30
t-32 -75z" />
    <glyph glyph-name="AE" unicode="&#xc6;" horiz-adv-x="1904" 
d="M1819 1313h-633q-75 0 -88 -35q-12 -26 -15 -74v-375l650 -20v-152l-650 -20v-356q1 -41 9 -54q8 -12 11 -20t14 -12q11 -3 15 -7q7 -6 33 -6h45l607 -2v-155l-625 -35q-297 -18 -297 258v198h-412l-219 -446h-207l602 1221q86 172 188 227t211 51q52 -2 109 0
q614 -29 652 -33v-153zM895 627v655l-324 -655h324z" />
    <glyph glyph-name="Ccedilla" unicode="&#xc7;" horiz-adv-x="1179" 
d="M627 1333q-129 0 -197 -45t-102 -171q-34 -127 -35 -385q0 -258 75 -410t259 -152l487 14v-147q-225 -49 -506 -49q-504 0 -504 766q0 389 108 575q108 187 379 187t523 -56v-149h-16q-198 22 -471 22zM709 -74q0 -160 -45 -221t-168 -61h-107v90l103 30q66 29 65 162
h152z" />
    <glyph glyph-name="Egrave" unicode="&#xc8;" horiz-adv-x="1161" 
d="M152 264v957q0 153 78 219t198 59q614 -29 651 -33v-151h-633q-48 1 -74 -19t-29 -40t-3 -56v-360l653 -21v-153l-653 -21v-360q0 -51 22 -76t44 -28q20 -3 61 -3h612v-149l-630 -35q-297 -19 -297 270zM354 1898h209l211 -274h-153z" />
    <glyph glyph-name="Eacute" unicode="&#xc9;" horiz-adv-x="1161" 
d="M152 264v957q0 153 78 219t198 59q614 -29 651 -33v-151h-633q-48 1 -74 -19t-29 -40t-3 -56v-360l653 -21v-153l-653 -21v-360q0 -51 22 -76t44 -28q20 -3 61 -3h612v-149l-630 -35q-297 -19 -297 270zM582 1624l209 274h210l-266 -274h-153z" />
    <glyph glyph-name="Ecircumflex" unicode="&#xca;" horiz-adv-x="1161" 
d="M152 264v957q0 153 78 219t198 59q614 -29 651 -33v-151h-633q-48 1 -74 -19t-29 -40t-3 -56v-360l653 -21v-153l-653 -21v-360q0 -51 22 -76t44 -28q20 -3 61 -3h612v-149l-630 -35q-297 -19 -297 270zM344 1632l236 269h163l209 -269h-157l-140 140l-151 -140h-160z
" />
    <glyph glyph-name="Edieresis" unicode="&#xcb;" horiz-adv-x="1161" 
d="M152 264v957q0 153 78 219t198 59q614 -29 651 -33v-151h-633q-48 1 -74 -19t-29 -40t-3 -56v-360l653 -21v-153l-653 -21v-360q0 -51 22 -76t44 -28q20 -3 61 -3h612v-149l-630 -35q-297 -19 -297 270zM279 1733q-1 45 31 75t77 31q45 0 76 -31q31 -32 31 -76t-31 -76
t-76 -32t-77 32q-31 32 -31 77zM801 1733q0 45 32 75q33 30 77 31q44 0 75 -31q31 -32 31 -76t-31 -76t-76 -32t-77 32t-31 77z" />
    <glyph glyph-name="Igrave" unicode="&#xcc;" horiz-adv-x="454" 
d="M154 0v1499h188v-1499h-188zM-96 1909h211l209 -277h-154z" />
    <glyph glyph-name="Iacute" unicode="&#xcd;" horiz-adv-x="454" 
d="M154 0v1499h188v-1499h-188zM170 1632l211 277h209l-266 -277h-154z" />
    <glyph glyph-name="Icircumflex" unicode="&#xce;" horiz-adv-x="454" 
d="M154 0v1499h188v-1499h-188zM-57 1632l235 269h164l209 -269h-158l-139 140l-152 -140h-159z" />
    <glyph glyph-name="Idieresis" unicode="&#xcf;" horiz-adv-x="454" 
d="M154 0v1499h188v-1499h-188zM-123 1741q0 45 33 76t78 31q46 0 76 -32q30 -30 30 -75t-31 -77t-75 -32t-78 32q-33 32 -33 77zM401 1741q0 45 32 76t77 31t76 -32q30 -30 30 -75t-30 -77t-76 -32q-45 0 -77 32t-32 77z" />
    <glyph glyph-name="Eth" unicode="&#xd0;" horiz-adv-x="1347" 
d="M20 705v118h134v674q0 2 579 2q528 0 529 -756q0 -295 -118 -507q-60 -108 -166 -172t-245 -64h-579v705h-134zM342 184h385q176 0 258 155t82 406q0 565 -340 566l-385 -2v-486h268v-118h-268v-521z" />
    <glyph glyph-name="Ntilde" unicode="&#xd1;" horiz-adv-x="1390" 
d="M154 0v1499h192l744 -1149v1149h188v-1499h-188l-746 1147v-1147h-190zM705 1670q-63 34 -112 34t-104 -30l-77 -42l-45 92q49 43 79 67q85 67 152 66t136 -36t95 -35q57 -2 187 76l47 -97q-36 -36 -105 -84q-68 -47 -129 -46t-124 35z" />
    <glyph glyph-name="Ograve" unicode="&#xd2;" horiz-adv-x="1380" 
d="M125 741q0 355 77 511q40 84 87 136q83 92 260 113q69 8 177 8t186 -12t157 -56q80 -44 125 -126q104 -189 103 -568t-99 -558q-45 -81 -123 -125t-159 -58t-193 -14t-182 8q-184 21 -262 111q-109 125 -137 337q-16 124 -17 293zM313 774q0 -316 49 -439
q49 -122 191 -149q61 -12 189 -12t208 41q158 81 158 485t-74 511q-29 42 -54 66q-45 42 -162 48q-38 2 -101 2t-135 -4t-111 -31q-78 -50 -97 -104q-19 -53 -40 -141t-21 -273zM369 1909h211l208 -277h-153z" />
    <glyph glyph-name="Oacute" unicode="&#xd3;" horiz-adv-x="1380" 
d="M125 741q0 355 77 511q40 84 87 136q83 92 260 113q69 8 177 8t186 -12t157 -56q80 -44 125 -126q104 -189 103 -568t-99 -558q-45 -81 -123 -125t-159 -58t-193 -14t-182 8q-184 21 -262 111q-109 125 -137 337q-16 124 -17 293zM313 774q0 -316 49 -439
q49 -122 191 -149q61 -12 189 -12t208 41q158 81 158 485t-74 511q-29 42 -54 66q-45 42 -162 48q-38 2 -101 2t-135 -4t-111 -31q-78 -50 -97 -104q-19 -53 -40 -141t-21 -273zM635 1632l211 277h209l-267 -277h-153z" />
    <glyph glyph-name="Ocircumflex" unicode="&#xd4;" horiz-adv-x="1380" 
d="M125 741q0 355 77 511q40 84 87 136q83 92 260 113q69 8 177 8t186 -12t157 -56q80 -44 125 -126q104 -189 103 -568t-99 -558q-45 -81 -123 -125t-159 -58t-193 -14t-182 8q-184 21 -262 111q-109 125 -137 337q-16 124 -17 293zM313 774q0 -316 49 -439
q49 -122 191 -149q61 -12 189 -12t208 41q158 81 158 485t-74 511q-29 42 -54 66q-45 42 -162 48q-38 2 -101 2t-135 -4t-111 -31q-78 -50 -97 -104q-19 -53 -40 -141t-21 -273zM408 1632l235 269h164l209 -269h-158l-139 140l-152 -140h-159z" />
    <glyph glyph-name="Otilde" unicode="&#xd5;" horiz-adv-x="1380" 
d="M125 741q0 355 77 511q40 84 87 136q83 92 260 113q69 8 177 8t186 -12t157 -56q80 -44 125 -126q104 -189 103 -568t-99 -558q-45 -81 -123 -125t-159 -58t-193 -14t-182 8q-184 21 -262 111q-109 125 -137 337q-16 124 -17 293zM313 774q0 -316 49 -439
q49 -122 191 -149q61 -12 189 -12t208 41q158 81 158 485t-74 511q-29 42 -54 66q-45 42 -162 48q-38 2 -101 2t-135 -4t-111 -31q-78 -50 -97 -104q-19 -53 -40 -141t-21 -273zM701 1670q-65 34 -114 34t-102 -30t-75 -42l-45 92q51 45 79 68q28 22 75 44q46 22 95 21
t118 -36t95 -35q53 -2 187 76l45 -97q-36 -36 -105 -84q-68 -47 -128 -46t-125 35z" />
    <glyph glyph-name="Odieresis" unicode="&#xd6;" horiz-adv-x="1380" 
d="M125 741q0 355 77 511q40 84 87 136q83 92 260 113q69 8 177 8t186 -12t157 -56q80 -44 125 -126q104 -189 103 -568t-99 -558q-45 -81 -123 -125t-159 -58t-193 -14t-182 8q-184 21 -262 111q-109 125 -137 337q-16 124 -17 293zM313 774q0 -316 49 -439
q49 -122 191 -149q61 -12 189 -12t208 41q158 81 158 485t-74 511q-29 42 -54 66q-45 42 -162 48q-38 2 -101 2t-135 -4t-111 -31q-78 -50 -97 -104q-19 -53 -40 -141t-21 -273zM342 1741q0 45 32 76t78 31t76 -32q30 -30 31 -75q0 -45 -31 -77q-32 -32 -76 -32t-77 32
t-33 77zM864 1741q0 45 32 76t78 31t77 -32q31 -30 31 -75t-32 -77q-30 -32 -75 -32t-78 32t-33 77z" />
    <glyph glyph-name="multiply" unicode="&#xd7;" horiz-adv-x="940" 
d="M106 489l240 238l-240 240l125 125l240 -240l240 240l125 -123l-242 -242l240 -238l-125 -124l-238 237l-238 -235z" />
    <glyph glyph-name="Oslash" unicode="&#xd8;" horiz-adv-x="1384" 
d="M713 1509q258 0 370 -75l43 65h134l-95 -143q133 -172 133 -617q0 -330 -71 -487q-37 -82 -83 -134q-84 -95 -259 -117q-72 -9 -172 -9q-270 0 -385 80l-47 -72h-134l99 152q-119 165 -119 552t76 547q39 85 85 137q81 92 259 113q68 8 166 8zM315 739q0 -289 56 -401
l608 940q-66 49 -247 49t-246 -27q-64 -27 -91 -78q-47 -88 -57 -161q-23 -167 -23 -322zM1110 778q0 280 -61 404l-613 -946q78 -62 258 -62t258 41q80 41 119 162t39 401z" />
    <glyph glyph-name="Ugrave" unicode="&#xd9;" horiz-adv-x="1378" 
d="M154 655v844h188v-844q0 -187 20 -257t35 -105q14 -35 44 -57t53 -36q50 -28 189 -28q140 0 199 18q60 18 89 51q72 79 92 219q12 83 12 195v844h191v-844q0 -190 -37 -322t-83 -198q-46 -67 -133 -101t-143 -39t-108 -5h-66q-92 0 -138 3t-122 20t-116 59t-83 114
q-83 132 -83 469zM367 1909h208l211 -277h-153z" />
    <glyph glyph-name="Uacute" unicode="&#xda;" horiz-adv-x="1378" 
d="M154 655v844h188v-844q0 -187 20 -257t35 -105q14 -35 44 -57t53 -36q50 -28 189 -28q140 0 199 18q60 18 89 51q72 79 92 219q12 83 12 195v844h191v-844q0 -190 -37 -322t-83 -198q-46 -67 -133 -101t-143 -39t-108 -5h-66q-92 0 -138 3t-122 20t-116 59t-83 114
q-83 132 -83 469zM633 1632l209 277h211l-267 -277h-153z" />
    <glyph glyph-name="Ucircumflex" unicode="&#xdb;" horiz-adv-x="1378" 
d="M154 655v844h188v-844q0 -187 20 -257t35 -105q14 -35 44 -57t53 -36q50 -28 189 -28q140 0 199 18q60 18 89 51q72 79 92 219q12 83 12 195v844h191v-844q0 -190 -37 -322t-83 -198q-46 -67 -133 -101t-143 -39t-108 -5h-66q-92 0 -138 3t-122 20t-116 59t-83 114
q-83 132 -83 469zM406 1632l233 269h164l209 -269h-156l-139 140l-152 -140h-159z" />
    <glyph glyph-name="Udieresis" unicode="&#xdc;" horiz-adv-x="1378" 
d="M154 655v844h188v-844q0 -187 20 -257t35 -105q14 -35 44 -57t53 -36q50 -28 189 -28q140 0 199 18q60 18 89 51q72 79 92 219q12 83 12 195v844h191v-844q0 -190 -37 -322t-83 -198q-46 -67 -133 -101t-143 -39t-108 -5h-66q-92 0 -138 3t-122 20t-116 59t-83 114
q-83 132 -83 469zM340 1741q0 45 32 76t77 31t77 -32q32 -30 31 -75q0 -45 -32 -77q-33 -32 -77 -32t-76 32t-32 77zM862 1741q0 45 32 76t77 31t76 -32q31 -30 31 -75t-32 -77q-30 -32 -75 -32t-77 32t-32 77z" />
    <glyph glyph-name="Yacute" unicode="&#xdd;" horiz-adv-x="1304" 
d="M745 0h-188v514l-471 985h205l362 -768l400 768h204l-512 -985v-514zM594 1632l211 277h211l-266 -277h-156z" />
    <glyph glyph-name="Thorn" unicode="&#xde;" horiz-adv-x="1134" 
d="M303 0h-188v1493h188v-289h377q360 -4 360 -436q0 -326 -169 -420q-77 -43 -153 -43h-151q-75 0 -264 39v-344zM303 483h352q95 1 145 59t48 229t-71 218q-52 35 -122 35h-352v-541z" />
    <glyph glyph-name="germandbls" unicode="&#xdf;" horiz-adv-x="1167" 
d="M942 371q0 70 -140 104q-58 14 -116 36t-100 72q-41 50 -41 138t44 149t185 168q98 74 98 195q0 180 -288 180q-127 1 -204 -67t-77 -216v-1130h-188v1159q0 186 125 310t342 124q143 0 246 -37q102 -37 152 -97q105 -127 73 -286t-146 -247q-20 -18 -65 -56t-78 -75
q-33 -38 -33 -78q0 -39 41 -61t100 -38q60 -16 118 -40t100 -77q42 -54 40 -136v-89q0 -223 -218 -278q-54 -14 -113 -14t-170 12t-168 27v145l327 -12q59 0 106 35q46 36 48 96v84z" />
    <glyph glyph-name="agrave" unicode="&#xe0;" horiz-adv-x="1062" 
d="M76 264v119q0 125 75 202t209 77q418 -2 418 0q2 117 0 118q0 88 -41 123t-121 35q-195 0 -505 -23v129q203 59 522 64q149 2 241 -78t93 -248v-782h-144l-45 127q-8 -8 -69 -39q-61 -32 -165 -66t-186 -34q-126 2 -204 78t-78 198zM264 283q0 -123 117 -123q68 0 167 24
t165 49l65 27v266l-401 -28q-113 -10 -113 -127v-88zM203 1507h211l209 -276h-154z" />
    <glyph glyph-name="aacute" unicode="&#xe1;" horiz-adv-x="1062" 
d="M76 264v119q0 125 75 202t209 77q418 -2 418 0q2 117 0 118q0 88 -41 123t-121 35q-195 0 -505 -23v129q203 59 522 64q149 2 241 -78t93 -248v-782h-144l-45 127q-8 -8 -69 -39q-61 -32 -165 -66t-186 -34q-126 2 -204 78t-78 198zM264 283q0 -123 117 -123q68 0 167 24
t165 49l65 27v266l-401 -28q-113 -10 -113 -127v-88zM461 1231l209 276h211l-267 -276h-153z" />
    <glyph glyph-name="acircumflex" unicode="&#xe2;" horiz-adv-x="1062" 
d="M76 264v119q0 125 75 202t209 77q418 -2 418 0q2 117 0 118q0 88 -41 123t-121 35q-195 0 -505 -23v129q203 59 522 64q149 2 241 -78t93 -248v-782h-144l-45 127q-8 -8 -69 -39q-61 -32 -165 -66t-186 -34q-126 2 -204 78t-78 198zM264 283q0 -123 117 -123q68 0 167 24
t165 49l65 27v266l-401 -28q-113 -10 -113 -127v-88zM238 1231l233 268h164l209 -268h-158l-139 139l-150 -139h-159z" />
    <glyph glyph-name="atilde" unicode="&#xe3;" horiz-adv-x="1062" 
d="M76 264v119q0 125 75 202t209 77q418 -2 418 0q2 117 0 118q0 88 -41 123t-121 35q-195 0 -505 -23v129q203 59 522 64q149 2 241 -78t93 -248v-782h-144l-45 127q-8 -8 -69 -39q-61 -32 -165 -66t-186 -34q-126 2 -204 78t-78 198zM264 283q0 -123 117 -123q68 0 167 24
t165 49l65 27v266l-401 -28q-113 -10 -113 -127v-88zM521 1269q-65 34 -113 34q-48 -1 -102 -31t-77 -41l-45 92q51 45 80 68t75 45t95 20t118 -37t93 -35q55 -2 189 76l45 -96q-36 -36 -85 -70t-78 -48t-79 -12q-51 1 -116 35z" />
    <glyph glyph-name="adieresis" unicode="&#xe4;" horiz-adv-x="1062" 
d="M76 264v119q0 125 75 202t209 77q418 -2 418 0q2 117 0 118q0 88 -41 123t-121 35q-195 0 -505 -23v129q203 59 522 64q149 2 241 -78t93 -248v-782h-144l-45 127q-8 -8 -69 -39q-61 -32 -165 -66t-186 -34q-126 2 -204 78t-78 198zM264 283q0 -123 117 -123q68 0 167 24
t165 49l65 27v266l-401 -28q-113 -10 -113 -127v-88zM168 1339q0 45 32 77t76 32t77 -32q32 -32 32 -77t-32 -77t-77 -31q-44 -1 -76 31t-32 77zM690 1339q0 45 32 77t77 32t77 -32t32 -77t-32 -77t-77 -31q-45 -1 -77 31t-32 77z" />
    <glyph glyph-name="aring" unicode="&#xe5;" horiz-adv-x="1062" 
d="M76 264v119q0 125 75 202t209 77q418 -2 418 0q2 117 0 118q0 88 -41 123t-121 35q-195 0 -505 -23v129q203 59 522 64q149 2 241 -78t93 -248v-782h-144l-45 127q-8 -8 -69 -39q-61 -32 -165 -66t-186 -34q-126 2 -204 78t-78 198zM264 283q0 -123 117 -123q68 0 167 24
t165 49l65 27v266l-401 -28q-113 -10 -113 -127v-88zM332 1388q0 87 61 148t147 61t147 -61t61 -148q0 -88 -60 -148t-147 -60q-86 0 -148 60q-61 61 -61 148zM434 1389q0 -43 32 -74t75 -31t73 30t31 74q0 44 -31 74q-32 30 -74 31q-42 -1 -74 -31t-32 -73z" />
    <glyph glyph-name="ae" unicode="&#xe6;" horiz-adv-x="1767" 
d="M76 274v78q0 127 74 204t210 77q418 -2 418 0q2 156 0 158q0 87 -41 123t-121 36q-158 0 -505 -24v129q174 59 522 63q182 4 266 -110q55 59 140 78q85 20 202 20t173 -6q148 -16 212 -97t66 -282q0 -252 -287 -252h-428q0 -177 46 -237t167 -60q328 0 481 23v-138
q-188 -57 -524 -57q-119 0 -185 35t-126 108q-6 -8 -84 -42q-78 -35 -196 -69t-198 -34q-126 2 -204 78t-78 198zM264 291q0 -119 123 -119t326 74l65 24v238l-401 -29q-59 -6 -86 -42t-27 -85v-61zM977 631h407q119 0 119 94q0 143 -40 177t-204 34t-194 -25
q-16 -12 -38 -32q-50 -45 -50 -248z" />
    <glyph glyph-name="ccedilla" unicode="&#xe7;" horiz-adv-x="1019" 
d="M96 545q0 169 26 283t77 171t110 80t146 23q219 0 475 -62v-127q-467 25 -529 5q-31 -10 -61 -48q-54 -67 -55 -310q0 -244 44 -322t143 -78q205 0 400 16l72 4v-131q-170 -59 -489 -63q-83 0 -143 22t-111 80q-51 57 -78 172t-27 285zM516 -76h154q0 -160 -45 -221
t-168 -61h-109v90l105 30q39 16 51 56t12 106z" />
    <glyph glyph-name="egrave" unicode="&#xe8;" horiz-adv-x="1075" 
d="M96 549q0 180 25 289t88 166t143 74q80 18 196 18t174 -5q56 -5 116 -27t91 -63q70 -90 70 -292q0 -258 -286 -258h-428q0 -177 45 -233t168 -56q340 0 481 22v-137q-190 -57 -524 -57q-205 0 -282 122t-77 437zM285 616h407q119 0 119 95q0 143 -41 179q-40 36 -164 36
t-166 -5t-86 -35q-43 -30 -56 -94t-13 -176zM229 1495h211l209 -274h-153z" />
    <glyph glyph-name="eacute" unicode="&#xe9;" horiz-adv-x="1075" 
d="M96 549q0 180 25 289t88 166t143 74q80 18 196 18t174 -5q56 -5 116 -27t91 -63q70 -90 70 -292q0 -258 -286 -258h-428q0 -177 45 -233t168 -56q340 0 481 22v-137q-190 -57 -524 -57q-205 0 -282 122t-77 437zM285 616h407q119 0 119 95q0 143 -41 179q-40 36 -164 36
t-166 -5t-86 -35q-43 -30 -56 -94t-13 -176zM479 1221l209 274h211l-266 -274h-154z" />
    <glyph glyph-name="ecircumflex" unicode="&#xea;" horiz-adv-x="1075" 
d="M96 549q0 180 25 289t88 166t143 74q80 18 196 18t174 -5q56 -5 116 -27t91 -63q70 -90 70 -292q0 -258 -286 -258h-428q0 -177 45 -233t168 -56q340 0 481 22v-137q-190 -57 -524 -57q-205 0 -282 122t-77 437zM285 616h407q119 0 119 95q0 143 -41 179q-40 36 -164 36
t-166 -5t-86 -35q-43 -30 -56 -94t-13 -176zM254 1221l233 270h164l209 -270h-158l-139 139l-149 -139h-160z" />
    <glyph glyph-name="edieresis" unicode="&#xeb;" horiz-adv-x="1075" 
d="M96 549q0 180 25 289t88 166t143 74q80 18 196 18t174 -5q56 -5 116 -27t91 -63q70 -90 70 -292q0 -258 -286 -258h-428q0 -177 45 -233t168 -56q340 0 481 22v-137q-190 -57 -524 -57q-205 0 -282 122t-77 437zM285 616h407q119 0 119 95q0 143 -41 179q-40 36 -164 36
t-166 -5t-86 -35q-43 -30 -56 -94t-13 -176zM182 1329q0 45 32 77t77 32t77 -32t32 -77t-32 -77t-77 -32t-77 32t-32 77zM705 1329q0 45 31 77q32 32 77 32t77 -32t32 -77t-32 -77t-77 -32t-77 32q-31 32 -31 77z" />
    <glyph glyph-name="igrave" unicode="&#xec;" horiz-adv-x="417" 
d="M115 0v1087h188v-1087h-188zM-133 1495h209l211 -274h-154z" />
    <glyph glyph-name="iacute" unicode="&#xed;" horiz-adv-x="417" 
d="M115 0v1087h188v-1087h-188zM133 1221l209 274h211l-266 -274h-154z" />
    <glyph glyph-name="icircumflex" unicode="&#xee;" horiz-adv-x="417" 
d="M115 0v1087h188v-1087h-188zM-94 1221l233 270h164l209 -270h-158l-137 139l-151 -139h-160z" />
    <glyph glyph-name="idieresis" unicode="&#xef;" horiz-adv-x="417" 
d="M115 0v1087h188v-1087h-188zM-160 1329q0 45 32 77t77 32t76 -32t31 -77t-32 -77q-30 -32 -75 -32t-77 32t-32 77zM362 1329q0 45 32 77t77 32t76 -32t31 -77t-31 -77t-76 -32t-77 32t-32 77z" />
    <glyph glyph-name="eth" unicode="&#xf0;" horiz-adv-x="1101" 
d="M446 0q-206 0 -288 129t-82 407t85 414q85 137 285 137h181q115 0 145 -26q-47 156 -141 250l-281 -117l-51 121l203 86q-100 49 -264 41v162q291 0 454 -121l228 94l53 -123l-172 -70q225 -274 225 -843q0 -541 -373 -541h-207zM459 186h182q115 0 156 85t41 287
t-39 275t-158 72h-182q-103 1 -149 -73t-46 -319t77 -297q44 -30 118 -30z" />
    <glyph glyph-name="ntilde" unicode="&#xf1;" 
d="M834 750q0 184 -182 184q-88 0 -158 -24t-191 -87v-823h-188v1087h141l47 -124q158 95 233 119t154 24q160 0 246 -104t86 -252v-750h-188v750zM221 1321q51 45 80 68q84 67 152 65q67 -2 136 -37t93 -35q55 -2 188 76l45 -96q-39 -39 -86 -71q-47 -33 -76 -47t-79 -12
q-51 1 -116 35t-112 33t-103 -30q-56 -30 -77 -41z" />
    <glyph glyph-name="ograve" unicode="&#xf2;" horiz-adv-x="1157" 
d="M96 544q0 314 104 434t380 120t379 -123t103 -437t-102 -432q-104 -116 -378 -116t-380 120t-106 434zM285 534q0 -132 16 -206t59 -110q44 -36 90 -45t132 -9t132 9t88 46t57 111t15 204t-13 210q-13 79 -53 120t-88 51q-48 11 -139 11t-139 -10t-88 -51
q-41 -40 -55 -120t-14 -211zM254 1495h209l211 -274h-154z" />
    <glyph glyph-name="oacute" unicode="&#xf3;" horiz-adv-x="1157" 
d="M96 544q0 314 104 434t380 120t379 -123t103 -437t-102 -432q-104 -116 -378 -116t-380 120t-106 434zM285 534q0 -132 16 -206t59 -110q44 -36 90 -45t132 -9t132 9t88 46t57 111t15 204t-13 210q-13 79 -53 120t-88 51q-48 11 -139 11t-139 -10t-88 -51
q-41 -40 -55 -120t-14 -211zM502 1221l211 274h209l-267 -274h-153z" />
    <glyph glyph-name="ocircumflex" unicode="&#xf4;" horiz-adv-x="1157" 
d="M96 544q0 314 104 434t380 120t379 -123t103 -437t-102 -432q-104 -116 -378 -116t-380 120t-106 434zM285 534q0 -132 16 -206t59 -110q44 -36 90 -45t132 -9t132 9t88 46t57 111t15 204t-13 210q-13 79 -53 120t-88 51q-48 11 -139 11t-139 -10t-88 -51
q-41 -40 -55 -120t-14 -211zM285 1221l233 270h164l209 -270h-158l-137 139l-152 -139h-159z" />
    <glyph glyph-name="otilde" unicode="&#xf5;" horiz-adv-x="1157" 
d="M96 544q0 314 104 434t380 120t379 -123t103 -437t-102 -432q-104 -116 -378 -116t-380 120t-106 434zM285 534q0 -132 16 -206t59 -110q44 -36 90 -45t132 -9t132 9t88 46t57 111t15 204t-13 210q-13 79 -53 120t-88 51q-48 11 -139 11t-139 -10t-88 -51
q-41 -40 -55 -120t-14 -211zM585 1258q-65 34 -112 34t-104 -30q-56 -30 -76 -41l-45 92q51 45 80 67q84 66 152 65t136 -36t93 -35q55 -2 188 76l45 -96q-80 -80 -163 -118q-80 -37 -194 22z" />
    <glyph glyph-name="odieresis" unicode="&#xf6;" horiz-adv-x="1157" 
d="M96 544q0 314 104 434t380 120t379 -123t103 -437t-102 -432q-104 -116 -378 -116t-380 120t-106 434zM285 534q0 -132 16 -206t59 -110q44 -36 90 -45t132 -9t132 9t88 46t57 111t15 204t-13 210q-13 79 -53 120t-88 51q-48 11 -139 11t-139 -10t-88 -51
q-41 -40 -55 -120t-14 -211zM213 1329q0 45 32 77t77 32q46 0 76 -32t30 -77t-31 -77t-75 -32t-77 32q-32 32 -32 77zM735 1329q0 45 32 77t77 32t76 -32q30 -32 30 -77t-30 -77t-76 -32q-45 0 -77 32t-32 77z" />
    <glyph glyph-name="divide" unicode="&#xf7;" horiz-adv-x="1046" 
d="M96 635v176h854v-176h-854zM420 344v119q0 49 49 49h115q49 0 49 -49v-119q0 -47 -49 -47h-115q-49 0 -49 47zM420 971v116q0 51 49 52h115q49 0 49 -52v-116q0 -47 -49 -47h-115q-49 0 -49 47z" />
    <glyph glyph-name="oslash" unicode="&#xf8;" horiz-adv-x="1169" 
d="M102 552q0 306 104 426t380 120q195 0 295 -54l32 43h142l-86 -114q100 -123 100 -437t-103 -430q-103 -117 -380 -116q-207 0 -314 65l-43 -55h-131l95 129q-91 117 -91 423zM291 520q0 -146 35 -221l442 598q-56 29 -164 29t-155 -10t-89 -51q-42 -40 -55 -120
q-14 -79 -14 -225zM556 164q118 0 164 9t88 46t57 111t15 236t-40 243l-455 -606q53 -39 171 -39z" />
    <glyph glyph-name="ugrave" unicode="&#xf9;" 
d="M285 338q0 -182 180 -182q90 0 160 24t190 86v821h189v-1087h-142l-47 123q-156 -94 -191 -104q-35 -11 -76 -24t-120 -13q-162 0 -247 103t-85 255v747h189v-749zM223 1495h211l209 -274h-154z" />
    <glyph glyph-name="uacute" unicode="&#xfa;" 
d="M285 338q0 -182 180 -182q90 0 160 24t190 86v821h189v-1087h-142l-47 123q-156 -94 -191 -104q-35 -11 -76 -24t-120 -13q-162 0 -247 103t-85 255v747h189v-749zM473 1221l209 274h211l-266 -274h-154z" />
    <glyph glyph-name="ucircumflex" unicode="&#xfb;" 
d="M285 338q0 -182 180 -182q90 0 160 24t190 86v821h189v-1087h-142l-47 123q-156 -94 -191 -104q-35 -11 -76 -24t-120 -13q-162 0 -247 103t-85 255v747h189v-749zM246 1221l233 270h164l209 -270h-158l-137 139l-151 -139h-160z" />
    <glyph glyph-name="udieresis" unicode="&#xfc;" 
d="M285 338q0 -182 180 -182q90 0 160 24t190 86v821h189v-1087h-142l-47 123q-156 -94 -191 -104q-35 -11 -76 -24t-120 -13q-162 0 -247 103t-85 255v747h189v-749zM180 1329q0 45 32 77t77 32t76 -32t31 -77t-32 -77q-30 -32 -75 -32t-77 32t-32 77zM702 1329q0 45 32 77
t77 32t76 -32t31 -77t-31 -77t-76 -32t-77 32t-32 77z" />
    <glyph glyph-name="yacute" unicode="&#xfd;" horiz-adv-x="1146" 
d="M587 178l23 2l4 2l287 905h205l-453 -1431l-151 -209h-125l182 553q-195 0 -266 240l-252 847h203l241 -825q19 -58 67 -79q15 -5 35 -5zM496 1221l211 274h208l-266 -274h-153z" />
    <glyph glyph-name="thorn" unicode="&#xfe;" horiz-adv-x="1134" 
d="M133 -553v2155h189v-635q55 41 172 88q118 47 212 47t166 -44t111 -125q74 -154 76 -388q0 -121 -12 -211q-31 -230 -159 -310q-75 -46 -186 -47q-197 0 -380 80v-610h-189zM322 197q171 -47 360 -47q94 0 141 84t47 290q0 207 -50 304t-138 98q-154 -8 -360 -95v-634z
" />
    <glyph glyph-name="ydieresis" unicode="&#xff;" horiz-adv-x="1146" 
d="M587 178l23 2l4 2l287 905h205l-453 -1431l-151 -209h-125l182 553q-195 0 -266 240l-252 847h203l241 -825q19 -58 67 -79q15 -5 35 -5zM203 1329q0 45 33 77q34 32 78 32t75 -32t31 -77t-31 -77t-76 -32t-77 32t-33 77zM725 1329q0 45 33 77t78 32q46 0 76 -32t30 -77
t-31 -77t-75 -32t-78 32q-33 32 -33 77z" />
    <glyph glyph-name="Amacron" unicode="&#x100;" horiz-adv-x="1384" 
d="M86 0l539 1499h198l516 -1499h-215l-123 395h-567l-129 -395h-219zM494 573h450l-221 656zM426 1632v137h598v-137h-598z" />
    <glyph glyph-name="amacron" unicode="&#x101;" horiz-adv-x="1062" 
d="M76 264v119q0 125 75 202t209 77q418 -2 418 0q2 117 0 118q0 88 -41 123t-121 35q-195 0 -505 -23v129q203 59 522 64q149 2 241 -78t93 -248v-782h-144l-45 127q-8 -8 -69 -39q-61 -32 -165 -66t-186 -34q-126 2 -204 78t-78 198zM264 283q0 -123 117 -123q68 0 167 24
t165 49l65 27v266l-401 -28q-113 -10 -113 -127v-88zM258 1231v137h598v-137h-598z" />
    <glyph glyph-name="Abreve" unicode="&#x102;" horiz-adv-x="1384" 
d="M86 0l539 1499h198l516 -1499h-215l-123 395h-567l-129 -395h-219zM494 573h450l-221 656zM489 1866h103q0 -57 39 -94t95 -37q56 -1 94 35t38 96h103q0 -109 -72 -171q-72 -63 -165 -63t-164 65t-71 169z" />
    <glyph glyph-name="abreve" unicode="&#x103;" horiz-adv-x="1062" 
d="M76 264v119q0 125 75 202t209 77q418 -2 418 0q2 117 0 118q0 88 -41 123t-121 35q-195 0 -505 -23v129q203 59 522 64q149 2 241 -78t93 -248v-782h-144l-45 127q-8 -8 -69 -39q-61 -32 -165 -66t-186 -34q-126 2 -204 78t-78 198zM264 283q0 -123 117 -123q68 0 167 24
t165 49l65 27v266l-401 -28q-113 -10 -113 -127v-88zM322 1464h102q0 -57 39 -94t95 -37t94 36t38 95h103q0 -109 -71 -171t-165 -62t-165 64q-70 65 -70 169z" />
    <glyph glyph-name="Aogonek" unicode="&#x104;" horiz-adv-x="1384" 
d="M86 0l539 1499h198l516 -1499h-57q-121 -102 -114 -171t124 -71v-131q-68 -12 -129 11q-61 24 -93 66q-78 103 -5 202q41 55 127 94h-68l-123 395h-567l-129 -395h-219zM494 573h450l-221 656z" />
    <glyph glyph-name="aogonek" unicode="&#x105;" horiz-adv-x="1062" 
d="M76 264v119q0 125 75 202t209 77q418 -2 418 0q2 117 0 118q0 88 -41 123t-121 35q-195 0 -505 -23v129q203 59 522 64q149 2 241 -78t93 -248v-782h-25q-121 -102 -114 -171t124 -71v-131q-68 -12 -128 11q-60 24 -93 66q-80 103 -5 202q42 55 128 94h-31l-45 127
q-8 -8 -69 -39q-61 -32 -165 -66t-186 -34q-126 2 -204 78t-78 198zM264 283q0 -123 117 -123q68 0 167 24t165 49l65 27v266l-401 -28q-113 -10 -113 -127v-88z" />
    <glyph glyph-name="Cacute" unicode="&#x106;" horiz-adv-x="1179" 
d="M627 1333q-129 0 -197 -45t-102 -171q-34 -127 -35 -385q0 -258 75 -410t259 -152l487 14v-147q-225 -49 -506 -49q-504 0 -504 766q0 389 108 575q108 187 379 187t523 -56v-149h-16q-198 22 -471 22zM598 1638l211 275h209l-266 -275h-154z" />
    <glyph glyph-name="cacute" unicode="&#x107;" horiz-adv-x="1019" 
d="M96 545q0 171 26 283t77 169t110 79t146 22q236 0 475 -58v-127q-471 22 -529 3q-31 -9 -61 -46q-54 -66 -55 -310q0 -244 44 -320t143 -76q205 0 400 16l72 4v-133q-170 -57 -489 -61q-83 0 -143 22t-111 78q-51 57 -78 171t-27 284zM477 1225l209 274h211l-266 -274
h-154z" />
    <glyph glyph-name="Ccircumflex" unicode="&#x108;" horiz-adv-x="1179" 
d="M627 1333q-129 0 -197 -45t-102 -171q-34 -127 -35 -385q0 -258 75 -410t259 -152l487 14v-147q-225 -49 -506 -49q-504 0 -504 766q0 389 108 575q108 187 379 187t523 -56v-149h-16q-198 22 -471 22zM371 1638l235 271h164l209 -271h-158l-139 140l-152 -140h-159z" />
    <glyph glyph-name="ccircumflex" unicode="&#x109;" horiz-adv-x="1019" 
d="M96 545q0 171 26 283t77 169t110 79t146 22q236 0 475 -58v-127q-471 22 -529 3q-31 -9 -61 -46q-54 -66 -55 -310q0 -244 44 -320t143 -76q205 0 400 16l72 4v-133q-170 -57 -489 -61q-83 0 -143 22t-111 78q-51 57 -78 171t-27 284zM268 1225l236 268h164l209 -268
h-158l-139 139l-152 -139h-160z" />
    <glyph glyph-name="Cdotaccent" unicode="&#x10a;" horiz-adv-x="1179" 
d="M627 1333q-129 0 -197 -45t-102 -171q-34 -127 -35 -385q0 -258 75 -410t259 -152l487 14v-147q-225 -49 -506 -49q-504 0 -504 766q0 389 108 575q108 187 379 187t523 -56v-149h-16q-198 22 -471 22zM584 1690v122q0 51 49 52h115q47 0 47 -52v-122q0 -47 -47 -48h-115
q-49 1 -49 48z" />
    <glyph glyph-name="cdotaccent" unicode="&#x10b;" horiz-adv-x="1019" 
d="M96 545q0 171 26 283t77 169t110 79t146 22q236 0 475 -58v-127q-471 22 -529 3q-31 -9 -61 -46q-54 -66 -55 -310q0 -244 44 -320t143 -76q205 0 400 16l72 4v-133q-170 -57 -489 -61q-83 0 -143 22t-111 78q-51 57 -78 171t-27 284zM489 1274v123q0 51 50 51h114
q47 0 47 -51v-123q0 -47 -47 -47h-114q-50 0 -50 47z" />
    <glyph glyph-name="Ccaron" unicode="&#x10c;" horiz-adv-x="1179" 
d="M627 1333q-129 0 -197 -45t-102 -171q-34 -127 -35 -385q0 -258 75 -410t259 -152l487 14v-147q-225 -49 -506 -49q-504 0 -504 766q0 389 108 575q108 187 379 187t523 -56v-149h-16q-198 22 -471 22zM383 1909h160l153 -140l135 140h158l-211 -271h-164z" />
    <glyph glyph-name="ccaron" unicode="&#x10d;" horiz-adv-x="1019" 
d="M96 545q0 171 26 283t77 169t110 79t146 22q236 0 475 -58v-127q-471 22 -529 3q-31 -9 -61 -46q-54 -66 -55 -310q0 -244 44 -320t143 -76q205 0 400 16l72 4v-133q-170 -57 -489 -61q-83 0 -143 22t-111 78q-51 57 -78 171t-27 284zM248 1493h158l155 -139l135 139h158
l-211 -268h-164z" />
    <glyph glyph-name="Dcaron" unicode="&#x10e;" horiz-adv-x="1347" 
d="M154 0v1499h577q131 0 229 -48t154 -123q55 -75 100 -210t47 -326q1 -192 -29 -320q-69 -296 -256 -409q-105 -63 -245 -63h-577zM342 184h383q176 0 262 156t86 434q0 545 -348 545h-383v-1135zM348 1892h160l154 -139l135 139h157l-211 -268h-163z" />
    <glyph glyph-name="dcaron" unicode="&#x10f;" horiz-adv-x="1163" 
d="M96 539q0 326 93 445q93 120 273 120q181 0 374 -80v584h186v-1608h-143l-43 119q-51 -41 -170 -86t-213 -45q-357 0 -357 551zM285 541q0 -377 188 -377q162 0 363 88v631q-174 49 -363 49q-96 0 -142 -82t-46 -309zM1286 1597v-137l-22 -274h-121l-21 274l-2 137h166z
" />
    <glyph glyph-name="Dcroat" unicode="&#x110;" horiz-adv-x="1347" 
d="M20 705v118h134v674q0 2 579 2q528 0 529 -756q0 -295 -118 -507q-60 -108 -166 -172t-245 -64h-579v705h-134zM342 184h385q176 0 258 155t82 406q0 565 -340 566l-385 -2v-486h268v-118h-268v-521z" />
    <glyph glyph-name="dcroat" unicode="&#x111;" horiz-adv-x="1138" 
d="M94 539q0 324 97 452q88 113 269 113t374 -80v231h-242v117h242v236h186v-236h143v-117h-143v-1255h-143l-43 119q-51 -41 -170 -86t-213 -45q-357 0 -357 551zM283 541q0 -377 188 -377q162 0 363 88v631q-174 49 -363 49q-96 0 -142 -82t-46 -309z" />
    <glyph glyph-name="Emacron" unicode="&#x112;" horiz-adv-x="1161" 
d="M152 264v957q0 153 78 219t198 59q614 -29 651 -33v-151h-633q-48 1 -74 -19t-29 -40t-3 -56v-360l653 -21v-153l-653 -21v-360q0 -51 22 -76t44 -28q20 -3 61 -3h612v-149l-630 -35q-297 -19 -297 270zM350 1628v139h598v-139h-598z" />
    <glyph glyph-name="emacron" unicode="&#x113;" horiz-adv-x="1075" 
d="M96 549q0 180 25 289t88 166t143 74q80 18 196 18t174 -5q56 -5 116 -27t91 -63q70 -90 70 -292q0 -258 -286 -258h-428q0 -177 45 -233t168 -56q340 0 481 22v-137q-190 -57 -524 -57q-205 0 -282 122t-77 437zM285 616h407q119 0 119 95q0 143 -41 179q-40 36 -164 36
t-166 -5t-86 -35q-43 -30 -56 -94t-13 -176zM262 1219v139h598v-139h-598z" />
    <glyph glyph-name="Edotaccent" unicode="&#x116;" horiz-adv-x="1161" 
d="M152 264v957q0 153 78 219t198 59q614 -29 651 -33v-151h-633q-48 1 -74 -19t-29 -40t-3 -56v-360l653 -21v-153l-653 -21v-360q0 -51 22 -76t44 -28q20 -3 61 -3h612v-149l-630 -35q-297 -19 -297 270zM553 1673v123q0 51 49 51h115q47 0 47 -51v-123q0 -47 -47 -47
h-115q-49 0 -49 47z" />
    <glyph glyph-name="edotaccent" unicode="&#x117;" horiz-adv-x="1075" 
d="M96 549q0 180 25 289t88 166t143 74q80 18 196 18t174 -5q56 -5 116 -27t91 -63q70 -90 70 -292q0 -258 -286 -258h-428q0 -177 45 -233t168 -56q340 0 481 22v-137q-190 -57 -524 -57q-205 0 -282 122t-77 437zM285 616h407q119 0 119 95q0 143 -41 179q-40 36 -164 36
t-166 -5t-86 -35q-43 -30 -56 -94t-13 -176zM453 1268v123q0 51 49 51h114q47 0 48 -51v-123q0 -47 -48 -47h-114q-49 0 -49 47z" />
    <glyph glyph-name="Eogonek" unicode="&#x118;" horiz-adv-x="1161" 
d="M152 264v957q0 153 78 219t198 59q614 -29 651 -33v-151h-633q-48 1 -74 -19t-29 -40t-3 -56v-360l653 -21v-153l-653 -21v-360q0 -51 22 -76t44 -28q20 -3 61 -3h612v-149q-123 -102 -115 -171t123 -71v-133q-65 -10 -125 12q-117 42 -135 156q-8 51 30 106t118 95
l-526 -29q-297 -19 -297 270z" />
    <glyph glyph-name="eogonek" unicode="&#x119;" horiz-adv-x="1075" 
d="M96 549q0 180 25 289t88 166t143 74q80 18 196 18t174 -5q56 -5 116 -27t91 -63q70 -90 70 -292q0 -258 -286 -258h-428q0 -177 45 -233t168 -56q340 0 481 22v-137q-82 -66 -106 -122q-23 -56 9 -87t105 -33v-133q-61 -10 -119 8t-91 57q-79 88 -36 182q25 52 86 93
q-153 -22 -365 -22t-289 122t-77 437zM285 616h407q119 0 119 95q0 143 -41 179q-40 36 -164 36t-166 -5t-86 -35q-43 -30 -56 -94t-13 -176z" />
    <glyph glyph-name="Ecaron" unicode="&#x11a;" horiz-adv-x="1161" 
d="M152 264v957q0 153 78 219t198 59q614 -29 651 -33v-151h-633q-48 1 -74 -19t-29 -40t-3 -56v-360l653 -21v-153l-653 -21v-360q0 -51 22 -76t44 -28q20 -3 61 -3h612v-149l-630 -35q-297 -19 -297 270zM344 1892h160l153 -139l136 139h157l-211 -268h-164z" />
    <glyph glyph-name="ecaron" unicode="&#x11b;" horiz-adv-x="1075" 
d="M96 549q0 180 25 289t88 166t143 74q80 18 196 18t174 -5q56 -5 116 -27t91 -63q70 -90 70 -292q0 -258 -286 -258h-428q0 -177 45 -233t168 -56q340 0 481 22v-137q-190 -57 -524 -57q-205 0 -282 122t-77 437zM285 616h407q119 0 119 95q0 143 -41 179q-40 36 -164 36
t-166 -5t-86 -35q-43 -30 -56 -94t-13 -176zM262 1481h158l155 -140l136 140h157l-211 -269h-163z" />
    <glyph glyph-name="Gcircumflex" unicode="&#x11c;" horiz-adv-x="1257" 
d="M104 754q0 442 137 616q115 146 355 146t526 -58v-149q-2 0 -37 3t-172 13t-315 10t-242 -132q-64 -133 -63 -455q-1 -322 67 -448t248 -128q126 0 301 70l56 24v371h-308v125q168 49 357 49q90 0 139 -4v-807h-139l-45 100q-174 -109 -377 -110q-123 -2 -213 37
t-142 103t-83 170q-50 169 -50 454zM383 1638l235 271h164l209 -271h-157l-140 140l-151 -140h-160z" />
    <glyph glyph-name="gcircumflex" unicode="&#x11d;" horiz-adv-x="1136" 
d="M92 229q0 59 31 111t90 66q-119 76 -119 284q0 400 361 402h645v-129l-154 -37q0 -2 13 -26t28 -60t16 -112q5 -305 -197 -394q-65 -29 -149 -29h-301q-84 0 -84 -57q0 -66 84 -66h408q131 0 206 -78t74 -215v-127q0 -118 -56 -205q-32 -50 -100 -80t-161 -30h-307
q-150 0 -240 80t-90 235v164l84 125q-82 55 -82 178zM369 8q-40 0 -90 15v-250q-1 -66 27 -102t60 -44t76 -8h269q81 0 113 39t32 113v108q0 69 -27 99t-104 30h-356zM467 918q-184 0 -184 -219t174 -220h176q102 0 144 69q42 68 38 168t-43 150t-141 52h-164zM262 1223
l234 268h163l209 -268h-157l-140 139l-149 -139h-160z" />
    <glyph glyph-name="Gbreve" unicode="&#x11e;" horiz-adv-x="1257" 
d="M104 754q0 442 137 616q115 146 355 146t526 -58v-149q-2 0 -37 3t-172 13t-315 10t-242 -132q-64 -133 -63 -455q-1 -322 67 -448t248 -128q126 0 301 70l56 24v371h-308v125q168 49 357 49q90 0 139 -4v-807h-139l-45 100q-174 -109 -377 -110q-123 -2 -213 37
t-142 103t-83 170q-50 169 -50 454zM446 1872h103q0 -57 40 -94t95 -37t93 36t38 95h103q0 -109 -71 -171q-71 -63 -165 -63t-165 65t-71 169z" />
    <glyph glyph-name="gbreve" unicode="&#x11f;" horiz-adv-x="1136" 
d="M92 229q0 59 31 111t90 66q-119 76 -119 284q0 400 361 402h645v-129l-154 -37q0 -2 13 -26t28 -60t16 -112q5 -305 -197 -394q-65 -29 -149 -29h-301q-84 0 -84 -57q0 -66 84 -66h408q131 0 206 -78t74 -215v-127q0 -118 -56 -205q-32 -50 -100 -80t-161 -30h-307
q-150 0 -240 80t-90 235v164l84 125q-82 55 -82 178zM369 8q-40 0 -90 15v-250q-1 -66 27 -102t60 -44t76 -8h269q81 0 113 39t32 113v108q0 69 -27 99t-104 30h-356zM467 918q-184 0 -184 -219t174 -220h176q102 0 144 69q42 68 38 168t-43 150t-141 52h-164zM328 1456h102
q0 -57 39 -94t95 -37t94 36t38 95h103q0 -109 -71 -171t-165 -62t-165 64q-70 65 -70 169z" />
    <glyph glyph-name="Gdotaccent" unicode="&#x120;" horiz-adv-x="1257" 
d="M104 754q0 442 137 616q115 146 355 146t526 -58v-149q-2 0 -37 3t-172 13t-315 10t-242 -132q-64 -133 -63 -455q-1 -322 67 -448t248 -128q126 0 301 70l56 24v371h-308v125q168 49 357 49q90 0 139 -4v-807h-139l-45 100q-174 -109 -377 -110q-123 -2 -213 37
t-142 103t-83 170q-50 169 -50 454zM565 1686v122q0 51 49 52h115q47 0 47 -52v-122q0 -47 -47 -48h-115q-49 1 -49 48z" />
    <glyph glyph-name="gdotaccent" unicode="&#x121;" horiz-adv-x="1136" 
d="M92 229q0 59 31 111t90 66q-119 76 -119 284q0 400 361 402h645v-129l-154 -37q0 -2 13 -26t28 -60t16 -112q5 -305 -197 -394q-65 -29 -149 -29h-301q-84 0 -84 -57q0 -66 84 -66h408q131 0 206 -78t74 -215v-127q0 -118 -56 -205q-32 -50 -100 -80t-161 -30h-307
q-150 0 -240 80t-90 235v164l84 125q-82 55 -82 178zM369 8q-40 0 -90 15v-250q-1 -66 27 -102t60 -44t76 -8h269q81 0 113 39t32 113v108q0 69 -27 99t-104 30h-356zM467 918q-184 0 -184 -219t174 -220h176q102 0 144 69q42 68 38 168t-43 150t-141 52h-164zM465 1274v123
q0 51 49 51h115q47 0 47 -51v-123q0 -47 -47 -47h-115q-49 0 -49 47z" />
    <glyph glyph-name="Gcommaaccent" unicode="&#x122;" horiz-adv-x="1257" 
d="M104 754q0 442 137 616q115 146 355 146t526 -58v-149q-2 0 -37 3t-172 13t-315 10t-242 -132q-64 -133 -63 -455q-1 -322 67 -448t248 -128q126 0 301 70l56 24v371h-308v125q168 49 357 49q90 0 139 -4v-807h-139l-45 100q-174 -109 -377 -110q-123 -2 -213 37
t-142 103t-83 170q-50 169 -50 454zM553 -319v114q0 51 47 51h111q43 0 43 -51v-182q0 -51 -24 -92t-99 -51q-35 -5 -68 2v67q57 -2 58 55v39h-21q-47 1 -47 48z" />
    <glyph glyph-name="gcommaaccent" unicode="&#x123;" horiz-adv-x="1136" 
d="M461 1264v182q0 82 48 118t95 29l47 -4v-67q-57 2 -57 -56v-41h20q47 0 48 -45v-116q0 -49 -48 -50h-110q-43 1 -43 50zM92 227q0 61 31 113t90 66q-119 76 -119 284q0 400 361 402h645v-129l-154 -37q0 -2 13 -26t28 -60t16 -112q5 -305 -197 -394q-65 -29 -149 -29
h-301q-84 0 -84 -61q0 -44 42 -58q15 -4 42 -8l383 -47q141 -18 223 -94t82 -207v-68q0 -118 -56 -205q-32 -50 -100 -80t-161 -30h-307q-150 0 -240 80t-90 235v168l88 123q-86 57 -86 174zM279 -227q-1 -66 27 -102t60 -44t76 -8h269q81 0 113 39t32 113v53
q0 119 -166 139l-303 39l-108 16v-245zM283 705q0 -94 39 -162t135 -68h176q100 0 143 71q43 70 39 170t-43 152t-141 54h-164q-184 0 -184 -217z" />
    <glyph glyph-name="Hcircumflex" unicode="&#x124;" horiz-adv-x="1304" 
d="M154 0v1499h188v-684h662v684h188v-1499h-188v635h-662v-635h-188zM369 1632l233 269h164l209 -269h-156l-139 140l-152 -140h-159z" />
    <glyph glyph-name="hcircumflex" unicode="&#x125;" 
d="M811 750q0 184 -180 184q-90 0 -160 -24t-190 -87v-823h-189v1606h187v-643q159 95 233 119t154 24q162 0 248 -104t85 -252v-750h-188v750zM-119 1729l234 268h164l208 -268h-157l-140 139l-149 -139h-160z" />
    <glyph glyph-name="Hbar" unicode="&#x126;" horiz-adv-x="1361" 
d="M37 1057v117h125v325h188v-325h662v325h188v-325h123v-117h-123v-1057h-188v635h-662v-635h-188v1057h-125zM350 815h662v242h-662v-242z" />
    <glyph glyph-name="hbar" unicode="&#x127;" horiz-adv-x="1124" 
d="M-29 1245v119h152v242h192v-242h265v-119h-265v-282q246 145 398 143q157 4 237 -98t80 -256v-752h-194v748q-4 94 -43 141t-131 47q-139 -6 -345 -113v-823h-194v1245h-152z" />
    <glyph glyph-name="Itilde" unicode="&#x128;" horiz-adv-x="454" 
d="M154 0v1499h188v-1499h-188zM238 1670q-63 34 -114 34t-104 -30t-75 -42l-45 92q51 45 80 68q83 66 151 65q67 -1 136 -36t95 -35q53 -2 187 76l45 -97q-36 -36 -105 -84q-68 -47 -128 -46t-123 35z" />
    <glyph glyph-name="itilde" unicode="&#x129;" horiz-adv-x="417" 
d="M115 0v1087h188v-1087h-188zM98 1292q-38 0 -66 -9t-67 -32t-59 -30l-45 92q93 82 147 107q55 26 103 25t117 -36t96 -35q57 -2 186 76l47 -96q-6 -4 -40 -34t-91 -67q-98 -63 -226 5q-64 34 -102 34z" />
    <glyph glyph-name="Imacron" unicode="&#x12a;" horiz-adv-x="454" 
d="M154 0v1499h188v-1499h-188zM-51 1632v137h598v-137h-598z" />
    <glyph glyph-name="imacron" unicode="&#x12b;" horiz-adv-x="417" 
d="M115 0v1087h188v-1087h-188zM-90 1221v139h598v-139h-598z" />
    <glyph glyph-name="Iogonek" unicode="&#x12e;" horiz-adv-x="454" 
d="M154 0v1499h188v-1499h-43q-121 -102 -114 -171t124 -71v-131q-68 -12 -129 11q-61 24 -93 66q-78 103 -5 202q41 55 127 94h-55z" />
    <glyph glyph-name="iogonek" unicode="&#x12f;" horiz-adv-x="419" 
d="M96 1260v129q0 53 49 53h134q47 0 47 -53v-129q0 -47 -47 -48h-134q-49 1 -49 48zM113 0v1087h188v-1087h-39q-82 -66 -106 -122t9 -87q32 -31 105 -33v-131q-84 -14 -154 24t-97 97q-29 59 9 132t144 120h-59z" />
    <glyph glyph-name="Idotaccent" unicode="&#x130;" horiz-adv-x="454" 
d="M154 0v1499h188v-1499h-188zM141 1679v123q0 51 49 51h115q47 0 47 -51v-123q0 -47 -47 -47h-115q-49 0 -49 47z" />
    <glyph glyph-name="dotlessi" unicode="&#x131;" horiz-adv-x="417" 
d="M115 0v1087h188v-1087h-188z" />
    <glyph glyph-name="Jcircumflex" unicode="&#x134;" horiz-adv-x="733" 
d="M430 373v1126h188v-1161q0 -233 -106 -301q-82 -51 -222 -48t-222 56l6 141q45 -8 56 -11t53 -9q43 -6 57 -5t48 2t48 11t37 26t40 62t17 111zM221 1632l236 269h164l208 -269h-157l-140 140l-151 -140h-160z" />
    <glyph glyph-name="jcircumflex" unicode="&#x135;" horiz-adv-x="458" 
d="M-76 1225l234 321h164l208 -321h-139l-158 174l-167 -174h-142zM133 -553v1640h197v-1095q4 -326 -60 -545h-137z" />
    <glyph glyph-name="Kcommaaccent" unicode="&#x136;" horiz-adv-x="1230" 
d="M154 0v1499h184v-659h156l446 659h225l-501 -747l501 -752h-225l-446 659h-154v-659h-186zM541 -451q55 0 55 54v41h-18q-48 0 -48 47v116q0 49 48 50h110q43 0 43 -50v-184q0 -82 -48 -117t-95 -30l-47 6v67z" />
    <glyph glyph-name="kcommaaccent" unicode="&#x137;" horiz-adv-x="1054" 
d="M115 0v1602h188v-895h76l387 380h252l-463 -464l463 -623h-230l-409 537h-76v-537h-188zM440 -309v116q0 49 45 50h111q45 0 45 -50v-184q0 -82 -48 -117t-97 -30l-47 6v67q57 -2 57 54v41h-21q-45 0 -45 47z" />
    <glyph glyph-name="kgreenlandic" unicode="&#x138;" horiz-adv-x="1087" 
d="M115 0v1087h188v-464h154l364 464h230l-424 -546l393 -541h-229l-340 455h-146l-2 -455h-188z" />
    <glyph glyph-name="Lacute" unicode="&#x139;" horiz-adv-x="1130" 
d="M154 266v1233h188v-1210q0 -81 43 -94q37 -13 84 -13h596v-182h-625q-129 0 -208 55q-78 55 -78 211zM170 1632l211 277h209l-266 -277h-154z" />
    <glyph glyph-name="lacute" unicode="&#x13a;" horiz-adv-x="620" 
d="M115 387v1217h188v-1205q0 -119 28 -166t83 -63q156 -43 170 -43v-127h-195q-274 0 -274 387zM186 1726l211 277h209l-266 -277h-154z" />
    <glyph glyph-name="Lcommaaccent" unicode="&#x13b;" horiz-adv-x="1130" 
d="M154 266v1233h188v-1210q0 -81 43 -94q37 -13 84 -13h596v-182h-625q-129 0 -208 55q-78 55 -78 211zM524 -307v114q0 51 47 52h111q43 0 43 -52v-182q0 -51 -23 -92t-100 -51q-36 -5 -67 2v67q57 -2 57 54v41h-21q-47 0 -47 47z" />
    <glyph glyph-name="lcommaaccent" unicode="&#x13c;" horiz-adv-x="620" 
d="M115 387v1217h188v-1205q0 -119 28 -166t83 -63q156 -43 170 -43v-127h-195q-274 0 -274 387zM246 -309v116q0 49 47 50h110q43 0 43 -50v-182q0 -51 -23 -92t-99 -51q-36 -5 -68 2v67q57 -2 57 54v41h-20q-47 0 -47 45z" />
    <glyph glyph-name="Lcaron" unicode="&#x13d;" horiz-adv-x="1130" 
d="M154 266v1233h188v-1210q0 -81 43 -94q37 -13 84 -13h596v-182h-625q-131 0 -209 55q-77 55 -77 211zM492 1581h163v-137l-20 -275h-121l-22 275v137z" />
    <glyph glyph-name="lcaron" unicode="&#x13e;" horiz-adv-x="645" 
d="M115 387v1217h188v-1205q0 -123 23 -167t88 -62q156 -43 170 -43v-127h-195q-147 0 -211 87q-63 87 -63 300zM453 1599h163v-137l-20 -274h-121l-22 274v137z" />
    <glyph glyph-name="Lslash" unicode="&#x141;" horiz-adv-x="1144" 
d="M170 1499h188v-567l273 117l-2 -131l-271 -117v-512q0 -80 40 -94q40 -13 87 -13h596v-182h-622q-131 0 -210 55t-79 211v453l-166 -72v131l166 72v649z" />
    <glyph glyph-name="lslash" unicode="&#x142;" horiz-adv-x="690" 
d="M182 1604h189v-578l276 121l-2 -131l-274 -119v-498q-1 -119 27 -166t83 -63q156 -43 170 -43v-127h-196q-272 0 -273 387v428l-162 -70v132l162 67v660z" />
    <glyph glyph-name="Nacute" unicode="&#x143;" horiz-adv-x="1390" 
d="M154 0v1499h192l744 -1149v1149h188v-1499h-188l-746 1147v-1147h-190zM655 1632l211 277h209l-266 -277h-154z" />
    <glyph glyph-name="nacute" unicode="&#x144;" 
d="M834 750q0 184 -182 184q-88 0 -158 -24t-191 -87v-823h-188v1087h141l47 -124q158 95 233 119t154 24q160 0 246 -104t86 -252v-750h-188v750zM485 1229l211 274h209l-266 -274h-154z" />
    <glyph glyph-name="Ncommaaccent" unicode="&#x145;" horiz-adv-x="1390" 
d="M154 0v1499h192l744 -1149v1149h188v-1499h-188l-746 1147v-1147h-190zM612 -309v116q0 49 45 50h111q45 0 45 -50v-184q0 -82 -48 -117t-97 -30l-47 6v67q57 -2 57 54v41h-21q-45 0 -45 47z" />
    <glyph glyph-name="ncommaaccent" unicode="&#x146;" 
d="M834 750q0 184 -182 184q-88 0 -158 -24t-191 -87v-823h-188v1087h141l47 -124q158 95 233 119t154 24q160 0 246 -104t86 -252v-750h-188v750zM469 -309v116q0 49 45 50h111q45 0 45 -50v-184q0 -82 -48 -117t-98 -30l-47 6v67q57 -2 58 54v41h-21q-45 0 -45 47z" />
    <glyph glyph-name="Ncaron" unicode="&#x147;" horiz-adv-x="1390" 
d="M154 0v1499h192l744 -1149v1149h188v-1499h-188l-746 1147v-1147h-190zM428 1901h160l155 -140l136 140h157l-211 -269h-163z" />
    <glyph glyph-name="ncaron" unicode="&#x148;" 
d="M834 750q0 184 -182 184q-88 0 -158 -24t-191 -87v-823h-188v1087h141l47 -124q158 95 233 119t154 24q160 0 246 -104t86 -252v-750h-188v750zM285 1499h159l154 -139l135 139h158l-211 -270h-164z" />
    <glyph glyph-name="Eng" unicode="&#x14a;" horiz-adv-x="1386" 
d="M154 0v1499h192l739 -1130v1130h189v-1665q0 -230 -141 -304q-70 -36 -143 -47t-177 -9v141q16 4 59 12q135 25 174 81t39 153v139l-739 1147l-4 -1147h-188z" />
    <glyph glyph-name="eng" unicode="&#x14b;" horiz-adv-x="1136" 
d="M834 750q0 184 -182 184q-88 0 -158 -24t-191 -87v-823h-188v1087h141l47 -124q10 6 44 26t90 53t130 49q73 15 123 15q160 0 246 -104t86 -252v-750l-2 -172q-4 -84 -31 -149t-59 -101q-68 -76 -262 -127l-64 98q6 5 28 15q108 52 143 98t46 80t13 78v930z" />
    <glyph glyph-name="Omacron" unicode="&#x14c;" horiz-adv-x="1380" 
d="M125 741q0 355 77 511q40 84 87 136q83 92 260 113q69 8 177 8t186 -12t157 -56q80 -44 125 -126q104 -189 103 -568t-99 -558q-45 -81 -123 -125t-159 -58t-193 -14t-182 8q-184 21 -262 111q-109 125 -137 337q-16 124 -17 293zM313 774q0 -316 49 -439
q49 -122 191 -149q61 -12 189 -12t208 41q158 81 158 485t-74 511q-29 42 -54 66q-45 42 -162 48q-38 2 -101 2t-135 -4t-111 -31q-78 -50 -97 -104q-19 -53 -40 -141t-21 -273zM414 1632v137h598v-137h-598z" />
    <glyph glyph-name="omacron" unicode="&#x14d;" horiz-adv-x="1157" 
d="M96 544q0 314 104 434t380 120t379 -123t103 -437t-102 -432q-104 -116 -378 -116t-380 120t-106 434zM285 534q0 -132 16 -206t59 -110q44 -36 90 -45t132 -9t132 9t88 46t57 111t15 204t-13 210q-13 79 -53 120t-88 51q-48 11 -139 11t-139 -10t-88 -51
q-41 -40 -55 -120t-14 -211zM281 1221v139h598v-139h-598z" />
    <glyph glyph-name="Ohungarumlaut" unicode="&#x150;" horiz-adv-x="1380" 
d="M125 741q0 355 77 511q40 84 87 136q83 92 260 113q69 8 177 8t186 -12t157 -56q80 -44 125 -126q104 -189 103 -568t-99 -558q-45 -81 -123 -125t-159 -58t-193 -14t-182 8q-184 21 -262 111q-109 125 -137 337q-16 124 -17 293zM313 774q0 -316 49 -439
q49 -122 191 -149q61 -12 189 -12t208 41q158 81 158 485t-74 511q-29 42 -54 66q-45 42 -162 48q-38 2 -101 2t-135 -4t-111 -31q-78 -50 -97 -104q-19 -53 -40 -141t-21 -273zM492 1632l208 277h211l-266 -277h-153zM778 1632l211 277h211l-266 -277h-156z" />
    <glyph glyph-name="ohungarumlaut" unicode="&#x151;" horiz-adv-x="1157" 
d="M96 544q0 314 104 434t380 120t379 -123t103 -437t-102 -432q-104 -116 -378 -116t-380 120t-106 434zM285 534q0 -132 16 -206t59 -110q44 -36 90 -45t132 -9t132 9t88 46t57 111t15 204t-13 210q-13 79 -53 120t-88 51q-48 11 -139 11t-139 -10t-88 -51
q-41 -40 -55 -120t-14 -211zM358 1221l211 274h209l-266 -274h-154zM647 1221l209 274h211l-266 -274h-154z" />
    <glyph glyph-name="OE" unicode="&#x152;" horiz-adv-x="2134" 
d="M313 693q-1 -142 17 -251t68 -170t120 -79q70 -19 191 -19t191 20q152 45 189 253q19 110 19 318t-20 289q-20 80 -35 124q-14 44 -45 70q-31 28 -56 44t-81 26t-134 9q-77 0 -137 -2t-96 -17q-35 -16 -65 -36t-46 -50t-37 -84t-32 -179q-11 -124 -11 -266zM125 741
q0 352 77 510q40 85 86 137q81 92 259 113q68 8 195 8q127 1 230 -27t173 -110q61 137 239 127q610 -29 646 -33v-151h-627q-49 1 -75 -19t-29 -40t-3 -56v-360l650 -21v-153l-650 -21v-360q0 -51 23 -76t43 -28t61 -3h607v-149l-625 -35q-207 -12 -266 129
q-68 -76 -171 -104q-103 -27 -231 -27t-198 8q-181 21 -260 110q-109 122 -137 338q-16 124 -17 293z" />
    <glyph glyph-name="oe" unicode="&#x153;" horiz-adv-x="1849" 
d="M581 -10q-273 0 -379 120t-106 434t104 434t382 120q277 0 379 -131q51 77 141 103t215 26t181 -5q145 -13 209 -96q65 -83 67 -286q0 -258 -287 -258h-426q-4 -161 43 -225t170 -64q340 0 479 22v-137q-188 -57 -524 -57q-199 0 -275 121q-100 -121 -373 -121zM285 534
q0 -132 16 -206t59 -110q44 -36 90 -45t130 -9q190 0 241 72t51 308t-58 309t-234 73q-90 0 -138 -10t-88 -51q-41 -40 -55 -120t-14 -211zM1468 616q117 0 117 95q0 143 -41 179q-42 36 -162 36t-168 -8t-89 -38q-42 -30 -55 -94t-9 -170h407z" />
    <glyph glyph-name="Racute" unicode="&#x154;" horiz-adv-x="1220" 
d="M119 0v1499h643q362 0 362 -455q0 -110 -22 -192t-46 -123q-26 -41 -70 -71t-63 -34t-53 -14l308 -610h-207l-297 600l-367 29v-629h-188zM307 788h447q44 0 70 6t55 30q55 43 55 213q0 171 -49 227t-131 55h-447v-531zM526 1624l209 274h211l-266 -274h-154z" />
    <glyph glyph-name="racute" unicode="&#x155;" horiz-adv-x="866" 
d="M115 0v1087h143l45 -137q82 53 118 75q36 23 113 49t168 26t125 -17v-184q-45 10 -153 10q-108 -1 -187 -27q-78 -26 -184 -91v-791h-188zM428 1225l209 274h211l-266 -274h-154z" />
    <glyph glyph-name="Rcommaaccent" unicode="&#x156;" horiz-adv-x="1220" 
d="M119 0v1499h643q362 0 362 -455q0 -110 -22 -192t-46 -123q-26 -41 -70 -71t-63 -34t-53 -14l308 -610h-207l-297 600l-367 29v-629h-188zM307 788h447q44 0 70 6t55 30q55 43 55 213q0 171 -49 227t-131 55h-447v-531zM512 -307v117q0 49 47 49h111q43 0 43 -49v-185
q0 -51 -24 -92t-99 -51q-35 -5 -68 2v67q57 -2 58 56v39h-21q-47 0 -47 47z" />
    <glyph glyph-name="rcommaaccent" unicode="&#x157;" horiz-adv-x="866" 
d="M113 0v1087h143l45 -137q82 53 118 75q35 23 111 49t168 26t125 -17v-184q-41 10 -151 10q-110 -1 -188 -27q-79 -26 -183 -91v-791h-188zM104 -309v116q0 49 48 50h110q43 0 43 -50v-184q0 -82 -48 -117t-95 -30l-47 6v67q57 -2 57 54v41h-20q-48 0 -48 47z" />
    <glyph glyph-name="Rcaron" unicode="&#x158;" horiz-adv-x="1220" 
d="M119 0v1499h643q362 0 362 -455q0 -110 -22 -192t-46 -123q-26 -41 -70 -71t-63 -34t-53 -14l308 -610h-207l-297 600l-367 29v-629h-188zM307 788h447q44 0 70 6t55 30q55 43 55 213q0 171 -49 227t-131 55h-447v-531zM295 1901h160l153 -140l135 140h158l-211 -269
h-164z" />
    <glyph glyph-name="rcaron" unicode="&#x159;" horiz-adv-x="866" 
d="M115 0v1087h143l45 -137q82 53 118 75q36 23 113 49t168 26t125 -17v-184q-45 10 -153 10q-108 -1 -187 -27q-78 -26 -184 -91v-791h-188zM168 1491h158l155 -139l135 139h158l-211 -268h-164z" />
    <glyph glyph-name="Sacute" unicode="&#x15a;" horiz-adv-x="1198" 
d="M125 1008v133q0 207 106 289t299 81q92 2 270 -17t261 -34v-151q-328 20 -510 20q-121 6 -179 -31t-59 -163v-119q0 -117 45 -151t150 -34h276q330 0 330 -364v-129q0 -219 -133 -293q-110 -61 -281 -61q-106 0 -276 17t-254 36v151q225 -22 392 -22t199 4q107 13 141 71
q24 38 24 95v123q0 90 -35 137t-125 47h-270q-96 0 -168 24q-72 23 -110 57q-93 82 -93 284zM551 1634l211 277h209l-266 -277h-154z" />
    <glyph glyph-name="sacute" unicode="&#x15b;" horiz-adv-x="1036" 
d="M76 727v94q0 133 65 205q66 72 197 72t313 -12t254 -27v-135h-522q-85 0 -102 -29t-17 -78v-82q0 -49 18 -73t37 -27q20 -4 64 -4h305q135 0 204 -74t69 -197v-102q0 -268 -267 -268q-106 0 -312 15t-261 30v131h549q102 0 102 98v86q0 53 -21 78q-22 25 -81 25h-305
q-150 0 -220 60q-69 60 -69 214zM438 1229l209 276h211l-266 -276h-154z" />
    <glyph glyph-name="Scircumflex" unicode="&#x15c;" horiz-adv-x="1198" 
d="M125 1008v133q0 207 106 289t299 81q92 2 270 -17t261 -34v-151q-328 20 -510 20q-121 6 -179 -31t-59 -163v-119q0 -117 45 -151t150 -34h276q330 0 330 -364v-129q0 -219 -133 -293q-110 -61 -281 -61q-106 0 -276 17t-254 36v151q225 -22 392 -22t199 4q107 13 141 71
q24 38 24 95v123q0 90 -35 137t-125 47h-270q-96 0 -168 24q-72 23 -110 57q-93 82 -93 284zM336 1634l233 271h164l209 -271h-158l-137 140l-151 -140h-160z" />
    <glyph glyph-name="scircumflex" unicode="&#x15d;" horiz-adv-x="1036" 
d="M76 727v94q0 133 65 205q66 72 197 72t313 -12t254 -27v-135h-522q-85 0 -102 -29t-17 -78v-82q0 -49 18 -73t37 -27q20 -4 64 -4h305q135 0 204 -74t69 -197v-102q0 -268 -267 -268q-106 0 -312 15t-261 30v131h549q102 0 102 98v86q0 53 -21 78q-22 25 -81 25h-305
q-150 0 -220 60q-69 60 -69 214zM215 1221l236 270h163l209 -270h-157l-140 139l-151 -139h-160z" />
    <glyph glyph-name="Scedilla" unicode="&#x15e;" horiz-adv-x="1198" 
d="M125 1008v133q0 207 106 289t299 81q92 2 270 -17t261 -34v-151q-328 20 -510 20q-121 6 -179 -31t-59 -163v-119q0 -117 45 -151t150 -34h276q330 0 330 -364v-129q0 -219 -133 -293q-110 -61 -281 -61q-106 0 -276 17t-254 36v151q225 -22 392 -22t199 4q107 13 141 71
q24 38 24 95v123q0 90 -35 137t-125 47h-270q-96 0 -168 24q-72 23 -110 57q-93 82 -93 284zM569 -92h152q0 -160 -44 -220t-169 -61h-107v88l105 31q39 16 51 55t12 107z" />
    <glyph glyph-name="scedilla" unicode="&#x15f;" horiz-adv-x="1036" 
d="M76 727v94q0 133 65 205q66 72 197 72t313 -12t254 -27v-135h-522q-85 0 -102 -29t-17 -78v-82q0 -49 18 -73t37 -27q20 -4 64 -4h305q135 0 204 -74t69 -197v-102q0 -268 -267 -268q-106 0 -312 15t-261 30v131h549q102 0 102 98v86q0 53 -21 78q-22 25 -81 25h-305
q-150 0 -220 60q-69 60 -69 214zM588 -80q0 -160 -44 -220t-169 -60h-107v88l103 30q66 29 65 162h152z" />
    <glyph glyph-name="Scaron" unicode="&#x160;" horiz-adv-x="1198" 
d="M125 1008v133q0 207 106 289t299 81q92 2 270 -17t261 -34v-151q-328 20 -510 20q-121 6 -179 -31t-59 -163v-119q0 -117 45 -151t150 -34h276q330 0 330 -364v-129q0 -219 -133 -293q-110 -61 -281 -61q-106 0 -276 17t-254 36v151q225 -22 392 -22t199 4q107 13 141 71
q24 38 24 95v123q0 90 -35 137t-125 47h-270q-96 0 -168 24q-72 23 -110 57q-93 82 -93 284zM324 1905h159l154 -140l135 140h160l-213 -271h-164z" />
    <glyph glyph-name="scaron" unicode="&#x161;" horiz-adv-x="1036" 
d="M76 727v94q0 133 65 205q66 72 197 72t313 -12t254 -27v-135h-522q-85 0 -102 -29t-17 -78v-82q0 -49 18 -73t37 -27q20 -4 64 -4h305q135 0 204 -74t69 -197v-102q0 -268 -267 -268q-106 0 -312 15t-261 30v131h549q102 0 102 98v86q0 53 -21 78q-22 25 -81 25h-305
q-150 0 -220 60q-69 60 -69 214zM223 1499h160l154 -139l135 139h157l-211 -270h-163z" />
    <glyph glyph-name="Tcommaaccent" unicode="&#x162;" horiz-adv-x="1191" 
d="M84 1317v182h1059v-182h-441v-1317h-188v1317h-430zM635 -96q0 -160 -45 -221t-168 -62h-107v90l103 31q66 29 65 162h152z" />
    <glyph glyph-name="tcommaaccent" unicode="&#x163;" horiz-adv-x="776" 
d="M39 920v127l194 43l41 303h148v-303h297v-170h-297v-519q0 -121 28 -168t82 -61q156 -43 170 -43v-127h-198q-270 0 -271 387v531h-194zM336 -100h153q0 -160 -44 -220t-169 -61h-108v88l104 31q39 16 52 55q12 39 12 107z" />
    <glyph glyph-name="Tcaron" unicode="&#x164;" horiz-adv-x="1191" 
d="M84 1317v182h1059v-182h-441v-1317h-188v1317h-430zM293 1901h160l153 -140l135 140h160l-213 -269h-164z" />
    <glyph glyph-name="tcaron" unicode="&#x165;" horiz-adv-x="778" 
d="M39 920v127l194 43l41 303h148v-303h297v-170h-297v-519q0 -121 28 -168t82 -61q156 -43 170 -43v-127h-198q-270 0 -271 387v531h-194zM711 1638v-137l-23 -274h-119l-22 274l-2 137h166z" />
    <glyph glyph-name="Tbar" unicode="&#x166;" horiz-adv-x="1185" 
d="M63 1317v182h1059v-182h-440v-414h233v-117h-233v-786h-188v786h-234v117h234v414h-431z" />
    <glyph glyph-name="tbar" unicode="&#x167;" horiz-adv-x="755" 
d="M39 920v127l194 43l41 303h148v-303h297v-170h-297v-261h203v-116h-203v-142q0 -170 46 -202q18 -14 116 -40t102 -26v-131h-182q-143 0 -207 88q-63 88 -64 299v154h-159v116h159v261h-194z" />
    <glyph glyph-name="Utilde" unicode="&#x168;" horiz-adv-x="1378" 
d="M154 655v844h188v-844q0 -187 20 -257t35 -105q14 -35 44 -57t53 -36q50 -28 189 -28q140 0 199 18q60 18 89 51q72 79 92 219q12 83 12 195v844h191v-844q0 -190 -37 -322t-83 -198q-46 -67 -133 -101t-143 -39t-108 -5h-66q-92 0 -138 3t-122 20t-116 59t-83 114
q-83 132 -83 469zM715 1653q-80 43 -131 43t-104 -30q-52 -30 -74 -42l-46 92q49 43 80 67q88 68 153 66q66 -2 135 -37t95 -34q53 -2 187 75l47 -96q-4 -2 -39 -33q-81 -71 -152 -93q-71 -21 -151 22z" />
    <glyph glyph-name="utilde" unicode="&#x169;" 
d="M285 338q0 -182 180 -182q90 0 160 24t190 86v821h189v-1087h-142l-47 123q-156 -94 -191 -104q-35 -11 -76 -24t-120 -13q-162 0 -247 103t-85 255v747h189v-749zM438 1292q-38 0 -66 -9t-67 -32t-59 -30l-45 92q93 82 147 107q55 26 103 25t117 -36t96 -35
q57 -2 186 76l47 -96q-80 -80 -163 -118q-82 -38 -194 22q-64 34 -102 34z" />
    <glyph glyph-name="Umacron" unicode="&#x16a;" horiz-adv-x="1378" 
d="M154 655v844h188v-844q0 -187 20 -257t35 -105q14 -35 44 -57t53 -36q50 -28 189 -28q140 0 199 18q60 18 89 51q72 79 92 219q12 83 12 195v844h191v-844q0 -190 -37 -322t-83 -198q-46 -67 -133 -101t-143 -39t-108 -5h-66q-92 0 -138 3t-122 20t-116 59t-83 114
q-83 132 -83 469zM410 1632v137h598v-137h-598z" />
    <glyph glyph-name="umacron" unicode="&#x16b;" 
d="M285 338q0 -182 180 -182q90 0 160 24t190 86v821h189v-1087h-142l-47 123q-156 -94 -191 -104q-35 -11 -76 -24t-120 -13q-162 0 -247 103t-85 255v747h189v-749zM250 1221v139h598v-139h-598z" />
    <glyph glyph-name="Ubreve" unicode="&#x16c;" horiz-adv-x="1378" 
d="M154 655v844h188v-844q0 -187 20 -257t35 -105q14 -35 44 -57t53 -36q50 -28 189 -28q140 0 199 18q60 18 89 51q72 79 92 219q12 83 12 195v844h191v-844q0 -190 -37 -322t-83 -198q-46 -67 -133 -101t-143 -39t-108 -5h-66q-92 0 -138 3t-122 20t-116 59t-83 114
q-83 132 -83 469zM473 1866h102q0 -57 39 -94q40 -37 96 -37q56 -1 94 35t38 96h102q0 -109 -71 -171q-71 -63 -165 -63t-164 65q-71 65 -71 169z" />
    <glyph glyph-name="ubreve" unicode="&#x16d;" 
d="M285 338q0 -182 180 -182q90 0 160 24t190 86v821h189v-1087h-142l-47 123q-156 -94 -191 -104q-35 -11 -76 -24t-120 -13q-162 0 -247 103t-85 255v747h189v-749zM328 1454h102q0 -57 39 -94t95 -37t94 36t38 95h103q0 -109 -72 -171t-165 -62t-164 64q-70 65 -70 169z
" />
    <glyph glyph-name="Uring" unicode="&#x16e;" horiz-adv-x="1378" 
d="M154 655v844h188v-844q0 -187 20 -257t35 -105q14 -35 44 -57t53 -36q50 -28 189 -28q140 0 199 18q60 18 89 51q72 79 92 219q12 83 12 195v844h191v-844q0 -190 -37 -322t-83 -198q-46 -67 -133 -101t-143 -39t-108 -5h-66q-92 0 -138 3t-122 20t-116 59t-83 114
q-83 132 -83 469zM502 1841q0 87 61 149t147 62t147 -61t61 -149t-60 -149t-147 -61q-85 0 -147 60t-62 149zM604 1841q0 -43 31 -74t75 -31t74 32q30 30 31 73q0 43 -31 75q-30 32 -74 32t-75 -32t-31 -75z" />
    <glyph glyph-name="uring" unicode="&#x16f;" 
d="M285 338q0 -182 180 -182q90 0 160 24t190 86v821h189v-1087h-142l-47 123q-156 -94 -191 -104q-35 -11 -76 -24t-120 -13q-162 0 -247 103t-85 255v747h189v-749zM342 1430q0 88 61 149t147 61t147 -61t61 -149t-60 -148t-147 -61q-86 0 -148 60q-61 61 -61 149z
M444 1430q0 -43 31 -74t75 -31t75 31t30 74q-1 42 -31 74t-74 32t-75 -32t-31 -74z" />
    <glyph glyph-name="Uhungarumlaut" unicode="&#x170;" horiz-adv-x="1378" 
d="M154 655v844h188v-844q0 -187 20 -257t35 -105q14 -35 44 -57t53 -36q50 -28 189 -28q140 0 199 18q60 18 89 51q72 79 92 219q12 83 12 195v844h191v-844q0 -190 -37 -322t-83 -198q-46 -67 -133 -101t-143 -39t-108 -5h-66q-92 0 -138 3t-122 20t-116 59t-83 114
q-83 132 -83 469zM487 1632l211 277h209l-266 -277h-154zM776 1632l211 277h209l-266 -277h-154z" />
    <glyph glyph-name="uhungarumlaut" unicode="&#x171;" 
d="M285 338q0 -182 180 -182q90 0 160 24t190 86v821h189v-1087h-142l-47 123q-156 -94 -191 -104q-35 -11 -76 -24t-120 -13q-162 0 -247 103t-85 255v747h189v-749zM328 1221l211 274h209l-267 -274h-153zM616 1221l211 274h209l-266 -274h-154z" />
    <glyph glyph-name="Uogonek" unicode="&#x172;" horiz-adv-x="1378" 
d="M154 655v844h188v-844q0 -187 20 -257t35 -105q14 -35 44 -57t53 -36q50 -28 189 -28q140 0 199 18q60 18 89 51q72 79 92 219q12 83 12 195v844h191v-844q0 -376 -129 -526q-43 -49 -84 -76q-96 -63 -308 -63q-119 -100 -109 -169t124 -69v-133q-84 -14 -154 24t-98 96
t7 130q34 72 138 121q-258 0 -348 97q-41 44 -79 115q-72 135 -72 453z" />
    <glyph glyph-name="uogonek" unicode="&#x173;" 
d="M285 338q0 -182 180 -182q90 0 160 24t190 86v821h189v-1087h-25q-80 -66 -105 -122q-24 -56 8 -88t105 -32v-133q-83 -14 -153 24t-97 98t9 133t143 120h-27l-47 123q-156 -94 -191 -104q-35 -11 -76 -24t-120 -13q-162 0 -247 103t-85 255v747h189v-749z" />
    <glyph glyph-name="Wcircumflex" unicode="&#x174;" horiz-adv-x="1986" 
d="M729 1624l234 268h163l211 -268h-157l-140 139l-151 -139h-160zM86 1499h203l409 -1202l342 1202h209l-129 -455l262 -757l355 1212h202l-452 -1499h-201l-260 725l-227 -725h-201z" />
    <glyph glyph-name="wcircumflex" unicode="&#x175;" horiz-adv-x="1652" 
d="M537 1212l233 269h164l209 -269h-158l-137 140l-152 -140h-159zM39 1087h203l295 -833l258 833h196l-100 -333l221 -500l301 833h203l-397 -1087h-199l-219 496l-164 -496h-207z" />
    <glyph glyph-name="Ycircumflex" unicode="&#x176;" horiz-adv-x="1304" 
d="M350 1624l236 268h164l208 -268h-157l-139 139l-152 -139h-160zM745 0h-188v514l-471 985h205l362 -768l400 768h204l-512 -985v-514z" />
    <glyph glyph-name="ycircumflex" unicode="&#x177;" horiz-adv-x="1146" 
d="M270 1221l234 270h164l209 -270h-158l-137 139l-152 -139h-160zM600 180h10l4 2l287 905h205l-453 -1431l-151 -209h-125l182 553q-195 0 -266 240l-252 847h203l241 -825q21 -63 67 -78q26 -6 34 -5t14 1z" />
    <glyph glyph-name="Ydieresis" unicode="&#x178;" horiz-adv-x="1304" 
d="M745 0h-188v514l-471 985h205l362 -768l400 768h204l-512 -985v-514zM303 1741q0 45 32 76t77 31q46 0 76 -32q30 -30 30 -75t-31 -77t-75 -32t-77 32q-32 32 -32 77zM825 1741q0 45 32 76t77 31t76 -32q30 -30 30 -75t-30 -77t-76 -32q-45 0 -77 32t-32 77z" />
    <glyph glyph-name="Zacute" unicode="&#x179;" horiz-adv-x="1148" 
d="M68 0v182l776 1135h-776v182h1015v-182l-768 -1135h768v-182h-1015zM498 1632l211 277h209l-267 -277h-153z" />
    <glyph glyph-name="zacute" unicode="&#x17a;" horiz-adv-x="942" 
d="M57 911v176h830v-176l-551 -733h551v-176h-799v176l563 733h-594zM395 1221l211 274h209l-266 -274h-154z" />
    <glyph glyph-name="Zdotaccent" unicode="&#x17b;" horiz-adv-x="1148" 
d="M68 0v182l776 1135h-776v182h1015v-182l-768 -1135h768v-182h-1015zM469 1679v123q0 51 49 51h115q47 0 47 -51v-123q0 -47 -47 -47h-115q-49 0 -49 47z" />
    <glyph glyph-name="zdotaccent" unicode="&#x17c;" horiz-adv-x="942" 
d="M57 911v176h830v-176l-551 -733h551v-176h-799v176l563 733h-594zM367 1268v123q0 51 49 51h114q47 0 48 -51v-123q0 -47 -48 -47h-114q-49 0 -49 47z" />
    <glyph glyph-name="Zcaron" unicode="&#x17d;" horiz-adv-x="1148" 
d="M68 0v182l776 1135h-776v182h1015v-182l-768 -1135h768v-182h-1015zM270 1901h160l156 -140l135 140h158l-211 -269h-164z" />
    <glyph glyph-name="zcaron" unicode="&#x17e;" horiz-adv-x="942" 
d="M57 911v176h830v-176l-551 -733h551v-176h-799v176l563 733h-594zM168 1491h160l155 -139l135 139h158l-213 -270h-164z" />
    <glyph glyph-name="florin" unicode="&#x192;" horiz-adv-x="1212" 
d="M225 -246q104 0 153 144q43 126 64 282l97 621h-199l29 172h200l9 63q47 270 124 423q93 179 267 179q106 0 189 -43q15 -8 18 -8l-19 -121h-166q-142 0 -197 -307q-9 -49 -22 -123l-10 -65h274l-28 -170h-275l-96 -621q-36 -230 -74 -333q-39 -103 -78 -152
q-90 -113 -235 -113q-59 0 -125 20t-86 31l16 121h170z" />
    <glyph glyph-name="circumflex" unicode="&#x2c6;" horiz-adv-x="796" 
d="M96 1087l234 269h164l208 -269h-157l-139 140l-150 -140h-160z" />
    <glyph glyph-name="caron" unicode="&#x2c7;" horiz-adv-x="796" 
d="M96 1356h160l154 -139l135 139h157l-210 -269h-164z" />
    <glyph glyph-name="breve" unicode="&#x2d8;" horiz-adv-x="659" 
d="M96 1319h103q0 -57 39 -94t95 -37t94 36t38 95h102q1 -109 -71 -171t-165 -62t-164 64q-71 65 -71 169z" />
    <glyph glyph-name="dotaccent" unicode="&#x2d9;" horiz-adv-x="401" 
d="M96 1133v122q0 51 49 52h115q47 0 47 -52v-122q0 -47 -47 -48h-115q-49 1 -49 48z" />
    <glyph glyph-name="ring" unicode="&#x2da;" horiz-adv-x="606" 
d="M96 1294q0 88 62 150t147 61q87 0 147 -61q60 -62 60 -150t-60 -148t-146 -60t-148 60t-62 148zM199 1294q1 -44 31 -74t74 -30t75 31t31 73t-31 75q-31 32 -75 32t-74 -32t-31 -75z" />
    <glyph glyph-name="ogonek" unicode="&#x2db;" horiz-adv-x="448" 
d="M256 0h90q-82 -66 -106 -122t9 -87q32 -31 105 -33v-131q-84 -14 -154 24t-96 97t10 132t142 120z" />
    <glyph glyph-name="tilde" unicode="&#x2dc;" horiz-adv-x="884" 
d="M433 1126q-65 34 -115 33t-102 -31t-75 -41l-45 93q72 66 127 100t113 32q58 -1 126 -36q69 -35 95 -35q55 -2 188 76l46 -96q-79 -79 -164 -118q-80 -36 -194 23z" />
    <glyph glyph-name="hungarumlaut" unicode="&#x2dd;" horiz-adv-x="788" 
d="M39 1087l209 277h211l-266 -277h-154zM326 1087l211 277h208l-266 -277h-153z" />
    <glyph glyph-name="uni0338" unicode="&#x338;" horiz-adv-x="1308" 
d="M809 182q178 0 178 170v762q0 80 -29 117l-524 -1036q37 -12 76 -13h299zM322 391q0 -61 18 -92l512 1014q-12 4 -41 4h-303q-96 0 -141 -49t-45 -121v-756zM133 340v815q0 166 100 255t261 89h335q179 0 263 -95t84 -245v-819q0 -340 -349 -340h-335q-160 0 -260 83
q-99 83 -99 257z" />
    <glyph glyph-name="Omega" unicode="&#x3a9;" horiz-adv-x="1585" 
d="M159 471q-34 86 -34 340t132 461q71 110 209 176t324 66q662 -2 662 -760q0 -182 -44 -319q-44 -138 -196 -251l250 -20v-164h-479v188q96 66 155 130q102 115 118 290q7 68 8 180q0 543 -469 543q-481 0 -482 -553q0 -113 6 -172t34 -134t86 -138t161 -146v-188h-463
v168l260 20q-141 92 -192 187q-29 53 -46 96z" />
    <glyph glyph-name="pi" unicode="&#x3c0;" horiz-adv-x="1310" 
d="M39 905v182h1135v-182h-242v-553q0 -106 33 -147t108 -41h199v-111q-94 -63 -236 -63t-217 82q-76 82 -76 276v557h-346v-905h-188v905h-170z" />
    <glyph glyph-name="uni1E02" unicode="&#x1e02;" horiz-adv-x="1224" 
d="M522 1673v123q0 51 49 51h115q47 0 47 -51v-123q0 -47 -47 -47h-115q-49 0 -49 47zM344 872h393q215 0 215 224t-215 223h-393v-447zM344 180h395q225 0 226 250q-1 115 -57 191t-169 75h-395v-516zM154 0v1499h587q109 0 190 -35t125 -94q83 -111 85 -264
q0 -274 -195 -328q84 -16 146 -108t61 -246q0 -424 -410 -424h-589z" />
    <glyph glyph-name="uni1E03" unicode="&#x1e03;" horiz-adv-x="1134" 
d="M102 1794v123q0 51 50 51h114q47 0 47 -51v-123q0 -47 -47 -47h-114q-50 0 -50 47zM659 164q190 0 191 377q0 227 -46 309t-145 82q-186 0 -360 -49v-631q197 -88 360 -88zM113 0v1608h184v-584q193 80 383 80q222 0 296 -175q62 -146 62 -390q0 -551 -358 -551
q-92 0 -211 45t-170 86l-43 -119h-143z" />
    <glyph glyph-name="uni1E0A" unicode="&#x1e0a;" horiz-adv-x="1347" 
d="M545 1688v122q0 51 49 52h115q47 0 47 -52v-122q0 -47 -47 -48h-115q-49 1 -49 48zM342 184h383q176 0 262 156t86 434q0 545 -348 545h-383v-1135zM154 0v1499h577q131 0 229 -48t154 -123q55 -75 100 -210t47 -326q1 -192 -29 -320q-69 -296 -256 -409
q-105 -63 -245 -63h-577z" />
    <glyph glyph-name="uni1E0B" unicode="&#x1e0b;" horiz-adv-x="1134" 
d="M817 1780v123q0 51 49 51h115q47 0 47 -51v-123q0 -47 -47 -47h-115q-49 0 -49 47zM285 541q0 -377 188 -377q162 0 363 88v631q-176 49 -363 49q-96 0 -142 -82t-46 -309zM96 539q0 326 93 445q93 120 273 120q181 0 374 -80v584h186v-1608h-143l-43 119
q-51 -41 -170 -86t-213 -45q-357 0 -357 551z" />
    <glyph glyph-name="uni1E1E" unicode="&#x1e1e;" horiz-adv-x="1161" 
d="M541 1673v123q0 51 49 51h115q47 0 47 -51v-123q0 -47 -47 -47h-115q-49 0 -49 47zM152 0v1219q0 149 78 217t198 63q614 -29 651 -33v-151h-633q-48 1 -74 -19t-29 -40t-3 -56v-360l653 -21v-153l-653 -21v-645h-188z" />
    <glyph glyph-name="uni1E1F" unicode="&#x1e1f;" horiz-adv-x="821" 
d="M416 1817v122q0 51 49 52h115q47 0 47 -52v-122q0 -47 -47 -48h-115q-49 1 -49 48zM39 918v135l190 34v203q0 225 126 290q58 30 170 30t257 -49v-119l-235 2q-93 0 -111 -46t-18 -126v-185h287v-169h-287v-918h-189v918h-190z" />
    <glyph glyph-name="uni1E40" unicode="&#x1e40;" horiz-adv-x="1665" 
d="M721 1679v123q0 51 49 51h115q47 0 47 -51v-123q0 -47 -47 -47h-115q-49 0 -49 47zM104 0l109 1499h260l358 -1186l351 1186h258l121 -1499h-187l-94 1163l-346 -1163h-201l-356 1163l-84 -1163h-189z" />
    <glyph glyph-name="uni1E41" unicode="&#x1e41;" horiz-adv-x="1824" 
d="M901 1270v123q0 51 49 51h115q47 0 47 -51v-123q0 -47 -47 -47h-115q-49 0 -49 47zM115 0v1087h141l47 -126q14 10 46 28q31 19 55 33t35 19t34 15t37 15q14 4 37 11q23 6 51 12t104 6t156 -41t115 -113q190 154 426 154q151 0 241 -98t91 -261v-741h-189v743
q0 85 -46 135t-120 50q-211 0 -364 -107v-821h-189v743q0 85 -47 135t-134 50t-153 -23t-186 -86v-819h-188z" />
    <glyph glyph-name="uni1E56" unicode="&#x1e56;" horiz-adv-x="1200" 
d="M487 1692v123q0 51 50 51h114q47 0 47 -51v-123q0 -47 -47 -47h-114q-50 0 -50 47zM307 774h428q92 0 142 56q49 56 47 228t-69 223q-51 38 -120 38h-428v-545zM119 0v1499h622q375 0 375 -442q0 -340 -176 -426q-55 -27 -98 -32q-42 -5 -100 -4t-242 18t-193 22v-635
h-188z" />
    <glyph glyph-name="uni1E57" unicode="&#x1e57;" horiz-adv-x="1134" 
d="M502 1290v123q0 51 49 51h115q47 0 47 -51v-123q0 -47 -47 -47h-115q-49 0 -49 47zM664 156q96 0 142 82t46 307q0 379 -188 379q-166 0 -363 -88v-631q174 -49 363 -49zM115 -553v1640h143l43 -116q51 39 170 84t213 45q356 0 356 -551q0 -321 -97 -451
q-39 -51 -105 -83q-66 -31 -147 -31t-193 22t-199 55v-614h-184z" />
    <glyph glyph-name="uni1E60" unicode="&#x1e60;" horiz-adv-x="1198" 
d="M508 1700v123q0 51 49 51h115q45 0 45 -51v-123q0 -47 -45 -47h-115q-49 0 -49 47zM125 1008v133q0 207 106 289t299 81q92 2 270 -17t261 -34v-151q-328 20 -510 20q-121 6 -179 -31t-59 -163v-119q0 -117 45 -151t150 -34h276q330 0 330 -364v-129q0 -219 -133 -293
q-110 -61 -281 -61q-106 0 -276 17t-254 36v151q225 -22 392 -22t199 4q107 13 141 71q24 38 24 95v123q0 90 -35 137t-125 47h-270q-96 0 -168 24q-72 23 -110 57q-93 82 -93 284z" />
    <glyph glyph-name="uni1E61" unicode="&#x1e61;" horiz-adv-x="1036" 
d="M451 1288v123q0 51 49 51h114q47 0 48 -51v-123q0 -47 -48 -47h-114q-49 0 -49 47zM76 727v94q0 133 65 205q66 72 197 72t313 -12t254 -27v-135h-522q-85 0 -102 -29t-17 -78v-82q0 -49 18 -73t37 -27q20 -4 64 -4h305q135 0 204 -74t69 -197v-102q0 -268 -267 -268
q-106 0 -312 15t-261 30v131h549q102 0 102 98v86q0 53 -21 78q-22 25 -81 25h-305q-150 0 -220 60q-69 60 -69 214z" />
    <glyph glyph-name="uni1E6A" unicode="&#x1e6a;" horiz-adv-x="1191" 
d="M492 1679v123q0 51 49 51h114q47 0 47 -51v-123q0 -47 -47 -47h-114q-49 0 -49 47zM84 1317v182h1059v-182h-441v-1317h-188v1317h-430z" />
    <glyph glyph-name="uni1E6B" unicode="&#x1e6b;" horiz-adv-x="776" 
d="M238 1565v123q0 51 49 51h114q47 0 48 -51v-123q0 -47 -48 -47h-114q-49 0 -49 47zM39 920v127l194 43l41 303h148v-303h297v-170h-297v-519q0 -121 28 -168t82 -61q156 -43 170 -43v-127h-198q-270 0 -271 387v531h-194z" />
    <glyph glyph-name="Wgrave" unicode="&#x1e80;" horiz-adv-x="1986" 
d="M686 1898h211l209 -274h-154zM86 1499h203l409 -1202l342 1202h209l-129 -455l262 -757l355 1212h202l-452 -1499h-201l-260 725l-227 -725h-201z" />
    <glyph glyph-name="wgrave" unicode="&#x1e81;" horiz-adv-x="1652" 
d="M494 1487h211l208 -275h-153zM39 1087h203l295 -833l258 833h196l-100 -333l221 -500l301 833h203l-397 -1087h-199l-219 496l-164 -496h-207z" />
    <glyph glyph-name="Wacute" unicode="&#x1e82;" horiz-adv-x="1986" 
d="M954 1624l211 274h209l-266 -274h-154zM86 1499h203l409 -1202l342 1202h209l-129 -455l262 -757l355 1212h202l-452 -1499h-201l-260 725l-227 -725h-201z" />
    <glyph glyph-name="wacute" unicode="&#x1e83;" horiz-adv-x="1652" 
d="M762 1212l209 275h211l-267 -275h-153zM39 1087h203l295 -833l258 833h196l-100 -333l221 -500l301 833h203l-397 -1087h-199l-219 496l-164 -496h-207z" />
    <glyph glyph-name="Wdieresis" unicode="&#x1e84;" horiz-adv-x="1986" 
d="M1182 1733q0 45 32 75t76 31q45 0 76 -31q31 -32 31 -76t-31 -76t-76 -32t-77 32q-31 32 -31 77zM659 1733q0 45 32 75t77 31q45 0 76 -31q30 -32 30 -76t-30 -76t-76 -32q-45 0 -77 32t-32 77zM86 1499h203l409 -1202l342 1202h209l-129 -455l262 -757l355 1212h202
l-452 -1499h-201l-260 725l-227 -725h-201z" />
    <glyph glyph-name="wdieresis" unicode="&#x1e85;" horiz-adv-x="1652" 
d="M991 1321q0 45 32 76t77 31t76 -32q30 -30 30 -75t-30 -77t-76 -32q-45 0 -77 32t-32 77zM469 1321q0 45 32 76t77 31q46 0 76 -32q30 -30 30 -75t-31 -77t-75 -32t-77 32q-32 32 -32 77zM39 1087h203l295 -833l258 833h196l-100 -333l221 -500l301 833h203l-397 -1087
h-199l-219 496l-164 -496h-207z" />
    <glyph glyph-name="Ygrave" unicode="&#x1ef2;" horiz-adv-x="1304" 
d="M328 1909h211l211 -277h-156zM745 0h-188v514l-471 985h205l362 -768l400 768h204l-512 -985v-514z" />
    <glyph glyph-name="ygrave" unicode="&#x1ef3;" horiz-adv-x="1146" 
d="M248 1495h209l211 -274h-154zM600 180h10l4 2l287 905h205l-453 -1431l-151 -209h-125l182 553q-195 0 -266 240l-252 847h203l241 -825q21 -63 67 -78q26 -6 34 -5t14 1z" />
    <glyph glyph-name="endash" unicode="&#x2013;" horiz-adv-x="1050" 
d="M41 500v178h969v-178h-969z" />
    <glyph glyph-name="emdash" unicode="&#x2014;" horiz-adv-x="1507" 
d="M41 504v178h1425v-178h-1425z" />
    <glyph glyph-name="quoteleft" unicode="&#x2018;" horiz-adv-x="546" 
d="M154 1118v221q0 61 24 103t56 55q65 28 122 23l25 -4v-84q-68 2 -68 -68v-53h25q55 0 55 -56v-137q0 -61 -55 -61h-133q-51 0 -51 61z" />
    <glyph glyph-name="quoteright" unicode="&#x2019;" horiz-adv-x="546" 
d="M154 1323v137q0 59 55 60h133q51 0 51 -60v-221q0 -156 -147 -179q-33 -5 -58 -3l-22 4v82q68 0 67 71v52h-24q-55 0 -55 57z" />
    <glyph glyph-name="quotesinglbase" unicode="&#x201a;" horiz-adv-x="546" 
d="M154 55v138q0 61 55 61h133q51 0 51 -61v-222q1 -63 -23 -104t-58 -55q-71 -29 -124 -21l-22 2v84q68 -2 67 70v51h-24q-55 0 -55 57z" />
    <glyph glyph-name="quotedblleft" unicode="&#x201c;" horiz-adv-x="860" 
d="M481 1118v221q0 61 24 103q23 42 57 55q67 28 126 23l23 -4v-84q-70 2 -70 -68v-53h25q55 0 55 -56v-137q0 -61 -55 -61h-131q-54 0 -54 61zM139 1118v221q0 61 24 103q23 42 57 55q67 28 124 23l25 -4v-84q-70 2 -70 -68v-53h25q57 0 57 -56v-137q0 -61 -57 -61h-131
q-54 0 -54 61z" />
    <glyph glyph-name="quotedblright" unicode="&#x201d;" horiz-adv-x="860" 
d="M139 1321v137q0 61 56 62h131q55 0 55 -62v-221q0 -61 -24 -102t-73 -62t-112 -16l-22 4v82q70 -2 69 69v54h-24q-56 0 -56 55zM481 1321v137q0 61 56 62h131q53 0 53 -62v-221q0 -61 -24 -102t-73 -62t-108 -16l-24 4v82q70 -2 69 69v54h-24q-56 0 -56 55z" />
    <glyph glyph-name="quotedblbase" unicode="&#x201e;" horiz-adv-x="860" 
d="M139 55v138q0 61 56 61h131q55 0 55 -61v-222q0 -63 -24 -104q-23 -41 -57 -55q-72 -30 -128 -21l-22 2v84q70 -2 69 70v51h-24q-56 0 -56 57zM481 55v138q0 61 56 61h131q53 0 53 -61v-222q0 -63 -24 -104q-23 -41 -57 -55q-72 -30 -124 -21l-24 2v84q70 -2 69 70v51
h-24q-56 0 -56 57z" />
    <glyph glyph-name="dagger" unicode="&#x2020;" horiz-adv-x="817" 
d="M39 981v149l272 21l17 426h164l18 -426l270 -21v-149l-270 -23l-21 -1105h-163l-15 1105z" />
    <glyph glyph-name="daggerdbl" unicode="&#x2021;" horiz-adv-x="854" 
d="M39 340v149l274 23l-2 446l-272 23v149l272 21l19 426h162l18 -426l270 -21v-149l-270 -23l-6 -446l276 -23v-149l-282 -23l-9 -464h-163l-9 464z" />
    <glyph glyph-name="bullet" unicode="&#x2022;" horiz-adv-x="636" 
d="M162 688v184q0 72 67 72h174q72 0 72 -72v-184q0 -66 -72 -65h-174q-67 -1 -67 65z" />
    <glyph glyph-name="ellipsis" unicode="&#x2026;" horiz-adv-x="1665" 
d="M322 47v135q0 51 49 51h127q51 0 51 -51v-135q0 -47 -51 -47h-127q-49 0 -49 47zM713 47v135q0 51 49 51h127q51 0 51 -51v-135q0 -47 -51 -47h-127q-49 0 -49 47zM1102 47v135q0 51 49 51h127q51 0 51 -51v-135q0 -47 -51 -47h-127q-49 0 -49 47z" />
    <glyph glyph-name="perthousand" unicode="&#x2030;" horiz-adv-x="2826" 
d="M80 975v266q0 135 59 197t209 61h207q145 0 203 -61t59 -197v-266q0 -137 -58 -199t-208 -61h-207q-145 0 -205 61q-59 62 -59 199zM231 983q0 -69 26 -93t95 -24h191q79 0 101 24t22 93v248q0 69 -25 93t-94 24h-191q-78 0 -102 -24t-23 -93v-248zM455 0l901 1499h162
l-900 -1499h-163zM1143 264v266q0 134 58 196t208 62h207q144 0 204 -61t60 -197v-266q0 -135 -59 -197t-209 -63h-207q-145 0 -203 62t-59 198zM1294 272q0 -70 25 -94t94 -22h191q80 0 102 24t23 92v248q0 70 -26 94t-95 23h-191q-79 0 -101 -24t-22 -93v-248zM2009 264
v266q0 134 59 196t209 62h207q146 0 204 -61t58 -197v-266q0 -137 -58 -198t-208 -62h-207q-145 0 -205 62t-59 198zM2161 272q-1 -68 25 -92t95 -24h191q80 0 102 24t21 92v248q0 70 -25 94t-94 23h-190q-80 0 -103 -24t-22 -93v-248z" />
    <glyph glyph-name="guilsinglleft" unicode="&#x2039;" horiz-adv-x="729" 
d="M96 725l422 416l119 -119l-303 -297l313 -305l-119 -121z" />
    <glyph glyph-name="guilsinglright" unicode="&#x203a;" horiz-adv-x="729" 
d="M96 420l312 305l-304 297l121 119l422 -416l-432 -426z" />
    <glyph glyph-name="fraction" unicode="&#x2044;" horiz-adv-x="526" 
d="M-172 0l719 1511h151l-716 -1511h-154z" />
    <glyph glyph-name="zerosuperior" unicode="&#x2070;" horiz-adv-x="956" 
d="M115 1044v515q0 231 247 231h240q238 0 238 -229v-517q0 -133 -60 -181t-178 -48h-240q-119 0 -183 47t-64 182zM270 1063q0 -59 23 -79t90 -21h197q68 1 90 23t20 77v479q0 53 -22 77q-23 24 -86 23h-201q-67 0 -89 -26t-22 -74v-479z" />
    <glyph glyph-name="foursuperior" unicode="&#x2074;" horiz-adv-x="860" 
d="M565 1204v238l56 98h98v-336h115v-125l-115 -24v-238h-154v232h-489l-45 61l405 680h168l-350 -586h311z" />
    <glyph glyph-name="fivesuperior" unicode="&#x2075;" horiz-adv-x="856" 
d="M104 956h422q100 0 101 105v102q0 86 -41 106q-23 11 -58 11h-209q-86 0 -86 -92h-127l31 602h613v-148h-474l-14 -256q47 47 206 42q81 -3 85 -3q115 -3 171 -69t56 -180v-132q0 -123 -63 -180t-170 -57q-275 0 -443 29v120z" />
    <glyph glyph-name="sixsuperior" unicode="&#x2076;" horiz-adv-x="899" 
d="M788 1655h-399q-90 0 -111 -105q-16 -75 -20 -182q205 29 337 29q132 -1 179 -59t47 -156v-146q0 -111 -60 -166t-165 -55h-217q-207 0 -254 251q-21 106 -20 256t21 246q34 159 137 211q121 57 525 -3v-121zM258 1251q0 -287 133 -286h187q48 -1 70 21t22 73v110
q0 49 -22 65t-68 17h-322z" />
    <glyph glyph-name="sevensuperior" unicode="&#x2077;" horiz-adv-x="768" 
d="M29 1647v147h669l39 -72l-372 -907h-170l344 832h-510z" />
    <glyph glyph-name="eightsuperior" unicode="&#x2078;" horiz-adv-x="952" 
d="M127 1030v111q0 119 113 149q-113 41 -113 189v82q0 133 64 186q65 53 182 53h225q117 0 173 -55t56 -182v-80q4 -27 -8 -67q-21 -72 -92 -87q51 -8 76 -65t24 -115v-117q0 -219 -223 -219h-244q-137 -1 -185 59t-48 158zM279 1044q0 -45 20 -64t78 -19h207q90 0 90 83
v95q0 98 -88 98h-211q-96 0 -96 -98v-95zM279 1485q0 -102 96 -103h203q40 0 64 18t28 36q4 20 4 49v59q0 66 -24 88t-81 23h-180q-63 0 -87 -23t-23 -88v-59z" />
    <glyph glyph-name="ninesuperior" unicode="&#x2079;" horiz-adv-x="899" 
d="M86 1436v147q0 111 61 166t164 55h217q64 0 110 -20q168 -72 164 -490q-3 -295 -76 -390q-38 -48 -77 -66t-96 -25q-207 -18 -434 25v123h399q127 0 133 288q-223 -31 -346 -31t-171 60t-48 158zM330 1655q-92 0 -90 -96v-109q0 -48 20 -66t68 -18h323q0 289 -129 289
h-192z" />
    <glyph glyph-name="zeroinferior" unicode="&#x2080;" horiz-adv-x="956" 
d="M115 -178v512q0 233 247 233h240q238 0 238 -231v-514q0 -133 -60 -182t-178 -50h-240q-117 0 -182 48t-65 184zM270 -160q0 -59 23 -81t90 -21h197q68 0 90 22t20 80v477q0 55 -21 78q-22 23 -87 23h-201q-70 0 -90 -25t-21 -76v-477z" />
    <glyph glyph-name="oneinferior" unicode="&#x2081;" horiz-adv-x="552" 
d="M430 569v-977h-151v822l-248 -66v111l248 110h151z" />
    <glyph glyph-name="twoinferior" unicode="&#x2082;" horiz-adv-x="800" 
d="M61 434v117q266 33 385 33q274 0 275 -285q0 -242 -391 -559h391v-148h-653v140q12 10 80 61q225 167 321 285q96 117 95 203q-1 85 -36 119t-120 34h-347z" />
    <glyph glyph-name="threeinferior" unicode="&#x2083;" horiz-adv-x="833" 
d="M567 -115q0 125 -137 129l-283 11v116l283 15q139 6 139 118v41q0 111 -139 111h-373v109q113 38 225 38h187q123 -1 187 -69t65 -172v-70q0 -70 -29 -118t-76 -64q104 -59 105 -197v-53q-1 -119 -61 -182t-201 -64h-177q-105 0 -216 37l2 109l354 2q82 0 114 26t31 86
v41z" />
    <glyph glyph-name="fourinferior" unicode="&#x2084;" horiz-adv-x="862" 
d="M567 -20v237l56 100h98v-337h115v-125l-115 -23v-240h-154v234h-491l-45 61l405 680h170l-348 -587h309z" />
    <glyph glyph-name="fiveinferior" unicode="&#x2085;" horiz-adv-x="856" 
d="M750 567v-149h-474l-14 -254q38 35 144 40t149 -3q115 -2 171 -69t56 -181v-131q0 -121 -64 -179t-171 -59q-272 0 -443 31v121h424q100 0 101 104v101q0 87 -41 106q-23 10 -58 10h-208q-86 0 -86 -88h-130l31 600h613z" />
    <glyph glyph-name="sixinferior" unicode="&#x2086;" horiz-adv-x="899" 
d="M788 432h-399q-43 0 -72 -28q-52 -50 -59 -259q205 29 336 29t179 -58t48 -157v-147q0 -111 -60 -165t-165 -55h-217q-63 0 -109 20q-168 76 -165 486q1 150 21 246q35 162 137 211q40 18 95 23q213 16 430 -25v-121zM258 29q0 -289 133 -289h187q48 0 70 22t22 74v109
q0 49 -22 66t-68 18h-322z" />
    <glyph glyph-name="seveninferior" unicode="&#x2087;" horiz-adv-x="768" 
d="M29 422v147h669l39 -71l-372 -906h-170l344 830h-510z" />
    <glyph glyph-name="eightinferior" unicode="&#x2088;" horiz-adv-x="952" 
d="M127 -82q0 119 113 150q-113 39 -113 186v84q0 240 246 240h225q117 0 173 -56t56 -184v-78q4 -32 -9 -69q-24 -70 -91 -85q51 -10 76 -68t24 -114v-117q0 -219 -223 -219h-244q-137 0 -185 60t-48 157v113zM279 -84v-94q0 -46 20 -66t78 -20h207q90 0 90 86v94
q0 96 -88 96h-211q-49 0 -73 -21q-23 -22 -23 -75zM279 260q0 -102 96 -102h203q96 0 96 102v62q0 66 -24 88t-81 20h-180q-63 0 -87 -22t-23 -86v-62z" />
    <glyph glyph-name="nineinferior" unicode="&#x2089;" horiz-adv-x="899" 
d="M86 213v145q0 111 61 166t164 56h217q64 0 110 -20t86 -74q81 -106 78 -409t-76 -395q-38 -48 -77 -66t-96 -26q-211 -18 -434 25v121h399q127 0 133 289q-209 -29 -339 -29t-178 60t-48 157zM240 225q0 -49 20 -66t68 -18h323q0 291 -129 291h-192q-90 0 -90 -96v-111z
" />
    <glyph glyph-name="Euro" unicode="&#x20ac;" horiz-adv-x="1253" 
d="M881 520q-31 0 -81 -2t-226 -7t-173 -7q0 -340 316 -340q202 0 418 29l82 8v-140q-233 -74 -519 -73q-130 0 -220 41q-89 41 -140 93t-88 151t-37 231l-174 16v107l174 16v188l-174 17v98l174 21q0 211 51 319q104 229 434 230q80 0 240 -20t270 -46v-143
q-324 29 -452 29t-186 -19q-60 -18 -93 -46t-54 -91t-22 -213l480 -17v-106l-480 -13v-188l480 -16v-107z" />
    <glyph glyph-name="afii61289" unicode="&#x2113;" horiz-adv-x="831" 
d="M362 1262v-439q215 285 160 459q-8 35 -48 52t-76 -1t-36 -71zM672 0h-217q-149 2 -215 89t-66 294v84q-25 -20 -63 -41l-54 86q39 33 117 115v643q2 112 77 178t195 66t192 -86q73 -86 75 -230q1 -144 -97 -310t-254 -298v-184q2 -138 27 -180t109 -58q0 -2 86 -22
t88 -19v-127z" />
    <glyph glyph-name="afii61352" unicode="&#x2116;" horiz-adv-x="2197" 
d="M137 0v1311q-1 88 55 141t126 59q70 7 141 -31q70 -38 96 -114l479 -1165q10 -27 30 -23q19 4 19 29v956q-1 176 95 259t249 83l420 -2q154 -4 214 -90q61 -86 61 -272q0 -187 -62 -273t-219 -88h-123q-162 2 -220 100t-58 367h151q0 -246 56 -294q20 -17 36 -20t48 -3
h98q73 0 107 36t34 150t-17 162q-17 47 -44 57t-84 13q-213 4 -355 4q-199 0 -198 -197v-967q0 -104 -86 -162t-187 -31q-100 28 -137 138l-485 1178q-8 23 -30 17t-21 -32v-1296h-189z" />
    <glyph glyph-name="trademark" unicode="&#x2122;" horiz-adv-x="1423" 
d="M39 1360v139h543v-139h-199v-576h-145v576h-199zM649 784l62 715h145l172 -467l148 467h151l70 -715h-148l-35 404l-120 -404h-125l-144 406l-30 -406h-146z" />
    <glyph glyph-name="estimated" unicode="&#x212e;" horiz-adv-x="1462" 
d="M342 582q0 -18 18 -19h732q26 0 26 2v13v272q0 66 -129 134t-245 69q-116 0 -212 -39q-94 -39 -142 -82t-48 -70v-280zM348 528q-6 0 -6 -22v-273q0 -51 116 -121t251 -69q135 0 240 48t173 124h115q-119 -125 -235 -170t-271 -45q-283 0 -449 154t-167 388
q0 234 172 396q172 154 434 154t438 -136t189 -428h-1000z" />
    <glyph glyph-name="partialdiff" unicode="&#x2202;" horiz-adv-x="1314" 
d="M109 465q0 231 136 359q137 128 363 128t361 -116q-13 282 -99 390t-280 108t-361 -105l-47 127q86 55 135 84q49 28 127 52t160 24q555 0 555 -723q0 -327 -125 -555q-64 -115 -170 -182t-246 -66q-217 0 -363 122t-146 353zM297 471q0 -141 93 -220q92 -79 208 -79
t189 60t109 150q69 173 71 314q-135 74 -326 74q-344 0 -344 -299z" />
    <glyph glyph-name="uni2206" unicode="&#x2206;" horiz-adv-x="1476" 
d="M39 0l637 1499h151l613 -1499h-1401zM313 180h873l-428 1057z" />
    <glyph glyph-name="product" unicode="&#x220f;" horiz-adv-x="1320" 
d="M39 1317v182h1245v-182h-172v-1317h-188v1317h-527v-1317h-188v1317h-170z" />
    <glyph glyph-name="summation" unicode="&#x2211;" horiz-adv-x="1189" 
d="M76 1499h1077v-182h-848l436 -764l-436 -774h848v-189h-1077v189l438 774l-438 764v182z" />
    <glyph glyph-name="minus" unicode="&#x2212;" horiz-adv-x="933" 
d="M41 641v176h852v-176h-852z" />
    <glyph glyph-name="radical" unicode="&#x221a;" horiz-adv-x="1302" 
d="M39 557v182h289l241 -479l502 1378h195l-594 -1638h-176l-289 557h-168z" />
    <glyph glyph-name="infinity" unicode="&#x221e;" horiz-adv-x="1595" 
d="M96 698q0 354 340 355q219 0 361 -209q61 94 156 151t208 58q340 0 340 -355q0 -158 -79 -255t-261 -97q-240 0 -366 215q-68 -117 -154 -166t-205 -49q-182 0 -261 97t-79 255zM266 701q0 -93 37 -141t137 -48q145 0 275 186q-51 78 -126 133t-149 56q-114 -1 -144 -47
t-30 -139zM1155 512q176 0 176 186q0 94 -33 142t-125 47q-93 1 -167 -55t-125 -134q125 -186 274 -186z" />
    <glyph glyph-name="integral" unicode="&#x222b;" horiz-adv-x="903" 
d="M39 -246h168q71 0 103 72q46 103 46 354v856q0 442 149 556q61 46 127 46q112 0 146 -13q79 -30 88 -38v-121h-166q-102 0 -131 -143q-24 -120 -24 -287v-856q0 -450 -139 -554q-59 -44 -175 -44t-192 51v121z" />
    <glyph glyph-name="approxequal" unicode="&#x2248;" horiz-adv-x="1075" 
d="M396 664q62 0 154 -38t143 -38q52 0 84 8t83 35t74 37l45 -99q-6 -6 -55 -46q-124 -101 -219 -101q-66 0 -158 39t-158 39t-140 -34q-75 -34 -110 -44l-43 96q55 47 87 71q32 23 92 49q59 26 121 26zM396 1028q62 0 154 -38t143 -38q52 0 84 8t83 36q51 26 74 36l45 -98
q-6 -6 -55 -46q-122 -100 -218 -101q-67 -1 -159 38q-93 39 -147 39t-93 -12t-86 -34t-82 -32l-43 97q55 47 87 71t92 48q59 26 121 26z" />
    <glyph glyph-name="notequal" unicode="&#x2260;" horiz-adv-x="950" 
d="M39 418v186h303l143 238h-446v184h557l90 148h131l-90 -148h186v-184h-297l-143 -238h440v-186h-551l-102 -170h-131l102 170h-192z" />
    <glyph glyph-name="lessequal" unicode="&#x2264;" horiz-adv-x="958" 
d="M96 201v170h768v-170h-768zM96 793v190l768 315v-190l-538 -219l538 -240v-194z" />
    <glyph glyph-name="greaterequal" unicode="&#x2265;" horiz-adv-x="958" 
d="M96 201v170h770v-170h-770zM98 455v194l537 240l-537 219v190l768 -315v-190z" />
    <glyph glyph-name="lozenge" unicode="&#x25ca;" horiz-adv-x="1062" 
d="M39 764l424 735h151l412 -735l-412 -764h-151zM248 764l291 -518l278 518l-278 498z" />
    <glyph glyph-name="f_f" unicode="&#xfb00;" horiz-adv-x="1607" 
d="M39 918v135l203 34v183q0 319 264 319q129 0 287 -49v-119l-234 2q-92 0 -111 -45q-18 -45 -18 -125v-166h588v203q0 225 126 290q58 30 170 30t257 -49v-119l-236 2q-92 0 -111 -47q-18 -47 -18 -125v-185h283v-169h-287v-918h-188v918h-588v-918h-188v918h-199z" />
    <glyph glyph-name="f_f_i" unicode="&#xfb03;" horiz-adv-x="2009" 
d="M39 918v135l203 34v183q0 319 264 319q129 0 287 -49v-119l-234 2q-93 0 -111 -47t-18 -123l-4 -166h553v101q0 184 113 302t301 120q75 0 205 -22t204 -44v-121l-356 21q-72 4 -130 -14t-104 -80t-45 -164v-99l729 -20v-1067h-190v918h-541v-918h-188v918h-551v-918
h-188v918h-199z" />
    <glyph glyph-name="ffl" unicode="&#xfb04;" horiz-adv-x="2217" 
d="M39 918v135l203 34v183q0 319 264 319q129 0 287 -49v-119l-234 2q-92 0 -111 -45q-18 -45 -18 -125l-4 -166h555v105q0 190 87 302t265 112h568v-1207q1 -123 23 -167t87 -62q156 -43 170 -43v-127h-194q-147 0 -211 87q-63 87 -64 300v1057h-338q-104 0 -154 -53
t-51 -199v-105h285v-169h-289v-918h-188v918h-551v-918h-188v918h-199z" />
    <glyph glyph-name="s_t" unicode="&#xfb06;" horiz-adv-x="1812" 
d="M76 717v98q0 274 286 275h918l39 303h149v-303h297v-166h-297v-523q0 -137 22 -175t91 -54q147 -39 152 -39v-131h-183q-145 0 -208 87q-62 87 -62 300v531l-897 -2q-85 0 -102 -29t-17 -80v-84q0 -49 18 -73t37 -28q20 -4 64 -3h305q135 0 204 -74t69 -197v-92
q0 -268 -267 -268q-96 0 -308 15t-265 30v131h549q102 0 102 98v76q0 53 -21 78q-22 25 -81 24h-305q-149 0 -219 60t-70 215z" />
    <glyph glyph-name="exclamdown.alt" horiz-adv-x="552" 
d="M162 1315v135q0 47 47 47h131q49 0 49 -47v-135q0 -51 -49 -51h-131q-47 0 -47 51zM170 0l18 1096h174l19 -1096h-211z" />
    <glyph glyph-name="zero.oldstyle" horiz-adv-x="1308" 
d="M133 340v608q0 166 100 255t261 89h335q179 0 263 -92t84 -248v-612q0 -340 -349 -340h-335q-160 0 -260 83q-99 83 -99 257zM322 354q0 -92 54 -132t134 -40h299q178 0 178 170v588q0 170 -176 170h-303q-96 0 -141 -48t-45 -122v-586z" />
    <glyph glyph-name="one.oldstyle" horiz-adv-x="735" 
d="M575 1294v-1294h-188v1092l-330 -101v129l330 174h188z" />
    <glyph glyph-name="two.oldstyle" horiz-adv-x="1216" 
d="M78 1124v140q348 53 620 45q216 1 320 -101t104 -286q0 -96 -59 -202q-102 -182 -322 -348q-148 -115 -282 -190h655v-182h-1024v170q390 219 518 324q219 175 282 284q42 74 42 140q0 110 -62 160t-198 46h-594z" />
    <glyph glyph-name="three.oldstyle" horiz-adv-x="1247" 
d="M581 -209q-312 0 -472 57l2 127h585q102 0 160 36q57 36 57 141v106q0 190 -204 201l-473 12v152l473 20q209 6 209 186v123q0 90 -60 132t-149 42h-613v125q146 54 417 59q110 1 237 -1q166 -3 261 -99t95 -245v-134q0 -225 -141 -280q141 -78 141 -297v-113
q0 -350 -371 -350h-154z" />
    <glyph glyph-name="four.oldstyle" horiz-adv-x="1243" 
d="M844 352v404l71 153h117v-557h174v-147l-174 -41v-365h-188v365h-735l-70 90l623 1040h217l-560 -942h525z" />
    <glyph glyph-name="five.oldstyle" horiz-adv-x="1263" 
d="M145 -20h611q94 0 134 52t40 126v200q0 66 -18 106q-34 73 -152 75h-283q-67 0 -111 -36t-44 -110h-172l45 901h876v-182h-700l-23 -453q43 47 150 58q58 8 258 3t281 -98t81 -253v-228q0 -266 -233 -338q-55 -16 -113 -16q-208 0 -320 8t-307 41v144z" />
    <glyph glyph-name="six.oldstyle" horiz-adv-x="1267" 
d="M125 790q0 541 224 679q60 38 128 40q305 8 627 -39v-141h-569q-66 0 -112 -50q-106 -115 -110 -435q291 41 495 41t274 -84t71 -232v-258q0 -313 -338 -313h-303q-72 0 -127 20q-260 95 -260 772zM313 707q0 -277 53 -400q22 -51 66 -89t105 -38h264q84 0 125 31t41 125
v223q0 147 -164 148h-490z" />
    <glyph glyph-name="seven.oldstyle" horiz-adv-x="1122" 
d="M57 1112v182h947l61 -106l-530 -1393h-218l510 1317h-770z" />
    <glyph glyph-name="eight.oldstyle" horiz-adv-x="1292" 
d="M143 324v186q0 170 170 223q-170 63 -170 289v133q1 195 97 275t270 79h303q170 0 254 -84t84 -270v-127q0 -134 -69 -197q-34 -31 -85 -40q78 -13 116 -101t38 -172v-192q0 -220 -161 -290q-79 -36 -179 -36h-301q-102 0 -175 27t-109 59t-56 85q-20 52 -24 83
q-3 31 -3 70zM332 328q0 -147 192 -148h269q73 0 121 38t49 110v194q1 76 -47 116t-117 40h-295q-172 0 -172 -156v-194zM332 1012q0 -86 52 -123t120 -37h293q166 0 166 160v127q0 104 -42 148t-126 44h-271q-102 0 -147 -37t-45 -155v-127z" />
    <glyph glyph-name="nine.oldstyle" horiz-adv-x="1267" 
d="M115 725v256q0 313 340 313h301q92 0 158 -34t120 -117q111 -170 111 -637q-1 -375 -103 -547t-249 -176q-381 -8 -629 39v141h571q209 0 221 488q-278 -43 -488 -43t-282 85q-71 85 -71 232zM301 733q0 -147 166 -147h489q0 373 -100 475q-49 51 -123 51h-266
q-84 0 -125 -31t-41 -125v-223z" />
    <glyph glyph-name="questiondown.alt" horiz-adv-x="1107" 
d="M76 373v190q0 201 132 284t357 54v201h174v-350q-137 2 -274 0q-86 -4 -144 -50t-59 -139v-182q0 -111 64 -161t202 -50l543 2v-141q-19 -3 -73 -11t-71 -10t-65 -8t-70 -8q-90 -8 -140 -8h-73q-42 0 -85 2q-217 0 -318 108q-100 109 -100 277zM543 1319v135q0 47 49 47
h129q49 0 49 -47v-135q0 -51 -49 -51h-129q-49 0 -49 51z" />
    <glyph glyph-name="at.alt" horiz-adv-x="1744" 
d="M492 1223h428q139 0 232 -67t93 -230v-752h-133l-33 127l-18 -14q-39 -32 -106 -66q-124 -65 -234 -66q-111 -1 -185 71t-71 177v103q0 129 72 203t202 73h336q2 137 0 138q0 76 -38 102t-122 27h-423q-90 0 -142 -37t-51 -148v-678q0 -215 193 -215h706q121 1 166 53
t45 162v1018q0 115 -57 175t-154 61h-827v116q279 57 598 56l229 -2q174 -2 278 -104t105 -302v-1018q0 -389 -381 -389h-708q-168 -1 -266 97t-99 286l-2 688q0 162 89 259q36 38 109 67t169 29zM641 424q0 -35 35 -66t82 -30q133 0 317 104v227l-319 -28q-55 -6 -86 -40
t-29 -85v-82z" />
    <glyph glyph-name="g.salt" horiz-adv-x="1136" 
d="M480 1102q192 0 542 -51v-1239q0 -184 -106 -284t-246 -85l-520 49v125h509q174 0 175 195v251q-178 -80 -355 -79q-225 0 -304 153t-79 417t96 406t288 142zM285 542q0 -56 1 -84q5 -138 22 -174q44 -94 89 -111t97 -17q164 0 340 49v727h-340q-100 0 -145 -69t-54 -136
q-8 -67 -9 -98t-1 -87z" />
    <glyph glyph-name="ampersand.salt" horiz-adv-x="1955" 
d="M84 604v180q0 209 106 277t349 67h897l37 291h151v-295h293v-129l-293 -41v-553q0 -307 -318 -383q-81 -18 -176 -18h-335q-193 0 -293 67t-101 252q-127 0 -222 70t-95 215zM1130 174q135 0 221 56q85 56 85 171v553h-895q-160 0 -214 -28t-55 -142v-178q0 -59 38 -89
t91 -30q0 181 88 261t269 79h233q218 0 276 -120q26 -55 25 -142q0 -149 -68 -197t-235 -49h-399q0 -85 40 -110l24 -16q22 -15 67 -15l76 -4h333zM590 487h399q53 0 71 3q44 7 44 73q0 65 -20 81t-95 15h-229q-94 -1 -132 -29t-38 -143z" />
    <glyph glyph-name="a.superior" horiz-adv-x="761" 
d="M59 950v88q-1 84 55 136t156 51q264 0 265 2q2 53 0 55q0 98 -119 98q-70 0 -332 -16v100q135 41 352 49q112 2 182 -51t70 -166v-522h-106l-45 98q-4 -6 -44 -30t-107 -50q-68 -26 -138 -26t-130 51t-59 133zM209 979q0 -76 88 -76t203 51l35 17v159l-244 -22
q-82 -8 -82 -80v-49z" />
    <glyph glyph-name="b.superior" horiz-adv-x="817" 
d="M72 774v1073h153v-391q141 60 233 60q151 1 219 -80q69 -80 73 -299q0 -371 -269 -371q-127 0 -256 98l-45 -90h-108zM455 909q141 0 141 230q0 141 -34 189t-112 48t-225 -33v-378q87 -35 131 -45q44 -11 99 -11z" />
    <glyph glyph-name="c.superior" horiz-adv-x="737" 
d="M59 1137q0 217 67 295t205 78t333 -46v-106q-166 10 -256 10t-109 -4q-20 -4 -44 -26q-42 -38 -42 -189t33 -197t116 -47l312 15v-109q-131 -43 -348 -47q-129 0 -198 78t-69 295z" />
    <glyph glyph-name="d.superior" horiz-adv-x="811" 
d="M59 1137q0 164 50 272q50 109 217 109q119 0 256 -60v393h149v-1077h-106l-45 90q-129 -98 -254 -98q-267 0 -267 371zM213 1139q0 -229 139 -230q127 0 228 56v378q-122 33 -212 33t-122 -47t-33 -190z" />
    <glyph glyph-name="e.superior" horiz-adv-x="800" 
d="M59 1128q0 202 68 290q68 89 275 89t270 -66t63 -200q0 -86 -56 -132t-161 -46h-305q0 -96 29 -127t120 -31q272 0 357 13v-107q-154 -47 -391 -47q-145 0 -207 81t-62 283zM496 1200q88 0 88 55q0 73 -36 93t-144 20t-151 -35q-42 -35 -40 -133h283z" />
    <glyph glyph-name="f.superior" horiz-adv-x="663" 
d="M49 1364v113l146 18v137q0 217 208 217q86 0 211 -34v-101l-172 2q-63 2 -78 -24t-16 -82v-107h205v-139h-209v-590h-151v590h-144z" />
    <glyph glyph-name="g.superior" horiz-adv-x="854" 
d="M61 598v88l62 84q-59 35 -60 127q0 43 23 81t72 44q-92 50 -92 198t67 215q68 67 184 66h480v-90l-99 -43q12 -16 24 -59t13 -82q0 -105 -58 -189t-192 -84h-221q-53 0 -53 -40t53 -46l287 -32q96 -10 151 -66t56 -147v-17q0 -223 -215 -223h-250q-104 1 -168 55t-64 160
zM213 623q0 -45 17 -69q16 -24 36 -28t56 -4h190q53 0 75 20t21 70v11q0 74 -112 90l-226 26l-57 6v-122zM348 1092h117q117 0 117 145q0 57 -30 93t-87 36h-113q-72 0 -102 -33t-31 -96q-4 -145 129 -145z" />
    <glyph glyph-name="h.superior" horiz-adv-x="825" 
d="M72 774v1071h153v-438q12 6 48 30t84 46q68 31 168 32t163 -69t64 -172v-500h-154v479q0 59 -35 90t-85 31t-72 -5q-23 -5 -31 -6q-7 -1 -23 -7t-22 -8t-24 -10t-23 -10q-6 -3 -28 -12t-30 -13v-529h-153z" />
    <glyph glyph-name="i.superior" horiz-adv-x="309" 
d="M66 1622v102q0 39 36 39h105q35 0 35 -39v-102q0 -35 -35 -35h-105q-36 0 -36 35zM74 774v729h153v-729h-153z" />
    <glyph glyph-name="j.superior" horiz-adv-x="313" 
d="M68 1630v101q0 39 36 38h105q35 0 35 -38v-101q0 -37 -35 -37h-105q-36 0 -36 37zM74 401v1100h157v-733q4 -211 -43 -367h-114z" />
    <glyph glyph-name="k.superior" horiz-adv-x="806" 
d="M72 774v1067h153v-598h49l279 252h203l-348 -315l346 -406h-189l-278 334h-62v-334h-153z" />
    <glyph glyph-name="l.superior" horiz-adv-x="475" 
d="M72 1032v811h151v-786q-1 -82 15 -111t63 -41q111 -29 121 -28v-103h-148q-110 0 -156 58t-46 200z" />
    <glyph glyph-name="m.superior" horiz-adv-x="1359" 
d="M72 774v725h112l39 -98q24 11 60 35q69 45 117 58q50 13 110 13q60 -1 119 -31t86 -85q139 117 319 116q112 1 182 -67t70 -172v-494h-151v473q0 53 -35 86t-88 33q-139 0 -256 -68v-524h-154v473q0 53 -36 86t-98 33t-108 -14q-45 -14 -135 -56v-522h-153z" />
    <glyph glyph-name="n.superior" horiz-adv-x="825" 
d="M72 774v725h106l45 -92q12 6 74 46q92 60 210 60q118 1 181 -69t64 -170v-500h-154v479q0 59 -34 90t-106 31t-115 -19q-44 -19 -118 -52v-529h-153z" />
    <glyph glyph-name="o.superior" horiz-adv-x="815" 
d="M59 1134q0 190 77 280q76 91 268 91t267 -91q75 -90 75 -280t-76 -278t-265 -88t-268 88q-78 88 -78 278zM594 1130q0 142 -41 188t-149 46t-150 -48q-41 -48 -41 -187q0 -140 43 -180q42 -40 148 -40t148 39t42 182z" />
    <glyph glyph-name="p.superior" horiz-adv-x="811" 
d="M72 397v1108h108l41 -88q37 31 117 64q190 79 303 -25q61 -57 81 -136t21 -171q0 -288 -129 -363q-53 -31 -131 -30q-137 0 -262 59v-418h-149zM457 895q69 0 101 48t32 194q0 233 -133 233q-104 0 -236 -57v-385q123 -33 236 -33z" />
    <glyph glyph-name="q.superior" horiz-adv-x="817" 
d="M346 752q-287 0 -287 381t287 380q133 0 391 -36v-1080h-151v416q-125 -61 -240 -61zM400 891q68 0 186 33v450h-215q-158 0 -158 -233q0 -136 14 -160q15 -24 31 -48t45 -33t97 -9z" />
    <glyph glyph-name="r.superior" horiz-adv-x="671" 
d="M72 774v725h118l33 -104q8 6 40 26q32 19 43 27q86 58 177 59q91 0 121 -12v-147q-41 8 -115 8t-127 -16t-137 -60v-506h-153z" />
    <glyph glyph-name="s.superior" horiz-adv-x="768" 
d="M508 897q44 0 45 61v46q0 63 -72 63h-227q-100 0 -148 44q-47 45 -47 149v69q0 188 195 189q66 0 206 -10t199 -21v-113h-372q-51 0 -65 -15t-13 -52v-43q0 -40 19 -52t61 -12h227q92 0 138 -51t46 -135v-76q0 -184 -182 -184q-63 0 -225 13t-199 24v108h387l6 -2h21z
" />
    <glyph glyph-name="t.superior" horiz-adv-x="624" 
d="M51 1364v106l146 27l32 209h119v-203h213v-139h-213v-311q0 -88 13 -111q13 -24 91 -42t83 -17v-107h-136q-109 0 -155 58t-47 196v334h-146z" />
    <glyph glyph-name="u.superior" horiz-adv-x="813" 
d="M70 1010v489h151v-479q0 -55 36 -87t105 -32q69 1 112 19t108 47v532h151v-725h-106l-45 94l-48 -32q-91 -63 -136 -70q-44 -6 -79 -6q-121 0 -185 74t-64 176z" />
    <glyph glyph-name="v.superior" horiz-adv-x="856" 
d="M47 1499h164l219 -520l213 520h164l-309 -725h-136z" />
    <glyph glyph-name="w.superior" horiz-adv-x="1249" 
d="M47 1499h164l219 -520l209 520h160l-99 -231l125 -289l209 520h164l-307 -725h-133l-135 301l-127 -301h-134z" />
    <glyph glyph-name="x.superior" horiz-adv-x="833" 
d="M49 774l283 367l-283 358h178l191 -244l180 244h180l-272 -358l276 -367h-178l-184 254l-191 -254h-180z" />
    <glyph glyph-name="y.superior" horiz-adv-x="897" 
d="M47 1501h160l199 -532q25 -59 69 -60l209 592h162l-332 -960l-119 -140h-110l141 369q-55 2 -96 45t-62 103z" />
    <glyph glyph-name="z.superior" horiz-adv-x="765" 
d="M59 1358v141h637v-131l-409 -450h407v-142h-612v142l410 440h-433z" />
    <glyph glyph-name="zero.tnum" horiz-adv-x="1265" 
d="M111 340v815q0 166 100 255t260 89h336q180 0 264 -95t84 -245v-819q0 -340 -348 -340h-336q-162 0 -261 83t-99 257zM299 354q0 -92 54 -132t134 -40h299q180 0 181 170v795q0 170 -179 170h-303q-96 0 -141 -49t-45 -121v-793z" />
    <glyph glyph-name="one.tnum" horiz-adv-x="1251" 
d="M791 1499v-1323h323v-176h-852v176h338v1120l-352 -104v129l354 178h189z" />
    <glyph glyph-name="two.tnum" horiz-adv-x="1259" 
d="M106 1335v140q319 45 623 45q211 0 317 -128t107 -311q0 -109 -59 -231q-60 -122 -140 -221q-192 -234 -487 -447h686v-182h-1032v170q253 173 496 389q153 135 249 275t96 254q0 112 -62 180q-64 68 -198 67h-596z" />
    <glyph glyph-name="three.tnum" horiz-adv-x="1259" 
d="M610 -14q-306 0 -471 57v127h586q106 0 162 34q55 34 55 142v107q0 190 -205 198l-471 17v147l471 21q209 12 209 188v123q0 90 -59 132t-150 42h-610v125q151 56 417 58q110 1 236 -1q166 -2 260 -97t95 -247v-131q0 -227 -142 -283q141 -78 142 -299v-110
q0 -350 -371 -350h-154z" />
    <glyph glyph-name="four.tnum" horiz-adv-x="1275" 
d="M860 557v404l72 153h117v-557h176v-147l-176 -41v-365h-189v365h-737l-70 90l627 1040h217l-561 -942h524z" />
    <glyph glyph-name="five.tnum" horiz-adv-x="1263" 
d="M145 184h611q94 0 134 52t40 126v201q0 66 -18 106q-34 74 -152 74h-283q-67 1 -111 -35t-44 -110h-172l45 901h876v-182h-700l-23 -453q40 42 126 54t284 7t279 -99t81 -253v-227q0 -100 -34 -173t-89 -111q-101 -70 -223 -70q-208 0 -320 8t-307 41v143z" />
    <glyph glyph-name="six.tnum" horiz-adv-x="1261" 
d="M227 150q-110 168 -110 599t111 603q99 153 241 157q293 8 627 -39v-141h-570q-66 0 -112 -50q-101 -111 -109 -435q291 41 495 41t274 -84t71 -232v-258q0 -313 -338 -313h-301q-92 0 -158 34t-121 118zM305 707q0 -371 101 -476q49 -51 122 -51h265q84 0 125 31t40 125
v223q0 147 -163 148h-490z" />
    <glyph glyph-name="seven.tnum" horiz-adv-x="1263" 
d="M129 1317v182h946l62 -106l-533 -1393h-215l510 1317h-770z" />
    <glyph glyph-name="eight.tnum" horiz-adv-x="1265" 
d="M131 324v186q0 172 170 223q-170 61 -170 289v133q0 195 96 275t269 79h303q172 0 255 -84t83 -270v-127q4 -49 -16 -108q-37 -112 -138 -129q78 -13 117 -101t37 -172v-192q0 -259 -226 -313q-53 -13 -114 -13h-301q-100 0 -174 27t-109 59t-55 85q-20 52 -24 83
q-3 31 -3 70zM319 328q0 -147 191 -148h268q72 0 121 38t49 110v194q0 76 -47 116t-117 40h-292q-172 0 -173 -156v-194zM319 1012q1 -86 53 -123t120 -37h292q164 0 164 160v127q0 104 -41 148t-127 44h-270q-102 0 -146 -36t-45 -156v-127z" />
    <glyph glyph-name="nine.tnum" horiz-adv-x="1261" 
d="M117 940v256q0 313 338 313h303q92 1 158 -33t119 -118q110 -171 110 -637q0 -541 -224 -683q-60 -38 -128 -40q-369 -8 -627 39v141h569q170 0 212 337q9 73 9 151q-276 -43 -487 -43t-282 85q-70 85 -70 232zM303 948q0 -147 166 -147h487q0 278 -52 399q-22 51 -65 89
q-44 38 -104 38h-266q-84 0 -125 -31t-41 -125v-223z" />
    <glyph glyph-name="zero.tosf" horiz-adv-x="1265" 
d="M111 340v608q0 166 100 255t260 89h336q182 0 265 -93t83 -247v-612q0 -340 -348 -340h-336q-162 0 -261 83t-99 257zM299 354q0 -92 54 -132t134 -40h299q180 0 181 170v588q0 170 -179 170h-303q-96 0 -141 -48t-45 -122v-586z" />
    <glyph glyph-name="one.tosf" horiz-adv-x="1255" 
d="M786 1294v-1118h308v-176h-818v176h322v916l-330 -101v129l330 174h188z" />
    <glyph glyph-name="two.tosf" horiz-adv-x="1257" 
d="M106 1124v140q346 53 623 45q213 1 317 -101t105 -286q0 -96 -59 -202q-60 -106 -140 -188t-208 -180t-257 -170h656v-182h-1024v170q385 216 518 324q219 175 282 284q42 74 42 140q1 110 -61 160t-200 46h-594z" />
    <glyph glyph-name="three.tosf" horiz-adv-x="1259" 
d="M610 -211q-306 0 -471 57v127h586q106 0 162 34q55 34 55 143v106q0 190 -205 201l-471 14v150l471 20q209 8 209 186v123q0 90 -59 132t-150 42h-610v125q146 54 417 59q110 1 236 -1q166 -1 260 -97t95 -247v-132q0 -227 -142 -282q141 -78 142 -297v-113
q0 -350 -371 -350h-154z" />
    <glyph glyph-name="four.tosf" horiz-adv-x="1275" 
d="M860 352v404l72 153h117v-557h176v-147l-176 -41v-365h-189v365h-737l-70 90l627 1040h217l-561 -942h524z" />
    <glyph glyph-name="five.tosf" horiz-adv-x="1263" 
d="M166 -20h610q94 0 134 52t40 126v200q0 129 -73 163q-37 17 -97 18h-282q-66 0 -111 -36t-45 -110h-172l45 901h877v-182h-701l-22 -453q43 47 149 58q57 8 258 3t282 -98t81 -253v-228q0 -267 -234 -338q-55 -16 -112 -16q-207 0 -320 8t-307 41v144z" />
    <glyph glyph-name="six.tosf" horiz-adv-x="1261" 
d="M227 150q-110 168 -110 599t111 603q99 153 241 157q293 8 627 -39v-141h-570q-66 0 -112 -50q-101 -111 -109 -435q291 41 495 41t274 -84t71 -232v-258q0 -313 -338 -313h-301q-92 0 -158 34t-121 118zM305 707q0 -371 101 -476q49 -51 122 -51h265q84 0 125 31t40 125
v223q0 147 -163 148h-490z" />
    <glyph glyph-name="seven.tosf" horiz-adv-x="1263" 
d="M129 1112v182h946l62 -106l-533 -1393h-215l510 1317h-770z" />
    <glyph glyph-name="eight.tosf" horiz-adv-x="1265" 
d="M131 324v186q0 172 170 223q-170 61 -170 289v133q0 195 96 275t269 79h303q172 0 255 -84t83 -270v-127q4 -49 -16 -108q-37 -112 -138 -129q78 -13 117 -101t37 -172v-192q0 -259 -226 -313q-53 -13 -114 -13h-301q-100 0 -174 27t-109 59t-55 85q-20 52 -24 83
q-3 31 -3 70zM319 328q0 -147 191 -148h268q72 0 121 38t49 110v194q0 76 -47 116t-117 40h-292q-172 0 -173 -156v-194zM319 1012q1 -86 53 -123t120 -37h292q164 0 164 160v127q0 104 -41 148t-127 44h-270q-102 0 -146 -36t-45 -156v-127z" />
    <glyph glyph-name="nine.tosf" horiz-adv-x="1261" 
d="M117 725v256q0 313 338 313h303q92 0 158 -34t119 -117q110 -171 110 -637q0 -541 -224 -683q-60 -38 -128 -40q-379 -8 -627 39v141h569q170 0 212 337q9 73 9 151q-276 -43 -487 -43t-282 85q-70 85 -70 232zM303 733q0 -147 166 -147h487q0 278 -52 399q-22 51 -65 89
q-44 38 -104 38h-266q-84 0 -125 -31t-41 -125v-223z" />
    <glyph glyph-name="gbreve.salt" horiz-adv-x="1136" 
d="M480 1102q192 0 542 -51v-1239q0 -184 -106 -284t-246 -85l-520 49v125h509q174 0 175 195v251q-178 -80 -355 -79q-225 0 -304 153t-79 417t96 406t288 142zM285 542q0 -56 1 -84q5 -138 22 -174q44 -94 89 -111t97 -17q164 0 340 49v727h-340q-100 0 -145 -69t-54 -136
q-8 -67 -9 -98t-1 -87zM365 1450h102q0 -55 40 -93t95 -38t93 36t38 95h103q0 -109 -72 -171t-165 -62t-164 64q-70 65 -70 169z" />
    <glyph glyph-name="gdotaccent.salt" horiz-adv-x="1136" 
d="M480 1102q192 0 542 -51v-1239q0 -184 -106 -284t-246 -85l-520 49v125h509q174 0 175 195v251q-178 -80 -355 -79q-225 0 -304 153t-79 417t96 406t288 142zM285 542q0 -56 1 -84q5 -138 22 -174q44 -94 89 -111t97 -17q164 0 340 49v727h-340q-100 0 -145 -69t-54 -136
q-8 -67 -9 -98t-1 -87zM494 1268v123q0 51 49 51h114q47 0 48 -51v-123q0 -47 -48 -47h-114q-49 0 -49 47z" />
    <glyph glyph-name="gcircumflex.salt" horiz-adv-x="1136" 
d="M480 1102q192 0 542 -51v-1239q0 -184 -106 -284t-246 -85l-520 49v125h509q174 0 175 195v251q-178 -80 -355 -79q-225 0 -304 153t-79 417t96 406t288 142zM285 542q0 -56 1 -84q5 -138 22 -174q44 -94 89 -111t97 -17q164 0 340 49v727h-340q-100 0 -145 -69t-54 -136
q-8 -67 -9 -98t-1 -87zM305 1217l236 270h164l208 -270h-157l-140 139l-151 -139h-160z" />
    <glyph glyph-name="c_t" horiz-adv-x="1755" 
d="M76 535q0 173 26 287q44 195 190 248q60 22 146 22h795l39 301h149v-303h297v-175h-297v-514q0 -137 22 -175t91 -54q147 -39 152 -39v-131h-183q-145 0 -208 87q-62 87 -62 300v526h-762q-45 0 -70 -4t-55 -24q-82 -53 -82 -372q0 -210 45 -283t160 -72q194 0 383 16
l74 4v-133q-195 -57 -490 -61q-86 0 -144 19t-112 75q-104 108 -104 455z" />
    <glyph glyph-name="t_t" horiz-adv-x="1519" 
d="M39 920v127l194 43l41 303h148v-303h575l41 303h148v-303h297v-170h-297v-519q0 -170 46 -202q19 -14 116 -40t102 -26v-131h-180q-145 0 -209 88q-63 88 -64 299v531h-575v-519q0 -170 46 -202q18 -14 116 -40t102 -26v-131h-182q-143 0 -207 88q-63 88 -64 299v531
h-194z" />
    <glyph glyph-name="f_t" horiz-adv-x="1564" 
d="M39 918v135l194 34v203q0 225 126 290q58 30 171 30t256 -49v-119l-235 2q-93 0 -111 -46t-18 -126v-182h620l39 303h150v-303h297v-170h-297v-519q2 -137 22 -174t90 -55q147 -39 152 -39v-131h-182q-143 0 -207 88q-63 88 -64 299v531h-624v-920h-189v918h-190z" />
    <glyph glyph-name="t_y" horiz-adv-x="1947" 
d="M39 920v127l194 43l41 303h148v-303h311q219 0 286 -97q32 -45 62 -139l209 -592q29 -80 129 -80l285 905h207l-449 -1431l-155 -209h-131l194 553q-193 0 -274 240l-197 551q-23 69 -63 99t-125 30h-289v-519q2 -137 24 -175t91 -54q145 -39 149 -39v-131h-182
q-143 0 -207 88q-63 88 -64 299v531h-194z" />
    <glyph glyph-name="f_y" horiz-adv-x="1996" 
d="M475 1610q153 0 311 -66v-121l-235 21q-92 8 -110 -41q-19 -49 -19 -131v-185h342q174 0 242 -49t114 -184l219 -590q27 -80 127 -80l285 906h207l-449 -1432l-157 -209h-131l196 553q-195 0 -274 240l-205 549q-25 67 -67 97t-128 30h-325v-918h-189v918h-190v135
l194 34v203q0 225 126 290q58 30 116 30z" />
    <glyph glyph-name="gcommaaccent.salt" horiz-adv-x="1136" 
d="M492 1264v182q0 51 19 85t47 45q66 26 124 13v-67q-57 2 -57 -56v-41h20q47 0 47 -45v-116q0 -49 -47 -50h-110q-43 1 -43 50zM480 1102q192 0 542 -51v-1239q0 -184 -106 -284t-246 -85l-520 49v125h509q174 0 175 195v251q-178 -80 -355 -79q-225 0 -304 153t-79 417
t96 406t288 142zM285 542q0 -56 1 -84q5 -138 22 -174q44 -94 89 -111t97 -17q164 0 340 49v727h-340q-100 0 -145 -69t-54 -136q-8 -67 -9 -98t-1 -87z" />
    <glyph glyph-name="exclam.smcp" horiz-adv-x="552" 
d="M160 47v135q0 51 49 51h131q47 0 47 -51v-135q0 -47 -47 -47h-131q-49 0 -49 47zM168 1167h211l-19 -815h-176z" />
    <glyph glyph-name="quotedbl.smcp" horiz-adv-x="811" 
d="M162 1284h186v-137l-20 -275h-142l-24 275v137zM465 1284h184v-137l-20 -275h-142l-22 275v137z" />
    <glyph glyph-name="numbersign.smcp" horiz-adv-x="1181" 
d="M39 344l18 129h252l39 227h-254l19 129h256l59 345h131l-59 -345h237l58 345h131l-58 -345h279l-19 -129h-278l-39 -227h279l-19 -129h-280l-60 -346h-131l57 346h-235l-60 -346h-131l58 346h-250zM442 473h238l37 227h-238z" />
    <glyph glyph-name="dollar.smcp" horiz-adv-x="1036" 
d="M748 362q0 60 -40 96t-108 36h-174q-174 0 -252 80t-78 212v66q0 322 348 326v137h146v-144q100 -8 303 -32v-142q-395 2 -457 2q-62 -1 -106 -29q-45 -28 -45 -118v-59q0 -125 159 -125h177q157 0 237 -91t80 -210v-76q0 -160 -100 -236t-248 -69v-133h-146v139
q-301 31 -311 33v139l455 -2q61 0 110 30t50 101v69z" />
    <glyph glyph-name="percent.smcp" horiz-adv-x="1726" 
d="M55 766v143q-1 135 59 197t210 61h108q146 0 204 -61t58 -197v-143q0 -136 -58 -198t-208 -62h-109q-145 0 -205 62t-59 198zM207 774q1 -70 25 -94t94 -23h94q80 0 102 25t21 92v125q0 69 -25 93t-94 24h-94q-78 0 -101 -24t-22 -93v-125zM440 0l682 1167h162
l-680 -1167h-164zM1032 258v143q0 135 58 197t208 61h109q145 0 205 -61t59 -197v-143q0 -134 -59 -196t-209 -62h-109q-146 0 -204 62t-58 196zM1184 268q0 -70 24 -94t95 -22h94q79 0 101 24t22 92v123q0 69 -25 93t-94 24h-94q-78 0 -101 -24t-22 -93v-123z" />
    <glyph glyph-name="ampersand.smcp" horiz-adv-x="1175" 
d="M852 999h-352q-168 0 -56 -135l336 -409l178 153l64 -71l-86 -172l-49 -48l243 -317h-215l-159 199l-133 -129q-63 -56 -151 -76t-182 14q-92 34 -155 121q-88 125 -69 246q18 121 139 219l139 117l-82 102q-68 88 -63 164q4 76 52 127t114 61q205 33 487 -32v-134z
M246 340q0 -102 96 -158q35 -20 85 -16t91 45l129 125l-190 233l-138 -108q-74 -57 -73 -121z" />
    <glyph glyph-name="quotesingle.smcp" horiz-adv-x="509" 
d="M162 1284h186v-137l-20 -275h-144l-22 275v137z" />
    <glyph glyph-name="asterisk.smcp" horiz-adv-x="890" 
d="M96 831v91l285 57l8 -158zM227 520l52 279l153 -37l-121 -268zM354 1143l88 33l150 -244l-146 -62zM416 641l88 135l225 -188l-49 -74zM508 844l244 155l47 -79l-189 -199z" />
    <glyph glyph-name="zero.smcp" horiz-adv-x="1185" 
d="M133 332v504q0 164 98 248t254 83h226q91 1 157 -25t100 -62q85 -90 85 -244v-504q0 -332 -342 -332h-226q-154 0 -253 80t-99 252zM322 348q0 -88 52 -127t130 -39h190q170 0 170 166v469q0 168 -172 168h-190q-180 0 -180 -168v-469z" />
    <glyph glyph-name="one.smcp" horiz-adv-x="696" 
d="M545 1171v-1171h-189v969l-280 -101v129l280 174h189z" />
    <glyph glyph-name="two.smcp" horiz-adv-x="1048" 
d="M549 1171q406 0 405 -389q0 -92 -42 -180t-99 -151t-159 -140t-212 -129h504v-182h-856v170q49 35 185 116q135 81 229 142q94 60 174 158t80 202t-56 154q-56 51 -192 47l-434 -2v133q75 11 190 31q116 20 283 20z" />
    <glyph glyph-name="three.smcp" horiz-adv-x="1042" 
d="M57 993v135q156 53 566 46q129 -2 203 -90t75 -205v-68q0 -193 -106 -229q106 -61 106 -242v-51q0 -137 -71 -217t-218 -82q-408 -4 -544 43v137h481q160 0 160 131v47q0 139 -152 144l-391 10v160l391 8q82 2 119 30t37 105v61q0 127 -156 127h-500z" />
    <glyph glyph-name="four.smcp" horiz-adv-x="1118" 
d="M721 461v313l76 160h112v-473h172v-150l-172 -37v-270h-188v270h-608l-74 95l444 798h215l-387 -706h410z" />
    <glyph glyph-name="five.smcp" horiz-adv-x="1103" 
d="M145 188h502q90 0 123 35t33 105v104q0 102 -65 121q-34 10 -89 10h-188q-61 0 -101 -34t-41 -103h-172l35 741h756v-182h-580l-14 -317q55 66 133 65h189q174 0 250 -77t75 -222v-123q0 -163 -90 -237t-235 -76q-333 -4 -521 49v141z" />
    <glyph glyph-name="six.smcp" horiz-adv-x="1118" 
d="M125 614q0 304 95 434t229 132q258 4 520 -31v-152h-502q-47 0 -87 -41t-61 -181q-6 -46 -6 -91q193 25 416 25q276 0 277 -263v-176q0 -140 -80 -206t-203 -66h-262q-76 0 -132 25q-134 60 -178 279q-26 126 -26 312zM313 537v-60q1 -102 15 -143t30 -79q31 -73 115 -75
h232q55 0 83 22t29 85v159q0 53 -26 72q-27 18 -86 19h-392z" />
    <glyph glyph-name="seven.smcp" horiz-adv-x="974" 
d="M57 985v182h799l62 -106l-406 -1061h-207l379 985h-627z" />
    <glyph glyph-name="eight.smcp" horiz-adv-x="1173" 
d="M143 266v144q0 86 45 116t93 43q-70 25 -104 91t-34 139v88q0 163 69 227t214 64h340q266 0 266 -291v-88q0 -166 -119 -191q59 -10 89 -72t30 -126v-144q0 -142 -80 -204t-184 -62h-344q-210 0 -259 134q-22 62 -22 132zM332 279q0 -57 28 -79t107 -22h258
q119 0 119 101v116q0 111 -115 111h-280q-57 0 -87 -23t-30 -86v-118zM332 788q0 -111 117 -110h282q71 0 93 30t22 78v86q0 78 -26 103t-91 24h-264q-73 0 -96 -13q-25 -13 -31 -40t-6 -74v-84z" />
    <glyph glyph-name="nine.smcp" horiz-adv-x="1118" 
d="M115 729v178q0 139 80 206t202 67h262q192 0 272 -178q64 -143 64 -452q0 -310 -98 -431t-219 -121q-330 -4 -526 31v151h501q47 0 87 41t61 181q6 46 6 92q-201 -25 -416 -25q-276 0 -276 260zM303 731q0 -53 26 -71t87 -19h391v59q-1 103 -15 144t-30 79
q-31 74 -115 74h-231q-57 1 -85 -21t-28 -87v-158z" />
    <glyph glyph-name="question.smcp" horiz-adv-x="946" 
d="M39 989v150q287 43 471 35q174 0 268 -90t94 -242v-84q0 -154 -116 -234t-277 -53v-119h-174v271q15 0 111 -1t104 1q63 4 114 36q50 33 50 97v80q0 154 -186 153h-459zM279 47v135q0 51 49 51h127q51 0 51 -51v-135q0 -47 -51 -47h-127q-49 0 -49 47z" />
    <glyph glyph-name="at.smcp" horiz-adv-x="1740" 
d="M125 92v688q0 166 88 259q37 38 109 67t167 29h429q137 0 231 -67t94 -230v-752h-133l-33 127l-20 -16q-37 -29 -102 -64q-122 -65 -233 -66q-112 -1 -186 71t-73 177v103q0 129 72 203t202 73h336q2 137 0 137q0 76 -38 103t-122 27h-424q-90 0 -141 -37t-51 -148v-678
q0 -215 192 -215h707q121 0 166 52t45 163v1018q0 115 -57 174t-154 60h-827v118q279 57 598 56h229q174 -4 278 -106t105 -302v-1018q0 -389 -381 -389h-709q-168 -1 -266 97t-98 286zM639 334q0 -35 36 -66t83 -28q127 -2 315 104v227l-319 -28q-115 -12 -115 -127v-82z
" />
    <glyph glyph-name="a.smcp" horiz-adv-x="1218" 
d="M68 0l458 1167h203l424 -1167h-203l-112 291h-449l-119 -291h-202zM453 465h331l-157 448z" />
    <glyph glyph-name="b.smcp" horiz-adv-x="1118" 
d="M154 0v1169h542q176 0 254 -90t78 -223q0 -199 -137 -260q61 -24 102 -90t41 -174q0 -332 -338 -332h-542zM342 178h348q41 0 71 8q31 8 57 47t26 109q0 178 -154 178q-287 -2 -348 0v-342zM342 688h348q86 0 118 36t32 124q0 145 -150 145h-348v-305z" />
    <glyph glyph-name="c.smcp" horiz-adv-x="1060" 
d="M229 1069q106 115 303 115q86 0 234 -16t229 -38v-143q-27 6 -189 15t-255 10q-147 0 -203 -102t-55 -331q0 -230 64 -321q64 -92 194 -94l444 24v-139q-229 -57 -463 -57q-110 0 -190 37t-125 92q-113 138 -113 474q0 335 125 474z" />
    <glyph glyph-name="d.smcp" horiz-adv-x="1224" 
d="M154 0v1171h518q129 -2 222 -56t139 -145q87 -172 87 -390q0 -342 -136 -472q-44 -42 -79 -62q-78 -46 -233 -46h-518zM342 180h322q268 0 268 400q0 209 -73 310t-195 101h-322v-811z" />
    <glyph glyph-name="e.smcp" horiz-adv-x="1054" 
d="M154 182v791q0 96 60 146t165 50q561 -20 590 -26v-152h-561q-42 0 -54 -13t-12 -52v-252l561 -17v-149l-561 -14v-252q0 -54 35 -63q14 -3 39 -3h553v-149l-631 -31q-84 0 -134 50t-50 136z" />
    <glyph glyph-name="f.smcp" horiz-adv-x="1054" 
d="M154 0v973q0 96 60 146t165 50q561 -20 590 -26v-152h-561q-44 0 -54 -14t-12 -51v-264l561 -17v-149l-561 -15v-481h-188z" />
    <glyph glyph-name="g.smcp" horiz-adv-x="1177" 
d="M104 586q0 303 92 450t339 150q81 2 251 -14t258 -37v-148q-270 25 -479 25q-156 0 -214 -83t-58 -339q0 -141 45 -267q55 -157 226 -157q90 0 188 35t133 69v213h-322v117q172 47 373 47q63 0 137 -6v-641h-143l-39 90q-147 -104 -359 -104q-240 0 -345 203
q-69 134 -82 330q-1 32 -1 67z" />
    <glyph glyph-name="h.smcp" horiz-adv-x="1218" 
d="M154 -2v1169h188v-512h576v512h188v-1169h-188v473h-576v-473h-188z" />
    <glyph glyph-name="i.smcp" horiz-adv-x="454" 
d="M154 0v1167h188v-1167h-188z" />
    <glyph glyph-name="j.smcp" horiz-adv-x="681" 
d="M381 1167h188v-829q0 -231 -118 -301q-101 -51 -201 -46t-182 52l6 141q166 -25 234 7t73 171v805z" />
    <glyph glyph-name="k.smcp" horiz-adv-x="1153" 
d="M154 -2v1169h184v-508h141l381 508h227l-444 -594l444 -575h-227l-385 485h-137v-485h-184z" />
    <glyph glyph-name="l.smcp" horiz-adv-x="1019" 
d="M154 195v972h188v-917q-2 -45 18 -56t72 -12h522v-182h-606q-90 0 -142 50t-52 145z" />
    <glyph glyph-name="m.smcp" horiz-adv-x="1519" 
d="M104 0l113 1169h238l309 -874l309 874h234l108 -1169h-184l-80 858l-297 -858h-174l-303 858l-90 -858h-183z" />
    <glyph glyph-name="n.smcp" horiz-adv-x="1232" 
d="M154 0v1169h182l598 -823v823h186v-1169h-180l-598 831v-831h-188z" />
    <glyph glyph-name="o.smcp" horiz-adv-x="1241" 
d="M237 1063q69 67 159 91t212 24q124 0 196 -12q176 -28 249 -144q84 -136 84 -434q0 -366 -131 -488q-70 -63 -158 -87q-88 -23 -212 -23t-197 11t-141 47t-108 99q-86 139 -86 465t133 451zM293 558q0 -251 80 -320q45 -42 98 -54t137 -12t120 4t85 26t74 64
q61 101 61 319q0 219 -38 288q-15 30 -27 52q-12 23 -38 35t-43 20t-65 11q-48 4 -108 4q-61 0 -85 -1t-68 -8t-63 -21t-48 -44t-41 -74q-31 -114 -31 -289z" />
    <glyph glyph-name="p.smcp" horiz-adv-x="1081" 
d="M115 0v1165h559q131 0 227 -85t96 -257q0 -257 -113 -326q-82 -51 -178 -55q-34 -2 -216 10t-185 15v-467h-190zM305 610h359q61 0 91 22q54 41 54 173q2 90 -42 137t-103 47h-359v-379z" />
    <glyph glyph-name="q.smcp" horiz-adv-x="1241" 
d="M237 1063q69 67 159 91t212 24q124 0 196 -12q176 -28 249 -144q84 -136 84 -434q0 -366 -131 -488q-70 -63 -158 -87q-88 -23 -212 -23t-197 11t-141 47t-108 99q-86 139 -86 465t133 451zM293 558q0 -251 80 -320q45 -42 98 -54t137 -12t120 4t85 26t74 64
q61 101 61 319q0 219 -38 288q-15 30 -27 52q-12 23 -38 35t-43 20t-65 11q-48 4 -108 4q-61 0 -85 -1t-68 -8t-63 -21t-48 -44t-41 -74q-31 -114 -31 -289zM563 -68h123q131 -117 340 -45v-182q-110 -45 -282 10q-69 23 -120 80t-61 137z" />
    <glyph glyph-name="r.smcp" 
d="M115 0v1169h553q123 0 217 -63q113 -78 113 -303q0 -127 -52 -225q-51 -98 -160 -111l265 -467h-209l-244 446q-41 2 -167 14t-128 15v-475h-188zM303 612h359q147 0 147 211q0 120 -68 150q-44 20 -79 20h-359v-381z" />
    <glyph glyph-name="s.smcp" horiz-adv-x="1118" 
d="M104 762v115q0 297 293 297q89 0 275 -14t286 -30v-141q-340 10 -546 10q-119 0 -119 -125v-104q0 -80 35 -95q24 -11 84 -11h329q137 0 205 -77t68 -202v-131q0 -274 -273 -274q-113 0 -327 13t-264 34v137q373 -8 571 -8q35 0 61 24t33 49l10 27v125q0 53 -22 78
q-23 25 -82 24h-328q-153 0 -221 66t-68 213z" />
    <glyph glyph-name="t.smcp" horiz-adv-x="1058" 
d="M68 985v182h925v-182h-368v-985h-189v985h-368z" />
    <glyph glyph-name="u.smcp" horiz-adv-x="1247" 
d="M154 532v635h190v-635q-2 -220 66 -290t230 -70t232 73q72 73 72 287v635h191v-635q0 -381 -208 -488q-67 -34 -130 -44t-153 -10t-155 9q-67 9 -135 41t-108 89q-92 129 -92 403z" />
    <glyph glyph-name="v.smcp" horiz-adv-x="1226" 
d="M68 1167h202l351 -903l337 903h203l-438 -1167h-205z" />
    <glyph glyph-name="w.smcp" horiz-adv-x="1740" 
d="M68 1167h202l318 -907l301 907h201l-125 -379l211 -528l307 907h192l-399 -1167h-203l-199 510l-176 -510h-211z" />
    <glyph glyph-name="x.smcp" horiz-adv-x="1167" 
d="M68 0l399 584l-395 583h237l277 -422l278 422h240l-402 -583l396 -584h-230l-284 422l-285 -422h-231z" />
    <glyph glyph-name="y.smcp" horiz-adv-x="1173" 
d="M684 -2h-188v395l-428 774h204l320 -575l309 575h207l-424 -774v-395z" />
    <glyph glyph-name="z.smcp" horiz-adv-x="1017" 
d="M68 0v182l637 803h-637v182h884v-182l-626 -803h626v-182h-884z" />
    <glyph glyph-name="grave.smcp" horiz-adv-x="495" 
d="M39 1364h209l211 -277h-154z" />
    <glyph glyph-name="aogonek.smcp" horiz-adv-x="1241" 
d="M68 0l458 1167h203l424 -1167h-51q-121 -102 -114 -171t124 -71v-131q-68 -12 -129 11q-61 24 -93 66q-78 103 -5 202q41 55 127 94h-62l-112 291h-449l-119 -291h-202zM453 465h331l-157 448z" />
    <glyph glyph-name="rcommaaccent.smcp" 
d="M115 0v1169h553q123 0 217 -63q113 -78 113 -303q0 -127 -52 -225q-51 -98 -160 -111l265 -467h-209l-244 446q-41 2 -167 14t-128 15v-475h-188zM303 612h359q147 0 147 211q0 120 -68 150q-44 20 -79 20h-359v-381zM457 -309v116q0 49 45 50h110q45 0 45 -50v-184
q0 -82 -48 -117t-97 -30l-47 6v67q57 -2 57 54v41h-20q-45 0 -45 47z" />
    <glyph glyph-name="itilde.smcp" horiz-adv-x="454" 
d="M154 0v1167h188v-1167h-188zM216 1328q-65 34 -113 34t-103 -30t-76 -42l-45 92q72 66 127 100q54 34 112 33t127 -36t95 -35q55 -2 188 76l45 -97q-39 -39 -105 -85q-67 -46 -127 -45t-125 35z" />
    <glyph glyph-name="lcommaaccent.smcp" horiz-adv-x="1019" 
d="M154 195v972h188v-917q-2 -45 18 -56t72 -12h522v-182h-606q-90 0 -142 50t-52 145zM475 -309v116q0 49 45 50h111q45 0 45 -50v-184q0 -82 -48 -117t-96 -30l-49 6v67q57 -2 58 54v41h-21q-45 0 -45 47z" />
    <glyph glyph-name="dieresis.smcp" horiz-adv-x="927" 
d="M96 1190q0 45 32 77q32 31 77 31t76 -32t31 -76q0 -45 -32 -77q-30 -32 -75 -32t-77 32t-32 77zM618 1190q0 45 32 77q32 31 77 31t76 -32t31 -76q0 -45 -31 -77t-76 -32t-77 32t-32 77z" />
    <glyph glyph-name="scaron.smcp" horiz-adv-x="1118" 
d="M104 762v115q0 297 293 297q89 0 275 -14t286 -30v-141q-340 10 -546 10q-119 0 -119 -125v-104q0 -80 35 -95q24 -11 84 -11h329q137 0 205 -77t68 -202v-131q0 -274 -273 -274q-113 0 -327 13t-264 34v137q373 -8 571 -8q35 0 61 24t33 49l10 27v125q0 53 -22 78
q-23 25 -82 24h-328q-153 0 -221 66t-68 213zM252 1565h160l155 -140l135 140h158l-213 -269h-164z" />
    <glyph glyph-name="emacron.smcp" horiz-adv-x="1054" 
d="M154 182v791q0 96 60 146t165 50q561 -20 590 -26v-152h-561q-42 0 -54 -13t-12 -52v-252l561 -17v-149l-561 -14v-252q0 -54 35 -63q14 -3 39 -3h553v-149l-631 -31q-84 0 -134 50t-50 136zM287 1294v138h598v-138h-598z" />
    <glyph glyph-name="gcommaaccent.smcp" horiz-adv-x="1177" 
d="M518 -311v116q0 51 45 52h111q45 0 45 -52v-182q0 -82 -48 -117t-98 -30l-47 6v67q57 -2 58 54v41h-21q-45 0 -45 45zM295 557q0 -168 59 -273t221 -114q223 -10 310 72v239h-348v119q172 47 399 47q63 0 137 -6v-641q-8 -2 -69 1t-74 -1l-39 74q-121 -88 -346 -88
q-441 0 -441 600q0 301 100 449t355 151q80 2 238 -14t247 -37v-148l-444 27q-86 0 -139 -16q-118 -35 -150 -190q-16 -83 -16 -251z" />
    <glyph glyph-name="tbar.smcp" horiz-adv-x="1001" 
d="M39 985v182h926v-182h-369v-276h195v-117h-195v-592h-188v592h-203v117h203v276h-369z" />
    <glyph glyph-name="zcaron.smcp" horiz-adv-x="1017" 
d="M68 0v182l637 803h-637v182h884v-182l-626 -803h626v-182h-884zM205 1561h160l155 -140l135 140h158l-211 -271h-164z" />
    <glyph glyph-name="macron.smcp" horiz-adv-x="788" 
d="M96 1071v137h598v-137h-598z" />
    <glyph glyph-name="degree.smcp" horiz-adv-x="604" 
d="M96 956q0 88 60 150t147 61q87 0 147 -61q60 -62 60 -150t-60 -149t-146 -61t-148 60q-60 62 -60 150zM199 956q1 -44 31 -74t73 -30t74 31t31 73t-31 74q-31 31 -74 31t-73 -31t-31 -74z" />
    <glyph glyph-name="acute.smcp" horiz-adv-x="495" 
d="M39 1087l209 277h211l-266 -277h-154z" />
    <glyph glyph-name="caron.smcp" horiz-adv-x="796" 
d="M96 1409h137l158 -174l170 174h141l-233 -322h-164z" />
    <glyph glyph-name="eng.smcp" horiz-adv-x="1232" 
d="M152 0v1169h182l598 -823v823h186v-1290q-4 -151 -114 -233t-291 -80v147q81 0 151 46t70 130v117l-594 825v-831h-188z" />
    <glyph glyph-name="amacron.smcp" horiz-adv-x="1218" 
d="M68 0l458 1167h203l424 -1167h-203l-112 291h-449l-119 -291h-202zM453 465h331l-157 448zM328 1290v140h598v-140h-598z" />
    <glyph glyph-name="aacute.smcp" horiz-adv-x="1218" 
d="M68 0l458 1167h203l424 -1167h-203l-112 291h-449l-119 -291h-202zM453 465h331l-157 448zM551 1290l211 275h209l-266 -275h-154z" />
    <glyph glyph-name="acircumflex.smcp" horiz-adv-x="1218" 
d="M68 0l458 1167h203l424 -1167h-203l-112 291h-449l-119 -291h-202zM453 465h331l-157 448zM324 1290l235 271h164l209 -271h-158l-139 140l-152 -140h-159z" />
    <glyph glyph-name="atilde.smcp" horiz-adv-x="1218" 
d="M68 0l458 1167h203l424 -1167h-203l-112 291h-449l-119 -291h-202zM453 465h331l-157 448zM617 1328q-65 34 -112 34t-103 -30t-76 -42l-45 92q146 134 243 134q55 -2 124 -37t93 -35q55 -2 189 76l45 -97q-36 -36 -105 -84q-68 -47 -128 -46t-125 35z" />
    <glyph glyph-name="adieresis.smcp" horiz-adv-x="1218" 
d="M68 0l458 1167h203l424 -1167h-203l-112 291h-449l-119 -291h-202zM453 465h331l-157 448zM258 1399q0 45 33 77t78 32t75 -32t31 -77q0 -45 -31 -77q-32 -32 -76 -32t-77 32t-33 77zM780 1399q0 45 32 77t77 32t77 -32t32 -77t-32 -77t-77 -32t-77 32t-32 77z" />
    <glyph glyph-name="aring.smcp" horiz-adv-x="1218" 
d="M453 465h331l-157 448zM422 1375q0 79 61 141t147 61q86 0 147 -61q61 -60 61 -140t-39 -134t-101 -75h31l424 -1167h-203l-112 291h-449l-119 -291h-202l458 1167h39q-63 21 -103 75t-40 133zM524 1366q0 -43 32 -74q32 -30 76 -30t74 30t30 73q0 44 -31 76t-74 32
t-75 -32t-32 -75z" />
    <glyph glyph-name="ae.smcp" horiz-adv-x="1605" 
d="M1528 991h-547q-48 0 -57 -17q-10 -17 -13 -50v-260l549 -15v-149l-549 -17v-245q1 -40 19 -52t59 -12l539 -2v-147l-608 -29q-92 -4 -146 44q-53 48 -53 136v135h-313l-156 -311h-207l475 975q58 125 168 159q110 33 264 33q547 -20 576 -26v-150zM721 479v484
l-236 -484h236z" />
    <glyph glyph-name="iogonek.smcp" horiz-adv-x="454" 
d="M154 0v1167h188v-1167h-39q-121 -102 -113 -171t123 -71v-131q-83 -14 -153 24t-97 97t9 132t141 120h-59z" />
    <glyph glyph-name="ccaron.smcp" horiz-adv-x="1060" 
d="M229 1069q106 115 303 115q86 0 234 -16t229 -38v-143q-27 6 -189 15t-255 10q-147 0 -203 -102t-55 -331q0 -230 64 -321q64 -92 194 -94l444 24v-139q-229 -57 -463 -57q-110 0 -190 37t-125 92q-113 138 -113 474q0 335 125 474zM291 1585h160l153 -139l137 139h158
l-213 -268h-164z" />
    <glyph glyph-name="eacute.smcp" horiz-adv-x="1054" 
d="M154 182v791q0 96 60 146t165 50q561 -20 590 -26v-152h-561q-42 0 -54 -13t-12 -52v-252l561 -17v-149l-561 -14v-252q0 -54 35 -63q14 -3 39 -3h553v-149l-631 -31q-84 0 -134 50t-50 136zM508 1294l211 275h209l-266 -275h-154z" />
    <glyph glyph-name="eogonek.smcp" horiz-adv-x="1054" 
d="M154 182v791q0 96 60 146t165 50q561 -20 590 -26v-152h-561q-42 0 -54 -13t-12 -52v-252l561 -17v-149l-561 -14v-252q0 -54 35 -63q14 -3 39 -3h553v-149q-82 -66 -106 -122t8 -88t108 -32v-133q-66 -10 -126 10t-93 64q-78 103 -14 198q38 55 118 94l-526 -22
q-84 0 -134 50t-50 136z" />
    <glyph glyph-name="edieresis.smcp" horiz-adv-x="1054" 
d="M154 182v791q0 96 60 146t165 50q561 -20 590 -26v-152h-561q-42 0 -54 -13t-12 -52v-252l561 -17v-149l-561 -14v-252q0 -54 35 -63q14 -3 39 -3h553v-149l-631 -31q-84 0 -134 50t-50 136zM213 1403q0 45 32 76t77 31q44 0 76 -32q32 -30 32 -75t-32 -77t-76 -32
t-77 32q-32 32 -32 77zM735 1403q0 45 32 76t77 31t77 -32q31 -30 31 -75t-32 -77t-76 -32q-45 0 -77 32t-32 77z" />
    <glyph glyph-name="edotaccent.smcp" horiz-adv-x="1054" 
d="M154 182v791q0 96 60 146t165 50q561 -20 590 -26v-152h-561q-42 0 -54 -13t-12 -52v-252l561 -17v-149l-561 -14v-252q0 -54 35 -63q14 -3 39 -3h553v-149l-631 -31q-84 0 -134 50t-50 136zM496 1341v123q0 51 49 52h114q47 0 48 -52v-123q0 -47 -48 -47h-114
q-49 0 -49 47z" />
    <glyph glyph-name="iacute.smcp" horiz-adv-x="454" 
d="M154 0v1167h188v-1167h-188zM182 1290l209 275h211l-266 -275h-154z" />
    <glyph glyph-name="icircumflex.smcp" horiz-adv-x="454" 
d="M154 0v1167h188v-1167h-188zM-45 1290l233 271h164l209 -271h-158l-137 140l-151 -140h-160z" />
    <glyph glyph-name="imacron.smcp" horiz-adv-x="454" 
d="M154 0v1167h188v-1167h-188zM-37 1290v140h598v-140h-598z" />
    <glyph glyph-name="dcroat.smcp" horiz-adv-x="1216" 
d="M172 0v537h-133v114h133v520h130l372 -2q335 0 410 -385q43 -216 4 -405t-123 -273q-45 -43 -80 -62q-81 -44 -219 -44h-494zM367 180h264q152 0 212 106t60 294q0 406 -262 405h-274v-334h192v-114h-192v-357z" />
    <glyph glyph-name="ncommaaccent.smcp" horiz-adv-x="1232" 
d="M154 0v1169h182l598 -823v823h186v-1169h-180l-598 831v-831h-188zM537 -309v116q0 49 45 50h110q45 0 45 -50v-184q0 -82 -48 -117t-95 -30l-49 6v67q57 -2 57 54v41h-20q-45 0 -45 47z" />
    <glyph glyph-name="omacron.smcp" horiz-adv-x="1241" 
d="M237 1063q69 67 159 91t212 24q124 0 196 -12q176 -28 249 -144q84 -136 84 -434q0 -366 -131 -488q-70 -63 -158 -87q-88 -23 -212 -23t-197 11t-141 47t-108 99q-86 139 -86 465t133 451zM293 558q0 -251 80 -320q45 -42 98 -54t137 -12t120 4t85 26t74 64
q61 101 61 319q0 219 -38 288q-15 30 -27 52q-12 23 -38 35t-43 20t-65 11q-48 4 -108 4q-61 0 -85 -1t-68 -8t-63 -21t-48 -44t-41 -74q-31 -114 -31 -289zM324 1319v139h598v-139h-598z" />
    <glyph glyph-name="kcommaaccent.smcp" horiz-adv-x="1153" 
d="M154 -2v1169h184v-508h141l381 508h227l-444 -594l444 -575h-227l-385 485h-137v-485h-184zM487 -311v114q0 51 45 52h111q45 0 45 -52v-182q0 -82 -48 -117t-95 -28l-49 4v67q57 -2 57 56v39h-21q-45 0 -45 47z" />
    <glyph glyph-name="ocircumflex.smcp" horiz-adv-x="1241" 
d="M237 1063q69 67 159 91t212 24q124 0 196 -12q176 -28 249 -144q84 -136 84 -434q0 -366 -131 -488q-70 -63 -158 -87q-88 -23 -212 -23t-197 11t-141 47t-108 99q-86 139 -86 465t133 451zM293 558q0 -251 80 -320q45 -42 98 -54t137 -12t120 4t85 26t74 64
q61 101 61 319q0 219 -38 288q-15 30 -27 52q-12 23 -38 35t-43 20t-65 11q-48 4 -108 4q-61 0 -85 -1t-68 -8t-63 -21t-48 -44t-41 -74q-31 -114 -31 -289zM311 1292l234 269h164l209 -269h-158l-137 140l-152 -140h-160z" />
    <glyph glyph-name="otilde.smcp" horiz-adv-x="1241" 
d="M237 1063q69 67 159 91t212 24q124 0 196 -12q176 -28 249 -144q84 -136 84 -434q0 -366 -131 -488q-70 -63 -158 -87q-88 -23 -212 -23t-197 11t-141 47t-108 99q-86 139 -86 465t133 451zM293 558q0 -251 80 -320q45 -42 98 -54t137 -12t120 4t85 26t74 64
q61 101 61 319q0 219 -38 288q-15 30 -27 52q-12 23 -38 35t-43 20t-65 11q-48 4 -108 4q-61 0 -85 -1t-68 -8t-63 -21t-48 -44t-41 -74q-31 -114 -31 -289zM636 1338q-65 34 -114 34t-103 -30q-53 -30 -75 -42l-45 93q72 65 127 99q54 34 112 33t127 -36t95 -35
q55 -2 188 76l45 -96q-131 -131 -233 -131q-59 1 -124 35z" />
    <glyph glyph-name="odieresis.smcp" horiz-adv-x="1241" 
d="M237 1063q69 67 159 91t212 24q124 0 196 -12q176 -28 249 -144q84 -136 84 -434q0 -366 -131 -488q-70 -63 -158 -87q-88 -23 -212 -23t-197 11t-141 47t-108 99q-86 139 -86 465t133 451zM293 558q0 -251 80 -320q45 -42 98 -54t137 -12t120 4t85 26t74 64
q61 101 61 319q0 219 -38 288q-15 30 -27 52q-12 23 -38 35t-43 20t-65 11q-48 4 -108 4q-61 0 -85 -1t-68 -8t-63 -21t-48 -44t-41 -74q-31 -114 -31 -289zM246 1409q0 45 32 76t76 31t76 -31q31 -31 31 -76t-31 -77t-76 -32q-44 0 -76 32t-32 77zM768 1409q0 45 32 76
t77 31t75 -31t31 -76q0 -45 -31 -77q-32 -32 -76 -32t-76 32t-32 77z" />
    <glyph glyph-name="oslash.smcp" horiz-adv-x="1216" 
d="M612 1178q231 0 330 -62q20 25 41 51h133q-25 -31 -94 -120q98 -129 98 -459q0 -186 -30 -305t-97 -183t-155 -87q-88 -24 -226 -23q-240 0 -346 78q-27 -41 -51 -68h-127q57 85 105 141q-86 133 -87 432q0 367 127 490q68 67 156 91t223 24zM295 563q0 -159 33 -244
l499 644q-51 33 -214 33t-204 -31q-69 -51 -82 -106q-32 -137 -32 -296zM932 614q0 173 -41 265q-244 -312 -508 -656q61 -51 225 -51t208 35q65 47 81 106q35 128 35 301z" />
    <glyph glyph-name="uogonek.smcp" horiz-adv-x="1167" 
d="M154 532v635h190v-635q-2 -220 66 -290t230 -70t232 73q72 73 72 287v635h191v-635q0 -362 -188 -476q-96 -58 -255 -66q-78 -64 -100 -118t11 -85q32 -31 106 -33v-131q-66 -13 -126 9q-118 42 -134 158q-8 50 29 106q38 55 120 94q-106 4 -179 24t-137 76
q-128 110 -128 442z" />
    <glyph glyph-name="uacute.smcp" horiz-adv-x="1247" 
d="M154 532v635h190v-635q-2 -220 66 -290t230 -70t232 73q72 73 72 287v635h191v-635q0 -381 -208 -488q-67 -34 -130 -44t-153 -10t-155 9q-67 9 -135 41t-108 89q-92 129 -92 403zM567 1290l209 275h211l-266 -275h-154z" />
    <glyph glyph-name="ucircumflex.smcp" horiz-adv-x="1247" 
d="M154 532v635h190v-635q-2 -220 66 -290t230 -70t232 73q72 73 72 287v635h191v-635q0 -381 -208 -488q-67 -34 -130 -44t-153 -10t-155 9q-67 9 -135 41t-108 89q-92 129 -92 403zM336 1290l233 271h164l209 -271h-158l-137 140l-151 -140h-160z" />
    <glyph glyph-name="udieresis.smcp" horiz-adv-x="1247" 
d="M154 532v635h190v-635q-2 -220 66 -290t230 -70t232 73q72 73 72 287v635h191v-635q0 -381 -208 -488q-67 -34 -130 -44t-153 -10t-155 9q-67 9 -135 41t-108 89q-92 129 -92 403zM268 1399q0 45 32 77t77 32t76 -32t31 -77t-32 -77q-30 -32 -75 -32t-77 32t-32 77z
M791 1399q0 45 31 77q32 32 77 32t76 -32t31 -77t-31 -77t-76 -32t-77 32q-31 32 -31 77z" />
    <glyph glyph-name="utilde.smcp" horiz-adv-x="1247" 
d="M528 1362q-38 0 -66 -9t-67 -32t-59 -31l-45 92q49 43 80 67q87 67 153 66t134 -36t96 -35q57 -2 186 76l47 -97q-6 -5 -39 -33q-85 -74 -153 -94q-68 -21 -148 23q-81 43 -119 43zM154 532v635h190v-635q-2 -220 66 -290t230 -70t232 73q72 73 72 287v635h191v-635
q0 -381 -208 -488q-67 -34 -130 -44t-153 -10t-155 9q-67 9 -135 41t-108 89q-92 129 -92 403z" />
    <glyph glyph-name="umacron.smcp" horiz-adv-x="1247" 
d="M340 1290v140h598v-140h-598zM154 532v635h190v-635q-2 -220 66 -290t230 -70t232 73q72 73 72 287v635h191v-635q0 -381 -208 -488q-67 -34 -130 -44t-153 -10t-155 9q-67 9 -135 41t-108 89q-92 129 -92 403z" />
    <glyph glyph-name="germandbls.smcp" horiz-adv-x="2088" 
d="M1114 891q0 137 68 210t225 73q240 0 545 -44v-141q-324 10 -531 10q-119 0 -118 -110v-119q0 -80 29 -93t89 -13h314q137 0 205 -77t67 -202v-131q0 -274 -272 -274q-113 0 -319 13t-257 34v137q354 -8 553 -8q106 0 107 100v125q0 53 -24 78t-83 24h-309
q-153 0 -221 66t-68 213v129zM72 762v129q0 137 66 210q67 73 224 73q244 0 545 -44v-141l-528 10q-67 -1 -93 -29t-26 -81v-119q0 -80 35 -95q24 -11 84 -11h311q137 0 205 -77t68 -202v-131q0 -274 -273 -274q-112 0 -318 13t-255 34v137l553 -8q104 0 104 100v125
q0 53 -23 78q-24 25 -81 24h-310q-152 0 -220 66t-68 213z" />
    <glyph glyph-name="agrave.smcp" horiz-adv-x="1218" 
d="M258 1565h209l211 -275h-154zM453 465h331l-157 448zM68 0l458 1167h203l424 -1167h-203l-112 291h-449l-119 -291h-202z" />
    <glyph glyph-name="ccedilla.smcp" horiz-adv-x="1060" 
d="M551 -76h151q0 -160 -44 -220t-169 -60h-106v88l102 30q66 29 66 162zM229 1069q106 115 303 115q86 0 234 -16t229 -38v-143q-27 6 -189 15t-255 10q-147 0 -203 -102t-55 -331q0 -230 64 -321q64 -92 194 -94l444 24v-139q-229 -57 -463 -57q-110 0 -190 37t-125 92
q-113 138 -113 474q0 335 125 474z" />
    <glyph glyph-name="eth.smcp" horiz-adv-x="1216" 
d="M367 180h264q152 0 212 106t60 294q0 406 -262 405h-274v-334h192v-114h-192v-357zM172 0v537h-133v114h133v520h130l372 -2q335 0 410 -385q43 -216 4 -405t-123 -273q-45 -43 -80 -62q-81 -44 -219 -44h-494z" />
    <glyph glyph-name="egrave.smcp" horiz-adv-x="1054" 
d="M281 1569h211l208 -275h-153zM154 182v791q0 96 60 146t165 50q561 -20 590 -26v-152h-561q-42 0 -54 -13t-12 -52v-252l561 -17v-149l-561 -14v-252q0 -54 35 -63q14 -3 39 -3h553v-149l-631 -31q-84 0 -134 50t-50 136z" />
    <glyph glyph-name="ecircumflex.smcp" horiz-adv-x="1054" 
d="M289 1294l233 269h164l209 -269h-158l-137 140l-151 -140h-160zM154 182v791q0 96 60 146t165 50q561 -20 590 -26v-152h-561q-42 0 -54 -13t-12 -52v-252l561 -17v-149l-561 -14v-252q0 -54 35 -63q14 -3 39 -3h553v-149l-631 -31q-84 0 -134 50t-50 136z" />
    <glyph glyph-name="igrave.smcp" horiz-adv-x="454" 
d="M-82 1565h209l211 -275h-154zM154 0v1167h188v-1167h-188z" />
    <glyph glyph-name="idieresis.smcp" horiz-adv-x="454" 
d="M412 1399q0 45 31 77q32 32 77 32t76 -32t31 -77t-31 -77t-76 -32t-77 32q-31 32 -31 77zM-111 1399q0 45 32 77t77 32t76 -32q30 -32 30 -77t-30 -77t-76 -32q-45 0 -77 32t-32 77zM154 0v1167h188v-1167h-188z" />
    <glyph glyph-name="ntilde.smcp" horiz-adv-x="1232" 
d="M625 1321q-80 43 -131 43t-104 -30q-52 -30 -75 -42l-45 92q49 43 80 67q87 67 153 66t135 -36t95 -35q53 -2 187 76l47 -97q-4 -2 -63 -54t-129 -72q-70 -21 -150 22zM154 0v1169h182l598 -823v823h186v-1169h-180l-598 831v-831h-188z" />
    <glyph glyph-name="ograve.smcp" horiz-adv-x="1241" 
d="M303 1577h211l209 -277h-154zM293 558q0 -251 80 -320q45 -42 98 -54t137 -12t120 4t85 26t74 64q61 101 61 319q0 219 -38 288q-15 30 -27 52q-12 23 -38 35t-43 20t-65 11q-48 4 -108 4q-61 0 -85 -1t-68 -8t-63 -21t-48 -44t-41 -74q-31 -114 -31 -289zM237 1063
q69 67 159 91t212 24q124 0 196 -12q176 -28 249 -144q84 -136 84 -434q0 -366 -131 -488q-70 -63 -158 -87q-88 -23 -212 -23t-197 11t-141 47t-108 99q-86 139 -86 465t133 451z" />
    <glyph glyph-name="oacute.smcp" horiz-adv-x="1241" 
d="M567 1300l211 277h209l-266 -277h-154zM293 558q0 -251 80 -320q45 -42 98 -54t137 -12t120 4t85 26t74 64q61 101 61 319q0 219 -38 288q-15 30 -27 52q-12 23 -38 35t-43 20t-65 11q-48 4 -108 4q-61 0 -85 -1t-68 -8t-63 -21t-48 -44t-41 -74q-31 -114 -31 -289z
M237 1063q69 67 159 91t212 24q124 0 196 -12q176 -28 249 -144q84 -136 84 -434q0 -366 -131 -488q-70 -63 -158 -87q-88 -23 -212 -23t-197 11t-141 47t-108 99q-86 139 -86 465t133 451z" />
    <glyph glyph-name="ugrave.smcp" horiz-adv-x="1247" 
d="M317 1565h211l209 -275h-153zM154 532v635h190v-635q-2 -220 66 -290t230 -70t232 73q72 73 72 287v635h191v-635q0 -381 -208 -488q-67 -34 -130 -44t-153 -10t-155 9q-67 9 -135 41t-108 89q-92 129 -92 403z" />
    <glyph glyph-name="yacute.smcp" horiz-adv-x="1173" 
d="M485 1290l209 275h211l-266 -275h-154zM684 -2h-188v395l-428 774h204l320 -575l309 575h207l-424 -774v-395z" />
    <glyph glyph-name="thorn.smcp" horiz-adv-x="1097" 
d="M330 406h319q76 0 106 40q29 40 29 146t-34 144q-35 38 -101 46h-319v-376zM143 0v1165h187v-207h332q103 0 195 -60q52 -34 84 -108t32 -180q0 -282 -139 -354q-65 -35 -160 -35q-225 0 -344 33v-254h-187z" />
    <glyph glyph-name="quotesinglbase.smcp" horiz-adv-x="542" 
d="M152 59v150q0 66 59 65h143q57 0 58 -65v-240q0 -67 -26 -111t-62 -60q-76 -32 -136 -23l-24 2v88q76 -2 76 76v57h-29q-59 0 -59 61z" />
    <glyph glyph-name="quotedblleft.smcp" horiz-adv-x="890" 
d="M137 754v239q0 68 26 113q27 45 63 60q79 33 134 24l25 -4v-90q-74 2 -74 -76v-55h27q61 0 61 -60v-151q0 -66 -61 -66h-143q-58 0 -58 66zM492 754v239q0 68 25 113q26 45 64 60q82 33 136 24l26 -4v-90q-78 2 -77 -76v-55h30q57 0 58 -60v-151q0 -66 -58 -66h-143
q-61 0 -61 66z" />
    <glyph glyph-name="quotedblright.smcp" horiz-adv-x="890" 
d="M492 975v149q0 66 61 66h143q57 0 58 -66v-239q0 -68 -26 -113t-62 -60q-78 -33 -134 -24l-26 4v88q74 -2 74 76v57h-27q-25 -1 -43 15t-18 47zM137 975v149q0 66 60 66h143q59 0 59 -66v-239q1 -68 -25 -113t-63 -60q-81 -33 -139 -24l-25 4v88q78 -2 78 76v57h-28
q-60 1 -60 62z" />
    <glyph glyph-name="quotedblbase.smcp" horiz-adv-x="890" 
d="M492 59v150q0 66 61 65h143q57 0 58 -65v-240q0 -67 -26 -111t-62 -60q-75 -33 -134 -23l-26 2v88q74 -2 74 76v57h-27q-25 0 -43 15t-18 46zM137 59v150q0 66 60 65h143q59 0 59 -65v-240q1 -67 -25 -111t-63 -60q-78 -33 -139 -23l-25 2v88q78 -2 78 76v57h-28
q-60 0 -60 61z" />
    <glyph glyph-name="exclamdown.smcp" horiz-adv-x="552" 
d="M170 0l16 815h176l19 -815h-211zM160 985v135q0 47 47 47h131q49 0 49 -47v-135q0 -51 -49 -51h-131q-47 0 -47 51z" />
    <glyph glyph-name="ordmasculine.smcp" horiz-adv-x="860" 
d="M240 816q0 -83 11 -129q18 -74 98 -92q28 -5 83 -5t82 4q77 11 94 91q10 46 12 129q3 167 -47 206q-29 23 -57 28t-87 5q-58 0 -86 -4q-29 -4 -57 -27t-37 -73t-9 -133zM111 264v125h637v-125h-637zM86 821q0 209 74 291t270 82t270 -82q72 -82 72 -292t-74 -291
t-268 -81t-270 82q-74 82 -74 291z" />
    <glyph glyph-name="ordfeminine.smcp" horiz-adv-x="845" 
d="M377 760h176l-82 272zM123 465l252 702h188l223 -702h-143l-53 176h-258l-58 -176h-151zM117 268v125h674v-125h-674z" />
    <glyph glyph-name="Euro.smcp" horiz-adv-x="1056" 
d="M565 1182q168 0 420 -47v-152q-273 23 -377 23t-152 -20q-102 -44 -102 -230l373 -13v-102l-373 -10v-109l373 -10v-106q-25 0 -63 -2t-175 -4q-136 -3 -135 -7q0 -221 226 -221q187 0 346 21l65 6v-152q-180 -57 -426 -57q-98 0 -173 32q-76 32 -121 72q-44 41 -75 119
q-32 78 -32 180l-133 13v106l133 10v109l-133 12v98l133 15q0 426 401 426z" />
    <glyph glyph-name="lcaron.smcp" horiz-adv-x="1015" 
d="M475 1251h164v-137l-21 -274h-120l-23 274v137zM147 195v972h189v-917q-2 -45 20 -56t70 -12h522v-182h-606q-90 0 -142 50t-53 145z" />
    <glyph glyph-name="sacute.smcp" horiz-adv-x="1118" 
d="M461 1307l211 276h209l-267 -276h-153zM104 762v115q0 297 293 297q89 0 275 -14t286 -30v-141q-340 10 -546 10q-119 0 -119 -125v-104q0 -80 35 -95q24 -11 84 -11h329q137 0 205 -77t68 -202v-131q0 -274 -273 -274q-113 0 -327 13t-264 34v137q373 -8 571 -8
q35 0 61 24t33 49l10 27v125q0 53 -22 78q-23 25 -82 24h-328q-153 0 -221 66t-68 213z" />
    <glyph glyph-name="scedilla.smcp" horiz-adv-x="1118" 
d="M428 -82h152q0 -160 -44 -220t-169 -60h-107v88l102 30q66 29 66 162zM104 762v115q0 297 293 297q89 0 275 -14t286 -30v-141q-340 10 -546 10q-119 0 -119 -125v-104q0 -80 35 -95q24 -11 84 -11h329q137 0 205 -77t68 -202v-131q0 -274 -273 -274q-113 0 -327 13
t-264 34v137q373 -8 571 -8q35 0 61 24t33 49l10 27v125q0 53 -22 78q-23 25 -82 24h-328q-153 0 -221 66t-68 213z" />
    <glyph glyph-name="tcaron.smcp" horiz-adv-x="1230" 
d="M377 1583h160l153 -139l135 139h158l-211 -270h-164zM219 985v182h926v-182h-369v-985h-188v985h-369z" />
    <glyph glyph-name="zacute.smcp" horiz-adv-x="1017" 
d="M436 1290l211 275h209l-266 -275h-154zM68 0v182l637 803h-637v182h884v-182l-626 -803h626v-182h-884z" />
    <glyph glyph-name="zdotaccent.smcp" horiz-adv-x="1017" 
d="M403 1337v123q0 51 50 51h114q47 0 47 -51v-123q0 -47 -47 -47h-114q-50 0 -50 47zM68 0v182l637 803h-637v182h884v-182l-626 -803h626v-182h-884z" />
    <glyph glyph-name="racute.smcp" 
d="M465 1292l209 275h211l-267 -275h-153zM303 612h359q147 0 147 211q0 120 -68 150q-44 20 -79 20h-359v-381zM115 0v1169h553q123 0 217 -63q113 -78 113 -303q0 -127 -52 -225q-51 -98 -160 -111l265 -467h-209l-244 446q-41 2 -167 14t-128 15v-475h-188z" />
    <glyph glyph-name="abreve.smcp" horiz-adv-x="1218" 
d="M393 1524h103q0 -57 39 -94t95 -37q56 -1 94 35t38 96h102q0 -109 -72 -171q-72 -63 -165 -63q-94 0 -164 65t-70 169zM453 465h331l-157 448zM68 0l458 1167h203l424 -1167h-203l-112 291h-449l-119 -291h-202z" />
    <glyph glyph-name="lacute.smcp" horiz-adv-x="1019" 
d="M184 1290l209 275h211l-266 -275h-154zM154 195v972h188v-917q-2 -45 18 -56t72 -12h522v-182h-606q-90 0 -142 50t-52 145z" />
    <glyph glyph-name="cacute.smcp" horiz-adv-x="1060" 
d="M496 1317l211 276h208l-266 -276h-153zM229 1069q106 115 303 115q86 0 234 -16t229 -38v-143q-27 6 -189 15t-255 10q-147 0 -203 -102t-55 -331q0 -230 64 -321q64 -92 194 -94l444 24v-139q-229 -57 -463 -57q-110 0 -190 37t-125 92q-113 138 -113 474q0 335 125 474
z" />
    <glyph glyph-name="ecaron.smcp" horiz-adv-x="1054" 
d="M268 1561h160l156 -140l135 140h158l-211 -269h-164zM154 182v791q0 96 60 146t165 50q561 -20 590 -26v-152h-561q-42 0 -54 -13t-12 -52v-252l561 -17v-149l-561 -14v-252q0 -54 35 -63q14 -3 39 -3h553v-149l-631 -31q-84 0 -134 50t-50 136z" />
    <glyph glyph-name="dcaron.smcp" horiz-adv-x="1226" 
d="M393 1563h160l154 -140l135 140h157l-211 -269h-163zM446 180h320q270 0 270 400q0 209 -72 310q-73 101 -198 101h-320v-811zM258 0v1171h518q348 -5 428 -388q20 -95 20 -209q1 -213 -65 -364q-27 -60 -71 -102t-78 -62q-78 -46 -234 -46h-518z" />
    <glyph glyph-name="nacute.smcp" horiz-adv-x="1232" 
d="M590 1292l209 277h211l-267 -277h-153zM154 0v1169h182l598 -823v823h186v-1169h-180l-598 831v-831h-188z" />
    <glyph glyph-name="ncaron.smcp" horiz-adv-x="1232" 
d="M338 1561h160l155 -140l135 140h158l-211 -269h-164zM154 0v1169h182l598 -823v823h186v-1169h-180l-598 831v-831h-188z" />
    <glyph glyph-name="ohungarumlaut.smcp" horiz-adv-x="1241" 
d="M688 1300l211 277h209l-266 -277h-154zM401 1300l209 277h211l-266 -277h-154zM293 558q0 -251 80 -320q45 -42 98 -54t137 -12t120 4t85 26t74 64q61 101 61 319q0 219 -38 288q-15 30 -27 52q-12 23 -38 35t-43 20t-65 11q-48 4 -108 4q-61 0 -85 -1t-68 -8t-63 -21
t-48 -44t-41 -74q-31 -114 -31 -289zM237 1063q69 67 159 91t212 24q124 0 196 -12q176 -28 249 -144q84 -136 84 -434q0 -366 -131 -488q-70 -63 -158 -87q-88 -23 -212 -23t-197 11t-141 47t-108 99q-86 139 -86 465t133 451z" />
    <glyph glyph-name="rcaron.smcp" 
d="M227 1561h158l156 -140l135 140h158l-211 -269h-164zM303 612h359q147 0 147 211q0 120 -68 150q-44 20 -79 20h-359v-381zM115 0v1169h553q123 0 217 -63q113 -78 113 -303q0 -127 -52 -225q-51 -98 -160 -111l265 -467h-209l-244 446q-41 2 -167 14t-128 15v-475h-188z
" />
    <glyph glyph-name="uring.smcp" horiz-adv-x="1247" 
d="M539 1447q1 -44 31 -74t74 -30t74 30t30 74t-30 75q-30 30 -74 30t-75 -30q-30 -31 -30 -75zM436 1447q0 87 62 149t147 62q87 0 147 -62t60 -149t-60 -149t-146 -61q-86 -1 -148 61t-62 149zM154 532v635h190v-635q-2 -220 66 -290t230 -70t232 73q72 73 72 287v635h191
v-635q0 -381 -208 -488q-67 -34 -130 -44t-153 -10t-155 9q-67 9 -135 41t-108 89q-92 129 -92 403z" />
    <glyph glyph-name="uhungarumlaut.smcp" horiz-adv-x="1247" 
d="M702 1290l211 275h209l-266 -275h-154zM414 1290l211 275h209l-267 -275h-153zM154 532v635h190v-635q-2 -220 66 -290t230 -70t232 73q72 73 72 287v635h191v-635q0 -381 -208 -488q-67 -34 -130 -44t-153 -10t-155 9q-67 9 -135 41t-108 89q-92 129 -92 403z" />
    <glyph glyph-name="tcommaaccent.smcp" horiz-adv-x="1058" 
d="M545 -94q0 -160 -44 -220t-169 -61h-107v88l103 31q66 29 65 162h152zM68 985v182h925v-182h-368v-985h-189v985h-368z" />
    <glyph glyph-name="lslash.smcp" horiz-adv-x="1007" 
d="M170 1167h188v-440l230 92v-137l-230 -94v-338q-2 -45 20 -56t71 -12h522v-182h-606q-90 0 -143 50q-52 50 -52 145v317l-131 -53v139l131 53v516z" />
    <glyph glyph-name="questiondown.smcp" horiz-adv-x="1007" 
d="M473 987v135q0 47 51 47h127q49 0 49 -47v-135q0 -51 -49 -51h-127q-51 0 -51 51zM106 326v86q0 154 116 234t278 52v119h174v-272q-146 4 -212 1t-116 -36t-51 -96v-82q0 -156 186 -156h459v-147q-287 -43 -471 -35q-175 0 -269 89t-94 243z" />
    <glyph glyph-name="oe.smcp" horiz-adv-x="1804" 
d="M264 558q0 -249 80 -320q45 -42 98 -54q52 -12 136 -12t120 4t86 26q49 22 74 64q60 100 62 322q0 212 -38 286q-16 30 -28 51q-12 23 -38 35t-43 20t-65 11q-48 4 -108 4t-85 -1q-24 -1 -68 -8t-63 -21t-48 -44t-41 -74q-31 -114 -31 -289zM162 147q-86 139 -86 464
t132 452q69 67 159 91t225 24q266 0 364 -97q51 88 189 88q561 -20 590 -26v-152h-561q-42 0 -54 -13t-12 -52v-252l561 -17v-149l-561 -14v-252q0 -54 35 -63q14 -3 39 -3h553v-149l-631 -31q-113 0 -156 92q-100 -98 -356 -98q-110 0 -182 11t-141 47t-107 99z" />
    <glyph glyph-name="ydieresis.smcp" horiz-adv-x="1173" 
d="M741 1399q0 45 32 77t77 32t76 -32q30 -32 30 -77t-30 -77t-76 -32q-45 0 -77 32t-32 77zM217 1399q0 45 33 77t78 32q46 0 76 -32t30 -77t-31 -77t-75 -32t-78 32q-33 32 -33 77zM684 -2h-188v395l-428 774h204l320 -575l309 575h207l-424 -774v-395z" />
    <glyph glyph-name="sterling.smcp" horiz-adv-x="1054" 
d="M96 0v127l115 41v336h-115v102l117 33v152q0 379 403 378l347 -26v-152h-334q-133 0 -181 -47t-49 -158v-139l437 -31v-116h-437v-324h562v-176h-865z" />
    <glyph glyph-name="yen.smcp" horiz-adv-x="1073" 
d="M932 528v-122h-301v-60h301v-121h-301v-225h-189v225h-284v121h284v60h-284v122h252l-371 641h211l287 -499l286 499h213l-377 -641h273z" />
    <glyph glyph-name="perthousand.smcp" horiz-adv-x="2508" 
d="M1946 268q0 -68 26 -92t94 -24h93q81 0 103 24t22 92v123q0 69 -26 93t-95 24h-92q-80 0 -103 -24t-22 -93v-123zM1794 258v143q0 135 59 197t209 61h109q145 0 205 -61t59 -197v-143q0 -134 -59 -196t-209 -62h-109q-145 0 -205 61q-59 62 -59 197zM1186 268
q0 -68 26 -92t95 -24h94q79 0 101 24t22 92v123q0 69 -26 93t-93 24h-94q-80 0 -103 -24t-22 -93v-123zM1034 258v143q0 135 60 197t209 61h108q145 0 205 -61t59 -197v-143q0 -134 -59 -196t-209 -62h-109q-144 0 -204 62t-60 196zM440 0l682 1167h162l-680 -1167h-164z
M207 774q1 -70 25 -94t94 -23h94q80 0 102 25t21 92v125q0 69 -25 93t-94 24h-94q-78 0 -101 -24t-22 -93v-125zM55 766v143q-1 135 59 197t210 61h108q146 0 204 -61t58 -197v-143q0 -136 -58 -198t-208 -62h-109q-145 0 -205 62t-59 198z" />
    <glyph glyph-name="circumflex.smcp" horiz-adv-x="796" 
d="M96 1087l234 269h164l208 -269h-157l-139 140l-150 -140h-160z" />
    <glyph glyph-name="tilde.smcp" horiz-adv-x="884" 
d="M433 1126q-65 34 -115 33t-102 -31t-75 -41l-45 93q72 66 127 100t113 32q58 -1 126 -36q69 -35 95 -35q55 -2 188 76l46 -96q-79 -79 -164 -118q-80 -36 -194 23z" />
    <glyph glyph-name="ring.smcp" horiz-adv-x="604" 
d="M199 1294q1 -44 31 -74t73 -30t74 31t31 73t-31 74q-31 31 -74 31t-73 -31t-31 -74zM96 1294q0 88 60 150t147 61q87 0 147 -61q60 -62 60 -150t-60 -149t-146 -61t-148 60q-60 62 -60 150z" />
    <glyph glyph-name="hbar.smcp" horiz-adv-x="1243" 
d="M352 655h576v164h-576v-164zM63 819v111h101v237h188v-237h576v237h188v-237h96v-111h-96v-821h-188v475h-576v-475h-188v821h-101z" />
    <glyph glyph-name="hcircumflex.smcp" horiz-adv-x="1218" 
d="M315 1290l236 271h164l209 -271h-158l-139 140l-152 -140h-160zM154 -2v1169h188v-512h576v512h188v-1169h-188v473h-576v-473h-188z" />
    <glyph glyph-name="gbreve.smcp" horiz-adv-x="1177" 
d="M414 1542h102q0 -55 40 -93t95 -38t93 36t38 95h103q0 -109 -72 -171t-165 -62t-164 64q-70 65 -70 169zM104 586q0 303 92 450t339 150q81 2 251 -14t258 -37v-148q-270 25 -479 25q-156 0 -214 -83t-58 -339q0 -141 45 -267q55 -157 226 -157q90 0 188 35t133 69v213
h-322v117q172 47 373 47q63 0 137 -6v-641h-143l-39 90q-147 -104 -359 -104q-240 0 -345 203q-69 134 -82 330q-1 32 -1 67z" />
    <glyph glyph-name="jcircumflex.smcp" horiz-adv-x="681" 
d="M145 1290l234 271h164l209 -271h-158l-137 140l-152 -140h-160zM381 1167h188v-829q0 -231 -118 -301q-101 -51 -201 -46t-182 52l6 141q166 -25 234 7t73 171v805z" />
    <glyph glyph-name="cdotaccent.smcp" horiz-adv-x="1060" 
d="M522 1364v123q0 51 49 51h115q47 0 47 -51v-123q0 -47 -47 -47h-115q-49 0 -49 47zM229 1069q106 115 303 115q86 0 234 -16t229 -38v-143q-27 6 -189 15t-255 10q-147 0 -203 -102t-55 -331q0 -230 64 -321q64 -92 194 -94l444 24v-139q-229 -57 -463 -57
q-110 0 -190 37t-125 92q-113 138 -113 474q0 335 125 474z" />
    <glyph glyph-name="ccircumflex.smcp" horiz-adv-x="1060" 
d="M322 1317l233 268h164l209 -268h-158l-139 139l-150 -139h-159zM229 1069q106 115 303 115q86 0 234 -16t229 -38v-143q-27 6 -189 15t-255 10q-147 0 -203 -102t-55 -331q0 -230 64 -321q64 -92 194 -94l444 24v-139q-229 -57 -463 -57q-110 0 -190 37t-125 92
q-113 138 -113 474q0 335 125 474z" />
    <glyph glyph-name="gdotaccent.smcp" horiz-adv-x="1177" 
d="M539 1356v123q0 51 49 51h114q47 0 48 -51v-123q0 -47 -48 -47h-114q-49 0 -49 47zM104 586q0 303 92 450t339 150q81 2 251 -14t258 -37v-148q-270 25 -479 25q-156 0 -214 -83t-58 -339q0 -141 45 -267q55 -157 226 -157q90 0 188 35t133 69v213h-322v117
q172 47 373 47q63 0 137 -6v-641h-143l-39 90q-147 -104 -359 -104q-240 0 -345 203q-69 134 -82 330q-1 32 -1 67z" />
    <glyph glyph-name="gcircumflex.smcp" horiz-adv-x="1177" 
d="M342 1307l233 270h164l209 -270h-157l-140 139l-149 -139h-160zM104 586q0 303 92 450t339 150q81 2 251 -14t258 -37v-148q-270 25 -479 25q-156 0 -214 -83t-58 -339q0 -141 45 -267q55 -157 226 -157q90 0 188 35t133 69v213h-322v117q172 47 373 47q63 0 137 -6v-641
h-143l-39 90q-147 -104 -359 -104q-240 0 -345 203q-69 134 -82 330q-1 32 -1 67z" />
    <glyph glyph-name="ubreve.smcp" horiz-adv-x="1247" 
d="M410 1524h102q0 -57 39 -94t95 -37q56 -1 94 35t38 96h103q0 -109 -72 -171q-72 -63 -166 -63t-164 65q-69 65 -69 169zM154 532v635h190v-635q-2 -220 66 -290t230 -70t232 73q72 73 72 287v635h191v-635q0 -381 -208 -488q-67 -34 -130 -44t-153 -10t-155 9
q-67 9 -135 41t-108 89q-92 129 -92 403z" />
    <glyph glyph-name="scircumflex.smcp" horiz-adv-x="1118" 
d="M225 1307l236 270h164l209 -270h-158l-139 139l-152 -139h-160zM104 762v115q0 297 293 297q89 0 275 -14t286 -30v-141q-340 10 -546 10q-119 0 -119 -125v-104q0 -80 35 -95q24 -11 84 -11h329q137 0 205 -77t68 -202v-131q0 -274 -273 -274q-113 0 -327 13t-264 34
v137q373 -8 571 -8q35 0 61 24t33 49l10 27v125q0 53 -22 78q-23 25 -82 24h-328q-153 0 -221 66t-68 213z" />
    <glyph glyph-name="Idotaccent.smcp" horiz-adv-x="423" 
d="M113 0v1167h188v-1167h-188zM106 1354v123q0 51 50 51h114q47 0 47 -51v-123q0 -47 -47 -47h-114q-50 0 -50 47z" />
    <glyph glyph-name="periodcentered.smcp" horiz-adv-x="550" 
d="M170 532v136q0 51 49 51h127q51 0 51 -51v-136q0 -47 -51 -47h-127q-49 0 -49 47z" />
    <glyph glyph-name="bullet.smcp" horiz-adv-x="636" 
d="M162 569v187q0 72 67 71h174q72 0 72 -71v-187q0 -66 -72 -65h-174q-67 -1 -67 65z" />
    <glyph glyph-name="quoteleft.smcp" horiz-adv-x="565" 
d="M152 754v239q0 68 25 113q26 45 63 60q80 32 137 24l24 -4v-90q-76 2 -75 -76v-57h28q57 0 58 -58v-151q0 -66 -58 -66h-143q-59 0 -59 66z" />
    <glyph glyph-name="quoteright.smcp" horiz-adv-x="565" 
d="M152 975v149q0 66 59 66h143q57 0 58 -66v-239q0 -68 -26 -113t-62 -60q-79 -32 -136 -24l-24 4v88q76 -2 76 76v57h-29q-59 1 -59 62z" />
    <glyph glyph-name="uni1E03.smcp" horiz-adv-x="1118" 
d="M459 1339v123q0 51 49 51h115q49 0 49 -51v-123q0 -47 -49 -47h-115q-49 0 -49 47zM342 688h348q86 0 118 36t32 124q0 145 -150 145h-348v-305zM342 178h348q41 0 71 8q31 8 57 47t26 109q0 178 -154 178q-287 -2 -348 0v-342zM154 0v1169h542q176 0 254 -90t78 -223
q0 -199 -137 -260q61 -24 102 -90t41 -174q0 -332 -338 -332h-542z" />
    <glyph glyph-name="uni1E0B.smcp" horiz-adv-x="1224" 
d="M457 1341v123q0 51 49 52h115q47 0 47 -52v-123q0 -47 -47 -47h-115q-49 0 -49 47zM342 180h322q268 0 268 400q0 209 -73 310t-195 101h-322v-811zM154 0v1171h518q129 -2 222 -56t139 -145q87 -172 87 -390q0 -342 -136 -472q-44 -42 -79 -62q-78 -46 -233 -46h-518z
" />
    <glyph glyph-name="uni1E1F.smcp" horiz-adv-x="1054" 
d="M467 1341v123q0 51 49 52h115q47 0 47 -52v-123q0 -47 -47 -47h-115q-49 0 -49 47zM154 0v973q0 96 60 146t165 50q561 -20 590 -26v-152h-561q-44 0 -54 -14t-12 -51v-264l561 -17v-149l-561 -15v-481h-188z" />
    <glyph glyph-name="uni1E41.smcp" horiz-adv-x="1519" 
d="M678 1339v123q0 51 49 51h115q47 0 47 -51v-123q0 -47 -47 -47h-115q-49 0 -49 47zM104 0l113 1169h238l309 -874l309 874h234l108 -1169h-184l-80 858l-297 -858h-174l-303 858l-90 -858h-183z" />
    <glyph glyph-name="wgrave.smcp" horiz-adv-x="1740" 
d="M537 1567h211l208 -275h-153zM68 1167h202l318 -907l301 907h201l-125 -379l211 -528l307 907h192l-399 -1167h-203l-199 510l-176 -510h-211z" />
    <glyph glyph-name="uni1E57.smcp" horiz-adv-x="1081" 
d="M449 1335v123q0 51 49 51h114q47 0 47 -51v-123q0 -47 -47 -47h-114q-49 0 -49 47zM305 610h359q61 0 91 22q54 41 54 173q2 90 -42 137t-103 47h-359v-379zM115 0v1165h559q131 0 227 -85t96 -257q0 -257 -113 -326q-82 -51 -178 -55q-34 -2 -216 10t-185 15v-467h-190z
" />
    <glyph glyph-name="wacute.smcp" horiz-adv-x="1740" 
d="M803 1292l211 275h209l-267 -275h-153zM68 1167h202l318 -907l301 907h201l-125 -379l211 -528l307 907h192l-399 -1167h-203l-199 510l-176 -510h-211z" />
    <glyph glyph-name="ygrave.smcp" horiz-adv-x="1173" 
d="M250 1565h211l211 -275h-156zM684 -2h-188v395l-428 774h204l320 -575l309 575h207l-424 -774v-395z" />
    <glyph glyph-name="wdieresis.smcp" horiz-adv-x="1740" 
d="M1032 1401q0 45 32 76t77 31t77 -32q32 -30 32 -75t-32 -77t-77 -32t-77 32t-32 77zM510 1401q0 45 32 76t76 31t77 -32q32 -30 32 -75t-32 -77t-77 -32q-44 0 -76 32t-32 77zM68 1167h202l318 -907l301 907h201l-125 -379l211 -528l307 907h192l-399 -1167h-203
l-199 510l-176 -510h-211z" />
    <glyph glyph-name="uni1E61.smcp" horiz-adv-x="1118" 
d="M442 1343v123q0 51 50 52h114q47 0 47 -52v-123q0 -47 -47 -47h-114q-50 0 -50 47zM104 762v115q0 297 293 297q89 0 275 -14t286 -30v-141q-340 10 -546 10q-119 0 -119 -125v-104q0 -80 35 -95q24 -11 84 -11h329q137 0 205 -77t68 -202v-131q0 -274 -273 -274
q-113 0 -327 13t-264 34v137q373 -8 571 -8q35 0 61 24t33 49l10 27v125q0 53 -22 78q-23 25 -82 24h-328q-153 0 -221 66t-68 213z" />
    <glyph glyph-name="wcircumflex.smcp" horiz-adv-x="1740" 
d="M582 1292l235 269h164l209 -269h-158l-139 140l-152 -140h-159zM68 1167h202l318 -907l301 907h201l-125 -379l211 -528l307 907h192l-399 -1167h-203l-199 510l-176 -510h-211z" />
    <glyph glyph-name="uni1E6B.smcp" horiz-adv-x="1058" 
d="M424 1337v123q0 51 49 51h115q47 0 47 -51v-123q0 -47 -47 -47h-115q-49 0 -49 47zM68 985v182h925v-182h-368v-985h-189v985h-368z" />
    <glyph glyph-name="ycircumflex.smcp" horiz-adv-x="1173" 
d="M287 1290l233 271h164l209 -271h-158l-137 140l-152 -140h-159zM684 -2h-188v395l-428 774h204l320 -575l309 575h207l-424 -774v-395z" />
    <glyph glyph-name="c_k" horiz-adv-x="2131" 
d="M1378 0h-188v285q-360 -299 -621 -299q-493 0 -493 559q0 339 102 455q50 58 110 80t146 22q215 0 477 -60v-129q-461 28 -529 7q-32 -10 -63 -48q-55 -67 -55 -305q0 -239 77 -323t228 -84q219 0 621 358v1084h188v-920l455 408l262 -3l-518 -473l516 -614h-227
l-424 494l-64 -56v-438z" />
    <glyph glyph-name="N.salt" horiz-adv-x="1411" 
d="M154 0v1311q0 88 55 141t126 59q71 7 141 -31t95 -114l490 -1165q10 -27 30 -23q19 4 19 29v1292h188v-1311q0 -104 -86 -162t-186 -30t-137 137l-494 1178q-10 23 -30 17t-21 -32v-1296h-190z" />
    <glyph glyph-name="M.salt" horiz-adv-x="1671" 
d="M104 0l80 1319q0 84 58 135t131 57q73 5 139 -33t82 -116l215 -789q8 -38 38 -21q11 7 13 21l197 791q16 78 83 117q66 39 140 33t132 -58q58 -51 61 -133l96 -1323h-191l-94 1278q0 27 -24 31q-25 4 -31 -21l-195 -782q-18 -86 -106 -121t-177 0t-110 123l-219 782
q-6 29 -29 19q-24 -10 -24 -33l-78 -1276h-187z" />
    <glyph glyph-name="uni1E40.salt" horiz-adv-x="1671" 
d="M741 1686v122q0 51 50 52h114q45 0 45 -52v-122q0 -47 -45 -48h-114q-50 1 -50 48zM104 0l80 1319q0 84 58 135t131 57q73 5 139 -33t82 -116l215 -789q8 -38 38 -21q11 7 13 21l197 791q16 78 83 117q66 39 140 33t132 -58q58 -51 61 -133l96 -1323h-191l-94 1278
q0 27 -24 31q-25 4 -31 -21l-195 -782q-18 -86 -106 -121t-177 0t-110 123l-219 782q-6 29 -29 19q-24 -10 -24 -33l-78 -1276h-187z" />
    <glyph glyph-name="Ntilde.salt" horiz-adv-x="1411" 
d="M736 1672q-65 34 -115 34t-102 -30t-75 -42l-45 90q74 66 129 101t115 35q55 -4 124 -38t95 -34q57 -2 187 76l47 -97q-34 -34 -97 -77q-63 -44 -89 -50t-68 -4t-106 36zM154 0v1311q0 88 55 141t126 59q71 7 141 -31t95 -114l490 -1165q10 -27 30 -23q19 4 19 29v1292
h188v-1311q0 -104 -86 -162t-186 -30t-137 137l-494 1178q-10 23 -30 17t-21 -32v-1296h-190z" />
    <glyph glyph-name="Nacute.salt" horiz-adv-x="1411" 
d="M680 1634l211 275h209l-266 -275h-154zM154 0v1311q0 88 55 141t126 59q71 7 141 -31t95 -114l490 -1165q10 -27 30 -23q19 4 19 29v1292h188v-1311q0 -104 -86 -162t-186 -30t-137 137l-494 1178q-10 23 -30 17t-21 -32v-1296h-190z" />
    <glyph glyph-name="Ncaron.salt" horiz-adv-x="1411" 
d="M444 1903h160l156 -140l135 140h158l-213 -269h-164zM154 0v1311q0 88 55 141t126 59q71 7 141 -31t95 -114l490 -1165q10 -27 30 -23q19 4 19 29v1292h188v-1311q0 -104 -86 -162t-186 -30t-137 137l-494 1178q-10 23 -30 17t-21 -32v-1296h-190z" />
    <glyph glyph-name="Ncommaaccent.salt" horiz-adv-x="1411" 
d="M598 -324v117q0 49 45 49h111q45 0 45 -49v-182q1 -51 -19 -85t-65 -51t-88 -12l-21 5v67q57 -2 58 55v41h-21q-45 0 -45 45zM154 0v1311q0 88 55 141t126 59q71 7 141 -31t95 -114l490 -1165q10 -27 30 -23q19 4 19 29v1292h188v-1311q0 -104 -86 -162t-186 -30
t-137 137l-494 1178q-10 23 -30 17t-21 -32v-1296h-190z" />
    <glyph glyph-name="zero.numerator" horiz-adv-x="956" 
d="M270 772q0 -59 23 -81t90 -21h197q68 0 90 22t20 80v477q0 55 -21 78q-22 23 -87 23h-201q-70 0 -90 -25t-21 -76v-477zM115 754v512q0 233 247 233h240q238 0 238 -231v-514q0 -132 -60 -182t-178 -50h-240q-117 0 -182 48t-65 184z" />
    <glyph glyph-name="one.numerator" horiz-adv-x="552" 
d="M430 1503v-979h-151v822l-248 -66v109l248 114h151z" />
    <glyph glyph-name="two.numerator" horiz-adv-x="800" 
d="M61 1366q-2 0 -2 58t2 59q266 33 385 33q274 0 275 -285q0 -242 -391 -559h391v-148h-653v140q12 10 80 61q225 167 321 285q96 117 95 203q-1 85 -36 119t-120 34h-347z" />
    <glyph glyph-name="three.numerator" horiz-adv-x="833" 
d="M567 817q0 125 -137 129l-283 10v117l283 14q139 6 139 119v41q0 111 -139 111h-373v108l39 13q20 6 44 10t40 7t47 4t43 3t68 2h131q123 -3 187 -71t65 -170v-70q0 -70 -29 -118t-76 -64q104 -59 105 -197v-53q-1 -119 -61 -182t-201 -64h-177q-105 0 -216 37l2 109
l354 2q82 0 114 24t31 88v41z" />
    <glyph glyph-name="four.numerator" horiz-adv-x="862" 
d="M567 911v238l56 100h98v-338h115v-125l-115 -22v-240h-154v234h-491l-45 61l405 680h170l-348 -588h309z" />
    <glyph glyph-name="five.numerator" horiz-adv-x="856" 
d="M104 666h424q100 0 101 104v100q0 88 -41 107q-23 10 -58 10h-208q-86 0 -86 -94h-130l31 606h613v-149h-474l-14 -254q38 35 144 40t149 -3q115 -2 171 -69t56 -181v-131q0 -121 -64 -180q-65 -58 -171 -58q-273 0 -443 31v121z" />
    <glyph glyph-name="six.numerator" horiz-adv-x="899" 
d="M258 961q0 -289 133 -289h187q48 0 70 22t22 74v109q0 49 -22 66t-68 18h-322zM788 1364h-399q-43 0 -72 -28q-51 -50 -59 -259q205 29 336 29t179 -58t48 -157v-148q0 -111 -60 -165t-165 -54h-217q-207 0 -254 251q-21 105 -20 255t21 248q34 159 137 210q40 19 95 23
q178 12 430 -26v-121z" />
    <glyph glyph-name="seven.numerator" horiz-adv-x="768" 
d="M29 1354v149h669l41 -73l-374 -906h-170l344 830h-510z" />
    <glyph glyph-name="eight.numerator" horiz-adv-x="952" 
d="M279 1192q0 -102 96 -102h203q40 0 64 17t28 37t4 48v61q0 67 -24 89t-81 22h-180q-63 0 -87 -24t-23 -87v-61zM279 754q0 -46 20 -66t78 -20h207q90 0 90 86v94q0 96 -88 96h-211q-49 0 -73 -22t-23 -74v-94zM127 737v113q0 119 113 149q-113 39 -113 187v84
q0 240 246 239h225q117 0 173 -55t56 -184v-78q4 -32 -9 -69q-24 -70 -91 -85q51 -10 76 -68t24 -114v-117q0 -219 -223 -219h-244q-137 0 -185 60t-48 157z" />
    <glyph glyph-name="nine.numerator" horiz-adv-x="899" 
d="M240 1157q0 -49 20 -66t68 -18h323q0 291 -129 291h-192q-90 0 -90 -96v-111zM86 1145v145q0 111 61 166t164 55h217q64 0 110 -20q46 -21 86 -73q81 -106 78 -409q-3 -304 -76 -398q-38 -48 -77 -66t-96 -23q-233 -20 -434 25v121h399q127 0 133 288q-209 -28 -339 -28
t-178 60t-48 157z" />
    <glyph glyph-name="zero.denominator" horiz-adv-x="956" 
d="M270 250q0 -59 23 -81t90 -22h197q68 0 90 23t20 80v477q0 55 -21 78q-22 23 -87 22h-201q-70 -1 -90 -25t-21 -75v-477zM115 231v512q0 233 247 234h240q238 0 238 -232v-514q0 -133 -60 -182t-178 -49h-240q-117 0 -182 47t-65 184z" />
    <glyph glyph-name="one.denominator" horiz-adv-x="552" 
d="M430 979v-977h-151v821l-248 -65v110l248 111h151z" />
    <glyph glyph-name="two.denominator" horiz-adv-x="800" 
d="M61 844q-2 0 -2 58t2 59q266 33 385 32q274 0 275 -284q0 -242 -391 -559h391v-148h-653v139q302 227 400 348q97 121 96 205t-36 117t-120 33h-347z" />
    <glyph glyph-name="three.denominator" horiz-adv-x="833" 
d="M567 295q0 125 -137 129l-283 10v117l283 14q139 6 139 119v41q0 111 -139 111h-373v108q117 39 227 39h185q123 0 187 -69t65 -173v-69q0 -70 -29 -118t-76 -65q104 -59 105 -196v-53q-1 -118 -61 -182t-201 -64h-185q-113 0 -208 37l2 108l354 2q82 0 114 26t31 87v41z
" />
    <glyph glyph-name="four.denominator" horiz-adv-x="862" 
d="M567 389v238l56 100h98v-338h115v-125l-115 -28v-234h-154v234h-491l-45 61l405 680h170l-348 -588h309z" />
    <glyph glyph-name="five.denominator" horiz-adv-x="856" 
d="M104 143h424q100 0 101 103v102q0 86 -41 105q-23 10 -58 10h-208q-86 0 -86 -90h-130l31 604h613v-150h-474l-14 -256q47 47 207 42q82 -3 86 -3q115 -2 171 -68t56 -182v-131q0 -121 -64 -179t-171 -58q-273 0 -443 31v120z" />
    <glyph glyph-name="six.denominator" horiz-adv-x="899" 
d="M258 438q0 -289 133 -288h187q48 0 70 22t22 74v108q0 48 -22 66t-68 18h-322zM788 842h-399q-43 0 -72 -28q-51 -50 -59 -259q205 29 336 29t179 -58t48 -157v-148q0 -111 -60 -165t-165 -54h-217q-207 0 -254 251q-21 105 -20 255t21 246q35 162 137 211q40 18 95 22
q211 16 430 -24v-121z" />
    <glyph glyph-name="seven.denominator" horiz-adv-x="768" 
d="M29 831v148h669l41 -72l-374 -905h-170l344 829h-510z" />
    <glyph glyph-name="eight.denominator" horiz-adv-x="952" 
d="M279 670q0 -102 96 -103h203q96 0 96 103v61q0 65 -24 87t-81 22h-180q-63 0 -87 -23t-23 -86v-61zM279 231q0 -47 20 -66t78 -20h207q90 0 90 86v95q0 96 -88 96h-211q-49 0 -73 -22t-23 -74v-95zM127 215v113q0 119 113 149q-113 39 -113 187v84q0 240 246 239h225
q117 0 173 -55t56 -184v-78q4 -32 -9 -69q-24 -70 -91 -85q51 -10 76 -67t24 -115v-117q0 -219 -223 -219h-244q-137 0 -185 60t-48 157z" />
    <glyph glyph-name="nine.denominator" horiz-adv-x="899" 
d="M240 633q0 -49 20 -67t68 -17h323q0 291 -129 291h-192q-90 0 -90 -97v-110zM86 621v145q0 111 61 166t164 55h217q64 0 110 -19q168 -70 164 -488q-3 -297 -76 -389q-38 -48 -77 -66t-96 -23q-219 -20 -434 23v120h399q127 0 133 289q-197 -31 -333 -31t-184 60t-48 158
z" />
    <glyph glyph-name="c_h" horiz-adv-x="2150" 
d="M1149 438v1168h188v-643q33 17 72 43q38 26 92 50q54 23 72 27q18 3 52 13t99 10q160 0 246 -104t86 -252v-750h-188v750q0 92 -46 138t-122 46t-147 -18t-103 -34q-32 -15 -113 -59v-391q0 -222 -117 -322q-117 -99 -282 -113q-225 -19 -320 -12q-96 7 -167 1
q-83 0 -145 22q-152 53 -202 249q-28 116 -28 287q0 170 26 284q44 195 187 251q59 23 145 23q221 0 477 -62v-127q-465 25 -529 5q-32 -10 -63 -48q-55 -67 -55 -309q0 -243 46 -322t161 -79l220 -2q260 0 333 44t89 79q36 75 36 157z" />
    <glyph glyph-name="m.salt" horiz-adv-x="1820" 
d="M834 745q0 185 -182 185q-90 0 -162 -14t-187 -60v-856h-188v983q167 75 277 99t275 24t257 -88q129 51 228 69q99 19 249 19q149 0 237 -101t88 -247v-758h-188v745q0 185 -181 185q-91 0 -164 -14t-185 -60q14 -45 14 -108v-748h-188v745z" />
    <glyph glyph-name="n.salt" 
d="M834 745q0 185 -182 185q-90 0 -162 -14t-187 -60v-856h-188v983q167 75 279 99t279 24t258 -102t91 -246v-758h-188v745z" />
    <glyph glyph-name="ntilde.salt" 
d="M221 1321q51 45 80 68q84 67 152 65q67 -2 136 -37t93 -35q55 -2 188 76l45 -96q-39 -39 -86 -71q-47 -33 -76 -47t-79 -12q-51 1 -116 35t-112 33t-103 -30q-56 -30 -77 -41zM834 745q0 185 -182 185q-90 0 -162 -14t-187 -60v-856h-188v983q167 75 279 99t279 24
t258 -102t91 -246v-758h-188v745z" />
    <glyph glyph-name="ncommaaccent.salt" 
d="M469 -309v116q0 49 47 50h111q43 0 43 -50v-184q0 -82 -48 -117t-96 -30l-47 6v67q57 -2 58 54v41h-21q-47 0 -47 47zM834 745q0 185 -182 185q-90 0 -162 -14t-187 -60v-856h-188v983q167 75 279 99t279 24t258 -102t91 -246v-758h-188v745z" />
    <glyph glyph-name="ncaron.salt" 
d="M266 1499h160l156 -139l135 139h157l-210 -270h-164zM834 745q0 185 -182 185q-90 0 -162 -14t-187 -60v-856h-188v983q167 75 279 99t279 24t258 -102t91 -246v-758h-188v745z" />
    <glyph glyph-name="nacute.salt" 
d="M510 1229l211 274h209l-266 -274h-154zM834 745q0 185 -182 185q-90 0 -162 -14t-187 -60v-856h-188v983q167 75 279 99t279 24t258 -102t91 -246v-758h-188v745z" />
    <glyph glyph-name="uni1E41.salt" horiz-adv-x="1820" 
d="M862 1276v123q0 51 49 51h115q47 0 47 -51v-123q0 -47 -47 -47h-115q-49 0 -49 47zM834 745q0 185 -182 185q-90 0 -162 -14t-187 -60v-856h-188v983q167 75 277 99t275 24t257 -88q129 51 228 69q99 19 249 19q149 0 237 -101t88 -247v-758h-188v745q0 185 -181 185
q-91 0 -164 -14t-185 -60q14 -45 14 -108v-748h-188v745z" />
    <glyph glyph-name="r.salt" horiz-adv-x="870" 
d="M115 0v987q180 84 328 110t388 5v-180q-293 29 -528 -62v-860h-188z" />
    <glyph glyph-name="racute.salt" horiz-adv-x="870" 
d="M434 1233l209 276h211l-266 -276h-154zM115 0v987q180 84 328 110t388 5v-180q-293 29 -528 -62v-860h-188z" />
    <glyph glyph-name="rcaron.salt" horiz-adv-x="870" 
d="M211 1503h160l153 -139l138 139h157l-213 -270h-164zM115 0v987q180 84 328 110t388 5v-180q-293 29 -528 -62v-860h-188z" />
    <glyph glyph-name="rcommaaccent.salt" horiz-adv-x="870" 
d="M111 -309v116q0 49 47 50h110q45 0 45 -50v-184q0 -82 -48 -117t-97 -30l-47 6v67q57 -2 57 54v41h-20q-47 0 -47 47zM113 0v987q180 84 328 110t388 5v-180q-295 29 -528 -62v-860h-188z" />
    <glyph glyph-name="x.salt" horiz-adv-x="1132" 
d="M627 393q-53 91 -40 189t75 184l215 321h219l-262 -385q-42 -63 -56 -95q-27 -64 37 -165l281 -442h-219zM39 0l278 442q65 100 38 165q-13 32 -56 95l-260 385h219l213 -321q138 -193 35 -373l-248 -393h-219z" />
    <glyph glyph-name="X.salt" horiz-adv-x="1277" 
d="M698 575q-47 94 -33 212q13 118 68 210l299 502h209l-330 -563q-39 -70 -53 -111q-31 -89 33 -200l350 -625h-211zM39 0l348 625q64 111 33 200q-14 41 -53 111l-328 563h207l299 -502q55 -92 68 -210t-33 -212l-330 -575h-211z" />
    <glyph glyph-name="a.salt" horiz-adv-x="1095" 
d="M285 281q1 -55 23 -83t95 -28h259q94 0 122 38t29 116v196l-410 -28q-67 -4 -93 -27t-25 -72v-112zM96 274v119q0 125 68 192t225 66h424q0 175 -45 227q-44 52 -152 51t-497 -26v133q288 64 510 63q223 -1 298 -123t74 -439v-211q1 -166 -77 -246t-240 -80h-295
q-293 0 -293 274z" />
    <glyph glyph-name="agrave.salt" horiz-adv-x="1095" 
d="M244 1499h211l209 -276h-154zM285 281q1 -55 23 -83t95 -28h259q94 0 122 38t29 116v196l-410 -28q-67 -4 -93 -27t-25 -72v-112zM96 274v119q0 125 68 192t225 66h424q0 175 -45 227q-44 52 -152 51t-497 -26v133q288 64 510 63q223 -1 298 -123t74 -439v-211
q1 -166 -77 -246t-240 -80h-295q-293 0 -293 274z" />
    <glyph glyph-name="aacute.salt" horiz-adv-x="1095" 
d="M471 1223l211 276h209l-266 -276h-154zM285 281q1 -55 23 -83t95 -28h259q94 0 122 38t29 116v196l-410 -28q-67 -4 -93 -27t-25 -72v-112zM96 274v119q0 125 68 192t225 66h424q0 175 -45 227q-44 52 -152 51t-497 -26v133q288 64 510 63q223 -1 298 -123t74 -439v-211
q1 -166 -77 -246t-240 -80h-295q-293 0 -293 274z" />
    <glyph glyph-name="atilde.salt" horiz-adv-x="1095" 
d="M909 1356q-131 -131 -233 -131q-58 2 -122 36q-64 33 -102 33t-67 -9t-67 -32t-58 -30l-45 92q51 45 80 67q84 66 152 65q67 -1 136 -36t95 -35q53 -2 186 76zM285 281q1 -55 23 -83t95 -28h259q94 0 122 38t29 116v196l-410 -28q-67 -4 -93 -27t-25 -72v-112zM96 274
v119q0 125 68 192t225 66h424q0 175 -45 227q-44 52 -152 51t-497 -26v133q288 64 510 63q223 -1 298 -123t74 -439v-211q1 -166 -77 -246t-240 -80h-295q-293 0 -293 274z" />
    <glyph glyph-name="aring.salt" horiz-adv-x="1095" 
d="M444 1432q0 -43 32 -74t76 -31t74 31t29 74q-1 42 -31 74t-73 32t-75 -32t-32 -74zM342 1432q0 88 61 149t147 61t147 -61t61 -149t-60 -148t-147 -61q-86 0 -148 60q-61 61 -61 149zM285 281q1 -55 23 -83t95 -28h259q94 0 122 38t29 116v196l-410 -28q-67 -4 -93 -27
t-25 -72v-112zM96 274v119q0 125 68 192t225 66h424q0 175 -45 227q-44 52 -152 51t-497 -26v133q288 64 510 63q223 -1 298 -123t74 -439v-211q1 -166 -77 -246t-240 -80h-295q-293 0 -293 274z" />
    <glyph glyph-name="acircumflex.salt" horiz-adv-x="1095" 
d="M246 1223l235 270h164l209 -270h-158l-139 139l-151 -139h-160zM285 281q1 -55 23 -83t95 -28h259q94 0 122 38t29 116v196l-410 -28q-67 -4 -93 -27t-25 -72v-112zM96 274v119q0 125 68 192t225 66h424q0 175 -45 227q-44 52 -152 51t-497 -26v133q288 64 510 63
q223 -1 298 -123t74 -439v-211q1 -166 -77 -246t-240 -80h-295q-293 0 -293 274z" />
    <glyph glyph-name="adieresis.salt" horiz-adv-x="1095" 
d="M721 1331q0 45 32 77q33 32 77 32t75 -32t31 -77t-31 -77t-76 -32t-77 32t-31 77zM199 1331q0 45 31 77q32 32 77 32t76 -32t31 -77t-31 -77t-76 -32t-77 32q-31 32 -31 77zM285 281q1 -55 23 -83t95 -28h259q94 0 122 38t29 116v196l-410 -28q-67 -4 -93 -27t-25 -72
v-112zM96 274v119q0 125 68 192t225 66h424q0 175 -45 227q-44 52 -152 51t-497 -26v133q288 64 510 63q223 -1 298 -123t74 -439v-211q1 -166 -77 -246t-240 -80h-295q-293 0 -293 274z" />
    <glyph glyph-name="aogonek.salt" horiz-adv-x="1128" 
d="M285 281q1 -55 23 -83t95 -28h259q94 0 122 38t29 116v196l-410 -28q-67 -4 -93 -27t-25 -72v-112zM96 274v119q0 125 68 192t225 66h424q0 175 -45 227q-44 52 -152 51t-497 -26v133q288 64 510 63q223 -1 298 -123t74 -439v-211q0 -215 -131 -287q-114 -99 -107 -167
t124 -69v-133q-68 -10 -128 12t-93 66q-79 104 -6 203q20 27 52 50q-13 -1 -28 -1h-295q-293 0 -293 274z" />
    <glyph glyph-name="abreve.salt" horiz-adv-x="1095" 
d="M319 1456h103q0 -57 39 -94t95 -37t94 36t38 95h103q0 -109 -72 -171t-165 -62q-93 1 -164 65t-71 168zM285 281q1 -55 23 -83t95 -28h259q94 0 122 38t29 116v196l-410 -28q-67 -4 -93 -27t-25 -72v-112zM96 274v119q0 125 68 192t225 66h424q0 175 -45 227
q-44 52 -152 51t-497 -26v133q288 64 510 63q223 -1 298 -123t74 -439v-211q1 -166 -77 -246t-240 -80h-295q-293 0 -293 274z" />
    <glyph glyph-name="amacron.salt" horiz-adv-x="1095" 
d="M260 1223v139h598v-139h-598zM285 281q1 -55 23 -83t95 -28h259q94 0 122 38t29 116v196l-410 -28q-67 -4 -93 -27t-25 -72v-112zM96 274v119q0 125 68 192t225 66h424q0 175 -45 227q-44 52 -152 51t-497 -26v133q288 64 510 63q223 -1 298 -123t74 -439v-211
q1 -166 -77 -246t-240 -80h-295q-293 0 -293 274z" />
    <glyph glyph-name="u.salt" 
d="M96 332v758h189v-746q0 -92 45 -138t121 -46q227 0 364 28v902h189v-1035q-123 -45 -242 -58t-322 -13q-162 0 -253 102t-91 246z" />
    </font>
</defs>
</svg>
