<?xml version="1.0" standalone="no"?>
<!DOCTYPE svg PUBLIC "-//W3C//DTD SVG 1.1//EN" "http://www.w3.org/Graphics/SVG/1.1/DTD/svg11.dtd" >
<svg xmlns="http://www.w3.org/2000/svg">
<metadata>
Created by FontPrep 20130207 at Fri Dec 19 00:55:56 2014
 By Pixeloid
Copyright 2006 House Industries/Brand Design Co., Inc. All Rights Reserved.
</metadata>
<defs>
<font id="0d569141ff7ec5209082c15b14774c57" horiz-adv-x='1024' >
  <font-face 
    font-family="UnitedSansReg-Heavy"
    font-weight="700"
    font-stretch="normal"
    units-per-em="2048"
    panose-1="0 0 0 0 0 0 0 0 0 0"
    ascent="1556"
    descent="-492"
    x-height="1032"
    cap-height="1413"
    bbox="-113 -358 2380 1831"
    underline-thickness="102"
    underline-position="-102"
    unicode-range="U+0020-FB02"
  />
<missing-glyph horiz-adv-x="1540" 
d="M541 272v-272h315v272h-315zM541 395h315v152l41 41h250l166 164v465l-199 196h-706l-191 -190v-234h315v133l60 60h338l67 -66v-237l-41 -41h-260l-155 -154v-289zM61 1589h1418v-1765h-1418v1765z" />
    <glyph glyph-name=".notdef" horiz-adv-x="1540" 
d="M541 272v-272h315v272h-315zM541 395h315v152l41 41h250l166 164v465l-199 196h-706l-191 -190v-234h315v133l60 60h338l67 -66v-237l-41 -41h-260l-155 -154v-289zM61 1589h1418v-1765h-1418v1765z" />
    <glyph glyph-name=".null" horiz-adv-x="0" 
 />
    <glyph glyph-name="nonmarkingreturn" horiz-adv-x="681" 
 />
    <glyph glyph-name="space" unicode=" " horiz-adv-x="501" 
 />
    <glyph glyph-name="exclam" unicode="!" horiz-adv-x="610" 
d="M147 0v272h316v-272h-316zM147 397v1016h316v-1016h-316z" />
    <glyph glyph-name="quotedbl" unicode="&#x22;" horiz-adv-x="741" 
d="M78 836v577h227v-577h-227zM436 836v577h230v-577h-230z" />
    <glyph glyph-name="numbersign" unicode="#" horiz-adv-x="1142" 
d="M451 733h239v264h-239v-264zM217 313v222h-166v198h166v264h-166v199h166v217h234v-217h239v217h236v-217h166v-199h-166v-264h166v-198h-166v-222h-236v222h-239v-222h-234z" />
    <glyph glyph-name="dollar" unicode="$" horiz-adv-x="1288" 
d="M92 434h316v-108l55 -56h356l60 62v209l-45 47h-566l-170 168v422l199 196h203v207h291v-207h208l191 -190v-205h-316v108l-55 56h-344l-61 -60v-200l45 -45h567l168 -170v-432l-197 -197h-206v-207h-291v207h-215l-193 190v205z" />
    <glyph glyph-name="percent" unicode="%" horiz-adv-x="1656" 
d="M309 0l824 1413h210l-823 -1413h-211zM1196 156h156l43 43v297l-43 41h-156l-43 -41v-297zM1079 0l-139 139v414l139 141h387l142 -141v-414l-140 -139h-389zM303 879h158l43 41v297l-43 43h-158l-43 -43v-297zM188 719l-139 141v414l139 139h390l139 -139v-414
l-139 -141h-390z" />
    <glyph glyph-name="ampersand" unicode="&#x26;" horiz-adv-x="1347" 
d="M881 604h-394l-69 -72v-245l61 -62h340l62 64v315zM1200 1028h-315v100l-60 60h-344l-61 -62v-227l69 -70h840v-223h-133v-418l-188 -188h-717l-189 188v375l158 160l-156 156v346l189 188h717l190 -190v-195z" />
    <glyph glyph-name="quotesingle" unicode="'" horiz-adv-x="380" 
d="M78 836v577h227v-577h-227z" />
    <glyph glyph-name="parenleft" unicode="(" horiz-adv-x="724" 
d="M659 1550v-235h-137l-82 -82v-1055l82 -82h137v-235h-319l-211 209v1271l211 209h319z" />
    <glyph glyph-name="parenright" unicode=")" horiz-adv-x="724" 
d="M66 -139v235h137l82 82v1055l-82 82h-137v235h319l211 -209v-1271l-211 -209h-319z" />
    <glyph glyph-name="asterisk" unicode="*" horiz-adv-x="727" 
d="M260 750l-180 133l174 161l-231 37l71 211l199 -116l-47 237h233l-47 -237l201 116l72 -211l-234 -37l174 -161l-182 -133l-101 215z" />
    <glyph glyph-name="plus" unicode="+" horiz-adv-x="833" 
d="M27 590v231h270v281h240v-281h270v-231h-270v-281h-240v281h-270z" />
    <glyph glyph-name="comma" unicode="," horiz-adv-x="454" 
d="M80 -240v123h113l14 15v102h-127v315h297v-446l-109 -109h-188z" />
    <glyph glyph-name="hyphen" unicode="-" horiz-adv-x="620" 
d="M27 586v248h565v-248h-565z" />
    <glyph glyph-name="period" unicode="." horiz-adv-x="454" 
d="M80 0v315h297v-315h-297z" />
    <glyph glyph-name="slash" unicode="/" horiz-adv-x="747" 
d="M-16 -141l499 1693h281l-500 -1693h-280z" />
    <glyph glyph-name="zero" unicode="0" horiz-adv-x="1353" 
d="M510 236h334l82 81v779l-82 82h-334l-82 -82v-779zM322 0l-209 209v995l209 209h710l209 -209v-995l-209 -209h-710z" />
    <glyph glyph-name="one" unicode="1" horiz-adv-x="1007" 
d="M98 0v236h271v944h-271v233h586v-1177h266v-236h-852z" />
    <glyph glyph-name="two" unicode="2" horiz-adv-x="1251" 
d="M100 0v623l168 170h543l45 45v290l-51 50h-338l-49 -48v-137h-316v230l191 190h680l198 -196v-504l-170 -168h-540l-45 -45v-254h753v-246h-1069z" />
    <glyph glyph-name="three" unicode="3" horiz-adv-x="1312" 
d="M82 436h315v-149l62 -62h377l61 62v248l-72 71h-508v234h508l68 67v217l-62 62h-372l-62 -64v-141h-315v242l192 190h746l188 -188v-344l-155 -156l159 -160v-377l-188 -188h-750l-192 190v246z" />
    <glyph glyph-name="four" unicode="4" horiz-adv-x="1286" 
d="M795 0v362h-758v193l268 858h291l-221 -801h420v801h313v-801h135v-250h-135v-362h-313z" />
    <glyph glyph-name="five" unicode="5" horiz-adv-x="1273" 
d="M104 424h316v-137l55 -56h338l59 62v362l-45 45h-335l-89 -88h-299v801h1061v-242h-745v-335l100 98h488l180 -178v-559l-197 -197h-696l-191 190v234z" />
    <glyph glyph-name="six" unicode="6" horiz-adv-x="1345" 
d="M498 231h364l70 70v291l-58 57h-380l-66 -67v-281zM1245 1010h-313v110l-62 62h-364l-78 -78v-326l100 103h531l188 -189v-491l-200 -201h-734l-200 201v1011l200 201h742l190 -190v-213z" />
    <glyph glyph-name="seven" unicode="7" horiz-adv-x="1099" 
d="M344 0v520l354 637h-669v256h1040v-199l-410 -722v-492h-315z" />
    <glyph glyph-name="eight" unicode="8" horiz-adv-x="1353" 
d="M492 836h372l70 69v221l-64 66h-387l-63 -66v-221zM481 223h391l66 64v254l-74 73h-375l-71 -73v-254zM291 0l-189 188v379l158 158l-156 158v342l189 188h768l188 -188v-342l-155 -158l159 -158v-379l-190 -188h-772z" />
    <glyph glyph-name="nine" unicode="9" horiz-adv-x="1343" 
d="M471 780h379l68 68v264l-70 70h-363l-71 -70v-274zM100 416h314v-123l61 -62h365l78 78v342l-103 -102h-526l-189 188v475l201 201h731l201 -201v-1011l-201 -201h-739l-193 190v226z" />
    <glyph glyph-name="colon" unicode=":" horiz-adv-x="491" 
d="M96 592v313h299v-313h-299zM96 0v315h299v-315h-299z" />
    <glyph glyph-name="semicolon" unicode=";" horiz-adv-x="487" 
d="M98 590v315h297v-315h-297zM98 -240v123h113l14 15v102h-127v315h297v-446l-108 -109h-189z" />
    <glyph glyph-name="less" unicode="&#x3c;" horiz-adv-x="894" 
d="M813 238l-776 325v287l776 326v-263l-534 -206l534 -207v-262z" />
    <glyph glyph-name="equal" unicode="=" horiz-adv-x="786" 
d="M55 391v232h674v-232h-674zM55 778v232h674v-232h-674z" />
    <glyph glyph-name="greater" unicode="&#x3e;" horiz-adv-x="894" 
d="M858 563l-776 -325v262l534 207l-534 206v263l776 -326v-287z" />
    <glyph glyph-name="question" unicode="?" horiz-adv-x="1193" 
d="M362 0v272h316v-272h-316zM362 395v289l156 154h260l41 41v237l-67 66h-338l-60 -60v-133h-315v234l190 190h707l199 -196v-465l-166 -164h-250l-41 -41v-152h-316z" />
    <glyph glyph-name="at" unicode="@" horiz-adv-x="1986" 
d="M1167 457h-342l-45 -45v-172l43 -45h246l98 98v164zM1167 618v173l-53 53h-260l-33 -35v-80h-311v137l168 166h600l188 -188v-662h93l59 58v764l-154 153h-940l-153 -153v-965l153 -154h973v-204h-1112l-276 276v1126l276 277h1217l276 -277v-899l-186 -184h-455l-14 145
l-146 -145h-426l-170 170v279l170 169h516z" />
    <glyph glyph-name="A" unicode="A" horiz-adv-x="1277" 
d="M629 1237l-172 -680h342zM16 0l392 1413h462l392 -1413h-324l-80 317h-461l-80 -317h-301z" />
    <glyph glyph-name="B" unicode="B" horiz-adv-x="1349" 
d="M453 836h409l68 69v221l-64 64h-413v-354zM453 225h415l64 64v254l-72 71h-407v-389zM137 0v1413h920l188 -188v-342l-155 -158l157 -158v-379l-188 -188h-922z" />
    <glyph glyph-name="C" unicode="C" horiz-adv-x="1308" 
d="M1221 932h-316v170l-76 76h-319l-82 -82v-783l82 -82h319l76 76v180h316v-280l-207 -207h-692l-209 209v995l209 209h692l207 -207v-274z" />
    <glyph glyph-name="D" unicode="D" horiz-adv-x="1353" 
d="M446 236h398l82 81v779l-82 82h-398v-942zM131 0v1413h901l209 -209v-995l-209 -209h-901z" />
    <glyph glyph-name="E" unicode="E" horiz-adv-x="1157" 
d="M131 0v1413h934v-242h-619v-333h564v-242h-564v-354h623v-242h-938z" />
    <glyph glyph-name="F" unicode="F" horiz-adv-x="1091" 
d="M131 0v1413h911v-242h-596v-366h543v-240h-543v-565h-315z" />
    <glyph glyph-name="G" unicode="G" horiz-adv-x="1339" 
d="M1235 987h-315v131l-60 60h-350l-82 -82v-787l82 -82h348l66 66v246h-306v233h621v-571l-203 -201h-714l-209 209v995l209 209h718l195 -194v-232z" />
    <glyph glyph-name="H" unicode="H" horiz-adv-x="1366" 
d="M131 0v1413h315v-582h474v582h315v-1413h-315v555h-474v-555h-315z" />
    <glyph glyph-name="I" unicode="I" horiz-adv-x="942" 
d="M74 0v219h239v975h-239v219h794v-219h-239v-975h239v-219h-794z" />
    <glyph glyph-name="J" unicode="J" horiz-adv-x="870" 
d="M43 0v246h307l84 82v1085h316v-1204l-211 -209h-496z" />
    <glyph glyph-name="K" unicode="K" horiz-adv-x="1335" 
d="M444 0h-315v1413h315v-741l480 741h352l-395 -579l413 -834h-350l-282 592l-218 -313v-279z" />
    <glyph glyph-name="L" unicode="L" horiz-adv-x="1036" 
d="M131 0v1413h315v-1161h541v-252h-856z" />
    <glyph glyph-name="M" unicode="M" horiz-adv-x="1875" 
d="M131 0v1413h479l326 -1132l328 1132h481v-1413h-301v1180l-346 -1180h-357l-342 1180v-1180h-268z" />
    <glyph glyph-name="N" unicode="N" horiz-adv-x="1370" 
d="M131 0v1413h332l495 -940v940h281v-1413h-336l-491 948v-948h-281z" />
    <glyph glyph-name="O" unicode="O" horiz-adv-x="1353" 
d="M510 236h334l82 81v779l-82 82h-334l-82 -82v-779zM322 0l-209 209v995l209 209h710l209 -209v-995l-209 -209h-710z" />
    <glyph glyph-name="P" unicode="P" horiz-adv-x="1292" 
d="M446 717h406l72 71v328l-72 72h-406v-471zM131 0v1413h903l205 -207v-508l-205 -206h-588v-492h-315z" />
    <glyph glyph-name="Q" unicode="Q" horiz-adv-x="1353" 
d="M510 236h334l82 81v779l-82 82h-334l-82 -82v-779zM764 0h-442l-209 209v995l209 209h710l209 -209v-995l-209 -209v-29l135 -133l-184 -184l-219 217v129z" />
    <glyph glyph-name="R" unicode="R" horiz-adv-x="1333" 
d="M446 776h412l74 74v272l-70 70h-416v-416zM131 0v1413h918l198 -196v-443l-176 -176l203 -598h-326l-178 553h-324v-553h-315z" />
    <glyph glyph-name="S" unicode="S" horiz-adv-x="1288" 
d="M92 420h316v-129l59 -60h352l60 62v248l-45 47h-566l-170 168v461l199 196h702l191 -190v-228h-316v127l-59 60h-340l-61 -60v-239l45 -45h567l168 -170v-471l-197 -197h-712l-193 190v230z" />
    <glyph glyph-name="T" unicode="T" horiz-adv-x="1163" 
d="M424 0v1159h-385v254h1085v-254h-385v-1159h-315z" />
    <glyph glyph-name="U" unicode="U" horiz-adv-x="1339" 
d="M121 1413h315v-1087l82 -82h303l82 82v1087h316v-1204l-211 -209h-676l-211 209v1204z" />
    <glyph glyph-name="V" unicode="V" horiz-adv-x="1202" 
d="M367 0l-347 1413h326l268 -1190l269 1190h297l-344 -1413h-469z" />
    <glyph glyph-name="W" unicode="W" horiz-adv-x="1814" 
d="M283 0l-260 1413h299l176 -1124l223 1124h407l224 -1124l176 1124h266l-262 -1413h-393l-226 1133l-227 -1133h-403z" />
    <glyph glyph-name="X" unicode="X" horiz-adv-x="1275" 
d="M35 0l364 721l-346 692h350l238 -528l246 528h334l-359 -686l379 -727h-356l-258 545l-254 -545h-338z" />
    <glyph glyph-name="Y" unicode="Y" horiz-adv-x="1226" 
d="M457 0v432l-443 981h342l271 -672l280 672h307l-444 -981v-432h-313z" />
    <glyph glyph-name="Z" unicode="Z" horiz-adv-x="1120" 
d="M63 0v199l605 960h-590v254h966v-199l-604 -958h615v-256h-992z" />
    <glyph glyph-name="bracketleft" unicode="[" horiz-adv-x="733" 
d="M143 -139v1689h525v-235h-213v-1219h213v-235h-525z" />
    <glyph glyph-name="backslash" unicode="\" horiz-adv-x="747" 
d="M264 1552l500 -1693h-281l-499 1693h280z" />
    <glyph glyph-name="bracketright" unicode="]" horiz-adv-x="733" 
d="M590 1550v-1689h-524v235h213v1219h-213v235h524z" />
    <glyph glyph-name="asciicircum" unicode="^" horiz-adv-x="940" 
d="M27 705l276 708h334l276 -708h-262l-182 538l-184 -538h-258z" />
    <glyph glyph-name="underscore" unicode="_" horiz-adv-x="1028" 
d="M-14 -262v201h1056v-201h-1056z" />
    <glyph glyph-name="grave" unicode="`" horiz-adv-x="614" 
d="M135 1395h176l168 -168v-111h-176l-168 168v111z" />
    <glyph glyph-name="a" unicode="a" horiz-adv-x="1179" 
d="M770 457h-342l-45 -45v-172l45 -45h246l96 98v164zM770 618v173l-53 53h-262l-35 -35v-80h-309v137l165 166h605l190 -188v-844h-229l-17 145l-145 -145h-430l-170 170v279l170 169h520z" />
    <glyph glyph-name="b" unicode="b" horiz-adv-x="1220" 
d="M532 197h222l65 65v504l-63 65h-207l-131 -133v-387zM117 0v1413h301v-510l131 129h383l188 -188v-654l-188 -190h-424l-148 147l-14 -147h-229z" />
    <glyph glyph-name="c" unicode="c" horiz-adv-x="1138" 
d="M1067 670h-307v114l-53 54h-246l-64 -64v-516l64 -63h246l53 55v115h307v-189l-176 -176h-604l-191 190v654l191 190h606l174 -178v-186z" />
    <glyph glyph-name="d" unicode="d" horiz-adv-x="1220" 
d="M465 197h223l113 114v387l-131 133h-205l-64 -65v-504zM801 1413h303v-1413h-230l-16 147l-147 -147h-422l-189 190v654l189 188h383l129 -129v510z" />
    <glyph glyph-name="e" unicode="e" horiz-adv-x="1169" 
d="M389 621h397v167l-55 56h-287l-55 -56v-167zM1077 449h-688v-199l60 -57h294l35 34v86h299v-151l-162 -162h-630l-189 190v654l189 190h602l190 -190v-395z" />
    <glyph glyph-name="f" unicode="f" horiz-adv-x="798" 
d="M182 0v819h-139v213h139v213l170 168h428v-203h-252l-45 -43v-135h277v-213h-277v-819h-301z" />
    <glyph glyph-name="g" unicode="g" horiz-adv-x="1216" 
d="M465 240h211l125 125v354l-117 117h-219l-64 -64v-469zM117 -63h282v-66l37 -37h301l64 66v270l-127 -127h-385l-189 188v613l189 188h418l151 -149l16 149h230v-1200l-191 -190h-630l-166 165v130z" />
    <glyph glyph-name="h" unicode="h" horiz-adv-x="1193" 
d="M117 0v1413h301v-510l131 129h346l188 -188v-844h-301v743l-63 64h-180l-121 -119v-688h-301z" />
    <glyph glyph-name="i" unicode="i" horiz-adv-x="559" 
d="M129 1155v248h301v-248h-301zM430 0h-301v1032h301v-1032z" />
    <glyph glyph-name="j" unicode="j" horiz-adv-x="557" 
d="M127 1155v248h301v-248h-301zM-109 -358v217h197l39 39v1134h301v-1212l-178 -178h-359z" />
    <glyph glyph-name="k" unicode="k" horiz-adv-x="1179" 
d="M416 0h-301v1413h301v-872l364 491h336l-305 -387l336 -645h-334l-215 449l-182 -232v-217z" />
    <glyph glyph-name="l" unicode="l" horiz-adv-x="559" 
d="M430 0h-301v1413h301v-1413z" />
    <glyph glyph-name="m" unicode="m" horiz-adv-x="1818" 
d="M117 0v1032h229l16 -153l156 153h354l138 -137l137 137h373l188 -188v-844h-301v743l-64 64h-167l-113 -113v-694h-301v743l-64 64h-159l-121 -121v-686h-301z" />
    <glyph glyph-name="n" unicode="n" horiz-adv-x="1193" 
d="M117 0v1032h229l16 -153l156 153h377l188 -188v-844h-301v743l-63 64h-180l-121 -121v-686h-301z" />
    <glyph glyph-name="o" unicode="o" horiz-adv-x="1198" 
d="M465 193h268l66 65v518l-66 66h-268l-64 -66v-518zM289 0l-189 190v654l189 188h620l191 -188v-654l-191 -190h-620z" />
    <glyph glyph-name="p" unicode="p" horiz-adv-x="1220" 
d="M530 203h224l65 63v506l-63 64h-221l-117 -117v-406zM117 -358v1390h229l14 -147l150 147h422l188 -188v-654l-188 -190h-406l-108 109v-467h-301z" />
    <glyph glyph-name="q" unicode="q" horiz-adv-x="1220" 
d="M465 203h215l121 121v395l-117 117h-219l-64 -64v-506zM801 -358v477l-119 -119h-393l-189 190v654l189 188h420l149 -147l16 147h230v-1390h-303z" />
    <glyph glyph-name="r" unicode="r" horiz-adv-x="821" 
d="M117 0v1032h229l16 -158l158 158h250v-250h-233l-119 -118v-664h-301z" />
    <glyph glyph-name="s" unicode="s" horiz-adv-x="1128" 
d="M80 299h291v-76l32 -33h308l37 37v162l-27 27h-494l-139 139v303l174 176h615l159 -162v-135h-291v74l-32 33h-287l-37 -37v-162l27 -24h493l140 -140v-307l-175 -174h-632l-162 162v137z" />
    <glyph glyph-name="t" unicode="t" horiz-adv-x="876" 
d="M184 819h-149v213h149v275h301v-275h318v-213h-318v-534l60 -60h258v-225h-428l-191 190v629z" />
    <glyph glyph-name="u" unicode="u" horiz-adv-x="1193" 
d="M111 1032h301v-743l63 -64h178l123 123v684h301v-1032h-229l-17 156l-155 -156h-377l-188 190v842z" />
    <glyph glyph-name="v" unicode="v" horiz-adv-x="1077" 
d="M334 0l-324 1032h316l223 -842l223 842h297l-326 -1032h-409z" />
    <glyph glyph-name="w" unicode="w" horiz-adv-x="1646" 
d="M223 0l-205 1032h295l144 -837l188 837h397l191 -837l145 837h250l-205 -1032h-411l-183 831l-188 -831h-418z" />
    <glyph glyph-name="x" unicode="x" horiz-adv-x="1116" 
d="M762 0l-211 365l-209 -365h-319l327 520l-311 512h340l190 -362l201 362h307l-311 -495l328 -537h-332z" />
    <glyph glyph-name="y" unicode="y" horiz-adv-x="1079" 
d="M84 -358v215h344l21 22l36 121h-151l-324 1032h318l225 -821l219 821h297l-391 -1243l-146 -147h-448z" />
    <glyph glyph-name="z" unicode="z" horiz-adv-x="978" 
d="M53 0v170l498 645h-485v217h847v-168l-495 -645h508v-219h-873z" />
    <glyph glyph-name="braceleft" unicode="{" horiz-adv-x="749" 
d="M0 592v258h115l47 49v442l209 209h313v-235h-129l-82 -82v-381l-129 -129l129 -129v-416l82 -82h129v-235h-313l-209 209v475l-47 47h-115z" />
    <glyph glyph-name="bar" unicode="|" horiz-adv-x="638" 
d="M174 -141v1693h291v-1693h-291z" />
    <glyph glyph-name="braceright" unicode="}" horiz-adv-x="749" 
d="M66 -139v235h129l81 82v416l130 129l-130 129v381l-81 82h-129v235h313l209 -209v-442l47 -49h115v-258h-115l-47 -47v-475l-209 -209h-313z" />
    <glyph glyph-name="asciitilde" unicode="~" horiz-adv-x="925" 
d="M37 1047v229l137 137h248l178 -178h43l35 35v143h211v-229l-137 -137h-248l-180 180h-41l-35 -35v-145h-211z" />
    <glyph glyph-name="exclamdown" unicode="&#xa1;" horiz-adv-x="610" 
d="M463 1413v-272h-316v272h316zM463 1016v-1016h-316v1016h316z" />
    <glyph glyph-name="cent" unicode="&#xa2;" horiz-adv-x="1290" 
d="M510 1274v186h293v-186h203l204 -207v-231h-313v131l-72 71h-336l-73 -73v-519l73 -73h336l72 69v140h313v-236l-204 -205h-203v-188h-293v188h-199l-211 209v713l211 211h199z" />
    <glyph glyph-name="sterling" unicode="&#xa3;" horiz-adv-x="1286" 
d="M76 0v227l102 103v237h-104v238h104v399l211 209h631l205 -207v-258h-314v158l-71 72h-269l-77 -78v-295h432v-238h-432v-233l-82 -84h813v-250h-1149z" />
    <glyph glyph-name="yen" unicode="&#xa5;" horiz-adv-x="1228" 
d="M100 463v160h271l-357 790h351l262 -663l274 663h313l-360 -790h272v-160h-344l-12 -27v-59h356v-160h-356v-217h-313v217h-357v160h357v59l-13 27h-344z" />
    <glyph glyph-name="section" unicode="&#xa7;" horiz-adv-x="1292" 
d="M102 655v562l197 196h707l188 -186v-223h-315v118l-60 60h-342l-59 -60v-254h672l106 -108v-105h-1094zM94 174h316v-123l59 -61h352l62 61v254h-674l-107 109v104h1096v-563l-197 -197h-716l-191 191v225z" />
    <glyph glyph-name="dieresis" unicode="&#xa8;" horiz-adv-x="858" 
d="M135 1149v211h223v-211h-223zM502 1149v211h221v-211h-221z" />
    <glyph glyph-name="copyright" unicode="&#xa9;" horiz-adv-x="1683" 
d="M453 172h776l129 131v807l-129 131h-776l-131 -131v-807zM350 0l-237 240v934l237 239h981l240 -239v-934l-240 -240h-981zM1212 803h-235v106l-33 33h-205l-37 -35v-399l37 -33h207l31 29v108h235v-180l-122 -121h-500l-121 121v551l123 121h498l122 -121v-180z" />
    <glyph glyph-name="ordfeminine" unicode="&#xaa;" horiz-adv-x="784" 
d="M520 1008h-223l-33 -33v-92l35 -35h164l57 57v103zM520 1139v92l-35 37h-172l-24 -27v-24h-213v81l117 115h405l127 -127v-584h-158l-14 95l-94 -95h-275l-125 127v185l125 125h336z" />
    <glyph glyph-name="guillemotleft" unicode="&#xab;" horiz-adv-x="901" 
d="M614 274l-221 431l221 432h244l-221 -432l221 -431h-244zM244 274l-221 431l221 432h241l-219 -432l219 -431h-241z" />
    <glyph glyph-name="registered" unicode="&#xae;" horiz-adv-x="886" 
d="M373 1010h123l24 22v86l-24 25h-123v-133zM229 670h430l78 78v497l-78 78h-430l-77 -78v-497zM188 580l-137 137v559l137 137h510l138 -137v-559l-138 -137h-510zM272 770v455h275l71 -74v-141l-55 -58l68 -182h-101l-59 158h-98v-158h-101z" />
    <glyph glyph-name="macron" unicode="&#xaf;" horiz-adv-x="776" 
d="M135 1163v176h506v-176h-506z" />
    <glyph glyph-name="degree" unicode="&#xb0;" horiz-adv-x="653" 
d="M248 1008h155l33 30v209l-33 33h-155l-31 -33v-209zM162 872l-109 109v324l109 108h330l106 -108v-324l-106 -109h-330z" />
    <glyph glyph-name="twosuperior" unicode="&#xb2;" horiz-adv-x="813" 
d="M68 659v324l106 107h334l20 22v115l-26 28h-185l-28 -28v-58h-219v125l118 119h441l119 -119v-250l-107 -108h-332l-22 -23v-90h461v-164h-680z" />
    <glyph glyph-name="threesuperior" unicode="&#xb3;" horiz-adv-x="815" 
d="M53 893h219v-51l29 -29h201l30 31v98l-24 25h-297v147h295l24 25v92l-28 31h-199l-29 -29v-51h-219v112l119 119h455l121 -119v-166l-86 -86l86 -88v-176l-119 -119h-459l-119 119v115z" />
    <glyph glyph-name="acute" unicode="&#xb4;" horiz-adv-x="614" 
d="M135 1116v111l168 168h176v-111l-168 -168h-176z" />
    <glyph glyph-name="paragraph" unicode="&#xb6;" horiz-adv-x="1736" 
d="M1288 1188h-168v-1430h-315v469h-535l-204 205v774l204 207h1334v-1655h-316v1430zM805 453v735h-352l-72 -72v-592l72 -71h352z" />
    <glyph glyph-name="periodcentered" unicode="&#xb7;" horiz-adv-x="491" 
d="M96 592v313h299v-313h-299z" />
    <glyph glyph-name="cedilla" unicode="&#xb8;" horiz-adv-x="665" 
d="M135 -358v112h215l12 13v51l-12 10h-110l-43 43v129h153v-76h109l71 -71v-140l-71 -71h-324z" />
    <glyph glyph-name="onesuperior" unicode="&#xb9;" horiz-adv-x="677" 
d="M53 659v170h189v414h-185v170h404v-584h184v-170h-592z" />
    <glyph glyph-name="ordmasculine" unicode="&#xba;" horiz-adv-x="784" 
d="M309 858h166l43 43v313l-43 46h-166l-43 -46v-313zM186 702l-127 127v457l127 127h414l125 -127v-457l-125 -127h-414z" />
    <glyph glyph-name="guillemotright" unicode="&#xbb;" horiz-adv-x="901" 
d="M508 705l-221 -431h-244l221 431l-221 432h244zM879 705l-222 -431h-241l219 431l-219 432h241z" />
    <glyph glyph-name="onequarter" unicode="&#xbc;" horiz-adv-x="1820" 
d="M1487 0v172h-463v125l158 457h207l-129 -418h227v418h217v-418h76v-164h-76v-172h-217zM373 0l823 1413h213l-825 -1413h-211zM53 659v170h189v414h-185v170h404v-584h184v-170h-592z" />
    <glyph glyph-name="onehalf" unicode="&#xbd;" horiz-adv-x="1814" 
d="M1069 0v324l107 106h333l21 23v114l-27 29h-184l-29 -29v-57h-219v125l119 119h440l119 -119v-250l-107 -109h-331l-23 -22v-90h461v-164h-680zM373 0l823 1413h213l-825 -1413h-211zM53 659v170h189v414h-185v170h404v-584h184v-170h-592z" />
    <glyph glyph-name="threequarters" unicode="&#xbe;" horiz-adv-x="1882" 
d="M1548 0v172h-463v125l158 457h207l-129 -418h227v418h217v-418h76v-164h-76v-172h-217zM434 0l823 1413h213l-825 -1413h-211zM53 893h219v-51l29 -29h201l30 31v98l-24 25h-297v147h295l24 25v92l-28 31h-199l-29 -29v-51h-219v112l119 119h455l121 -119v-166l-86 -86
l86 -88v-176l-119 -119h-459l-119 119v115z" />
    <glyph glyph-name="questiondown" unicode="&#xbf;" horiz-adv-x="1193" 
d="M831 1413v-272h-315v272h315zM831 1018v-289l-155 -154h-260l-41 -40v-238l67 -66h338l60 60v133h315v-234l-190 -190h-707l-199 197v465l166 163h250l41 41v152h315z" />
    <glyph glyph-name="Agrave" unicode="&#xc0;" horiz-adv-x="1288" 
d="M424 1796h176l168 -168v-110h-176l-168 168v110zM629 1237l-172 -680h342zM16 0l392 1413h462l392 -1413h-324l-80 317h-461l-80 -317h-301z" />
    <glyph glyph-name="Aacute" unicode="&#xc1;" horiz-adv-x="1288" 
d="M516 1518v110l168 168h176v-110l-168 -168h-176zM629 1237l-172 -680h342zM16 0l392 1413h462l392 -1413h-324l-80 317h-461l-80 -317h-301z" />
    <glyph glyph-name="Acircumflex" unicode="&#xc2;" horiz-adv-x="1288" 
d="M348 1524v102l160 160h268l158 -160v-102h-150l-135 135h-14l-135 -135h-152zM629 1237l-172 -680h342zM16 0l392 1413h462l392 -1413h-324l-80 317h-461l-80 -317h-301z" />
    <glyph glyph-name="Atilde" unicode="&#xc3;" horiz-adv-x="1288" 
d="M340 1530v156l90 90h197l108 -107h33l16 19v88h164v-156l-92 -90h-197l-108 108h-31l-18 -18v-90h-162zM629 1237l-172 -680h342zM16 0l392 1413h462l392 -1413h-324l-80 317h-461l-80 -317h-301z" />
    <glyph glyph-name="Adieresis" unicode="&#xc4;" horiz-adv-x="1288" 
d="M348 1550v211h223v-211h-223zM715 1550v211h221v-211h-221zM629 1237l-172 -680h342zM16 0l392 1413h462l392 -1413h-324l-80 317h-461l-80 -317h-301z" />
    <glyph glyph-name="Aring" unicode="&#xc5;" horiz-adv-x="1288" 
d="M578 1591h127l24 23v102l-24 23h-127l-23 -23v-102zM508 1501l-78 78v174l78 78h268l78 -78v-174l-78 -78h-268zM629 1237l-172 -680h342zM16 0l392 1413h462l392 -1413h-324l-80 317h-461l-80 -317h-301z" />
    <glyph glyph-name="AE" unicode="&#xc6;" horiz-adv-x="1792" 
d="M629 1237l-172 -680h342zM1700 1413v-242h-766l92 -335h619v-238h-553l98 -356h514v-242h-766l-80 317h-461l-80 -317h-301l392 1413h1292z" />
    <glyph glyph-name="Ccedilla" unicode="&#xc7;" horiz-adv-x="1308" 
d="M1221 932h-316v170l-76 76h-319l-82 -82v-783l82 -82h319l76 76v180h316v-280l-207 -207h-279v-76h109l71 -71v-140l-71 -71h-324v112h215l13 13v51l-13 10h-110l-43 43v129h-260l-209 209v995l209 209h692l207 -207v-274z" />
    <glyph glyph-name="Egrave" unicode="&#xc8;" horiz-adv-x="1157" 
d="M381 1796h176l168 -168v-110h-176l-168 168v110zM131 0v1413h934v-242h-619v-333h564v-242h-564v-354h623v-242h-938z" />
    <glyph glyph-name="Eacute" unicode="&#xc9;" horiz-adv-x="1157" 
d="M473 1518v110l168 168h176v-110l-168 -168h-176zM131 0v1413h934v-242h-619v-333h564v-242h-564v-354h623v-242h-938z" />
    <glyph glyph-name="Ecircumflex" unicode="&#xca;" horiz-adv-x="1157" 
d="M131 0v1413h934v-242h-619v-333h564v-242h-564v-354h623v-242h-938zM305 1524v102l160 160h268l158 -160v-102h-150l-135 135h-14l-135 -135h-152z" />
    <glyph glyph-name="Edieresis" unicode="&#xcb;" horiz-adv-x="1157" 
d="M131 0v1413h934v-242h-619v-333h564v-242h-564v-354h623v-242h-938zM305 1550v211h223v-211h-223zM672 1550v211h221v-211h-221z" />
    <glyph glyph-name="Igrave" unicode="&#xcc;" horiz-adv-x="942" 
d="M254 1796h176l168 -168v-110h-176l-168 168v110zM74 0v219h239v975h-239v219h794v-219h-239v-975h239v-219h-794z" />
    <glyph glyph-name="Iacute" unicode="&#xcd;" horiz-adv-x="942" 
d="M344 1518v110l168 168h176v-110l-168 -168h-176zM74 0v219h239v975h-239v219h794v-219h-239v-975h239v-219h-794z" />
    <glyph glyph-name="Icircumflex" unicode="&#xce;" horiz-adv-x="942" 
d="M176 1524v102l160 160h268l158 -160v-102h-150l-135 135h-14l-135 -135h-152zM74 0v219h239v975h-239v219h794v-219h-239v-975h239v-219h-794z" />
    <glyph glyph-name="Idieresis" unicode="&#xcf;" horiz-adv-x="942" 
d="M176 1550v211h223v-211h-223zM543 1550v211h221v-211h-221zM74 0v219h239v975h-239v219h794v-219h-239v-975h239v-219h-794z" />
    <glyph glyph-name="Eth" unicode="&#xd0;" horiz-adv-x="1386" 
d="M479 236h398l81 81v779l-81 82h-398v-349h207v-249h-207v-344zM51 580v249h113v584h901l209 -209v-995l-209 -209h-901v580h-113z" />
    <glyph glyph-name="Ntilde" unicode="&#xd1;" horiz-adv-x="1366" 
d="M379 1530v156l90 90h197l108 -107h33l16 19v88h164v-156l-92 -90h-197l-108 108h-31l-18 -18v-90h-162zM131 0v1413h332l495 -940v940h281v-1413h-336l-491 948v-948h-281z" />
    <glyph glyph-name="Ograve" unicode="&#xd2;" horiz-adv-x="1353" 
d="M459 1796h176l168 -168v-110h-176l-168 168v110zM510 236h334l82 81v779l-82 82h-334l-82 -82v-779zM322 0l-209 209v995l209 209h710l209 -209v-995l-209 -209h-710z" />
    <glyph glyph-name="Oacute" unicode="&#xd3;" horiz-adv-x="1353" 
d="M510 236h334l82 81v779l-82 82h-334l-82 -82v-779zM322 0l-209 209v995l209 209h710l209 -209v-995l-209 -209h-710zM549 1518v110l168 168h176v-110l-168 -168h-176z" />
    <glyph glyph-name="Ocircumflex" unicode="&#xd4;" horiz-adv-x="1353" 
d="M510 236h334l82 81v779l-82 82h-334l-82 -82v-779zM322 0l-209 209v995l209 209h710l209 -209v-995l-209 -209h-710zM381 1524v102l160 160h268l158 -160v-102h-150l-135 135h-14l-136 -135h-151z" />
    <glyph glyph-name="Otilde" unicode="&#xd5;" horiz-adv-x="1353" 
d="M373 1530v156l90 90h196l109 -107h33l16 19v88h164v-156l-92 -90h-197l-108 108h-31l-18 -18v-90h-162zM510 236h334l82 81v779l-82 82h-334l-82 -82v-779zM322 0l-209 209v995l209 209h710l209 -209v-995l-209 -209h-710z" />
    <glyph glyph-name="Odieresis" unicode="&#xd6;" horiz-adv-x="1353" 
d="M510 236h334l82 81v779l-82 82h-334l-82 -82v-779zM322 0l-209 209v995l209 209h710l209 -209v-995l-209 -209h-710zM381 1550v211h223v-211h-223zM748 1550v211h221v-211h-221z" />
    <glyph glyph-name="multiply" unicode="&#xd7;" horiz-adv-x="866" 
d="M205 311l-164 164l227 227l-227 230l166 164l225 -230l230 230l163 -164l-229 -230l229 -227l-163 -164l-230 228z" />
    <glyph glyph-name="Oslash" unicode="&#xd8;" horiz-adv-x="1353" 
d="M856 225l82 82v787l-422 -869h340zM416 319l422 869h-340l-82 -82v-787zM322 0l-209 209v995l209 209h710l209 -209v-995l-209 -209h-710z" />
    <glyph glyph-name="Ugrave" unicode="&#xd9;" horiz-adv-x="1339" 
d="M451 1796h176l168 -168v-110h-177l-167 168v110zM121 1413h315v-1087l82 -82h303l82 82v1087h316v-1204l-211 -209h-676l-211 209v1204z" />
    <glyph glyph-name="Uacute" unicode="&#xda;" horiz-adv-x="1339" 
d="M121 1413h315v-1087l82 -82h303l82 82v1087h316v-1204l-211 -209h-676l-211 209v1204zM543 1518v110l168 168h176v-110l-168 -168h-176z" />
    <glyph glyph-name="Ucircumflex" unicode="&#xdb;" horiz-adv-x="1339" 
d="M121 1413h315v-1087l82 -82h303l82 82v1087h316v-1204l-211 -209h-676l-211 209v1204zM375 1524v102l160 160h268l158 -160v-102h-150l-135 135h-14l-136 -135h-151z" />
    <glyph glyph-name="Udieresis" unicode="&#xdc;" horiz-adv-x="1339" 
d="M121 1413h315v-1087l82 -82h303l82 82v1087h316v-1204l-211 -209h-676l-211 209v1204zM375 1550v211h223v-211h-223zM741 1550v211h222v-211h-222z" />
    <glyph glyph-name="Yacute" unicode="&#xdd;" horiz-adv-x="1228" 
d="M487 1518v110l168 168h176v-110l-167 -168h-177zM457 0v432l-443 981h342l271 -672l280 672h307l-444 -981v-432h-313z" />
    <glyph glyph-name="Thorn" unicode="&#xde;" horiz-adv-x="1306" 
d="M446 500h420l64 63v332l-64 63h-420v-458zM131 0v1413h315v-229h592l207 -207v-496l-207 -207h-592v-274h-315z" />
    <glyph glyph-name="germandbls" unicode="&#xdf;" horiz-adv-x="1282" 
d="M117 0v1223l190 190h694l189 -190v-359l-129 -129l133 -133v-412l-190 -190h-480v197h307l60 59v332l-47 49h-320v194h320l45 48v278l-60 60h-350l-61 -60v-1157h-301z" />
    <glyph glyph-name="agrave" unicode="&#xe0;" horiz-adv-x="1179" 
d="M356 1395h176l168 -168v-111h-176l-168 168v111zM770 457h-342l-45 -45v-172l45 -45h246l96 98v164zM770 618v173l-53 53h-262l-35 -35v-80h-309v137l165 166h605l190 -188v-844h-229l-17 145l-145 -145h-430l-170 170v279l170 169h520z" />
    <glyph glyph-name="aacute" unicode="&#xe1;" horiz-adv-x="1179" 
d="M449 1116v111l167 168h177v-111l-168 -168h-176zM770 457h-342l-45 -45v-172l45 -45h246l96 98v164zM770 618v173l-53 53h-262l-35 -35v-80h-309v137l165 166h605l190 -188v-844h-229l-17 145l-145 -145h-430l-170 170v279l170 169h520z" />
    <glyph glyph-name="acircumflex" unicode="&#xe2;" horiz-adv-x="1179" 
d="M281 1122v103l159 159h269l157 -159v-103h-149l-135 135h-15l-135 -135h-151zM770 457h-342l-45 -45v-172l45 -45h246l96 98v164zM770 618v173l-53 53h-262l-35 -35v-80h-309v137l165 166h605l190 -188v-844h-229l-17 145l-145 -145h-430l-170 170v279l170 169h520z" />
    <glyph glyph-name="atilde" unicode="&#xe3;" horiz-adv-x="1179" 
d="M270 1128v156l90 90h197l109 -106h32l17 18v88h164v-155l-93 -91h-196l-109 109h-30l-19 -18v-91h-162zM770 457h-342l-45 -45v-172l45 -45h246l96 98v164zM770 618v173l-53 53h-262l-35 -35v-80h-309v137l165 166h605l190 -188v-844h-229l-17 145l-145 -145h-430
l-170 170v279l170 169h520z" />
    <glyph glyph-name="adieresis" unicode="&#xe4;" horiz-adv-x="1179" 
d="M281 1149v211h223v-211h-223zM647 1149v211h221v-211h-221zM770 457h-342l-45 -45v-172l45 -45h246l96 98v164zM770 618v173l-53 53h-262l-35 -35v-80h-309v137l165 166h605l190 -188v-844h-229l-17 145l-145 -145h-430l-170 170v279l170 169h520z" />
    <glyph glyph-name="aring" unicode="&#xe5;" horiz-adv-x="1179" 
d="M510 1190h127l25 22v103l-25 22h-127l-23 -22v-103zM440 1100l-78 78v174l78 78h269l77 -78v-174l-77 -78h-269zM770 457h-342l-45 -45v-172l45 -45h246l96 98v164zM770 618v173l-53 53h-262l-35 -35v-80h-309v137l165 166h605l190 -188v-844h-229l-17 145l-145 -145
h-430l-170 170v279l170 169h520z" />
    <glyph glyph-name="ae" unicode="&#xe6;" horiz-adv-x="1837" 
d="M1057 616h397v172l-55 56h-285l-57 -56v-172zM764 453h-344l-43 -43v-170l43 -45h266l78 77v181zM764 616v177l-53 51h-260l-35 -35v-80h-310v137l168 168h539l98 -98l99 98h544l191 -190v-391h-688v-207l55 -53h299l35 34v86h299v-151l-162 -162h-575l-97 98l-98 -98
h-565l-170 170v274l172 172h514z" />
    <glyph glyph-name="ccedilla" unicode="&#xe7;" horiz-adv-x="1138" 
d="M1067 670h-307v114l-53 54h-246l-64 -64v-516l64 -63h246l53 55v115h307v-189l-176 -176h-240v-76h109l71 -71v-140l-71 -71h-324v112h215l13 13v51l-13 10h-110l-43 43v129h-211l-191 190v654l191 190h606l174 -178v-186z" />
    <glyph glyph-name="egrave" unicode="&#xe8;" horiz-adv-x="1169" 
d="M367 1395h176l168 -168v-111h-176l-168 168v111zM389 621h397v167l-55 56h-287l-55 -56v-167zM1077 449h-688v-199l60 -57h294l35 34v86h299v-151l-162 -162h-630l-189 190v654l189 190h602l190 -190v-395z" />
    <glyph glyph-name="eacute" unicode="&#xe9;" horiz-adv-x="1169" 
d="M459 1116v111l168 168h176v-111l-168 -168h-176zM389 621h397v167l-55 56h-287l-55 -56v-167zM1077 449h-688v-199l60 -57h294l35 34v86h299v-151l-162 -162h-630l-189 190v654l189 190h602l190 -190v-395z" />
    <glyph glyph-name="ecircumflex" unicode="&#xea;" horiz-adv-x="1169" 
d="M389 621h397v167l-55 56h-287l-55 -56v-167zM1077 449h-688v-199l60 -57h294l35 34v86h299v-151l-162 -162h-630l-189 190v654l189 190h602l190 -190v-395zM291 1122v103l160 159h268l158 -159v-103h-150l-135 135h-14l-136 -135h-151z" />
    <glyph glyph-name="edieresis" unicode="&#xeb;" horiz-adv-x="1169" 
d="M389 621h397v167l-55 56h-287l-55 -56v-167zM1077 449h-688v-199l60 -57h294l35 34v86h299v-151l-162 -162h-630l-189 190v654l189 190h602l190 -190v-395zM291 1149v211h223v-211h-223zM657 1149v211h222v-211h-222z" />
    <glyph glyph-name="igrave" unicode="&#xec;" horiz-adv-x="559" 
d="M63 1395h177l168 -168v-111h-177l-168 168v111zM430 0h-301v1032h301v-1032z" />
    <glyph glyph-name="iacute" unicode="&#xed;" horiz-adv-x="559" 
d="M152 1116v111l167 168h177v-111l-168 -168h-176zM430 0h-301v1032h301v-1032z" />
    <glyph glyph-name="icircumflex" unicode="&#xee;" horiz-adv-x="559" 
d="M430 0h-301v1032h301v-1032zM-14 1122v103l159 159h269l157 -159v-103h-149l-135 135h-15l-135 -135h-151z" />
    <glyph glyph-name="idieresis" unicode="&#xef;" horiz-adv-x="559" 
d="M430 0h-301v1032h301v-1032zM-14 1149v211h223v-211h-223zM352 1149v211h221v-211h-221z" />
    <glyph glyph-name="eth" unicode="&#xf0;" horiz-adv-x="1202" 
d="M465 193h272l64 65v447l-127 124h-209l-64 -61v-510zM539 1413h288l232 -229l127 125h49v-211l-131 -131v-777l-191 -190h-624l-189 190v654l189 188h383l129 -129v189l-262 262v59z" />
    <glyph glyph-name="ntilde" unicode="&#xf1;" horiz-adv-x="1193" 
d="M313 1128v156l90 90h197l109 -106h32l17 18v88h164v-155l-93 -91h-196l-109 109h-30l-19 -18v-91h-162zM117 0v1032h229l16 -153l156 153h377l188 -188v-844h-301v743l-63 64h-180l-121 -121v-686h-301z" />
    <glyph glyph-name="ograve" unicode="&#xf2;" horiz-adv-x="1198" 
d="M381 1395h176l168 -168v-111h-176l-168 168v111zM465 193h268l66 65v518l-66 66h-268l-64 -66v-518zM289 0l-189 190v654l189 188h620l191 -188v-654l-191 -190h-620z" />
    <glyph glyph-name="oacute" unicode="&#xf3;" horiz-adv-x="1198" 
d="M471 1116v111l168 168h176v-111l-168 -168h-176zM465 193h268l66 65v518l-66 66h-268l-64 -66v-518zM289 0l-189 190v654l189 188h620l191 -188v-654l-191 -190h-620z" />
    <glyph glyph-name="ocircumflex" unicode="&#xf4;" horiz-adv-x="1198" 
d="M465 193h268l66 65v518l-66 66h-268l-64 -66v-518zM289 0l-189 190v654l189 188h620l191 -188v-654l-191 -190h-620zM303 1122v103l160 159h268l158 -159v-103h-150l-135 135h-14l-135 -135h-152z" />
    <glyph glyph-name="otilde" unicode="&#xf5;" horiz-adv-x="1198" 
d="M295 1128v156l90 90h197l108 -106h33l16 18v88h164v-155l-92 -91h-197l-108 109h-31l-18 -18v-91h-162zM465 193h268l66 65v518l-66 66h-268l-64 -66v-518zM289 0l-189 190v654l189 188h620l191 -188v-654l-191 -190h-620z" />
    <glyph glyph-name="odieresis" unicode="&#xf6;" horiz-adv-x="1198" 
d="M465 193h268l66 65v518l-66 66h-268l-64 -66v-518zM289 0l-189 190v654l189 188h620l191 -188v-654l-191 -190h-620zM303 1149v211h223v-211h-223zM670 1149v211h221v-211h-221z" />
    <glyph glyph-name="divide" unicode="&#xf7;" horiz-adv-x="815" 
d="M293 918v219h229v-219h-229zM31 586v235h753v-235h-753zM293 270v217h229v-217h-229z" />
    <glyph glyph-name="oslash" unicode="&#xf8;" horiz-adv-x="1198" 
d="M739 186l70 70v465l-344 -535h274zM391 313l344 535h-274l-70 -70v-465zM289 0l-189 190v654l189 188h620l191 -190v-652l-191 -190h-620z" />
    <glyph glyph-name="ugrave" unicode="&#xf9;" horiz-adv-x="1193" 
d="M375 1395h176l168 -168v-111h-176l-168 168v111zM111 1032h301v-743l63 -64h178l123 123v684h301v-1032h-229l-17 156l-155 -156h-377l-188 190v842z" />
    <glyph glyph-name="uacute" unicode="&#xfa;" horiz-adv-x="1193" 
d="M465 1116v111l168 168h176v-111l-168 -168h-176zM111 1032h301v-743l63 -64h178l123 123v684h301v-1032h-229l-17 156l-155 -156h-377l-188 190v842z" />
    <glyph glyph-name="ucircumflex" unicode="&#xfb;" horiz-adv-x="1193" 
d="M111 1032h301v-743l63 -64h178l123 123v684h301v-1032h-229l-17 156l-155 -156h-377l-188 190v842zM297 1122v103l160 159h268l158 -159v-103h-150l-135 135h-14l-135 -135h-152z" />
    <glyph glyph-name="udieresis" unicode="&#xfc;" horiz-adv-x="1193" 
d="M111 1032h301v-743l63 -64h178l123 123v684h301v-1032h-229l-17 156l-155 -156h-377l-188 190v842zM297 1149v211h223v-211h-223zM664 1149v211h221v-211h-221z" />
    <glyph glyph-name="yacute" unicode="&#xfd;" horiz-adv-x="1079" 
d="M412 1116v111l168 168h176v-111l-168 -168h-176zM84 -358v215h344l21 22l36 121h-151l-324 1032h318l225 -821l219 821h297l-391 -1243l-146 -147h-448z" />
    <glyph glyph-name="thorn" unicode="&#xfe;" horiz-adv-x="1220" 
d="M530 203h224l65 63v506l-65 64h-215l-121 -121v-402zM117 -358v1771h301v-510l131 129h383l188 -188v-654l-188 -190h-406l-108 109v-467h-301z" />
    <glyph glyph-name="ydieresis" unicode="&#xff;" horiz-adv-x="1079" 
d="M244 1149v211h223v-211h-223zM610 1149v211h221v-211h-221zM84 -358v215h344l21 22l36 121h-151l-324 1032h318l225 -821l219 821h297l-391 -1243l-146 -147h-448z" />
    <glyph glyph-name="Amacron" unicode="&#x100;" horiz-adv-x="1288" 
d="M389 1565v176h506v-176h-506zM629 1237l-172 -680h342zM16 0l392 1413h462l392 -1413h-324l-80 317h-461l-80 -317h-301z" />
    <glyph glyph-name="amacron" unicode="&#x101;" horiz-adv-x="1179" 
d="M322 1163v176h505v-176h-505zM770 457h-342l-45 -45v-172l45 -45h246l96 98v164zM770 618v173l-53 53h-262l-35 -35v-80h-309v137l165 166h605l190 -188v-844h-229l-17 145l-145 -145h-430l-170 170v279l170 169h520z" />
    <glyph glyph-name="Abreve" unicode="&#x102;" horiz-adv-x="1288" 
d="M352 1769h191v-81l22 -23h156l22 23v81h189v-145l-94 -92h-394l-92 92v145zM629 1237l-172 -680h342zM16 0l392 1413h462l392 -1413h-324l-80 317h-461l-80 -317h-301z" />
    <glyph glyph-name="abreve" unicode="&#x103;" horiz-adv-x="1179" 
d="M285 1368h190v-82l23 -22h155l23 22v82h188v-145l-94 -93h-393l-92 93v145zM770 457h-342l-45 -45v-172l45 -45h246l96 98v164zM770 618v173l-53 53h-262l-35 -35v-80h-309v137l165 166h605l190 -188v-844h-229l-17 145l-145 -145h-430l-170 170v279l170 169h520z" />
    <glyph glyph-name="Aogonek" unicode="&#x104;" horiz-adv-x="1277" 
d="M629 1237l-172 -680h342zM1124 -242v-114h-256l-71 69v152l139 139l-78 313h-461l-80 -317h-301l392 1413h462l392 -1413h-138l-155 -156v-73l12 -13h143z" />
    <glyph glyph-name="aogonek" unicode="&#x105;" horiz-adv-x="1179" 
d="M770 457h-342l-45 -45v-172l45 -45h246l96 98v164zM770 618v173l-53 53h-264l-33 -35v-80h-309v137l165 166h605l190 -188v-844h-41l-156 -156v-73l15 -13h141v-114h-256l-69 69v154l137 137l-17 141l-145 -145h-430l-170 170v279l170 169h520z" />
    <glyph glyph-name="Cacute" unicode="&#x106;" horiz-adv-x="1308" 
d="M1221 932h-316v170l-76 76h-319l-82 -82v-783l82 -82h319l76 76v180h316v-280l-207 -207h-692l-209 209v995l209 209h692l207 -207v-274zM539 1518v110l168 168h176v-110l-168 -168h-176z" />
    <glyph glyph-name="cacute" unicode="&#x107;" horiz-adv-x="1138" 
d="M1067 670h-307v114l-53 54h-246l-64 -64v-516l64 -63h246l53 55v115h307v-189l-176 -176h-604l-191 190v654l191 190h606l174 -178v-186zM455 1116v111l168 168h176v-111l-168 -168h-176z" />
    <glyph glyph-name="Ccircumflex" unicode="&#x108;" horiz-adv-x="1308" 
d="M1221 932h-316v170l-76 76h-319l-82 -82v-783l82 -82h319l76 76v180h316v-280l-207 -207h-692l-209 209v995l209 209h692l207 -207v-274zM371 1524v102l159 160h269l157 -160v-102h-149l-135 135h-15l-135 -135h-151z" />
    <glyph glyph-name="ccircumflex" unicode="&#x109;" horiz-adv-x="1138" 
d="M1067 670h-307v114l-53 54h-246l-64 -64v-516l64 -63h246l53 55v115h307v-189l-176 -176h-604l-191 190v654l191 190h606l174 -178v-186zM287 1122v103l159 159h269l157 -159v-103h-149l-135 135h-15l-135 -135h-151z" />
    <glyph glyph-name="Ccaron" unicode="&#x10c;" horiz-adv-x="1308" 
d="M1221 932h-316v170l-76 76h-319l-82 -82v-783l82 -82h319l76 76v180h316v-280l-207 -207h-692l-209 209v995l209 209h692l207 -207v-274zM371 1786h151l135 -135h15l135 135h149v-103l-157 -159h-269l-159 159v103z" />
    <glyph glyph-name="ccaron" unicode="&#x10d;" horiz-adv-x="1138" 
d="M1067 670h-307v114l-53 54h-246l-64 -64v-516l64 -63h246l53 55v115h307v-189l-176 -176h-604l-191 190v654l191 190h606l174 -178v-186zM287 1384h151l135 -135h15l135 135h149v-102l-157 -160h-269l-159 160v102z" />
    <glyph glyph-name="Dcaron" unicode="&#x10e;" horiz-adv-x="1353" 
d="M446 236h398l82 81v779l-82 82h-398v-942zM131 0v1413h901l209 -209v-995l-209 -209h-901zM350 1786h152l135 -135h14l135 135h150v-103l-158 -159h-268l-160 159v103z" />
    <glyph glyph-name="dcaron" unicode="&#x10f;" horiz-adv-x="1220" 
d="M465 197h223l113 114v387l-131 133h-205l-64 -65v-504zM801 1413h303v-1413h-230l-16 147l-147 -147h-422l-189 190v654l189 188h383l129 -129v510zM1196 1118v293h197v-211l-82 -82h-115z" />
    <glyph glyph-name="Dcroat" unicode="&#x110;" horiz-adv-x="1386" 
d="M479 236h398l81 81v779l-81 82h-398v-349h207v-249h-207v-344zM51 580v249h113v584h901l209 -209v-995l-209 -209h-901v580h-113z" />
    <glyph glyph-name="dcroat" unicode="&#x111;" horiz-adv-x="1220" 
d="M465 197h223l113 114v387l-131 133h-205l-64 -65v-504zM543 1133v167h258v113h303v-113h110v-167h-110v-1133h-230l-16 147l-147 -147h-422l-189 190v654l189 188h383l129 -129v230h-258z" />
    <glyph glyph-name="Emacron" unicode="&#x112;" horiz-adv-x="1157" 
d="M346 1565v176h506v-176h-506zM131 0v1413h934v-242h-619v-333h564v-242h-564v-354h623v-242h-938z" />
    <glyph glyph-name="emacron" unicode="&#x113;" horiz-adv-x="1169" 
d="M334 1163v176h506v-176h-506zM389 621h397v167l-55 56h-287l-55 -56v-167zM1077 449h-688v-199l60 -57h294l35 34v86h299v-151l-162 -162h-630l-189 190v654l189 190h602l190 -190v-395z" />
    <glyph glyph-name="Edotaccent" unicode="&#x116;" horiz-adv-x="1157" 
d="M524 1528l-63 63v138l63 61h152l63 -61v-138l-63 -63h-152zM131 0v1413h934v-242h-619v-333h564v-242h-564v-354h623v-242h-938z" />
    <glyph glyph-name="edotaccent" unicode="&#x117;" horiz-adv-x="1169" 
d="M510 1126l-64 64v137l64 62h152l63 -62v-137l-63 -64h-152zM389 621h397v167l-55 56h-287l-55 -56v-167zM1077 449h-688v-199l60 -57h294l35 34v86h299v-151l-162 -162h-630l-189 190v654l189 190h602l190 -190v-395z" />
    <glyph glyph-name="Eogonek" unicode="&#x118;" horiz-adv-x="1157" 
d="M131 0v1413h934v-242h-619v-333h564v-242h-564v-354h623v-242l-156 -156v-73l13 -13h143v-114h-258l-70 69v154l133 133h-743z" />
    <glyph glyph-name="eogonek" unicode="&#x119;" horiz-adv-x="1169" 
d="M389 621h397v167l-55 56h-287l-55 -56v-167zM1077 449h-688v-199l60 -57h294l35 34v86h299v-151l-162 -162h-2l-155 -156v-73l14 -13h141v-116h-256l-71 71v154l135 133h-436l-189 190v654l189 190h602l190 -190v-395z" />
    <glyph glyph-name="Ecaron" unicode="&#x11a;" horiz-adv-x="1157" 
d="M131 0v1413h934v-242h-619v-333h564v-242h-564v-354h623v-242h-938zM305 1786h152l135 -135h14l135 135h150v-103l-158 -159h-268l-160 159v103z" />
    <glyph glyph-name="ecaron" unicode="&#x11b;" horiz-adv-x="1169" 
d="M389 621h397v167l-55 56h-287l-55 -56v-167zM1077 449h-688v-199l60 -57h294l35 34v86h299v-151l-162 -162h-630l-189 190v654l189 190h602l190 -190v-395zM291 1384h151l136 -135h14l135 135h150v-102l-158 -160h-268l-160 160v102z" />
    <glyph glyph-name="Gcircumflex" unicode="&#x11c;" horiz-adv-x="1339" 
d="M1235 987h-315v131l-60 60h-350l-82 -82v-787l82 -82h348l66 66v246h-306v233h621v-571l-203 -201h-714l-209 209v995l209 209h718l195 -194v-232zM379 1524v102l160 160h268l158 -160v-102h-150l-135 135h-14l-136 -135h-151z" />
    <glyph glyph-name="gcircumflex" unicode="&#x11d;" horiz-adv-x="1216" 
d="M465 240h211l125 125v354l-117 117h-219l-64 -64v-469zM117 -63h282v-66l37 -37h301l64 66v270l-127 -127h-385l-189 188v613l189 188h418l151 -149l16 149h230v-1200l-191 -190h-630l-166 165v130zM299 1122v103l160 159h268l158 -159v-103h-150l-135 135h-14l-135 -135
h-152z" />
    <glyph glyph-name="Gbreve" unicode="&#x11e;" horiz-adv-x="1339" 
d="M385 1769h190v-81l23 -23h156l22 23v81h189v-145l-95 -92h-393l-92 92v145zM1235 987h-315v131l-60 60h-350l-82 -82v-787l82 -82h348l66 66v246h-306v233h621v-571l-203 -201h-714l-209 209v995l209 209h718l195 -194v-232z" />
    <glyph glyph-name="gbreve" unicode="&#x11f;" horiz-adv-x="1216" 
d="M303 1368h191v-82l22 -22h156l22 22v82h189v-145l-95 -93h-393l-92 93v145zM465 240h211l125 125v354l-117 117h-219l-64 -64v-469zM117 -63h282v-66l37 -37h301l64 66v270l-127 -127h-385l-189 188v613l189 188h418l151 -149l16 149h230v-1200l-191 -190h-630l-166 165
v130z" />
    <glyph glyph-name="Gcommaaccent" unicode="&#x122;" horiz-adv-x="1339" 
d="M1235 987h-315v131l-60 60h-350l-82 -82v-787l82 -82h348l66 66v246h-306v233h621v-571l-203 -201h-714l-209 209v995l209 209h718l195 -194v-232zM575 -358v292h197v-210l-82 -82h-115z" />
    <glyph glyph-name="gcommaaccent" unicode="&#x123;" horiz-adv-x="1216" 
d="M465 240h211l125 125v354l-117 117h-219l-64 -64v-469zM117 -63h282v-66l37 -37h301l64 66v270l-127 -127h-385l-189 188v613l189 188h418l151 -149l16 149h230v-1200l-191 -190h-630l-166 165v130zM682 1407v-293h-197v211l82 82h115z" />
    <glyph glyph-name="Hcircumflex" unicode="&#x124;" horiz-adv-x="1366" 
d="M131 0v1413h315v-582h474v582h315v-1413h-315v555h-474v-555h-315zM389 1524v102l160 160h268l158 -160v-102h-150l-135 135h-14l-135 -135h-152z" />
    <glyph glyph-name="hcircumflex" unicode="&#x125;" horiz-adv-x="1193" 
d="M117 0v1413h301v-510l131 129h346l188 -188v-844h-301v743l-63 64h-180l-121 -119v-688h-301zM-25 1473v102l160 160h268l158 -160v-102h-149l-136 135h-14l-135 -135h-152z" />
    <glyph glyph-name="Imacron" unicode="&#x12a;" horiz-adv-x="942" 
d="M217 1565v176h506v-176h-506zM74 0v219h239v975h-239v219h794v-219h-239v-975h239v-219h-794z" />
    <glyph glyph-name="imacron" unicode="&#x12b;" horiz-adv-x="559" 
d="M29 1163v176h506v-176h-506zM430 0h-301v1032h301v-1032z" />
    <glyph glyph-name="Iogonek" unicode="&#x12e;" horiz-adv-x="942" 
d="M74 0v219h239v975h-239v219h794v-219h-239v-975h239v-219h-303l-155 -156v-73l14 -13h141v-116h-256l-71 71v154l135 133h-299z" />
    <glyph glyph-name="iogonek" unicode="&#x12f;" horiz-adv-x="559" 
d="M129 1155v248h301v-248h-301zM430 0h-106l-156 -156v-73l12 -13h144v-114h-258l-70 69v154l133 133v1032h301v-1032z" />
    <glyph glyph-name="Idotaccent" unicode="&#x130;" horiz-adv-x="942" 
d="M395 1528l-63 63v138l63 61h152l63 -61v-138l-63 -63h-152zM74 0v219h239v975h-239v219h794v-219h-239v-975h239v-219h-794z" />
    <glyph glyph-name="dotlessi" unicode="&#x131;" horiz-adv-x="559" 
d="M430 0h-301v1032h301v-1032z" />
    <glyph glyph-name="Jcircumflex" unicode="&#x134;" horiz-adv-x="870" 
d="M43 0v246h307l84 82v1085h316v-1204l-211 -209h-496zM293 1524v102l160 160h268l158 -160v-102h-150l-135 135h-14l-136 -135h-151z" />
    <glyph glyph-name="jcircumflex" unicode="&#x135;" horiz-adv-x="557" 
d="M-109 -358v217h197l39 39v1134h301v-1212l-178 -178h-359zM-16 1122v103l159 159h269l157 -159v-103h-149l-135 135h-15l-135 -135h-151z" />
    <glyph glyph-name="Kcommaaccent" unicode="&#x136;" horiz-adv-x="1337" 
d="M444 0h-315v1413h315v-741l480 741h352l-395 -579l413 -834h-350l-282 592l-218 -313v-279zM616 -358v292h197v-210l-82 -82h-115z" />
    <glyph glyph-name="kcommaaccent" unicode="&#x137;" horiz-adv-x="1183" 
d="M416 0h-301v1413h301v-872l364 491h336l-305 -387l336 -645h-334l-215 449l-182 -232v-217zM535 -358v292h196v-210l-82 -82h-114z" />
    <glyph glyph-name="Lacute" unicode="&#x139;" horiz-adv-x="1036" 
d="M131 0v1413h315v-1161h541v-252h-856zM193 1518v110l167 168h177v-110l-168 -168h-176z" />
    <glyph glyph-name="lacute" unicode="&#x13a;" horiz-adv-x="559" 
d="M430 0h-301v1413h301v-1413zM178 1485v110l168 168h176v-110l-168 -168h-176z" />
    <glyph glyph-name="Lcommaaccent" unicode="&#x13b;" horiz-adv-x="1036" 
d="M131 0v1413h315v-1161h541v-252h-856zM459 -358v292h196v-210l-82 -82h-114z" />
    <glyph glyph-name="lcommaaccent" unicode="&#x13c;" horiz-adv-x="559" 
d="M430 0h-301v1413h301v-1413zM180 -358v292h197v-210l-82 -82h-115z" />
    <glyph glyph-name="Lcaron" unicode="&#x13d;" horiz-adv-x="1036" 
d="M131 0v1413h315v-1161h541v-252h-856zM602 1188v293h197v-211l-82 -82h-115z" />
    <glyph glyph-name="lcaron" unicode="&#x13e;" horiz-adv-x="559" 
d="M430 0h-301v1413h301v-1413zM522 1118v293h197v-211l-82 -82h-115z" />
    <glyph glyph-name="Lslash" unicode="&#x141;" horiz-adv-x="1067" 
d="M164 1413h315v-483l232 90v-256l-232 -90v-422h539v-252h-854v551l-117 -45v256l117 45v606z" />
    <glyph glyph-name="lslash" unicode="&#x142;" horiz-adv-x="587" 
d="M143 1413h301v-455l131 52v-254l-131 -51v-705h-301v588l-129 -49v254l129 49v571z" />
    <glyph glyph-name="Nacute" unicode="&#x143;" horiz-adv-x="1366" 
d="M131 0v1413h332l495 -940v940h281v-1413h-336l-491 948v-948h-281zM555 1518v110l168 168h176v-110l-168 -168h-176z" />
    <glyph glyph-name="nacute" unicode="&#x144;" horiz-adv-x="1193" 
d="M117 0v1032h229l16 -153l156 153h377l188 -188v-844h-301v743l-63 64h-180l-121 -121v-686h-301zM492 1116v111l167 168h177v-111l-168 -168h-176z" />
    <glyph glyph-name="Ncommaaccent" unicode="&#x145;" horiz-adv-x="1366" 
d="M131 0v1413h332l495 -940v940h281v-1413h-336l-491 948v-948h-281zM584 -358v292h196v-210l-82 -82h-114z" />
    <glyph glyph-name="ncommaaccent" unicode="&#x146;" horiz-adv-x="1193" 
d="M117 0v1032h229l16 -153l156 153h377l188 -188v-844h-301v743l-63 64h-180l-121 -121v-686h-301zM506 -358v292h196v-210l-81 -82h-115z" />
    <glyph glyph-name="Ncaron" unicode="&#x147;" horiz-adv-x="1366" 
d="M131 0v1413h332l495 -940v940h281v-1413h-336l-491 948v-948h-281zM387 1786h152l135 -135h14l135 135h150v-103l-158 -159h-268l-160 159v103z" />
    <glyph glyph-name="ncaron" unicode="&#x148;" horiz-adv-x="1193" 
d="M117 0v1032h229l16 -153l156 153h377l188 -188v-844h-301v743l-63 64h-180l-121 -121v-686h-301zM324 1384h151l135 -135h15l135 135h149v-102l-157 -160h-269l-159 160v102z" />
    <glyph glyph-name="Omacron" unicode="&#x14c;" horiz-adv-x="1353" 
d="M510 236h334l82 81v779l-82 82h-334l-82 -82v-779zM322 0l-209 209v995l209 209h710l209 -209v-995l-209 -209h-710zM422 1565v176h506v-176h-506z" />
    <glyph glyph-name="omacron" unicode="&#x14d;" horiz-adv-x="1198" 
d="M465 193h268l66 65v518l-66 66h-268l-64 -66v-518zM289 0l-189 190v654l189 188h620l191 -188v-654l-191 -190h-620zM346 1163v176h506v-176h-506z" />
    <glyph glyph-name="Ohungarumlaut" unicode="&#x150;" horiz-adv-x="1353" 
d="M510 236h334l82 81v779l-82 82h-334l-82 -82v-779zM322 0l-209 209v995l209 209h710l209 -209v-995l-209 -209h-710zM737 1518v110l168 168h121v-110l-168 -168h-121zM438 1518v110l168 168h121v-110l-168 -168h-121z" />
    <glyph glyph-name="ohungarumlaut" unicode="&#x151;" horiz-adv-x="1198" 
d="M465 193h268l66 65v518l-66 66h-268l-64 -66v-518zM289 0l-189 190v654l189 188h620l191 -188v-654l-191 -190h-620zM659 1116v111l168 168h121v-111l-168 -168h-121zM360 1116v111l168 168h121v-111l-168 -168h-121z" />
    <glyph glyph-name="OE" unicode="&#x152;" horiz-adv-x="1931" 
d="M907 236v942h-397l-82 -82v-779l82 -81h397zM1839 1413v-242h-616v-337h563v-236h-563v-356h620v-242h-1521l-209 209v995l209 209h1517z" />
    <glyph glyph-name="oe" unicode="&#x153;" horiz-adv-x="1867" 
d="M1087 621h398v167l-55 56h-285l-58 -56v-167zM461 193h270l64 65v518l-64 64h-270l-64 -64v-518zM1776 449h-689v-203l56 -53h299l35 34v86h299v-151l-162 -162h-574l-96 98l-98 -98h-561l-189 190v654l189 190h561l98 -98l96 98h545l191 -190v-395z" />
    <glyph glyph-name="Racute" unicode="&#x154;" horiz-adv-x="1333" 
d="M446 776h412l74 74v272l-70 70h-416v-416zM131 0v1413h918l198 -196v-443l-176 -176l203 -598h-326l-178 553h-324v-553h-315zM532 1518v110l168 168h177v-110l-168 -168h-177z" />
    <glyph glyph-name="racute" unicode="&#x155;" horiz-adv-x="821" 
d="M117 0v1032h229l16 -158l158 158h250v-250h-233l-119 -118v-664h-301zM315 1116v111l168 168h176v-111l-167 -168h-177z" />
    <glyph glyph-name="Rcommaaccent" unicode="&#x156;" horiz-adv-x="1333" 
d="M446 776h412l74 74v272l-70 70h-416v-416zM131 0v1413h918l198 -196v-443l-176 -176l203 -598h-326l-178 553h-324v-553h-315zM598 -358v292h197v-210l-82 -82h-115z" />
    <glyph glyph-name="rcommaaccent" unicode="&#x157;" horiz-adv-x="821" 
d="M117 0v1032h229l16 -158l158 158h250v-250h-233l-119 -118v-664h-301zM168 -358v292h197v-210l-82 -82h-115z" />
    <glyph glyph-name="Rcaron" unicode="&#x158;" horiz-adv-x="1333" 
d="M446 776h412l74 74v272l-70 70h-416v-416zM131 0v1413h918l198 -196v-443l-176 -176l203 -598h-326l-178 553h-324v-553h-315zM365 1786h151l135 -135h15l135 135h149v-103l-157 -159h-269l-159 159v103z" />
    <glyph glyph-name="rcaron" unicode="&#x159;" horiz-adv-x="821" 
d="M117 0v1032h229l16 -158l158 158h250v-250h-233l-119 -118v-664h-301zM147 1384h152l135 -135h15l135 135h149v-102l-158 -160h-268l-160 160v102z" />
    <glyph glyph-name="Sacute" unicode="&#x15a;" horiz-adv-x="1288" 
d="M92 420h316v-129l59 -60h352l60 62v248l-45 47h-566l-170 168v461l199 196h702l191 -190v-228h-316v127l-59 60h-340l-61 -60v-239l45 -45h567l168 -170v-471l-197 -197h-712l-193 190v230zM516 1518v110l168 168h176v-110l-168 -168h-176z" />
    <glyph glyph-name="sacute" unicode="&#x15b;" horiz-adv-x="1128" 
d="M80 299h291v-76l32 -33h308l37 37v162l-27 27h-494l-139 139v303l174 176h615l159 -162v-135h-291v74l-32 33h-287l-37 -37v-162l27 -24h493l140 -140v-307l-175 -174h-632l-162 162v137zM442 1116v111l168 168h176v-111l-168 -168h-176z" />
    <glyph glyph-name="Scircumflex" unicode="&#x15c;" horiz-adv-x="1288" 
d="M92 420h316v-129l59 -60h352l60 62v248l-45 47h-566l-170 168v461l199 196h702l191 -190v-228h-316v127l-59 60h-340l-61 -60v-239l45 -45h567l168 -170v-471l-197 -197h-712l-193 190v230zM348 1524v102l160 160h268l158 -160v-102h-150l-135 135h-14l-135 -135h-152z
" />
    <glyph glyph-name="scircumflex" unicode="&#x15d;" horiz-adv-x="1128" 
d="M80 299h291v-76l32 -33h308l37 37v162l-27 27h-494l-139 139v303l174 176h615l159 -162v-135h-291v74l-32 33h-287l-37 -37v-162l27 -24h493l140 -140v-307l-175 -174h-632l-162 162v137zM274 1122v103l160 159h268l158 -159v-103h-149l-136 135h-14l-135 -135h-152z" />
    <glyph glyph-name="Scedilla" unicode="&#x15e;" horiz-adv-x="1288" 
d="M92 420h316v-129l59 -60h352l60 62v248l-45 47h-566l-170 168v461l199 196h702l191 -190v-228h-316v127l-59 60h-340l-61 -60v-239l45 -45h567l168 -170v-471l-197 -197h-282v-76h108l72 -71v-140l-72 -71h-323v112h215l12 13v51l-12 10h-111l-43 43v129h-276l-193 190
v230z" />
    <glyph glyph-name="scedilla" unicode="&#x15f;" horiz-adv-x="1128" 
d="M80 299h291v-76l32 -33h308l37 37v162l-27 27h-494l-139 139v303l174 176h615l159 -162v-135h-291v74l-32 33h-287l-37 -37v-162l27 -24h493l140 -140v-307l-175 -174h-233v-76h109l71 -71v-140l-71 -71h-324v112h215l12 13v51l-12 10h-111l-43 43v129h-245l-162 162v137
z" />
    <glyph glyph-name="Scaron" unicode="&#x160;" horiz-adv-x="1288" 
d="M92 420h316v-129l59 -60h352l60 62v248l-45 47h-566l-170 168v461l199 196h702l191 -190v-228h-316v127l-59 60h-340l-61 -60v-239l45 -45h567l168 -170v-471l-197 -197h-712l-193 190v230zM348 1786h152l135 -135h14l135 135h150v-103l-158 -159h-268l-160 159v103z" />
    <glyph glyph-name="scaron" unicode="&#x161;" horiz-adv-x="1128" 
d="M80 299h291v-76l32 -33h308l37 37v162l-27 27h-494l-139 139v303l174 176h615l159 -162v-135h-291v74l-32 33h-287l-37 -37v-162l27 -24h493l140 -140v-307l-175 -174h-632l-162 162v137zM274 1384h152l135 -135h14l136 135h149v-102l-158 -160h-268l-160 160v102z" />
    <glyph glyph-name="Tcommaaccent" unicode="&#x162;" horiz-adv-x="1163" 
d="M424 0v1159h-385v254h1085v-254h-385v-1159h-315zM481 -358v292h197v-210l-82 -82h-115z" />
    <glyph glyph-name="tcommaaccent" unicode="&#x163;" horiz-adv-x="876" 
d="M184 819h-149v213h149v275h301v-275h318v-213h-318v-534l60 -60h258v-225h-428l-191 190v629zM410 -358v292h196v-210l-82 -82h-114z" />
    <glyph glyph-name="Tcaron" unicode="&#x164;" horiz-adv-x="1163" 
d="M424 0v1159h-385v254h1085v-254h-385v-1159h-315zM287 1786h151l135 -135h15l135 135h149v-103l-157 -159h-269l-159 159v103z" />
    <glyph glyph-name="tcaron" unicode="&#x165;" horiz-adv-x="876" 
d="M184 819h-149v213h149v275h301v-275h318v-213h-318v-534l60 -60h258v-225h-428l-191 190v629zM608 1159v293h197v-211l-82 -82h-115z" />
    <glyph glyph-name="Umacron" unicode="&#x16a;" horiz-adv-x="1339" 
d="M416 1565v176h506v-176h-506zM121 1413h315v-1087l82 -82h303l82 82v1087h316v-1204l-211 -209h-676l-211 209v1204z" />
    <glyph glyph-name="umacron" unicode="&#x16b;" horiz-adv-x="1193" 
d="M340 1163v176h506v-176h-506zM111 1032h301v-743l63 -64h178l123 123v684h301v-1032h-229l-17 156l-155 -156h-377l-188 190v842z" />
    <glyph glyph-name="Ubreve" unicode="&#x16c;" horiz-adv-x="1339" 
d="M379 1769h190v-81l23 -23h156l22 23v81h188v-145l-94 -92h-393l-92 92v145zM121 1413h315v-1087l82 -82h303l82 82v1087h316v-1204l-211 -209h-676l-211 209v1204z" />
    <glyph glyph-name="ubreve" unicode="&#x16d;" horiz-adv-x="1193" 
d="M303 1368h191v-82l22 -22h156l22 22v82h189v-145l-95 -93h-393l-92 93v145zM111 1032h301v-743l63 -64h178l123 123v684h301v-1032h-229l-17 156l-155 -156h-377l-188 190v842z" />
    <glyph glyph-name="Uring" unicode="&#x16e;" horiz-adv-x="1339" 
d="M121 1413h315v-1087l82 -82h303l82 82v1087h316v-1204l-211 -209h-676l-211 209v1204zM604 1591h127l25 23v102l-25 23h-127l-22 -23v-102zM535 1501l-78 78v174l78 78h268l78 -78v-174l-78 -78h-268z" />
    <glyph glyph-name="uring" unicode="&#x16f;" horiz-adv-x="1193" 
d="M111 1032h301v-743l63 -64h178l123 123v684h301v-1032h-229l-17 156l-155 -156h-377l-188 190v842zM528 1190h127l25 22v103l-25 22h-127l-22 -22v-103zM459 1100l-78 78v174l78 78h268l78 -78v-174l-78 -78h-268z" />
    <glyph glyph-name="Uhungarumlaut" unicode="&#x170;" horiz-adv-x="1339" 
d="M731 1518v110l168 168h121v-110l-168 -168h-121zM432 1518v110l168 168h121v-110l-168 -168h-121zM121 1413h315v-1087l82 -82h303l82 82v1087h316v-1204l-211 -209h-676l-211 209v1204z" />
    <glyph glyph-name="uhungarumlaut" unicode="&#x171;" horiz-adv-x="1193" 
d="M653 1116v111l168 168h121v-111l-168 -168h-121zM354 1116v111l168 168h121v-111l-168 -168h-121zM111 1032h301v-743l63 -64h178l123 123v684h301v-1032h-229l-17 156l-155 -156h-377l-188 190v842z" />
    <glyph glyph-name="Uogonek" unicode="&#x172;" horiz-adv-x="1339" 
d="M121 1413h315v-1087l82 -82h303l82 82v1087h316v-1204l-211 -209h-217l-156 -156v-73l14 -13h142v-116h-256l-72 71v154l135 133h-266l-211 209v1204z" />
    <glyph glyph-name="uogonek" unicode="&#x173;" horiz-adv-x="1193" 
d="M111 1032h301v-743l63 -64h178l123 123v684h301v-1032h-41l-155 -156v-73l14 -13h141v-114h-256l-69 69v154l137 137l-17 152l-155 -156h-377l-188 190v842z" />
    <glyph glyph-name="Ydieresis" unicode="&#x178;" horiz-adv-x="1228" 
d="M319 1550v211h224v-211h-224zM686 1550v211h221v-211h-221zM457 0v432l-443 981h342l271 -672l280 672h307l-444 -981v-432h-313z" />
    <glyph glyph-name="Zacute" unicode="&#x179;" horiz-adv-x="1118" 
d="M63 0v199l605 960h-590v254h966v-199l-604 -958h615v-256h-992zM432 1518v110l168 168h176v-110l-168 -168h-176z" />
    <glyph glyph-name="zacute" unicode="&#x17a;" horiz-adv-x="978" 
d="M53 0v170l498 645h-485v217h847v-168l-495 -645h508v-219h-873zM362 1116v111l168 168h177v-111l-168 -168h-177z" />
    <glyph glyph-name="Zdotaccent" unicode="&#x17b;" horiz-adv-x="1118" 
d="M483 1528l-63 63v138l63 61h152l63 -61v-138l-63 -63h-152zM63 0v199l605 960h-590v254h966v-199l-604 -958h615v-256h-992z" />
    <glyph glyph-name="zdotaccent" unicode="&#x17c;" horiz-adv-x="978" 
d="M412 1126l-64 64v137l64 62h151l64 -62v-137l-64 -64h-151zM53 0v170l498 645h-485v217h847v-168l-495 -645h508v-219h-873z" />
    <glyph glyph-name="Zcaron" unicode="&#x17d;" horiz-adv-x="1118" 
d="M63 0v199l605 960h-590v254h966v-199l-604 -958h615v-256h-992zM264 1786h152l135 -135h14l135 135h150v-103l-158 -159h-268l-160 159v103z" />
    <glyph glyph-name="zcaron" unicode="&#x17e;" horiz-adv-x="978" 
d="M53 0v170l498 645h-485v217h847v-168l-495 -645h508v-219h-873zM195 1384h151l135 -135h15l135 135h149v-102l-157 -160h-269l-159 160v102z" />
    <glyph glyph-name="florin" unicode="&#x192;" horiz-adv-x="974" 
d="M55 0v231h148l73 74v352h-213v234h213v313l211 209h433v-231h-252l-76 -74v-217h301v-234h-301v-448l-209 -209h-328z" />
    <glyph glyph-name="Scommaaccent" unicode="&#x218;" horiz-adv-x="1288" 
d="M92 420h316v-129l59 -60h352l60 62v248l-45 47h-566l-170 168v461l199 196h702l191 -190v-228h-316v127l-59 60h-340l-61 -60v-239l45 -45h567l168 -170v-471l-197 -197h-712l-193 190v230zM545 -358v292h196v-210l-82 -82h-114z" />
    <glyph glyph-name="scommaaccent" unicode="&#x219;" horiz-adv-x="1128" 
d="M80 299h291v-76l32 -33h308l37 37v162l-27 27h-494l-139 139v303l174 176h615l159 -162v-135h-291v74l-32 33h-287l-37 -37v-162l27 -24h493l140 -140v-307l-175 -174h-632l-162 162v137zM469 -358v292h197v-210l-82 -82h-115z" />
    <glyph glyph-name="uni0237" unicode="&#x237;" horiz-adv-x="552" 
d="M-113 -358v217h197l39 39v1134h301v-1212l-178 -178h-359z" />
    <glyph glyph-name="circumflex" unicode="&#x2c6;" horiz-adv-x="858" 
d="M135 1122v103l160 159h268l158 -159v-103h-150l-135 135h-14l-135 -135h-152z" />
    <glyph glyph-name="caron" unicode="&#x2c7;" horiz-adv-x="858" 
d="M135 1384h152l135 -135h14l135 135h150v-102l-158 -160h-268l-160 160v102z" />
    <glyph glyph-name="breve" unicode="&#x2d8;" horiz-adv-x="849" 
d="M135 1368h191v-82l22 -22h156l22 22v82h189v-145l-94 -93h-394l-92 93v145z" />
    <glyph glyph-name="dotaccent" unicode="&#x2d9;" horiz-adv-x="548" 
d="M199 1126l-64 64v137l64 62h151l64 -62v-137l-64 -64h-151z" />
    <glyph glyph-name="ring" unicode="&#x2da;" horiz-adv-x="694" 
d="M283 1190h127l24 22v103l-24 22h-127l-23 -22v-103zM213 1100l-78 78v174l78 78h268l78 -78v-174l-78 -78h-268z" />
    <glyph glyph-name="ogonek" unicode="&#x2db;" horiz-adv-x="598" 
d="M463 -242v-116h-256l-72 71v154l135 133h193l-156 -156v-73l15 -13h141z" />
    <glyph glyph-name="tilde" unicode="&#x2dc;" horiz-adv-x="878" 
d="M135 1128v156l90 90h197l108 -106h33l17 18v88h163v-155l-92 -91h-196l-109 109h-31l-18 -18v-91h-162z" />
    <glyph glyph-name="hungarumlaut" unicode="&#x2dd;" horiz-adv-x="858" 
d="M434 1116v111l168 168h121v-111l-168 -168h-121zM135 1116v111l168 168h121v-111l-168 -168h-121z" />
    <glyph glyph-name="endash" unicode="&#x2013;" horiz-adv-x="876" 
d="M27 586v248h823v-248h-823z" />
    <glyph glyph-name="emdash" unicode="&#x2014;" horiz-adv-x="1157" 
d="M27 586v248h1103v-248h-1103z" />
    <glyph glyph-name="quoteleft" unicode="&#x2018;" horiz-adv-x="452" 
d="M80 868v437l108 108h185v-123h-109l-14 -14v-102h123v-306h-293z" />
    <glyph glyph-name="quoteright" unicode="&#x2019;" horiz-adv-x="452" 
d="M373 1413v-436l-109 -109h-184v123h108l15 15v102h-123v305h293z" />
    <glyph glyph-name="quotesinglbase" unicode="&#x201a;" horiz-adv-x="452" 
d="M80 -240v123h108l15 15v102h-123v305h293v-436l-109 -109h-184z" />
    <glyph glyph-name="quotedblleft" unicode="&#x201c;" horiz-adv-x="856" 
d="M483 868v437l109 108h184v-123h-108l-15 -14v-102h123v-306h-293zM80 868v437l108 108h187v-123h-111l-14 -14v-102h125v-306h-295z" />
    <glyph glyph-name="quotedblright" unicode="&#x201d;" horiz-adv-x="856" 
d="M373 1413v-436l-109 -109h-184v123h108l15 15v102h-123v305h293zM776 1413v-436l-108 -109h-187v123h111l14 15v102h-125v305h295z" />
    <glyph glyph-name="quotedblbase" unicode="&#x201e;" horiz-adv-x="856" 
d="M483 -240v123h109l14 15v102h-123v305h293v-436l-108 -109h-185zM80 -240v123h110l13 15v102h-123v305h295v-436l-109 -109h-186z" />
    <glyph glyph-name="dagger" unicode="&#x2020;" horiz-adv-x="649" 
d="M211 512v535h-166v186h166v180h227v-180h166v-186h-166v-535h-227z" />
    <glyph glyph-name="daggerdbl" unicode="&#x2021;" horiz-adv-x="649" 
d="M211 512v164h-166v186h166v201h-166v184h166v166h227v-166h166v-184h-166v-201h166v-186h-166v-164h-227z" />
    <glyph glyph-name="bullet" unicode="&#x2022;" horiz-adv-x="585" 
d="M176 459l-119 121v254l119 120h234l118 -120v-254l-118 -121h-234z" />
    <glyph glyph-name="ellipsis" unicode="&#x2026;" horiz-adv-x="1294" 
d="M930 0v315h297v-315h-297zM500 0v315h297v-315h-297zM68 0v315h297v-315h-297z" />
    <glyph glyph-name="perthousand" unicode="&#x2030;" horiz-adv-x="2428" 
d="M309 0l824 1413h210l-823 -1413h-211zM1968 156h156l43 43v297l-43 41h-156l-43 -41v-297zM1851 0l-139 139v414l139 141h387l142 -141v-414l-139 -139h-390zM1196 156h156l43 43v297l-43 41h-156l-43 -41v-297zM1079 0l-139 139v414l139 141h387l142 -141v-414
l-140 -139h-389zM303 879h158l43 41v297l-43 43h-158l-43 -43v-297zM188 719l-139 141v414l139 139h390l139 -139v-414l-139 -141h-390z" />
    <glyph glyph-name="guilsinglleft" unicode="&#x2039;" horiz-adv-x="530" 
d="M244 274l-221 431l221 432h243l-221 -432l221 -431h-243z" />
    <glyph glyph-name="guilsinglright" unicode="&#x203a;" horiz-adv-x="530" 
d="M508 705l-221 -431h-244l221 431l-221 432h244z" />
    <glyph glyph-name="fraction" unicode="&#x2044;" horiz-adv-x="1036" 
d="M0 0l823 1413h213l-825 -1413h-211z" />
    <glyph glyph-name="Euro" unicode="&#x20ac;" horiz-adv-x="1366" 
d="M39 762v162h123v280l211 209h698l205 -205v-252h-313v146l-78 76h-340l-66 -66v-188h400v-162h-400v-96h400v-162h-400v-207l66 -66h340l78 74v156h313v-256l-205 -205h-698l-211 209v295h-123v162h123v96h-123z" />
    <glyph glyph-name="servicemark" unicode="&#x2120;" horiz-adv-x="1284" 
d="M569 821v592h191l119 -469l120 469h191v-592h-119v504l-129 -504h-135l-129 502v-502h-109zM43 997h131v-55l21 -20h145l20 20v111l-10 10h-231l-76 76v186l90 88h273l86 -86v-92h-132v57l-20 21h-143l-23 -21v-110l12 -11h232l74 -75v-187l-89 -88h-274l-86 86v90z" />
    <glyph glyph-name="trademark" unicode="&#x2122;" horiz-adv-x="1193" 
d="M479 821v592h191l121 -469l118 469h191v-592h-119v504l-127 -504h-135l-129 502v-502h-111zM168 821v486h-143v106h415v-106h-139v-486h-133z" />
    <glyph glyph-name="minus" unicode="&#x2212;" horiz-adv-x="716" 
d="M27 582v247h661v-247h-661z" />
    <glyph glyph-name="fi" unicode="&#xfb01;" horiz-adv-x="1357" 
d="M928 1155v248h301v-248h-301zM1229 0h-301v1032h301v-1032zM182 0v819h-139v213h139v213l170 168h428v-203h-252l-45 -43v-135h277v-213h-277v-819h-301z" />
    <glyph glyph-name="fl" unicode="&#xfb02;" horiz-adv-x="1357" 
d="M1229 0h-301v1413h301v-1413zM182 0v819h-139v213h139v213l170 168h428v-203h-252l-45 -43v-135h277v-213h-277v-819h-301z" />
    <glyph glyph-name="commaaccent" horiz-adv-x="468" 
d="M135 -358v292h197v-210l-82 -82h-115z" />
    <glyph glyph-name="published" horiz-adv-x="1683" 
d="M717 694h233l31 31v186l-31 31h-233v-248zM481 311v793h619l114 -115v-342l-116 -119h-381v-217h-236zM453 172h776l129 131v807l-129 131h-776l-131 -131v-807zM350 0l-237 240v934l237 239h981l240 -239v-934l-240 -240h-981z" />
    <glyph glyph-name="G.alt" horiz-adv-x="1345" 
d="M1235 987h-315v131l-60 60h-350l-82 -82v-787l82 -82h344l70 70v242h-306v233h621v-772h-233l-25 129l-129 -129h-530l-209 209v995l209 209h718l195 -194v-232z" />
    <glyph glyph-name="Gbreve.alt" horiz-adv-x="1345" 
d="M385 1769h190v-81l23 -23h156l22 23v81h189v-145l-95 -92h-393l-92 92v145zM1235 987h-315v131l-60 60h-350l-82 -82v-787l82 -82h344l70 70v242h-306v233h621v-772h-233l-25 129l-129 -129h-530l-209 209v995l209 209h718l195 -194v-232z" />
    <glyph glyph-name="Gcircumflex.alt" horiz-adv-x="1345" 
d="M1235 987h-315v131l-60 60h-350l-82 -82v-787l82 -82h344l70 70v242h-306v233h621v-772h-233l-25 129l-129 -129h-530l-209 209v995l209 209h718l195 -194v-232zM379 1524v102l160 160h268l158 -160v-102h-150l-135 135h-14l-136 -135h-151z" />
    <glyph glyph-name="Gcommaaccent.alt" horiz-adv-x="1345" 
d="M1235 987h-315v131l-60 60h-350l-82 -82v-787l82 -82h344l70 70v242h-306v233h621v-772h-233l-25 129l-129 -129h-530l-209 209v995l209 209h718l195 -194v-232zM575 -358v292h197v-210l-82 -82h-115z" />
    <glyph glyph-name="I.alt" horiz-adv-x="634" 
d="M477 0h-319v1413h319v-1413z" />
    <glyph glyph-name="Iacute.alt" horiz-adv-x="634" 
d="M477 0h-319v1413h319v-1413zM190 1518v110l168 168h177v-110l-168 -168h-177z" />
    <glyph glyph-name="Igrave.alt" horiz-adv-x="634" 
d="M100 1796h176l168 -168v-110h-176l-168 168v110zM477 0h-319v1413h319v-1413z" />
    <glyph glyph-name="Icircumflex.alt" horiz-adv-x="634" 
d="M477 0h-319v1413h319v-1413zM25 1524v102l159 160h269l157 -160v-102h-149l-135 135h-15l-135 -135h-151z" />
    <glyph glyph-name="Idieresis.alt" horiz-adv-x="634" 
d="M477 0h-319v1413h319v-1413zM25 1550v211h223v-211h-223zM391 1550v211h221v-211h-221z" />
    <glyph glyph-name="Idotaccent.alt" horiz-adv-x="634" 
d="M242 1528l-64 63v138l64 61h151l64 -61v-138l-64 -63h-151zM477 0h-319v1413h319v-1413z" />
    <glyph glyph-name="Imacron.alt" horiz-adv-x="634" 
d="M66 1565v176h505v-176h-505zM477 0h-319v1413h319v-1413z" />
    <glyph glyph-name="Iogonek.alt" horiz-adv-x="634" 
d="M477 0h-125l-155 -156v-73l12 -13h143v-114h-258l-69 69v154l133 133v1413h319v-1413z" />
    <glyph glyph-name="J.alt" horiz-adv-x="1220" 
d="M61 598h316v-272l82 -82h243l82 82v1087h316v-1204l-211 -209h-619l-209 209v389z" />
    <glyph glyph-name="Jcircumflex.alt" horiz-adv-x="1220" 
d="M61 598h316v-272l82 -82h243l82 82v1087h316v-1204l-211 -209h-619l-209 209v389zM647 1524v102l160 160h268l158 -160v-102h-150l-135 135h-14l-135 -135h-152z" />
    <glyph glyph-name="Q.alt" horiz-adv-x="1353" 
d="M510 236h336l82 83v777l-82 82h-336l-82 -82v-777zM322 0l-209 211v993l209 209h710l211 -209v-993l-129 -129l162 -160l-174 -174l-250 252h-530z" />
    <glyph glyph-name="a.alt" horiz-adv-x="1220" 
d="M465 197h223l115 114v410l-115 115h-223l-64 -64v-510zM1104 1032v-1032h-230l-14 147l-149 -147h-422l-189 190v654l189 188h422l149 -147l12 147h232z" />
    <glyph glyph-name="aacute.alt" horiz-adv-x="1220" 
d="M465 197h223l115 114v410l-115 115h-223l-64 -64v-510zM1104 1032v-1032h-230l-14 147l-149 -147h-422l-189 190v654l189 188h422l149 -147l12 147h232zM459 1116v111l168 168h176v-111l-168 -168h-176z" />
    <glyph glyph-name="agrave.alt" horiz-adv-x="1220" 
d="M367 1395h176l168 -168v-111h-176l-168 168v111zM465 197h223l115 114v410l-115 115h-223l-64 -64v-510zM1104 1032v-1032h-230l-14 147l-149 -147h-422l-189 190v654l189 188h422l149 -147l12 147h232z" />
    <glyph glyph-name="acircumflex.alt" horiz-adv-x="1220" 
d="M465 197h223l115 114v410l-115 115h-223l-64 -64v-510zM1104 1032v-1032h-230l-14 147l-149 -147h-422l-189 190v654l189 188h422l149 -147l12 147h232zM291 1122v103l160 159h268l158 -159v-103h-150l-135 135h-14l-136 -135h-151z" />
    <glyph glyph-name="adieresis.alt" horiz-adv-x="1220" 
d="M465 197h223l115 114v410l-115 115h-223l-64 -64v-510zM1104 1032v-1032h-230l-14 147l-149 -147h-422l-189 190v654l189 188h422l149 -147l12 147h232zM291 1149v211h223v-211h-223zM657 1149v211h222v-211h-222z" />
    <glyph glyph-name="atilde.alt" horiz-adv-x="1220" 
d="M283 1128v156l90 90h196l109 -106h33l16 18v88h164v-155l-92 -91h-197l-108 109h-31l-19 -18v-91h-161zM465 197h223l115 114v410l-115 115h-223l-64 -64v-510zM1104 1032v-1032h-230l-14 147l-149 -147h-422l-189 190v654l189 188h422l149 -147l12 147h232z" />
    <glyph glyph-name="aring.alt" horiz-adv-x="1220" 
d="M465 197h223l115 114v410l-115 115h-223l-64 -64v-510zM1104 1032v-1032h-230l-14 147l-149 -147h-422l-189 190v654l189 188h422l149 -147l12 147h232zM520 1190h127l25 22v103l-25 22h-127l-22 -22v-103zM451 1100l-78 78v174l78 78h268l78 -78v-174l-78 -78h-268z" />
    <glyph glyph-name="abreve.alt" horiz-adv-x="1220" 
d="M295 1368h190v-82l23 -22h156l22 22v82h188v-145l-94 -93h-393l-92 93v145zM465 197h223l115 114v410l-115 115h-223l-64 -64v-510zM1104 1032v-1032h-230l-14 147l-149 -147h-422l-189 190v654l189 188h422l149 -147l12 147h232z" />
    <glyph glyph-name="amacron.alt" horiz-adv-x="1220" 
d="M332 1163v176h506v-176h-506zM465 197h223l115 114v410l-115 115h-223l-64 -64v-510zM1104 1032v-1032h-230l-14 147l-149 -147h-422l-189 190v654l189 188h422l149 -147l12 147h232z" />
    <glyph glyph-name="aogonek.alt" horiz-adv-x="1220" 
d="M465 197h223l115 114v410l-115 115h-223l-64 -64v-510zM1104 1032v-1032h-39l-156 -156v-73l13 -13h143v-114h-258l-70 69v154l137 137l-14 143l-149 -147h-422l-189 190v654l189 188h422l149 -147l12 147h232z" />
    <glyph glyph-name="g.alt" horiz-adv-x="1169" 
d="M395 -174h404l43 43v119l-43 41h-404l-41 -41v-119zM426 526h311l41 43v236l-41 41h-311l-41 -41v-236zM1133 1032v-180h-160l96 -96v-242l-166 -164h-485l-21 -20v-88l19 -19h547l163 -164v-254l-163 -163h-734l-163 163v193l135 135l-70 70v92l86 86l-123 123v375
l154 153h885z" />
    <glyph glyph-name="gbreve.alt" horiz-adv-x="1169" 
d="M307 1368h191v-82l22 -22h156l22 22v82h189v-145l-94 -93h-394l-92 93v145zM395 -174h404l43 43v119l-43 41h-404l-41 -41v-119zM426 526h311l41 43v236l-41 41h-311l-41 -41v-236zM1133 1032v-180h-160l96 -96v-242l-166 -164h-485l-21 -20v-88l19 -19h547l163 -164
v-254l-163 -163h-734l-163 163v193l135 135l-70 70v92l86 86l-123 123v375l154 153h885z" />
    <glyph glyph-name="gcircumflex.alt" horiz-adv-x="1169" 
d="M395 -174h404l43 43v119l-43 41h-404l-41 -41v-119zM426 526h311l41 43v236l-41 41h-311l-41 -41v-236zM1133 1032v-180h-160l96 -96v-242l-166 -164h-485l-21 -20v-88l19 -19h547l163 -164v-254l-163 -163h-734l-163 163v193l135 135l-70 70v92l86 86l-123 123v375
l154 153h885zM303 1122v103l160 159h268l158 -159v-103h-150l-135 135h-14l-135 -135h-152z" />
    <glyph glyph-name="gcommaaccent.alt" horiz-adv-x="1169" 
d="M395 -174h404l43 43v119l-43 41h-404l-41 -41v-119zM426 526h311l41 43v236l-41 41h-311l-41 -41v-236zM1133 1032v-180h-160l96 -96v-242l-166 -164h-485l-21 -20v-88l19 -19h547l163 -164v-254l-163 -163h-734l-163 163v193l135 135l-70 70v92l86 86l-123 123v375
l154 153h885zM696 1407v-293h-196v211l82 82h114z" />
    <glyph glyph-name="at.alt1" horiz-adv-x="2088" 
d="M1231 463h-344l-49 -49v-160l49 -49h248l96 94v164zM121 0v1135l278 278h1299l278 -278v-949l-186 -186h-477l-17 145l-145 -145h-455l-168 168v311l164 164h539v174l-60 60h-258l-41 -41v-91h-319v177l164 163h637l186 -186v-698h94l58 57v789l-156 157h-973l-155 -157
v-1047h-287z" />
    <glyph glyph-name="at.alt2" horiz-adv-x="2007" 
d="M850 197h227l115 114v410l-115 115h-227l-66 -64v-510zM1493 1032v-850h92l57 58v764l-153 153h-965l-153 -153v-965l153 -154h977v-204h-1116l-276 276v1126l276 277h1241l277 -277v-899l-185 -184h-454l-17 147l-145 -147h-428l-191 190v654l191 188h428l145 -147
l15 147h231z" />
    <glyph glyph-name="at.alt3" horiz-adv-x="2113" 
d="M922 207h219l112 112v449l-112 113h-219l-70 -72v-533zM121 0v1135l278 278h1325l279 -278v-949l-186 -186h-480l-16 145l-147 -145h-447l-186 186v713l186 186h447l147 -145l16 145h226v-884h98l57 57v789l-155 157h-1000l-155 -157v-1047h-287z" />
    <glyph glyph-name="ampersand.alt" horiz-adv-x="1331" 
d="M479 225h398l53 51v99l-455 227l-57 -59v-256zM1188 1022h-316v106l-59 60h-332l-61 -62v-168l41 -43l469 -239v158h313v-654l-180 -180h-772l-189 188v420l148 148l-146 147v322l189 188h702l193 -190v-201z" />
    <glyph glyph-name="ordfeminine.alt" horiz-adv-x="784" 
d="M309 850h148l61 59v297l-61 62h-148l-43 -43v-332zM725 1413v-711h-158l-14 95l-94 -95h-273l-127 127v457l127 127h273l94 -94l14 94h158z" />
    <glyph glyph-name="zero.tabular" 
d="M473 225h313l78 78v807l-78 78h-313l-78 -78v-807zM311 0l-211 209v995l211 209h641l211 -209v-995l-211 -209h-641z" />
    <glyph glyph-name="one.tabular" 
d="M184 0v219h320v975h-320v219h621v-1194h311v-219h-932z" />
    <glyph glyph-name="two.tabular" 
d="M127 0v614l170 168h514l41 41v316l-51 51h-322l-49 -49v-148h-299v230l191 190h630l199 -196v-498l-170 -168h-514l-41 -41v-274h723v-236h-1022z" />
    <glyph glyph-name="three.tabular" 
d="M96 436h297v-162l58 -57h360l55 57v267l-67 69h-469v224h469l65 65v238l-57 57h-356l-58 -57v-156h-297v242l191 190h688l188 -188v-357l-145 -143l147 -150v-387l-188 -188h-690l-191 190v246z" />
    <glyph glyph-name="four.tabular" 
d="M786 0v362h-716v179l233 872h283l-197 -815h397v815h299v-815h117v-236h-117v-362h-299z" />
    <glyph glyph-name="five.tabular" 
d="M121 424h299v-148l55 -55h328l59 62v374l-45 45h-325l-89 -88h-282v799h1018v-231h-719v-351l94 95h467l178 -178v-551l-196 -197h-652l-190 190v234z" />
    <glyph glyph-name="six.tabular" 
d="M469 221h332l65 66v315l-59 57h-336l-65 -67v-305zM1163 1010h-299v127l-55 55h-332l-71 -72v-342l100 103h469l188 -189v-491l-200 -201h-656l-201 201v1011l201 201h664l192 -190v-213z" />
    <glyph glyph-name="seven.tabular" 
d="M438 0v520l373 649h-713v244h1065v-199l-428 -722v-492h-297z" />
    <glyph glyph-name="eight.tabular" 
d="M465 829h336l67 70v240l-61 61h-350l-62 -61v-240zM455 213h354l61 63v271l-71 71h-336l-72 -71v-271zM283 0l-189 188v383l154 154l-152 152v348l189 188h694l188 -188v-348l-151 -152l153 -154v-383l-188 -188h-698z" />
    <glyph glyph-name="nine.tabular" 
d="M455 770h336l67 68v288l-63 66h-332l-66 -66v-299zM100 416h297v-140l58 -55h331l72 72v358l-102 -102h-467l-189 188v475l201 201h655l201 -201v-1011l-201 -201h-663l-193 190v226z" />
    <glyph glyph-name="plus.tabular" 
d="M199 590v231h313v299h242v-299h311v-231h-311v-301h-242v301h-313z" />
    <glyph glyph-name="minus.tabular" 
d="M258 582v247h748v-247h-748z" />
    <glyph glyph-name="multiply.tabular" 
d="M385 293l-166 164l246 245l-246 248l166 166l246 -248l248 248l163 -166l-247 -248l247 -245l-163 -164l-248 246z" />
    <glyph glyph-name="divide.tabular" 
d="M516 930v223h232v-223h-232zM215 586v235h834v-235h-834zM516 258v221h232v-221h-232z" />
    <glyph glyph-name="equal.tabular" 
d="M252 387v231h758v-231h-758zM252 782v232h758v-232h-758z" />
    <glyph glyph-name="greater.tabular" 
d="M1073 565l-840 -336v263l598 215l-598 215v264l840 -336v-285z" />
    <glyph glyph-name="less.tabular" 
d="M1030 229l-840 336v285l840 336v-264l-598 -215l598 -215v-263z" />
    <glyph glyph-name="numbersign.tabular" 
d="M508 723h246v283h-246v-283zM285 313v222h-170v188h170v283h-170v190h170v217h223v-217h246v217h223v-217h172v-190h-172v-283h172v-188h-172v-222h-223v222h-246v-222h-223z" />
    <glyph glyph-name="dollar.tabular" 
d="M109 434h299v-123l51 -51h342l55 55v232l-45 45h-526l-170 170v420l192 192h185v207h280v-207h193l186 -186v-209h-299v123l-51 51h-332l-55 -55v-219l45 -48h526l170 -167v-433l-194 -192h-189v-207h-280v207h-197l-186 186v209z" />
    <glyph glyph-name="cent.tabular" 
d="M502 1274v186h282v-186h189l201 -203v-235h-300v145l-65 66h-334l-69 -68v-547l69 -70h334l65 66v154h300v-240l-201 -201h-189v-188h-282v188h-189l-204 205v723l204 205h189z" />
    <glyph glyph-name="sterling.tabular" 
d="M100 0v223l97 96v259h-101v223h101v403l209 209h565l207 -207v-258h-299v172l-68 68h-242l-73 -76v-311h381v-223h-381v-254l-84 -84h766v-240h-1078z" />
    <glyph glyph-name="yen.tabular" 
d="M139 463v160h262l-333 790h327l248 -663l260 663h293l-338 -790h266v-160h-333l-11 -27v-59h344v-160h-344v-217h-299v217h-342v160h342v59l-12 27h-330z" />
    <glyph glyph-name="florin.tabular" 
d="M154 0v231h202l72 74v352h-266v234h266v313l211 209h473v-231h-309l-76 -74v-217h358v-234h-358v-448l-209 -209h-364z" />
    <glyph glyph-name="Euro.tabular" 
d="M57 762v162h93v280l208 209h621l205 -205v-252h-297v160l-70 72h-307l-61 -62v-202h354v-162h-354v-96h354v-162h-354v-221l61 -62h307l70 72v168h297v-256l-205 -205h-621l-208 209v295h-93v162h93v96h-93z" />
    <glyph glyph-name="section.tabular" 
d="M115 655v562l198 196h652l186 -186v-234h-299v144l-53 55h-330l-55 -55v-279h633l108 -108v-95h-1040zM109 182h299v-147l53 -53h340l55 55v278h-633l-106 107v96h1038v-563l-197 -197h-661l-188 191v233z" />
    <glyph glyph-name="space.tabular" horiz-adv-x="630" 
 />
    <glyph glyph-name="colon.tabular" horiz-adv-x="630" 
d="M168 592v313h297v-313h-297zM168 0v315h297v-315h-297z" />
    <glyph glyph-name="semicolon.tabular" horiz-adv-x="630" 
d="M168 590v315h297v-315h-297zM168 -240v123h113l14 15v102h-127v315h297v-446l-109 -109h-188z" />
    <glyph glyph-name="comma.tabular" horiz-adv-x="630" 
d="M166 -240v123h115l12 15v102h-127v315h299v-446l-109 -109h-190z" />
    <glyph glyph-name="period.tabular" horiz-adv-x="630" 
d="M168 0v315h297v-315h-297z" />
    <glyph glyph-name="parenleft.tabular" horiz-adv-x="659" 
d="M598 1550v-225h-104l-72 -74v-1091l72 -74h104v-225h-270l-201 198v1293l201 198h270z" />
    <glyph glyph-name="parenright.tabular" horiz-adv-x="659" 
d="M61 -139v225h105l72 74v1091l-72 74h-105v225h273l198 -198v-1293l-198 -198h-273z" />
    <glyph glyph-name="bracketleft.tabular" horiz-adv-x="659" 
d="M133 -139v1689h471v-225h-176v-1239h176v-225h-471z" />
    <glyph glyph-name="bracketright.tabular" horiz-adv-x="659" 
d="M526 1550v-1689h-471v225h176v1239h-176v225h471z" />
    <glyph glyph-name="braceleft.tabular" horiz-adv-x="659" 
d="M6 596v250h103l38 39v467l201 198h275v-225h-107l-74 -74v-409l-118 -119l118 -119v-444l74 -74h107v-225h-275l-201 198v500l-36 37h-105z" />
    <glyph glyph-name="braceright.tabular" horiz-adv-x="659" 
d="M37 -139v225h106l74 74v444l119 119l-119 119v409l-74 74h-106v225h274l201 -198v-467l39 -39h102v-250h-104l-37 -37v-500l-201 -198h-274z" />
    <glyph glyph-name="zero.numerator" horiz-adv-x="839" 
d="M334 821h172l43 43v344l-43 43h-172l-43 -43v-344zM195 659l-123 121v512l123 121h450l121 -121v-512l-121 -121h-450z" />
    <glyph glyph-name="one.numerator" horiz-adv-x="677" 
d="M53 659v170h189v414h-185v170h404v-584h184v-170h-592z" />
    <glyph glyph-name="two.numerator" horiz-adv-x="813" 
d="M68 659v324l106 107h334l20 22v115l-26 28h-185l-28 -28v-58h-219v125l118 119h441l119 -119v-250l-107 -108h-332l-22 -23v-90h461v-164h-680z" />
    <glyph glyph-name="three.numerator" horiz-adv-x="815" 
d="M53 893h219v-51l29 -29h201l30 31v98l-24 25h-297v147h295l24 25v92l-28 31h-199l-29 -29v-51h-219v112l119 119h455l121 -119v-166l-86 -86l86 -88v-176l-119 -119h-459l-119 119v115z" />
    <glyph glyph-name="four.numerator" horiz-adv-x="827" 
d="M494 659v172h-463v125l157 457h207l-129 -418h228v418h217v-418h75v-164h-75v-172h-217z" />
    <glyph glyph-name="five.numerator" horiz-adv-x="827" 
d="M74 901h221v-61l29 -29h186l29 29v147l-29 27h-180l-39 -41h-215v440h663v-158h-444v-153l55 55h295l113 -113v-264l-119 -121h-446l-119 119v123z" />
    <glyph glyph-name="six.numerator" horiz-adv-x="837" 
d="M326 809h192l33 33v127l-31 32h-192l-35 -36v-123zM766 1192h-215v43l-31 31h-188l-39 -39v-156l57 57h314l106 -104v-244l-121 -121h-456l-121 121v512l123 121h452l119 -119v-102z" />
    <glyph glyph-name="seven.numerator" horiz-adv-x="733" 
d="M231 659v273l209 303h-415v178h684v-135l-258 -371v-248h-220z" />
    <glyph glyph-name="eight.numerator" horiz-adv-x="843" 
d="M313 1110h217l27 27v102l-31 31h-209l-30 -31v-102zM317 805h209l33 31v112l-27 27h-221l-26 -27v-112zM186 659l-118 119v176l88 90l-86 89v161l118 119h467l121 -119v-161l-88 -89l88 -90v-176l-119 -119h-471z" />
    <glyph glyph-name="nine.numerator" horiz-adv-x="835" 
d="M317 1077h191l37 37v117l-35 33h-191l-34 -33v-121zM72 889h215v-49l30 -31h189l39 39v158l-56 -58h-317l-104 107v239l118 119h459l119 -119v-514l-121 -121h-455l-116 119v111z" />
    <glyph glyph-name="zero.denominator" horiz-adv-x="839" 
d="M334 162h172l43 43v344l-43 43h-172l-43 -43v-344zM195 0l-123 121v512l123 121h450l121 -121v-512l-121 -121h-450z" />
    <glyph glyph-name="one.denominator" horiz-adv-x="677" 
d="M53 0v170h189v414h-185v170h404v-584h184v-170h-592z" />
    <glyph glyph-name="two.denominator" horiz-adv-x="813" 
d="M68 0v324l106 106h334l20 23v114l-26 29h-185l-28 -29v-57h-219v125l118 119h441l119 -119v-250l-107 -109h-332l-22 -22v-90h461v-164h-680z" />
    <glyph glyph-name="three.denominator" horiz-adv-x="815" 
d="M53 233h219v-51l29 -28h201l30 30v99l-24 24h-297v148h295l24 24v92l-28 31h-199l-29 -29v-51h-219v113l119 119h455l121 -119v-166l-86 -86l86 -88v-176l-119 -119h-459l-119 119v114z" />
    <glyph glyph-name="four.denominator" horiz-adv-x="827" 
d="M494 0v172h-463v125l157 457h207l-129 -418h228v418h217v-418h75v-164h-75v-172h-217z" />
    <glyph glyph-name="five.denominator" horiz-adv-x="827" 
d="M74 242h221v-62l29 -28h186l29 28v148l-29 26h-180l-39 -41h-215v441h663v-158h-444v-154l55 56h295l113 -113v-264l-119 -121h-446l-119 119v123z" />
    <glyph glyph-name="six.denominator" horiz-adv-x="837" 
d="M326 150h192l33 32v127l-31 33h-192l-35 -37v-123zM766 532h-215v43l-31 31h-188l-39 -39v-155l57 57h314l106 -104v-244l-121 -121h-456l-121 121v512l123 121h452l119 -119v-103z" />
    <glyph glyph-name="seven.denominator" horiz-adv-x="733" 
d="M231 0v272l209 303h-415v179h684v-136l-258 -370v-248h-220z" />
    <glyph glyph-name="eight.denominator" horiz-adv-x="843" 
d="M313 451h217l27 26v103l-31 30h-209l-30 -30v-103zM317 145h209l33 31v113l-27 26h-221l-26 -26v-113zM186 0l-118 119v176l88 90l-86 88v162l118 119h467l121 -119v-162l-88 -88l88 -90v-176l-119 -119h-471z" />
    <glyph glyph-name="nine.denominator" horiz-adv-x="835" 
d="M317 418h191l37 37v116l-35 33h-191l-34 -33v-120zM72 229h215v-49l30 -30h189l39 38v158l-56 -57h-317l-104 106v240l118 119h459l119 -119v-514l-121 -121h-455l-116 119v110z" />
    </font>
</defs>
</svg>
