<svg id="Layer_1" data-name="Layer 1" xmlns="http://www.w3.org/2000/svg" viewBox="0 0 85.23 26.4"><defs><style>.cls-1{fill:#fff;}</style></defs><title>Vector Smart Object</title><rect class="cls-1" x="1.83" y="1.66" width="81.94" height="23.05"/><polygon points="30.4 6.9 31.61 9.07 32.36 9.07 33.56 6.9 33.56 11.5 34.91 11.5 34.91 4.29 33.56 4.29 31.98 7.15 30.4 4.29 29.06 4.29 29.06 11.5 30.4 11.5 30.4 6.9"/><path d="M38,8.36C36.76,8.44,36.09,9,36.09,10a1.55,1.55,0,0,0,1.77,1.58,1.89,1.89,0,0,0,1.2-.41l0,0.35h1.23V8.14a1.82,1.82,0,0,0-2-1.83,2.09,2.09,0,0,0-2,1.36L37.33,8a1.15,1.15,0,0,1,.94-0.48,0.67,0.67,0,0,1,.75.74V8.29ZM39,10a1.25,1.25,0,0,1-1,.38c-0.56,0-.64-0.21-0.64-0.41A0.54,0.54,0,0,1,38,9.4l1-.06V10Z"/><path d="M43.58,11.56a1.75,1.75,0,0,0,1.09-.36v0.27a0.88,0.88,0,0,1-.94,1,1.19,1.19,0,0,1-1.06-.63l-1.13.29A2.28,2.28,0,0,0,46,11.47V6.37H44.73l0,0.35a1.54,1.54,0,0,0-1.1-.41c-1,0-2.26.7-2.26,2.62S42.58,11.56,43.58,11.56Zm0.06-4.07a1.11,1.11,0,0,1,1,1.22V9.35a1,1,0,0,1-1,1c-0.44,0-1-.24-1-1.44S43.21,7.49,43.64,7.49Z"/><polygon points="47.7 13.58 49.01 13.58 51.64 6.37 50.24 6.37 49.21 9.47 48.19 6.37 46.79 6.37 48.55 11.18 47.7 13.58"/><path d="M53.9,8.36C52.69,8.44,52,9,52,10a1.55,1.55,0,0,0,1.77,1.58,1.89,1.89,0,0,0,1.2-.41l0,0.35h1.23V8.14a1.82,1.82,0,0,0-2-1.83,2.09,2.09,0,0,0-2,1.36L53.25,8a1.15,1.15,0,0,1,.94-0.48,0.67,0.67,0,0,1,.75.74V8.29Zm1,1.63a1.25,1.25,0,0,1-1,.38c-0.56,0-.64-0.21-0.64-0.41a0.54,0.54,0,0,1,.61-0.57l1-.06V10Z"/><path d="M58.87,8.67a1,1,0,0,1,.94-1.06,1.75,1.75,0,0,1,.54.09l0.12-1.35a2.75,2.75,0,0,0-.48,0,1.53,1.53,0,0,0-1.16.51l0-.45H57.57V11.5h1.3V8.67Z"/><polygon points="30.4 18.6 30.81 18.15 33.15 21.23 34.76 21.23 31.67 17.19 34.49 14.03 32.8 14.03 30.4 16.74 30.4 14.03 29.06 14.03 29.06 21.23 30.4 21.23 30.4 18.6"/><polygon points="38.77 20.09 37.77 20.09 37.77 14.03 35.5 14.03 35.5 15.17 36.48 15.17 36.48 20.09 35.5 20.09 35.5 21.23 38.77 21.23 38.77 20.09"/><polygon points="41.8 16.1 39.52 16.1 39.52 17.25 40.5 17.25 40.5 20.09 39.52 20.09 39.52 21.23 42.79 21.23 42.79 20.09 41.8 20.09 41.8 16.1"/><circle cx="41.15" cy="14.79" r="0.82"/><path d="M44.93,16.1H43.7v7.21H45V20.93a1.75,1.75,0,0,0,1.09.36c1,0,2.23-.7,2.23-2.63S47.1,16,46.06,16a1.54,1.54,0,0,0-1.1.41ZM45,18.25a1,1,0,0,1,1-1c0.45,0,1,.24,1,1.44s-0.56,1.45-1,1.45a1.12,1.12,0,0,1-1-1.23V18.25Z"/><path d="M51.75,18.14L51.42,18c-0.55-.19-0.77-0.27-0.77-0.46a0.45,0.45,0,0,1,.52-0.33,0.77,0.77,0,0,1,.71.59L53,17.52A1.8,1.8,0,0,0,51.16,16a1.64,1.64,0,0,0-1.82,1.55,1.65,1.65,0,0,0,1.39,1.47L51.1,19.2c0.51,0.19.71,0.29,0.71,0.52a0.54,0.54,0,0,1-.65.39,1,1,0,0,1-1-.63l-1.13.29a1.94,1.94,0,0,0,2.05,1.52,1.74,1.74,0,0,0,2-1.61A1.66,1.66,0,0,0,51.75,18.14Z"/><polygon points="54.05 17.25 56.23 17.25 53.94 20.31 53.94 21.23 57.9 21.23 57.9 20.09 55.63 20.09 57.9 17.06 57.9 16.1 54.05 16.1 54.05 17.25"/><path d="M58.65,18.68A2.28,2.28,0,0,0,61,21.29a2.11,2.11,0,0,0,2.15-1.52L62,19.48a1.2,1.2,0,0,1-1,.63,1,1,0,0,1-1-1h3.3V18.67C63.29,16.74,62.11,16,61,16S58.65,16.74,58.65,18.68ZM61,17.23a0.91,0.91,0,0,1,.93.85H60A0.94,0.94,0,0,1,61,17.23Z"/><path d="M65.68,18.16c0.11-.76.47-0.93,0.75-0.93s0.74,0.18.74,1.06v2.95h1.3V18.16a0.86,0.86,0,0,1,.76-0.93c0.29,0,.74.18,0.74,1.06v2.95h1.3v-3A1.89,1.89,0,0,0,69.38,16a2.22,2.22,0,0,0-1.45.57A1.6,1.6,0,0,0,66.69,16a1.56,1.56,0,0,0-1.05.41l0-.35H64.38v5.13h1.3V18.16Z"/><polygon points="75.52 20.09 74.53 20.09 74.53 14.03 72.25 14.03 72.25 15.17 73.23 15.17 73.23 20.09 72.25 20.09 72.25 21.23 75.52 21.23 75.52 20.09"/><path d="M78.53,21.29a2.11,2.11,0,0,0,2.15-1.52l-1.13-.29a1.2,1.2,0,0,1-1,.63,1,1,0,0,1-1-1h3.3V18.67c0-1.93-1.17-2.63-2.32-2.63s-2.32.7-2.32,2.64A2.28,2.28,0,0,0,78.53,21.29Zm-0.05-4.07a0.91,0.91,0,0,1,.93.85H77.53A0.94,0.94,0,0,1,78.48,17.23Z"/><path d="M19.89,17a0.76,0.76,0,0,0,.77-0.77,0.77,0.77,0,1,0-1.54,0A0.76,0.76,0,0,0,19.89,17Z"/><path d="M26.47,0H0V26.4H85.23V0H26.47ZM24.06,24H2.41V2.41H24.06V24Zm58.77,0H26.47V2.41H82.82V24Z"/><path d="M10,9.78a2.79,2.79,0,0,1,.81.12,2.4,2.4,0,0,1,.75.39,2.7,2.7,0,0,1,.63.68,3.49,3.49,0,0,1,.43,1,6.18,6.18,0,0,1,0,2.81,3.49,3.49,0,0,1-.43,1,2.7,2.7,0,0,1-.63.68,2.39,2.39,0,0,1-.75.39,2.88,2.88,0,0,1-1.63,0,2.39,2.39,0,0,1-.75-0.39,2.66,2.66,0,0,1-.63-0.68,3.49,3.49,0,0,1-.42-1,6.27,6.27,0,0,1,0-2.81,3.49,3.49,0,0,1,.42-1,2.66,2.66,0,0,1,.63-0.68A2.39,2.39,0,0,1,9.15,9.9,2.81,2.81,0,0,1,10,9.78Zm-1.34,4.7,2.07-3.27A1.11,1.11,0,0,0,10,11a1.4,1.4,0,0,0-.4.06,1.09,1.09,0,0,0-.38.22,1.37,1.37,0,0,0-.33.42,2.63,2.63,0,0,0-.22.7,5.4,5.4,0,0,0-.09,1A6.14,6.14,0,0,0,8.62,14.48Zm0.7,1.19a1.19,1.19,0,0,0,.64.16,1.36,1.36,0,0,0,.4-0.06,1.1,1.1,0,0,0,.38-0.22,1.42,1.42,0,0,0,.33-0.42,2.53,2.53,0,0,0,.23-0.7,6,6,0,0,0,0-1.93Z"/><path d="M13.45,17V15.88L16,13.17a3.19,3.19,0,0,0,.48-0.63,1.23,1.23,0,0,0,.14-0.59,1.07,1.07,0,0,0-.21-0.69A0.74,0.74,0,0,0,15.81,11a0.8,0.8,0,0,0-.7.37,1.8,1.8,0,0,0-.25,1H13.52a2.74,2.74,0,0,1,.63-1.92,2.15,2.15,0,0,1,1.66-.68,2.15,2.15,0,0,1,1.58.58A2.09,2.09,0,0,1,18,11.92a2.64,2.64,0,0,1-.08.65,1.94,1.94,0,0,1-.24.55,4,4,0,0,1-.3.42L17,14l0,0,0,0,0,0L15.4,15.7h2.72V17H13.45Z"/></svg>