<?xml version="1.0" encoding="UTF-8"?><svg xmlns="http://www.w3.org/2000/svg" viewBox="0 0 133.53 41.93"><g id="a"/><g id="b"><g id="c"><g><g><polygon points="47.73 11.13 49.66 14.61 50.86 14.61 52.79 11.13 52.79 18.5 54.94 18.5 54.94 6.97 52.79 6.97 50.26 11.53 47.73 6.97 45.58 6.97 45.58 18.5 47.73 18.5 47.73 11.13" style="fill:#fff;"/><path d="M59.45,13.48c-2.02,.13-3.03,1-3.03,2.59,0,.84,.26,1.47,.79,1.89,.53,.42,1.21,.63,2.04,.63,.71,0,1.35-.22,1.93-.66l.03,.57h1.98v-5.38c0-.85-.29-1.55-.87-2.1-.58-.55-1.36-.83-2.34-.83-.77,0-1.47,.2-2.07,.61-.61,.41-1.01,.93-1.2,1.57l1.71,.48c.37-.51,.87-.76,1.5-.76,.38,0,.68,.1,.89,.3,.21,.2,.31,.49,.31,.87v.1l-1.67,.11Zm1.67,2.61c-.39,.41-.92,.62-1.59,.62-.4,0-.67-.06-.81-.18-.14-.12-.21-.28-.21-.48,0-.57,.32-.88,.97-.91l1.64-.09v1.05Z" style="fill:#fff;"/><path d="M65.24,17.21c.23,.31,.51,.58,.83,.79,.32,.21,.64,.37,.96,.46,.32,.09,.65,.14,.99,.14,.64,0,1.23-.19,1.75-.58v.43c0,.49-.13,.88-.4,1.15-.26,.28-.63,.42-1.11,.42-.73,0-1.3-.33-1.7-1l-1.82,.47c.23,.76,.65,1.36,1.26,1.79,.61,.43,1.35,.64,2.23,.64,1.09,0,1.96-.32,2.62-.97,.66-.65,.99-1.48,.99-2.49V10.29h-1.97l-.03,.56c-.49-.44-1.08-.66-1.77-.66-.35,0-.69,.05-1.02,.14-.33,.09-.65,.25-.97,.46-.32,.21-.6,.48-.83,.79-.23,.31-.42,.71-.57,1.2-.14,.49-.22,1.02-.22,1.61s.07,1.14,.22,1.62c.14,.49,.33,.88,.57,1.2Zm1.44-3.97c.09-.32,.23-.56,.39-.72,.17-.16,.33-.27,.5-.33,.17-.06,.34-.1,.53-.1s.37,.03,.53,.1c.17,.06,.33,.16,.48,.3,.16,.14,.29,.34,.4,.61,.11,.27,.19,.58,.24,.95v1c-.05,.31-.13,.58-.24,.8-.11,.22-.25,.4-.41,.51-.16,.12-.32,.2-.48,.26-.16,.05-.34,.08-.52,.08-.2,0-.38-.03-.54-.1-.17-.06-.33-.17-.49-.33-.16-.16-.29-.4-.39-.72s-.14-.71-.14-1.16,.05-.85,.14-1.17Z" style="fill:#fff;"/><polygon points="74.18 21.82 76.29 21.82 80.5 10.29 78.26 10.29 76.62 15.24 74.98 10.29 72.74 10.29 75.54 17.98 74.18 21.82" style="fill:#fff;"/><path d="M83.7,13.48c-2.02,.13-3.03,1-3.03,2.59,0,.84,.26,1.47,.79,1.89,.53,.42,1.21,.63,2.04,.63,.71,0,1.35-.22,1.93-.66l.03,.57h1.98v-5.38c0-.85-.29-1.55-.87-2.1-.58-.55-1.36-.83-2.34-.83-.77,0-1.47,.2-2.07,.61-.61,.41-1.01,.93-1.2,1.57l1.71,.48c.37-.51,.87-.76,1.5-.76,.38,0,.68,.1,.89,.3,.21,.2,.31,.49,.31,.87v.1l-1.67,.11Zm1.67,2.61c-.39,.41-.92,.62-1.59,.62-.4,0-.67-.06-.81-.18-.14-.12-.21-.28-.21-.48,0-.57,.32-.88,.97-.91l1.64-.09v1.05Z" style="fill:#fff;"/><path d="M91.26,13.97c.17-1.13,.67-1.7,1.51-1.7,.3,0,.58,.05,.85,.14l.2-2.15c-.25-.05-.5-.07-.76-.07-.72,0-1.34,.27-1.87,.81l-.03-.71h-1.98v8.21h2.07v-4.53Z" style="fill:#fff;"/><polygon points="47.73 34.32 47.73 30.11 48.38 29.37 52.12 34.32 54.7 34.32 49.76 27.84 54.28 22.79 51.58 22.79 47.73 27.13 47.73 22.79 45.58 22.79 45.58 34.32 47.73 34.32" style="fill:#fff;"/><polygon points="60.69 32.49 59.1 32.49 59.1 22.79 55.47 22.79 55.47 24.61 57.03 24.61 57.03 32.49 55.47 32.49 55.47 34.32 60.69 34.32 60.69 32.49" style="fill:#fff;"/><polygon points="65.12 26.11 61.49 26.11 61.49 27.93 63.05 27.93 63.05 32.49 61.49 32.49 61.49 34.32 66.71 34.32 66.71 32.49 65.12 32.49 65.12 26.11" style="fill:#fff;"/><path d="M62.78,24c0,.36,.13,.67,.38,.93,.26,.25,.57,.38,.93,.38s.67-.13,.93-.38c.26-.26,.38-.57,.38-.93s-.13-.67-.38-.93c-.26-.25-.57-.38-.93-.38s-.67,.13-.93,.38c-.26,.25-.38,.56-.38,.93Z" style="fill:#fff;"/><path d="M69.8,26.67l-.03-.56h-1.98v11.53h2.07v-3.8c.52,.39,1.1,.58,1.75,.58,.34,0,.67-.05,.99-.14,.32-.09,.64-.25,.96-.46,.31-.21,.59-.48,.83-.79,.24-.31,.43-.71,.57-1.2,.14-.49,.22-1.03,.22-1.62s-.07-1.13-.22-1.61c-.14-.48-.34-.88-.57-1.2-.24-.31-.51-.58-.83-.79-.32-.21-.64-.37-.97-.46-.33-.09-.67-.14-1.02-.14-.69,0-1.27,.22-1.76,.66Zm2.76,1.66c.17,.16,.3,.4,.39,.72,.09,.32,.14,.71,.14,1.16,0,.37-.03,.7-.1,.98-.07,.28-.15,.51-.25,.67-.1,.16-.23,.3-.37,.4-.15,.11-.28,.18-.42,.21-.13,.03-.27,.05-.42,.05-.4,0-.76-.15-1.07-.45-.31-.3-.51-.81-.6-1.53v-1c.05-.31,.13-.57,.24-.79,.11-.22,.25-.39,.4-.51,.16-.12,.31-.2,.47-.26,.16-.05,.33-.08,.52-.08,.2,0,.38,.03,.55,.1,.17,.06,.34,.17,.5,.33Z" style="fill:#fff;"/><path d="M82.06,30.48c-.13-.17-.29-.32-.49-.47-.2-.14-.4-.27-.6-.36-.21-.1-.45-.2-.72-.3l-.53-.19c-.5-.17-.82-.3-.99-.39-.16-.09-.25-.2-.25-.34,0-.15,.08-.28,.25-.38,.16-.1,.36-.15,.58-.15,.48,0,.86,.31,1.13,.94l1.81-.47c-.21-.78-.56-1.37-1.07-1.77-.51-.4-1.13-.6-1.87-.6-.84,0-1.53,.23-2.09,.69-.55,.46-.83,1.06-.83,1.79,0,.28,.05,.54,.14,.77,.1,.23,.21,.42,.34,.57,.13,.15,.3,.3,.53,.43,.22,.14,.41,.25,.58,.32,.16,.07,.37,.16,.63,.26l.6,.22c.44,.17,.74,.31,.9,.42,.16,.11,.24,.25,.24,.42,0,.2-.1,.36-.29,.47-.2,.11-.44,.17-.74,.17-.69,0-1.19-.33-1.53-1l-1.81,.47c.45,1.62,1.55,2.43,3.28,2.43,.6,0,1.13-.09,1.61-.28,.48-.18,.87-.47,1.17-.87,.3-.4,.45-.87,.45-1.42,0-.28-.04-.53-.11-.76-.08-.23-.18-.43-.31-.59Z" style="fill:#fff;"/><polygon points="83.52 27.93 87 27.93 83.34 32.84 83.34 34.32 89.67 34.32 89.67 32.49 86.05 32.49 89.67 27.64 89.67 26.11 83.52 26.11 83.52 27.93" style="fill:#fff;"/><path d="M92.09,26.6c-.32,.21-.6,.48-.84,.8-.23,.32-.42,.72-.57,1.21-.14,.49-.21,1.03-.21,1.63,0,.74,.1,1.38,.31,1.94,.21,.55,.49,.99,.85,1.3,.36,.32,.76,.55,1.2,.7,.44,.15,.91,.23,1.42,.23,.83,0,1.56-.21,2.18-.64,.62-.42,1.04-1.02,1.25-1.79l-1.81-.47c-.4,.67-.96,1-1.67,1-.93,0-1.46-.54-1.61-1.61h5.28v-.7c0-.6-.07-1.14-.21-1.62-.14-.48-.33-.89-.57-1.2-.23-.32-.51-.58-.83-.79s-.66-.37-1-.46c-.35-.09-.71-.14-1.09-.14s-.74,.05-1.09,.14c-.35,.09-.68,.25-1,.46Zm2.09,1.3c.79,0,1.29,.45,1.49,1.36h-3.01c.22-.91,.72-1.36,1.53-1.36Z" style="fill:#fff;"/><path d="M101.34,29.39c.08-.55,.24-.94,.46-1.16,.22-.22,.47-.33,.74-.33,.13,0,.26,.02,.38,.07,.12,.05,.25,.13,.38,.25,.13,.12,.23,.29,.3,.53,.08,.24,.11,.52,.11,.85v4.71h2.07v-4.93c.16-.99,.57-1.49,1.21-1.49,.13,0,.26,.02,.39,.07,.12,.05,.25,.13,.38,.25,.13,.12,.23,.29,.31,.53,.08,.24,.12,.52,.12,.85v4.71h2.07v-4.84c0-.5-.06-.95-.18-1.35-.12-.4-.28-.73-.47-.99-.2-.26-.43-.47-.69-.65-.27-.17-.54-.3-.81-.37-.27-.07-.55-.11-.84-.11-.83,0-1.61,.3-2.32,.91-.52-.61-1.18-.91-1.99-.91-.58,0-1.15,.22-1.68,.66l-.03-.56h-1.98v8.21h2.07v-4.93Z" style="fill:#fff;"/><polygon points="116.64 32.49 115.05 32.49 115.05 22.79 111.41 22.79 111.41 24.61 112.98 24.61 112.98 32.49 111.41 32.49 111.41 34.32 116.64 34.32 116.64 32.49" style="fill:#fff;"/><path d="M118.43,33.48c.36,.32,.76,.55,1.2,.7,.44,.15,.91,.23,1.42,.23,.83,0,1.56-.21,2.18-.64,.62-.42,1.04-1.02,1.25-1.79l-1.81-.47c-.4,.67-.96,1-1.67,1-.93,0-1.46-.54-1.61-1.61h5.28v-.7c0-.6-.07-1.14-.21-1.62-.14-.48-.33-.89-.57-1.2-.23-.32-.51-.58-.83-.79-.32-.21-.66-.37-1-.46-.35-.09-.71-.14-1.09-.14s-.74,.05-1.09,.14c-.35,.09-.68,.25-1,.46-.32,.21-.6,.48-.84,.8-.23,.32-.42,.72-.57,1.21-.14,.49-.21,1.03-.21,1.63,0,.74,.1,1.38,.31,1.94,.21,.55,.49,.99,.85,1.3Zm2.54-5.57c.79,0,1.29,.45,1.49,1.36h-3.01c.22-.91,.72-1.36,1.53-1.36Z" style="fill:#fff;"/><path d="M129.52,0H0V41.93H133.53V0h-4.01ZM4.01,4.01H37.4V37.92H4.01V4.01Zm125.5,33.9H41.41V4.01h88.1V37.92Z" style="fill:#fff;"/></g><g><path d="M15.06,15.16c.46,0,.9,.06,1.33,.19,.42,.13,.83,.34,1.23,.64s.74,.67,1.03,1.12c.29,.45,.52,1.01,.7,1.69,.18,.68,.26,1.45,.26,2.29s-.09,1.61-.26,2.29c-.18,.68-.41,1.24-.7,1.69s-.63,.82-1.03,1.12c-.4,.3-.8,.51-1.23,.64-.42,.13-.87,.19-1.33,.19s-.91-.06-1.33-.19c-.42-.13-.83-.34-1.23-.64s-.74-.67-1.03-1.12-.52-1.01-.69-1.69c-.17-.68-.26-1.45-.26-2.29s.09-1.61,.26-2.29c.17-.68,.4-1.24,.69-1.69,.29-.45,.63-.82,1.03-1.12,.4-.3,.8-.51,1.23-.64,.42-.13,.87-.19,1.33-.19Zm-2.19,7.67l3.38-5.34c-.28-.23-.67-.34-1.19-.34-.23,0-.46,.03-.66,.09s-.41,.18-.62,.36c-.21,.18-.39,.41-.54,.69-.15,.29-.27,.67-.36,1.15-.09,.48-.14,1.04-.14,1.67s.04,1.21,.14,1.72Zm1.15,1.94c.27,.17,.62,.26,1.05,.26,.23,0,.45-.03,.65-.09s.41-.18,.62-.36c.21-.18,.39-.4,.54-.68,.15-.28,.28-.66,.37-1.14,.1-.48,.14-1.03,.14-1.66,0-.58-.04-1.08-.11-1.49l-3.27,5.17Z" style="fill:#fff;"/><path d="M20.92,23.26c0-1.19,.37-2.37,1.11-3.52l2.83-4.48h2.61l-2.64,4.03c1.16,0,2.09,.34,2.77,1.01,.68,.68,1.02,1.63,1.02,2.86s-.34,2.17-1.02,2.85c-.68,.68-1.6,1.02-2.77,1.02s-2.12-.34-2.84-1.01c-.72-.68-1.08-1.59-1.08-2.74Zm2.21-.1c0,.6,.15,1.06,.44,1.38,.29,.32,.7,.48,1.24,.48s.94-.16,1.21-.48c.27-.32,.4-.78,.4-1.38s-.14-1.06-.41-1.39c-.27-.33-.67-.5-1.2-.5s-.95,.16-1.24,.49c-.29,.33-.44,.79-.44,1.4Z" style="fill:#fff;"/><path d="M30.08,25.71c0-.35,.12-.64,.36-.89,.24-.25,.53-.37,.89-.37s.63,.12,.88,.37c.24,.25,.37,.54,.37,.89s-.12,.65-.36,.89c-.24,.24-.54,.36-.88,.36s-.65-.12-.89-.36-.36-.54-.36-.89Z" style="fill:#fff;"/></g></g></g></g></svg>