<?xml version="1.0" encoding="UTF-8"?><svg xmlns="http://www.w3.org/2000/svg" viewBox="0 0 77.76 24.42"><g id="a"/><g id="b"><g id="c"><g><g><polygon points="27.8 6.48 28.92 8.51 29.62 8.51 30.74 6.48 30.74 10.77 32 10.77 32 4.06 30.74 4.06 29.27 6.72 27.8 4.06 26.54 4.06 26.54 10.77 27.8 10.77 27.8 6.48"/><path d="M34.62,7.85c-1.18,.08-1.76,.58-1.76,1.51,0,.49,.15,.86,.46,1.1,.31,.24,.7,.37,1.19,.37,.41,0,.79-.13,1.12-.39l.02,.33h1.15v-3.13c0-.49-.17-.9-.5-1.22-.34-.32-.79-.48-1.37-.48-.45,0-.85,.12-1.21,.35-.35,.24-.59,.54-.7,.91l.99,.28c.22-.29,.51-.44,.87-.44,.22,0,.4,.06,.52,.18,.12,.12,.18,.29,.18,.51v.06l-.97,.06Zm.97,1.52c-.23,.24-.54,.36-.93,.36-.23,0-.39-.04-.47-.11-.08-.07-.12-.16-.12-.28,0-.33,.19-.51,.57-.53l.95-.06v.61Z"/><path d="M37.99,10.02c.14,.18,.3,.34,.48,.46,.18,.12,.37,.21,.56,.27,.19,.05,.38,.08,.58,.08,.37,0,.71-.11,1.02-.34v.25c0,.29-.08,.51-.23,.67-.15,.16-.37,.24-.64,.24-.43,0-.76-.19-.99-.58l-1.06,.27c.13,.44,.38,.79,.73,1.04,.36,.25,.79,.37,1.3,.37,.63,0,1.14-.19,1.53-.56,.38-.38,.57-.86,.57-1.45V5.99h-1.15l-.02,.33c-.29-.26-.63-.39-1.03-.39-.2,0-.4,.03-.59,.08-.19,.05-.38,.14-.57,.27-.19,.12-.35,.28-.48,.46-.14,.18-.25,.42-.33,.7-.08,.28-.13,.6-.13,.94s.04,.66,.13,.94c.08,.28,.19,.51,.33,.7Zm.84-2.31c.06-.19,.13-.33,.23-.42,.1-.09,.19-.16,.29-.19,.1-.04,.2-.06,.31-.06s.21,.02,.31,.06c.1,.04,.19,.1,.28,.18,.09,.08,.17,.2,.23,.35,.06,.16,.11,.34,.14,.55v.58c-.03,.18-.07,.34-.14,.47-.07,.13-.14,.23-.24,.3-.09,.07-.19,.12-.28,.15-.1,.03-.2,.05-.3,.05-.11,0-.22-.02-.32-.06-.1-.04-.19-.1-.29-.19-.1-.09-.17-.23-.23-.42s-.08-.41-.08-.67,.03-.49,.08-.68Z"/><polygon points="43.2 12.71 44.43 12.71 46.88 5.99 45.57 5.99 44.62 8.87 43.66 5.99 42.36 5.99 43.99 10.47 43.2 12.71"/><path d="M48.74,7.85c-1.18,.08-1.76,.58-1.76,1.51,0,.49,.15,.86,.46,1.1,.31,.24,.7,.37,1.19,.37,.41,0,.79-.13,1.12-.39l.02,.33h1.15v-3.13c0-.49-.17-.9-.5-1.22-.34-.32-.79-.48-1.37-.48-.45,0-.85,.12-1.21,.35-.35,.24-.59,.54-.7,.91l.99,.28c.22-.29,.51-.44,.87-.44,.22,0,.4,.06,.52,.18,.12,.12,.18,.29,.18,.51v.06l-.97,.06Zm.97,1.52c-.23,.24-.54,.36-.93,.36-.23,0-.39-.04-.47-.11-.08-.07-.12-.16-.12-.28,0-.33,.19-.51,.57-.53l.95-.06v.61Z"/><path d="M53.15,8.13c.1-.66,.39-.99,.88-.99,.17,0,.34,.03,.5,.08l.12-1.25c-.14-.03-.29-.04-.44-.04-.42,0-.78,.16-1.09,.47l-.02-.41h-1.15v4.78h1.21v-2.64Z"/><polygon points="27.8 19.98 27.8 17.53 28.17 17.1 30.35 19.98 31.85 19.98 28.98 16.21 31.61 13.27 30.03 13.27 27.8 15.8 27.8 13.27 26.54 13.27 26.54 19.98 27.8 19.98"/><polygon points="35.34 18.92 34.42 18.92 34.42 13.27 32.3 13.27 32.3 14.33 33.21 14.33 33.21 18.92 32.3 18.92 32.3 19.98 35.34 19.98 35.34 18.92"/><polygon points="37.92 15.2 35.81 15.2 35.81 16.27 36.72 16.27 36.72 18.92 35.81 18.92 35.81 19.98 38.85 19.98 38.85 18.92 37.92 18.92 37.92 15.2"/><path d="M36.56,13.97c0,.21,.07,.39,.22,.54,.15,.15,.33,.22,.54,.22s.39-.07,.54-.22c.15-.15,.22-.33,.22-.54s-.07-.39-.22-.54c-.15-.15-.33-.22-.54-.22s-.39,.07-.54,.22c-.15,.15-.22,.33-.22,.54Z"/><path d="M40.65,15.53l-.02-.33h-1.15v6.71h1.21v-2.21c.3,.22,.64,.34,1.02,.34,.2,0,.39-.03,.58-.08,.19-.05,.37-.14,.56-.27,.18-.12,.34-.28,.48-.46,.14-.18,.25-.42,.33-.7,.08-.28,.13-.6,.13-.94s-.04-.66-.13-.94c-.08-.28-.2-.51-.33-.7-.14-.18-.3-.34-.48-.46-.18-.12-.37-.21-.57-.27-.19-.05-.39-.08-.59-.08-.4,0-.74,.13-1.03,.39Zm1.6,.97c.1,.09,.17,.23,.23,.42,.06,.19,.08,.41,.08,.67,0,.21-.02,.41-.06,.57-.04,.17-.09,.3-.15,.39-.06,.1-.13,.17-.22,.23-.08,.06-.17,.1-.24,.12-.08,.02-.16,.03-.24,.03-.23,0-.44-.09-.62-.26-.18-.18-.3-.47-.35-.89v-.58c.03-.18,.07-.33,.14-.46,.07-.13,.14-.23,.23-.3,.09-.07,.18-.12,.28-.15,.09-.03,.19-.05,.3-.05,.12,0,.22,.02,.32,.06,.1,.04,.2,.1,.29,.19Z"/><path d="M47.79,17.75c-.08-.1-.17-.19-.29-.27-.12-.08-.23-.15-.35-.21-.12-.06-.26-.11-.42-.17l-.31-.11c-.29-.1-.48-.18-.58-.23-.1-.05-.14-.12-.14-.2,0-.09,.05-.16,.14-.22,.1-.06,.21-.09,.34-.09,.28,0,.5,.18,.66,.55l1.05-.28c-.12-.45-.33-.8-.62-1.03-.29-.23-.66-.35-1.09-.35-.49,0-.89,.13-1.22,.4-.32,.27-.48,.62-.48,1.04,0,.16,.03,.31,.08,.45,.06,.14,.12,.25,.2,.33,.08,.09,.18,.17,.31,.25,.13,.08,.24,.14,.34,.18,.1,.04,.22,.09,.37,.15l.35,.13c.25,.1,.43,.18,.52,.24,.09,.06,.14,.14,.14,.24,0,.12-.06,.21-.17,.27-.11,.06-.26,.1-.43,.1-.4,0-.7-.19-.89-.58l-1.05,.27c.26,.94,.9,1.41,1.91,1.41,.35,0,.66-.05,.94-.16,.28-.11,.51-.28,.68-.51,.17-.23,.26-.51,.26-.83,0-.16-.02-.31-.07-.44-.04-.13-.1-.25-.18-.35Z"/><polygon points="48.63 16.27 50.66 16.27 48.53 19.13 48.53 19.98 52.22 19.98 52.22 18.92 50.11 18.92 52.22 16.1 52.22 15.2 48.63 15.2 48.63 16.27"/><path d="M53.63,15.49c-.19,.12-.35,.28-.49,.47-.14,.19-.25,.42-.33,.7-.08,.28-.12,.6-.12,.95,0,.43,.06,.81,.18,1.13,.12,.32,.29,.58,.5,.76,.21,.18,.44,.32,.7,.41,.25,.09,.53,.13,.83,.13,.49,0,.91-.12,1.27-.37,.36-.25,.6-.59,.73-1.04l-1.05-.27c-.23,.39-.56,.58-.97,.58-.54,0-.85-.31-.93-.93h3.08v-.41c0-.35-.04-.66-.12-.94-.08-.28-.19-.52-.33-.7-.14-.18-.3-.34-.49-.46s-.38-.21-.58-.27c-.2-.05-.41-.08-.64-.08s-.43,.03-.63,.08c-.2,.05-.4,.14-.58,.27Zm1.22,.76c.46,0,.75,.26,.87,.79h-1.75c.13-.53,.42-.79,.89-.79Z"/><path d="M59.01,17.11c.05-.32,.14-.55,.27-.67,.13-.13,.27-.19,.43-.19,.08,0,.15,.01,.22,.04,.07,.03,.15,.08,.22,.14,.07,.07,.13,.17,.18,.31,.04,.14,.07,.3,.07,.5v2.74h1.21v-2.87c.1-.58,.33-.87,.71-.87,.08,0,.15,.01,.22,.04,.07,.03,.15,.08,.22,.14,.08,.07,.14,.17,.18,.31,.04,.14,.07,.3,.07,.5v2.74h1.21v-2.82c0-.29-.04-.55-.11-.79-.07-.23-.16-.43-.28-.58-.11-.15-.25-.28-.4-.38-.16-.1-.31-.17-.47-.22-.16-.04-.32-.06-.49-.06-.49,0-.93,.18-1.35,.53-.3-.35-.69-.53-1.16-.53-.34,0-.67,.13-.98,.39l-.02-.33h-1.15v4.78h1.21v-2.87Z"/><polygon points="67.92 18.92 67 18.92 67 13.27 64.88 13.27 64.88 14.33 65.79 14.33 65.79 18.92 64.88 18.92 64.88 19.98 67.92 19.98 67.92 18.92"/><path d="M68.96,19.49c.21,.18,.44,.32,.7,.41,.25,.09,.53,.13,.83,.13,.49,0,.91-.12,1.27-.37,.36-.25,.6-.59,.73-1.04l-1.05-.27c-.23,.39-.56,.58-.97,.58-.54,0-.85-.31-.93-.93h3.08v-.41c0-.35-.04-.66-.12-.94-.08-.28-.19-.52-.33-.7-.14-.18-.3-.34-.49-.46-.19-.12-.38-.21-.58-.27-.2-.05-.41-.08-.64-.08s-.43,.03-.63,.08c-.2,.05-.4,.14-.58,.27-.19,.12-.35,.28-.49,.47-.14,.19-.25,.42-.33,.7-.08,.28-.12,.6-.12,.95,0,.43,.06,.81,.18,1.13,.12,.32,.29,.58,.5,.76Zm1.48-3.25c.46,0,.75,.26,.87,.79h-1.75c.13-.53,.42-.79,.89-.79Z"/><path d="M75.42,0H0V24.42H77.76V0h-2.34ZM2.34,2.34H21.78V22.08H2.34V2.34ZM75.42,22.08H24.12V2.34h51.31V22.08Z"/></g><g><path d="M8.77,8.83c.27,0,.52,.04,.77,.11,.25,.07,.49,.2,.72,.37s.43,.39,.6,.65c.17,.26,.31,.59,.41,.98,.1,.4,.15,.84,.15,1.34s-.05,.94-.15,1.34c-.1,.4-.24,.72-.41,.98s-.37,.48-.6,.65-.47,.3-.72,.37c-.25,.07-.5,.11-.77,.11s-.53-.04-.78-.11c-.25-.07-.49-.2-.72-.37s-.43-.39-.6-.65-.3-.59-.4-.98c-.1-.4-.15-.84-.15-1.34s.05-.94,.15-1.34c.1-.4,.24-.72,.4-.98,.17-.26,.37-.48,.6-.65s.47-.3,.72-.37c.25-.07,.51-.11,.78-.11Zm-1.28,4.47l1.97-3.11c-.16-.13-.39-.2-.69-.2-.14,0-.27,.02-.38,.05s-.24,.11-.36,.21c-.12,.1-.23,.24-.31,.4-.09,.17-.16,.39-.21,.67-.05,.28-.08,.6-.08,.97s.03,.7,.08,1Zm.67,1.13c.16,.1,.36,.15,.61,.15,.13,0,.26-.02,.38-.05s.24-.1,.36-.21c.12-.1,.23-.24,.32-.4,.09-.16,.16-.38,.22-.66,.06-.28,.08-.6,.08-.97,0-.34-.02-.63-.07-.87l-1.9,3.01Z"/><path d="M12.18,13.55c0-.69,.22-1.38,.65-2.05l1.65-2.61h1.52l-1.54,2.35c.68,0,1.21,.2,1.61,.59,.4,.39,.59,.95,.59,1.66s-.2,1.26-.59,1.66c-.39,.39-.93,.59-1.61,.59s-1.24-.2-1.65-.59-.63-.93-.63-1.6Zm1.29-.06c0,.35,.08,.62,.25,.8s.41,.28,.72,.28,.54-.09,.7-.28c.16-.19,.24-.46,.24-.8s-.08-.62-.24-.81c-.16-.19-.39-.29-.7-.29s-.55,.1-.72,.29c-.17,.19-.25,.46-.25,.81Z"/><path d="M17.52,14.97c0-.2,.07-.37,.21-.52,.14-.14,.31-.21,.52-.21s.37,.07,.51,.21c.14,.14,.21,.32,.21,.52s-.07,.38-.21,.52c-.14,.14-.31,.21-.51,.21s-.38-.07-.52-.21-.21-.31-.21-.52Z"/></g></g></g></g></svg>