<?xml version="1.0" encoding="UTF-8"?><svg xmlns="http://www.w3.org/2000/svg" viewBox="0 0 103.7 10.55"><g id="a"/><g id="b"><g id="c"><g><g><polygon points="5.62 0 0 0 0 10.55 4.24 10.55 6.58 3.52 5.62 0"/><polygon points="8.42 0 6.08 7.03 7.04 10.55 12.66 10.55 12.66 0 8.42 0"/></g><g><path d="M24.29,2.21v7.15h-1.06v-3.21h-3.54v3.21h-1.06V2.21h1.06v3h3.54V2.21h1.06Z"/><path d="M35,7.55h-3.03l-.68,1.82h-1.09l2.81-7.15h.98l2.81,7.15h-1.1l-.68-1.82Zm-.35-.93l-1.16-3.07-1.16,3.07h2.33Z"/><path d="M43,8.42c.48,0,.68-.34,.68-.99V2.21h1.06V7.46c0,1.26-.58,1.9-1.61,1.9h-.97v-.94h.84Z"/><path d="M50.82,5.79c0-2.1,1.51-3.66,3.55-3.66s3.54,1.55,3.54,3.66-1.51,3.66-3.54,3.66-3.55-1.55-3.55-3.66Zm6.02,0c0-1.56-1.04-2.72-2.46-2.72s-2.47,1.15-2.47,2.72,1.05,2.72,2.47,2.72,2.46-1.15,2.46-2.72ZM54.78,.14h1.1l-1.05,1.51h-.89l.84-1.51Z"/><path d="M63.84,5.79c0-2.44,1.7-3.66,3.5-3.66,1.69,0,2.97,1,3.12,2.41h-1.1c-.14-.87-.96-1.47-2.01-1.47-1.41,0-2.44,.97-2.44,2.72s1.03,2.75,2.43,2.75c1.09,0,2.08-.65,2.08-1.58,0-.28-.18-.47-.48-.47h-1.55v-.86h1.82c.56,0,1.24,.44,1.24,1.21v2.53h-.96v-1.21c-.31,.77-1.16,1.29-2.18,1.29-1.79,0-3.46-1.22-3.46-3.66Z"/><path d="M78.23,6.38l-2.5-4.17h1.18l1.85,3.16,1.86-3.16h1.18l-2.51,4.17v2.98h-1.06v-2.98Z"/><path d="M90.93,7.55h-3.03l-.68,1.82h-1.09l2.81-7.15h.98l2.81,7.15h-1.1l-.68-1.82Zm-.35-.93l-1.16-3.07-1.16,3.07h2.33Zm-.71-4.96h-.89l.84-1.51h1.1l-1.05,1.51Z"/><path d="M103.55,7.54l.14,1.83h-1.03l-.14-1.74c-.05-.63-.47-1.08-1.08-1.08h-1.79v2.82h-1.06V2.21h2.8c1.44,0,2.32,.87,2.32,2.14,0,.77-.42,1.3-1.05,1.61,.52,.31,.86,.87,.9,1.56Zm-3.9-1.93h1.71c.93,0,1.29-.6,1.29-1.25s-.36-1.23-1.29-1.23h-1.71v2.47Z"/></g></g></g></g></svg>