<?xml version="1.0" standalone="no"?>
<!DOCTYPE svg PUBLIC "-//W3C//DTD SVG 1.1//EN" "http://www.w3.org/Graphics/SVG/1.1/DTD/svg11.dtd" >
<svg xmlns="http://www.w3.org/2000/svg">
<metadata>
Created by FontPrep 20130207 at Tue Aug 11 22:14:43 2015
 By Pixeloid
Copyright (c) 2013 by Svenska Institutet. All rights reserved.
</metadata>
<defs>
<font id="5dcda7413c7b35dea6326d312653c7a3" horiz-adv-x='1024' >
  <font-face 
    font-family="SwedenSans-Bold"
    font-weight="410"
    font-stretch="normal"
    units-per-em="2048"
    panose-1="2 0 0 0 0 0 0 0 0 0"
    ascent="1536"
    descent="-512"
    x-height="1038"
    cap-height="1458"
    bbox="-119 -512 1997 2017"
    underline-thickness="102"
    underline-position="-102"
    unicode-range="U+000D-FB04"
  />
<missing-glyph horiz-adv-x="748" 
d="M136 68h408v1229h-408v-1229zM68 0v1365h544v-1365h-544z" />
    <glyph glyph-name="uniFB01" unicode="fi" horiz-adv-x="1261" 
d="M723 1305q0 69 48.5 117t117.5 48t117.5 -48t48.5 -117t-48.5 -117.5t-117.5 -48.5t-118 48q-48 49 -48 118zM63 807v231h107v54q0 166 85 272t284 106h94v-239h-94q-107 0 -107 -139v-54h588v-807h201v-231h-621v231h158v576h-326v-807h-262v807h-107z" />
    <glyph glyph-name="uniFB02" unicode="fl" horiz-adv-x="1261" 
d="M63 807v231h107v54q0 166 85 272t284 106h481v-1239h201v-231h-621v231h158v1008h-219q-57 0 -82 -37t-25 -110v-54h180v-231h-180v-807h-262v807h-107z" />
    <glyph glyph-name="uniFB03" unicode="ffi" horiz-adv-x="1849" 
d="M1311 1305q0 69 48.5 117t117.5 48t117 -48t48 -117t-48 -117.5t-117 -48.5t-118 48q-48 49 -48 118zM63 807v231h107v54q0 166 83 272t279 106q125 0 234 -67l-141 -195q-45 23 -86 23q-107 0 -107 -139v-54h326v54q0 272 134.5 325t233.5 53h95v-239h-95
q-106 0 -106 -139v-54h588v-807h200v-231h-620v231h158v576h-326v-807h-262v807h-326v-807h-262v807h-107z" />
    <glyph glyph-name="uniFB04" unicode="ffl" horiz-adv-x="1849" 
d="M63 807v231h107v54q0 166 83 272t279 106q125 0 234 -67l-141 -195q-45 23 -86 23q-107 0 -107 -139v-54h326v54q0 272 134.5 325t233.5 53h482v-1239h200v-231h-620v231h158v1008h-220q-57 0 -81.5 -37t-24.5 -110v-54h180v-231h-180v-807h-262v807h-326v-807h-262v807
h-107z" />
    <glyph glyph-name=".notdef" horiz-adv-x="748" 
d="M136 68h408v1229h-408v-1229zM68 0v1365h544v-1365h-544z" />
    <glyph glyph-name="glyph1" horiz-adv-x="0" 
 />
    <glyph glyph-name="nonmarkingreturn" horiz-adv-x="491" 
 />
    <glyph glyph-name="uni000D" unicode="&#xd;" horiz-adv-x="1024" 
 />
    <glyph glyph-name="space" unicode=" " horiz-adv-x="491" 
 />
    <glyph glyph-name="exclam" unicode="!" horiz-adv-x="587" 
d="M141 152q0 66 45 111.5t110 45.5t111 -45.5t46 -111.5t-45.5 -111t-111.5 -45t-110.5 45t-44.5 111zM133 1051l10 407h303l9 -407l-70 -627h-184z" />
    <glyph glyph-name="quotedbl" unicode="&#x22;" horiz-adv-x="786" 
d="M414 1294l16 164h213l16 -164l-41 -262h-163zM127 1294l16 164h213l17 -164l-41 -262h-164z" />
    <glyph glyph-name="numbersign" unicode="#" horiz-adv-x="1058" 
d="M410 514h192l41 293h-192zM6 326l23 188h178l41 293h-178l22 188h182l41 299h203l-41 -299h193l41 299h202l-41 -299h181l-29 -188h-178l-41 -293h180l-24 -188h-181l-45 -326h-203l46 326h-193l-45 -326h-203l45 326h-176z" />
    <glyph glyph-name="dollar" unicode="$" horiz-adv-x="1044" 
d="M727 404q0 58 -28 92.5t-81 62.5v-307q48 16 78.5 55t30.5 97zM352 1068q0 -95 94 -148v284q-94 -41 -94 -136zM106 1058q0 156 94 267t246 137v144h172v-146q145 -28 230.5 -147t85.5 -305l-221 -54q-18 177 -95 236v-348l76 -33q165 -76 223 -167t58 -220
q0 -181 -99 -292.5t-258 -135.5v-176h-172v176q-172 27 -274 156t-102 331l221 54q22 -232 155 -283v385l-81 37q-127 56 -193 142t-66 242z" />
    <glyph glyph-name="percent" unicode="%" horiz-adv-x="1574" 
d="M1071 348q1 -205 115 -205t114 205t-114 205t-115 -205zM1185 -14q-54 0 -102 20.5t-89 62t-65 114t-24 216t85.5 229t195.5 85.5t197 -85.5t87 -315t-115.5 -278t-169.5 -48.5zM270 1106q0 -205 115 -205t115 205t-115 205t-115 -205zM252 -12l856 1482h211l-858 -1482
h-209zM390 743q-48 0 -87.5 12.5t-76 40.5t-63.5 69t-43 103.5t-16 139.5t22.5 164.5t95.5 142.5t144 55q72 0 121 -20t91 -61t67 -113.5t25 -167.5t-25 -168t-67 -114.5t-91 -62t-97 -20.5z" />
    <glyph glyph-name="ampersand" unicode="&#x26;" horiz-adv-x="1345" 
d="M457 1134q0 -46 20 -85.5t74 -98.5q78 48 114.5 87.5t36.5 91.5t-32 84t-90 32t-90.5 -32.5t-32.5 -78.5zM334 414q0 -78 59 -129.5t166 -51.5t215 64l-287 342q-72 -47 -112.5 -97t-40.5 -128zM82 412q0 261 248 417q-68 88 -101.5 155.5t-33.5 148.5q0 146 106.5 241.5
t280.5 95.5t274 -91.5t100 -229.5t-63.5 -223.5t-190.5 -163.5l248 -291q47 92 54 231l221 -110q-11 -183 -111 -316l232 -276h-320l-92 106q-174 -118 -386 -118t-339 116t-127 308z" />
    <glyph glyph-name="quotesingle" unicode="'" horiz-adv-x="575" 
d="M166 1294l16 164h213l15 -164l-41 -256h-162z" />
    <glyph glyph-name="parenleft" unicode="(" horiz-adv-x="688" 
d="M123 612q0 243 95.5 506t242.5 465h186q-235 -542 -235 -956q0 -237 64 -509.5t169 -527.5h-182q-155 198 -247.5 488.5t-92.5 533.5z" />
    <glyph glyph-name="parenright" unicode=")" horiz-adv-x="688" 
d="M565 612q0 -243 -92.5 -533.5t-247.5 -488.5h-182q105 255 169 527.5t64 509.5q0 414 -235 956h186q147 -202 242.5 -465t95.5 -506z" />
    <glyph glyph-name="asterisk" unicode="*" horiz-adv-x="802" 
d="M74 1049l100 65l68 16l-70 21l-98 66l90 157l106 -51l49 -53l-16 71l8 117h181l8 -117l-23 -77l55 59l107 51l90 -157l-98 -66l-72 -21l70 -16l100 -65l-90 -158l-109 53l-51 51l21 -69l-8 -119h-181l-8 119l19 69l-50 -51l-108 -53z" />
    <glyph glyph-name="plus" unicode="+" horiz-adv-x="1167" 
d="M96 539v229h373v373h229v-373h373v-229h-373v-373h-229v373h-373z" />
    <glyph glyph-name="comma" unicode="," horiz-adv-x="593" 
d="M141 141q0 76 45 122t110 46t111 -45.5t46 -99.5t-23 -109l-106 -274h-174l55 239q-64 45 -64 121z" />
    <glyph glyph-name="hyphen" unicode="-" horiz-adv-x="892" 
d="M109 461v229h675v-229h-675z" />
    <glyph glyph-name="period" unicode="." horiz-adv-x="593" 
d="M141 152q0 66 45 111.5t110 45.5t111 -45.5t46 -111.5t-45.5 -111t-111.5 -45t-110.5 45t-44.5 111z" />
    <glyph glyph-name="slash" unicode="/" horiz-adv-x="751" 
d="M16 -12l490 1482h229l-491 -1482h-228z" />
    <glyph glyph-name="zero" unicode="0" horiz-adv-x="1298" 
d="M630 238q62 0 126 19.5t124 130t60 341.5q0 109 -14 186l-408 -645q50 -32 112 -32zM649 1221q-291 0 -291 -306t17 -403l422 666q-52 43 -148 43zM648 1470q182 0 375.5 -146t193.5 -595t-193.5 -595t-375.5 -146t-374 145.5t-192 595.5t192 595.5t374 145.5z" />
    <glyph glyph-name="one" unicode="1" horiz-adv-x="985" 
d="M102 0v238h260v876l-176 -147l-80 237l283 254h246v-1220h258v-238h-791z" />
    <glyph glyph-name="two" unicode="2" horiz-adv-x="1075" 
d="M61 0v227l521 553q68 73 97.5 128t29.5 132t-42.5 129t-128.5 52t-137 -75t-51 -208h-274q0 252 128 392t335 140t326.5 -118.5t119.5 -317.5q0 -144 -61.5 -242.5t-103 -140t-44.5 -45t-6 -6.5l-311 -336h555v-264h-953z" />
    <glyph glyph-name="three" unicode="3" horiz-adv-x="1089" 
d="M555 238q176 0 176 188q0 94 -46.5 146.5t-135.5 52.5h-84v243h84q77 0 118.5 44t41.5 128t-42 132.5t-122 48.5t-125 -58t-45 -166h-277q0 224 123 348.5t325 124.5t320.5 -113t118.5 -302q0 -104 -37 -175t-108 -126q168 -118 168 -328t-123 -324t-335 -114t-340 124
t-128 349h276q0 -108 50.5 -165.5t146.5 -57.5z" />
    <glyph glyph-name="four" unicode="4" horiz-adv-x="1087" 
d="M612 528v408l-231 -408h231zM51 293v178l559 987h275v-930h153v-235h-153v-293h-273v293h-561z" />
    <glyph glyph-name="five" unicode="5" horiz-adv-x="1126" 
d="M358 422q0 -184 200 -184q100 0 155 71t55 203q0 266 -207 266q-72 0 -125 -33.5t-76 -93.5h-266l103 807h821v-264h-580l-28 -207q66 39 163 39q216 0 343.5 -136t127.5 -383t-132 -383t-354 -136t-349 113t-127 321h276z" />
    <glyph glyph-name="six" unicode="6" horiz-adv-x="1126" 
d="M358 472q0 -112 54.5 -173t154.5 -61t150.5 60.5t50.5 172.5t-51 174t-151 62t-154 -61.5t-54 -173.5zM82 460q0 220 139 437l354 561h326l-330 -504q218 0 345.5 -126t127.5 -356t-127 -357t-347 -127t-354 126t-134 346z" />
    <glyph glyph-name="seven" unicode="7" horiz-adv-x="1011" 
d="M33 1194v264h946v-219l-561 -1239h-297l547 1194h-635z" />
    <glyph glyph-name="eight" unicode="8" horiz-adv-x="1101" 
d="M696 1096q0 125 -145 125q-69 0 -106 -43t-37 -125t37 -128t107 -46t107 46t37 171zM551 238q192 0 192 142t-49.5 196.5t-142.5 54.5t-143 -54.5t-50 -148.5t50 -142t143 -48zM82 430q0 214 160 336q-111 111 -111 300t113.5 296.5t307.5 107.5t307.5 -108t113.5 -300
t-111 -296q158 -118 158 -334t-128 -330t-341 -114t-341 114t-128 328z" />
    <glyph glyph-name="nine" unicode="9" horiz-adv-x="1126" 
d="M558 752q99 0 154.5 61.5t55.5 173.5t-55.5 173t-154.5 61t-149.5 -61t-50.5 -173t50.5 -173.5t149.5 -61.5zM82 986q0 230 127.5 357t346.5 127t353.5 -127.5t134.5 -343.5t-139 -438l-354 -561h-326l330 504q-218 0 -345.5 126t-127.5 356z" />
    <glyph glyph-name="colon" unicode=":" horiz-adv-x="593" 
d="M141 564q0 66 44.5 111.5t110.5 45.5t111.5 -45.5t45.5 -111.5t-45.5 -110t-111.5 -44t-110.5 44t-44.5 110zM141 152q0 66 45 111.5t110 45.5t111 -45.5t46 -111.5t-45.5 -111t-111.5 -45t-110.5 45t-44.5 111z" />
    <glyph glyph-name="semicolon" unicode=";" horiz-adv-x="593" 
d="M141 564q0 66 44.5 111.5t110.5 45.5t111.5 -45.5t45.5 -111.5t-45.5 -110t-111.5 -44t-110.5 44t-44.5 110zM141 141q0 76 45 122t110 46t111 -45.5t46 -99.5t-23 -109l-106 -274h-174l55 239q-64 45 -64 121z" />
    <glyph glyph-name="less" unicode="&#x3c;" horiz-adv-x="1167" 
d="M96 561v187l975 415v-248l-629 -260l629 -260v-250z" />
    <glyph glyph-name="equal" unicode="=" horiz-adv-x="1167" 
d="M96 743v230h975v-230h-975zM96 334v229h975v-229h-975z" />
    <glyph glyph-name="greater" unicode="&#x3e;" horiz-adv-x="1167" 
d="M96 145v250l629 260l-629 260v248l975 -415v-187z" />
    <glyph glyph-name="question" unicode="?" horiz-adv-x="1034" 
d="M305 152q0 66 47.5 111.5t115.5 45.5t116.5 -45.5t48.5 -111.5t-48 -111t-117 -45t-116 45t-47 111zM494 1221q-160 0 -160 -203h-275q0 217 116.5 334.5t314.5 117.5t318 -102.5t120 -267.5q0 -100 -43.5 -184t-124.5 -179l-96 -112q-32 -38 -45 -67t-13 -71v-63h-276
v80q0 107 61 190l117 158q84 110 104.5 158t20.5 94t-37 81.5t-102 35.5z" />
    <glyph glyph-name="at" unicode="@" horiz-adv-x="1536" 
d="M668 139q47 0 86.5 29.5t74 93t52.5 139.5l51 238q-36 14 -94 14t-115 -36t-107.5 -122.5t-50.5 -220.5q0 -135 103 -135zM78 317q0 219 101.5 396.5t281.5 278t403 100.5q270 0 432 -150.5t162 -433.5q0 -238 -110 -389.5t-257 -151.5t-212 127q-119 -127 -254 -127
q-82 0 -162 69.5t-80 250.5q0 130 60 251.5t170.5 201t242.5 79.5t283 -74l-105 -509q3 -59 19.5 -83t56.5 -24t77 39t69 130.5t32 205.5q0 220 -127.5 323t-314.5 103q-128 0 -239 -48.5t-187.5 -130.5t-120 -192.5t-43.5 -232.5t43 -217.5t157.5 -187t340.5 -91.5
q153 0 260.5 40t193.5 77l49 -152q-283 -131 -551 -131t-414 121t-201.5 247.5t-55.5 284.5z" />
    <glyph glyph-name="A" unicode="A" horiz-adv-x="1234" 
d="M481 602h273l-138 416zM4 0l481 1458h265l481 -1458h-285l-115 352h-430l-114 -352h-283z" />
    <glyph glyph-name="B" unicode="B" horiz-adv-x="1181" 
d="M395 858h170q104 0 161.5 44t57.5 130t-58.5 132t-160.5 46h-170v-352zM395 248h209q104 0 161.5 46.5t57.5 135.5t-57 134.5t-162 45.5h-209v-362zM123 0v1458h457q228 0 354.5 -115t126.5 -298t-135 -295q174 -118 174 -319t-126.5 -316t-355.5 -115h-495z" />
    <glyph glyph-name="C" unicode="C" horiz-adv-x="1298" 
d="M992.5 1369.5q145.5 -100.5 221.5 -331.5l-260 -65q-82 248 -270 248q-156 0 -230.5 -132t-74.5 -407.5t106.5 -359.5t200.5 -84q184 0 266 237l265 -53q-113 -330 -282.5 -382t-252.5 -52t-163 24t-157 80t-134 139t-91.5 211.5t-34.5 286.5t34.5 286.5t91.5 211.5
t167 163t281 80t316.5 -100.5z" />
    <glyph glyph-name="D" unicode="D" horiz-adv-x="1271" 
d="M395 248h193q157 0 231 128t74 347q0 319 -112 403t-212 84h-174v-962zM123 0v1458h465q184 0 382.5 -145t198.5 -583t-192 -584t-369 -146h-485z" />
    <glyph glyph-name="E" unicode="E" horiz-adv-x="1120" 
d="M123 0v1458h936v-248h-664v-352h410v-248h-410v-362h664v-248h-936z" />
    <glyph glyph-name="F" unicode="F" horiz-adv-x="1069" 
d="M123 0v1458h936v-248h-664v-370h410v-248h-410v-592h-272z" />
    <glyph glyph-name="G" unicode="G" horiz-adv-x="1345" 
d="M102 730q0 158 47.5 336.5t199 291t322.5 112.5t316 -99t221 -333l-262 -65q-76 248 -264 248q-222 0 -262.5 -187.5t-40.5 -305.5t27 -242.5t108.5 -186t171.5 -61.5q202 0 275 137v137h-275v248h547v-760h-248l-8 72q-125 -84 -300 -84t-326.5 111t-200 292t-48.5 339z
" />
    <glyph glyph-name="H" unicode="H" horiz-adv-x="1267" 
d="M123 0v1458h272v-604h477v604h273v-1458h-273v604h-477v-604h-272z" />
    <glyph glyph-name="I" unicode="I" horiz-adv-x="933" 
d="M72 0v217h260v1024h-260v217h790v-217h-258v-1024h258v-217h-790z" />
    <glyph glyph-name="J" unicode="J" horiz-adv-x="1095" 
d="M512 238q80 0 127 51.5t47 144.5v787h-326v237h598v-1024q0 -194 -127 -320t-327 -126t-326.5 134.5t-126.5 366.5l273 54q0 -305 188 -305z" />
    <glyph glyph-name="K" unicode="K" horiz-adv-x="1275" 
d="M123 0v1458h272v-549l486 549h342l-572 -639l625 -819h-326l-473 625l-82 -93v-532h-272z" />
    <glyph glyph-name="L" unicode="L" horiz-adv-x="978" 
d="M123 0v1458h272v-1210h523v-248h-795z" />
    <glyph glyph-name="M" unicode="M" horiz-adv-x="1429" 
d="M123 0v1458h272l320 -577l319 577h273v-1458h-273v932l-243 -440h-152l-244 440v-932h-272z" />
    <glyph glyph-name="N" unicode="N" horiz-adv-x="1368" 
d="M123 0v1458h264l586 -944v944h272v-1458h-262l-588 948v-948h-272z" />
    <glyph glyph-name="O" unicode="O" 
d="M518 294q72 -56 170 -56q162 0 243 142q68 119 68 349q1 326 -141 436q-72 56 -170 56t-169 -56q-140 -110 -140 -436q-1 -327 139 -435zM102 729q0 449 257 637q142 104 329 104q188 0 330 -104q258 -189 258 -637q0 -447 -258 -637q-142 -104 -330 -104
q-187 0 -329 104q-257 188 -257 637z" />
    <glyph glyph-name="P" unicode="P" horiz-adv-x="1171" 
d="M604 805q219 0 219 196q0 102 -57.5 155.5t-161.5 53.5h-209v-405h209zM123 0v1458h495q229 0 355.5 -124t126.5 -332t-126 -326.5t-356 -118.5h-223v-557h-272z" />
    <glyph glyph-name="Q" unicode="Q" 
d="M379 729q0 -377 188 -469v219h244v-219q188 94 188 471q0 324 -107 407t-236 83t-203 -131t-74 -361zM102 746q0 146 34 271.5t90 208.5t132.5 139t158.5 80.5t171 24.5t220 -39t249.5 -213.5t118.5 -482.5q0 -382 -154 -539.5t-311 -195.5v-227h-244v227
q-248 59 -356.5 264.5t-108.5 481.5z" />
    <glyph glyph-name="R" unicode="R" horiz-adv-x="1196" 
d="M606 844q219 0 219 179q0 90 -58 138.5t-161 48.5h-211v-366h211zM123 0v1458h498q227 0 354 -117.5t127 -318.5q0 -164 -85 -270.5t-247 -141.5l397 -610h-307l-393 596h-72v-596h-272z" />
    <glyph glyph-name="S" unicode="S" horiz-adv-x="1130" 
d="M573 238q89 0 154.5 41.5t65.5 126.5q0 57 -23.5 82.5t-45 45t-142.5 64.5l-191 76q-142 56 -215.5 142t-73.5 222t64 234t169.5 148t235.5 50q205 0 328 -123t123 -339l-246 -54q-26 267 -209 267q-76 0 -133 -42t-57 -116q0 -99 72.5 -130.5t103.5 -43.5l203 -80
q184 -76 248.5 -167.5t64.5 -224.5q0 -132 -99 -280.5t-392 -148.5q-230 0 -373.5 133t-143.5 360l246 54q32 -297 266 -297z" />
    <glyph glyph-name="T" unicode="T" horiz-adv-x="1103" 
d="M10 1210v248h1084v-248h-406v-1210h-272v1210h-406z" />
    <glyph glyph-name="U" unicode="U" horiz-adv-x="1261" 
d="M395 475q0 -237 235.5 -237t235.5 237v983h273v-997q0 -225 -136.5 -349t-370.5 -124t-371.5 124.5t-137.5 348.5v997h272v-983z" />
    <glyph glyph-name="V" unicode="V" horiz-adv-x="1193" 
d="M4 1458h283l311 -971l309 971h283l-479 -1458h-226z" />
    <glyph glyph-name="W" unicode="W" horiz-adv-x="1611" 
d="M4 1458h277l206 -950l191 758h254l188 -758l209 950h279l-353 -1458h-231l-219 786l-219 -786h-232z" />
    <glyph glyph-name="X" unicode="X" horiz-adv-x="1234" 
d="M4 0l459 758l-422 700h309l268 -442l267 442h309l-422 -702l459 -756h-311l-302 502l-303 -502h-311z" />
    <glyph glyph-name="Y" unicode="Y" horiz-adv-x="1159" 
d="M715 0h-273v563l-438 895h289l287 -567l286 567h289l-440 -895v-563z" />
    <glyph glyph-name="Z" unicode="Z" horiz-adv-x="1093" 
d="M61 0v207l623 1003h-590v248h938v-190l-633 -1020h631v-248h-969z" />
    <glyph glyph-name="bracketleft" unicode="[" horiz-adv-x="698" 
d="M147 -410v1995h508v-203h-229v-1591h229v-201h-508z" />
    <glyph glyph-name="backslash" unicode="\" horiz-adv-x="753" 
d="M16 1470h230l491 -1482h-231z" />
    <glyph glyph-name="bracketright" unicode="]" horiz-adv-x="698" 
d="M43 -209h229v1591h-229v203h508v-1995h-508v201z" />
    <glyph glyph-name="asciicircum" unicode="^" horiz-adv-x="1314" 
d="M102 549l463 909h185l462 -909h-243l-314 618l-309 -618h-244z" />
    <glyph glyph-name="underscore" unicode="_" horiz-adv-x="1062" 
d="M0 -61h1063v-187h-1063v187z" />
    <glyph glyph-name="grave" unicode="`" horiz-adv-x="565" 
d="M-59 1597h295l241 -426h-221z" />
    <glyph glyph-name="a" unicode="a" horiz-adv-x="1048" 
d="M334 311q0 -38 26.5 -61t102.5 -23q127 0 201 78v133l-207 -12q-123 -6 -123 -115zM70 307q0 303 383 328l211 14v13q0 72 -39.5 110.5t-112.5 38.5q-119 0 -190 -96l-216 61q37 121 152 198t282 77t276.5 -105t109.5 -266v-680h-250l-4 72q-110 -84 -256 -84t-246 79.5
t-100 239.5z" />
    <glyph glyph-name="b" unicode="b" horiz-adv-x="1138" 
d="M602 227q32 0 75 10.5t85.5 77t42.5 178.5q0 199 -61.5 258.5t-134.5 59.5t-133.5 -45t-78.5 -164v-127q25 -191 99 -219.5t106 -28.5zM135 0v1458h262v-481q100 74 228 74t286 -107.5t158 -425.5t-158.5 -424t-293.5 -106t-228 84l-4 -72h-250z" />
    <glyph glyph-name="c" unicode="c" horiz-adv-x="1013" 
d="M70 518q0 323 159 428t310 105t258 -77.5t147 -221.5l-229 -62q-65 121 -176 121q-78 0 -141.5 -59.5t-63.5 -233.5q0 -230 82.5 -260.5t120.5 -30.5q113 0 178 127l229 -59q-40 -146 -144.5 -226.5t-256.5 -80.5q-247 0 -360 152.5t-113 377.5z" />
    <glyph glyph-name="d" unicode="d" horiz-adv-x="1136" 
d="M334 510q0 -165 61 -224t137 -59q122 0 160 74.5t47 132.5v127q-17 136 -76 193t-135 57q-194 0 -194 -301zM70 528q0 104 38.5 232.5t156.5 209.5t246 81t228 -74v481h262v-1458h-249l-4 72q-93 -84 -213 -84q-266 0 -365.5 171t-99.5 369z" />
    <glyph glyph-name="e" unicode="e" horiz-adv-x="1077" 
d="M538 811q-151 0 -192 -172h381q-38 172 -189 172zM70 503q0 127 27 219t71.5 152.5t106 101t127 58t137.5 17.5t176.5 -27.5t198.5 -154.5t94 -351v-88h-668q27 -203 203 -203q135 0 211 127l229 -59q-40 -146 -158 -226.5t-295 -80.5t-279 89t-141.5 194t-39.5 232z" />
    <glyph glyph-name="f" unicode="f" horiz-adv-x="706" 
d="M432 1092v-54h201v-231h-201v-807h-262v807h-107v231h107v54q0 166 83 272t263 106q181 0 313 -114l-145 -193q-62 68 -145 68q-107 0 -107 -139z" />
    <glyph glyph-name="g" unicode="g" horiz-adv-x="1138" 
d="M395.5 286.5q61.5 -59.5 134.5 -59.5t133 45t78 164v127q-25 191 -99 219.5t-110 28.5t-67.5 -12t-81 -59t-49.5 -221q0 -173 61.5 -232.5zM228.5 945q158.5 106 293.5 106t228 -84l4 71h250v-1032q0 -193 -125 -315.5t-332 -122.5q-166 0 -282 81t-159 226l230 59
q76 -127 215 -127q90 0 140 53t50 146v55q-99 -73 -227 -73t-286 106.5t-158 425.5t158.5 425z" />
    <glyph glyph-name="h" unicode="h" horiz-adv-x="1103" 
d="M135 0v1458h262v-475q97 68 181 68t146.5 -23.5t119 -72.5t91 -137.5t34.5 -205.5v-612h-262v596q0 169 -58 192t-84 23q-58 0 -105 -44t-63 -144v-623h-262z" />
    <glyph glyph-name="i" unicode="i" horiz-adv-x="772" 
d="M233 1305q0 69 48.5 117t117.5 48t117.5 -48t48.5 -117t-48.5 -117.5t-117.5 -48.5t-118 48q-48 49 -48 118zM70 0v231h198v576h-198v231h460v-807h201v-231h-661z" />
    <glyph glyph-name="j" unicode="j" horiz-adv-x="776" 
d="M346 1305q0 69 48.5 117t117.5 48t117.5 -48t48.5 -117t-48.5 -117.5t-117.5 -48.5t-118 48q-48 49 -48 118zM240 -193q66 0 104.5 53.5t38.5 145.5v801h-277v231h539v-1032q0 -191 -116 -314.5t-296 -123.5q-100 0 -189.5 50t-154.5 146l195 130q90 -87 156 -87z" />
    <glyph glyph-name="k" unicode="k" horiz-adv-x="1091" 
d="M135 0v1458h262v-690l301 272h351l-455 -411l481 -629h-311l-354 459l-13 -8v-451h-262z" />
    <glyph glyph-name="l" unicode="l" horiz-adv-x="772" 
d="M70 0v231h198v996h-198v231h460v-1227h201v-231h-661z" />
    <glyph glyph-name="m" unicode="m" horiz-adv-x="1660" 
d="M135 0v1038h250l4 -71q102 84 213 84q154 0 252 -115q135 115 293 115q115 0 247 -86t132 -353v-612h-262v596q0 167 -62.5 191t-87.5 24q-122 0 -153 -188v-623h-263v596q0 168 -62 191.5t-100 23.5t-80.5 -41.5t-58.5 -146.5v-623h-262z" />
    <glyph glyph-name="n" unicode="n" horiz-adv-x="1103" 
d="M135 0v1038h250l4 -71q99 84 208 84t240.5 -87t131.5 -352v-612h-262v596q0 169 -58 192t-84 23q-58 0 -105 -44t-63 -144v-623h-262z" />
    <glyph glyph-name="o" unicode="o" horiz-adv-x="1073" 
d="M334 518q0 -230 83 -260.5t141.5 -30.5t119.5 59t61 232q0 293 -200 293q-78 0 -141.5 -59.5t-63.5 -233.5zM70 504q0 126 38 256.5t159 210.5t272 80q237 0 351 -153.5t114 -427.5t-157.5 -378t-326.5 -104t-269.5 89t-140.5 195t-40 232z" />
    <glyph glyph-name="p" unicode="p" horiz-adv-x="1138" 
d="M608 227q197 0 197 301q0 165 -62 224t-139 59q-122 0 -160 -74.5t-47 -132.5v-127q17 -136 76 -193t135 -57zM135 -420v1458h250l4 -71q93 84 228 84t293.5 -107t158.5 -424t-157.5 -424.5t-286.5 -107.5t-228 73v-481h-262z" />
    <glyph glyph-name="q" unicode="q" horiz-adv-x="1101" 
d="M395.5 286.5q61.5 -59.5 134.5 -59.5t133 45t78 164v127q-25 191 -99 219.5t-110 28.5t-67.5 -12t-81 -59t-49.5 -221q0 -173 61.5 -232.5zM228.5 945q158.5 106 293.5 106t228 -84l4 71h250v-1458h-263v481q-99 -73 -227 -73t-286 106.5t-158 425.5t158.5 425z" />
    <glyph glyph-name="r" unicode="r" horiz-adv-x="729" 
d="M135 0v1038h250l4 -90q100 103 236 103q49 0 96 -9l-25 -272q-52 18 -108 18q-159 0 -191 -215v-573h-262z" />
    <glyph glyph-name="s" unicode="s" horiz-adv-x="962" 
d="M492 227q57 0 94 21t37 56t-30.5 55.5t-113.5 52.5l-76 28q-165 64 -222.5 131t-57.5 166q0 139 105 226.5t255 87.5q302 0 381 -299l-229 -60q-52 119 -143 119q-43 0 -74 -19.5t-31 -47.5t31 -44t125 -49l67 -24q166 -61 224.5 -136t58.5 -179t-83 -214t-325 -110
q-329 0 -415 307l229 59q63 -127 193 -127z" />
    <glyph glyph-name="t" unicode="t" horiz-adv-x="733" 
d="M43 807v231h107v293h262v-293h239v-231h-239v-457q0 -75 21 -99t77 -24t145 33l17 -219q-115 -53 -219 -53q-157 0 -230 93t-73 249v477h-107z" />
    <glyph glyph-name="u" unicode="u" horiz-adv-x="1124" 
d="M735 72q-84 -84 -210 -84t-258 87t-132 351v625h262v-609q0 -215 146 -215q62 0 114.5 43t69.5 146v622h262v-1038h-250z" />
    <glyph glyph-name="v" unicode="v" horiz-adv-x="999" 
d="M4 1038h283l213 -657l211 657h284l-372 -1038h-248z" />
    <glyph glyph-name="w" unicode="w" horiz-adv-x="1290" 
d="M4 1038h279l137 -602l121 459h211l118 -459l140 602h276l-260 -1038h-242l-139 465l-139 -465h-242z" />
    <glyph glyph-name="x" unicode="x" horiz-adv-x="1030" 
d="M20 0l342 537l-321 501h299l174 -270l172 270h301l-321 -499l344 -539h-299l-197 303l-197 -303h-297z" />
    <glyph glyph-name="y" unicode="y" horiz-adv-x="989" 
d="M4 1038h283l207 -626l208 626h283l-532 -1458h-267l172 486z" />
    <glyph glyph-name="z" unicode="z" horiz-adv-x="948" 
d="M70 0v186l462 621h-440v231h778v-194l-458 -613h458v-231h-800z" />
    <glyph glyph-name="braceleft" unicode="{" horiz-adv-x="569" 
d="M-12 483v207q72 0 111.5 55.5t39.5 139.5v467q0 115 67 174t171 59h211v-201h-90q-45 0 -62.5 -21.5t-17.5 -66.5v-458q0 -163 -127 -250q52 -37 89.5 -100.5t37.5 -149.5v-459q0 -45 17.5 -66.5t62.5 -21.5h90v-201h-211q-104 0 -171 59.5t-67 174.5v467q0 82 -39.5 137
t-111.5 55z" />
    <glyph glyph-name="bar" unicode="|" horiz-adv-x="526" 
d="M147 -512v2048h232v-2048h-232z" />
    <glyph glyph-name="braceright" unicode="}" horiz-adv-x="546" 
d="M-12 -209h90q45 0 62.5 21.5t17.5 66.5v459q0 86 37.5 149.5t89.5 100.5q-127 87 -127 250v458q0 45 -17.5 66.5t-62.5 21.5h-90v201h211q104 0 170.5 -59t66.5 -174v-467q0 -84 40 -139.5t112 -55.5v-207q-72 0 -112 -55t-40 -137v-467q0 -116 -67 -175t-170 -59h-211
v201z" />
    <glyph glyph-name="asciitilde" unicode="~" horiz-adv-x="1224" 
d="M408 711q79 0 132 -25t136 -68q82 -43 132 -43t88 35t105 123l82 -203q-94 -184 -258 -184q-98 0 -232 68t-178 67q-44 0 -84 -35t-108 -122l-82 202q99 185 267 185z" />
    <glyph glyph-name="uni00A0" unicode="&#xa0;" horiz-adv-x="491" 
 />
    <glyph glyph-name="exclamdown" unicode="&#xa1;" horiz-adv-x="587" 
d="M141 888q0 66 44.5 110t110.5 44t111.5 -44t45.5 -110t-46.5 -112.5t-110.5 -46.5t-109.5 46.5t-45.5 112.5zM133 -12l68 626h184l70 -626l-9 -408h-303z" />
    <glyph glyph-name="cent" unicode="&#xa2;" horiz-adv-x="1013" 
d="M334 518q0 -216 115 -272v545q-115 -57 -115 -273zM178.5 889q108.5 125 270.5 153v193h172v-191q118 -19 202.5 -93.5t120.5 -198.5l-229 -62q-40 73 -94 101v-543q52 27 94 106l229 -59q-35 -127 -118 -204.5t-205 -96.5v-195h-172v197q-203 32 -291 179t-88 368
t108.5 346z" />
    <glyph glyph-name="sterling" unicode="&#xa3;" horiz-adv-x="991" 
d="M59 594v182h103q-68 190 -68 262q0 199 120 315.5t300 116.5t293 -118.5t113 -321.5l-234 -55q-13 125 -60 185.5t-110 60.5t-105 -48.5t-42 -143.5t65 -253h367v-182h-295q12 -47 12 -102q0 -110 -82 -244h535l-53 -248h-857l27 248h74q96 121 96 209q0 48 -29 137h-170
z" />
    <glyph glyph-name="currency" unicode="&#xa4;" horiz-adv-x="1134" 
d="M170 716q0 -168 114 -282.5t282 -114.5t283.5 114.5t115.5 282.5t-115.5 283t-283.5 115t-282 -115t-114 -283zM55 708q0 172 103 316l-103 100l103 105l98 -103q140 103 314 103t309 -107l102 105l96 -101l-102 -98q104 -138 104 -312t-104 -310l102 -99l-102 -102
l-101 102q-132 -102 -306 -102t-312 102l-98 -102l-97 96l99 100q-105 135 -105 307z" />
    <glyph glyph-name="yen" unicode="&#xa5;" horiz-adv-x="1036" 
d="M946 825v-182h-268l-25 -59v-52h293v-182h-293v-350h-272v350h-291v182h291v52l-27 59h-264v182h186l-272 633h289l225 -567l225 567h289l-274 -633h188z" />
    <glyph glyph-name="brokenbar" unicode="&#xa6;" horiz-adv-x="505" 
d="M147 633v749h211v-749h-211zM147 -358v823h211v-823h-211z" />
    <glyph glyph-name="section" unicode="&#xa7;" horiz-adv-x="1028" 
d="M360 574q0 -78 30.5 -109t139.5 -82q68 5 108 57.5t40 138.5t-44.5 112t-133.5 65q-65 -6 -102.5 -55t-37.5 -127zM905 -3q0 -169 -111 -261t-277 -92t-274 82t-149 231l240 63q65 -151 184 -151q59 0 95 29t36 83t-45 87.5t-161 87.5t-159 81.5t-111.5 96t-68.5 231.5
q0 224 162 314q-119 87 -119 241t108 252t260 98t251.5 -78t138.5 -227l-237 -63q-29 76 -63.5 109.5t-84.5 33.5t-85.5 -31t-35.5 -76t46.5 -76.5t150.5 -79.5t169 -83.5t117 -113t52 -203.5q0 -213 -164 -318q135 -98 135 -267z" />
    <glyph glyph-name="dieresis" unicode="&#xa8;" horiz-adv-x="833" 
d="M471 1340q0 66 45 112.5t110 46.5t110.5 -46.5t45.5 -112.5t-45 -110t-111 -44t-110.5 44t-44.5 110zM43 1340q0 66 45.5 112.5t109.5 46.5t110 -46.5t46 -112.5t-45 -110t-111 -44t-110.5 44t-44.5 110z" />
    <glyph glyph-name="copyright" unicode="&#xa9;" horiz-adv-x="1636" 
d="M389 730q0 282 147 374t282 92t246.5 -84.5t172.5 -261.5l-195 -51q-64 202 -225 202q-82 0 -152.5 -56.5t-70.5 -224.5t78 -214.5t147 -46.5q156 0 221 194l197 -45q-61 -177 -172.5 -261.5t-247.5 -84.5q-213 0 -320.5 134.5t-107.5 333.5zM818 145q248 0 409.5 165
t161.5 419t-161.5 419t-409.5 165t-410 -165t-162 -419t162 -419t410 -165zM817 1470q202 0 372.5 -99t270 -269.5t99.5 -372.5t-99.5 -372.5t-270 -269.5t-372.5 -99q-150 0 -287 58.5t-236 157.5t-157.5 236.5t-58.5 288.5t58.5 288.5t157.5 236.5t236 157.5t287 58.5z
" />
    <glyph glyph-name="ordfeminine" unicode="&#xaa;" horiz-adv-x="653" 
d="M195 963q0 -27 17.5 -42.5t87.5 -15.5t120 53v93l-141 -9q-84 -6 -84 -79zM18 494v159h582v-159h-582zM12 957q0 212 264 229l144 8v8q0 50 -27 76.5t-76 26.5q-83 0 -131 -66l-149 43q27 83 106 135.5t193 52.5t189 -72t75 -184v-466h-172l-2 36q-64 -45 -166 -45
t-175 55.5t-73 162.5z" />
    <glyph glyph-name="guillemotleft" unicode="&#xab;" horiz-adv-x="1165" 
d="M526 567l467 441l76 -201l-227 -240l225 -239l-74 -201zM96 567l467 441l76 -201l-227 -240l225 -239l-74 -201z" />
    <glyph glyph-name="uni00AD" unicode="&#xad;" horiz-adv-x="892" 
d="M109 461v229h675v-229h-675z" />
    <glyph glyph-name="registered" unicode="&#xae;" horiz-adv-x="1009" 
d="M520 1092q62 0 62 50t-62 50h-57v-100h57zM358 803v493h166q78 0 121 -40t43 -109q0 -113 -98 -141l127 -203h-115l-127 194h-12v-194h-105zM174 1042q0 -146 94.5 -241.5t236.5 -95.5t235.5 95.5t93.5 241.5t-94 242t-236 96t-236 -96t-94 -242zM78 1042q0 176 126 302
t302 126t301 -125.5t125 -302.5t-125 -302.5t-301 -125.5t-302 126t-126 302z" />
    <glyph glyph-name="macron" unicode="&#xaf;" horiz-adv-x="737" 
d="M43 1239v205h643v-205h-643z" />
    <glyph glyph-name="degree" unicode="&#xb0;" horiz-adv-x="720" 
d="M256 1226q0 -44 30 -74t73 -30t74.5 31t31.5 73t-31.5 72.5t-74.5 30.5t-73 -29.5t-30 -73.5zM117 1226q0 102 70.5 173t172.5 71t173 -71t71 -173t-71 -172.5t-173 -70.5t-172.5 70.5t-70.5 172.5z" />
    <glyph glyph-name="plusminus" unicode="&#xb1;" horiz-adv-x="1167" 
d="M96 618v230h373v293h229v-293h373v-230h-373v-126h-229v126h-373zM96 174v229h975v-229h-975z" />
    <glyph glyph-name="uni00B2" unicode="&#xb2;" horiz-adv-x="647" 
d="M31 598v160l301 313q65 67 65 115q0 92 -71 92q-40 0 -62 -39.5t-22 -112.5h-203q0 161 79 252.5t207 91.5t201.5 -73t73.5 -197q0 -58 -11 -85t-15 -36.5t-13.5 -24.5t-24 -36t-57.5 -64l-147 -159h284v-197h-585z" />
    <glyph glyph-name="uni00B3" unicode="&#xb3;" horiz-adv-x="587" 
d="M301 778q74 0 74 82q0 53 -21.5 82t-58.5 29h-70v139h70q67 0 67 96q0 72 -67 72q-72 0 -72 -121h-205q0 146 76 229.5t200 83.5t197.5 -70t73.5 -182t-67 -171q80 -74 80 -195t-75.5 -191.5t-205.5 -70.5t-208.5 82.5t-78.5 230.5h203q0 -125 88 -125z" />
    <glyph glyph-name="acute" unicode="&#xb4;" horiz-adv-x="362" 
d="M-88 1171l244 426h295l-318 -426h-221z" />
    <glyph glyph-name="paragraph" unicode="&#xb6;" horiz-adv-x="1323" 
d="M98 1016q0 180 134.5 311t336.5 131h521v-196h-70v-1606h-225v1606h-62v-1606h-225v909q-175 15 -292.5 143t-117.5 308z" />
    <glyph glyph-name="periodcentered" unicode="&#xb7;" horiz-adv-x="530" 
d="M109 596q0 66 44.5 112t110.5 46t112 -46t46 -111t-46 -110t-112 -45t-110.5 44t-44.5 110z" />
    <glyph glyph-name="cedilla" unicode="&#xb8;" horiz-adv-x="563" 
d="M207 -313q74 0 74 57t-70 63l-98 9l47 184h174l-19 -76q74 -6 135.5 -44.5t61.5 -131.5q0 -94 -75.5 -152.5t-182.5 -58.5t-211 49v156q120 -55 164 -55z" />
    <glyph glyph-name="uni00B9" unicode="&#xb9;" horiz-adv-x="704" 
d="M104 598v180h148v416l-88 -74l-60 185l177 157h172v-684h147v-180h-496z" />
    <glyph glyph-name="ordmasculine" unicode="&#xba;" horiz-adv-x="702" 
d="M213 1105q0 -200 138 -200t138 200t-138 200t-138 -200zM59 494v159h582v-159h-582zM352 739q-62 0 -117.5 20.5t-102.5 62t-74 114t-27 168.5t27.5 169.5t74.5 115t102 61.5t117 20t117 -20t101.5 -61.5t74 -115t27.5 -169.5t-27.5 -168.5t-74 -114t-101.5 -62
t-117 -20.5z" />
    <glyph glyph-name="guillemotright" unicode="&#xbb;" horiz-adv-x="1165" 
d="M526 807l76 201l467 -441l-467 -440l-74 201l226 239zM96 807l76 201l467 -441l-467 -440l-74 201l226 239z" />
    <glyph glyph-name="onequarter" unicode="&#xbc;" horiz-adv-x="1533" 
d="M868 162v133l279 563h188l-250 -514h97v139h198v-139h88v-182h-88v-162h-198v162h-314zM322 -12l856 1482h211l-859 -1482h-208zM104 598v180h148v416l-88 -74l-60 185l177 157h172v-684h147v-180h-496z" />
    <glyph glyph-name="onehalf" unicode="&#xbd;" horiz-adv-x="1654" 
d="M1004 0v160l301 313q65 67 65 115q0 92 -72 92q-40 0 -62 -39.5t-22 -112.5h-202q0 161 78.5 252.5t206.5 91.5t202 -73t74 -197q0 -58 -11 -85t-15 -36.5t-13.5 -24.5t-24 -36t-57.5 -64l-147 -159h284v-197h-585zM322 -12l856 1482h211l-859 -1482h-208zM104 598v180
h148v416l-88 -74l-60 185l177 157h172v-684h147v-180h-496z" />
    <glyph glyph-name="threequarters" unicode="&#xbe;" horiz-adv-x="1452" 
d="M786 162v133l279 563h188l-249 -514h96v139h198v-139h88v-182h-88v-162h-198v162h-314zM240 -12l856 1482h211l-858 -1482h-209zM301 778q74 0 74 82q0 53 -21.5 82t-58.5 29h-70v139h70q67 0 67 96q0 72 -67 72q-72 0 -72 -121h-205q0 146 76 229.5t200 83.5t197.5 -70
t73.5 -182t-67 -171q80 -74 80 -195t-75.5 -191.5t-205.5 -70.5t-208.5 82.5t-78.5 230.5h203q0 -125 88 -125z" />
    <glyph glyph-name="questiondown" unicode="&#xbf;" horiz-adv-x="1034" 
d="M566 1042q69 0 116 -44t47 -110t-47.5 -112.5t-115.5 -46.5t-116.5 46.5t-48.5 111.5t48 110t117 45zM106 -61q0 100 43.5 183t124.5 179l97 113q32 38 44.5 66.5t12.5 70.5v63h277v-79q0 -107 -62 -191l-117 -158q-84 -111 -104.5 -157.5t-20.5 -92.5t37.5 -82
t102.5 -36q159 0 159 202h275q0 -217 -115.5 -334.5t-313.5 -117.5t-319 103t-121 268z" />
    <glyph glyph-name="Agrave" unicode="&#xc0;" horiz-adv-x="1234" 
d="M481 602h273l-138 416zM348 2017h295l242 -426h-221zM4 0l481 1458h265l481 -1458h-285l-115 352h-430l-114 -352h-283z" />
    <glyph glyph-name="Aacute" unicode="&#xc1;" horiz-adv-x="1234" 
d="M481 602h273l-138 416zM348 1591l244 426h295l-318 -426h-221zM4 0l481 1458h265l481 -1458h-285l-115 352h-430l-114 -352h-283z" />
    <glyph glyph-name="Acircumflex" unicode="&#xc2;" horiz-adv-x="1234" 
d="M481 602h273l-138 416zM283 1591l243 426h191l233 -426h-229l-103 193l-108 -193h-227zM4 0l481 1458h265l481 -1458h-285l-115 352h-430l-114 -352h-283z" />
    <glyph glyph-name="Atilde" unicode="&#xc3;" horiz-adv-x="1234" 
d="M481 602h273l-138 416zM475 1919q48 0 134.5 -36t126.5 -36t59.5 20.5t44.5 69.5l155 -32q-37 -208 -105 -245.5t-118 -37.5t-139 35t-131 35t-60.5 -22t-35.5 -68l-166 34q57 283 235 283zM4 0l481 1458h265l481 -1458h-285l-115 352h-430l-114 -352h-283z" />
    <glyph glyph-name="Adieresis" unicode="&#xc4;" horiz-adv-x="1234" 
d="M676 1760q0 66 44.5 112.5t109.5 46.5t111 -46.5t46 -112.5t-45.5 -110t-111.5 -44t-110 44t-44 110zM481 602h273l-138 416zM248 1760q0 66 45 112.5t109 46.5t110.5 -46.5t46.5 -112.5t-45.5 -110t-111.5 -44t-110 44t-44 110zM4 0l481 1458h265l481 -1458h-285
l-115 352h-430l-114 -352h-283z" />
    <glyph glyph-name="Aring" unicode="&#xc5;" horiz-adv-x="1234" 
d="M481 602h273l-138 416zM616 1952q78 0 134.5 -56.5t56.5 -134.5t-56.5 -134t-134.5 -56t-133 56t-55 134t55 134.5t133 56.5zM4 0l481 1458h265l481 -1458h-285l-115 352h-430l-114 -352h-283z" />
    <glyph glyph-name="AE" unicode="&#xc6;" horiz-adv-x="1847" 
d="M850 858v352h-25l-161 -352h186zM1786 1458v-248h-664v-352h486v-248h-486v-362h664v-248h-936v610h-299l-287 -610h-284l684 1458h1122z" />
    <glyph glyph-name="Ccedilla" unicode="&#xc7;" horiz-adv-x="1298" 
d="M623 -313q44 0 58.5 15.5t14.5 41.5q0 57 -69 63l-99 9l47 182q-28 5 -82 22q-54 16 -131 72t-134 139t-91.5 211.5t-34.5 286.5t48.5 338t201.5 291.5t324 111.5t316.5 -100.5t221.5 -331.5l-260 -65q-82 248 -270 248q-156 0 -230.5 -132t-74.5 -407.5t106.5 -359.5
t200.5 -84q184 0 266 237l265 -53q-134 -391 -469 -430l-17 -68q74 -6 135.5 -44.5t61.5 -131.5q0 -94 -75.5 -152.5t-182.5 -58.5t-211 49v156q120 -55 164 -55z" />
    <glyph glyph-name="Egrave" unicode="&#xc8;" horiz-adv-x="1120" 
d="M311 2017h295l242 -426h-221zM123 0v1458h936v-248h-664v-352h410v-248h-410v-362h664v-248h-936z" />
    <glyph glyph-name="Eacute" unicode="&#xc9;" horiz-adv-x="1120" 
d="M311 1591l244 426h295l-318 -426h-221zM123 0v1458h936v-248h-664v-352h410v-248h-410v-362h664v-248h-936z" />
    <glyph glyph-name="Ecircumflex" unicode="&#xca;" horiz-adv-x="1120" 
d="M266 1591l244 426h190l234 -426h-229l-103 193l-108 -193h-228zM123 0v1458h936v-248h-664v-352h410v-248h-410v-362h664v-248h-936z" />
    <glyph glyph-name="Edieresis" unicode="&#xcb;" horiz-adv-x="1120" 
d="M659 1760q0 66 45 112.5t110 46.5t111 -46.5t46 -112.5t-45.5 -110t-111.5 -44t-110.5 44t-44.5 110zM231 1760q0 66 45.5 112.5t109.5 46.5t110.5 -46.5t46.5 -112.5t-45.5 -110t-111.5 -44t-110.5 44t-44.5 110zM123 0v1458h936v-248h-664v-352h410v-248h-410v-362h664
v-248h-936z" />
    <glyph glyph-name="Igrave" unicode="&#xcc;" horiz-adv-x="933" 
d="M199 2017h295l241 -426h-221zM72 0v217h260v1024h-260v217h790v-217h-258v-1024h258v-217h-790z" />
    <glyph glyph-name="Iacute" unicode="&#xcd;" horiz-adv-x="933" 
d="M197 1591l243 426h295l-317 -426h-221zM72 0v217h260v1024h-260v217h790v-217h-258v-1024h258v-217h-790z" />
    <glyph glyph-name="Icircumflex" unicode="&#xce;" horiz-adv-x="933" 
d="M133 1591l244 426h190l234 -426h-230l-102 193l-109 -193h-227zM72 0v217h260v1024h-260v217h790v-217h-258v-1024h258v-217h-790z" />
    <glyph glyph-name="Idieresis" unicode="&#xcf;" horiz-adv-x="933" 
d="M524 1760q0 66 45 112.5t110 46.5t111 -46.5t46 -112.5t-46 -110t-112 -44t-110 44t-44 110zM96 1760q0 66 46 112.5t110 46.5t110 -46.5t46 -112.5t-45 -110t-111 -44t-111 44t-45 110zM72 0v217h260v1024h-260v217h790v-217h-258v-1024h258v-217h-790z" />
    <glyph glyph-name="Eth" unicode="&#xd0;" horiz-adv-x="1265" 
d="M389 248h193q157 0 231 128t74 347q0 319 -112 403t-212 84h-174v-354h316v-223h-316v-385zM12 633v223h105v602h465q184 0 382.5 -145t198.5 -583t-192 -584t-369 -146h-485v633h-105z" />
    <glyph glyph-name="Ntilde" unicode="&#xd1;" horiz-adv-x="1368" 
d="M541 1919q48 0 134.5 -36t126.5 -36t59 20.5t44 69.5l156 -32q-37 -208 -105 -245.5t-118 -37.5t-140 35t-132 35t-60 -22t-35 -68l-166 34q57 283 236 283zM123 0v1458h264l586 -944v944h272v-1458h-262l-588 948v-948h-272z" />
    <glyph glyph-name="Ograve" unicode="&#xd2;" 
d="M420 2017h295l241 -426h-221zM485 320q106 -82 235.5 -82t204 130t74.5 408.5t-107 361.5t-204.5 83t-203 -83t-105.5 -409.5t106 -408.5zM102 729q0 448 199.5 594.5t387 146.5t387.5 -147t200 -594t-200 -594t-387.5 -147t-387 146.5t-199.5 594.5z" />
    <glyph glyph-name="Oacute" unicode="&#xd3;" 
d="M420 1591l244 426h294l-317 -426h-221zM485 320q106 -82 235.5 -82t204 130t74.5 408.5t-107 361.5t-204.5 83t-203 -83t-105.5 -409.5t106 -408.5zM102 729q0 448 199.5 594.5t387 146.5t387.5 -147t200 -594t-200 -594t-387.5 -147t-387 146.5t-199.5 594.5z" />
    <glyph glyph-name="Ocircumflex" unicode="&#xd4;" 
d="M485 320q106 -82 235.5 -82t204 130t74.5 408.5t-107 361.5t-204.5 83t-203 -83t-105.5 -409.5t106 -408.5zM354 1591l244 426h190l234 -426h-229l-103 193l-108 -193h-228zM102 729q0 448 199.5 594.5t387 146.5t387.5 -147t200 -594t-200 -594t-387.5 -147t-387 146.5
t-199.5 594.5z" />
    <glyph glyph-name="Otilde" unicode="&#xd5;" 
d="M485 320q106 -82 235.5 -82t204 130t74.5 408.5t-107 361.5t-204.5 83t-203 -83t-105.5 -409.5t106 -408.5zM547 1919q48 0 134.5 -36t126.5 -36t59 20.5t44 69.5l156 -32q-37 -208 -105 -245.5t-118 -37.5t-140 35t-132 35t-60 -22t-35 -68l-166 34q57 283 236 283z
M102 729q0 448 199.5 594.5t387 146.5t387.5 -147t200 -594t-200 -594t-387.5 -147t-387 146.5t-199.5 594.5z" />
    <glyph glyph-name="Odieresis" unicode="&#xd6;" 
d="M748 1760q0 66 44.5 112.5t109.5 46.5t111 -46.5t46 -112.5t-45.5 -110t-111.5 -44t-110 44t-44 110zM485 320q106 -82 235.5 -82t204 130t74.5 408.5t-107 361.5t-204.5 83t-203 -83t-105.5 -409.5t106 -408.5zM319 1760q0 66 45.5 112.5t109.5 46.5t110.5 -46.5
t46.5 -112.5t-45.5 -110t-111.5 -44t-110.5 44t-44.5 110zM102 729q0 448 199.5 594.5t387 146.5t387.5 -147t200 -594t-200 -594t-387.5 -147t-387 146.5t-199.5 594.5z" />
    <glyph glyph-name="multiply" unicode="&#xd7;" horiz-adv-x="1146" 
d="M96 338l316 315l-316 316l162 161l315 -315l316 315l162 -161l-316 -316l316 -315l-162 -162l-316 316l-315 -316z" />
    <glyph glyph-name="Oslash" unicode="&#xd8;" 
d="M670 238q64 0 133.5 19.5t132.5 130t63 341.5q0 148 -34 264l-414 -723q55 -32 119 -32zM379 706q0 -140 37 -253l418 729q-64 39 -128 39t-104.5 -11.5t-82.5 -44.5t-72 -86t-49 -143t-19 -230zM102 729q0 448 199.5 594.5t368.5 146.5q168 0 291 -67l83 145l181 -104
l-103 -178q154 -199 154 -537q0 -447 -200 -594t-369 -147q-168 0 -283 63l-84 -145l-180 104l100 174q-158 196 -158 545z" />
    <glyph glyph-name="Ugrave" unicode="&#xd9;" horiz-adv-x="1261" 
d="M362 2017h295l242 -426h-221zM395 475q0 -237 235.5 -237t235.5 237v983h273v-997q0 -225 -136.5 -349t-370.5 -124t-371.5 124.5t-137.5 348.5v997h272v-983z" />
    <glyph glyph-name="Uacute" unicode="&#xda;" horiz-adv-x="1261" 
d="M360 1591l244 426h295l-317 -426h-222zM395 475q0 -237 235.5 -237t235.5 237v983h273v-997q0 -225 -136.5 -349t-370.5 -124t-371.5 124.5t-137.5 348.5v997h272v-983z" />
    <glyph glyph-name="Ucircumflex" unicode="&#xdb;" horiz-adv-x="1261" 
d="M297 1591l244 426h190l234 -426h-230l-102 193l-109 -193h-227zM395 475q0 -237 235.5 -237t235.5 237v983h273v-997q0 -225 -136.5 -349t-370.5 -124t-371.5 124.5t-137.5 348.5v997h272v-983z" />
    <glyph glyph-name="Udieresis" unicode="&#xdc;" horiz-adv-x="1261" 
d="M688 1760q0 66 45 112.5t110 46.5t110.5 -46.5t45.5 -112.5t-45.5 -110t-111.5 -44t-110 44t-44 110zM260 1760q0 66 46 112.5t110 46.5t109.5 -46.5t45.5 -112.5t-44.5 -110t-110.5 -44t-111 44t-45 110zM395 475q0 -237 235.5 -237t235.5 237v983h273v-997
q0 -225 -136.5 -349t-370.5 -124t-371.5 124.5t-137.5 348.5v997h272v-983z" />
    <glyph glyph-name="Yacute" unicode="&#xdd;" horiz-adv-x="1159" 
d="M309 1591l244 426h295l-318 -426h-221zM715 0h-273v563l-438 895h289l287 -567l286 567h289l-440 -895v-563z" />
    <glyph glyph-name="Thorn" unicode="&#xde;" horiz-adv-x="1161" 
d="M604 584q219 0 219 196q0 102 -57.5 155.5t-161.5 53.5h-209v-405h209zM123 0v1458h272v-221h223q229 0 355.5 -123.5t126.5 -331.5t-126 -327t-356 -119h-223v-336h-272z" />
    <glyph glyph-name="germandbls" unicode="&#xdf;" horiz-adv-x="1257" 
d="M170 1038q0 432 446 432q230 0 353 -105t123 -271q0 -97 -42.5 -184.5t-115.5 -143.5q95 -43 154.5 -110.5t79.5 -130.5t20 -132q0 -120 -62.5 -214.5t-160 -142.5t-221.5 -48t-238 69v215q161 -45 235 -45t128.5 46t54.5 124q0 158 -135.5 174.5t-180.5 16.5v219h56
q70 32 115.5 101.5t45.5 145.5t-53 126.5t-147 50.5q-193 0 -193 -139v-1092h-262v807h-107v231h107z" />
    <glyph glyph-name="agrave" unicode="&#xe0;" horiz-adv-x="1048" 
d="M334 311q0 -38 26.5 -61t102.5 -23q127 0 201 78v133l-207 -12q-123 -6 -123 -115zM256 1597h295l242 -426h-222zM70 307q0 303 383 328l211 14v13q0 72 -39.5 110.5t-112.5 38.5q-119 0 -190 -96l-216 61q37 121 152 198t282 77t276.5 -105t109.5 -266v-680h-250l-4 72
q-110 -84 -256 -84t-246 79.5t-100 239.5z" />
    <glyph glyph-name="aacute" unicode="&#xe1;" horiz-adv-x="1048" 
d="M334 311q0 -38 26.5 -61t102.5 -23q127 0 201 78v133l-207 -12q-123 -6 -123 -115zM254 1171l244 426h295l-318 -426h-221zM70 307q0 303 383 328l211 14v13q0 72 -39.5 110.5t-112.5 38.5q-119 0 -190 -96l-216 61q37 121 152 198t282 77t276.5 -105t109.5 -266v-680
h-250l-4 72q-110 -84 -256 -84t-246 79.5t-100 239.5z" />
    <glyph glyph-name="acircumflex" unicode="&#xe2;" horiz-adv-x="1048" 
d="M334 311q0 -38 26.5 -61t102.5 -23q127 0 201 78v133l-207 -12q-123 -6 -123 -115zM190 1171l244 426h191l233 -426h-229l-103 193l-108 -193h-228zM70 307q0 303 383 328l211 14v13q0 72 -39.5 110.5t-112.5 38.5q-119 0 -190 -96l-216 61q37 121 152 198t282 77
t276.5 -105t109.5 -266v-680h-250l-4 72q-110 -84 -256 -84t-246 79.5t-100 239.5z" />
    <glyph glyph-name="atilde" unicode="&#xe3;" horiz-adv-x="1048" 
d="M334 311q0 -38 26.5 -61t102.5 -23q127 0 201 78v133l-207 -12q-123 -6 -123 -115zM381 1499q48 0 134.5 -36t126.5 -36t59 20.5t44 70.5l156 -33q-37 -208 -105 -245.5t-118 -37.5t-140 35t-132 35t-60 -22t-35 -68l-166 35q57 282 236 282zM70 307q0 303 383 328
l211 14v13q0 72 -39.5 110.5t-112.5 38.5q-119 0 -190 -96l-216 61q37 121 152 198t282 77t276.5 -105t109.5 -266v-680h-250l-4 72q-110 -84 -256 -84t-246 79.5t-100 239.5z" />
    <glyph glyph-name="adieresis" unicode="&#xe4;" horiz-adv-x="1048" 
d="M582 1340q0 66 44.5 112.5t109.5 46.5t111 -46.5t46 -112.5t-45.5 -110t-111.5 -44t-110 44t-44 110zM334 311q0 -38 26.5 -61t102.5 -23q127 0 201 78v133l-207 -12q-123 -6 -123 -115zM154 1340q0 66 45 112.5t109 46.5t110.5 -46.5t46.5 -112.5t-45.5 -110t-111.5 -44
t-110 44t-44 110zM70 307q0 303 383 328l211 14v13q0 72 -39.5 110.5t-112.5 38.5q-119 0 -190 -96l-216 61q37 121 152 198t282 77t276.5 -105t109.5 -266v-680h-250l-4 72q-110 -84 -256 -84t-246 79.5t-100 239.5z" />
    <glyph glyph-name="aring" unicode="&#xe5;" horiz-adv-x="1048" 
d="M522 1532q78 0 134.5 -56.5t56.5 -134.5t-56.5 -134t-134.5 -56t-133 56t-55 134t55 134.5t133 56.5zM334 311q0 -38 26.5 -61t102.5 -23q127 0 201 78v133l-207 -12q-123 -6 -123 -115zM70 307q0 303 383 328l211 14v13q0 72 -39.5 110.5t-112.5 38.5q-119 0 -190 -96
l-216 61q37 121 152 198t282 77t276.5 -105t109.5 -266v-680h-250l-4 72q-110 -84 -256 -84t-246 79.5t-100 239.5z" />
    <glyph glyph-name="ae" unicode="&#xe6;" horiz-adv-x="1665" 
d="M1134 811q-152 0 -196 -152l379 17q-31 135 -183 135zM334 311q0 -84 120 -84q67 0 116.5 15t93.5 63v133l-207 -12q-123 -6 -123 -115zM70 307q0 305 383 330l211 12v13q0 72 -39.5 110.5t-112.5 38.5q-119 0 -190 -96l-216 61q37 121 152.5 198t277.5 77t281 -109
q121 109 308 109t288 -82t141.5 -179.5t40.5 -226.5v-84l-667 -28q24 -224 207 -224q132 0 208 127l230 -59q-27 -99 -124.5 -203t-303.5 -104q-101 0 -196.5 34t-157.5 95q-131 -129 -350 -129t-295 105t-76 214z" />
    <glyph glyph-name="ccedilla" unicode="&#xe7;" horiz-adv-x="1013" 
d="M478 -313q44 0 58.5 15.5t14.5 41.5q0 57 -70 63l-98 9l47 183q-166 33 -263 163.5t-97 355.5q0 323 159 428t310 105t258 -77.5t147 -221.5l-229 -62q-65 121 -176 121q-78 0 -141.5 -59.5t-63.5 -233.5q0 -230 82.5 -260.5t120.5 -30.5q113 0 178 127l229 -59
q-40 -146 -134 -218t-208 -86l-16 -67q74 -6 135 -44.5t61 -132.5q0 -93 -75.5 -151.5t-182.5 -58.5t-211 49v156q121 -55 165 -55z" />
    <glyph glyph-name="egrave" unicode="&#xe8;" horiz-adv-x="1077" 
d="M538 811q-151 0 -192 -172h381q-38 172 -189 172zM270 1597h295l242 -426h-221zM70 503q0 127 27 219t71.5 152.5t106 101t127 58t137.5 17.5t176.5 -27.5t198.5 -154.5t94 -351v-88h-668q27 -203 203 -203q135 0 211 127l229 -59q-40 -146 -158 -226.5t-295 -80.5
t-279 89t-141.5 194t-39.5 232z" />
    <glyph glyph-name="eacute" unicode="&#xe9;" horiz-adv-x="1077" 
d="M538 811q-151 0 -192 -172h381q-38 172 -189 172zM268 1171l244 426h295l-318 -426h-221zM70 503q0 127 27 219t71.5 152.5t106 101t127 58t137.5 17.5t176.5 -27.5t198.5 -154.5t94 -351v-88h-668q27 -203 203 -203q135 0 211 127l229 -59q-40 -146 -158 -226.5
t-295 -80.5t-279 89t-141.5 194t-39.5 232z" />
    <glyph glyph-name="ecircumflex" unicode="&#xea;" horiz-adv-x="1077" 
d="M538 811q-151 0 -192 -172h381q-38 172 -189 172zM205 1171l244 426h190l233 -426h-229l-102 193l-109 -193h-227zM70 503q0 127 27 219t71.5 152.5t106 101t127 58t137.5 17.5t176.5 -27.5t198.5 -154.5t94 -351v-88h-668q27 -203 203 -203q135 0 211 127l229 -59
q-40 -146 -158 -226.5t-295 -80.5t-279 89t-141.5 194t-39.5 232z" />
    <glyph glyph-name="edieresis" unicode="&#xeb;" horiz-adv-x="1077" 
d="M596 1340q0 66 45 112.5t110 46.5t110.5 -46.5t45.5 -112.5t-45.5 -110t-111.5 -44t-110 44t-44 110zM538 811q-151 0 -192 -172h381q-38 172 -189 172zM168 1340q0 66 46 112.5t110 46.5t109.5 -46.5t45.5 -112.5t-44.5 -110t-110.5 -44t-111 44t-45 110zM70 503
q0 127 27 219t71.5 152.5t106 101t127 58t137.5 17.5t176.5 -27.5t198.5 -154.5t94 -351v-88h-668q27 -203 203 -203q135 0 211 127l229 -59q-40 -146 -158 -226.5t-295 -80.5t-279 89t-141.5 194t-39.5 232z" />
    <glyph glyph-name="igrave" unicode="&#xec;" horiz-adv-x="772" 
d="M76 1597h295l241 -426h-221zM70 0v231h198v576h-198v231h460v-807h201v-231h-661z" />
    <glyph glyph-name="iacute" unicode="&#xed;" horiz-adv-x="772" 
d="M117 1171l243 426h295l-317 -426h-221zM70 0v231h198v576h-198v231h460v-807h201v-231h-661z" />
    <glyph glyph-name="icircumflex" unicode="&#xee;" horiz-adv-x="772" 
d="M70 0v231h198v576h-198v231h460v-807h201v-231h-661zM51 1171l244 426h190l234 -426h-230l-102 193l-108 -193h-228z" />
    <glyph glyph-name="idieresis" unicode="&#xef;" horiz-adv-x="772" 
d="M444 1340q0 66 45 112.5t110 46.5t111 -46.5t46 -112.5t-46 -110t-112 -44t-110 44t-44 110zM70 0v231h198v576h-198v231h460v-807h201v-231h-661zM16 1340q0 66 46 112.5t110 46.5t110 -46.5t46 -112.5t-45 -110t-111 -44t-111 44t-45 110z" />
    <glyph glyph-name="eth" unicode="&#xf0;" horiz-adv-x="1073" 
d="M334 518q0 -230 83 -260.5t141.5 -30.5t119.5 59t61 232q0 293 -200 293q-78 0 -141.5 -59.5t-63.5 -233.5zM70 514q0 271 126.5 397t301.5 138l-60 92l-196 -60l-58 201l135 39l-135 209h301l88 -133l244 73l55 -198l-180 -55l174 -259q138 -212 138 -440
q0 -322 -157.5 -426t-326.5 -104t-269.5 89t-140.5 195t-40 242z" />
    <glyph glyph-name="ntilde" unicode="&#xf1;" horiz-adv-x="1103" 
d="M410 1499q48 0 135 -36t127 -36t58.5 20.5t43.5 70.5l156 -33q-37 -208 -105.5 -245.5t-118.5 -37.5t-139 35t-131 35t-60.5 -22t-35.5 -68l-166 35q57 282 236 282zM135 0v1038h250l4 -71q99 84 208 84t240.5 -87t131.5 -352v-612h-262v596q0 169 -58 192t-84 23
q-58 0 -105 -44t-63 -144v-623h-262z" />
    <glyph glyph-name="ograve" unicode="&#xf2;" horiz-adv-x="1073" 
d="M334 518q0 -230 83 -260.5t141.5 -30.5t119.5 59t61 232q0 293 -200 293q-78 0 -141.5 -59.5t-63.5 -233.5zM268 1597h295l242 -426h-221zM70 504q0 126 38 256.5t159 210.5t272 80q237 0 351 -153.5t114 -427.5t-157.5 -378t-326.5 -104t-269.5 89t-140.5 195t-40 232z
" />
    <glyph glyph-name="oacute" unicode="&#xf3;" horiz-adv-x="1073" 
d="M334 518q0 -230 83 -260.5t141.5 -30.5t119.5 59t61 232q0 293 -200 293q-78 0 -141.5 -59.5t-63.5 -233.5zM266 1171l244 426h295l-318 -426h-221zM70 504q0 126 38 256.5t159 210.5t272 80q237 0 351 -153.5t114 -427.5t-157.5 -378t-326.5 -104t-269.5 89t-140.5 195
t-40 232z" />
    <glyph glyph-name="ocircumflex" unicode="&#xf4;" horiz-adv-x="1073" 
d="M334 518q0 -230 83 -260.5t141.5 -30.5t119.5 59t61 232q0 293 -200 293q-78 0 -141.5 -59.5t-63.5 -233.5zM203 1171l243 426h191l233 -426h-229l-102 193l-109 -193h-227zM70 504q0 126 38 256.5t159 210.5t272 80q237 0 351 -153.5t114 -427.5t-157.5 -378
t-326.5 -104t-269.5 89t-140.5 195t-40 232z" />
    <glyph glyph-name="otilde" unicode="&#xf5;" horiz-adv-x="1073" 
d="M334 518q0 -230 83 -260.5t141.5 -30.5t119.5 59t61 232q0 293 -200 293q-78 0 -141.5 -59.5t-63.5 -233.5zM393 1499q48 0 135.5 -36t127.5 -36t58.5 20.5t43.5 70.5l155 -33q-37 -208 -105 -245.5t-118 -37.5t-139 35t-131 35t-60.5 -22t-35.5 -68l-166 35
q57 282 235 282zM70 504q0 126 38 256.5t159 210.5t272 80q237 0 351 -153.5t114 -427.5t-157.5 -378t-326.5 -104t-269.5 89t-140.5 195t-40 232z" />
    <glyph glyph-name="odieresis" unicode="&#xf6;" horiz-adv-x="1073" 
d="M594 1340q0 66 45 112.5t110 46.5t110.5 -46.5t45.5 -112.5t-45.5 -110t-111.5 -44t-110 44t-44 110zM334 518q0 -230 83 -260.5t141.5 -30.5t119.5 59t61 232q0 293 -200 293q-78 0 -141.5 -59.5t-63.5 -233.5zM166 1340q0 66 46 112.5t110 46.5t109.5 -46.5
t45.5 -112.5t-44.5 -110t-110.5 -44t-111 44t-45 110zM70 504q0 126 38 256.5t159 210.5t272 80q237 0 351 -153.5t114 -427.5t-157.5 -378t-326.5 -104t-269.5 89t-140.5 195t-40 232z" />
    <glyph glyph-name="divide" unicode="&#xf7;" horiz-adv-x="1167" 
d="M428 982q0 66 46 112.5t111 46.5t111.5 -46.5t46.5 -112.5t-45.5 -111.5t-111.5 -45.5t-112 45.5t-46 111.5zM428 324q0 66 46 111.5t111 45.5t111.5 -46.5t46.5 -111.5t-45.5 -111t-111.5 -46t-112 46t-46 112zM96 539v229h975v-229h-975z" />
    <glyph glyph-name="oslash" unicode="&#xf8;" horiz-adv-x="1073" 
d="M542 227q75 0 136 59t61 232q0 68 -12 117l-250 -399q29 -9 65 -9zM334 524q0 -80 12 -129l254 408q-28 8 -64 8t-68.5 -12t-64.5 -42t-50.5 -91.5t-18.5 -141.5zM70 518q0 322 159 427.5t286 105.5q128 0 216 -39l70 112l172 -98l-84 -131q115 -141 115 -377
q0 -322 -157.5 -426t-283.5 -104q-127 0 -217 35l-76 -121l-168 102l84 135q-116 135 -116 379z" />
    <glyph glyph-name="ugrave" unicode="&#xf9;" horiz-adv-x="1124" 
d="M293 1597h295l241 -426h-221zM735 72q-84 -84 -210 -84t-258 87t-132 351v625h262v-609q0 -215 146 -215q62 0 114.5 43t69.5 146v622h262v-1038h-250z" />
    <glyph glyph-name="uacute" unicode="&#xfa;" horiz-adv-x="1124" 
d="M293 1171l244 426h294l-317 -426h-221zM735 72q-84 -84 -210 -84t-258 87t-132 351v625h262v-609q0 -215 146 -215q62 0 114.5 43t69.5 146v622h262v-1038h-250z" />
    <glyph glyph-name="ucircumflex" unicode="&#xfb;" horiz-adv-x="1124" 
d="M227 1171l244 426h191l233 -426h-229l-103 193l-108 -193h-228zM735 72q-84 -84 -210 -84t-258 87t-132 351v625h262v-609q0 -215 146 -215q62 0 114.5 43t69.5 146v622h262v-1038h-250z" />
    <glyph glyph-name="udieresis" unicode="&#xfc;" horiz-adv-x="1124" 
d="M621 1340q0 66 44.5 112.5t109.5 46.5t111 -46.5t46 -112.5t-46 -110t-112 -44t-109.5 44t-43.5 110zM193 1340q0 66 45.5 112.5t109.5 46.5t110 -46.5t46 -112.5t-45 -110t-111 -44t-110.5 44t-44.5 110zM735 72q-84 -84 -210 -84t-258 87t-132 351v625h262v-609
q0 -215 146 -215q62 0 114.5 43t69.5 146v622h262v-1038h-250z" />
    <glyph glyph-name="yacute" unicode="&#xfd;" horiz-adv-x="989" 
d="M225 1171l244 426h295l-318 -426h-221zM4 1038h283l207 -626l208 626h283l-532 -1458h-267l172 486z" />
    <glyph glyph-name="thorn" unicode="&#xfe;" horiz-adv-x="1138" 
d="M606 227q75 0 137 59t62 232q0 232 -81.5 262.5t-117.5 30.5q-71 0 -131 -45.5t-78 -161.5v-127q24 -193 98.5 -221.5t110.5 -28.5zM135 -420v1878h262v-477q87 70 209 70q230 0 346.5 -154t116.5 -425t-159 -377.5t-287 -106.5q-127 0 -226 73v-481h-262z" />
    <glyph glyph-name="ydieresis" unicode="&#xff;" horiz-adv-x="989" 
d="M553 1340q0 66 45 112.5t110 46.5t110.5 -46.5t45.5 -112.5t-45 -110t-111 -44t-110.5 44t-44.5 110zM125 1340q0 66 45.5 112.5t109.5 46.5t110 -46.5t46 -112.5t-45 -110t-111 -44t-110.5 44t-44.5 110zM4 1038h283l207 -626l208 626h283l-532 -1458h-267l172 486z" />
    <glyph glyph-name="Ohungarumlaut" unicode="&#x150;" 
d="M736 1591l234 426h279l-307 -426h-206zM294 1591l234 426h279l-307 -426h-206zM485 320q106 -82 235.5 -82t204 130t74.5 408.5t-107 361.5t-204.5 83t-203 -83t-105.5 -409.5t106 -408.5zM102 729q0 448 199.5 594.5t387 146.5t387.5 -147t200 -594t-200 -594
t-387.5 -147t-387 146.5t-199.5 594.5z" />
    <glyph glyph-name="ohungarumlaut" unicode="&#x151;" horiz-adv-x="1073" 
d="M596 1171l234 426h279l-307 -426h-206zM154 1171l234 426h279l-307 -426h-206zM334 518q0 -230 83 -260.5t141.5 -30.5t119.5 59t61 232q0 293 -200 293q-78 0 -141.5 -59.5t-63.5 -233.5zM70 504q0 126 38 256.5t159 210.5t272 80q237 0 351 -153.5t114 -427.5
t-157.5 -378t-326.5 -104t-269.5 89t-140.5 195t-40 232z" />
    <glyph glyph-name="OE" unicode="&#x152;" horiz-adv-x="1996" 
d="M688 238q157 0 232 123t79 337v31q0 326 -107 409t-236 83t-203 -131t-74 -409.5t106 -360.5t203 -82zM999 1458h936v-248h-663v-352h485v-248h-485v-362h663v-248h-936v80q-140 -92 -319 -92t-330.5 111.5t-199.5 291.5t-48 338t48 338t199.5 291.5t329.5 111.5t320 -90
v78z" />
    <glyph glyph-name="oe" unicode="&#x153;" horiz-adv-x="1742" 
d="M1204 811q-151 0 -192 -172h381q-38 172 -189 172zM334 518q0 -230 83 -260.5t141.5 -30.5t119.5 59t61 232q0 293 -200 293q-78 0 -141.5 -59.5t-63.5 -233.5zM70 504q0 126 38 256.5t159 210.5t272 80q204 0 331 -133q127 133 334 133q240 0 354.5 -154.5t114.5 -378.5
v-88h-667q27 -203 202 -203q135 0 211 127l230 -59q-40 -146 -158.5 -226.5t-276.5 -80.5q-218 0 -346 131q-125 -131 -321 -131t-296.5 89t-140.5 195t-40 232z" />
    <glyph glyph-name="Uhungarumlaut" unicode="&#x170;" horiz-adv-x="1261" 
d="M395 475q0 -237 235.5 -237t235.5 237v983h273v-997q0 -225 -136.5 -349t-370.5 -124t-371.5 124.5t-137.5 348.5v997h272v-983zM669 1591l234 426h279l-307 -426h-206zM227 1591l234 426h279l-307 -426h-206z" />
    <glyph glyph-name="uhungarumlaut" unicode="&#x171;" horiz-adv-x="1124" 
d="M606 1171l234 426h279l-307 -426h-206zM164 1171l234 426h279l-307 -426h-206zM735 72q-84 -84 -210 -84t-258 87t-132 351v625h262v-609q0 -215 146 -215q62 0 114.5 43t69.5 146v622h262v-1038h-250z" />
    <glyph glyph-name="Ydieresis" unicode="&#x178;" horiz-adv-x="1159" 
d="M637 1760q0 66 45 112.5t110 46.5t110.5 -46.5t45.5 -112.5t-45 -110t-111 -44t-110.5 44t-44.5 110zM209 1760q0 66 45.5 112.5t109.5 46.5t110 -46.5t46 -112.5t-45 -110t-111 -44t-110.5 44t-44.5 110zM715 0h-273v563l-438 895h289l287 -567l286 567h289l-440 -895
v-563z" />
    <glyph glyph-name="circumflex" unicode="&#x2c6;" horiz-adv-x="430" 
d="M-119 1171l244 426h190l234 -426h-230l-102 193l-108 -193h-228z" />
    <glyph glyph-name="tilde" unicode="&#x2dc;" horiz-adv-x="788" 
d="M246 1499q48 0 135 -36t127 -36t58.5 20.5t43.5 70.5l156 -33q-37 -208 -105.5 -245.5t-118.5 -37.5t-139 35t-131 35t-60.5 -22t-35.5 -68l-166 35q57 282 236 282z" />
    <glyph glyph-name="uni2000" unicode="&#x2000;" horiz-adv-x="1008" 
 />
    <glyph glyph-name="uni2001" unicode="&#x2001;" horiz-adv-x="2017" 
 />
    <glyph glyph-name="uni2002" unicode="&#x2002;" horiz-adv-x="1008" 
 />
    <glyph glyph-name="uni2003" unicode="&#x2003;" horiz-adv-x="2017" 
 />
    <glyph glyph-name="uni2004" unicode="&#x2004;" horiz-adv-x="672" 
 />
    <glyph glyph-name="uni2005" unicode="&#x2005;" horiz-adv-x="504" 
 />
    <glyph glyph-name="uni2006" unicode="&#x2006;" horiz-adv-x="336" 
 />
    <glyph glyph-name="uni2007" unicode="&#x2007;" horiz-adv-x="336" 
 />
    <glyph glyph-name="uni2008" unicode="&#x2008;" horiz-adv-x="252" 
 />
    <glyph glyph-name="uni2009" unicode="&#x2009;" horiz-adv-x="403" 
 />
    <glyph glyph-name="uni200A" unicode="&#x200a;" horiz-adv-x="112" 
 />
    <glyph glyph-name="uni2010" unicode="&#x2010;" horiz-adv-x="892" 
d="M109 461v229h675v-229h-675z" />
    <glyph glyph-name="uni2011" unicode="&#x2011;" horiz-adv-x="892" 
d="M109 461v229h675v-229h-675z" />
    <glyph glyph-name="figuredash" unicode="&#x2012;" horiz-adv-x="892" 
d="M109 461v229h675v-229h-675z" />
    <glyph glyph-name="endash" unicode="&#x2013;" horiz-adv-x="1062" 
d="M0 461v229h1063v-229h-1063z" />
    <glyph glyph-name="emdash" unicode="&#x2014;" horiz-adv-x="1996" 
d="M0 461v229h1997v-229h-1997z" />
    <glyph glyph-name="quoteleft" unicode="&#x2018;" horiz-adv-x="593" 
d="M141 1089q0 53 23 109l106 275h174l-55 -240q64 -45 64 -121t-45.5 -122t-109.5 -46t-110.5 46t-46.5 99z" />
    <glyph glyph-name="quoteright" unicode="&#x2019;" horiz-adv-x="593" 
d="M141 1304q0 76 45.5 122.5t109.5 46.5t110.5 -46t46.5 -99t-23 -109l-106 -275h-174l55 240q-64 44 -64 120z" />
    <glyph glyph-name="quotesinglbase" unicode="&#x201a;" horiz-adv-x="593" 
d="M141 141q0 76 45 122t110 46t111 -45.5t46 -99.5t-23 -109l-106 -274h-174l55 239q-64 45 -64 121z" />
    <glyph glyph-name="quotedblleft" unicode="&#x201c;" horiz-adv-x="821" 
d="M432 1089q0 53 23 109l106 275h174l-55 -240q63 -45 63 -121t-45.5 -122t-109.5 -46t-110 46t-46 99zM78 1090q0 54 22 108l107 275h174l-55 -240q63 -45 63 -121t-45.5 -122t-109.5 -46t-110 46t-46 100z" />
    <glyph glyph-name="quotedblright" unicode="&#x201d;" horiz-adv-x="821" 
d="M432 1304q0 76 46 122.5t110 46.5t109.5 -46.5t45.5 -100.5t-22 -107l-107 -275h-174l56 240q-64 44 -64 120zM78 1304q0 76 45 122.5t109 46.5t110.5 -46.5t46.5 -100.5t-22 -107l-107 -275h-174l55 240q-63 44 -63 120z" />
    <glyph glyph-name="quotedblbase" unicode="&#x201e;" horiz-adv-x="821" 
d="M432 141q0 76 45 122t110 46t110.5 -45.5t45.5 -100.5t-22 -108l-107 -274h-174l56 239q-64 45 -64 121zM78 141q0 76 45 122t109 46t110.5 -45.5t46.5 -100.5t-22 -108l-107 -274h-174l55 239q-63 45 -63 121z" />
    <glyph glyph-name="bullet" unicode="&#x2022;" horiz-adv-x="1028" 
d="M514 1096q152 0 259.5 -108t107.5 -259t-107.5 -259t-259.5 -108t-259.5 108t-107.5 259t107.5 259t259.5 108z" />
    <glyph glyph-name="ellipsis" unicode="&#x2026;" horiz-adv-x="2050" 
d="M1501 152q0 66 45 111.5t110 45.5t110.5 -45.5t45.5 -111.5t-45 -111t-111 -45t-110.5 45t-44.5 111zM868 152q0 66 45 111.5t110 45.5t111 -45.5t46 -111.5t-45 -111t-111 -45t-111 45t-45 111zM238 152q0 66 45 111.5t111 45.5t111.5 -45.5t45.5 -111.5t-46 -111
t-112 -45t-110.5 45t-44.5 111z" />
    <glyph glyph-name="uni202F" unicode="&#x202f;" horiz-adv-x="403" 
 />
    <glyph glyph-name="guilsinglleft" unicode="&#x2039;" horiz-adv-x="731" 
d="M94 567l467 441l76 -201l-227 -240l225 -239l-74 -201z" />
    <glyph glyph-name="guilsinglright" unicode="&#x203a;" horiz-adv-x="731" 
d="M94 807l76 201l467 -441l-467 -440l-74 201l226 239z" />
    <glyph glyph-name="uni205F" unicode="&#x205f;" horiz-adv-x="504" 
 />
    <glyph glyph-name="Euro" unicode="&#x20ac;" horiz-adv-x="1257" 
d="M184 674v55q0 45 2 68h-127l27 182h121q74 367 248 429t254 62q153 0 281 -104t196 -328l-234 -65q-74 248 -243 248q-75 0 -137 -54.5t-93 -187.5h389l-26 -182h-387v-123h374l-26 -182h-328q31 -140 95 -197t141 -57q165 0 239 237l238 -53q-102 -330 -254 -382
t-229 -52q-161 0 -305 118.5t-195 385.5h-174l26 182h127z" />
    <glyph glyph-name="trademark" unicode="&#x2122;" horiz-adv-x="1333" 
d="M635 819v651h162l114 -217l117 217h150v-651h-158v338l-76 -149h-70l-81 149v-338h-158zM82 1313v157h489v-157h-165v-494h-158v494h-166z" />
    <glyph glyph-name="uni25FC" unicode="&#x25fc;" horiz-adv-x="1034" 
d="M0 0v1034h1034v-1034h-1034z" />
    <glyph glyph-name="glyph2" horiz-adv-x="682" 
 />
    </font>
</defs>
</svg>
